<svg xmlns="http://www.w3.org/2000/svg" width="366.788" height="378.698" viewBox="0 0 366.788 378.698"><defs><style>.a{fill:#b89778;opacity:0.4;}.a,.ab{mix-blend-mode:multiply;}.a,.ab,.h{isolation:isolate;}.b{fill:#8c0c23;}.c{fill:#ffb02e;}.d{fill:#d18217;}.e{fill:#ef9b09;}.f{fill:#e71920;}.g{fill:#d7001b;}.i{fill:#480315;}.j{fill:#d34f27;}.k{fill:#e7191f;}.l{fill:#5f1f4b;}.m{fill:#cf7f18;}.n{fill:#ffa718;}.o{fill:#8ba6bb;}.p{fill:#092449;}.q{fill:#2e0b1f;}.r{fill:#51153d;}.s{fill:#a43a81;}.t{fill:#657988;}.u{fill:#434f58;}.v{fill:#7d93a0;}.w{fill:#f99969;}.x{fill:#1c262a;}.y{fill:#2d3e45;}.z{fill:#141d37;}.aa{fill:#172343;}.ab{fill:#fdac77;}.ac{fill:#44ac6c;}.ad{fill:#f2a003;}.ae{fill:#ffc72e;}.af{fill:#e68412;}</style></defs><g transform="translate(-890.417 -1833.435)"><path class="a" d="M1197.8,2077.466l-176.025,101.807-71.023-41,176.023-101.807Z" transform="translate(0 -1)"/><g transform="translate(0 -1)"><path class="b" d="M970.245,1962.954a1.481,1.481,0,0,1-.746-2.764l95.646-55.221a1.482,1.482,0,0,1,1.482,2.567l-95.644,55.221A1.471,1.471,0,0,1,970.245,1962.954Z"/><path class="c" d="M1025.794,1846.16a1.308,1.308,0,0,1,.335-.077c.014,0,.024,0,.036,0a1.273,1.273,0,0,1,.338.018.022.022,0,0,0,.011,0,1.066,1.066,0,0,1,.3.118l-2.082-1.206a.017.017,0,0,0-.011-.009.684.684,0,0,0-.107-.055c-.034-.015-.073-.026-.108-.039s-.049-.01-.079-.017c0,0,0,0-.017,0a.042.042,0,0,0-.022,0,.644.644,0,0,0-.124-.017.556.556,0,0,0-.141,0c-.018,0-.029,0-.045,0a.08.08,0,0,0-.029,0c-.028,0-.056.006-.083.006-.058.011-.12.024-.182.041-.028.011-.05.017-.077.026a.579.579,0,0,0-.073.024.847.847,0,0,0-.1.04,2.731,2.731,0,0,0-.293.137l-5.985,3.462,2.08,1.2,5.985-3.452a2.039,2.039,0,0,1,.389-.176A.264.264,0,0,1,1025.794,1846.16Z"/><path class="d" d="M1001.7,1867.225l-.011-4.808-2.081-1.2.01,4.8a1.47,1.47,0,0,0,.614,1.345l2.075,1.208A1.479,1.479,0,0,1,1001.7,1867.225Z"/><path class="e" d="M1025.33,1846.36c1.156-.668,2.1-.129,2.1,1.2l.019,4.815a4.573,4.573,0,0,1-2.088,3.607L1003.8,1868.42c-1.157.67-2.088.136-2.1-1.2l-.011-4.808a4.557,4.557,0,0,1,2.085-3.607l5.984-3.463c1.231,1.029,2.927,1.126,4.8.04a13.256,13.256,0,0,0,4.786-5.575Z"/><path class="c" d="M1001.841,1861.41a.079.079,0,0,0,.016-.044c.053-.166.115-.333.182-.5l0-.005a5.387,5.387,0,0,1,.249-.491c0-.006.006-.009.006-.017.091-.152.194-.3.295-.447a.066.066,0,0,0,.021-.035c.1-.131.2-.254.312-.371.02-.024.044-.044.065-.07a3.521,3.521,0,0,1,.268-.251,1.127,1.127,0,0,0,.122-.107,3.1,3.1,0,0,1,.4-.266l5.984-3.463-2.076-1.205-5.988,3.455a3.249,3.249,0,0,0-.4.271l-.116.11a2.059,2.059,0,0,0-.187.16.834.834,0,0,1-.087.083c-.014.026-.041.05-.058.078a.629.629,0,0,0-.081.082c-.062.064-.112.137-.168.207-.025.027-.042.054-.064.077-.005.014-.015.023-.022.04a.327.327,0,0,0-.056.07c-.045.061-.079.12-.124.184s-.072.114-.109.177a.022.022,0,0,1-.01.021l0,.009c-.028.047-.053.094-.08.143s-.064.117-.092.181a1.267,1.267,0,0,0-.076.167v0l-.008.007c-.026.063-.05.13-.073.194s-.05.13-.073.193a1.026,1.026,0,0,0-.031.1.164.164,0,0,1-.014.043.279.279,0,0,1-.023.067c-.022.08-.038.159-.053.24a.687.687,0,0,0-.026.147c-.006.026-.012.049-.018.081a.345.345,0,0,0-.011.07,3.417,3.417,0,0,0-.026.406l2.081,1.2a2.891,2.891,0,0,1,.038-.476.4.4,0,0,1,.01-.073C1001.766,1861.713,1001.8,1861.559,1001.841,1861.41Z"/><path class="f" d="M1014.5,1836.415c3.734-2.15,6.767.35,6.778,5.588a17.8,17.8,0,0,1-1.934,7.809,13.256,13.256,0,0,1-4.786,5.575c-1.873,1.086-3.569.989-4.8-.04-1.213-1.015-1.968-2.945-1.975-5.556C1007.767,1844.561,1010.779,1838.571,1014.5,1836.415Z"/><path class="g" d="M1007.848,1848.519c.017-.233.039-.456.064-.683.055-.414.128-.821.212-1.235.034-.145.064-.291.095-.428.045-.2.1-.391.142-.581.046-.173.095-.344.152-.514.038-.14.079-.283.125-.423.067-.2.134-.4.207-.6.04-.1.07-.2.109-.3.1-.294.224-.577.348-.866.01-.026.03-.059.039-.088.113-.251.233-.5.349-.749.039-.08.081-.149.12-.228.112-.219.224-.432.344-.642.034-.058.061-.108.1-.161.139-.254.29-.5.447-.749.042-.059.08-.12.12-.176.129-.184.255-.37.385-.551.049-.073.105-.143.163-.221.123-.163.249-.319.378-.473.06-.077.119-.147.18-.22.082-.1.174-.2.272-.3.118-.131.246-.271.372-.4.185-.181.365-.355.55-.519.037-.029.074-.053.11-.087.156-.135.324-.266.492-.394.053-.039.116-.079.173-.123.2-.143.4-.274.607-.4.187-.1.368-.193.544-.28.037-.017.076-.038.116-.053.1-.041.192-.075.282-.107.13-.051.259-.094.39-.138.1-.026.2-.053.3-.079.076-.011.15-.031.223-.04a2.045,2.045,0,0,1,.369-.05,1.214,1.214,0,0,1,.135-.017,3.333,3.333,0,0,1,.48,0,.415.415,0,0,1,.095.014,2.513,2.513,0,0,1,.367.056c.044.011.087.017.132.029a3.314,3.314,0,0,1,.346.108.7.7,0,0,0,.095.033,4.778,4.778,0,0,1,.432.206l-2.079-1.2c-.011-.006-.028-.012-.037-.018a2.537,2.537,0,0,0-.355-.175c-.013-.006-.028-.009-.036-.014a.62.62,0,0,0-.108-.039c-.073-.026-.14-.057-.218-.078-.04-.009-.079-.015-.114-.026a1.35,1.35,0,0,1-.141-.033c-.037-.006-.072-.017-.108-.026-.084-.014-.176-.02-.258-.026a.891.891,0,0,0-.1-.014h-.034a2.365,2.365,0,0,0-.405,0,.153.153,0,0,0-.04,0,1.226,1.226,0,0,0-.136.014c-.092.006-.176.009-.272.023a.67.67,0,0,1-.1.018c-.073.011-.146.038-.223.055s-.126.02-.185.036c-.042.011-.076.031-.112.04-.128.038-.255.087-.392.134-.049.02-.112.033-.169.059-.034.011-.074.038-.112.052s-.079.032-.115.053a5.3,5.3,0,0,0-.539.277,6.546,6.546,0,0,0-.616.4c-.055.037-.112.081-.168.123-.172.125-.334.251-.5.391-.034.031-.067.054-.108.09-.161.143-.325.288-.484.447a.694.694,0,0,1-.061.067c-.125.131-.255.265-.386.405-.065.079-.146.149-.214.233-.018.017-.033.041-.049.056-.057.073-.118.151-.18.225-.09.11-.187.213-.271.33-.034.046-.067.1-.108.143-.056.075-.107.148-.163.224s-.106.14-.162.216c-.07.1-.15.215-.215.329-.04.056-.086.117-.125.176a.628.628,0,0,1-.053.078c-.121.2-.239.4-.361.6a.292.292,0,0,0-.036.065c-.037.058-.063.111-.1.164-.068.127-.147.261-.216.394-.046.081-.083.168-.13.247s-.079.154-.112.237a.822.822,0,0,0-.084.168c-.1.19-.182.38-.265.567-.012.032-.029.064-.046.1a.06.06,0,0,0-.011.027c-.107.244-.209.5-.312.746a.6.6,0,0,1-.026.093c-.039.1-.067.2-.1.293-.056.14-.114.288-.156.434-.023.061-.035.114-.057.17-.045.142-.086.285-.128.425-.031.106-.07.216-.1.33-.015.061-.033.12-.045.184-.051.19-.1.38-.142.571-.028.106-.054.21-.077.313-.007.041-.014.087-.024.128-.078.409-.152.821-.207,1.232v.02a6.284,6.284,0,0,0-.062.647c-.011.106-.03.214-.036.313-.027.327-.034.654-.034.978.007,2.611.763,4.537,1.98,5.556a4,4,0,0,0,.5.35l2.082,1.205a3.53,3.53,0,0,1-.5-.35c-1.213-1.015-1.968-2.945-1.975-5.556,0-.319.007-.648.028-.971C1007.823,1848.717,1007.836,1848.613,1007.848,1848.519Z"/><g class="h"><path class="i" d="M1149.768,2004.82l-134.157-155.742-2.1-1.21,134.168,155.741a.783.783,0,0,0,.172.143c.7.4,1.4.805,2.087,1.211A.7.7,0,0,1,1149.768,2004.82Z"/><path class="b" d="M1015.506,1844.487c.5-.287.942-.263,1.2.04l135.4,157.162a2.221,2.221,0,0,1-.388,2.463,2.673,2.673,0,0,1-.774.715.9.9,0,0,1-1.179-.047l-134.157-155.742-120.489,302.71a3.034,3.034,0,0,1-1.208,1.47,1.223,1.223,0,0,1-.721.193c-.667-.081-.885-.94-.489-1.937l121.627-305.564A3.071,3.071,0,0,1,1015.506,1844.487Z"/><path class="i" d="M1014.439,1843.162h-.005a.355.355,0,0,0-.068-.041l-.073-.023c-.019,0-.039-.01-.055-.013l-.012,0h-.008a.743.743,0,0,0-.09-.008.385.385,0,0,0-.089-.006.112.112,0,0,1-.044.006.043.043,0,0,1-.025.005.1.1,0,0,0-.031,0,1.05,1.05,0,0,0-.129.027c-.025.006-.053.017-.075.023s-.034.009-.045.012a.482.482,0,0,1-.056.029,1.667,1.667,0,0,0-.216.1,2.439,2.439,0,0,0-.41.321c-.006.012-.023.017-.036.03-.054.049-.1.1-.155.16-.019.027-.039.057-.063.087-.012,0-.012.013-.017.017s-.017.019-.029.03c-.027.04-.06.087-.084.126s-.055.078-.086.117a.593.593,0,0,1-.073.116c-.022.038-.038.081-.061.117s-.039.081-.061.122a.7.7,0,0,0-.059.119c-.011.033-.028.067-.037.1L890.613,2150.3a.2.2,0,0,1-.016.035c-.015.046-.028.093-.045.14s-.028.1-.043.14c-.018.059-.028.106-.041.165-.011.034-.011.075-.023.115v.025a.2.2,0,0,0-.01.063,1.608,1.608,0,0,0-.007.432c.007.028.01.06.017.094a1.261,1.261,0,0,0,.09.292c.017.035.034.063.047.094a.676.676,0,0,0,.243.249c.348.2.691.405,1.041.613s.7.393,1.043.595a.654.654,0,0,1-.236-.249.246.246,0,0,1-.042-.084.918.918,0,0,1-.092-.3.5.5,0,0,1-.019-.1,1.723,1.723,0,0,1,.011-.479.319.319,0,0,1,.008-.041,2.778,2.778,0,0,1,.165-.588l121.627-305.564a3.3,3.3,0,0,1,.22-.442v-.009a3.415,3.415,0,0,1,.272-.391c.005-.009.013-.013.022-.023a2.019,2.019,0,0,1,.259-.278,2.308,2.308,0,0,1,.4-.32,2.247,2.247,0,0,1,.264-.12.192.192,0,0,0,.058-.021,1.11,1.11,0,0,1,.23-.055h.022a.768.768,0,0,1,.24.009h0a.573.573,0,0,1,.209.078C1015.839,1843.97,1015.138,1843.57,1014.439,1843.162Z"/></g></g><g transform="translate(0 -1)"><path class="j" d="M969.809,2083.276l8.358-4.833-8.358-17.554Z"/><path class="k" d="M1138.525,2017.163l-25.971-14.993-35-4.131.011,22.795-99.4,57.529,1.01,2.111,25.613,14.795,33.68,5.176-.09,30.8,108.013-62.763-.087-30.916Z"/></g><path class="b" d="M1146.413,2060.889l-68.846-39.978-.011-22.791,35,4.129,25.971,15,7.781,20.4Z" transform="translate(0 -1)"/><path class="l" d="M1077.607,11440.12l68.756,39.523-7.787-20.4-25.973-15Z" transform="translate(0 -1)"/><g transform="translate(0 -1)"><g class="h"><path class="e" d="M1079.011,1999.4l.067,22.385-11.843,6.835-.07-22.376Z"/><path class="m" d="M1067.236,2028.625l-1.465-.857-.068-22.377,1.464.858Z"/><path class="n" d="M1067.166,2006.249l-1.464-.858,11.841-6.833,1.468.847Z"/></g><path class="o" d="M1063.267,2007.454l-7.472,4.313a6.641,6.641,0,0,0-3.2,5.054v15.641c0,1.772,1.43,2.379,3.2,1.357l7.472-4.313a6.659,6.659,0,0,0,3.2-5.057v-15.64C1066.468,2007.04,1065.03,2006.436,1063.267,2007.454Zm2.62,1.693v.82l-2.335,1.35V2007.9C1064.863,2007.288,1065.887,2007.8,1065.887,2009.147Zm-2.916,19.945-3.128,1.8v-3.889l3.128-1.8Zm-6.838.059,3.129-1.809v3.893l-3.129,1.8Zm0-17,3.129-1.806v3.444l-3.129,1.806Zm6.838-.5-3.128,1.806v-3.449l3.128-1.809Zm-3.128,6.71,3.128-1.806v3.739l-3.128,1.806Zm-.581,4.077-3.129,1.806V2020.5l3.129-1.806Zm.581-4.66v-3.741l3.128-1.806v3.744Zm-.581-3.4v3.739l-3.129,1.809v-3.745Zm-3.71,5.883-2.381,1.372V2017.9l2.381-1.379Zm0,.581v3.741l-2.381,1.374v-3.741Zm0,4.32v3.743l-2.381,1.377v-3.743Zm.581-.336,3.129-1.8v3.741l-3.129,1.806Zm3.71,1.6v-3.743l3.128-1.8v3.739Zm3.709-5.88,2.335-1.351v3.741l-2.335,1.346Zm0-.583v-3.741l2.335-1.351v3.746Zm0-4.324V2011.9l2.335-1.345v3.738Zm-8-3.125v3.425l-2.381,1.377v-.832A5.422,5.422,0,0,1,1055.552,2012.515Zm-2.381,19.61v-1.264l2.381-1.376v3.867C1054.222,2033.994,1053.171,2033.492,1053.171,2032.125Zm10.381-3.4v-3.862l2.335-1.345v1.271A5.408,5.408,0,0,1,1063.552,2028.725Z"/><g class="h"><path class="e" d="M1052.748,2014.554l.068,22.382-11.85,6.839-.059-22.379Z"/><path class="m" d="M1040.966,2043.775l-1.464-.857-.062-22.381,1.467.858Z"/><path class="n" d="M1040.907,2021.4l-1.467-.858,11.843-6.833,1.465.85Z"/></g><path class="o" d="M1036.947,2022.57l-7.466,4.311a6.657,6.657,0,0,0-3.21,5.057v15.642c0,1.769,1.439,2.376,3.21,1.355l7.466-4.313a6.656,6.656,0,0,0,3.208-5.054v-15.642C1040.155,2022.157,1038.718,2021.548,1036.947,2022.57Zm2.621,1.692v.822l-2.326,1.349v-3.418C1038.549,2022.406,1039.568,2022.917,1039.568,2024.262Zm-2.907,19.946-3.131,1.8v-3.886l3.131-1.81Zm-6.848.059,3.136-1.809v3.892l-3.136,1.812Zm0-17,3.136-1.806v3.451l-3.136,1.8Zm6.848-.5-3.131,1.8v-3.441l3.131-1.809Zm-3.131,6.711,3.131-1.806v3.743l-3.131,1.812Zm-.581,4.079-3.136,1.812v-3.746l3.136-1.8Zm.581-4.658v-3.747l3.131-1.8v3.747Zm-.581-3.407v3.743l-3.136,1.806V2031.3Zm-3.717,5.885-2.373,1.374v-3.74l2.373-1.374Zm0,.58v3.746l-2.373,1.376v-3.746Zm0,4.328v3.737l-2.373,1.376v-3.74Zm.581-.343,3.136-1.8v3.739l-3.136,1.81Zm3.717,1.6v-3.74l3.131-1.809v3.74Zm3.712-5.888,2.326-1.346v3.75l-2.326,1.339Zm0-.583v-3.74l2.326-1.339v3.737Zm0-4.319v-3.743l2.326-1.345v3.737Zm-8.01-3.126v3.425l-2.373,1.376v-.828A5.431,5.431,0,0,1,1029.232,2027.629Zm-2.373,19.618v-1.264l2.373-1.38v3.865C1027.907,2049.109,1026.859,2048.608,1026.859,2047.247Zm10.383-3.407v-3.858l2.326-1.348v1.267A5.4,5.4,0,0,1,1037.242,2043.84Z"/><g class="h"><path class="e" d="M1026.433,2029.671l.07,22.384-11.849,6.832-.061-22.377Z"/><path class="m" d="M1014.654,2058.887l-1.467-.853-.061-22.377,1.467.853Z"/><path class="n" d="M1014.593,2036.51l-1.467-.853,11.843-6.839,1.464.853Z"/></g><path class="o" d="M1010.964,2037.544l-7.471,4.313a6.649,6.649,0,0,0-3.2,5.057v15.638c0,1.769,1.44,2.376,3.2,1.355l7.471-4.313a6.654,6.654,0,0,0,3.21-5.054V2038.9C1014.174,2037.133,1012.733,2036.522,1010.964,2037.544Zm2.617,1.691v.825l-2.321,1.345v-3.419C1012.569,2037.379,1013.581,2037.886,1013.581,2039.235Zm-2.908,19.945-3.13,1.809V2057.1l3.13-1.8Zm-6.834.062,3.123-1.8v3.887l-3.123,1.8Zm0-17,3.123-1.809v3.444l-3.123,1.809Zm6.834-.5-3.13,1.8V2040.1l3.13-1.812Zm-3.13,6.711,3.13-1.8v3.731l-3.13,1.812Zm-.581,4.073-3.123,1.813V2050.6l3.123-1.81Zm.581-4.655v-3.746l3.13-1.8v3.737Zm-.581-3.4v3.737l-3.123,1.813v-3.747Zm-3.713,5.883-2.378,1.373v-3.737l2.378-1.376Zm0,.579v3.743l-2.378,1.376v-3.743Zm0,4.325v3.737l-2.378,1.377v-3.74Zm.59-.336,3.123-1.812v3.743l-3.123,1.809Zm3.7,1.6v-3.744l3.13-1.8v3.743Zm3.717-5.88,2.321-1.354v3.746l-2.321,1.345Zm0-.588v-3.737l2.321-1.352v3.746Zm0-4.326v-3.733l2.321-1.349v3.74Zm-8.011-3.117v3.426l-2.378,1.367v-.822A5.42,5.42,0,0,1,1003.249,2042.607Zm-2.378,19.612v-1.261l2.378-1.383v3.865C1001.919,2064.081,1000.871,2063.58,1000.871,2062.219Zm10.389-3.406v-3.859l2.321-1.342v1.261A5.386,5.386,0,0,1,1011.26,2058.813Z"/><g class="h"><path class="e" d="M1000.456,2044.65l.061,22.377-11.842,6.835-.062-22.377Z"/><path class="m" d="M988.674,2073.863l-1.467-.847-.062-22.384,1.466.853Z"/><path class="n" d="M988.611,2051.485l-1.466-.853,11.836-6.838,1.474.857Z"/></g><path class="o" d="M984.7,2053.238l-7.471,4.313a6.671,6.671,0,0,0-3.2,5.061v15.644c0,1.763,1.439,2.37,3.2,1.355l7.471-4.319a6.666,6.666,0,0,0,3.2-5.054V2054.6C987.907,2052.827,986.469,2052.22,984.7,2053.238Zm2.625,1.7v.819l-2.33,1.351v-3.419C986.3,2053.083,987.327,2053.587,987.327,2054.936Zm-2.918,19.942-3.13,1.8v-3.887l3.13-1.809Zm-6.841.059,3.131-1.8v3.883l-3.131,1.8Zm0-17,3.131-1.8v3.444l-3.131,1.809Zm6.841-.5-3.13,1.809V2055.8l3.13-1.809Zm-3.13,6.711,3.13-1.8v3.737l-3.13,1.809Zm-.58,4.079-3.131,1.8v-3.73l3.131-1.809Zm.58-4.661v-3.74l3.13-1.8v3.733Zm-.58-3.4v3.737l-3.131,1.8v-3.737Zm-3.711,5.873-2.381,1.377v-3.74l2.381-1.367Zm0,.589v3.74l-2.381,1.367v-3.731Zm0,4.319v3.74l-2.381,1.376v-3.739Zm.58-.333,3.131-1.81v3.74l-3.131,1.81Zm3.711,1.6v-3.74l3.13-1.809v3.74Zm3.718-5.882,2.33-1.342v3.73L985,2070.07Zm0-.589v-3.733l2.33-1.349v3.74Zm0-4.319v-3.74l2.33-1.342v3.74Zm-8.009-3.126v3.431l-2.381,1.371v-.829A5.43,5.43,0,0,1,976.988,2058.3Zm-2.381,19.618v-1.27l2.381-1.368v3.859C975.657,2079.785,974.607,2079.278,974.607,2077.917ZM985,2074.51v-3.858l2.33-1.342v1.261A5.42,5.42,0,0,1,985,2074.51Z"/></g><g transform="translate(0 -1)"><path class="p" d="M1100.543,2008.747c.485-.277.879-.157.879.269l.039,13.745.034,12.472.006.785-11.752,6.782-.038-13.253,10.013-5.781-.043-13.744A1.737,1.737,0,0,1,1100.543,2008.747Z"/><path class="q" d="M1089.749,2042.8l-20.37-11.846-.037-13.251,20.37,11.844Z"/><path class="r" d="M1089.711,2029.547l-20.37-11.844,10.008-5.775,20.375,11.838Z"/><path class="l" d="M1099.724,2023.766l-20.375-11.838-.039-13.744,20.37,11.838Z"/><path class="s" d="M1099.935,2009.331v-.011a2.8,2.8,0,0,1,.264-.307,2.045,2.045,0,0,1,.344-.266,1.168,1.168,0,0,1,.4-.145h0a.55.55,0,0,1,.3.044l-8.075-4.69-12.306-7.144c-.005-.014-.016-.017-.033-.02a.2.2,0,0,0-.041-.017.121.121,0,0,1-.049-.014c-.01,0-.033,0-.05-.006h-.064a.448.448,0,0,0-.055.006h-.018c-.033.008-.062.014-.09.023a1.066,1.066,0,0,0-.128.044l.023.014h0l-.023-.014a1.114,1.114,0,0,0-.159.078,1.637,1.637,0,0,0-.349.272.014.014,0,0,0-.012.008c-.034.033-.067.07-.1.109s-.052.058-.074.087a.537.537,0,0,0-.056.081.055.055,0,0,0-.015.023s0,0-.008,0a.332.332,0,0,1-.023.039.476.476,0,0,0-.038.061c-.012.027-.025.044-.036.067a.251.251,0,0,0-.026.053.166.166,0,0,0-.023.061.19.19,0,0,0-.03.053l0,.017c-.008,0-.008,0-.008.006a.072.072,0,0,1-.011.034.255.255,0,0,0-.011.063.19.19,0,0,0-.015.061.236.236,0,0,0-.017.076.538.538,0,0,0-.007.1l20.371,11.838a.984.984,0,0,1,.067-.341l0-.006A1.352,1.352,0,0,1,1099.935,2009.331Z"/><path class="p" d="M1120.956,2020.6c.479-.276.875-.156.875.273l.042,13.736.031,12.478.006.782-11.752,6.782-.041-13.25,10.014-5.783-.042-13.742A1.729,1.729,0,0,1,1120.956,2020.6Z"/><path class="q" d="M1110.158,2054.655l-20.369-11.836-.041-13.26,20.369,11.846Z"/><path class="r" d="M1110.117,2041.405l-20.369-11.846,10.01-5.776,20.372,11.84Z"/><path class="l" d="M1120.131,2035.622l-20.372-11.84-.034-13.741,20.364,11.838Z"/><path class="s" d="M1120.343,2021.189c0-.008,0-.008,0-.011a2.2,2.2,0,0,1,.265-.31,1.639,1.639,0,0,1,.344-.264,1.023,1.023,0,0,1,.391-.144h0a.541.541,0,0,1,.3.044l-8.083-4.69-12.294-7.148c-.011-.007-.029-.013-.04-.02l-.038-.01c-.023-.006-.036-.011-.052-.014l-.049-.006h-.064l-.056,0h0l-.013,0c-.026.008-.064.014-.09.021a1.2,1.2,0,0,0-.129.043l.024.014h0l-.024-.014a.851.851,0,0,0-.159.081,1.877,1.877,0,0,0-.343.263l-.012.01c-.039.04-.073.08-.106.113s-.051.061-.073.091a.919.919,0,0,1-.064.073.026.026,0,0,1-.011.023v.008c-.009.012-.02.023-.028.036a.529.529,0,0,0-.037.067.5.5,0,0,0-.036.06c-.01.016-.017.033-.027.053a.427.427,0,0,1-.029.061c-.007.018-.017.036-.024.053a.029.029,0,0,1,0,.017v.006a.071.071,0,0,0-.01.041.162.162,0,0,0-.025.056c0,.02-.012.04-.018.064a.308.308,0,0,1-.01.079v.1l20.365,11.838a1.049,1.049,0,0,1,.068-.341.005.005,0,0,0,.005-.006A1.634,1.634,0,0,1,1120.343,2021.189Z"/><path class="r" d="M1141.328,2032.418c.476-.28.872-.162.872.274l.046,13.739.035,12.469v.781l-11.753,6.786-.035-13.254,10.005-5.779-.034-13.742A1.716,1.716,0,0,1,1141.328,2032.418Z"/><path class="q" d="M1130.528,2066.467l-20.37-11.839-.041-13.256,20.375,11.842Z"/><path class="r" d="M1130.493,2053.213l-20.375-11.842,10.013-5.777,20.367,11.84Z"/><path class="l" d="M1140.5,2047.434l-20.367-11.84-.042-13.742,20.375,11.839Z"/><path class="s" d="M1140.711,2033s0-.006,0-.006a2.279,2.279,0,0,1,.26-.3,1.934,1.934,0,0,1,.352-.268,1.055,1.055,0,0,1,.394-.149h0a.536.536,0,0,1,.3.049l-8.075-4.689-12.3-7.149a.088.088,0,0,0-.041-.02.072.072,0,0,0-.037-.012.19.19,0,0,0-.045-.014c-.024,0-.042,0-.06-.006h-.055a.376.376,0,0,0-.058.006h-.021c-.028,0-.055.014-.091.017s-.083.029-.13.047l.024.012h0l-.024-.012c-.043.023-.1.049-.152.079a2.191,2.191,0,0,0-.354.268l-.006.006a1.272,1.272,0,0,0-.106.117.73.73,0,0,0-.074.087c-.018.027-.041.053-.055.073s-.014.017-.014.023l0,.007c-.005.017-.018.023-.027.04a.6.6,0,0,1-.042.064.306.306,0,0,1-.033.061c-.012.018-.016.039-.028.062s-.018.034-.025.05-.017.037-.026.054v.016c-.005,0-.005.008-.005.008a.082.082,0,0,0-.012.039.36.36,0,0,1-.022.057.457.457,0,0,1-.011.064.16.16,0,0,0-.014.079c0,.038-.009.067-.009.1l20.375,11.84a.991.991,0,0,1,.067-.34h0A1.451,1.451,0,0,1,1140.711,2033Z"/></g><g transform="translate(0 -1)"><path class="o" d="M1067.868,2025.25a.693.693,0,0,1-.238-.044.633.633,0,0,1-.394-.6c-.446-3.322-30.62-117.191-46.566-177.1a.638.638,0,0,1,.453-.768.624.624,0,0,1,.766.444c46.982,176.607,46.661,177.409,46.56,177.672A.624.624,0,0,1,1067.868,2025.25Z"/><path class="o" d="M1137.832,2065.691a.534.534,0,0,1-.232-.04.622.622,0,0,1-.4-.595c-.452-3.326-30.865-117.132-46.929-177.029a.629.629,0,0,1,1.215-.324c47.344,176.525,47.026,177.334,46.927,177.6A.64.64,0,0,1,1137.832,2065.691Z"/><path class="o" d="M1121.826,2004.339a.582.582,0,0,1-.311-.083l-69.8-40.3a.628.628,0,1,1,.633-1.084l69.793,40.3a.623.623,0,0,1,.225.855A.612.612,0,0,1,1121.826,2004.339Z"/><path class="o" d="M1105.495,1942.709a.649.649,0,0,1-.312-.079l-69.8-40.445a.629.629,0,0,1,.636-1.085l69.79,40.441a.625.625,0,0,1-.313,1.168Z"/></g><g transform="translate(0 -1)"><path class="t" d="M1064.653,2013.27l-.069,23.763a.47.47,0,0,1-.026.156h0a.179.179,0,0,1-.091.1l1.584-.915a.239.239,0,0,0,.073-.072.075.075,0,0,0,.017-.028c0-.009.006-.015.006-.022a.021.021,0,0,0,.007-.019.03.03,0,0,0,0-.018.036.036,0,0,0,.005-.022c.006-.006.006-.012.006-.022v-.056h0l.067-23.763Z"/><path class="u" d="M1122.435,2045.712a.785.785,0,0,1,.277.293.751.751,0,0,1,.112.392l-.067,24.221c0,.255-.176.361-.395.227a.874.874,0,0,1-.4-.688l.065-23.76-57.374-33.127-.069,23.763c0,.252-.18.358-.4.231a.887.887,0,0,1-.4-.692l.064-24.221a.274.274,0,0,1,.129-.257.256.256,0,0,1,.276.03Z"/><path class="t" d="M1122.824,2046.4l-.067,24.221a.3.3,0,0,1-.035.162v.006a.149.149,0,0,1-.083.087l1.588-.915a.5.5,0,0,0,.069-.069c.006-.012.006-.018.015-.025h0v-.006c0-.006.006-.015.006-.022s.008-.012.011-.019v-.021c0-.006.007-.013.007-.019a.033.033,0,0,0,0-.019v-.068l.069-24.2Z"/><path class="v" d="M1124.408,2045.438v-.047c-.007,0-.007-.006-.007-.016l0-.018v-.028c0-.006-.006-.013-.006-.019a.02.02,0,0,1-.008-.019h0v-.009s0-.012-.009-.012v-.019c0-.006,0-.016,0-.022s-.014-.012-.014-.018a.025.025,0,0,1-.005-.013h0c-.005-.009-.013-.015-.013-.022a.03.03,0,0,0,0-.018.1.1,0,0,1-.01-.022c0-.006-.008-.013-.014-.025l-.015-.028h0a.433.433,0,0,0-.035-.053.179.179,0,0,0-.022-.034c0-.007-.012-.013-.016-.019a.035.035,0,0,1-.012-.022c-.012-.006-.012-.012-.015-.019s-.015-.006-.019-.012-.006-.009-.006-.009h0c-.005-.007-.009-.007-.009-.013a.121.121,0,0,1-.019-.019c-.005,0-.011-.006-.017-.015s-.009-.013-.017-.013a.069.069,0,0,0-.016-.012c-.008-.006-.017-.006-.023-.013s-.011-.009-.017-.015a.025.025,0,0,0-.016-.013.046.046,0,0,0-.018-.012h0l-58.181-33.586s-.007-.011-.011-.011-.008-.007-.017-.007-.007,0-.011-.009-.016-.005-.024-.005,0-.006-.011-.006a.042.042,0,0,0-.018-.006.042.042,0,0,1-.017,0l-.016,0a.017.017,0,0,0-.016-.008h-.087c0,.008-.012.011-.022.014a.042.042,0,0,0-.028.012l-1.583.922a.193.193,0,0,1,.123-.02h.006a.31.31,0,0,1,.147.05l58.182,33.588a.759.759,0,0,1,.146.118c0,.006.005.006.005.006a1.016,1.016,0,0,1,.126.169.972.972,0,0,1,.084.2v.006h0a.616.616,0,0,1,.028.187l1.584-.912v-.047Z"/></g><g transform="translate(0 -1)"><path class="p" d="M1074.048,2024.407c.481-.277.876-.157.876.273l.038,13.748.032,12.462v.782l-11.746,6.789-.034-13.25,10.01-5.783-.039-13.746A1.714,1.714,0,0,1,1074.048,2024.407Z"/><path class="q" d="M1063.248,2058.46l-20.37-11.842-.039-13.254,20.375,11.846Z"/><path class="r" d="M1063.214,2045.211l-20.375-11.846,10.01-5.776,20.375,11.839Z"/><path class="l" d="M1073.224,2039.428l-20.375-11.839-.037-13.741,20.374,11.835Z"/><path class="s" d="M1073.434,2024.991v-.006a2.069,2.069,0,0,1,.265-.308,1.912,1.912,0,0,1,.349-.27.992.992,0,0,1,.389-.14l.008-.005a.488.488,0,0,1,.3.052l-8.076-4.695-12.3-7.143a.112.112,0,0,0-.04-.02l-.041-.018-.05-.009a.154.154,0,0,0-.05-.008h-.068c-.011,0-.026,0-.044,0h-.012c0,.005,0,.005-.011.005a.471.471,0,0,0-.095.019c-.04.011-.079.028-.126.043l.023.011h0l-.023-.011a1.638,1.638,0,0,0-.157.078,1.82,1.82,0,0,0-.349.27.018.018,0,0,1-.013.007c-.034.036-.067.077-.1.112a.545.545,0,0,0-.073.088c-.021.026-.041.054-.058.078l-.017.023v.009c-.011.014-.02.021-.03.033s-.026.047-.037.067-.023.037-.034.061a.319.319,0,0,0-.03.053.676.676,0,0,1-.026.063.176.176,0,0,0-.022.053c-.006,0-.006.011-.006.014v.01c-.008.007-.008.02-.013.031a.254.254,0,0,0-.017.059.389.389,0,0,1-.023.067.406.406,0,0,0-.01.076c0,.034,0,.07,0,.1l20.373,11.834a.923.923,0,0,1,.064-.339l0-.006A1.543,1.543,0,0,1,1073.434,2024.991Z"/><path class="p" d="M1094.459,2036.261c.471-.271.873-.15.873.283l.041,13.733.031,12.475v.781l-11.746,6.786-.039-13.263,10.011-5.77-.042-13.742A1.748,1.748,0,0,1,1094.459,2036.261Z"/><path class="q" d="M1083.658,2070.319l-20.369-11.84-.041-13.256,20.37,11.833Z"/><path class="r" d="M1083.619,2057.056l-20.37-11.833,10.01-5.774,20.372,11.836Z"/><path class="l" d="M1093.63,2051.286l-20.372-11.836-.039-13.745,20.369,11.839Z"/><path class="s" d="M1093.842,2036.853s.006,0,.006-.01a1.822,1.822,0,0,1,.26-.308,1.764,1.764,0,0,1,.351-.274,1.129,1.129,0,0,1,.387-.137h.007a.5.5,0,0,1,.3.043l-8.073-4.689-12.3-7.152a.111.111,0,0,1-.034-.017.416.416,0,0,0-.047-.012.2.2,0,0,0-.049-.014c-.016,0-.033,0-.05,0a.336.336,0,0,0-.064,0c-.016,0-.037,0-.05.007h-.006l-.017,0c-.027,0-.059.011-.089.017a.615.615,0,0,0-.129.044l.023.014h0l-.023-.014a1.611,1.611,0,0,0-.153.081,1.36,1.36,0,0,0-.349.269.018.018,0,0,0-.012.006c-.037.041-.075.079-.107.114s-.05.059-.074.087-.039.053-.056.078a.137.137,0,0,1-.017.021l-.006,0a.331.331,0,0,1-.023.043c-.01.019-.027.044-.038.062a.3.3,0,0,0-.036.063,1.1,1.1,0,0,1-.056.112.4.4,0,0,1-.02.056l-.006.016-.008.006a.124.124,0,0,1-.009.037c-.005.019-.013.034-.019.056a.518.518,0,0,0-.009.065.388.388,0,0,0-.019.078c0,.035-.005.066-.005.1l20.369,11.84a1.108,1.108,0,0,1,.069-.34v-.006A1.441,1.441,0,0,1,1093.842,2036.853Z"/><path class="r" d="M1114.828,2048.081c.478-.273.871-.161.871.275l.042,13.736.039,12.471v.782l-11.753,6.785-.035-13.253L1114,2063.1l-.035-13.746A1.69,1.69,0,0,1,1114.828,2048.081Z"/><path class="q" d="M1104.027,2082.13l-20.369-11.84-.039-13.253,20.374,11.84Z"/><path class="r" d="M1103.992,2068.877l-20.374-11.84,10.012-5.78L1114,2063.1Z"/><path class="l" d="M1114,2063.1l-20.367-11.843-.042-13.739,20.375,11.837Z"/><path class="s" d="M1114.212,2048.661s0,0,0-.007a1.841,1.841,0,0,1,.267-.3,1.433,1.433,0,0,1,.345-.268,1.039,1.039,0,0,1,.39-.146h.005a.48.48,0,0,1,.3.047l-8.075-4.7-12.3-7.144-.039-.018a.112.112,0,0,0-.039-.013c-.01-.009-.034-.009-.045-.015s-.036-.007-.057-.007h-.061c-.019,0-.036.007-.051.007h-.024c-.028.006-.054.015-.09.022l-.129.037.023.022h0l-.023-.022c-.05.028-.1.056-.158.081a1.789,1.789,0,0,0-.344.274c-.007,0-.011,0-.011.006a1.476,1.476,0,0,1-.109.112c-.023.028-.049.063-.067.087a.329.329,0,0,0-.056.081c-.01.006-.017.006-.017.019s-.006,0-.006.009a.216.216,0,0,0-.026.041.3.3,0,0,0-.039.059.437.437,0,0,0-.035.059.427.427,0,0,1-.029.062.193.193,0,0,1-.028.05.2.2,0,0,1-.024.063.065.065,0,0,1,0,.018h0c0,.013-.011.028-.011.044a.082.082,0,0,0-.016.05.22.22,0,0,0-.017.068.353.353,0,0,0-.014.081.266.266,0,0,0-.011.1l20.375,11.836a1.018,1.018,0,0,1,.067-.339h0A1.441,1.441,0,0,1,1114.212,2048.661Z"/></g><g transform="translate(0 -1)"><path class="t" d="M1037.8,2028.905l-.069,23.763a.479.479,0,0,1-.028.159h0a.2.2,0,0,1-.089.094l1.59-.922a.136.136,0,0,0,.067-.065c.006-.013.012-.013.017-.028s.006-.013.006-.019a.055.055,0,0,0,.005-.028c.006-.006.012-.006.012-.013v-.018c0-.016,0-.016,0-.022v-.065l.07-23.757Z"/><path class="u" d="M1095.578,2061.344a.758.758,0,0,1,.29.293.875.875,0,0,1,.112.4l-.069,24.217c0,.247-.173.358-.4.228a.871.871,0,0,1-.4-.695l.066-23.757-57.376-33.127-.069,23.763c0,.253-.179.353-.4.228a.891.891,0,0,1-.4-.7l.068-24.217a.276.276,0,0,1,.123-.256.283.283,0,0,1,.282.031Z"/><path class="t" d="M1095.98,2062.039l-.069,24.217a.421.421,0,0,1-.031.159h0a.246.246,0,0,1-.086.094l1.579-.916a.112.112,0,0,0,.067-.071.058.058,0,0,0,.024-.022v-.013s0-.012,0-.012.007-.013.013-.022a.056.056,0,0,1,0-.025v-.015a.055.055,0,0,1,.005-.025v-.06h0l.076-24.211Z"/><path class="v" d="M1097.558,2061.07v-.019a.04.04,0,0,1,0-.021v-.019a.035.035,0,0,0-.006-.022v-.025c0-.006-.005-.006-.005-.022a.029.029,0,0,0-.006-.018h0v-.007a.021.021,0,0,1-.006-.012c0-.009,0-.016,0-.022s-.007-.012-.014-.018-.005-.016-.005-.022l-.006-.013h0c-.007-.006-.007-.012-.013-.018s-.005-.016-.005-.022a.03.03,0,0,0-.01-.019c0-.009-.007-.015-.007-.022a.173.173,0,0,0-.021-.034v-.006a.21.21,0,0,1-.035-.047.108.108,0,0,0-.022-.031.1.1,0,0,0-.017-.022c-.006-.006-.011-.018-.015-.018s-.008-.016-.013-.022-.011-.012-.018-.012a.007.007,0,0,0-.007-.007h0c0-.006,0-.006-.009-.012s-.011-.016-.017-.016l-.015-.018c-.007-.007-.013-.007-.026-.013s0-.015-.009-.015-.012-.013-.017-.013-.019-.006-.019-.013-.009-.015-.02-.015-.006-.006-.017-.006v-.006l-58.176-33.585-.013-.006a.026.026,0,0,0-.017-.013c-.005,0-.009-.006-.017-.006l-.016-.006c-.007,0-.01-.007-.017-.007a.038.038,0,0,0-.018,0s-.011-.006-.016-.006-.012-.009-.016-.009h-.1c-.013,0-.016.009-.031.012s-.016.006-.027.013l-1.585.921a.218.218,0,0,1,.126-.025h0a.453.453,0,0,1,.156.056l58.17,33.585a.638.638,0,0,1,.153.122l.007.006a1.367,1.367,0,0,1,.13.165,1.3,1.3,0,0,1,.079.2v.006h.006a.8.8,0,0,1,.027.194l1.586-.922v-.025C1097.566,2061.083,1097.558,2061.076,1097.558,2061.07Z"/></g><g transform="translate(0 -1)"><path class="p" d="M1047.781,2039.176c.478-.281.873-.162.873.267l.046,13.742.034,12.472v.782l-11.748,6.782-.039-13.253,10.01-5.774-.04-13.751A1.7,1.7,0,0,1,1047.781,2039.176Z"/><path class="q" d="M1036.986,2073.221l-20.375-11.842-.033-13.25,20.369,11.839Z"/><path class="r" d="M1036.947,2059.968l-20.369-11.839,10.009-5.777,20.37,11.843Z"/><path class="l" d="M1046.957,2054.194l-20.37-11.843-.044-13.739,20.374,11.83Z"/><path class="s" d="M1047.164,2039.755c0-.006.007-.006.007-.013a2.979,2.979,0,0,1,.266-.308,1.459,1.459,0,0,1,.344-.258.956.956,0,0,1,.388-.15h.011a.458.458,0,0,1,.295.05l-8.071-4.69-12.305-7.15c-.011-.009-.024-.015-.034-.022a.243.243,0,0,1-.046-.015c-.012,0-.029-.006-.045-.006a.111.111,0,0,0-.057-.01.351.351,0,0,0-.055,0,.386.386,0,0,1-.058,0c0,.01-.006.01-.006.01h-.015a.575.575,0,0,0-.089.018c-.041.01-.084.025-.126.038l.017.015h0l-.017-.015-.162.081a2.089,2.089,0,0,0-.346.267c0,.007-.011.007-.011.013a1.421,1.421,0,0,0-.107.112.754.754,0,0,1-.073.087c-.017.022-.035.053-.05.075s-.017.019-.017.025l-.005.006a.241.241,0,0,0-.025.037c-.017.019-.026.044-.044.069a.235.235,0,0,0-.027.056.175.175,0,0,0-.036.059.2.2,0,0,0-.022.059l-.027.053a.02.02,0,0,1-.007.016v.006a.124.124,0,0,0-.011.034.38.38,0,0,0-.019.059.384.384,0,0,1-.015.063c0,.025-.011.059-.016.078,0,.04-.005.074-.005.109l20.374,11.83a.955.955,0,0,1,.068-.333v-.007A1.621,1.621,0,0,1,1047.164,2039.755Z"/><path class="p" d="M1068.19,2051.024c.478-.274.877-.152.877.274l.036,13.746.039,12.471v.782l-11.747,6.782-.04-13.253,10.012-5.783-.042-13.736A1.739,1.739,0,0,1,1068.19,2051.024Z"/><path class="q" d="M1057.4,2085.079l-20.375-11.843-.034-13.247,20.369,11.836Z"/><path class="r" d="M1057.355,2071.826l-20.369-11.836,10.012-5.783,20.369,11.837Z"/><path class="l" d="M1067.367,2066.043,1047,2054.207l-.047-13.742,20.374,11.842Z"/><path class="s" d="M1067.578,2051.613c0-.006,0-.006.007-.006a1.792,1.792,0,0,1,.255-.309,2.208,2.208,0,0,1,.35-.274,1.138,1.138,0,0,1,.4-.14h0a.5.5,0,0,1,.3.047l-8.082-4.693-12.3-7.143a.364.364,0,0,0-.033-.019.1.1,0,0,0-.046-.016.145.145,0,0,0-.047-.012c-.016,0-.037-.01-.056-.01h-.059c-.014,0-.035.01-.055.01h-.015a.564.564,0,0,0-.095.018,1.259,1.259,0,0,1-.125.041l.023.012h0l-.023-.012a1.191,1.191,0,0,0-.159.081,2.066,2.066,0,0,0-.35.274h-.009a.952.952,0,0,1-.109.118.745.745,0,0,1-.074.088.364.364,0,0,1-.057.074c0,.007-.009.013-.009.025v.006a.1.1,0,0,0-.027.044.289.289,0,0,0-.047.056c-.011.022-.021.044-.028.062a.624.624,0,0,0-.028.059c-.009.022-.022.035-.029.053a.31.31,0,0,0-.021.063c-.006,0-.006.006-.012.012h0a.08.08,0,0,1-.011.04c-.005.022-.009.041-.015.06a.275.275,0,0,0-.016.068.239.239,0,0,0-.016.081.712.712,0,0,0-.009.094l20.374,11.842a.958.958,0,0,1,.068-.339v-.016A2.122,2.122,0,0,1,1067.578,2051.613Z"/><path class="r" d="M1088.564,2062.839c.476-.28.873-.153.873.274l.039,13.742.034,12.472v.781l-11.744,6.776-.036-13.247,10-5.782-.041-13.733A1.731,1.731,0,0,1,1088.564,2062.839Z"/><path class="q" d="M1077.766,2096.885l-20.37-11.83-.041-13.253,20.375,11.836Z"/><path class="r" d="M1077.73,2083.637l-20.375-11.836,10.012-5.783,20.367,11.837Z"/><path class="l" d="M1087.734,2077.855l-20.367-11.837-.042-13.745,20.369,11.849Z"/><path class="s" d="M1087.949,2063.421v-.006a2.079,2.079,0,0,1,.615-.576,1.073,1.073,0,0,1,.391-.14h0a.476.476,0,0,1,.3.047l-8.076-4.693-12.3-7.153c-.011-.01-.021-.01-.038-.016a.422.422,0,0,0-.046-.012.094.094,0,0,0-.044-.013.161.161,0,0,0-.05-.006h-.064a.186.186,0,0,0-.054.006h-.019l-.09.019a.972.972,0,0,0-.131.047l.023.006h0l-.023-.006a.8.8,0,0,0-.156.074,1.757,1.757,0,0,0-.35.274c-.008,0-.008,0-.013.007a1.353,1.353,0,0,0-.1.112.346.346,0,0,0-.075.093.3.3,0,0,0-.054.069c-.007.012-.014.018-.014.025s-.007,0-.011.006a.111.111,0,0,1-.028.04c-.011.022-.021.041-.033.063a.346.346,0,0,0-.034.059.188.188,0,0,0-.028.059.58.58,0,0,0-.028.053.31.31,0,0,0-.025.062c-.005,0-.005.006-.005.013v.006a.087.087,0,0,0-.009.034.39.39,0,0,0-.024.059c-.007.022-.011.047-.017.06a.427.427,0,0,1-.011.087.455.455,0,0,0-.007.093l20.368,11.849a.977.977,0,0,1,.069-.339l.006-.01A1.538,1.538,0,0,1,1087.949,2063.421Z"/></g><g transform="translate(0 -1)"><path class="o" d="M990.483,2073.47a.653.653,0,0,1-.631-.595c-.118-1.463,26.817-202.682,29.884-225.617a.632.632,0,0,1,.71-.537.624.624,0,0,1,.537.7c-.3,2.226-29.776,222.4-29.879,225.391a.6.6,0,0,1-.57.654Z"/><path class="o" d="M1059.6,2112.794a.649.649,0,0,1-.631-.592c-.12-1.469,26.737-202.065,29.8-224.93a.627.627,0,1,1,1.243.166c-.3,2.214-29.688,221.719-29.789,224.711a.6.6,0,0,1-.571.645Z"/><path class="o" d="M1073.92,2002.8a.59.59,0,0,1-.31-.088l-68.932-39.74a.631.631,0,0,1-.232-.854.624.624,0,0,1,.858-.231l68.929,39.74a.631.631,0,0,1-.313,1.173Z"/><path class="o" d="M1079.693,1953.84a.667.667,0,0,1-.314-.081l-67.934-39.222a.629.629,0,0,1,.626-1.092l67.934,39.226a.629.629,0,0,1,.232.855A.623.623,0,0,1,1079.693,1953.84Z"/></g><path class="i" d="M1120.467,1905.086c0,.635-.512.851-1.152.484l-103.42-59.7a2.4,2.4,0,0,1-1.151-1.82h0c0-.637.514-.855,1.151-.487l103.42,59.708a2.374,2.374,0,0,1,1.152,1.819Z" transform="translate(0 -1)"/><path class="f" d="M1038.38,2131.332v-8.287l108.033-62.156v7.667Z" transform="translate(0 -1)"/><g transform="translate(0 -1)"><g class="h"><path class="e" d="M1146.329,2038.465l.064,22.383-11.844,6.839-.064-22.384Z"/><path class="m" d="M1134.548,2067.688l-1.467-.856-.067-22.384,1.47.856Z"/><path class="n" d="M1134.485,2045.3l-1.47-.856,11.841-6.835,1.473.853Z"/></g><path class="o" d="M1130.578,2046.512l-7.472,4.313a6.661,6.661,0,0,0-3.2,5.057v15.645c0,1.763,1.438,2.37,3.2,1.348l7.472-4.312a6.656,6.656,0,0,0,3.2-5.055v-15.641C1133.783,2046.1,1132.345,2045.5,1130.578,2046.512Zm2.617,1.694v.822l-2.324,1.342v-3.419C1132.174,2046.35,1133.195,2046.858,1133.195,2048.206Zm-2.911,19.942-3.128,1.81v-3.893l3.128-1.8Zm-6.839.06,3.13-1.81v3.893l-3.13,1.809Zm0-17,3.13-1.809v3.453l-3.13,1.806Zm6.839-.5-3.128,1.8v-3.444l3.128-1.81Zm-3.128,6.7,3.128-1.8v3.74l-3.128,1.81Zm-.581,4.08-3.13,1.809v-3.743l3.13-1.8Zm.581-4.659v-3.743l3.128-1.8v3.743Zm-.581-3.406v3.746l-3.13,1.8v-3.74Zm-3.71,5.888-2.381,1.37v-3.74l2.381-1.367Zm0,.582v3.74l-2.381,1.374v-3.746Zm0,4.32v3.746l-2.381,1.37V2065.6Zm.58-.334,3.13-1.809v3.74l-3.13,1.809Zm3.711,1.595v-3.737l3.128-1.809v3.737Zm3.715-5.883,2.324-1.348V2062l-2.324,1.349Zm0-.579v-3.74l2.324-1.348v3.74Zm0-4.325v-3.737l2.324-1.349v3.744Zm-8.006-3.124V2055l-2.381,1.37v-.828A5.416,5.416,0,0,1,1122.865,2051.572Zm-2.381,19.613v-1.261l2.381-1.383v3.867C1121.534,2073.05,1120.484,2072.548,1120.484,2071.185Zm10.387-3.4v-3.858l2.324-1.349v1.274A5.414,5.414,0,0,1,1130.871,2067.781Z"/><g class="h"><path class="e" d="M1120.067,2053.612l.056,22.381-11.844,6.838-.062-22.374Z"/><path class="m" d="M1108.279,2082.831l-1.465-.85-.062-22.381,1.465.857Z"/><path class="n" d="M1108.216,2060.457l-1.465-.857,11.842-6.838,1.473.85Z"/></g><path class="o" d="M1104.266,2061.631l-7.473,4.313a6.632,6.632,0,0,0-3.2,5.054v15.638c0,1.769,1.434,2.376,3.2,1.355l7.473-4.313a6.647,6.647,0,0,0,3.2-5.054v-15.645C1107.468,2061.21,1106.03,2060.609,1104.266,2061.631Zm2.621,1.69v.82l-2.331,1.348v-3.416C1105.862,2061.466,1106.887,2061.973,1106.887,2063.321Zm-2.915,19.943-3.131,1.809v-3.893l3.131-1.8Zm-6.84.059,3.13-1.809v3.892l-3.13,1.81Zm0-16.99,3.13-1.809v3.444l-3.13,1.809Zm6.84-.5-3.131,1.8v-3.454l3.131-1.8Zm-3.131,6.711,3.131-1.809v3.737l-3.131,1.809Zm-.579,4.073-3.13,1.8v-3.739l3.13-1.8Zm.579-4.661v-3.74l3.131-1.8v3.74Zm-.579-3.4v3.737l-3.13,1.8v-3.737Zm-3.711,5.883-2.38,1.373v-3.746l2.38-1.373Zm0,.579v3.74l-2.38,1.376v-3.746Zm0,4.319v3.746l-2.38,1.37v-3.74Zm.581-.333,3.13-1.809v3.74l-3.13,1.809Zm3.709,1.6v-3.74l3.131-1.8v3.74Zm3.715-5.882,2.331-1.348v3.743l-2.331,1.342Zm0-.583v-3.746l2.331-1.342v3.746Zm0-4.319v-3.746l2.331-1.348v3.746Zm-8.005-3.126v3.419l-2.38,1.377v-.829A5.4,5.4,0,0,1,1096.551,2066.691Zm-2.38,19.612v-1.271l2.38-1.367v3.859C1095.218,2088.172,1094.171,2087.664,1094.171,2086.3Zm10.385-3.4v-3.865l2.331-1.342v1.267A5.434,5.434,0,0,1,1104.556,2082.9Z"/><g class="h"><path class="e" d="M1093.747,2068.728l.061,22.38-11.836,6.838-.065-22.374Z"/><path class="m" d="M1081.971,2097.946l-1.473-.853-.061-22.381,1.468.859Z"/><path class="n" d="M1081.906,2075.572l-1.468-.859,11.846-6.832,1.464.847Z"/></g><path class="o" d="M1078.278,2076.6l-7.474,4.313a6.655,6.655,0,0,0-3.2,5.054v15.645c0,1.762,1.437,2.376,3.2,1.354l7.474-4.313a6.653,6.653,0,0,0,3.211-5.06v-15.635C1081.489,2076.186,1080.048,2075.578,1078.278,2076.6Zm2.622,1.691v.828l-2.328,1.348v-3.425C1079.879,2076.441,1080.9,2076.942,1080.9,2078.291Zm-2.915,19.948-3.131,1.8v-3.886l3.131-1.809Zm-6.841.063,3.13-1.81v3.893l-3.13,1.8Zm0-17,3.13-1.809v3.45l-3.13,1.809Zm6.841-.5-3.131,1.809v-3.451l3.131-1.812Zm-3.131,6.71,3.131-1.809v3.746l-3.131,1.8Zm-.58,4.08-3.13,1.8v-3.74l3.13-1.809Zm.58-4.662v-3.746l3.131-1.8v3.74Zm-.58-3.4v3.747l-3.13,1.8v-3.736Zm-3.711,5.883-2.373,1.373v-3.737l2.373-1.376Zm0,.579v3.746l-2.373,1.37v-3.74Zm0,4.329v3.736l-2.373,1.377v-3.74Zm.581-.337,3.13-1.809v3.74l-3.13,1.809Zm3.71,1.6v-3.746l3.131-1.8v3.74Zm3.718-5.889,2.328-1.342v3.737l-2.328,1.351Zm0-.582v-3.737l2.328-1.342v3.737Zm0-4.319v-3.74l2.328-1.349v3.74Zm-8.009-3.124v3.422l-2.373,1.371v-.822A5.41,5.41,0,0,1,1070.563,2081.663Zm-2.373,19.609v-1.261l2.373-1.383v3.871C1069.232,2103.141,1068.19,2102.639,1068.19,2101.272Zm10.382-3.391v-3.874l2.328-1.336v1.261A5.441,5.441,0,0,1,1078.572,2097.881Z"/><g class="h"><path class="e" d="M1067.767,2083.706l.061,22.381-11.841,6.835-.064-22.38Z"/><path class="m" d="M1055.986,2112.922l-1.474-.853-.059-22.38,1.47.854Z"/><path class="n" d="M1055.923,2090.542l-1.47-.854,11.841-6.838,1.473.856Z"/></g><path class="o" d="M1052.013,2092.3l-7.469,4.313a6.655,6.655,0,0,0-3.2,5.054v15.651c0,1.756,1.438,2.369,3.2,1.348l7.469-4.313a6.667,6.667,0,0,0,3.207-5.06v-15.639C1055.22,2091.884,1053.78,2091.276,1052.013,2092.3Zm2.627,1.7v.819l-2.331,1.342v-3.41C1053.615,2092.139,1054.64,2092.637,1054.64,2094Zm-2.917,19.942-3.125,1.8v-3.893l3.125-1.8Zm-6.844.059,3.132-1.8v3.88l-3.132,1.816Zm0-17,3.132-1.8v3.444l-3.132,1.8Zm6.844-.5-3.125,1.8v-3.448l3.125-1.8Zm-3.125,6.711,3.125-1.8v3.737l-3.125,1.8Zm-.587,4.079-3.132,1.8v-3.74l3.132-1.8Zm.587-4.661v-3.74l3.125-1.809v3.74Zm-.587-3.407v3.746l-3.132,1.8v-3.737Zm-3.71,5.883-2.381,1.376v-3.74l2.381-1.367Zm0,.588v3.734l-2.381,1.373v-3.737Zm0,4.329v3.73l-2.381,1.376v-3.739Zm.578-.343,3.132-1.809v3.74l-3.132,1.8Zm3.719,1.6v-3.739l3.125-1.81v3.74Zm3.711-5.882,2.331-1.342v3.73l-2.331,1.349Zm0-.589v-3.739l2.331-1.342v3.733Zm0-4.319v-3.74l2.331-1.342v3.734Zm-8.008-3.12v3.419l-2.381,1.371v-.822A5.4,5.4,0,0,1,1044.3,2097.364Zm-2.381,19.612v-1.264l2.381-1.38v3.865C1042.968,2118.845,1041.92,2118.337,1041.92,2116.976Zm10.389-3.406v-3.859l2.331-1.348v1.267A5.423,5.423,0,0,1,1052.309,2113.57Z"/></g><path class="e" d="M1038.38,2123.045l.09-22.514,2.211,1.068v20.123Z" transform="translate(0 -1)"/><path class="w" d="M1022.763,2052.25c-2.712,5.642-6.817,2.535-3.236-.493,0,0-1.7-.745,1.434-1.508Z" transform="translate(0 -1)"/><path class="x" d="M1020.444,2050.3l1.684,1.774.676.712,8.655-7.706,1.808-11.061.823-5.036c-5.617.584-7.294,13.886-7.294,13.886Z" transform="translate(0 -1)"/><path class="y" d="M1022.128,2052.076l.676.712,8.655-7.706,1.808-11.061-.226-.242c-4.069,3.617-3.843,11.416-3.843,11.416S1026.019,2049.869,1022.128,2052.076Z" transform="translate(0 -1)"/><path class="z" d="M1024.536,2079.158l2.425.079c.982.123.866,2.461.866,2.461l-.405.47s-3.281,3.907-4.7,3.188S1022.252,2082.172,1024.536,2079.158Z" transform="translate(0 -1)"/><path class="z" d="M1020.58,2077.124l2.425.078c.981.123.866,2.462.866,2.462l-.4.469s-3.282,3.907-4.7,3.189S1018.3,2080.137,1020.58,2077.124Z" transform="translate(0 -1)"/><path class="z" d="M1019.7,2061.473c.475-1.8,6.51-7.533,12.775-11.14h8.068s.759,5.125-1.234,6.169-13.573,7.309-14.048,8.733-1.492,12.515-1.492,12.515a5.182,5.182,0,0,1-4.182,0S1019.228,2063.276,1019.7,2061.473Z" transform="translate(0 -1)"/><path class="aa" d="M1023.32,2063.507c1.077-2.154,6.9-7.021,10.05-9.653,1.571-1.312-1.936-4.755-1.936-4.755h12.624a14.4,14.4,0,0,1-.664,8.353c-.1.759-13.473,8.709-14.422,8.994-.133,3.486-.791,13.9-.791,13.9a7.789,7.789,0,0,1-4.522-.339C1022.9,2070.139,1022.743,2064.662,1023.32,2063.507Z" transform="translate(0 -1)"/><path class="x" d="M1030.477,2051.413s2.153,1.844,9.686,1.126q.269-.026.545-.055l.316-.035c.879-.1,1.825-.236,2.845-.41q.508-.087,1.043-.188c.207-2.585.287-5.108.352-8.464.028-1.539.037-3.037.018-4.384-.04-2.848-.2-5.018-.529-5.455-1.193-1.572-3.7-3.53-9.476-4.676C1031.92,2028.2,1029.346,2037.044,1030.477,2051.413Z" transform="translate(0 -1)"/><path class="w" d="M1035.581,2032.545c2.115,1.282,4.679-2.051,4.679-2.051l-.321-3.781-.245.095-3.536,1.379v1.6s-.13.112-.3.293C1035.33,2030.635,1034.414,2031.838,1035.581,2032.545Z" transform="translate(0 -1)"/><path class="ab" d="M1035.855,2030.082c.8,1.538,3.115.571,4.02-3.049l-.181-.225-3.536,1.379v1.6S1036.028,2029.9,1035.855,2030.082Z" transform="translate(0 -1)"/><path class="w" d="M1032.767,2021.361s-1.168,8.11,3.412,8.541c4.987.47,4.653-7.1,4.653-7.1l-4.816-2.822-1.945-.328Z" transform="translate(0 -1)"/><path class="x" d="M1033.143,2022.028a1.847,1.847,0,0,0-.518,1.685s-1.282-.22-1-3.267c.488-4.574,7.477-4.386,9.019-1.506,2.144,2.263.288,6.062.288,6.062l-2.267.542a1.818,1.818,0,0,1-.632-1.654,2.627,2.627,0,0,0-.972-1.53C1036.246,2021.767,1035.082,2022.5,1033.143,2022.028Z" transform="translate(0 -1)"/><path class="w" d="M1038.591,2025.174a1.31,1.31,0,1,0,1.251-1.366A1.31,1.31,0,0,0,1038.591,2025.174Z" transform="translate(0 -1)"/><path class="ac" d="M1043.867,2049.491l-2.843,2.958c.879-.1,1.825-.236,2.845-.41C1043.869,2051.022,1043.868,2050.181,1043.867,2049.491Z" transform="translate(0 -1)"/><path class="y" d="M1040.163,2052.539q.269-.026.545-.055l4.241-8.665-2.426-5.593.9,5.593Z" transform="translate(0 -1)"/><path class="w" d="M1042.432,2055.98c-2.712,5.642-6.818,2.535-3.237-.492,0,0-1.7-.745,1.434-1.508Z" transform="translate(0 -1)"/><path class="x" d="M1040.162,2029.823l4.158,1.451s5.393,3.835,4.554,12.943h0a2.825,2.825,0,0,1-.374,1.79l-5.978,10.075-2.636-1.918,4.343-10-1.707-5.942Z" transform="translate(0 -1)"/><g transform="translate(0 -1)"><path class="t" d="M1011.168,2044.195l-.067,23.766a.352.352,0,0,1-.033.159h0a.179.179,0,0,1-.087.094l1.588-.922a.169.169,0,0,0,.072-.066c0-.006.011-.018.018-.027a.026.026,0,0,1,.005-.019c0-.006.005-.019.005-.028a.025.025,0,0,0,.006-.019c.006-.006.006-.006.006-.018v-.041s0-.016,0-.016a.034.034,0,0,0,.005-.018h0l.063-23.767Z"/><path class="u" d="M1068.95,2076.64a.728.728,0,0,1,.277.3.764.764,0,0,1,.114.392l-.07,24.209c0,.261-.171.367-.394.236a.851.851,0,0,1-.4-.694l.068-23.757-57.377-33.127-.067,23.766c0,.253-.179.352-.405.228a.9.9,0,0,1-.4-.7l.075-24.214a.257.257,0,0,1,.125-.252.254.254,0,0,1,.276.024Z"/><path class="t" d="M1069.341,2077.328l-.07,24.209a.482.482,0,0,1-.028.168h-.005a.189.189,0,0,1-.084.1l1.59-.922a.2.2,0,0,0,.068-.065.111.111,0,0,1,.01-.035h0c0-.006.01-.012.01-.018a.039.039,0,0,0,.006-.022.057.057,0,0,0,0-.019.034.034,0,0,0,.006-.022.025.025,0,0,1,.005-.018v-.059h0l.075-24.218Z"/><path class="v" d="M1070.931,2076.36c-.005-.006-.005-.006-.005-.019a.024.024,0,0,1-.008-.021v-.019c0-.006-.008-.013-.008-.022l0-.018v-.022a.05.05,0,0,1-.006-.025h0c-.005,0-.005,0-.005-.006a.026.026,0,0,1-.006-.013.028.028,0,0,0-.006-.022s0-.012-.005-.012a.12.12,0,0,0-.006-.028l-.011-.013h.006c-.006-.006-.006-.012-.012-.018l-.005-.016c0-.006-.006-.012-.009-.025s-.006-.015-.016-.022a.085.085,0,0,0-.014-.025V2076a.3.3,0,0,1-.034-.053c-.011-.006-.016-.019-.023-.025s-.011-.015-.016-.028a.047.047,0,0,1-.017-.019c-.006-.006-.006-.015-.014-.015s-.014-.013-.014-.019l-.006-.006h0a.012.012,0,0,1-.011-.013c-.006,0-.011-.009-.019-.015s-.009-.006-.017-.013-.009-.012-.016-.018-.017-.01-.021-.016-.011-.006-.018-.012a.142.142,0,0,0-.018-.013c-.005,0-.011-.006-.016-.015s-.012-.007-.015-.013h-.007l-58.171-33.587c-.013,0-.013,0-.016-.007s-.014-.006-.017-.006a.017.017,0,0,0-.011-.006c-.014,0-.018,0-.025-.006s-.006,0-.011-.01h-.017a.017.017,0,0,0-.015-.006.019.019,0,0,0-.017-.006c-.014,0-.014,0-.019-.006h-.059c-.01,0-.016,0-.019.006a.068.068,0,0,0-.034.006c-.005.006-.016.006-.022.016l-1.584.928a.144.144,0,0,1,.122-.028h0a.437.437,0,0,1,.154.052l58.181,33.588a.679.679,0,0,1,.15.122l0,.006a.683.683,0,0,1,.124.168.712.712,0,0,1,.084.193v.013h0a.669.669,0,0,1,.03.186l1.59-.921v-.047Z"/></g><g transform="translate(0 -1)"><path class="p" d="M1021.545,2054.982c.48-.28.875-.155.875.274l.045,13.739.028,12.481,0,.773-11.751,6.776-.033-13.244,10.01-5.777-.045-13.748A1.726,1.726,0,0,1,1021.545,2054.982Z"/><path class="q" d="M1010.746,2089.025l-20.367-11.83-.042-13.253,20.377,11.84Z"/><path class="r" d="M1010.713,2075.781l-20.377-11.84,10.01-5.776L1020.723,2070Z"/><path class="l" d="M1020.723,2070l-20.377-11.839-.04-13.742,20.372,11.833Z"/><path class="s" d="M1020.93,2055.568a.026.026,0,0,0,.006-.013,3.008,3.008,0,0,1,.259-.308,2.091,2.091,0,0,1,.35-.265,1.01,1.01,0,0,1,.389-.14h.005a.458.458,0,0,1,.3.047l-8.076-4.693-12.3-7.15a.286.286,0,0,0-.041-.018.075.075,0,0,1-.04-.016c-.018-.006-.033-.006-.05-.012h-.05a.2.2,0,0,0-.062-.007.134.134,0,0,1-.052.007h-.006a.017.017,0,0,0-.015.006.183.183,0,0,0-.091.022.373.373,0,0,0-.126.04l.025.006h0l-.025-.006c-.048.019-.106.047-.162.071a2.15,2.15,0,0,0-.344.275.025.025,0,0,0-.012.006.952.952,0,0,0-.106.115.666.666,0,0,0-.074.087.382.382,0,0,1-.057.078c-.005.006-.011.016-.017.022v.006a.122.122,0,0,0-.027.041c-.01.018-.029.04-.042.065a.254.254,0,0,1-.031.053.176.176,0,0,1-.028.062c-.014.019-.017.038-.031.059a.339.339,0,0,1-.02.053v.013l-.006.006a.082.082,0,0,1-.018.034.5.5,0,0,0-.01.06.529.529,0,0,0-.019.068c-.005.025-.01.047-.014.081s-.008.065-.008.1l20.372,11.833a1.117,1.117,0,0,1,.067-.339h0A1.709,1.709,0,0,1,1020.93,2055.568Z"/><path class="p" d="M1041.955,2066.847c.479-.287.875-.162.875.268l.039,13.739.034,12.478,0,.775-11.754,6.791-.03-13.262,10-5.78-.033-13.736A1.689,1.689,0,0,1,1041.955,2066.847Z"/><path class="q" d="M1031.153,2100.9l-20.367-11.845-.04-13.254,20.377,11.836Z"/><path class="r" d="M1031.123,2087.636l-20.377-11.836,10.009-5.776,20.37,11.833Z"/><path class="l" d="M1041.125,2081.856l-20.37-11.833-.031-13.745,20.369,11.843Z"/><path class="s" d="M1041.34,2067.426a.022.022,0,0,0,.006-.013,2.539,2.539,0,0,1,.258-.308,1.546,1.546,0,0,1,.351-.258.934.934,0,0,1,.389-.147s.006,0,.006-.009a.519.519,0,0,1,.3.056l-8.076-4.7-12.3-7.15a.087.087,0,0,0-.039-.012c-.014-.006-.028-.016-.042-.022a.132.132,0,0,0-.048-.006.147.147,0,0,0-.053-.006h-.112l-.007.006h-.014a.2.2,0,0,0-.093.022c-.039.006-.084.025-.129.037l.022.016h0l-.022-.016c-.044.022-.1.056-.156.081a2.1,2.1,0,0,0-.35.268c0,.006-.006.006-.006.012-.039.034-.075.075-.109.106a.747.747,0,0,0-.074.094c-.015.021-.039.049-.056.074a.051.051,0,0,0-.009.028c-.006,0-.006,0-.006.006a.058.058,0,0,0-.028.035.357.357,0,0,0-.041.065c-.011.013-.021.041-.033.059a.2.2,0,0,0-.029.063c-.006.012-.016.031-.03.053a.466.466,0,0,0-.02.053v.018h-.008a.132.132,0,0,1-.009.041.228.228,0,0,1-.022.059l-.017.062a.36.36,0,0,1-.011.081v.1l20.369,11.842a1.009,1.009,0,0,1,.059-.339l.009-.006A1.431,1.431,0,0,1,1041.34,2067.426Z"/><path class="r" d="M1062.323,2078.652c.482-.283.88-.156.88.271l.034,13.742.041,12.478v.775l-11.749,6.783-.036-13.254,10.007-5.779-.039-13.736A1.733,1.733,0,0,1,1062.323,2078.652Z"/><path class="q" d="M1051.529,2112.7l-20.375-11.836-.031-13.254,20.37,11.836Z"/><path class="r" d="M1051.493,2099.447l-20.37-11.836,10-5.782,20.375,11.839Z"/><path class="l" d="M1061.5,2093.668l-20.375-11.839-.033-13.733,20.369,11.836Z"/><path class="s" d="M1061.716,2079.238v-.007a1.486,1.486,0,0,1,.262-.308,1.981,1.981,0,0,1,.345-.271,1.193,1.193,0,0,1,.4-.149h0a.478.478,0,0,1,.3.052l-8.076-4.692-12.3-7.144a.12.12,0,0,0-.041-.019.053.053,0,0,0-.04-.015.156.156,0,0,0-.044-.013.16.16,0,0,0-.051-.006h-.117a.006.006,0,0,1-.006.006h-.011a.494.494,0,0,0-.095.019,1.2,1.2,0,0,1-.126.041l.023.015h0l-.023-.015a1.361,1.361,0,0,0-.157.081,2.285,2.285,0,0,0-.351.267c0,.006,0,.006-.009.006-.036.041-.075.081-.109.122a1.049,1.049,0,0,1-.072.084c-.02.028-.034.047-.057.075a.108.108,0,0,0-.011.028h-.006a.292.292,0,0,1-.03.046c-.009.019-.028.038-.037.06l-.036.059a.309.309,0,0,1-.022.059.46.46,0,0,0-.026.056.235.235,0,0,0-.024.059c-.005,0-.005.006-.005.013h-.009c0,.022-.009.028-.009.04a.569.569,0,0,1-.017.059c-.007.022-.01.041-.016.063a.509.509,0,0,0-.012.077.757.757,0,0,0-.005.109l20.369,11.837a.96.96,0,0,1,.067-.34v-.006A1.6,1.6,0,0,1,1061.716,2079.238Z"/></g><g transform="translate(0 -1)"><path class="t" d="M983.547,2060.03l-.067,23.763a.453.453,0,0,1-.03.159h0a.245.245,0,0,1-.089.1l1.582-.922a.162.162,0,0,0,.075-.072.054.054,0,0,0,.012-.028.119.119,0,0,0,.009-.019.049.049,0,0,1,.008-.021.029.029,0,0,0,.007-.019.044.044,0,0,1,.006-.028v-.012a.051.051,0,0,0,0-.022v-.047l.075-23.754Z"/><path class="u" d="M1041.329,2092.466a.775.775,0,0,1,.275.3.79.79,0,0,1,.119.4l-.074,24.215c0,.255-.176.361-.394.227a.847.847,0,0,1-.4-.688l.061-23.76-57.369-33.124-.067,23.763c0,.246-.183.352-.4.225a.843.843,0,0,1-.4-.7l.065-24.208a.288.288,0,0,1,.123-.268.321.321,0,0,1,.283.034Z"/><path class="t" d="M1041.723,2093.16l-.074,24.215a.361.361,0,0,1-.032.162h0a.176.176,0,0,1-.08.1l1.579-.921a.11.11,0,0,0,.067-.066.077.077,0,0,0,.017-.028.006.006,0,0,1,.006-.006h0c0-.006,0-.012.011-.022v-.019a.02.02,0,0,0,.007-.018.05.05,0,0,0,0-.022c0-.006.006-.012.006-.019v-.068l.067-24.209Z"/><path class="v" d="M1043.3,2092.2v-.047a.036.036,0,0,1,0-.022c0-.006-.007-.012-.007-.018a.032.032,0,0,0,0-.019c0-.016-.006-.016-.006-.022v-.024h0a.032.032,0,0,1-.007-.016c0-.013,0-.019-.009-.025a.026.026,0,0,0-.008-.022c0-.006,0-.006,0-.018a.028.028,0,0,1-.005-.013h0c-.006-.009-.013-.016-.013-.022a.019.019,0,0,0-.006-.012.041.041,0,0,0-.011-.022c0-.006-.007-.012-.011-.019s-.009-.028-.017-.034l-.006-.006a.155.155,0,0,0-.028-.053c0-.013-.016-.019-.022-.034s-.012-.013-.017-.013-.011-.019-.015-.019-.007-.015-.013-.021a.057.057,0,0,0-.017-.019l0-.006h0c-.008,0-.014-.01-.014-.016s-.011-.006-.017-.012-.013-.007-.016-.019-.012-.009-.017-.016-.016-.006-.025-.006-.011-.012-.011-.019-.017-.006-.02-.015-.014,0-.017-.006-.011-.007-.016-.013h-.008l-58.176-33.591s0,0-.009-.006-.009-.006-.02-.013h-.017c0-.009-.01-.009-.01-.015a.018.018,0,0,1-.017-.006h-.016a.025.025,0,0,0-.018-.006c-.006,0-.013,0-.016-.007h-.1a.046.046,0,0,1-.03.007.08.08,0,0,1-.028.012l-1.585.922a.381.381,0,0,1,.126-.019h0a.409.409,0,0,1,.157.053l58.177,33.585a.7.7,0,0,1,.144.124s.008,0,.008.01a.812.812,0,0,1,.123.165.8.8,0,0,1,.086.2l.006.006h0a.737.737,0,0,1,.027.187l1.578-.922v-.04Z"/></g><g transform="translate(0 -1)"><path class="ad" d="M1004.79,2095.349l-.086,30.8-25.619-14.8.092-30.792Z"/></g><path class="s" d="M969.809,2060.889l68.661,39.642-33.68-5.182-25.613-14.789Z" transform="translate(0 -1)"/><g transform="translate(0 -1)"><path class="ae" d="M1038.47,2100.531l-.09,30.8-33.675-5.182.086-30.8Z"/></g><g transform="translate(0 -1)"><path class="af" d="M979.177,2080.561l-.092,30.792-9.365-19.668.089-30.795Z"/></g><g transform="translate(0 -1)"><path class="b" d="M1074.865,2023.448a1.5,1.5,0,0,1-.749-2.8l96.365-55.9a1.494,1.494,0,0,1,2.043.547,1.51,1.51,0,0,1-.549,2.054l-96.364,55.893A1.452,1.452,0,0,1,1074.865,2023.448Z"/><g class="h"><path class="i" d="M1254.63,2064.5l-134.163-155.744-2.087-1.209,134.164,155.738a.619.619,0,0,0,.174.14c.694.409,1.394.816,2.085,1.215A.665.665,0,0,1,1254.63,2064.5Z"/><path class="b" d="M1120.364,1904.175c.5-.292.942-.271,1.2.029l135.405,157.168a2.217,2.217,0,0,1-.4,2.464,2.514,2.514,0,0,1-.767.706.892.892,0,0,1-1.179-.04l-134.163-155.744L999.981,2211.465a3.152,3.152,0,0,1-1.207,1.482,1.252,1.252,0,0,1-.722.181c-.67-.075-.887-.94-.491-1.931L1119.2,1905.634A2.982,2.982,0,0,1,1120.364,1904.175Z"/><path class="i" d="M1119.306,1902.845c-.005,0-.013,0-.013-.006-.025-.01-.044-.024-.065-.033s-.053-.017-.075-.027a.284.284,0,0,0-.056-.01h-.014l0-.006-.084-.011h-.1l-.045,0a.145.145,0,0,1-.02,0,.124.124,0,0,1-.041,0,.98.98,0,0,0-.124.029.276.276,0,0,0-.073.023.149.149,0,0,0-.045.017l-.05.021a1.967,1.967,0,0,0-.22.1,3.109,3.109,0,0,0-.414.321c0,.014-.02.017-.034.027-.05.057-.1.11-.151.166-.02.028-.044.055-.067.084-.013.007-.013.014-.017.024a.1.1,0,0,0-.024.026c-.032.041-.067.087-.095.128s-.051.073-.079.117-.051.073-.075.116-.039.08-.059.117-.04.077-.064.117-.032.08-.054.12a.772.772,0,0,1-.041.1l-121.63,305.572-.018.022c-.017.053-.028.093-.045.14a1.438,1.438,0,0,0-.045.146,1.352,1.352,0,0,0-.04.159c-.009.041-.016.081-.024.122a.085.085,0,0,1,0,.024.184.184,0,0,1-.006.057,2.25,2.25,0,0,0-.006.433c.006.034.012.059.015.093a1.075,1.075,0,0,0,.092.293.929.929,0,0,1,.045.1.855.855,0,0,0,.238.249c.351.2.7.4,1.047.6s.7.415,1.046.608a.748.748,0,0,1-.238-.246.431.431,0,0,1-.045-.088,1,1,0,0,1-.09-.3.7.7,0,0,1-.022-.1,2.021,2.021,0,0,1,.017-.48c0-.015.005-.022.005-.034a2.647,2.647,0,0,1,.163-.589L1119.2,1905.634a2.464,2.464,0,0,1,.215-.444v-.008c.084-.137.174-.269.269-.394a.075.075,0,0,1,.024-.023,2.369,2.369,0,0,1,.254-.277,2.408,2.408,0,0,1,.4-.313,1.482,1.482,0,0,1,.273-.128c.015,0,.032-.012.05-.016a1.027,1.027,0,0,1,.231-.06h.024a.922.922,0,0,1,.23.009h.01a.585.585,0,0,1,.21.081C1120.7,1903.653,1120,1903.25,1119.306,1902.845Z"/></g><path class="c" d="M1131.678,1907.309a1.627,1.627,0,0,1,.345-.073s.017,0,.027,0a1.012,1.012,0,0,1,.333.017c.006,0,.011.006.017.006a.8.8,0,0,1,.3.114l-2.081-1.209-.005-.01a.989.989,0,0,0-.106-.05c-.039-.014-.079-.027-.112-.041a.43.43,0,0,1-.073-.015c-.008,0-.014-.005-.019-.005s-.017,0-.026,0c-.042-.006-.086-.013-.131-.017a1,1,0,0,0-.135,0c-.019,0-.03,0-.047,0a.037.037,0,0,0-.027.007.617.617,0,0,0-.079.006,1.418,1.418,0,0,0-.187.037c-.03.006-.05.02-.078.027a.441.441,0,0,0-.073.026.478.478,0,0,0-.1.034c-.089.039-.188.086-.293.144l-5.983,3.455,2.082,1.208,5.983-3.452a1.935,1.935,0,0,1,.389-.178A.3.3,0,0,1,1131.678,1907.309Z"/><path class="d" d="M1107.586,1928.382l-.01-4.809-2.081-1.208.017,4.808a1.448,1.448,0,0,0,.609,1.341l2.074,1.2A1.47,1.47,0,0,1,1107.586,1928.382Z"/><path class="e" d="M1131.215,1907.516c1.157-.671,2.1-.134,2.1,1.2l.009,4.806a4.58,4.58,0,0,1-2.075,3.612l-21.559,12.446c-1.161.668-2.1.134-2.1-1.194l-.01-4.809a4.574,4.574,0,0,1,2.087-3.618l5.982-3.452c1.227,1.024,2.927,1.118,4.8.041a13.268,13.268,0,0,0,4.788-5.576Z"/><path class="c" d="M1107.735,1922.562c0-.016.01-.03.01-.039a5.056,5.056,0,0,1,.185-.5h0a4.311,4.311,0,0,1,.249-.494.04.04,0,0,0,.009-.016c.088-.15.187-.3.29-.448.011-.01.015-.023.028-.037a3.384,3.384,0,0,1,.31-.37c.017-.02.04-.05.061-.071.084-.09.174-.169.264-.25.047-.03.08-.073.12-.1a3.022,3.022,0,0,1,.4-.277l5.982-3.452-2.076-1.211-5.988,3.458a3.466,3.466,0,0,0-.394.274c-.042.03-.073.067-.12.1-.062.061-.124.108-.186.164-.03.03-.057.064-.085.093s-.039.041-.063.067a.523.523,0,0,1-.085.085c-.055.069-.106.136-.169.207a.487.487,0,0,1-.055.082.187.187,0,0,1-.028.037c-.011.021-.034.044-.05.074-.04.056-.079.12-.126.177-.032.059-.073.117-.1.176,0,.008-.007.014-.012.02v.011a1.478,1.478,0,0,0-.085.15,1.365,1.365,0,0,0-.089.174c-.031.059-.051.109-.081.17l0,.006v.006c-.025.061-.053.125-.075.192s-.053.129-.073.193c-.011.032-.02.064-.034.107a.09.09,0,0,0-.011.039c-.008.017-.013.044-.022.07-.017.078-.04.161-.059.242-.011.043-.015.093-.028.143a.236.236,0,0,1-.011.076c0,.024,0,.047,0,.07a2.4,2.4,0,0,0-.033.411l2.081,1.208a2.82,2.82,0,0,1,.038-.481.408.408,0,0,0,.011-.076A3.856,3.856,0,0,1,1107.735,1922.562Z"/><path class="f" d="M1120.389,1897.568c3.734-2.153,6.767.35,6.776,5.588a17.793,17.793,0,0,1-1.933,7.812,13.268,13.268,0,0,1-4.788,5.576c-1.872,1.077-3.572.983-4.8-.041s-1.968-2.947-1.968-5.558C1113.653,1905.713,1116.669,1899.722,1120.389,1897.568Z"/><path class="g" d="M1113.733,1909.669c.017-.23.033-.454.067-.685.053-.406.126-.824.21-1.235.033-.14.061-.283.1-.423.039-.2.084-.391.136-.584.05-.171.1-.341.146-.515l.135-.42c.064-.2.13-.4.205-.6.032-.1.063-.206.1-.307.106-.29.226-.578.351-.858.011-.03.029-.064.043-.094.108-.25.226-.5.349-.747.036-.076.073-.151.115-.23.108-.217.224-.432.343-.642.034-.056.064-.11.092-.163.146-.254.3-.5.456-.744.039-.057.082-.12.118-.181.125-.184.254-.363.383-.544.058-.077.106-.148.159-.221.129-.163.252-.324.389-.479.055-.067.112-.145.175-.215.084-.1.18-.2.269-.3.123-.138.249-.27.372-.4.187-.186.369-.356.554-.52l.106-.087c.164-.137.329-.271.492-.394.06-.04.117-.087.175-.123.2-.143.406-.274.61-.4.185-.107.363-.194.539-.28.047-.017.079-.034.12-.051a1.67,1.67,0,0,1,.286-.109c.129-.052.256-.094.385-.137.1-.027.2-.055.3-.078.08-.016.154-.033.228-.047.122-.02.241-.036.365-.047.047-.006.089-.012.134-.015a4.06,4.06,0,0,1,.48,0c.036.006.064.009.1.012a2.437,2.437,0,0,1,.367.061.988.988,0,0,1,.135.03,2.521,2.521,0,0,1,.34.1.765.765,0,0,0,.1.036,3.359,3.359,0,0,1,.436.21l-2.088-1.208a.3.3,0,0,0-.034-.021,2.72,2.72,0,0,0-.355-.176c-.011-.008-.023-.008-.034-.017-.033-.014-.064-.02-.106-.034-.076-.026-.149-.056-.223-.076-.038-.01-.071-.017-.112-.03s-.09-.02-.14-.034a.818.818,0,0,1-.112-.023c-.079-.013-.164-.016-.255-.027-.027,0-.061-.006-.094-.012-.012,0-.023-.005-.036-.005-.129-.006-.266-.006-.405,0h-.038a1.223,1.223,0,0,1-.137.014c-.09.006-.175.014-.266.026a.911.911,0,0,1-.1.021c-.073.014-.147.032-.226.05-.061.017-.123.023-.191.04-.035.014-.074.03-.108.041-.123.035-.258.085-.388.132-.051.023-.112.034-.169.058-.033.016-.074.035-.108.055s-.084.035-.12.052c-.177.079-.359.173-.545.272-.2.125-.406.262-.608.405-.056.039-.113.077-.17.123-.165.117-.335.251-.5.391-.034.03-.067.056-.107.09-.165.137-.327.29-.486.444-.022.023-.037.05-.061.073-.129.12-.254.26-.384.4-.067.078-.147.151-.214.228a.551.551,0,0,1-.049.063c-.058.074-.119.15-.176.225-.1.106-.192.213-.278.327-.031.046-.073.1-.1.146-.058.07-.109.147-.167.221s-.1.143-.155.22c-.081.1-.15.218-.223.324-.036.063-.079.119-.121.183-.017.027-.035.05-.052.077-.124.191-.249.4-.367.6a.345.345,0,0,0-.033.067c-.034.053-.062.108-.092.158-.071.134-.151.263-.213.4a2.007,2.007,0,0,0-.129.247c-.044.073-.081.153-.125.234-.021.056-.056.111-.078.167-.1.193-.18.379-.266.574-.017.03-.028.064-.045.093,0,.013-.011.021-.011.033-.107.245-.21.492-.3.744-.014.032-.023.064-.035.091-.038.1-.067.2-.106.288-.05.146-.1.3-.153.444a1.459,1.459,0,0,0-.056.166c-.04.14-.085.283-.129.424-.031.107-.069.221-.1.331-.017.057-.027.12-.044.184-.051.19-.095.38-.148.567a2.686,2.686,0,0,1-.075.32c0,.041-.009.08-.014.127-.09.408-.163.819-.216,1.228v.023c-.028.218-.05.432-.065.648-.007.105-.022.21-.03.308-.023.334-.033.661-.033.982.01,2.61.762,4.537,1.979,5.552a4.907,4.907,0,0,0,.5.356l2.08,1.2a3.337,3.337,0,0,1-.5-.347c-1.212-1.015-1.968-2.947-1.968-5.558-.005-.324.005-.648.022-.978C1113.708,1909.87,1113.722,1909.769,1113.733,1909.669Z"/></g></g></svg>