<svg xmlns="http://www.w3.org/2000/svg" xmlns:xlink="http://www.w3.org/1999/xlink" width="53.609" height="77.785" viewBox="0 0 53.609 77.785"><defs><style>.a{fill:none;}.b{fill:#5eb366;}.c{fill:#386338;}.d{isolation:isolate;}.e{clip-path:url(#a);}.f{fill:#fffffd;}.g{clip-path:url(#b);}</style><clipPath id="a"><path class="a" d="M227.82,359.873l-.026-9.273,36.163-20.879.026,9.273Z"/></clipPath><clipPath id="b"><path class="a" d="M238.005,339.348l-.05-17.483,10.343-5.972.05,17.483Z"/></clipPath></defs><g transform="translate(-212.618 -275.158)"><g transform="translate(0 -20)"><path class="b" d="M238.471,364.8l-9.663-5.615,4.576,7.765,9.663,5.615Z"/></g><path class="b" d="M218.022,314.951l32.995-19.05a3.825,3.825,0,0,1,3.857-.378l9.662,5.616a3.823,3.823,0,0,0-3.856.377l-32.995,19.05a11.911,11.911,0,0,0-5.4,9.367l.107,37.914a3.794,3.794,0,0,0,1.582,3.477l-9.663-5.615a3.8,3.8,0,0,1-1.582-3.478l-.107-37.914A11.911,11.911,0,0,1,218.022,314.951Z" transform="translate(0 -20)"/><g transform="translate(0 -20)"><path class="c" d="M227.685,320.566a11.911,11.911,0,0,0-5.4,9.367l.107,37.914c.01,3.437,2.443,4.83,5.44,3.1l10.643-6.145,4.576,7.765c.272.462.792.471,1.31.172a3.169,3.169,0,0,0,1.306-1.683l4.512-13.011,10.648-6.148a11.91,11.91,0,0,0,5.4-9.361l-.107-37.914c-.01-3.443-2.443-4.836-5.44-3.106Z"/></g><g transform="translate(0 -20)"><g class="d"><g class="e"><path class="f" d="M229.849,353.866l-.007-2.37.728-.42a.579.579,0,0,1,.653-.038.759.759,0,0,1,.289.685,2.089,2.089,0,0,1-.285,1.017,1.779,1.779,0,0,1-.65.706l-.728.42m1.042-4.643-2.075,1.2a2.029,2.029,0,0,0-.727.765,1.875,1.875,0,0,0-.291.962l.019,6.6a.621.621,0,0,0,.3.616.689.689,0,0,0,.722-.072l.013-.008a1.953,1.953,0,0,0,.714-.743,1.92,1.92,0,0,0,.291-.969l0-1.907,1.258-.734a4.548,4.548,0,0,0,1.886-2.272,5.187,5.187,0,0,0,.474-2,1.784,1.784,0,0,0-.625-1.528,1.5,1.5,0,0,0-1.541-.094l-.051.015c-.134.062-.249.114-.358.177"/><path class="f" d="M237.245,352.66a1.42,1.42,0,0,1-.166.082.548.548,0,0,1-.7-.032,1.309,1.309,0,0,1-.31-.974v-.074a2.763,2.763,0,0,1,.138-.881,1.818,1.818,0,0,1,.356-.683,2.172,2.172,0,0,1,.539-.463,1.173,1.173,0,0,1,.425-.152c.281-.038.461.028.525.2l0,1.555a1.606,1.606,0,0,1-.482,1.168,1.85,1.85,0,0,1-.332.25m-.333-4.672a5.344,5.344,0,0,0-1.951,2.1,5.689,5.689,0,0,0-.8,2.809,2.03,2.03,0,0,0,.817,1.865,1.825,1.825,0,0,0,1.957-.167,4.078,4.078,0,0,0,.982-1.023.5.5,0,0,1,.164-.155l.033-.018a.182.182,0,0,1,.2.011.517.517,0,0,0,.556.068l.722-.417a.928.928,0,0,0,.344-.36.821.821,0,0,0,.139-.441l-.014-5.025a.5.5,0,0,0-.231-.476.55.55,0,0,0-.557.071l-.447.258a1.457,1.457,0,0,0-.542.563,1.481,1.481,0,0,0-.228.734l0-.726c-.077-.169-.46-.058-1.137.333"/><path class="f" d="M244.158,343.723a4.256,4.256,0,0,0-1.359,1.189,2.387,2.387,0,0,0-.273.445c-.193-.22-.474-.219-.844-.005l-.026.014a1.983,1.983,0,0,0-.708.74,1.838,1.838,0,0,0-.272.929l.012,4.291a.626.626,0,0,0,.27.594.687.687,0,0,0,.71-.064l.019-.012a1.937,1.937,0,0,0,.7-.75,1.764,1.764,0,0,0,.272-.907l-.282-2.387.281-.162-.275.019c.185-.151.281-.25.287-.291a2.257,2.257,0,0,1,.426-.87,2.3,2.3,0,0,1,.678-.677,1.067,1.067,0,0,1,.145-.07.581.581,0,0,0,.1-.049,1.174,1.174,0,0,0,.469-.928l.119-.716a.355.355,0,0,0-.084-.348c-.09-.081-.211-.077-.371.015"/><path class="f" d="M248.009,346.445a1.348,1.348,0,0,1-.166.082.563.563,0,0,1-.7-.028,1.31,1.31,0,0,1-.31-.975v-.073a2.761,2.761,0,0,1,.145-.884,1.788,1.788,0,0,1,.356-.684,2.15,2.15,0,0,1,.536-.462,1.2,1.2,0,0,1,.428-.153c.281-.038.454.032.525.2l0,1.555a1.62,1.62,0,0,1-.483,1.168,1.773,1.773,0,0,1-.332.25m-.333-4.672a5.36,5.36,0,0,0-1.957,2.1,5.752,5.752,0,0,0-.8,2.809,2.044,2.044,0,0,0,.817,1.864,1.829,1.829,0,0,0,1.963-.17,3.981,3.981,0,0,0,.976-1.019.527.527,0,0,1,.168-.158l.036-.019a.192.192,0,0,1,.2.011.5.5,0,0,0,.55.072l.722-.417a.953.953,0,0,0,.35-.364.866.866,0,0,0,.14-.441l-.014-5.025a.5.5,0,0,0-.232-.476.549.549,0,0,0-.556.071l-.447.258a1.651,1.651,0,0,0-.77,1.3l0-.726c-.077-.169-.461-.058-1.138.333"/><path class="f" d="M254.624,342.626a1.346,1.346,0,0,1-.166.082.548.548,0,0,1-.7-.031,1.311,1.311,0,0,1-.31-.975v-.074a2.762,2.762,0,0,1,.138-.88,1.815,1.815,0,0,1,.356-.684,2.19,2.19,0,0,1,.539-.463,1.179,1.179,0,0,1,.425-.152c.281-.037.461.028.525.2l0,1.555a1.553,1.553,0,0,1-.477,1.157,1.727,1.727,0,0,1-.338.261m1.811-8.563-.019.011a2.163,2.163,0,0,0-.993,1.683l0,1.827a2.032,2.032,0,0,0-1.137.37,5.344,5.344,0,0,0-1.951,2.1,5.69,5.69,0,0,0-.8,2.809,2.03,2.03,0,0,0,.817,1.865,1.825,1.825,0,0,0,1.957-.167,3.867,3.867,0,0,0,1.135-.935v-.242a.3.3,0,0,0,.148.289c.083.055.2.033.345-.052l1.028-.594a1.02,1.02,0,0,0,.35-.356.879.879,0,0,0,.133-.445l-.021-7.622a.663.663,0,0,0-.29-.619.71.71,0,0,0-.7.082"/><path class="f" d="M261.155,338.856a1.334,1.334,0,0,1-.166.081.561.561,0,0,1-.7-.028,1.309,1.309,0,0,1-.31-.975v-.073a2.761,2.761,0,0,1,.145-.884,1.788,1.788,0,0,1,.356-.684,2.171,2.171,0,0,1,.536-.462,1.2,1.2,0,0,1,.428-.153c.281-.037.454.032.525.2l0,1.555a1.62,1.62,0,0,1-.483,1.168,1.823,1.823,0,0,1-.332.251m-.333-4.673a5.376,5.376,0,0,0-1.957,2.1,5.738,5.738,0,0,0-.8,2.805,2.054,2.054,0,0,0,.811,1.869,1.837,1.837,0,0,0,1.963-.171,3.98,3.98,0,0,0,.976-1.019.548.548,0,0,1,.171-.159l.033-.018a.192.192,0,0,1,.2.011.508.508,0,0,0,.55.072l.722-.417a.953.953,0,0,0,.35-.364.823.823,0,0,0,.14-.441l-.014-5.025a.5.5,0,0,0-.232-.476.549.549,0,0,0-.556.071l-.447.258a1.655,1.655,0,0,0-.77,1.3l0-.726c-.077-.169-.461-.058-1.138.333"/></g></g></g><g transform="translate(0 -20)"><g class="d"><g class="g"><path class="f" d="M242.731,319.108a12.326,12.326,0,0,0-3.782,3.513,2.948,2.948,0,0,0-.616,1.613c-.03.554.137.891.489,1.025l.026.008a1.139,1.139,0,0,0,.976-.152l.027-.016a3.01,3.01,0,0,0,.989-1,4.349,4.349,0,0,1,1.3-1.361c.073-.049.146-.1.217-.136a1.8,1.8,0,0,1,1.265-.286.687.687,0,0,1,.269.05.7.7,0,0,1,.333.417,1.362,1.362,0,0,1,.156.565,3.308,3.308,0,0,1-.45,1.751c-.057.15-.114.279-.165.389q-.248.5-5.589,11.156a1.9,1.9,0,0,0-.174,1.769c.263.465.7.526,1.33.165l7.311-4.221a3.433,3.433,0,0,0,1.224-1.287,3.179,3.179,0,0,0,.475-1.59v-.029a1.1,1.1,0,0,0-.483-1.037,1.209,1.209,0,0,0-1.227.128l-3.161,1.825q.173-.352,3.124-5.94a17.715,17.715,0,0,0,1.3-2.975,8.212,8.212,0,0,0,.421-2.529,2.6,2.6,0,0,0-1.517-2.732q-1.508-.562-4.065.914"/></g></g></g></g></svg>