<svg xmlns="http://www.w3.org/2000/svg" width="100.92" height="90.937" viewBox="0 0 100.92 90.937"><defs><style>.a{fill:#71bb79;}.b{fill:#3e603f;}.c{fill:#898269;opacity:0.5;mix-blend-mode:multiply;isolation:isolate;}.d{fill:#b4ac94;}.e{fill:#df111f;}.f{fill:#ed5138;}.g{fill:#f48874;}</style></defs><g transform="translate(-124.322 -2994.465)"><rect class="a" width="100.92" height="90.937" transform="translate(124.322 2994.465)"/><rect class="b" width="80.59" height="65.344" transform="translate(134.487 3007.262)"/><rect class="c" width="10.891" height="19.603" transform="translate(140.84 3043.655)"/><rect class="c" width="10.891" height="19.603" transform="translate(197.834 3043.655)"/><circle class="b" cx="3.267" cy="3.267" r="3.267" transform="translate(215.077 3074.511)"/><path class="c" d="M225.242,3083.587v-53.839l-18.877-18.877H143.2v47.668l26.864,26.864H217.73l-50.7-50.7h33.16v23.834Z"/><rect class="d" width="6.171" height="47.668" transform="translate(143.199 3010.871)"/><rect class="e" width="50.823" height="3.086" transform="translate(149.371 3021.238)"/><rect class="f" width="50.823" height="10.367" transform="translate(149.371 3010.871)"/><rect class="d" width="6.171" height="47.668" transform="translate(200.193 3010.871)"/><path class="g" d="M195.656,3015.7H153.909a1.089,1.089,0,1,1,0-2.178h41.747a1.089,1.089,0,1,1,0,2.178Z"/><circle class="b" cx="3.267" cy="3.267" r="3.267" transform="translate(127.952 2998.822)"/><circle class="b" cx="3.267" cy="3.267" r="3.267" transform="translate(127.952 3074.511)"/><circle class="b" cx="3.267" cy="3.267" r="3.267" transform="translate(215.077 2998.822)"/></g></svg>