<svg xmlns="http://www.w3.org/2000/svg" width="100.92" height="90.937" viewBox="0 0 100.92 90.937"><defs><style>.a{fill:#71bb79;}.b{fill:#3e603f;}.c{fill:#898269;opacity:0.5;mix-blend-mode:multiply;isolation:isolate;}.d{fill:#b4ac94;}.e{fill:#df111f;}.f{fill:#ed5138;}.g{fill:#f48874;}</style></defs><g transform="translate(-1495.599 -2993.236)"><rect class="a" width="100.92" height="90.937" transform="translate(1495.599 2993.236)"/><rect class="b" width="80.59" height="65.344" transform="translate(1505.764 3006.033)"/><rect class="c" width="10.891" height="19.603" transform="translate(1512.117 3042.426)"/><rect class="c" width="10.891" height="19.603" transform="translate(1569.111 3042.426)"/><circle class="b" cx="3.267" cy="3.267" r="3.267" transform="translate(1586.354 3073.282)"/><path class="c" d="M1596.519,3082.358v-53.839l-18.877-18.877h-63.166v47.668l26.864,26.863h47.667l-50.7-50.7h33.16v23.834Z"/><rect class="d" width="6.171" height="47.668" transform="translate(1577.642 3057.309) rotate(180)"/><rect class="e" width="50.823" height="3.086" transform="translate(1520.647 3043.856)"/><rect class="f" width="50.823" height="10.367" transform="translate(1520.647 3046.942)"/><rect class="d" width="6.171" height="47.668" transform="translate(1520.647 3057.309) rotate(180)"/><path class="g" d="M1525.185,3052.478h41.747a1.089,1.089,0,1,1,0,2.178h-41.747a1.089,1.089,0,1,1,0-2.178Z"/><circle class="b" cx="3.267" cy="3.267" r="3.267" transform="translate(1499.229 2997.592)"/><circle class="b" cx="3.267" cy="3.267" r="3.267" transform="translate(1499.229 3073.282)"/><circle class="b" cx="3.267" cy="3.267" r="3.267" transform="translate(1586.354 2997.592)"/></g></svg>