<svg xmlns="http://www.w3.org/2000/svg" xmlns:xlink="http://www.w3.org/1999/xlink" width="242.218" height="527.488" viewBox="0 0 242.218 527.488"><defs><style>.a{fill:none;}.b{fill:#937768;}.c{fill:#dd6c16;}.d{fill:#464544;}.e{fill:#2e2e2d;}.f{fill:#fba11d;}.g{fill:#e8e9e9;}.h{fill:#dd1b1e;}.i{fill:#5e5d5d;}.j{fill:#8b8b8a;}.ap,.k,.n,.s{isolation:isolate;}.l{clip-path:url(#a);}.m{fill:#1a1818;}.n{fill:#a49583;}.n,.s{mix-blend-mode:multiply;}.o{fill:#191919;}.p{fill:#67402a;}.q{fill:#273722;}.r{fill:#3a4c35;}.t{fill:#a4b5ae;}.u{fill:#31412d;}.v{fill:#50664c;}.w{fill:#d7dacc;}.x{fill:#7e947b;}.y{fill:#c8806c;}.z{fill:#22211f;}.aa{fill:#10100e;}.ab{fill:#21211d;}.ac{fill:#2e2d2a;}.ad{fill:#2f2d2b;}.ae{fill:#fff;}.af{fill:#42413e;}.ag{fill:#33312e;}.ah{fill:#cd8b79;}.ai{fill:#e69c89;}.aj{fill:#a56a54;}.ak{fill:#fbc4b5;}.al{fill:#657e60;}.am{fill:#a70b1b;}.an{fill:#600611;}.ao{fill:#aa471b;}.ap{mix-blend-mode:screen;}.aq{fill:#161716;}</style><clipPath id="a"><path class="a" d="M-2249.3,3193.74l-6.889-128.44,44.441-18.907,6.889,128.44Z"/></clipPath></defs><g transform="translate(2383.161 -2704.154)"><rect class="b" width="3.242" height="47.281" transform="translate(-2188.404 2705.044)"/><path class="c" d="M-2276.732,2728.27c29.982,20.134,59.965-20.135,89.947,0v-18.3c-29.982-20.136-59.965,20.133-89.947,0,14.991,13.116,29.982,11.133,44.974,9.149C-2246.75,2727.2-2261.741,2735.285-2276.732,2728.27Z"/><path class="d" d="M-2140.944,3060.489v-4.139l-.205,4.262Z"/><path class="d" d="M-2240.425,3108.131c20.785-12.025,50.687-15.573,76.9-10.678,5.074-10.037,12.735-19.012,21.354-23.977l.53-.318c.235-.136.467-.255.7-.383v-1.609l-5.678,3.424c-3.843,2.32-7.029.64-7.115-3.749l0-.149-2.03-10.5,7-4.217.564,8.9,1.018-.614-.2-10.274,6.448-2.777v-2.463l-6.622,2.572.286-7.515a21.055,21.055,0,0,1-1.937,1.833l-.412,6.256-7.162,4.136.948-7.467c-3.474.107-5.876-2.515-5.876-7.168a15.275,15.275,0,0,1,.185-2.166c-2.171-2.8-3.437-6.781-3.437-11.823,0-14.755,10.663-32.944,24.027-41.273v-4.639l-10.66,6.154v-24.873a16.027,16.027,0,0,1,7.252-12.561l.146-.083a6.515,6.515,0,0,1,3.262-.982v-40.814c-33.96,11.993-78.926,9.518-108.317-7.45a68.511,68.511,0,0,1-13.326-9.86V3138.9C-2262.532,3127.767-2255.124,3116.612-2240.425,3108.131Z"/><path class="d" d="M-2169.769,3121.252c0-7.661,2.34-16.032,6.241-23.8-26.21-4.895-56.112-1.347-76.9,10.678-14.7,8.481-22.107,19.636-22.162,30.768,0,.042-.005.083-.005.124,0,11.174,7.414,22.382,22.167,30.9,19.153,11.065,46.04,14.966,70.656,11.668Z"/><path class="e" d="M-2140.944,3072.775c-.233.128-.465.247-.7.383l-.53.318c-8.619,4.965-16.28,13.94-21.354,23.977-3.9,7.767-6.241,16.138-6.241,23.8v60.334a106.321,106.321,0,0,0,28.825-7.859Z"/><path class="f" d="M-2144.352,2950.208a16.027,16.027,0,0,0-7.252,12.561v24.873l10.66-6.154v-32.345a6.515,6.515,0,0,0-3.262.982Z"/><path class="g" d="M-2147.28,3043.8l-.286,7.515,6.622-2.572v-7.826a27.741,27.741,0,0,1-5.819,2.332C-2146.931,3043.439-2147.108,3043.615-2147.28,3043.8Z"/><path class="g" d="M-2155.843,3048.557l-.948,7.467,7.162-4.136.412-6.256a15.565,15.565,0,0,1-2.115,1.5A9.7,9.7,0,0,1-2155.843,3048.557Z"/><path class="g" d="M-2147.19,3064.256l-1.018.614-.564-8.9-7,4.217,2.03,10.5,0,.149c.086,4.389,3.272,6.069,7.115,3.749l5.678-3.424v-10.677l-.2.123.2-4.262v-5.145l-6.448,2.777Z"/><path class="g" d="M-2164.971,3027.4c0,5.042,1.266,9.019,3.437,11.823a15.275,15.275,0,0,0-.185,2.166c0,4.653,2.4,7.275,5.876,7.168a9.7,9.7,0,0,0,4.511-1.428,15.565,15.565,0,0,0,2.115-1.5,21.055,21.055,0,0,0,1.937-1.833c.172-.184.349-.36.517-.551a27.741,27.741,0,0,0,5.819-2.332V3037.6l-.331.429c-.265.347-.609.524-.856.443s-.349-.4-.251-.8l1.438-5.917v-45.625C-2154.308,2994.456-2164.971,3012.645-2164.971,3027.4Zm22.539-.323c.247,3.985-2.989,9.476-7.234,12.265s-7.884,1.822-8.132-2.163,5.082-12.9,9.324-15.693S-2142.68,3023.092-2142.432,3027.077Z"/><path class="e" d="M-2157.8,3037.179c.248,3.985,3.889,4.955,8.132,2.163s7.481-8.28,7.234-12.265-1.8-8.381-6.042-5.591S-2158.045,3033.2-2157.8,3037.179Z"/><path class="e" d="M-2142.382,3037.669c-.1.4,0,.723.251.8s.591-.1.856-.443l.331-.429v-5.849Z"/><path class="h" d="M-2269.151,2846.506l5.963-7.187A46.943,46.943,0,0,0-2269.151,2846.506Z"/><path class="h" d="M-2140.944,2908.329v-61.483l-128.21-.336c-9.673,14.467-7.491,30.965,6.567,44.509a68.511,68.511,0,0,0,13.326,9.86C-2219.87,2917.847-2174.9,2920.322-2140.944,2908.329Z"/><path class="h" d="M-2140.944,2846.846v-44.033l-45.959-55.448-76.285,91.954-5.963,7.187,0,0h0Z"/><path class="e" d="M-2347.13,3182.146l0-184.11,15.358-8.866V3006.9l15.36-8.867V2980.3l15.358-8.866v17.732l15.358-8.866v-17.735l15.358-8.866,0,184.11Z"/><path class="f" d="M-2315.8,3058.82l14.135-8.162v-23.041c0-4.285-3.133-5.948-7-3.717l-.141.081c-3.863,2.231-7,7.512-7,11.8Z"/><path class="e" d="M-2270.344,3137.811l0-184.11,15.36,8.866,0,17.735,15.36,8.866v-17.732l15.358,8.866v17.733l15.357,8.867V2989.17l15.358,8.866v184.11Z"/><path class="f" d="M-2239.014,3050.658l14.137,8.162v-23.042c0-4.285-3.134-9.566-7-11.8l-.14-.081c-3.866-2.231-7-.568-7,3.717Z"/><path class="i" d="M-2270.339,3226.48l0-184.11,15.36-8.866v17.732l15.358-8.866v-17.733l15.358-8.869V3033.5l15.357-8.866V3006.9l15.358-8.867,0,184.11Z"/><path class="d" d="M-2347.135,3182.146l0-184.11,15.358,8.867v17.735l15.36,8.866v-17.736l15.358,8.869v17.733l15.358,8.866V3033.5l15.358,8.866,0,184.11Z"/><path class="f" d="M-2315.8,3094.993l14.137,8.162V3080.11c0-4.282-3.133-9.563-7-11.8l-.142-.08c-3.863-2.231-7-.569-7,3.714Z"/><path class="e" d="M-2224.266,3015.771l15.357,8.867V3006.9l-15.357-8.867Z"/><path class="e" d="M-2254.981,3033.476l15.358,8.867v-17.735l-15.358-8.867Z"/><path class="j" d="M-2224.266,2998.036l15.357-8.866,15.358,8.866-15.358,8.867Z"/><path class="j" d="M-2254.981,3015.741l15.358-8.866,15.358,8.866-15.358,8.867Z"/><path class="j" d="M-2285.7,3033.5l15.358-8.866,15.36,8.866-15.36,8.866Z"/><path class="j" d="M-2254.981,3033.476l15.358,8.867-15.36,8.866Z"/><path class="j" d="M-2224.266,3015.741l15.357,8.867-15.357,8.868Z"/><path class="i" d="M-2316.415,3015.771l-15.36,8.867V3006.9l15.36-8.867Z"/><path class="j" d="M-2316.415,2998.036l-15.36-8.866-15.358,8.866,15.358,8.867Z"/><path class="j" d="M-2285.7,3015.741l-15.358-8.866-15.358,8.866,15.358,8.867Z"/><path class="j" d="M-2285.7,2980.3l-15.358,8.866-15.36-8.866,15.36-8.866Z"/><path class="j" d="M-2254.984,2962.54l-15.357,8.866-15.358-8.866,15.358-8.867Z"/><path class="j" d="M-2254.984,2980.3l15.36,8.866,15.358-8.866-15.358-8.866Z"/><path class="j" d="M-2285.7,3033.476l-15.358,8.867,15.358,8.866Z"/><path class="j" d="M-2316.415,3015.741l-15.36,8.867,15.36,8.868Z"/><path class="i" d="M-2316.415,3015.771l-15.36,8.867V3006.9l15.36-8.867Z"/><path class="i" d="M-2285.7,3033.476l-15.358,8.867v-17.735l15.358-8.867Z"/><g class="k"><g class="l"><path class="m" d="M-2219.9,3103.873c-1.524,3.737-3.032,7.545-4.6,11.126-.095.216-.256,1.561-.488,1.66-.145.062-.319-.37-.523-1.885-.256-1.893-1.166,0-1.779-1.832-.027-.078-.049-.109-.067-.1-.131.056-.087,2.034-.251,2.618a18.139,18.139,0,0,1-2.607,6.1,5.973,5.973,0,0,1-2.247,1.887,4.2,4.2,0,0,1-2.073.278c-1.465-.136-2.566-1.117-3.649-3.952-.26-.683-.408-1.064-.541-1.008-.1.044-.2.35-.329.981-.427,2.069-.952,3.061-1.549,3.315-.69.293-1.474-.4-2.309-1.561a13.558,13.558,0,0,0-2.12-2.058l-2.017-1.859a45.772,45.772,0,0,0,11.819,15.152c.285,2.433-1.013,3.106,0,5.374.17.386.741-.643.464,1.252-.061.417-.164.654-.283.705-.152.065-.329-.177-.482-.741-.255-.953-.462-2.03-.8-3.533a207.128,207.128,0,0,1-6.734,21.234,10.88,10.88,0,0,0-.546,5.548c1.8-4.642,3.192-10.341,5.409-13.9-.937,5.791-2.645,8.071-3.795,12.193-2.124,7.59-5.159,11.841-7.34,19.291a10.768,10.768,0,0,0-.129,6.4c1.018,4.563,1.453,6.63,1.9,6.439.384-.164.78-1.97,1.56-5.272,1.925-8.171,3.189-18.035,5.725-24.661.152-.393.25-1.134.423-1.207.068-.029.148.047.247.291a4.913,4.913,0,0,1-.016,2.941c-.213,1-.652.683-.9,1.263-.49,1.157-1.349,2.032-.989,4.7.335,2.541.555,5.13.888,7.638.121.877.165,2.268.556,2.1h0a2.5,2.5,0,0,0,.612-1.667,23.753,23.753,0,0,0-.119-3.832c-.405-3.736-.547-7.084.45-9.536a6.141,6.141,0,0,0,.241-3.381c-.18-1.044-.454-2.334-.036-2.978a.314.314,0,0,1,.128-.126c.309-.131.569,1,.821,1.62,1.437,3.548,2.914,6.905,4.6,8.812.384.438.838.987,1.181.841.306-.13.523-.813.523-2.619,0-2.733.6-6.536-1.168-7.665a11.041,11.041,0,0,1-3.43-4.14c-.956-1.759-1.378-4.418-.439-5.991.746-1.249.1-3.173.356-6.1.283,3.364.578,4.335.883,4.205.231-.1.467-.824.707-1.62,1.048-3.483,2.3-6.347,3.158-10.4.138-.662.258-1,.4-1.063s.315.157.554.613c1.41,2.7,2.98,3.849,4.429,6.1.431.669.776,1.013,1.039.9.368-.156.575-1.206.632-3.51.231,2.11.219,3.626,1.033,4.211,1.154.829,1.208,3.446.66,5.949a25.94,25.94,0,0,1-2.28,6.768c-1.5,2.683-.355,5.768.22,8.388.34,1.561.656,2,.946,1.881.392-.166.737-1.369,1.032-2.249a75.3,75.3,0,0,0,2.552-12.578c.1-.683.151-1.709.418-1.823a.148.148,0,0,1,.13.011c.389.206.471,1.275.465,2.313-.007,1.841.389,2.863.86,3.319,1.263,1.214,1.772,4.112,2.044,7.793a33.816,33.816,0,0,0,.516,3.723c.218,1.11.637,1.389.942,1.26a.321.321,0,0,0,.048-.025c.367-.216.158-1.568.108-2.5-.461-8.829-.461-8.829-3.054-11.022a1.88,1.88,0,0,1-.294-.4,3.6,3.6,0,0,1-.527-2.649c.049-.3.11-.435.179-.464.173-.074.4.518.6.726,3.493,3.588,6.405,11.374,9.62,16.952,1.273,2.21,1.966,3.474,2.353,3.309.47-.2.489-2.507.546-7.787.02-1.717.262-3.442-.646-4.876-2.705-4.285-5.589-5.189-8.339-8.575-2.6-3.2-5.287-5.464-7.8-9.831,2.452.846,4.754,4.776,7.324,7.117-.442-2-.538-3.663-1.178-4.262a62.4,62.4,0,0,1-9.087-11.189c-.347-.521-.78-1.383-1.066-1.261-.232.1-.368.844-.284,2.939.032.763-.095,1.345-.318,1.439-.082.035-.176,0-.28-.106a1.19,1.19,0,0,1-.276-1.22c1.585-3.064-.644-2.979-.423-5.791,2.722-6.973,5.872-14.059,7.891-24.883"/><path class="m" d="M-2240.717,3069.48c-.277.118-.54-.056-.735-2.13-.2-2.1-.135-3.173.315-3.364a.38.38,0,0,1,.117-.03c.487-.052,1.049-.808,1.351,2.161.258,2.557-.221,2.976-.686,3.173l-.031.013a1.764,1.764,0,0,0-.181.095,1.232,1.232,0,0,1-.15.082m-1.147-9.155c-1.213.516-1.056,2.713-.25,11.344.185,1.941.339,3.894.554,5.813.172,1.583.175,4.067.843,3.921a.446.446,0,0,0,.061-.02c.7-.3.288-2.791.1-4.414-.366-3.085-.177-4.2.349-4.425a.665.665,0,0,1,.361-.036c.7.108.821,2.119,1,4.062s.415,3.733.928,3.515a.48.48,0,0,0,.154-.119c.674-.735-.021-2.58-.115-3.877-.246-3.3-1.009-6.076-.855-10.033.114-2.965-.666-5.833-1.636-5.87a3.735,3.735,0,0,0-1.492.139"/><path class="m" d="M-2228.517,3054.039a.9.9,0,0,0-.272.253.961.961,0,0,1-.247.244l-.013.005c-.194.076-.372.146-.537.216-1.93.821-1.858,1.607-.972,11.09.229,2.422.453,4.855.688,7.274.119,1.3.234,2.748.675,2.56l.008,0c.878-.408,1.747-.856,2.615-1.329.265-.147.359-.825.265-2-.123-1.613-.383-1.658-.658-1.541l-.026.012c-.5.237-.994.44-1.481.725a.594.594,0,0,1-.053.028c-.341.145-.554-.416-.705-2.026-.165-1.7-.179-2.833.275-3.026l.021-.008c.038-.013.075-.028.113-.044a5.25,5.25,0,0,0,.485-.254,5.224,5.224,0,0,1,.537-.28l.011-.005c.357-.152.541-.679.349-2.434-.145-1.337-.345-1.384-.547-1.3a.6.6,0,0,0-.067.032.473.473,0,0,1-.1.035l-.048.018a1.208,1.208,0,0,0-.223.132,1.664,1.664,0,0,1-.207.116.319.319,0,0,1-.207.026.181.181,0,0,0-.107.014.872.872,0,0,0-.23.181.932.932,0,0,1-.228.171c-.24.1-.467-.183-.627-2.111-.172-2.036.053-2.413.334-2.533a.951.951,0,0,1,.154-.048,1.026,1.026,0,0,0,.145-.047.468.468,0,0,0,.181-.134.267.267,0,0,1,.11-.083c.033-.014.067-.022.1-.033a.612.612,0,0,0,.1-.029.3.3,0,0,0,.137-.125.344.344,0,0,1,.161-.144.64.64,0,0,1,.189-.039.694.694,0,0,0,.192-.043c.237-.1.4-.465.226-2.119-.134-1.242-.321-1.476-.515-1.394"/><path class="m" d="M-2244.694,3075.855c-.171.073-.358-.066-.447-.482-.431-2.025-.212-4.06-.256-7.311.529,3.028,1.112,4.643,1.055,6.937-.01.468-.172.779-.352.856m-1.115-13.127c-.3.129-.567,1-.564,2.4.007,5.329.079,10.726.138,16.11.013,1.048-.006,2.436.43,2.682a.194.194,0,0,0,.183.025c.187-.079.315-.529.384-1.474.182-2.366.45-3.626.827-3.786s.847.755,1.449,2.731c.226.753.405.957.582.882a.541.541,0,0,0,.2-.188,3.892,3.892,0,0,0,.042-1.993c-.985-5.405-1.937-10.893-2.971-16.174-.186-.951-.457-1.32-.7-1.216"/><path class="m" d="M-2224.86,3062.464c-.489.209-.667-1.309-.8-3.178-.3-2.217-.1-3.024.324-3.2a.529.529,0,0,1,.153-.037c.5-.03.978.075,1.185,2.886.21,2.75-.268,2.988-.716,3.428a.463.463,0,0,1-.145.1m-1.268-9.951c-1.052.448-.929,2.373-.242,9.758.037.329.066.645.1.977v-.009q.389,4.132.777,8.254c.116,1.228.26,2.185.637,2.034l.006,0c.336-.143.48-.869.3-2.2-.682-4.918-.129-5.908.82-6.312l.068-.027.011-.005c.918-.391.926-3.677.642-6.908-.3-3.412-.9-5.629-1.837-5.672a3.073,3.073,0,0,0-1.276.111"/><path class="m" d="M-2236.314,3057.732a2.154,2.154,0,0,0-.865,1.139c-.887,1.982-.859,5.974-.469,10.346.413,4.578,1.116,8.43,2.329,9.423a.877.877,0,0,0,.9.234c.61-.259,1.089-1.537,1.27-4.359a8.724,8.724,0,0,0-.168-3.484c-.145-.334-.281-.475-.4-.425-.188.079-.327.648-.378,1.7-.09,1.973-.326,3.035-.679,3.186-.249.1-.556-.241-.912-1.042-.833-1.88-1.461-8.386-1.082-11.153.176-1.289.411-2.028.69-2.147.315-.134.687.517,1.1,2.051.24.9.48,1.254.668,1.174.121-.051.221-.288.283-.681a7.891,7.891,0,0,0-.547-3.6c-.611-1.973-1.2-2.6-1.744-2.367"/><path class="m" d="M-2249.166,3064.566c-.082.035-.161.1-.239.136-2.362,1.065-2.362,1.065-1.437,10.905.179,1.951.334,3.921.554,5.829.2,1.686.158,4.558.9,4.294l.021-.008c.724-.308.178-2.888.1-4.607s-.6-3.884.152-4.56a.362.362,0,0,1,.094-.059.984.984,0,0,1,.41-.034.936.936,0,0,0,.417-.037c.3-.127.5-.6.356-2.216-.16-1.758-.386-2.121-.638-2.014a1.365,1.365,0,0,0-.4.412,1.335,1.335,0,0,1-.4.413.179.179,0,0,1-.191-.022c-.3-.219-.541-.021-.694-1.612-.141-1.467-.179-2.633.223-2.89.378-.247.762-.376,1.131-.663.274-.219.7.038.548-1.924-.118-1.49-.323-1.568-.531-1.48-.029.012-.057.028-.086.043a1.041,1.041,0,0,1-.095.049.2.2,0,0,1-.087.02.3.3,0,0,0-.1.025"/><path class="m" d="M-2231.638,3066.85a.9.9,0,0,0-.267.252.8.8,0,0,1-.245.236.131.131,0,0,1-.027.009c-.125.026-.294-.053-.437.007-.224.1-.382.534-.2,2.256.156,1.529.355,1.714.558,1.627a.81.81,0,0,0,.157-.1.763.763,0,0,1,.164-.113.163.163,0,0,1,.153,0,.47.47,0,0,1,.235-.178l.052-.022.058-.024c.27-.115.514-.332.362-2.088-.145-1.652-.351-1.955-.564-1.865"/></g></g><path class="n" d="M-2340.939,3227.679c9.192,5.307,24.142,5.28,33.392-.061s19.534-19.247,10.342-24.554-24.143-5.28-33.393.061S-2350.132,3222.371-2340.939,3227.679Z"/><path class="o" d="M-2313.417,3198.883c-.332-.059-2.927-.151-3.649,1.488a13.136,13.136,0,0,0-1.033,4.091c0,.542,1.771,1.1,1.771,1.1l3.36-.2,3.5-1.54Z"/><path class="o" d="M-2327.389,3215.467s3.166,3.626,3.212,4.3-1.084,2.745-1.612,2.834-4.093,1.1-4.675,1.671a38,38,0,0,1-3.237,3.33,8.858,8.858,0,0,1-3.611,1.153c-.958-.043-2.409-2.054-1.982-3.144s4.615-3.81,4.615-3.81l2.424-1.708.974-2.676Z"/><path class="p" d="M-2327.389,3214.326s3.166,3.626,3.212,4.3-1.084,2.744-1.612,2.834-4.093,1.1-4.675,1.671a37.728,37.728,0,0,1-3.237,3.33,8.824,8.824,0,0,1-3.611,1.152c-.958-.041-2.409-2.053-1.982-3.143s4.615-3.81,4.615-3.81l2.424-1.708.974-2.676Z"/><path class="p" d="M-2313.417,3197.742c-.332-.059-2.927-.151-3.649,1.488a13.137,13.137,0,0,0-1.033,4.091c0,.543,1.771,1.1,1.771,1.1l3.36-.205,3.5-1.54Z"/><path class="q" d="M-2325.865,3216.581a3.722,3.722,0,0,1-2.746,3.043,3.969,3.969,0,0,1-3.644-.675l-6.074-12.351-4.21-8.23,12.289,2.274,2.156,7.556Z"/><path class="r" d="M-2319.165,3193.112s2.967,8.734,3.421,9.811-.386,11-.052,12.57-.1,3.615,2.934,4.394,6.526-1.848,7.173-2.84,2.753-11.047,3.3-12.638,2.041-8.025,2.636-10.941.495-5.86-.556-6.884-9.506-2.178-10.231-1.581S-2319.165,3193.112-2319.165,3193.112Z"/><g class="s"><path class="t" d="M-2311.063,3189.253a3.455,3.455,0,0,0-.138,1.973c.112.662.311,1.29.379,1.966a.829.829,0,0,1-.013.319.312.312,0,0,1-.317.22,1.573,1.573,0,0,1-1.336-1.151c-.27-.689-.349-1.642-.809-2.013-.3-.242-.755-.245-.844-.752a4.61,4.61,0,0,1,.618-2.045c.567-.534,1.093-1.028,1.551-1.455a1.861,1.861,0,0,1,1.247,2.312A5.934,5.934,0,0,1-2311.063,3189.253Z"/><path class="t" d="M-2313.323,3209.186a4.035,4.035,0,0,1-2.405-.1c.077-1.933.145-3.827.11-5.018a.746.746,0,0,0,.193.288.682.682,0,0,0,.514.1,1.8,1.8,0,0,1,1.625.6,3.742,3.742,0,0,0-.5,1.691,2.315,2.315,0,0,1,.9,1.607A.923.923,0,0,1-2313.323,3209.186Z"/><path class="t" d="M-2315.865,3213.042a2.261,2.261,0,0,1,2.735.506,1.03,1.03,0,0,1,.269.384,3.321,3.321,0,0,1,.1.571,7.17,7.17,0,0,0,.4,1.216,2.1,2.1,0,0,1,.083,1.306,2.819,2.819,0,0,0-1.686.246,1.169,1.169,0,0,1-.51.169,1.368,1.368,0,0,1-.668-.361,3.707,3.707,0,0,0-.476-.291c-.058-.443-.093-.885-.18-1.3A14.669,14.669,0,0,1-2315.865,3213.042Z"/><path class="t" d="M-2308.347,3194.277a1.849,1.849,0,0,0,.181-1.475c-.361-.988-.793-1.332-.6-2.626a2.139,2.139,0,0,1,.784-1.577c.636-.386,2.925.158,3.1,1.289.081.52-.317.877-.512,1.317a4.35,4.35,0,0,0-.031,2.24,16.826,16.826,0,0,1,.136,3.249,1.937,1.937,0,0,1-.117.656.758.758,0,0,1-.559.427c-1.231.306-2.458-.449-3.61-1.189a.787.787,0,0,1-.39-.462.941.941,0,0,1,.178-.787,1.3,1.3,0,0,1,.533-.334A1.852,1.852,0,0,0-2308.347,3194.277Z"/><path class="t" d="M-2317.161,3195.245a7.473,7.473,0,0,0-.088-1.875,1.9,1.9,0,0,1,.907-1.749c.563-.256.917.232,1.365.721a9.119,9.119,0,0,1,2.391,4.236.906.906,0,0,1,.026.376.474.474,0,0,1-.188.283,2.734,2.734,0,0,1-1.018.344,1.141,1.141,0,0,0-.813.894c-.132.669.194,1.586-.169,2a.539.539,0,0,1-.368.162,3.105,3.105,0,0,1-1.538-.222c-.452-1.291-.988-2.846-1.451-4.2A1.425,1.425,0,0,0-2317.161,3195.245Z"/><path class="t" d="M-2308.141,3209.312c.777.274,1.674,2.084,2.165,2.975a8.234,8.234,0,0,0-3.084,2.775.752.752,0,0,1-.212.266.361.361,0,0,1-.19.037,1.565,1.565,0,0,1-1.6-1.265,2.615,2.615,0,0,1,.219-1.637,2.838,2.838,0,0,1,.888-1.03,4.306,4.306,0,0,1,.87-.512c.524-.228.53-.421.636-1.115C-2308.363,3209.225-2308.7,3209.115-2308.141,3209.312Z"/><path class="t" d="M-2300.163,3195.385c-.192.874-.412,1.847-.64,2.826-.691.306-1.3.427-1.865-.356a3.857,3.857,0,0,1-1-2.937c.135-.662.49-1.159.646-1.815.173-.724.118-1.106.741-1.089l.738.019a.8.8,0,0,1,.68.261c.421.548.1,1.679.352,2.435a3.515,3.515,0,0,0,.328.62C-2300.173,3195.36-2300.169,3195.373-2300.163,3195.385Z"/><path class="t" d="M-2308.5,3200.644a1.214,1.214,0,0,1,.739.238,1.191,1.191,0,0,1,.38.95,1.213,1.213,0,0,1-.426.849c-.212.177-.449.266-.667.427a.655.655,0,0,0-.284.451.808.808,0,0,0,.459.758.786.786,0,0,1,.415.792.613.613,0,0,1-.211.332,1.737,1.737,0,0,1-1.215.4,7.323,7.323,0,0,1-2.172-.465.942.942,0,0,1-.745-.772,2.216,2.216,0,0,1,.333-1.171c.37-.835.174-1.837.791-2.332A3.934,3.934,0,0,1-2308.5,3200.644Z"/><path class="t" d="M-2303.711,3206.171a1.616,1.616,0,0,0-.507.6,2.914,2.914,0,0,0-.108.891,5.655,5.655,0,0,1-.6,2.346c-.062.117-.142.238-.239.23-.069-.006-.128-.078-.18-.149a5.265,5.265,0,0,1-.891-2.872c-.038-.841-.234-2.06.245-2.6a3.351,3.351,0,0,1,.818-.686,1.1,1.1,0,0,0,.422-.338,6.191,6.191,0,0,1,.289-.561c.108-.128.264-.178.325-.367a.825.825,0,0,0,.019-.326,5.763,5.763,0,0,0-.38-1.333,2.65,2.65,0,0,1-.157-1.4,1.835,1.835,0,0,1,1.557.756,14.2,14.2,0,0,1,1.312,1.885c-.246.957-.461,1.734-.607,2.159-.013.039-.031.1-.046.153C-2302.884,3205.02-2303.244,3205.732-2303.711,3206.171Z"/><path class="t" d="M-2305.358,3216.054l.049-.017a5.157,5.157,0,0,1-.38,1.01,2.7,2.7,0,0,1-.283.344A1.211,1.211,0,0,1-2305.358,3216.054Z"/></g><path class="u" d="M-2315.13,3194.468l-7.436,4.242-9.042,3.152-9.74-1.636s-2.472-3.2-1.6-4.256a14.54,14.54,0,0,1,6.741-3.64c2.76-.543,15.517-3.4,15.517-3.4S-2314.664,3194.2-2315.13,3194.468Z"/><path class="r" d="M-2333.151,3169.911s-2.207,1.4-3.9,7.176-2.018,13.794-2.054,14.117,1.166,3.424,2.752,3.7,1.579.435,3.407-2.646,2.459-6.582,2.192-8.166.043-11.55-.127-11.748S-2333.151,3169.911-2333.151,3169.911Z"/><path class="v" d="M-2329.655,3167.293a7,7,0,0,1,5.138.4c2.666,1.315,16.166,7.819,16.754,8.354s5.859,5.484,6.943,8.424a8.975,8.975,0,0,1-1.9,9.374,15.038,15.038,0,0,1-8.71,4.095c-1.8.167-11.356-2.293-12.208-3.055s-5.081-4.891-5.9-6.563a95.772,95.772,0,0,1-3.8-8.82c-.23-1.092-2.405-6.474-.934-8.488A16.656,16.656,0,0,1-2329.655,3167.293Z"/><g class="s"><path class="t" d="M-2311.494,3182.95c.906.291,2.347,2.211,3.11,3.156a6.114,6.114,0,0,0-2.567,2.944.575.575,0,0,1-.156.283.343.343,0,0,1-.194.039,2.267,2.267,0,0,1-2.053-1.343,2.73,2.73,0,0,1-.2-1.736,2.131,2.131,0,0,1,.678-1.093,3.334,3.334,0,0,1,.8-.543c.5-.242.456-.447.385-1.183C-2311.755,3182.858-2312.147,3182.741-2311.494,3182.95Z"/><path class="t" d="M-2320.635,3170.5a.884.884,0,0,0-.632.949c.035.709.628,1.683.348,2.119a.44.44,0,0,1-.351.171c-1.456.178-3.225-.737-4.681-2.422a2.337,2.337,0,0,1-.4-.585,1.187,1.187,0,0,1,.494-1.574c.427-.219.963-.413.965-1.136a2.057,2.057,0,0,0-.076-.511c.15.061.3.1.45.18.829.409,2.706,1.32,4.917,2.4a.45.45,0,0,1-.035.047A2.332,2.332,0,0,1-2320.635,3170.5Z"/><path class="t" d="M-2328.4,3179.011a3.93,3.93,0,0,1,2.86,1.231c1.061,1.143,2.09,2.367,3.127,3.591a.722.722,0,0,1,.194.361.325.325,0,0,1-.056.2,2.363,2.363,0,0,1-.572.679.889.889,0,0,0-.418.53c-.1.47.242,1.123.31,1.687a.994.994,0,0,1-.628,1.192,2.1,2.1,0,0,1-1.342-.36,7.341,7.341,0,0,0-1.377-.679,1.263,1.263,0,0,1-.75-.376,1.713,1.713,0,0,1-.259-1.4,2.408,2.408,0,0,1,.934-1.6.473.473,0,0,0,.214-.337,1.516,1.516,0,0,0-.424-.932C-2327.111,3182.143-2330.118,3178.943-2328.4,3179.011Z"/><path class="t" d="M-2316.116,3178.773a1.405,1.405,0,0,1-1-.819,2.072,2.072,0,0,1,.045-1.243c.175-.886-.3-1.949.227-2.474.6-.593,1.838-.534,2.668-.484a1.6,1.6,0,0,1,.855.253,1.68,1.68,0,0,1,.659,1.008,1.01,1.01,0,0,1-.231.9c-.179.188-.41.283-.6.453a.523.523,0,0,0-.185.479,1.186,1.186,0,0,0,.693.8,1.131,1.131,0,0,1,.655.84.482.482,0,0,1-.138.351,1.509,1.509,0,0,1-1.2.424A9.146,9.146,0,0,1-2316.116,3178.773Z"/><path class="t" d="M-2313.293,3197.72a2.577,2.577,0,0,1-.717-1.482c-.1-1.269,1.393-1.408,2.061-1.549,1.33-.281,2.688-.485,4.031-.728a2,2,0,0,0,.566,1.7,2.589,2.589,0,0,0,1.215.671,16.2,16.2,0,0,1-5.3,1.61,8.476,8.476,0,0,1-1.788-.166C-2313.245,3197.753-2313.27,3197.743-2313.293,3197.72Z"/><path class="t" d="M-2316.567,3197.084c-1.985-.468-4.069-1.041-5.474-1.515a2.371,2.371,0,0,0-.39-1.379,1.163,1.163,0,0,1-.225-.492c-.035-.537,1.916-.707,2.328-.869.89-.352,2.2.322,3.243.675a1.073,1.073,0,0,1,.767.807c.029.285-.143.417-.262.577a2.571,2.571,0,0,0-.044,2.06C-2316.61,3197-2316.583,3197.038-2316.567,3197.084Z"/><path class="t" d="M-2315.615,3191.4a1.011,1.011,0,0,1-.5.179,1.98,1.98,0,0,1-.812-.383c-1.262-.776-2.55-.8-3.777-1.85-.329-.281-.71-.858-.579-1.21.064-.174.233-.194.389-.2a14.333,14.333,0,0,1,2.235.1,2.659,2.659,0,0,0-.494-.994c1.191-.4,1.96-.755,3.442.41a1.567,1.567,0,0,1,.389.408,4.1,4.1,0,0,1,.263.606,10.189,10.189,0,0,0,.749,1.289,2.512,2.512,0,0,1,.436,1.386A2.737,2.737,0,0,0-2315.615,3191.4Z"/><path class="t" d="M-2303.209,3192.713c-1.085-.639-2.075-.235-3.155-.626a1.188,1.188,0,0,1-.624-.469,1.069,1.069,0,0,1,.266-1.515c.926-.39,1.426-.222,1.377-1.9a5.3,5.3,0,0,1,.943-3.031,2.556,2.556,0,0,1,.944-1.086,1.23,1.23,0,0,1,1.423.325,2.353,2.353,0,0,1,.678,1.944c-.07.255-.227.414-.309.656a2.735,2.735,0,0,0,.185,1.676,13.134,13.134,0,0,0,.828,1.641,9.142,9.142,0,0,1-1.69,3.051A6.155,6.155,0,0,0-2303.209,3192.713Z"/><path class="t" d="M-2321.982,3178.654a9.265,9.265,0,0,0-1.066-.76c-2.881-1.758-.058-4.657,1.562-1.668.281.517.482,1.2.874,1.463a.828.828,0,0,0,.576.1,2.407,2.407,0,0,1,1.9.642,3.483,3.483,0,0,0-.09,1.794,3.426,3.426,0,0,1,1.386,1.706.77.77,0,0,1-.239.882,4.548,4.548,0,0,1-2.715-.146,1.966,1.966,0,0,1-1.149-1.574c-.1-.419-.153-.876-.252-1.331A2.108,2.108,0,0,0-2321.982,3178.654Z"/><path class="t" d="M-2309.173,3175.257a12.857,12.857,0,0,1,1.41.791c.175.158.768.713,1.537,1.483-.015.008-.033.016-.048.025-.636.351-.81,1.457-1.309,2.061a1.22,1.22,0,0,0-.382.641,3.051,3.051,0,0,0,.12.944,5.385,5.385,0,0,1-.016,2.489c-.036.124-.089.253-.195.244a.453.453,0,0,1-.232-.158,7.256,7.256,0,0,1-1.718-3.047c-.263-.892-.8-2.185-.428-2.758a2.51,2.51,0,0,1,.7-.727.815.815,0,0,0,.362-.359,4.954,4.954,0,0,1,.161-.595c.081-.136.235-.189.251-.389a.915.915,0,0,0-.067-.347C-2309.069,3175.45-2309.127,3175.357-2309.173,3175.257Z"/></g><path class="w" d="M-2331.576,3177.556l2.3,3.6,1.659-4.67-1.511-.264-2.027.2Z"/><path class="x" d="M-2325.438,3169.42s-.075,3.769-1.406,5.189a5.066,5.066,0,0,1-2.284,1.617l1.127,2.326a12.813,12.813,0,0,0,4.041-3.624c1.23-2.043.07-5.237.07-5.237l-1.867-1.45Z"/><path class="x" d="M-2332.893,3172.777s1.417,3.281,2.307,3.515a16.451,16.451,0,0,1-.71,2.435,10.582,10.582,0,0,1-2.006-2.651,31.643,31.643,0,0,1-.369-4.877l.231.057Z"/><path class="r" d="M-2337.246,3187.935s-3.256-.3-3.881-.348-3.227,1.532-3.2,3.184.6,2.549,2.916,3.2,7.234-.335,7.415-.6A3.851,3.851,0,0,0-2337.246,3187.935Z"/><path class="y" d="M-2341.456,3191.6c-.533.862-.84.913-.84.913l-.912-.028-.494-.788,0,0a3.838,3.838,0,0,1-1.3.513c-.411-.018-.757-.043-.757-.043l-1.433-1.152-.251-.585s-.58-.41-.62-.555c-.016-.06-.053-.266-.091-.49-.055-.344-.116-.733-.116-.733l.574-1.335,1.593-1.323,1.611-.3,1.245,1.743.769.633,1.227,1.235A3.646,3.646,0,0,1-2341.456,3191.6Z"/><path class="z" d="M-2353.893,3193.5l.194,3.173-.654,5.117.793.843,4.8-8.051-.068-2.99Z"/><path class="aa" d="M-2357.2,3187.893s.328,3.6.424,3.6a2.769,2.769,0,0,1,.616-.3c.37-.164.78-.328.78-.328l1.014.164.041.616.15,2.081.767.726,8.913-5.162.6.835,2.163,3,.151-.124,3.367-2.833.069-.055s-1.041-.794-2.109-1.766a.048.048,0,0,1-.027-.014c-1.068-.958-2.135-2.095-2.163-2.779-.068-1.383,2.519-2.684,2.519-2.684l.493-.985.479-.3.356.506.233.342.37.521a1.954,1.954,0,0,1,.191-.1c.466-.247,1.643-.89,2.355-1.314a5.47,5.47,0,0,1,2.779-.151,15.158,15.158,0,0,1-.684-1.889c-.055-.3-.274-.945-.521-1.753-.082-.274-.178-.575-.26-.89-.013-.068-.041-.123-.055-.191v-.014c-.095-.329-.177-.671-.26-1.027l-5.49,3.122-1.533.739-1.451-.274-12.623,7.078-.232.548Z"/><path class="aa" d="M-2343.974,3178.1l-.021-.022s-.87-.656-1.267-.555l-9.22,5.508a21.817,21.817,0,0,0-.994,2.091c.011.2.065,1.337.065,1.337l.722-.394,0-.012,2.434-1.374a.334.334,0,0,1,.076-.041c.111-.056.308-.176.575-.325.285-.157.628-.347,1.012-.563l.61-.339c.535-.3,1.106-.612,1.663-.93l.673-.384c.222-.111.437-.239.646-.354l.593-.332c.093-.048.179-.113.272-.161l.477-.265c.437-.238.722-.4.762-.421l2.238-1.254Zm-1.592,2.213c-.214.127-7.358,4.115-7.358,4.115l-.036.014a1.008,1.008,0,0,1,.549-.971c.269-.19,6.006-3.443,7.17-4.088C-2345.169,3179.951-2345.343,3180.2-2345.566,3180.315Z"/><path class="ab" d="M-2356.431,3188.632s.137,1.506.274,2.56a5.257,5.257,0,0,0,.151,1.027,12.853,12.853,0,0,1,1.4-.616l.288.041.739.11.178,2.7,5.654-2.122,3.861-2.205.164-.1,2.15,2.971.616.863,3.587-3.026s-.343-.26-.836-.67a20.789,20.789,0,0,1-2.04-1.821.048.048,0,0,1-.027-.014,4.23,4.23,0,0,1-1.4-2.054c-.055-1.382,2.519-2.669,2.519-2.669l.493-.986.3-.192.178-.123.383.548.575.821s1.657-.876,2.547-1.4a4.362,4.362,0,0,1,2.3-.206c-.1-.232-.192-.465-.288-.684a15.158,15.158,0,0,1-.684-1.889c-.055-.3-.274-.945-.521-1.753-.082-.274-.178-.575-.26-.89-.013-.068-.041-.123-.055-.191l-4.983,2.82-1.52.739-1.136-.178-12.622,7.065-.247.561Z"/><path class="ac" d="M-2343.788,3178.157a1.676,1.676,0,0,0-.186-.055,1.125,1.125,0,0,0-.662-.054l-9.083,5.422a18.569,18.569,0,0,0-.988,2.079c0,.069.008.279.022.506l0,.012c.008.39.032.855.032.855l12.623-7.074Zm-8.623,5.316c.269-.19,6.006-3.443,7.17-4.088.072.566-.1.819-.325.93-.214.127-7.358,4.115-7.358,4.115l-.036.014A1.008,1.008,0,0,1-2352.411,3183.473Z"/><path class="aa" d="M-2344.892,3180.566c-.04.026-.325.183-.762.421-.151.082-.308.176-.477.265-.093.048-.179.113-.272.161-.192.108-.4.212-.593.332s-.424.243-.646.354-.446.262-.673.384c-.557.318-1.128.631-1.663.93-.209.115-.419.231-.61.339-.384.216-.727.406-1.012.563-.267.149-.464.269-.575.325a.334.334,0,0,0-.076.041s-.686.38-.71-.2c0-.012,0-.029,0-.041l.036-.014s7.144-3.988,7.358-4.115c.223-.111.4-.364.325-.93.12-.08.2-.121.2-.121s.382-.286.47.314S-2344.683,3180.45-2344.892,3180.566Z"/><path class="ad" d="M-2353.1,3194.342l.193,3.173-.654,5.117,4.7-1.326.884-5.882-.068-2.989Z"/><path class="aa" d="M-2344.621,3189.778a1.8,1.8,0,0,1-.761.906l-1.695.972c-.482.277-.936.149-1.074-.29a.508.508,0,0,1-.039-.167,1.385,1.385,0,0,1,.111-.691,1.793,1.793,0,0,1,.761-.905l1.7-.973a1.354,1.354,0,0,1,.314-.118.616.616,0,0,1,.794.587A1.354,1.354,0,0,1-2344.621,3189.778Z"/><path class="ae" d="M-2345.359,3189.351a1.992,1.992,0,0,1-.77.93l-1.69.96a.909.909,0,0,1-.332.125.508.508,0,0,1-.039-.167,1.385,1.385,0,0,1,.111-.691,1.793,1.793,0,0,1,.761-.905l1.7-.973a1.354,1.354,0,0,1,.314-.118.357.357,0,0,1,.051.172A1.319,1.319,0,0,1-2345.359,3189.351Z"/><path class="af" d="M-2354.768,3189.623l16.16-9.231-.375-.944-16.433,9.387Z"/><path class="q" d="M-2351.56,3195.938s-2.807,4.821-.411,4.678a12.3,12.3,0,0,0,4.959-1.8s-2.223-3.861-3.554-3.647A1.38,1.38,0,0,0-2351.56,3195.938Z"/><path class="y" d="M-2345.132,3196.76s-4.808-.955-4.969-1a7.059,7.059,0,0,1-2.967-.825,14.389,14.389,0,0,0-3.032-1.469l-1.644-.457-2.084.246-1.431,1.521-1.2.957s-.394-.707-.67-.714-.683.957-.506,1.319a9.2,9.2,0,0,0,2.017,1.742l1.548.431a6.634,6.634,0,0,0,1.161.323c.469.061,4.26-.449,4.26-.449a19.862,19.862,0,0,1,2.232.343c.41.149,2.6,1.13,3.451,1.331S-2344.346,3197.43-2345.132,3196.76Z"/><path class="ag" d="M-2368.784,3193.782a5.382,5.382,0,0,0-.18,4.1c.67,1.7,1.776,1.543,1.776,1.543l11.255-6.261a3.2,3.2,0,0,0,1.877-2.572c.211-2.652-3.407-3.6-3.407-3.6Z"/><path class="ab" d="M-2367.582,3197.783l-12.788,7.3-.148-1.244,12.788-7.3Z"/><path class="ab" d="M-2373.061,3195.228l.5,4.237,3.9-2.23-.125-1.052-.859.248-2.4-1.883Z"/><path class="ab" d="M-2382.933,3206.914l2.715-1.551-.229-1.924-2.715,1.55Z"/><path class="aa" d="M-2338.592,3182.088l-.068.534.3-.192.178-.123.383.548.575.821s1.657-.876,2.547-1.4a4.362,4.362,0,0,1,2.3-.206c-.1-.232-.192-.465-.288-.684a15.158,15.158,0,0,1-.684-1.889c-.055-.3-.274-.945-.521-1.753-.082-.274-.178-.575-.26-.89-.013-.068-.041-.123-.055-.191l-4.75,2.71a.479.479,0,0,1-.055.069l.383.944.165.534Z"/><path class="ab" d="M-2338.619,3179.35l.233,1.027,4.517-2.629c-.082-.274-.178-.575-.26-.89Z"/><path class="ah" d="M-2356.59,3196.591s-1.706-.062-2.141-.026a8.13,8.13,0,0,1-2.335-.014c-.356-.186-.677-.656-.3-1.023s1.128-1,1.723-.838a7.328,7.328,0,0,0,1.976-.021s.927-.686,1.181-.667,1.58-.106,2,.21,2.083,1.313,1.869,1.642S-2353.832,3197.242-2356.59,3196.591Z"/><path class="y" d="M-2339.371,3192l-.451,1.383a6.076,6.076,0,0,1-.809.916,5.074,5.074,0,0,1-1.291.505l0,0a3.853,3.853,0,0,1-1.391-.149c-.355-.207-.65-.39-.65-.39l-.735-1.685.049-.635a2.811,2.811,0,0,1-.291-.779c.013-.061.076-.26.146-.476l1.57-.035,1.543.129.263.612a9.025,9.025,0,0,0,.915.147c.045-.025.7-.3.811-.11Z"/><path class="ai" d="M-2325.229,3170.405a7.559,7.559,0,0,0-.5-2.529c-.559-1.705-2.886-6.846-2.886-6.846s-4.5-1.345-7.006-.074a6.3,6.3,0,0,0-3.54,4.773,16.309,16.309,0,0,0,.839,3.966c.16.347,1.722,2.561,1.722,2.561s-.178,1.558.026,1.761a2.188,2.188,0,0,0,.9.29s1.938,2.9,2.07,3.148,1.794.037,2.009-.1,1.963-1.045,1.963-1.045a5.321,5.321,0,0,0,.6.951c.105.017,2.847-3.044,2.847-3.044Z"/><path class="aj" d="M-2328.144,3169.675l-.928.734-.834-1.319s-1.457.214-1.863-.177-2.4-2.974-2.4-2.974l-2.447.787-2.444.039-.636-1.591s.311-3.583,1.079-4.867,3.693-3.067,6.864-2.584,4.982.552,5.968,3.984,1.283,5.589,1.1,6.536a3.355,3.355,0,0,1-.757,1.553s-.665-2.739-1.4-2.479S-2329,3167.442-2328.144,3169.675Z"/><path class="ak" d="M-2327.547,3168.386s-.44-1.19.29-1.394,1.352.693,1.322,1.3.158,1.526-.331,1.846a3.405,3.405,0,0,1-.936.5C-2327.459,3170.714-2327.687,3169.785-2327.547,3168.386Z"/><path class="al" d="M-2350.566,3195.172s10.719-.563,14.445-.988c3.913-.447,4.216-.019,5.421-1.955l.934-1.726c.966-1.765,2.105-4.794,2.429-5.178.491-.581,3.05-9.024,5.732-10.563s5.981.3,6.1.465c0,0,2.213,2.116,2.268,4.053s-2.015,5.228-2.8,6.719-7.233,12.209-11.913,14.645c-.1.052-.182.07-.276.111-.044.023-.074.052-.121.074-3.979,1.853-23.619-.213-23.619-.213a2.88,2.88,0,0,0,2.464-2.248A3.131,3.131,0,0,0-2350.566,3195.172Z"/><path class="am" d="M-2336.166,3165.274c.847-.247,1.654-.615,2.5-.865a44.306,44.306,0,0,1,4.75-.614c1.394-.255,2.339-1.335,3.439-2.133.706-.512,1.622-1.032,1.018-1.951a4.075,4.075,0,0,0-1.829-1.407,14.618,14.618,0,0,0-4.658-.9,10.991,10.991,0,0,0-2.608-.008,8.542,8.542,0,0,0-2.287.769c-2.054.97-5.594,2.758-5.456,5.51.043.865.454,2.255,1.3,2.663.756.365,1.306-.295,1.979-.542C-2337.417,3165.573-2336.782,3165.454-2336.166,3165.274Z"/><path class="an" d="M-2328.708,3164.289a70.693,70.693,0,0,1-7.58,1.724q-.925.157-1.856.29a6.538,6.538,0,0,1-1.955.238c-.736-.167-1.074-1.584-1.078-2.239-.013-2.159.925-3.2,2.98-2.965a13.311,13.311,0,0,1,2.358.663,22.167,22.167,0,0,0,5.672.717,20.024,20.024,0,0,0,3.858-1.083,10.111,10.111,0,0,0,2.067-1.24,2.525,2.525,0,0,1-.489.9A7.231,7.231,0,0,1-2328.708,3164.289Z"/><path class="ao" d="M-2339.763,3163.912a1.982,1.982,0,0,0,2.119.854,1.062,1.062,0,0,0,.421-1.713,1.981,1.981,0,0,0-2.119-.853A1.062,1.062,0,0,0-2339.763,3163.912Z"/><g class="ap"><path class="aq" d="M-2335.063,3200.244a1.2,1.2,0,0,1,1.422-.28c.685.512.723.9,2.175.36a6.34,6.34,0,0,1,3-.278,3.647,3.647,0,0,1,1.032.211c-.367.185-.727.359-1.072.509-.1.045-.186.056-.283.091-.045.02-.078.047-.126.065a18.53,18.53,0,0,1-6.161.526,2,2,0,0,1-.165-.638A.747.747,0,0,1-2335.063,3200.244Z"/><path class="aq" d="M-2317.952,3187.795a4.3,4.3,0,0,1,1.376-2.666c.483-.36.981-.513,1.472-.83-.365.666-.707,1.264-.938,1.7a30.011,30.011,0,0,1-1.795,2.683A1.077,1.077,0,0,1-2317.952,3187.795Z"/><path class="aq" d="M-2343.948,3200.447a3.038,3.038,0,0,1-.451-1.4,1.737,1.737,0,0,1,.18-.985,2.191,2.191,0,0,1,1.029-.938c1.072-.453,1.748.52,2.119.932.74.82,1.422,1.683,2.132,2.523a1.863,1.863,0,0,0-1.274.9l0,.011c-1.175-.095-2.329-.21-3.4-.329A1.616,1.616,0,0,0-2343.948,3200.447Z"/><path class="aq" d="M-2342.194,3194.848a.674.674,0,0,1-.169.117.9.9,0,0,1-.6,0,2.877,2.877,0,0,0-1.816.595,7.6,7.6,0,0,0-1.49,1.4c-.379.443-.94,1.007-1.438,1.011a.48.48,0,0,1-.346-.136.764.764,0,0,1-.2-.342c.01-.382,0-.747-.023-1.073.015-.153.031-.307.034-.452a2.947,2.947,0,0,0-.056-.617C-2347.8,3195.316-2345,3195.13-2342.194,3194.848Z"/><path class="aq" d="M-2315.108,3181.476a4.912,4.912,0,0,0-1.506,1.563,19.141,19.141,0,0,1-2.081,2.373,2.07,2.07,0,0,1-.5.393.608.608,0,0,1-.607-.032c-.914-.519-1.121-1.783-1.3-2.992a.8.8,0,0,1,.082-.559,1,1,0,0,1,.626-.449,1,1,0,0,1,.529.082,1.514,1.514,0,0,0,1.009.028,2.029,2.029,0,0,0,1.084-.933c.448-.913.427-1.413,1.4-2.213a2.1,2.1,0,0,1,1.5-.645c.624.107,1.585,1.857.935,2.761C-2314.236,3181.268-2314.7,3181.283-2315.108,3181.476Z"/><path class="aq" d="M-2338.86,3195.913a2,2,0,0,0-.75-1.193l-.015-.013a25.413,25.413,0,0,0,2.61-.158c.079-.011.14-.026.217-.038a8.229,8.229,0,0,0-.941.8A2.374,2.374,0,0,1-2338.86,3195.913Z"/><path class="aq" d="M-2327.957,3186.856a2.336,2.336,0,0,1,.97-.629c.769-.368,1.321-1.192,2.006-1.173.775.021,1.4.742,1.807,1.231a.948.948,0,0,1,.269.609,1.308,1.308,0,0,1-.412.9,1.19,1.19,0,0,1-.81.345c-.24,0-.436-.08-.668-.1a.622.622,0,0,0-.464.149.844.844,0,0,0-.239.809.838.838,0,0,1-.287.807.586.586,0,0,1-.341.108,1.259,1.259,0,0,1-.968-.443,5.563,5.563,0,0,1-.947-1.625A.911.911,0,0,1-2327.957,3186.856Z"/><path class="aq" d="M-2324.366,3190.588a2.8,2.8,0,0,1,.928.005.9.9,0,0,0,.469.013c.176-.054.371-.193.539-.223.148-.027.271.032.432-.065a.925.925,0,0,0,.228-.219,6.514,6.514,0,0,0,.666-1.167,3.012,3.012,0,0,1,.841-1.083,1.533,1.533,0,0,1,.4,1.462,14.3,14.3,0,0,1-.628,2.5,2.122,2.122,0,0,1-.466.826c-.328.27-.6.117-.845.048-.611-.169-1.547.316-2.276.355a1.428,1.428,0,0,0-.693.124,3.168,3.168,0,0,0-.654.564,6.02,6.02,0,0,1-1.9,1.3c-.114.046-.24.084-.291.02-.036-.045-.023-.131,0-.212a5.925,5.925,0,0,1,1.393-2.559C-2325.7,3191.661-2325,3190.684-2324.366,3190.588Z"/><path class="aq" d="M-2331.176,3194.821c.516-.227.473-.529.533-.022.082.7-1.062,2.269-1.6,3.075a6.841,6.841,0,0,0-3.526-.853.674.674,0,0,1-.3-.021.251.251,0,0,1-.106-.12,1.428,1.428,0,0,1,.411-1.8,2.886,2.886,0,0,1,1.443-.664,2.523,2.523,0,0,1,1.207.13,3.322,3.322,0,0,1,.77.377C-2331.956,3195.185-2331.793,3195.093-2331.176,3194.821Z"/><path class="aq" d="M-2321.4,3176.561a9.833,9.833,0,0,1-1.434,4.416,1.015,1.015,0,0,1-.236.281.443.443,0,0,1-.3.087,1.969,1.969,0,0,1-.817-.365.99.99,0,0,0-1.063.147,4.231,4.231,0,0,0-.627.656c.96-2.359,2.27-5.233,3.656-6.544a1.1,1.1,0,0,1,.507,0C-2321.214,3175.393-2321.334,3175.949-2321.4,3176.561Z"/><path class="aq" d="M-2316.475,3176.476a6.168,6.168,0,0,1-.611.242,3.833,3.833,0,0,0-1.391,1.309c-.375.534-.677,1.095-1.087,1.614a.963.963,0,0,1-.22.217.247.247,0,0,1-.329-.035,1.462,1.462,0,0,1-.007-1.609c.3-.647.89-1.367.87-1.9-.013-.35-.274-.623.013-1.034a4.291,4.291,0,0,1,1.462-.959,7.2,7.2,0,0,1,2.2.856A1.881,1.881,0,0,1-2316.475,3176.476Z"/></g></g></svg>