<svg xmlns="http://www.w3.org/2000/svg" width="118.934" height="371.039" viewBox="0 0 118.934 371.039"><defs><style>.a{fill:none;}.b{fill:#2e2e2d;}.c{fill:#5e5d5d;}.d{fill:#fba11d;}.e{fill:#464544;}.f{fill:#8b8b8a;}.g{fill:#e8e9e9;}.h{fill:#dd1b1e;}</style></defs><g transform="translate(2140.944 -2803.811)"><g transform="translate(-2135.127 2875.439)"><path class="a" d="M-2129.877,2910.746l15.4-8.893-15.4,8.892Z" transform="translate(2135.161 -2875.142)"/><path class="b" d="M-2129.88,2963.92l15.407,8.893v-.028l-15.407-8.893Z" transform="translate(2135.161 -2874.955)"/><path class="b" d="M-2099.164,3059.361h0Z" transform="translate(2135.254 -2874.666)"/><path class="b" d="M-2135.145,2943.117v.027l5.281,3.048v-.027Z" transform="translate(2135.145 -2875.017)"/><path class="b" d="M-2129.862,2910.8h0l-5.281-3.049v23.856l5.281-3.049,15.407,8.893v17.817l15.4-8.9v-53.391l-15.381-8.878-.023.013v17.789l-15.4,8.893Z" transform="translate(2135.145 -2875.196)"/><path class="b" d="M-2053.087,2955.05v.03l15.4-8.893-.026-.015Z" transform="translate(2135.393 -2875.008)"/><path class="b" d="M-2068.447,2946.212l15.406-8.893v-.028l-15.406,8.893Z" transform="translate(2135.347 -2875.035)"/><path class="b" d="M-2083.8,2972.813l15.4-8.893v-.027l-15.4,8.893Z" transform="translate(2135.301 -2874.955)"/><path class="b" d="M-2099.162,2963.92v95.73h0Z" transform="translate(2135.254 -2874.954)"/><path class="b" d="M-2099.162,2892.982h0v53.391h0l15.4,8.9v-17.817l15.4-8.893,15.406,8.893v-35.545l-15.406,8.893-15.4-8.893v-17.789l-.024-.014Z" transform="translate(2135.254 -2875.196)"/><path class="c" d="M-2037.544,2946.237v.031l-15.4,8.892v-17.789l-15.407,8.894v17.789l-15.4,8.893V2955.16l-15.4,8.894,0,95.732v88.936l77.023-44.469,0-184.667-15.4,8.894Zm-30.194,55.671c0-4.3,3.14-9.593,7.018-11.831l.141-.081c3.875-2.238,7.018-.571,7.018,3.725v23.114l-14.178,8.187Zm7.088,99.579v-23.115c0-4.295,3.143-9.592,7.018-11.831l.143-.08c3.877-2.241,7.017-.571,7.017,3.725V3093.3Z" transform="translate(2135.254 -2875.089)"/><path class="d" d="M-2053.655,2993.512c0-4.3-3.144-5.963-7.018-3.725l-.141.081c-3.879,2.238-7.021,7.535-7.018,11.831v23.114l14.178-8.187Z" transform="translate(2135.349 -2874.879)"/><path class="e" d="M-2099.054,2963.983l-15.4-8.894v17.787l-15.406-8.893v-.027h0v-17.764l-5.281-3.048v48.675c2.719,2.642,4.67,6.637,4.67,10.018l0,23.114-4.667-2.7v105.559l36.089,20.836v-88.936h0Z" transform="translate(2135.145 -2875.017)"/><path class="d" d="M-2130.478,3024.8l0-23.114c0-3.381-1.951-7.376-4.67-10.018v30.437Z" transform="translate(2135.145 -2874.87)"/><path class="b" d="M-2037.683,2946.237v-17.759l-15.4-8.893v17.759Z" transform="translate(2135.393 -2875.089)"/><path class="b" d="M-2037.729,2946.188v-.031l-.026.015Z" transform="translate(2135.44 -2875.009)"/><path class="b" d="M-2068.4,2946.212v-.028l-15.4-8.893v17.787l15.4,8.9Z" transform="translate(2135.301 -2875.035)"/><path class="f" d="M-2022.278,2919.612l-15.4-8.893-15.4,8.893,15.4,8.893Z" transform="translate(2135.393 -2875.115)"/><path class="f" d="M-2052.994,2937.317l-15.406-8.893-15.4,8.893,15.4,8.893Z" transform="translate(2135.301 -2875.062)"/><path class="f" d="M-2083.712,2955.08l-15.4-8.9h0l-15.4,8.9,15.4,8.893Z" transform="translate(2135.208 -2875.008)"/><path class="f" d="M-2068.4,2963.919l-15.4-8.9v17.789Z" transform="translate(2135.301 -2874.982)"/><path class="f" d="M-2053.087,2955.077l15.378-8.878.026-.015-15.4-8.893v17.787Z" transform="translate(2135.393 -2875.035)"/><path class="f" d="M-2114.457,2937.317l-15.407-8.893-5.281,3.049v11.689l5.281,3.049Z" transform="translate(2135.145 -2875.062)"/><path class="f" d="M-2135.145,2907.724l5.281,3.049h0l15.4-8.892-15.407-8.9-5.281,3.05Z" transform="translate(2135.145 -2875.169)"/><path class="f" d="M-2099.116,2893.009l15.38-8.879.024-.014-15.4-8.894-15.406,8.894.025.014,15.381,8.878Z" transform="translate(2135.208 -2875.223)"/><path class="f" d="M-2052.994,2901.879l-15.406-8.9-15.4,8.9,15.4,8.893Z" transform="translate(2135.301 -2875.169)"/><path class="f" d="M-2129.88,2963.919h0l15.407,8.893v-17.789Z" transform="translate(2135.161 -2874.982)"/><path class="c" d="M-2114.473,2955.077V2937.29l-15.407,8.893v17.79Z" transform="translate(2135.161 -2875.035)"/><path class="d" d="M-2046.588,3069.746c0-4.3-3.14-5.966-7.017-3.725l-.143.08c-3.875,2.239-7.018,7.536-7.018,11.831v23.115l14.178-8.187Z" transform="translate(2135.37 -2874.649)"/></g><g transform="translate(-2140.944 2803.811)"><path class="e" d="M-2125.09,2901.189a98.041,98.041,0,0,1-15.854,7.258v41.2c2.044.306,3.405,2.141,3.405,5.136v24.951l-3.405,1.966v4.636c.16-.1.318-.2.479-.289,13.9-8.026,25.174-2.216,25.174,12.978a40.425,40.425,0,0,1-2.3,12.759,9.536,9.536,0,0,1,.792,4.027c0,5.3-3.1,11.563-7.356,15.5l1.127,6.684-7.809,4.511-.325-7.551a7.084,7.084,0,0,1-1.243.017v9.726l-7.458,3.016.486-7.322c-.364.228-.725.469-1.093.682-.161.092-.318.167-.479.257v19.593l1.347-.811-.192-9.885,5.992-2.484-.175,8.977,1.635-.986.408-8.564,6.453-3.89-.978,8.9.05,2.614c.086,4.4-2.968,9.856-6.823,12.18l-7.716,4.653v1.648c14.66-7.657,26.344-.425,26.344,16.684V3128.1a27.01,27.01,0,0,1,2.874,11.692V2891.3A68.67,68.67,0,0,1-2125.09,2901.189Z" transform="translate(2140.944 -2803.546)"/><path class="e" d="M-2114.679,3151.294a26.977,26.977,0,0,0,2.882-11.954c0-.087-.007-.173-.008-.261a27.01,27.01,0,0,0-2.874-11.692Z" transform="translate(2141.024 -2802.832)"/><path class="b" d="M-2114.6,3127.562v-38.137c0-17.11-11.684-24.342-26.344-16.684v101.306c2.417-1.092,4.767-2.26,6.992-3.542,9.5-5.48,15.938-12.062,19.352-19.035Z" transform="translate(2140.944 -2803.006)"/><path class="d" d="M-2137.539,2979.557v-24.951c0-3-1.361-4.831-3.405-5.136v32.054Z" transform="translate(2140.944 -2803.37)"/><path class="g" d="M-2131.187,3034.531l.325,7.551,7.809-4.511-1.127-6.684a17.287,17.287,0,0,1-3.062,2.287A9.9,9.9,0,0,1-2131.187,3034.531Z" transform="translate(2140.973 -2803.124)"/><path class="g" d="M-2139.375,3039.957l-.486,7.322,7.458-3.016v-9.726h-.021A44.641,44.641,0,0,1-2139.375,3039.957Z" transform="translate(2140.947 -2803.113)"/><path class="g" d="M-2133.228,3066.52c3.855-2.324,6.909-7.777,6.823-12.18l-.05-2.614.978-8.9-6.453,3.89-.408,8.564-1.635.986.175-8.977-5.992,2.484.192,9.885-1.347.811v10.709Z" transform="translate(2140.944 -2803.088)"/><path class="g" d="M-2140.712,3028.774c.269-1.107,1.437-1.781,1.706-.983l2.276,6.731a1.357,1.357,0,0,1-.251,1.089,1.015,1.015,0,0,1-.855.545l-1.548-.223a1.157,1.157,0,0,0-.951.55l-.61.791v3.78c.161-.089.317-.165.479-.257.368-.213.729-.455,1.093-.682a44.641,44.641,0,0,0,6.951-5.42h.021a7.084,7.084,0,0,0,1.243-.017,9.9,9.9,0,0,0,3.944-1.357,17.287,17.287,0,0,0,3.062-2.287c4.259-3.937,7.356-10.2,7.356-15.5a9.536,9.536,0,0,0-.792-4.027,40.425,40.425,0,0,0,2.3-12.759c0-15.194-11.271-21-25.174-12.978-.16.092-.319.193-.479.289v43.669Zm5.178-3.753c.4-4.416,2.435-10.858,6.675-12.761s9.083,1.451,8.68,5.867-4.166,9.54-8.406,11.442S-2135.937,3029.438-2135.533,3025.021Z" transform="translate(2140.944 -2803.271)"/><path class="b" d="M-2128.6,3029.481c4.241-1.9,8-7.028,8.406-11.442s-4.44-7.771-8.68-5.867-6.273,8.345-6.675,12.761S-2132.841,3031.384-2128.6,3029.481Z" transform="translate(2140.96 -2803.182)"/><path class="b" d="M-2139.383,3035.8l1.548.223a1.015,1.015,0,0,0,.855-.545,1.357,1.357,0,0,0,.251-1.089l-2.276-6.731c-.269-.8-1.437-.124-1.706.983l-.232.954v7.547l.61-.791A1.157,1.157,0,0,1-2139.383,3035.8Z" transform="translate(2140.944 -2803.135)"/><path class="h" d="M-2111.629,2839.178l6.682,8.063A47,47,0,0,0-2111.629,2839.178Z" transform="translate(2141.033 -2803.704)"/><path class="h" d="M-2140.944,2847.128v61.453a98.041,98.041,0,0,0,15.854-7.258,68.67,68.67,0,0,0,13.364-9.886c13.963-13.452,16.245-29.806,6.873-44.214Z" transform="translate(2140.944 -2803.68)"/><path class="h" d="M-2140.943,2847.26l36.09.095h0l-.006-.007-6.682-8.062-29.4-35.474Z" transform="translate(2140.944 -2803.811)"/></g></g></svg>