<svg xmlns="http://www.w3.org/2000/svg" xmlns:xlink="http://www.w3.org/1999/xlink" width="288.119" height="129.615" viewBox="0 0 288.119 129.615"><defs><style>.a{fill:#fec09b;}.b{fill:#5e311b;}.c{fill:#feceb4;}.d{fill:#7f8226;}.e{fill:#22658e;}.f{fill:#1a1a1b;}.g{fill:#58432b;}.h{fill:#bdaaa4;mix-blend-mode:multiply;isolation:isolate;}.i{fill:#4a3a35;}.j{fill:#644c31;}.k{fill:url(#a);}.l{fill:url(#b);}.m{fill:url(#c);}.n{fill:url(#d);}.o{fill:url(#e);}.p{fill:url(#f);}.q{fill:url(#g);}.r{fill:url(#h);}.s{fill:url(#i);}.t{fill:url(#j);}.u{fill:url(#k);}.v{fill:url(#l);}.w{fill:url(#m);}.x{fill:url(#n);}.y{fill:url(#o);}.z{fill:url(#p);}.aa{fill:url(#q);}.ab{fill:url(#r);}.ac{fill:url(#s);}.ad{fill:url(#t);}.ae{fill:url(#u);}.af{fill:url(#v);}.ag{fill:url(#w);}.ah{fill:url(#x);}.ai{fill:url(#y);}.aj{fill:url(#z);}.ak{fill:url(#aa);}.al{fill:url(#ab);}.am{fill:url(#ac);}.an{fill:url(#ad);}.ao{fill:url(#ae);}.ap{fill:url(#af);}.aq{fill:url(#ag);}</style><linearGradient id="a" x1="-8.396" y1="-5.65" x2="-2.473" y2="-15.027" gradientUnits="objectBoundingBox"><stop offset="0" stop-color="#092939"/><stop offset="1" stop-color="#e71a24"/></linearGradient><linearGradient id="b" x1="-4.686" y1="7.572" x2="10.885" y2="-11.982" xlink:href="#a"/><linearGradient id="c" x1="-4.313" y1="13.981" x2="11.517" y2="-23.063" xlink:href="#a"/><linearGradient id="d" x1="-5.54" y1="7.488" x2="10.029" y2="-12.063" xlink:href="#a"/><linearGradient id="e" x1="-5.183" y1="13.825" x2="10.65" y2="-23.224" xlink:href="#a"/><linearGradient id="f" x1="-6.404" y1="7.405" x2="9.168" y2="-12.148" xlink:href="#a"/><linearGradient id="g" x1="-6.06" y1="13.665" x2="9.771" y2="-23.379" xlink:href="#a"/><linearGradient id="h" x1="-7.258" y1="7.321" x2="8.313" y2="-12.23" xlink:href="#a"/><linearGradient id="i" x1="-6.929" y1="13.507" x2="8.903" y2="-23.536" xlink:href="#a"/><linearGradient id="j" x1="-8.096" y1="7.24" x2="7.477" y2="-12.311" xlink:href="#a"/><linearGradient id="k" x1="-7.78" y1="13.354" x2="8.052" y2="-23.693" xlink:href="#a"/><linearGradient id="l" x1="-8.949" y1="7.157" x2="6.621" y2="-12.395" xlink:href="#a"/><linearGradient id="m" x1="-8.649" y1="13.198" x2="7.183" y2="-23.853" xlink:href="#a"/><linearGradient id="n" x1="-9.813" y1="7.073" x2="5.758" y2="-12.479" xlink:href="#a"/><linearGradient id="o" x1="-9.526" y1="13.041" x2="6.305" y2="-24.015" xlink:href="#a"/><linearGradient id="p" x1="-10.669" y1="6.99" x2="4.904" y2="-12.562" xlink:href="#a"/><linearGradient id="q" x1="-10.396" y1="12.877" x2="5.437" y2="-24.16" xlink:href="#a"/><linearGradient id="r" x1="-11.501" y1="6.9" x2="4.07" y2="-12.653" xlink:href="#a"/><linearGradient id="s" x1="-11.243" y1="12.707" x2="4.589" y2="-24.334" xlink:href="#a"/><linearGradient id="t" x1="-12.355" y1="6.817" x2="3.215" y2="-12.736" xlink:href="#a"/><linearGradient id="u" x1="-12.112" y1="12.55" x2="3.72" y2="-24.492" xlink:href="#a"/><linearGradient id="v" x1="-13.22" y1="6.734" x2="2.352" y2="-12.821" xlink:href="#a"/><linearGradient id="w" x1="-12.989" y1="12.394" x2="2.842" y2="-24.656" xlink:href="#a"/><linearGradient id="x" x1="-14.073" y1="6.648" x2="1.497" y2="-12.901" xlink:href="#a"/><linearGradient id="y" x1="-13.859" y1="12.234" x2="1.973" y2="-24.811" xlink:href="#a"/><linearGradient id="z" x1="-14.913" y1="6.568" x2="0.661" y2="-12.983" xlink:href="#a"/><linearGradient id="aa" x1="-14.71" y1="12.081" x2="1.122" y2="-24.965" xlink:href="#a"/><linearGradient id="ab" x1="-15.764" y1="6.485" x2="-0.194" y2="-13.066" xlink:href="#a"/><linearGradient id="ac" x1="-15.578" y1="11.925" x2="0.254" y2="-25.124" xlink:href="#a"/><linearGradient id="ad" x1="-16.628" y1="6.403" x2="-1.057" y2="-13.153" xlink:href="#a"/><linearGradient id="ae" x1="-16.454" y1="11.766" x2="-0.624" y2="-25.283" xlink:href="#a"/><linearGradient id="af" x1="-17.486" y1="6.318" x2="-1.912" y2="-13.234" xlink:href="#a"/><linearGradient id="ag" x1="-17.325" y1="11.608" x2="-1.493" y2="-25.439" xlink:href="#a"/></defs><g transform="translate(-407.157 -557.138)"><g transform="translate(-1 -2329)"><path class="a" d="M566.51,2933.255s-1.347-.884-2.083-.37-1.513-.556-1.513-.556l-2.242-2.8s-1.955.118-2.048-.364-.105-3.442-.105-3.442-1.66-2.745-1.756-3.013a7.277,7.277,0,0,1-.7-3.312c.2-1.325,2.389-5.377,5.694-5.434s7.323,2.52,8.257,3.509a34.093,34.093,0,0,1,2.975,3.267c.495.788.111,2.546-.044,3.414S566.51,2933.255,566.51,2933.255Z" transform="translate(0 -1)"/><path class="b" d="M565.928,2921.118l-.955.332-1.375-.925c-.288-.194-1.678-.835-2.041-1.008a10.271,10.271,0,0,1-1.471-1.8l-.82-.826a15.99,15.99,0,0,0-2.16,2.481c-.121.48-.813,2.05-.813,2.05l-1.344-.392-.936-.775,1.266-1.28.452-2.139a9.217,9.217,0,0,0,1.133-1.948,14.071,14.071,0,0,1,1.881-2.316s3.465-.959,4.158-1.23a7,7,0,0,1,3.185-.8c1.344.1,4.1,2.34,4.1,2.34a16.781,16.781,0,0,1,2.321,2.858c.2.671,1.534,2.447,1.605,2.854s.584,2.36.584,2.36l-1.465.82-1.292-1.024-2.5-1.662s-1.069-1.156-1.519-.986a2.8,2.8,0,0,0-1.351,1.013c-.138.37-.308,1.128-.308,1.128Z" transform="translate(0 -1)"/><path class="c" d="M568.632,2923.032a.834.834,0,0,0,.981-.686,7.217,7.217,0,0,0-.444-2.335s-.155-1.442-.813-1.819-.933-.246-1.036.738-.233,1.392.12,1.884a6.689,6.689,0,0,1,.913,1.774C568.322,2922.761,568.632,2923.032,568.632,2923.032Z" transform="translate(0 -1)"/><path class="c" d="M559.122,2924.5s-.247,3.5-.184,3.755,1.206-.135,1.541-.209.516-.634.516-.634l-1.113-.466-.121-1.66Z" transform="translate(0 -1)"/><path class="c" d="M561.137,2919.891s2.7.748,3.093,1.409.753.9.826,1.1,1.1,1.959,1.235,2.252-1.542,1.552-2.62,1.817l-1.808.446.172-2.026a13.477,13.477,0,0,0,.736-1.723,1.193,1.193,0,0,0-.453-1.074,10.756,10.756,0,0,0-1.889-.712c-.265-.02-1.67.485-1.8.46a4.411,4.411,0,0,1-1.005-1.146c-.046-.2-.4-1.253-.118-1.606s1.288-2.108,1.844-1.606A19.669,19.669,0,0,1,561.137,2919.891Z" transform="translate(0 -1)"/><path class="d" d="M606.446,2925.877a9.86,9.86,0,0,0-1.962-.752c-.729-.129-3.786-.458-3.888-.49s-3.97-.934-4.053-.921-2.062-.716-2.062-.716l-1.157-.964a15,15,0,0,0-3.006,1.191c-.365.391-.619,2.576,1.429,4.2a33.016,33.016,0,0,0,4.7,2.742,28.983,28.983,0,0,0,4.344,2.008,32.662,32.662,0,0,0,3.386.44,32.615,32.615,0,0,0,1.708-3.564C605.911,2928.736,606.446,2925.877,606.446,2925.877Z" transform="translate(0 -1)"/><path class="e" d="M690.237,2958s-3.287-.013-3.705.02-2.146.141-2.5.586a9.2,9.2,0,0,0,0,5.176c.623,1.173,2.315,3.35,2.645,3.834s2.609.658,3.625.145,3.022-4.866,3.062-5.181,0-4.531,0-4.531Z" transform="translate(0 -1)"/><path class="f" d="M688.637,2957.9s-.674-.628.375-.811a19.277,19.277,0,0,1,3.922-.227,5.345,5.345,0,0,1,1.03.183s-.58,6.643-1.312,9.978-1.14,8.207-1.58,9.007-1.664,4.047-2.007,3.894a10.747,10.747,0,0,1-1.476-1.833s.96-4.358.65-5.476-2.229-4.092-2.086-4.9,2.255-1.77,2.863-2.587.282-4.708.282-4.708Z" transform="translate(0 -1)"/><path class="f" d="M693.7,2956.983l.045-.25,1.88.334s1.1.566.443,4.006-1.834,12.658-1.913,13.106-1.443,4.734-1.628,5.255a4.352,4.352,0,0,1-.913,1.5,7.987,7.987,0,0,1-1.341.178l-1.207-1.185s1.729-4.267,1.825-4.8,2.427-12.175,2.476-12.539S693.7,2956.983,693.7,2956.983Z" transform="translate(0 -1)"/><path class="e" d="M650.957,2992.134s3.447.088,4.62.3,5.018,1.123,5.018,1.123a18.048,18.048,0,0,1-3.851,4.382,60.516,60.516,0,0,1-6.8,4.738s-1.728-.306-1.755-.652a16.733,16.733,0,0,0-1.432-3.476c-.256-.162-1.271-.69-1.31-1.174S645.317,2991.246,650.957,2992.134Z" transform="translate(0 -1)"/><path class="f" d="M653.505,2997.769a6.676,6.676,0,0,1-2.25,2.308c-1.51.911-1.994.949-2.471,1.839a12.572,12.572,0,0,0-.992,3.608,21.48,21.48,0,0,1,.025,3.77c-.176,1.231-1.135,2.95-1.143,3.62s1.691,2.385,3.466,2.78,8.855-13.252,9.051-13.751,2.913-7.776,2.913-7.776l-1.562-1.276a28.226,28.226,0,0,1-3.083-.059c-.545-.122-1.319-.383-1.741.137a11.24,11.24,0,0,0-.837,2.2C654.52,2995.985,653.505,2997.769,653.505,2997.769Z" transform="translate(0 -1)"/><path class="d" d="M617.964,2938.668c-.02.02-.079.118-.2.256-1.592,2.122-12.853,17.491-12.853,17.491s-.295-.019-.786-.059-1.2-.1-1.985-.177c-2.044-.176-4.737-.452-6.309-.727-2.791-.511-7.351-2.1-9.3-4.029s-9.925-5.4-11.812-6.466c-1.69-.943-6.525-6.23-8.294-8.706a6.86,6.86,0,0,1-.491-.727c-1.081-1.927-.767-1.887-.452-3.518.334-1.632,2.437-5.405,2.85-6.132.412-.708,3.321-4.521,3.321-4.521s1.277-.609,1.946-.884c.648-.275,3.419.216,3.419.216a33.333,33.333,0,0,0,5.091.295c.963-.02,1.965-.413,2.83-.432a41.9,41.9,0,0,1,8.529,1.533l3.381,3.1s8.431,6.151,9.041,6.407c.353.157,3.3.432,5.66.668,1.493.138,2.751.256,2.908.275a9.263,9.263,0,0,1,1.474,2.083C616.961,2936.329,618.121,2938.491,617.964,2938.668Z" transform="translate(0 -1)"/><path class="g" d="M686.233,2963.112c-.013.072-.118.452-.258.974-.4,1.44-1.125,3.955-1.125,3.955a37.693,37.693,0,0,0-6.706-1.281c-2.168-.015-26.141.2-28.3-.118s-15.259-3.578-18.2-4.345a59.243,59.243,0,0,1-8.152-3.36s-.074.519-.2,1.355v0c-.485,3.373-1.717,11.9-1.789,12.582-.088.846.664,6.36.664,6.36l.475.28c2.25,1.335,11.5,4.478,13.236,5.41,1.968,1.06,15.713,6.359,15.713,6.359s-3.159,3.9-3.851,7.425c-.083.43-.165.816-.24,1.165a15.673,15.673,0,0,1-.827,3.059s-8.895-3.252-10.814-3.648-25.426-10.186-26.752-12.085-4.2-10.008-4.12-17.756c.033-2.929.028-5.107.009-6.685-.03-2.593-.1-3.556-.1-3.556s-.182-.8-.447-1.765c-.065-.24-.137-.5-.21-.75a10.1,10.1,0,0,0-.886-2.32,8.383,8.383,0,0,1-.738-3.229,16.153,16.153,0,0,1,.061-1.738,14.327,14.327,0,0,1,.357-2.235,14.651,14.651,0,0,1,1.676-3.377,30.757,30.757,0,0,1,2.7-3.793,19.425,19.425,0,0,1,2.96-1.969c.815-.469,1.621-.906,2.174-1.166.205-.093.373-.167.495-.208.983-.332,5.856.579,6.513.788s8.151,5.1,8.729,5.481,3.878,3.137,5.038,3.62,11.419,6.465,13.155,7.1a34.063,34.063,0,0,0,6.709,1.518c1.952.206,9.9-.319,12.907.169s12.595,1.407,12.595,1.407,6.631.395,7.512.64S686.28,2962.847,686.233,2963.112Z" transform="translate(0 -1)"/><path class="h" d="M621.285,2936.88a6.1,6.1,0,0,0-.314,1.827c-.079.354-.275.079-2.418.2-.235.02-.511.02-.786.02-2.083-.079-4.815-.708-6.014-.413-1.336.334-5.6.078-6.387.511-.393.216-1.69.766-2.929,1.3s-2.437,1.042-2.594,1.16c-.334.216-5.719,3.183-7.173,4.048-1.435.865-5.5,3.145-5.5,3.145l-.236,1.395s4.658,1.966,5.5,2.418c.865.432,5.857,1.749,5.857,1.749l3.616,1.081,2.1.629s.039.157.118.412c-.492-.039-1.2-.1-1.985-.177-2.044-.176-4.737-.452-6.309-.727-2.791-.511-7.351-2.1-9.3-4.029s-9.925-5.4-11.812-6.466c-1.69-.943-6.525-6.23-8.294-8.706.452-.138.747-.216.747-.216s12.4.982,13.738,1.08a33,33,0,0,0,5.621-1.022l9.2-1.3,9.276-.8,3.263-.492.746.118,6.918,1,3.99.57S621.6,2936.27,621.285,2936.88Z" transform="translate(0 -1)"/><path class="h" d="M685.975,2964.086c-.4,1.44-1.125,3.955-1.125,3.955a37.693,37.693,0,0,0-6.706-1.281c-2.168-.015-26.141.2-28.3-.118s-15.259-3.578-18.2-4.345a59.243,59.243,0,0,1-8.152-3.36,40.694,40.694,0,0,0,1.079-7.108,6.692,6.692,0,0,0-.9-3.58s3.895,2.355,4.116,2.672-.8,6.085-.8,6.085a8.59,8.59,0,0,0,3.009.749c1.649.083,13.727,2.836,17.784,3.927s8.912.291,11.19-.044,19.99.874,21.5,1.234C681.482,2963.118,684.291,2963.724,685.975,2964.086Z" transform="translate(0 -1)"/><path class="h" d="M622.642,2979.518l-4.024,1.1s.558-3.135.844-4.747c.284-1.595,3.756-15.283,3.83-15.576-.485,3.373-1.717,11.9-1.789,12.582-.088.846.664,6.36.664,6.36Z" transform="translate(0 -1)"/><path class="h" d="M647.5,2999.877a15.673,15.673,0,0,1-.827,3.059s-8.895-3.252-10.814-3.648-25.426-10.186-26.752-12.085-4.2-10.008-4.12-17.756-.091-10.241-.091-10.241-.9-3.919-1.543-4.835a8.383,8.383,0,0,1-.738-3.229,16.153,16.153,0,0,1,.061-1.738c.379.241.78.5,1.207.78l1.832,7.368s1.138,15.431,1.083,17.824,2.253,8.86,3.021,9.736,8.324,4.941,11.31,6.858,13.048,2.22,14.487,3.11,8.773,3.594,8.773,3.594S645.793,2999.209,647.5,2999.877Z" transform="translate(0 -1)"/><path class="f" d="M662.1,2994.167s-2.014,2.228-2.966,3.277-6.474,6.6-7.016,7.432-3.62,5.763-3.763,6.261a3.74,3.74,0,0,0,.259,3.265c.891,1.269,3.592,2.332,3.592,2.332s11.206-14.457,11.395-15.141,1.6-4.7,1.6-4.7S665.563,2995.6,662.1,2994.167Z" transform="translate(0 -1)"/><path class="i" d="M658.247,3002.322a40.252,40.252,0,0,0,4.661-4.295c.555-.529,2.1-2.415,2.4-.776a5.966,5.966,0,0,1-.466,3.1c-.783,1.627-7.125,11.439-8.429,12.637a43.43,43.43,0,0,1-4.206,3.741c-.646.3-2.482-2.906-2.511-3.269s4.137-5.378,4.271-6S657.843,3002.6,658.247,3002.322Z" transform="translate(0 -1)"/><path class="d" d="M582.841,2941.1c-.624,1.625-1.2,3.121-1.708,4.144-.385.787-.721,1.3-.995,1.392a14.368,14.368,0,0,1-3.154-.079l-3.531-2.57-5.108-1.7a27,27,0,0,1-3.059-3.338c-.667-1.085,0-6.02,0-6.02s.141-.6.4-1.4l.007-.016c.547-1.677,1.638-4.212,3.111-3.912,1.236.25,4.534.458,5.649,1.752.843.984,1.184,3.494,2.106,3.868a16.97,16.97,0,0,1,3.061,1.512l3.071,1.779A4.986,4.986,0,0,1,582.841,2941.1Z" transform="translate(0 -1)"/><path class="a" d="M611.74,2928.43s-1.922-1.578-2.173-1.676-2.631-.763-2.631-.763a8.69,8.69,0,0,0-1.334-.049,9.661,9.661,0,0,0-1.751,1.837,6.626,6.626,0,0,0-.385,2.166c.046.032.095,1.007.638,1.4a7.272,7.272,0,0,0,2.058.661s1.552.034,1.615.287a24.6,24.6,0,0,0,2.889,2.179,21.747,21.747,0,0,0,3.009,0c.092-.065,6.5.431,6.665.433a15.743,15.743,0,0,0,1.519-.536l.019-1.018s1.547-1.148,1.665-1.208,1.192-1.265,1.192-1.265-.129-.936-.328-1.025a9.745,9.745,0,0,0-1.939.031c-.088.038-1.289.147-1.289.147a17.294,17.294,0,0,0,1.45-1.81c.072-.256-.972-.576-1.182-.452s-2.9,1.82-3.3,1.964-2.29.345-2.552.459a7.135,7.135,0,0,1-1.559.341,6.92,6.92,0,0,1-.951-.575Z" transform="translate(0 -1)"/><path class="h" d="M581.133,2945.244c-.385.787-.721,1.3-.995,1.392a14.368,14.368,0,0,1-3.154-.079l-3.531-2.57-5.108-1.7a27,27,0,0,1-3.059-3.338c-.667-1.085,0-6.02,0-6.02s.141-.6.4-1.4l.007-.016-.014,3.535.93,4.175,3.805,1.755,4.319,1.911,4.508,1.231A8.032,8.032,0,0,1,581.133,2945.244Z" transform="translate(0 -1)"/><path class="j" d="M616.1,2941.6s2.861,4.7,3.263,6.248,1.036,3.881,1.036,3.881l-4.83,3.254-5.418,1.023-3.485-6.041s2.992-4.7,4.339-5.7A41.318,41.318,0,0,1,616.1,2941.6Z" transform="translate(0 -1)"/><path class="j" d="M633.068,2947.333s-3.381.652-4.134.385-4.724-5.656-4.724-5.656l-1.764-1.862,1.524-.062,8.889,6.169Z" transform="translate(0 -1)"/><path class="a" d="M609.3,2937.423a13.23,13.23,0,0,1,3.325-.375c2.116-.018,5.047.216,5.748.3s1.944.346,1.944.346l1.175-.364.336-1.087s.431-.21.481-.487-1.122-1.346-1.122-1.346l.411-.5.182-1.221s-.253-.8-.357-.815-1.763-.154-1.763-.154.139-1.388-.388-1.446a33.549,33.549,0,0,0-3.848.693l1.282-1.364-1.722-.593a31.314,31.314,0,0,1-3.709,2.134,23.177,23.177,0,0,0-3.268,1.388c-.91.555-1.2.995-1.559,1.187a19.426,19.426,0,0,1-5.2,1.265c-2.629.285-9.783.839-11.992,1.378a30.372,30.372,0,0,1-4.919.88c-.423-.039-2.3-.985-2.631-.917s-2.015.055-2.868,1.229a9.011,9.011,0,0,0-1.146,4.631c-.051,1.5.751,1.817,1.631,2.51a2.645,2.645,0,0,0,1.694.783,26.114,26.114,0,0,0,10.213-1.28c4.324-1.56,13.4-5.462,13.4-5.462S608.861,2937.274,609.3,2937.423Z" transform="translate(0 -1)"/><path class="k" d="M597.523,2935.921l1.013-1.1,7.155-1.278,3.278,2.253.423,3.925L607.607,2937l-2.164-.1,1.1,2.006-.9,1.765-.611-2.273-1.244-.684.314,2.593-1.6.718.092-2.354-.641-.92-.187,2.158-2.628,1.129.618-.957.131-3.155Z" transform="translate(0 -1)"/></g><g transform="translate(-1 -2330)"><path class="l" d="M414.043,2889.941a3.758,3.758,0,0,1,4.581-2.681l2.856.747a3.753,3.753,0,0,1-1.9,7.262l-2.856-.749A3.755,3.755,0,0,1,414.043,2889.941Zm7.9,2.067a1.462,1.462,0,0,0-1.046-1.786l-2.856-.748a1.463,1.463,0,0,0-.74,2.831l2.858.749A1.465,1.465,0,0,0,421.946,2892.008Z"/><path class="m" d="M408.2,2888.413a1.146,1.146,0,0,1,1.4-.819l7.9,2.067a1.145,1.145,0,0,1-.579,2.215l-7.9-2.067A1.144,1.144,0,0,1,408.2,2888.413Z"/><path class="n" d="M425.1,2892.833a3.759,3.759,0,0,1,4.581-2.682l2.856.746a3.753,3.753,0,1,1-1.9,7.263l-2.857-.748A3.756,3.756,0,0,1,425.1,2892.833Zm7.9,2.067a1.462,1.462,0,0,0-1.045-1.787l-2.857-.747a1.464,1.464,0,0,0-.74,2.832l2.857.747A1.464,1.464,0,0,0,433.007,2894.9Z"/><path class="o" d="M419.257,2891.3a1.143,1.143,0,0,1,1.4-.818l7.9,2.067a1.144,1.144,0,1,1-.579,2.214l-7.9-2.067A1.143,1.143,0,0,1,419.257,2891.3Z"/><path class="p" d="M436.284,2895.755a3.756,3.756,0,0,1,4.58-2.68l2.857.746a3.753,3.753,0,0,1-1.9,7.262l-2.856-.748A3.757,3.757,0,0,1,436.284,2895.755Zm7.9,2.067a1.47,1.47,0,0,0-1.046-1.788l-2.857-.746a1.464,1.464,0,1,0-.74,2.832l2.856.747A1.465,1.465,0,0,0,444.189,2897.822Z"/><path class="q" d="M430.436,2894.227a1.147,1.147,0,0,1,1.4-.819l7.9,2.067a1.144,1.144,0,1,1-.579,2.214l-7.9-2.066A1.145,1.145,0,0,1,430.436,2894.227Z"/><path class="r" d="M447.345,2898.647a3.758,3.758,0,0,1,4.581-2.682l2.857.747a3.753,3.753,0,0,1-1.9,7.262l-2.857-.747A3.757,3.757,0,0,1,447.345,2898.647Zm7.9,2.068a1.464,1.464,0,0,0-1.046-1.788l-2.856-.748a1.464,1.464,0,0,0-.741,2.833l2.858.748A1.465,1.465,0,0,0,455.249,2900.715Z"/><path class="s" d="M441.5,2897.118a1.144,1.144,0,0,1,1.4-.818l7.9,2.067a1.144,1.144,0,1,1-.579,2.214l-7.9-2.066A1.145,1.145,0,0,1,441.5,2897.118Z"/><path class="t" d="M458.183,2901.479a3.756,3.756,0,0,1,4.58-2.68l2.857.745a3.754,3.754,0,0,1-1.9,7.264l-2.857-.746A3.761,3.761,0,0,1,458.183,2901.479Zm7.9,2.067a1.467,1.467,0,0,0-1.046-1.786l-2.857-.747a1.463,1.463,0,1,0-.74,2.831l2.856.749A1.466,1.466,0,0,0,466.087,2903.546Z"/><path class="u" d="M452.334,2899.951a1.144,1.144,0,0,1,1.4-.818l7.906,2.067a1.144,1.144,0,0,1-.579,2.214l-7.9-2.067A1.143,1.143,0,0,1,452.334,2899.951Z"/><path class="v" d="M469.243,2904.372a3.76,3.76,0,0,1,4.581-2.683l2.856.749a3.752,3.752,0,1,1-1.9,7.261l-2.857-.748A3.756,3.756,0,0,1,469.243,2904.372Zm7.9,2.066a1.467,1.467,0,0,0-1.046-1.787l-2.857-.746a1.463,1.463,0,1,0-.74,2.831l2.857.748A1.465,1.465,0,0,0,477.148,2906.438Z"/><path class="w" d="M463.4,2902.843a1.144,1.144,0,0,1,1.4-.819l7.9,2.068a1.144,1.144,0,1,1-.578,2.213l-7.906-2.065A1.146,1.146,0,0,1,463.4,2902.843Z"/><path class="x" d="M480.424,2907.294a3.757,3.757,0,0,1,4.58-2.681l2.857.745a3.754,3.754,0,0,1-1.9,7.264l-2.857-.747A3.759,3.759,0,0,1,480.424,2907.294Zm7.9,2.066a1.465,1.465,0,0,0-1.046-1.785l-2.857-.748a1.464,1.464,0,0,0-.741,2.833l2.857.747A1.467,1.467,0,0,0,488.328,2909.36Z"/><path class="y" d="M474.575,2905.765a1.145,1.145,0,0,1,1.4-.817l7.906,2.065a1.145,1.145,0,0,1-.58,2.215l-7.9-2.066A1.145,1.145,0,0,1,474.575,2905.765Z"/><path class="z" d="M491.485,2910.186a3.759,3.759,0,0,1,4.581-2.682l2.855.748a3.752,3.752,0,1,1-1.9,7.261l-2.857-.746A3.76,3.76,0,0,1,491.485,2910.186Zm7.9,2.066a1.469,1.469,0,0,0-1.046-1.787l-2.858-.746a1.464,1.464,0,0,0-.741,2.833l2.858.746A1.466,1.466,0,0,0,499.389,2912.252Z"/><path class="aa" d="M485.636,2908.656a1.146,1.146,0,0,1,1.4-.817l7.9,2.067a1.145,1.145,0,0,1-.579,2.216l-7.9-2.067A1.147,1.147,0,0,1,485.636,2908.656Z"/></g><g transform="translate(-1 -2330)"><path class="ab" d="M502.479,2913.289a3.759,3.759,0,0,1,4.582-2.682l2.856.748a3.752,3.752,0,1,1-1.9,7.261l-2.857-.748A3.757,3.757,0,0,1,502.479,2913.289Zm7.9,2.067a1.463,1.463,0,0,0-1.045-1.787l-2.857-.747a1.463,1.463,0,1,0-.739,2.831l2.856.748A1.465,1.465,0,0,0,510.383,2915.356Z"/><path class="ac" d="M496.632,2911.76a1.146,1.146,0,0,1,1.4-.819l7.9,2.067a1.145,1.145,0,0,1-.578,2.215l-7.9-2.067A1.143,1.143,0,0,1,496.632,2911.76Z"/><path class="ad" d="M513.541,2916.18a3.759,3.759,0,0,1,4.582-2.682l2.855.747a3.753,3.753,0,1,1-1.9,7.262l-2.856-.748A3.756,3.756,0,0,1,513.541,2916.18Zm7.9,2.067a1.465,1.465,0,0,0-1.045-1.787l-2.858-.747a1.464,1.464,0,0,0-.74,2.833l2.857.746A1.465,1.465,0,0,0,521.445,2918.247Z"/><path class="ae" d="M507.694,2914.651a1.145,1.145,0,0,1,1.4-.819l7.9,2.067a1.145,1.145,0,0,1-.579,2.216l-7.9-2.067A1.145,1.145,0,0,1,507.694,2914.651Z"/><path class="af" d="M524.72,2919.1a3.757,3.757,0,0,1,4.581-2.681l2.857.747a3.752,3.752,0,0,1-1.9,7.26l-2.857-.747A3.757,3.757,0,0,1,524.72,2919.1Zm7.907,2.065a1.47,1.47,0,0,0-1.047-1.786l-2.858-.746a1.463,1.463,0,1,0-.739,2.831l2.856.748A1.468,1.468,0,0,0,532.627,2921.168Z"/><path class="ag" d="M518.873,2917.574a1.144,1.144,0,0,1,1.4-.818l7.9,2.067a1.144,1.144,0,1,1-.578,2.213l-7.905-2.066A1.144,1.144,0,0,1,518.873,2917.574Z"/><path class="ah" d="M535.782,2921.994a3.76,3.76,0,0,1,4.582-2.682l2.855.748a3.753,3.753,0,1,1-1.9,7.262l-2.856-.748A3.758,3.758,0,0,1,535.782,2921.994Zm7.9,2.068a1.463,1.463,0,0,0-1.047-1.787l-2.855-.748a1.464,1.464,0,0,0-.742,2.833l2.859.746A1.463,1.463,0,0,0,543.686,2924.062Z"/><path class="ai" d="M529.935,2920.465a1.143,1.143,0,0,1,1.394-.817l7.906,2.066a1.145,1.145,0,0,1-.58,2.215l-7.9-2.067A1.144,1.144,0,0,1,529.935,2920.465Z"/><path class="aj" d="M546.62,2924.827a3.757,3.757,0,0,1,4.58-2.681l2.858.745a3.755,3.755,0,0,1-1.9,7.265l-2.858-.746A3.761,3.761,0,0,1,546.62,2924.827Zm7.9,2.067a1.467,1.467,0,0,0-1.046-1.787l-2.858-.746a1.462,1.462,0,1,0-.739,2.83l2.856.749A1.466,1.466,0,0,0,554.524,2926.894Z"/><path class="ak" d="M540.771,2923.3a1.144,1.144,0,0,1,1.4-.818l7.9,2.066a1.145,1.145,0,0,1-.579,2.215l-7.9-2.066A1.145,1.145,0,0,1,540.771,2923.3Z"/><path class="al" d="M557.68,2927.72a3.759,3.759,0,0,1,4.58-2.683l2.857.748a3.753,3.753,0,0,1-1.9,7.262l-2.857-.749A3.755,3.755,0,0,1,557.68,2927.72Zm7.905,2.065A1.466,1.466,0,0,0,564.54,2928l-2.858-.746a1.463,1.463,0,1,0-.74,2.831l2.857.748A1.465,1.465,0,0,0,565.585,2929.785Z"/><path class="am" d="M551.832,2926.191a1.146,1.146,0,0,1,1.4-.82l7.9,2.068a1.144,1.144,0,1,1-.58,2.213l-7.9-2.066A1.144,1.144,0,0,1,551.832,2926.191Z"/><path class="an" d="M568.86,2930.642a3.756,3.756,0,0,1,4.58-2.681l2.857.745a3.753,3.753,0,1,1-1.9,7.262l-2.857-.747A3.756,3.756,0,0,1,568.86,2930.642Zm7.906,2.065a1.468,1.468,0,0,0-1.046-1.786l-2.859-.746a1.464,1.464,0,0,0-.741,2.833l2.858.746A1.468,1.468,0,0,0,576.766,2932.707Z"/><path class="ao" d="M563.011,2929.113a1.145,1.145,0,0,1,1.4-.818l7.906,2.065a1.145,1.145,0,0,1-.58,2.216l-7.9-2.066A1.146,1.146,0,0,1,563.011,2929.113Z"/><path class="ap" d="M579.923,2933.532a3.756,3.756,0,0,1,4.579-2.68l2.856.746a3.754,3.754,0,0,1-1.9,7.263l-2.856-.747A3.758,3.758,0,0,1,579.923,2933.532Zm7.9,2.067a1.468,1.468,0,0,0-1.046-1.786l-2.858-.746a1.463,1.463,0,1,0-.74,2.831l2.857.748A1.466,1.466,0,0,0,587.826,2935.6Z"/><path class="aq" d="M574.073,2932a1.145,1.145,0,0,1,1.4-.817l7.9,2.067a1.144,1.144,0,0,1-.579,2.214l-7.9-2.067A1.146,1.146,0,0,1,574.073,2932Z"/></g></g></svg>