<svg xmlns="http://www.w3.org/2000/svg" width="832.376" height="21.659" viewBox="0 0 832.376 21.659"><defs><style>.a{fill:#309b84;}.b,.c,.e{fill:none;}.b{stroke:#fff;}.b,.c{stroke-width:3px;}.c{stroke:#309b84;}.d{stroke:none;}</style></defs><g transform="translate(-8223.596 11672.545) rotate(180)"><ellipse class="a" cx="11.3" cy="10.83" rx="11.3" ry="10.83" transform="translate(-8246.197 11650.886)"/><ellipse class="a" cx="10.359" cy="10.83" rx="10.359" ry="10.83" transform="translate(-8327.184 11650.886)"/><g class="b" transform="translate(-8570.083 11650.886)"><circle class="d" cx="10.83" cy="10.83" r="10.83"/><circle class="e" cx="10.83" cy="10.83" r="9.33"/></g><path class="a" d="M10.359,0A10.6,10.6,0,0,1,20.717,10.83a10.6,10.6,0,0,1-10.359,10.83A10.6,10.6,0,0,1,0,10.83,10.6,10.6,0,0,1,10.359,0Z" transform="translate(-8407.668 11650.886)"/><g class="b" transform="translate(-8650.821 11650.886)"><circle class="d" cx="10.83" cy="10.83" r="10.83"/><circle class="e" cx="10.83" cy="10.83" r="9.33"/></g><g class="b" transform="translate(-8488.405 11650.886)"><ellipse class="d" cx="10.359" cy="10.83" rx="10.359" ry="10.83"/><ellipse class="e" cx="10.359" cy="10.83" rx="8.859" ry="9.33"/></g><g class="b" transform="translate(-8732.498 11650.886)"><circle class="d" cx="10.83" cy="10.83" r="10.83"/><circle class="e" cx="10.83" cy="10.83" r="9.33"/></g><g class="b" transform="translate(-8893.973 11650.886)"><circle class="d" cx="10.83" cy="10.83" r="10.83"/><circle class="e" cx="10.83" cy="10.83" r="9.33"/></g><g class="b" transform="translate(-9055.973 11650.886)"><circle class="d" cx="10.83" cy="10.83" r="10.83"/><circle class="e" cx="10.83" cy="10.83" r="9.33"/></g><g class="b" transform="translate(-8812.973 11650.886)"><circle class="d" cx="10.83" cy="10.83" r="10.83"/><circle class="e" cx="10.83" cy="10.83" r="9.33"/></g><g class="b" transform="translate(-8974.973 11650.886)"><circle class="d" cx="10.83" cy="10.83" r="10.83"/><circle class="e" cx="10.83" cy="10.83" r="9.33"/></g><line class="c" x1="52.612" transform="translate(-8302.029 11661.728)"/><line class="b" x1="52.612" transform="translate(-8545.034 11661.728)"/><line class="c" x1="52.612" transform="translate(-8382.977 11661.728)"/><line class="b" x1="52.612" transform="translate(-8626.064 11661.728)"/><line class="b" x1="52.612" transform="translate(-8788.123 11661.728)"/><line class="b" x1="52.612" transform="translate(-8950.123 11661.728)"/><line class="b" x1="52.612" transform="translate(-8464.006 11661.728)"/><line class="b" x1="52.612" transform="translate(-8707.096 11661.728)"/><line class="b" x1="52.612" transform="translate(-8869.073 11661.728)"/><line class="b" x1="52.612" transform="translate(-9031.073 11661.728)"/></g></svg>