<svg xmlns="http://www.w3.org/2000/svg" width="833.376" height="21.659" viewBox="0 0 833.376 21.659"><defs><style>.a{fill:#309b84;}.b,.c,.e{fill:none;}.b{stroke:#fff;}.b,.c{stroke-width:3px;}.c{stroke:#309b84;}.d{stroke:none;}</style></defs><g transform="translate(-8222.596 11672.545) rotate(180)"><ellipse class="a" cx="11.3" cy="10.83" rx="11.3" ry="10.83" transform="translate(-8245.197 11650.886)"/><ellipse class="a" cx="10.359" cy="10.83" rx="10.359" ry="10.83" transform="translate(-8326.184 11650.886)"/><circle class="a" cx="10.83" cy="10.83" r="10.83" transform="translate(-8569.584 11650.886)"/><path class="a" d="M10.359,0A10.6,10.6,0,0,1,20.717,10.83a10.6,10.6,0,0,1-10.359,10.83A10.6,10.6,0,0,1,0,10.83,10.6,10.6,0,0,1,10.359,0Z" transform="translate(-8406.919 11650.886)"/><circle class="a" cx="10.83" cy="10.83" r="10.83" transform="translate(-8650.446 11650.886)"/><ellipse class="a" cx="10.359" cy="10.83" rx="10.359" ry="10.83" transform="translate(-8487.781 11650.886)"/><circle class="a" cx="10.83" cy="10.83" r="10.83" transform="translate(-8732.249 11650.886)"/><g class="b" transform="translate(-8893.973 11650.886)"><circle class="d" cx="10.83" cy="10.83" r="10.83"/><circle class="e" cx="10.83" cy="10.83" r="9.33"/></g><g class="b" transform="translate(-8974.973 11650.886)"><circle class="d" cx="10.83" cy="10.83" r="10.83"/><circle class="e" cx="10.83" cy="10.83" r="9.33"/></g><g class="b" transform="translate(-9055.973 11650.886)"><circle class="d" cx="10.83" cy="10.83" r="10.83"/><circle class="e" cx="10.83" cy="10.83" r="9.33"/></g><circle class="a" cx="10.83" cy="10.83" r="10.83" transform="translate(-8812.973 11650.886)"/><line class="c" x1="52.612" transform="translate(-8301.029 11661.728)"/><line class="c" x1="52.612" transform="translate(-8544.47 11661.728)"/><line class="c" x1="52.612" transform="translate(-8382.149 11661.728)"/><line class="c" x1="52.612" transform="translate(-8625.631 11661.728)"/><line class="c" x1="52.612" transform="translate(-8787.952 11661.728)"/><line class="c" x1="52.612" transform="translate(-8463.31 11661.728)"/><line class="c" x1="52.612" transform="translate(-8706.793 11661.728)"/><line class="b" x1="52.612" transform="translate(-8869.073 11661.728)"/><line class="b" x1="52.612" transform="translate(-8950.073 11661.728)"/><line class="b" x1="52.612" transform="translate(-9031.073 11661.728)"/></g></svg>