<svg xmlns="http://www.w3.org/2000/svg" width="274.824" height="152.907" viewBox="0 0 274.824 152.907"><defs><style>.a{fill:#9b9455;opacity:0.4;}.b{fill:#f07d0f;}.c{fill:#fba11d;}.d{fill:#fff;}</style></defs><g transform="translate(-2246.192 -3407.51)"><path class="a" d="M2498.242,3487.477a6.29,6.29,0,0,1,2.146-2.512,19.134,19.134,0,0,0,4.452-22.291c-2.818-5.669-8.658-10.45-8.144-16.76.163-2,.991-3.944.821-5.943-.409-4.785-6.008-7.2-10.783-7.713s-10.151-.364-13.621-3.684c-3.544-3.391-4.341-9.806-9.051-11.175-4.9-1.425-9.505,4.106-14.577,3.546-2-.221-3.748-1.366-5.492-2.362-6.247-3.567-14.925-5.2-20.078-.18-1.881,1.832-3.14,4.429-5.531,5.512-3.646,1.653-8.766-.769-11.514,2.142-1.185,1.256-1.57,3.268-3.093,4.082a7.085,7.085,0,0,1-3.488.351c-7.132-.11-13.095,7.938-10.914,14.729a27.343,27.343,0,0,0-15.612,7.172c-3.577,3.351-6.274,7.873-6.55,12.766s2.251,10.069,6.713,12.095c2.955,1.341,7.254,2.134,7.405,5.376.135,2.912-3.534,6.174-1.347,8.1a6.5,6.5,0,0,0,1.154.69c3.283,1.847,3.548,6.572,2.317,10.131s-3.523,6.791-3.994,10.528a11.219,11.219,0,0,0,14.726,12.03,33.967,33.967,0,0,0,1.768,9.969c1.243,3.152,3.629,6.033,6.87,7.021a17.02,17.02,0,0,0,6.163.319l10.273-.722c3.9-.274,8.294-.383,11.145,2.293,1.492,1.4,2.341,3.4,3.919,4.706,1.879,1.551,4.459,1.86,6.883,2.106,3.629.368,7.533.682,10.7-1.137,4.046-2.327,5.553-7.319,6.715-11.84a67.647,67.647,0,0,0,18.03,2.628,18.956,18.956,0,0,0,8.161-1.3c2.522-1.166,4.654-3.532,4.815-6.306.092-1.593-.455-3.177-.317-4.767.377-4.346,5.241-6.53,9.177-8.411,4.858-2.323,9.531-5.741,11.6-10.711s.618-11.662-4.212-14.043c-1.66-.819-3.556-1.083-5.189-1.953S2497.664,3489.235,2498.242,3487.477Z"/><path class="b" d="M2419.788,3528.193c.38-1.171,1.709-1.994,1.893-3.108a20.925,20.925,0,0,0,.441-3.543,18.922,18.922,0,0,0-.135-3.622c-.26-1.187-1.182-2.188-1.673-3.223-.516-1.087-1.765-1.582-2.5-2.477-.754-.917-.638-2.738-1.587-3.428a15.626,15.626,0,0,0-3.114-2.071c-1.079-.424-2.648.75-3.84.6-1.136-.147-2.284-1.167-3.492-1.048a18.461,18.461,0,0,0-3.7.218c-1.08.335-1.858,1.751-2.95,2.316-1,.519-2.557.362-3.554,1.086,1-.724,2.578-.6,3.381-1.4.875-.864,1.185-2.131,1.838-3.054a17,17,0,0,0,1.814-2.957c.487-1.113,1.844-2,2.055-3.124.221-1.182-.767-2.493-.836-3.65a13.275,13.275,0,0,0-.7-3.378c-.362-1.115-1.3-1.811-1.938-2.812-.624-.976-.551-2.449-1.425-3.275a15.9,15.9,0,0,0-2.969-1.914,17.1,17.1,0,0,0-3.177-1.482c-1.071-.363-2.326.192-3.541.008-1.116-.169-2.152-1.471-3.384-1.471,1.232,0,2.488.738,3.6.568,1.216-.184,1.983-1.872,3.054-2.235,1.159-.394,2.479-.094,3.46-.668a15.822,15.822,0,0,0,2.92-1.978c.874-.826.864-2.244,1.488-3.221a12.777,12.777,0,0,0,1.712-2.894,13.41,13.41,0,0,0,1.011-3.307c.069-1.157-.5-2.2-.725-3.387a14.474,14.474,0,0,0-1.264-3.107c-.456-1.041-.031-2.543-.738-3.542-.653-.923-1.952-1.318-2.827-2.182a22.512,22.512,0,0,0-2.664-2.179c1,.724,2.622.347,3.624.866,1.092.565,1.892,1.625,2.972,1.96a19.157,19.157,0,0,0,3.443,1.11c1.209.119,2.389-.835,3.526-.982,1.192-.155,2.034-.951,3.112-1.375a12.1,12.1,0,0,0,2.92-1.512c.949-.689,2.563-.589,3.317-1.507a14.988,14.988,0,0,0,1.67-3.158c.491-1.035,1.46-2.025,1.721-3.212a18.6,18.6,0,0,0,.6-3.625c.014-1.131-.716-2.343-.916-3.556-.184-1.113-1.046-2.095-1.427-3.266.381,1.171,1.361,2.069,1.867,3.078.55,1.1.606,2.5,1.282,3.4a19.341,19.341,0,0,0,2.3,2.868c.908.807,2.681.384,3.687.933,1.056.576,1.723,2.127,2.845,2.418,1.149.3,2.483-.867,3.656-.867a12.543,12.543,0,0,0,3.324-.412c1.121-.292,2.313-.211,3.368-.786a15.421,15.421,0,0,0,3.084-1.747,17.7,17.7,0,0,0,2.452-2.6,20.264,20.264,0,0,0,2.236-2.861c.506-1.009-.5-2.676-.124-3.848-.38,1.172,1.024,2.734.84,3.847-.2,1.213-2.009,2.266-2,3.4a18.856,18.856,0,0,0,.556,3.658c.26,1.187,2.043,1.83,2.534,2.865a12.8,12.8,0,0,0,1.926,2.72c.755.917,1.113,2.036,2.062,2.726s1.614,1.985,2.72,2.419c1.078.423,2.41.223,3.6.377,1.136.148,2.378.858,3.586.739,1.131-.111,2.228-.988,3.4-1.351a20.068,20.068,0,0,0,3.275-1.329,24.828,24.828,0,0,0,2.831-2.11c-1,.724-1.3,2.144-2.1,2.937-.876.864-2.156,1.261-2.809,2.184-.706,1-.577,2.357-1.032,3.4-.487,1.113-2.343,1.8-2.554,2.927-.221,1.182.98,2.5,1.05,3.658a13.871,13.871,0,0,0,.232,3.5c.362,1.115,1.37,1.871,2.01,2.872a13.643,13.643,0,0,0,1.923,2.858c.833.787,1.467,1.924,2.514,2.538.981.575,1.9,1.7,3.062,2.1,1.07.363,2.624-.936,3.839-.752a22.066,22.066,0,0,0,3.422.3,26.589,26.589,0,0,0-3.662-.023c-1.215.185-2.341,1.024-3.412,1.388a17.33,17.33,0,0,0-3.09,1.816c-1.048.614-2.592.687-3.425,1.474a15.8,15.8,0,0,0-2.009,3.118c-.64,1-.1,2.522-.462,3.638s-2.221,2-2.292,3.183c-.069,1.156,1.682,2.256,1.9,3.438.211,1.126-.926,2.721-.439,3.833.456,1.041,1.65,1.838,2.356,2.837.653.923,2.051,1.22,2.926,2.084.8.793.842,2.559,1.839,3.283a24.211,24.211,0,0,0-2.775-2.1,18.747,18.747,0,0,0-3.285-1.1,16.25,16.25,0,0,0-3.354-.633,14.343,14.343,0,0,0-3.39.059c-1.192.155-2.7-.881-3.78-.458a22.31,22.31,0,0,0-5.9,4.4,15.765,15.765,0,0,0-1.782,3.214c-.491,1.034-.184,2.412-.444,3.6-.244,1.11-.913,2.222-.929,3.445a20.253,20.253,0,0,0-.139,3.636,25.051,25.051,0,0,0,.912,3.518,24.032,24.032,0,0,0-1.02-3.319,20.658,20.658,0,0,0-1.573-3.138c-.732-.981-1.026-2.4-1.876-3.159a16.465,16.465,0,0,0-3.164-1.85c-1.055-.575-2.427-.342-3.549-.633-1.149-.3-2.24-1.091-3.412-1.09a18.622,18.622,0,0,0-6.795,2.03c-1.005.549-1.518,1.753-2.425,2.56a16.15,16.15,0,0,0-2.635,2.25,19.488,19.488,0,0,0-1.837,2.969C2421.73,3526.326,2420.168,3527.022,2419.788,3528.193Z"/><path class="c" d="M2424.058,3514.436a64.077,64.077,0,0,1-4.086-5.916,19.987,19.987,0,0,0-2.666-1.98c-.907-.644-1.52-1.852-2.52-2.337a21.616,21.616,0,0,0-3.278-.932c-1.055-.313-2.638-.018-3.752-.163.212-1.122,1.225-2.549,1.251-3.685a21.021,21.021,0,0,0-.276-3.47c-.163-1.114-1.181-2.047-1.537-3.142a19.318,19.318,0,0,0-1.458-3c-.532-1.014-.456-2.382-1.145-3.285a23.788,23.788,0,0,0-2.739-2.388,22.7,22.7,0,0,0,2.3-2.723,20.007,20.007,0,0,0,2.063-2.7c.524-1,.427-2.221.784-3.318s1.67-1.949,1.834-3.063c.166-1.13-.386-2.337-.412-3.471a25.661,25.661,0,0,0-.682-3.712c1.113-.145,2.722.183,3.777-.13a20.809,20.809,0,0,0,2.951-1.613,19.659,19.659,0,0,0,2.712-1.857c.9-.64,2.2-.809,3-1.6a21.6,21.6,0,0,0,1.918-2.768c.756-1.041,1.645-1.615,2.2-2.771,1,.548,1.91.324,2.982.7a14.757,14.757,0,0,0,10.083,1.365c1.127-.192,2.055-1.143,3.126-1.518a19.417,19.417,0,0,0,3.165-.875,19.858,19.858,0,0,0,2.292,2.936,20.34,20.34,0,0,0,2.012,2.609,21.919,21.919,0,0,0,5.515,3.513,20.208,20.208,0,0,0,2.918,1.557,2.714,2.714,0,0,1,2.884,4.158,20.729,20.729,0,0,0-.069,3.441,21.2,21.2,0,0,0,1.192,3.231c.356,1.1.1,2.487.621,3.486.531,1.014,1.641,1.731,2.33,2.634a19.35,19.35,0,0,0,2.163,2.486,19.958,19.958,0,0,0-2.389,2.315,21.161,21.161,0,0,0-1.552,3.095,20.841,20.841,0,0,0-.837,3.305c-.356,1.1-1.5,1.989-1.664,3.1a21.525,21.525,0,0,0-.424,3.475c.026,1.135,1.071,2.47,1.283,3.592-1.114.146-2.585-.1-3.641.208a21.922,21.922,0,0,0-3.3.91c-1,.485-1.666,1.639-2.573,2.282s-2.183.914-2.977,1.7a22.3,22.3,0,0,0-1.878,2.853,22.783,22.783,0,0,0-1.758,3.6,22.835,22.835,0,0,0-3.25-1.458c-1.071-.374-2.035-1.319-3.162-1.51-1.11-.189-2.331.4-3.483.4a19.834,19.834,0,0,0-3.362.319,19.635,19.635,0,0,0-3.147,1.181A21.531,21.531,0,0,0,2424.058,3514.436Z"/><path class="d" d="M2421.966,3501.848c-.822-.834-1.893-1.135-2.792-1.869a31.385,31.385,0,0,0-2.83-2,33.369,33.369,0,0,0-3.03-1.879,36.858,36.858,0,0,0-3.153-9.957,19.224,19.224,0,0,0,3.229-9.911,32.542,32.542,0,0,0,3.045-1.782,32.187,32.187,0,0,0,2.961-1.873,32.675,32.675,0,0,0,2.5-2.451,31.974,31.974,0,0,0,5.19.205,33.1,33.1,0,0,0,5.255-.5,35.863,35.863,0,0,0,2.515,2.651,32.669,32.669,0,0,0,2.668,2.3,33.95,33.95,0,0,0,3.283,1.434,16.837,16.837,0,0,0,3.257,9.924,32.675,32.675,0,0,0-1.891,4.9,32.326,32.326,0,0,0-1.4,5.006,32.846,32.846,0,0,0-3.068,1.738,285.611,285.611,0,0,1-5.434,4.364,32.115,32.115,0,0,0-5.189-.316A31.19,31.19,0,0,0,2421.966,3501.848Z"/><path class="b" d="M2392.209,3424.652c-1.11-1.9-3.083-4.106-5.075-3.167,1.018,2.622,2.95,4.767,4.842,6.848l17.888,19.677c-1.417-4.319-6.467-6.164-9.394-9.643a22.844,22.844,0,0,1-2.154-3.249Q2395.264,3429.884,2392.209,3424.652Z"/><path class="b" d="M2380.595,3447.9a22.793,22.793,0,0,1,3.96,1.461l7.536,3.32c-5.654-3.663-11.774-7.465-18.509-7.272l.063.779C2375.656,3447.508,2378.254,3447.352,2380.595,3447.9Z"/><path class="b" d="M2382.837,3438.517c-8.143-5.762-18.066-9.288-24.58-16.842,1.208-.883,2.9-.179,4.191.571A88.216,88.216,0,0,1,2382.837,3438.517Z"/><path class="b" d="M2414.6,3417.324c2.024,3.289,2.885,7.141,3.715,10.912A17.605,17.605,0,0,1,2414.6,3417.324Z"/><path class="b" d="M2431.488,3420.889a90.741,90.741,0,0,0,.929,9.386q.56,4.161,1.118,8.321c-2.08-10.2-5.457-20.384-4.647-30.765a4.308,4.308,0,0,1,2.228-.28C2431.883,3411.938,2431.358,3416.437,2431.488,3420.889Z"/><path class="b" d="M2380.963,3471.946c2.437-1.035,5.159.266,7.769.709l-7.8.015C2380.94,3472.428,2380.952,3472.187,2380.963,3471.946Z"/><path class="b" d="M2479.717,3540.892a1.519,1.519,0,0,0,1.7-1.2,3.5,3.5,0,0,0-.372-2.236c-1.5-3.332-4.521-5.687-7.5-7.8-3.565-2.536-7.27-4.973-10.164-8.255l5.306,6.9a112.683,112.683,0,0,0,10.089,11.941A2.245,2.245,0,0,0,2479.717,3540.892Z"/><path class="b" d="M2481.064,3518.791c-2.306-.925-4.719-1.867-7.2-1.656,5.414,1.666,9.868,6.07,15.49,6.77.122-1.459-1.487-2.384-2.846-2.929Z"/><path class="b" d="M2483.413,3510.227l24.124,10.554a3.022,3.022,0,0,0,2.655.27,2,2,0,0,0,.878-1.39,3.982,3.982,0,0,0-1.665-3.679,11.055,11.055,0,0,0-3.873-1.675A123.646,123.646,0,0,0,2483.413,3510.227Z"/><path class="b" d="M2479.048,3497.2q-3.467.8-6.872,1.829l5.649.72a4.119,4.119,0,0,0,2.556-.222c.758-.43,1.122-1.618.455-2.178A2.055,2.055,0,0,0,2479.048,3497.2Z"/><path class="b" d="M2520.241,3483.193c-3.624-1.637-7.8-1.573-11.715-.87s-7.7,2.007-11.6,2.775a83.858,83.858,0,0,0-8.684,1.718q15.459-.318,30.883-1.533c.953-.075,2.26-.746,1.792-1.58A1.381,1.381,0,0,0,2520.241,3483.193Z"/><path class="b" d="M2440.378,3533.575l3.1,18.443.811.243a15.835,15.835,0,0,0-.386-9.59C2442.932,3539.566,2441.461,3536.642,2440.378,3533.575Z"/><path class="b" d="M2452.583,3545.925a8.832,8.832,0,0,0-2.292-7.043C2451.458,3541.1,2450.828,3544.141,2452.583,3545.925Z"/><path class="b" d="M2465.007,3546.705l-6.8-8.34a39.543,39.543,0,0,1,5.478,9.8,17.012,17.012,0,0,0,2.136,4.49,4.5,4.5,0,0,0,4.331,1.9A30.248,30.248,0,0,0,2465.007,3546.705Z"/><path class="b" d="M2385.422,3463.835c-1.028-.12-2.057-.241-3.074-.436a42.755,42.755,0,0,1-8.454-2.889c0-.672.809-1.01,1.472-1.121a20.93,20.93,0,0,1,9.636,1.148,55.8,55.8,0,0,1,10.391,4.467Z"/><path class="b" d="M2412.095,3516.377q-1.124,4.416-2.245,8.832c1.351-.56,1.736-2.255,1.941-3.7A21.305,21.305,0,0,0,2412.095,3516.377Z"/><path class="b" d="M2422.659,3544.827a100.524,100.524,0,0,1-.962-13.658c.615,4.841-.442,9.714-1.106,14.548s-.891,9.977,1.23,14.372l2.65.328q-.59-5.064-1.178-10.129Q2422.977,3547.557,2422.659,3544.827Z"/><path class="b" d="M2423.063,3482.382l-4.209,1.4c-2.686.863-6.511,2.14-11.124,3.592s-10,3.14-15.779,4.9l-8.92,2.7-9.221,2.743-9.237,2.69-8.959,2.564c-5.814,1.653-11.251,3.162-15.919,4.427s-8.571,2.276-11.3,3.005l-4.3,1.1,4.207-1.4c2.687-.863,6.511-2.141,11.124-3.593s10-3.141,15.78-4.9l8.92-2.7,9.221-2.743,9.238-2.689,8.959-2.564c5.814-1.651,11.251-3.161,15.919-4.426s8.571-2.276,11.3-3.006Z"/><path class="b" d="M2418.317,3491.318l-1.544.523c-1.009.335-2.48.853-4.368,1.461-3.775,1.219-9.148,3.027-15.631,5.077l-10.471,3.3-11.706,3.614-12.538,3.8-12.963,3.859-12.986,3.779c-4.28,1.259-8.512,2.429-12.6,3.6-8.176,2.318-15.821,4.432-22.386,6.2-6.56,1.79-12.057,3.178-15.89,4.2-1.917.511-3.434.873-4.464,1.137l-1.581.4,1.544-.523c1.009-.336,2.48-.853,4.368-1.463,3.775-1.219,9.147-3.029,15.63-5.078,6.478-2.069,14.049-4.433,22.177-6.913,4.067-1.229,8.259-2.537,12.539-3.8l12.963-3.858,12.987-3.777,12.6-3.6,11.8-3.3,10.588-2.9c6.56-1.789,12.056-3.179,15.89-4.2,1.916-.511,3.433-.873,4.463-1.138Z"/><path class="b" d="M2436.66,3482.7s-4.525,1.754-11.4,4.077c-1.718.585-3.58,1.217-5.559,1.854s-4.058,1.333-6.224,2-4.394,1.4-6.676,2.074l-6.911,2.077-6.935,2c-2.283.672-4.551,1.264-6.734,1.875-4.373,1.2-8.469,2.269-11.993,3.142-7.04,1.772-11.8,2.747-11.8,2.747s4.525-1.756,11.4-4.08c3.435-1.174,7.458-2.494,11.783-3.855,2.166-.669,4.393-1.4,6.677-2.071l6.911-2.077,6.934-2c2.285-.667,4.552-1.263,6.735-1.873s4.307-1.159,6.317-1.689,3.916-1.013,5.677-1.453C2431.907,3483.672,2436.66,3482.7,2436.66,3482.7Z"/><path class="b" d="M2320.422,3515.183s-4.525,1.754-11.4,4.077c-1.718.585-3.58,1.217-5.559,1.854s-4.058,1.333-6.224,2-4.394,1.4-6.676,2.074l-6.911,2.077-6.935,2c-2.283.672-4.551,1.264-6.734,1.875-4.373,1.2-8.469,2.269-11.993,3.142-7.04,1.772-11.8,2.747-11.8,2.747s4.525-1.756,11.4-4.08c3.436-1.174,7.459-2.494,11.784-3.855,2.166-.669,4.393-1.4,6.676-2.072l6.912-2.076,6.935-2c2.284-.667,4.551-1.263,6.734-1.873s4.307-1.159,6.317-1.689,3.916-1.013,5.677-1.453C2315.669,3516.16,2320.422,3515.183,2320.422,3515.183Z"/></g></svg>