<svg xmlns="http://www.w3.org/2000/svg" width="211.964" height="340.039" viewBox="0 0 211.964 340.039"><defs><style>.a{fill:#323416;}.b{fill:#10100d;}.c{fill:#040505;}.d{fill:#daa28a;}.e{fill:#131312;}.f{fill:#202112;}.g{fill:#494b1e;}.h,.i,.j{fill:#606328;}.h{opacity:0.7;}.h,.j{mix-blend-mode:multiply;}.h,.j,.m{isolation:isolate;}.j{opacity:0.2;}.k{fill:#180f0d;}.l{fill:#e3b4a0;}.n{fill:#2f190e;}.o{fill:#3d1f0f;}.p{fill:#3e1f0f;}.q{fill:#24140d;}.r{fill:#3c1e0f;}.s{fill:#171d24;}.t{fill:#131a1f;}.u{fill:#111519;}.v{fill:#141a20;}</style></defs><g transform="translate(-665.566 -3532.34)"><path class="a" d="M698.793,3597.379a4.394,4.394,0,0,0-.829-.583c-.026-.075-.06-.146-.089-.219-5.6-.025-11.219-.68-16.7,1.412-4.421,1.686-9.074,4.5-11.629,8.55-3.219,5.1-.123,10.451,1.09,11.129,1.449,1.324,3.522,1.867,6.346,1.238,6.763-1.506,13.959-6.938,18.776-11.844a6.877,6.877,0,0,0,2.282-4.894,8.341,8.341,0,0,0,.282-1.169c.132-.008.264-.013.392-.021a1.246,1.246,0,0,0,1.182-1.551A4.082,4.082,0,0,0,698.793,3597.379Z"/><path class="b" d="M691.553,3598.081c-.2.034-.415.082-.638.138-.023,0-.053-.007-.078-.012-7.656-.166-9.525,1-13.34,2.917-3.077,1.548-6.573,4.81-7.057,7.064-.56,2.6.09,4.143,6.927-1.357,4.094-3.293,10.573-1.926,13.719-4.132,1.073-.752.35-3.32.242-3.59a.95.95,0,0,0,.125-.279l.282-.115c.585-.243.935-.515.748-.6C692.229,3598,692.043,3598.047,691.553,3598.081Z"/><path class="a" d="M693.893,3600.483l.241,2.513s4.149,4.533,7.922,5.751c5.652,1.841,13.367-1,14.1-4.438a49.158,49.158,0,0,0,.613-5.144C709.307,3601.344,694.112,3596.228,693.893,3600.483Z"/><path class="c" d="M727.718,3827.476s-12.329-.336-7.713,13.861c1.2,3.692,8.376,2.641,8.376,2.641a6.228,6.228,0,0,1,3.825-.42A17.5,17.5,0,0,1,736,3845.6c7.077,3.588,16.587-.292,18.464-3.9,2.7-5.16-6.016-7.7-14.454-10.018C731.2,3829.272,727.718,3827.476,727.718,3827.476Z"/><path class="d" d="M807.4,3559.607c-.006.008-.355.277-.914.708-.7.548-1.74,1.352-2.832,2.2-1.786,1.382-3.726,2.889-4.637,3.586-.332.249-.528.4-.535.4-.35.136-.529.057-.622-.117-.239-.47.162-1.646.346-2.079a11.2,11.2,0,0,1,1.464-2.1,2.511,2.511,0,0,0,.548-1.556,3.028,3.028,0,0,0-.576-1.858.462.462,0,0,0-.754.059c-3.692,5.926-6.137,6.84-8.382,12.19-1.112,2.674-5.44,4.4-7.771,5.668-2.819,1.525-6.435,1.965-11.412,3.812l10.016,8.293c.616-.474,1.233-.941,1.851-1.385,1.7-1.229,3.4-2.439,5.043-3.739,1.46-1.164,3.1-2.181,4.5-3.39a4.78,4.78,0,0,1,1.3-.833c.658-.154.013-.192,1.954-.253a11.553,11.553,0,0,0,3.439-.74c.625-.223,1.245-.483,1.856-.766.121-.054.242-.107.367-.165a44.314,44.314,0,0,0,6.368-3.569c1.016-.688,2.034-1.387,3.005-2.146.416-.326,1.32-.862,1.458-1.432.079-.332.259-1.139-.357-.909a37.773,37.773,0,0,0-4.779,2.61c-.156.088-.8.53-.635-.058.019-.082.416-.284.491-.34q1.639-1.124,3.37-2.124a9.374,9.374,0,0,0,2.078-1.489c.377-.414.584-.857.354-1.271-.25-.457-.822-.415-1.422-.213a11.692,11.692,0,0,0-1.64.792,47.267,47.267,0,0,0-5,3.109,2.066,2.066,0,0,1-.745.123c-.26-.048-.54-.342-.444-.626.081-.233,6.3-3.846,6.5-3.953.156-.087.353-.182.564-.294.943-.489,2.118-1.226.923-2.076-.966-.695-1.933-.058-2.825.488-.1.066-.213.13-.318.19-1.212.706-2.425,1.412-3.66,2.086-.294.161-1.86,1.251-2.224,1.033-.546-.326.1-.91.347-1.136,1.584-1.432,2.848-2.486,3.813-3.3a19.911,19.911,0,0,0,1.88-1.7c.584-.647.624-1.067.147-1.595A1.1,1.1,0,0,0,807.4,3559.607Z"/><path class="a" d="M751.328,3601.59c2.593,4.619,10.015-.024,10.431,5.213h0c.426,5.233-7.02,10.19-7.02,10.19l-55.556,8.123c-7.6,1.154-14.505-6.276-14.549-12.049-.036-5,4.873-11,10.685-11.434C695.319,3601.633,744.046,3588.618,751.328,3601.59Z"/><path class="a" d="M757.137,3615.963a11.332,11.332,0,0,0,1.319-.955l41.464-33.292c.757-.645-11.257-15.247-11.68-14.885,0,0-32.524,19.707-42.735,32.847-3.259,4.19-3.989,10.44-.54,14.407A9.583,9.583,0,0,0,757.137,3615.963Z"/><path class="e" d="M727.718,3825.617s-12.329-.336-7.713,13.861c1.2,3.692,8.376,2.641,8.376,2.641a6.23,6.23,0,0,1,3.825-.42,17.508,17.508,0,0,1,3.795,2.044c7.077,3.588,16.587-.292,18.464-3.9,2.7-5.16-6.016-7.7-14.454-10.018C731.2,3827.413,727.718,3825.617,727.718,3825.617Z"/><path class="e" d="M719.125,3833.717l.608-25.348,17.919,1.484-.31,23.4Z"/><path class="c" d="M680.558,3847.163s-10.343-5.528-12.917,7.884q-.1.513-.181,1.064c-.578,3.839,6.311,6.108,6.311,6.108a6.229,6.229,0,0,1,3.609,1.335,17.576,17.576,0,0,1,2.481,3.525c4.725,6.374,14.023,6.139,17.313,3.756,4.719-3.41-.993-8.563-7.505-14.406C682.867,3850.325,680.558,3847.163,680.558,3847.163Z"/><path class="e" d="M680.558,3845.3s-10.877-5.814-13.1,8.948c-.578,3.839,6.311,6.108,6.311,6.108a6.227,6.227,0,0,1,3.609,1.335,17.6,17.6,0,0,1,2.481,3.525c4.725,6.374,14.023,6.139,17.313,3.756,4.719-3.41-.993-8.563-7.505-14.406C682.867,3848.466,680.558,3845.3,680.558,3845.3Z"/><path class="e" d="M667.426,3854.716l.139-25.355,17.944,1.152.123,23.4Z"/><path class="a" d="M736.551,3820.078c-3.761,2.029-13.1,1.762-17.427-.7-9.975-5.664-2.115-50.378-2.115-50.378s-2.585-7.209-5.3-16.937c-1.676-6.038-3.4-13.04-4.589-19.9-.5-2.923-.908-5.821-1.166-8.6a64.34,64.34,0,0,1-.293-8.335,26.1,26.1,0,0,1,1.535-8.512c2.918-7.289,30.846-6.739,30.846-6.739l.676,4.649,2.272,15.646,6.729,46.3S748.769,3813.49,736.551,3820.078Z"/><path class="f" d="M738.152,3782.365c2.022,4.55,5.268,4.452,9.024,3.141.738-10.338.548-18.922.548-18.922l-3.375-23.228C726.33,3747.926,731.327,3769.689,738.152,3782.365Z"/><path class="g" d="M736.965,3704a57.018,57.018,0,0,1-1.66,5.564c-4.529,12.59-10.118,8.582-19.134,20.188-.081.419-.167.843-.252,1.282-1.091,5.584-2.535,12.884-4.206,21.027-6.265,30.583-15.65,73.05-20.885,81.042-6.886,9.476-22.586,2.246-24.2-2.666-4.831-14.665,8.285-45.546,10.662-53.043,2.595-8.159.394-29.089-1.332-42.169-.495-3.741-.95-6.8-1.187-9.506a24.109,24.109,0,0,1,1.055-10.718,33.04,33.04,0,0,1,3.8-7.235c1.923-2.882,8.855,3.762,17.149,6.427a24.874,24.874,0,0,0,8.89,1.04c5.675-.288,11.556-2.08,17.094-4.069A72.032,72.032,0,0,0,736.965,3704Z"/><path class="f" d="M694.243,3765.638c-8.363,9.409-11.5,25.091-8.363,37.636,0,3.531,7.45,4.081,12.916,6.053,3.184-12.19,6.586-27.256,9.633-41.531C703.133,3764.364,696.027,3763.854,694.243,3765.638Z"/><path class="h" d="M740.994,3720.282c-5.144,4.906-14.545,8.819-25.075,10.757a80.725,80.725,0,0,1-8.795,1.131c-11.757.859-23.843-.878-32.355-6.446a24.109,24.109,0,0,1,1.055-10.718,124.231,124.231,0,0,0,11.6,5.664,43.478,43.478,0,0,0,18.532,2.9c11.182-.646,22.193-5.382,29.347-14a33.392,33.392,0,0,0,3.417-4.933Z"/><path class="i" d="M739.157,3711.6c-6.8,12.875-47.259,20.761-63.485,5.477-.894-.842-6.366-89.31.081-100.152,7.176-12.068,26.124-26.9,54.393-6.778C735.306,3613.825,741.985,3706.249,739.157,3711.6Z"/><path class="j" d="M730.146,3610.152c-28.269-20.122-47.217-5.29-54.392,6.778a17.7,17.7,0,0,0-1.621,5.6c10.456,19.142,18.087,41.266,37.812,54.087,6.273,4.182,16.728,9.409,21.955-1.046,5.227,8.364,5.227,18.819,1.046,25.091-8.364,15.682-29.273,20.91-44.955,14.637a98.858,98.858,0,0,1-15.284-8.067c.418,5.943.785,9.682.965,9.852,16.226,15.283,56.684,7.4,63.485-5.478C741.985,3706.25,735.306,3613.825,730.146,3610.152Z"/><path class="a" d="M723.095,3667.454c-2.179-16.335-6.42-32.292-11.384-47.976a.442.442,0,0,0-.851.235c3.571,15.846,7.905,31.581,9.852,47.741a139.131,139.131,0,0,1,.944,22.109c-.325,8.256-2.045,16.186-3.29,24.311a1.374,1.374,0,0,0,2.647.729C726.407,3700.052,725.108,3682.544,723.095,3667.454Z"/><path class="d" d="M702.435,3610.557c-2.772-.734-6.011-4.07-6.011-4.07l-.225-8.7,16.124-.782s.21,6.909-.058,9.182C711.945,3608.948,706.59,3611.67,702.435,3610.557Z"/><path class="i" d="M694.3,3598.79l-.623,5.315s3.856,4.786,7.544,6.24c5.525,2.193,13.4-.157,14.348-3.54a49.022,49.022,0,0,0,.937-5.1C708.923,3603.413,694.4,3602.835,694.3,3598.79Z"/><path class="k" d="M709.378,3562.942c-1.8-1.044-6.294-2.07-8.445-.038-.575.544-.9,1.484-.2,1.9,1.19.706,2.994,1.589,3.461,2.813.655,1.7.373,3.777,1.362,5.353,1.972,3.131,8.307.473,7.738-3.087C712.875,3567.286,711.877,3564.387,709.378,3562.942Z"/><path class="l" d="M690.42,3595.268c2.785,2.467,11.689,7.024,15.028,7.307,6.07.518,14.533-3.241,16.233-9.027,2.273-7.713-4.779-16.927-12.3-26.019s-15.877-5.076-18.574,3.684C688.113,3579.956,681.583,3587.444,690.42,3595.268Z"/><path class="k" d="M692.907,3557.07a23.468,23.468,0,0,0-14.106,10.415,18.363,18.363,0,0,0-2.18,4.626c-1.69,4.742-1.1,10.286,1.584,15.417s7.747,9.116,12.932,11.568a18.041,18.041,0,0,0,4.23,1.363c.391.164.777.324,1.173.481,2.441.957,6.185,1.98,9.261,1.628,1.141.072,10.142,1.027,15.6-2.968,3.925-2.859,4.925-7.111,2.132-10.218-.39-1.486-2.344-4.359-3.11-5.9.02.175-.355.426-.619.431a4.112,4.112,0,0,0-3.424,1.071,2.615,2.615,0,0,0-.424.974c-1.726.475-2.071,3.291-2.248,4.738-.172,1.365-.348,3.363.585,4.543a25.062,25.062,0,0,1-8.089,2.215,12.52,12.52,0,0,0-4.1-.171c-7.07,1.045-10.022-3.451-10.173-5.478-.356-4.851,6.232-.541,8.787-1.492,2.483-.938-5.773-7.03-4.62-12.64.279-1.368.66-3.349,2.075-4.326a29.722,29.722,0,0,1,6.077-2.689c3.07-1.231,7.091-4.382,4.924-8.153C705.862,3556.756,698.749,3555.188,692.907,3557.07Zm24.212,36.343a3.126,3.126,0,0,1-.091-.691,13.667,13.667,0,0,1,.08-2.3,16.073,16.073,0,0,0,.327-3.063,28.4,28.4,0,0,0,3.149-.756c-.014,1.978-.247,4.11-1.043,5.026a12.514,12.514,0,0,1-2.363,1.989C717.156,3593.548,717.139,3593.48,717.119,3593.413Z"/><g class="m"><g class="m"><g class="m"><path class="n" d="M697.285,3616.194l6.568-3.817a84.915,84.915,0,0,1,24.392-7.626l-6.568,3.817a84.906,84.906,0,0,0-24.392,7.626Z"/></g></g><g class="m"><g class="m"><path class="n" d="M728,3618.21l6.568-3.817c-3.114,1.809-14.484,18.316-15.124,19.246l-6.568,3.817c.64-.93,12.01-17.437,15.124-19.246Z"/></g></g><g class="m"><g class="m"><path class="n" d="M732.6,3607.79l6.569-3.817a6.744,6.744,0,0,0-1.34,5.513l-6.569,3.817a6.751,6.751,0,0,1,1.34-5.513Z"/><path class="o" d="M731.265,3613.3l6.569-3.817c.624,4.339,3.963,8.708,4.173,9.511,0,.016.007.032.009.046l-6.568,3.817c0-.014-.005-.029-.009-.046-.211-.8-3.549-5.172-4.174-9.511Z"/><path class="n" d="M735.448,3622.86l6.568-3.817c.009.058,0,.094-.03.111l-6.568,3.817c.028-.017.038-.053.03-.111Z"/></g></g><path class="p" d="M764.206,3578.427l6.568-3.817,6.827,12.941-6.568,3.817Z"/><path class="q" d="M725.783,3594.845l6.568-3.817,38.423-16.418-6.568,3.817Z"/><path class="r" d="M764.206,3578.428l6.827,12.941L732.6,3607.79c-4.355,5.2,2.529,13.861,2.834,15.024.054.213-.077.21-.339.058a30.647,30.647,0,0,1-2.636-2.072,27.616,27.616,0,0,0-3.222-2.415,3.6,3.6,0,0,0-.689-.323c-1.91-.589-14.986,18.4-15.674,19.394-9.834-15.727-15.306-20.985-15.594-21.262a84.906,84.906,0,0,1,24.392-7.626,38.473,38.473,0,0,1,4.106-13.722Z"/></g><g class="m"><g class="m"><g class="m"><path class="s" d="M870.3,3534.877l-103.225,44.832a4.088,4.088,0,0,1,.329-1.233l103.225-44.832a4.058,4.058,0,0,0-.329,1.233Z"/><path class="t" d="M870.627,3533.644,767.4,3578.476a2.229,2.229,0,0,1,1.04-1.119l103.225-44.832a2.229,2.229,0,0,0-1.04,1.119Z"/><path class="u" d="M871.667,3532.525l-103.225,44.832.072-.033,103.225-44.832-.072.033Z"/></g></g><g class="m"><g class="m"><path class="u" d="M876.048,3542.6l-103.225,44.832a2.728,2.728,0,0,1-2.682-.584,7.346,7.346,0,0,1-1.953-2.313l103.225-44.832a7.344,7.344,0,0,0,1.953,2.313,2.727,2.727,0,0,0,2.682.584Z"/><path class="s" d="M870.492,3537.381a7.11,7.11,0,0,1-.194-2.5l-103.225,44.832a7.088,7.088,0,0,0,.194,2.5,9.437,9.437,0,0,0,.921,2.325l103.225-44.832A9.433,9.433,0,0,1,870.492,3537.381Z"/></g></g><path class="v" d="M870.3,3534.877c.291-2.466,2.136-3.275,4.124-1.8a8.564,8.564,0,0,1,3.069,7.138c-.292,2.47-2.137,3.28-4.125,1.8A8.562,8.562,0,0,1,870.3,3534.877Z"/><path class="c" d="M871.052,3535.437c.23-1.948,1.688-2.588,3.259-1.423a6.767,6.767,0,0,1,2.425,5.64c-.23,1.952-1.689,2.592-3.259,1.427A6.769,6.769,0,0,1,871.052,3535.437Z"/></g><g class="m"><path class="c" d="M860.6,3538.883l-1.533-1.15a.762.762,0,0,0,.77.016l1.533,1.151A.759.759,0,0,1,860.6,3538.883Z"/><path class="c" d="M863.487,3536.179l1.533,1.151-3.652,1.57-1.533-1.151Z"/><path class="c" d="M864.534,3533.75l1.533,1.151a.751.751,0,0,1,.23.718,2.356,2.356,0,0,1-1.277,1.71l-1.533-1.15a2.357,2.357,0,0,0,1.277-1.711A.749.749,0,0,0,864.534,3533.75Z"/><path class="c" d="M863.769,3533.734c.626-.269,1.072.06.995.734a2.357,2.357,0,0,1-1.277,1.711l-3.652,1.57c-.626.269-1.078-.058-1-.732a2.364,2.364,0,0,1,1.282-1.713Z"/></g><path class="g" d="M726.648,3662.294c-2.4,4.723,5.586,8.312,1.463,11.57h0c-4.113,3.262-8.586,2.923-10.965,1.509-13.178-7.831-41.74-44.916-41.74-44.916-5.182-5.674-.144-13.982,4.631-17.227,4.14-2.811,11.852-2.062,15.445,2.528C695.482,3615.758,733.383,3649.031,726.648,3662.294Z"/><path class="d" d="M741.346,3592.912c0,.011-.055.448-.146,1.148-.111.885-.274,2.186-.447,3.557-.286,2.241-.591,4.678-.743,5.816-.058.41-.089.656-.094.662-.151.343-.333.415-.522.357-.5-.163-1.05-1.278-1.226-1.715a11.139,11.139,0,0,1-.447-2.517,2.514,2.514,0,0,0-.713-1.488,3.036,3.036,0,0,0-1.722-.907.462.462,0,0,0-.491.575c1.581,6.8.5,9.176,2.7,14.547,1.1,2.677-.738,6.954-1.485,9.5-.915,3.073-3.161,5.941-5.373,10.766l12.947-1.22c.1-.771.205-1.537.329-2.288.329-2.067.68-4.13.921-6.21.208-1.856.647-3.733.786-5.582a4.76,4.76,0,0,1,.333-1.511c.356-.573-.128-.144,1.2-1.56a11.579,11.579,0,0,0,1.908-2.955c.284-.6.539-1.223.77-1.855.048-.123.1-.247.143-.376a44.277,44.277,0,0,0,1.978-7.027c.232-1.205.458-2.419.607-3.643.064-.524.324-1.542.018-2.042-.179-.291-.623-.989-.9-.391a37.724,37.724,0,0,0-1.532,5.225c-.048.172-.192.942-.49.409-.045-.072.093-.5.106-.589q.366-1.953.881-3.884a9.417,9.417,0,0,0,.416-2.523c-.026-.559-.194-1.018-.649-1.148-.5-.148-.874.287-1.155.854a11.819,11.819,0,0,0-.6,1.719,47.228,47.228,0,0,0-1.338,5.737,2.06,2.06,0,0,1-.439.613.539.539,0,0,1-.757-.128c-.107-.222,1.737-7.178,1.8-7.4.048-.172.12-.378.191-.606.32-1.013.63-2.365-.816-2.121-1.175.192-1.408,1.326-1.652,2.343-.027.121-.058.243-.091.359-.358,1.357-.716,2.714-1.112,4.063-.094.322-.43,2.2-.842,2.3-.617.156-.574-.713-.557-1.049.106-2.132.254-3.771.363-5.029a20.221,20.221,0,0,0,.128-2.528c-.044-.871-.313-1.2-1.023-1.232A1.1,1.1,0,0,0,741.346,3592.912Z"/><path class="g" d="M731,3672.35a11.214,11.214,0,0,0,.643-1.5l19.165-51.728c.319-.942-17.521-8.087-17.7-7.56,0,0-18.907,34.485-20.446,52.768-.446,5.289,1.928,11.008,6.924,12.645A9.582,9.582,0,0,0,731,3672.35Z"/><path class="a" d="M698.388,3606.669c-7.523-5.187-22.084-2.523-25.674,6.145-.3.717.723,1.032,1.113.5,2.707-3.7,9.106-5.77,13.439-5.958,3.129-.136,7.675-.542,10.631.48C698.616,3608.082,698.95,3607.057,698.388,3606.669Z"/></g></svg>