<svg xmlns="http://www.w3.org/2000/svg" xmlns:xlink="http://www.w3.org/1999/xlink" width="532.575" height="462.995" viewBox="0 0 532.575 462.995"><defs><style>.a{fill:#c4c4c4;}.b{fill:#acacad;}.c{fill:#e8e9e9;}.d{fill:#5a332b;}.e{fill:#6c3e37;}.f{fill:#5a9030;}.g{fill:#7bb63b;}.h{fill:#649e30;}.i{fill:#b2d06e;}.j{fill:#844e49;}.k{fill:#713a38;}.l{fill:#995d5a;}.m{fill:#bbbab9;opacity:0.5;}.bc,.bk,.bl,.bm,.bn,.bq,.bx,.m,.u{mix-blend-mode:multiply;}.bc,.bk,.bl,.bm,.bn,.bq,.bx,.m,.u,.v{isolation:isolate;}.n{fill:#c8834b;}.o{fill:#ef5925;}.p{fill:#fc993f;}.q{fill:#f36c25;}.r{fill:#f67a35;}.s{fill:#d4491b;}.t{fill:#f78135;}.ac,.u{fill:#a14e20;}.bm,.bx,.u{opacity:0.4;}.w{fill:#f47433;}.x{fill:#dc7840;}.y{fill:#eb3d23;}.z{fill:#dd7c46;}.aa{fill:#eb3c1a;}.ab{fill:#f57932;}.ad{fill:#ffe7da;}.ae{fill:#ffefe6;}.af{fill:#467ec0;}.ag{fill:#e8232a;}.ah{fill:#ffa511;}.ai{fill:#fc922e;}.aj{fill:#e8252d;}.ak{fill:#8a3e19;}.al{fill:#a07962;}.am{fill:#674f40;}.an{fill:#b58a6f;}.ao{fill:#258958;}.ap{fill:#268b54;}.aq{fill:#175531;}.ar{fill:#217e50;}.as{fill:#1b6341;}.at{fill:#21794e;}.au{fill:#fff;}.av{fill:#a40a2b;}.aw{fill:#f3a600;}.ax{fill:url(#a);}.ay{fill:url(#b);}.az{fill:url(#c);}.ba{fill:url(#d);}.bb{fill:#28150e;}.bc,.bk,.bl,.bn,.bq{opacity:0.3;}.bc{fill:url(#e);}.bd{fill:url(#f);}.be{fill:#98bbe3;}.bf{fill:url(#g);}.bg{fill:url(#h);}.bh{fill:url(#i);}.bi{fill:url(#j);}.bj{fill:url(#k);}.bk{fill:url(#l);}.bl{fill:url(#m);}.bm{fill:#004f76;}.bn{fill:url(#n);}.bo,.bq{fill:#5b1c46;}.bp{fill:url(#o);}.br{fill:#ba481b;}.bs{fill:#2c8243;}.bt{fill:url(#p);}.bu{fill:url(#q);}.bv{fill:url(#r);}.bw{fill:url(#s);}.bx{fill:#3f8dcd;}</style><linearGradient id="a" x1="2.076" y1="0.039" x2="1.168" y2="0.996" gradientUnits="objectBoundingBox"><stop offset="0.005" stop-color="#5b0527"/><stop offset="0.99" stop-color="#370b1c"/></linearGradient><linearGradient id="b" x1="9.132" y1="0.5" x2="10.372" y2="0.5" gradientUnits="objectBoundingBox"><stop offset="0.01" stop-color="#d18e7f"/><stop offset="0.99" stop-color="#d46967"/></linearGradient><linearGradient id="c" x1="12.713" y1="0.5" x2="14.512" y2="0.5" xlink:href="#b"/><linearGradient id="d" x1="6.833" y1="1.047" x2="4.853" y2="-0.389" xlink:href="#b"/><linearGradient id="e" x1="3.097" y1="0.5" x2="4.173" y2="0.5" gradientUnits="objectBoundingBox"><stop offset="0" stop-color="#005ba8"/><stop offset="0.99" stop-color="#0353a2"/></linearGradient><linearGradient id="f" x1="4.491" y1="1.117" x2="4.286" y2="-0.024" xlink:href="#a"/><linearGradient id="g" x1="9.212" y1="1.044" x2="8.592" y2="0.241" xlink:href="#b"/><linearGradient id="h" x1="15.622" y1="0.819" x2="15.361" y2="0.293" xlink:href="#b"/><linearGradient id="i" x1="16.776" y1="0.924" x2="16.463" y2="0.263" xlink:href="#b"/><linearGradient id="j" x1="18.593" y1="1.098" x2="18.256" y2="0.113" xlink:href="#b"/><linearGradient id="k" x1="36.677" y1="0.939" x2="36.3" y2="0.244" xlink:href="#b"/><linearGradient id="l" x1="2.541" y1="-0.031" x2="1.539" y2="1.053" xlink:href="#a"/><linearGradient id="m" x1="10.645" y1="0.062" x2="7.792" y2="0.957" xlink:href="#a"/><linearGradient id="n" x1="1.763" y1="0.5" x2="2.839" y2="0.5" xlink:href="#e"/><linearGradient id="o" x1="12.121" y1="0.5" x2="13.121" y2="0.5" xlink:href="#b"/><linearGradient id="p" x1="10.662" y1="0.5" x2="11.769" y2="0.5" xlink:href="#b"/><linearGradient id="q" x1="17.721" y1="0.5" x2="19.622" y2="0.5" xlink:href="#b"/><linearGradient id="r" x1="6.22" y1="1.144" x2="6.183" y2="0.13" xlink:href="#b"/><linearGradient id="s" x1="3.235" y1="0.5" x2="4.235" y2="0.5" xlink:href="#b"/></defs><g transform="translate(-73.305 -3230.785)"><g transform="translate(0 -1)"><path class="a" d="M398.1,3439.662c9.027,4.043,20.838,7.679,30.535,4.989,6.082-1.687,11.429-5.407,16.667-8.791,3.083-1.991,16.281-10.247,20.541-9.846a29.3,29.3,0,0,1,4.286-.427c-.518-5.109-2.275-10.2-5.784-13.136-3.714-3.106-9.583-3.381-14.07-4.392-7.369-1.662-15.126-2.124-22.126-4.965-8.437-3.423-22.994-12.035-35.867,1.913-6.135,6.647-10.691,14.413-11.217,21.581.178.105.364.2.536.314C387.721,3430.807,391.078,3436.518,398.1,3439.662Z"/><path class="b" d="M384.475,3437.856c7.2,8.826,19.716,17.1,31.019,19.025,12.119,2.069,25.681-3.3,37.205-6.589,8.347-2.384,14.778-5.986,16.914-15.012a30.214,30.214,0,0,0,.513-9.693,29.3,29.3,0,0,0-4.286.427c-4.26-.4-17.458,7.855-20.541,9.846-5.238,3.384-10.585,7.1-16.667,8.791-9.7,2.69-21.508-.946-30.535-4.989-7.019-3.144-10.376-8.855-16.5-12.76-.172-.11-.358-.209-.536-.314A15.455,15.455,0,0,0,384.475,3437.856Z"/><path class="c" d="M460.424,3414.255c-1.383-3.059-9.558-1.435-14.844-1.687-8.848-.42-12.435-6.813-21.181-6.816-5.864,0-8.52,1.458-5.836,3.327,3.1,2.157,4.712,4.761,7.729,6.894a18.835,18.835,0,0,1,5.849,6.112c.364.568.375,1.352.823,1.875,4.059,4.738,13.79-1.61,18.1-3.187C452.743,3420.159,462.248,3418.291,460.424,3414.255Z"/><path class="b" d="M440.549,3430.1c-.664-1.151-5.257.579-6.212-.709-3.549-4.792-4.379-5.594-8.683-7.95-6.225-3.409-12.614-8.648-11.195-5.727,1.96,4.03,9.977,8.9,9.071,15.46s-2.435,8.27,3.653,6.349S443.235,3434.759,440.549,3430.1Z"/><path class="b" d="M400.794,3432.784c-1.407.193-1.953,3.711,4.259,4.066s10.015,0,11.574-2.485,4.044-6.389,1.2-5.679-3.017,3.372-6.567,4.081S405.941,3432.074,400.794,3432.784Z"/><path class="c" d="M402.959,3404.425a7.913,7.913,0,0,0-3.424,2.529,26.812,26.812,0,0,1-5.473,5.433,8.373,8.373,0,0,0-2.942,3.011c-2.385,4.8,3.35,10.37,7.257,5.847.629-.728.915-2.233,1.363-2.972a8.672,8.672,0,0,1,2.508-2.486c1.283-.91,2.729-1.577,4.08-2.374,2.109-1.245,4.632-2.869,5.379-5.376C413.081,3403.429,406.364,3402.3,402.959,3404.425Z"/><path class="a" d="M342.038,3501.349c8.773,2.454,17.891,4.493,27.038,3.029,15.646-2.5,27.778-13.276,37.655-25.085-4.614-8.775-17.212-16.2-26.3-18.783-10.361-2.949-19.289,3.148-28.579,7.435-8.936,4.124-21.532,7.753-25.667,17.547a16.742,16.742,0,0,0-1.178,10.873c.018.008.034.011.051.019C330.04,3496.05,337.319,3500.029,342.038,3501.349Z"/><path class="b" d="M365.12,3516.058c12.738.569,23.217-5.5,33.378-14.2,6.019-5.149,12.214-14.6,8.494-22.145-.071-.143-.186-.279-.261-.422-9.877,11.809-22.009,22.583-37.655,25.085-9.147,1.464-18.265-.575-27.038-3.029-4.719-1.32-12-5.3-16.98-4.965-.017-.008-.033-.011-.051-.019C328.779,3511.055,355.928,3515.647,365.12,3516.058Z"/><path class="b" d="M372.34,3484.19c-2.987-1.828-5.811.939-8.321,2.143-7.629,3.66-10.05-.752-15.515-4.6a6.813,6.813,0,0,0-3.911-1.489c-1.5-.043-7.838,4.271-7.748,8.082.067,2.784,5.766,5.055,8.348,6.385,4.3,2.213,8.735,3.278,13.512,2.1a31.8,31.8,0,0,0,7.711-3.335c1.688-.934,5.171-1.412,7.283-4.758C374.72,3487.1,374.017,3485.215,372.34,3484.19Z"/><path class="c" d="M384.005,3467.133c-4.937-1.967-9.714-1.476-14.481.062-4.446,1.434-11.452,2.446-12.534,5.7-.907,2.727,1.772,3.767,3.991,4.119,3.126.495,5.735-1.368,8.7-1.762,3.854-.514,9.78,2.635,12.42,5.074.7.649.923,1.553,1.728,2.154,3.716,2.775,10.09.767,13.9-.979a1.637,1.637,0,0,0,.808-1.409C399.068,3473.6,388.947,3469.1,384.005,3467.133Z"/><path class="a" d="M441.024,3476.583c12.018-1.409,21.019-9.713,31.808-13.232a18.9,18.9,0,0,0-5.437-7.365c-5.957-5.064-12.29-4.09-18.987-5.143-8.648-1.362-19.325-.618-26.694,2.338-2.989,1.2-7.48,3.032-9.669,6.006a52.425,52.425,0,0,1,7.836,6.28C426.209,3471.815,430.672,3477.8,441.024,3476.583Z"/><path class="b" d="M410.819,3463.916c1.139,6.563,10.987,15.725,16.359,18.809,6.881,3.952,14.981,4.188,22.511,2.129,6.883-1.882,19.493-6.417,22.9-13.162a10.023,10.023,0,0,0,.246-8.341c-10.789,3.519-19.79,11.823-31.808,13.232-10.352,1.213-14.815-4.768-21.143-11.116a52.425,52.425,0,0,0-7.836-6.28A5.968,5.968,0,0,0,410.819,3463.916Z"/><path class="c" d="M438.013,3452.722c-2.373-.024-15.2.716-14.291,5.5,1.164,6.148,18.329,1.767,20.927,1.743,3.919-.035,25.548,5.345,20.578-.636C460.644,3453.818,445.251,3452.792,438.013,3452.722Z"/><path class="d" d="M500.976,3342.123c-6.387,3.444-17.086,12.006-19.4,11.248-3.318-1.09-12.536-12.649-15.33-17.18s-11.577-28.154-11.577-28.427-3.991-.953-2.8,3.123c.161.548.526,1.51,1.025,2.736.514-.142.935-.156,1.142.117,2.167,2.853,11.178,23.7,13.042,27.782s10.711,13.891,13.3,19.611-1.8,14.5-4.543,24.923-6.634,19.611-11.624,17.159-12.774-15.933-15.769-23.7-5.987-17.159-7.783-21.015-7.386-10.036-9.581-15.959c-.156-.42-.244-.8-.358-1.2l-.013-.024a3.985,3.985,0,0,1-.179-.618,13.84,13.84,0,0,1-.393-2.868,84.27,84.27,0,0,1-.227-12.758c.4-2.98,4.077-21.256,4.077-21.256s-5.673.131-6.871,3.944-2.793,25.2-3.592,26.136-8.782.285-11.975,0-8.383-5.882-8.383-5.882l-2,2.49s5.256,8.28,10.379,7.376c10.682-1.885,24.3,15.35,27.581,23.113s6.387,21.109,9.942,28.969c1.274,2.816,5.988,7.955,9.877,15.31s6,9.651,6.527,15.1c.353,3.606.108,12.836.4,17.3.48,7.341,3.083,41.974,3.083,41.974,5.189,8.376,14.444,2.031,14.954.6s-6.878-35.107-8.076-39.985-2.152-16.547-2.015-21.3c.176-6.1,2.943-12.969,5.892-15.881,4.044-3.993,16.463-7.61,19.657-8.427,1.584-.406,2.972-3.933,4.066-7.707a51.567,51.567,0,0,1-9.684,5.852c-5.988,2.86-15.923,6.128-15.923,6.128l1.219-3.745a113.675,113.675,0,0,0,5.145-13.692c1.433-4.758,2.468-15.913,3.35-20.688.82-4.433,9.431-8.23,19.809-15.2s14.219-25.311,14.219-25.311l-8.331-2.561S507.362,3338.679,500.976,3342.123Z"/><path class="d" d="M530.372,3352.962c-4.162,3.665-10.059,8.463-14.416,15.852,2.292-1.058,12.524-11.8,21.517-19.666a85.924,85.924,0,0,1,13.04-9.4,12.573,12.573,0,0,0-1.677-3.474C544.655,3340.311,534.678,3349.171,530.372,3352.962Z"/><path class="e" d="M548.117,3336c-10.245,5.387-29.178,26.785-37.107,28.618s-7.369,17.675-10.528,21.984-21.424,8.579-21.424,8.579l-1.219,3.745s9.935-3.268,15.923-6.128a51.567,51.567,0,0,0,9.684-5.852c1.11-3.83,1.918-7.915,2.32-9.258.8-2.666,6.787-7.957,9.98-8.774a1.928,1.928,0,0,0,.21-.1c4.357-7.389,10.254-12.187,14.416-15.852,4.306-3.791,14.283-12.651,18.464-16.685C548.592,3336.021,548.347,3335.878,548.117,3336Z"/><path class="e" d="M467.084,3341.522c-1.864-4.086-10.875-24.929-13.042-27.782-.207-.273-.628-.259-1.142-.117,3.205,7.9,12.4,27.7,14.943,31.981,5.1,8.582,11.348,16.755,10.205,22.055-1.668,7.743-8.17,31.607-10.964,32.561-4.318,1.472-9.374-7.94-12.111-11.713-1.665-2.3-8.686-20.82-10.3-25.723s-13.079-19.518-13.938-21.44c.114.4.2.78.358,1.2,2.2,5.923,7.784,12.1,9.581,15.959s4.79,13.253,7.783,21.015,10.778,21.246,15.769,23.7,8.877-6.741,11.624-17.159,7.137-19.2,4.543-24.923S468.948,3345.608,467.084,3341.522Z"/><path class="f" d="M441.626,3255.39c-5.427-3.894-11.2-1.455-13.709,3.225a5.334,5.334,0,0,0-4.811-2.524c-3.207.085-4.756,2.861-5.565,5.76-1.843-3.309-4.808-6.617-8.39-4.874-2.9,1.41-2.685,4.261-1.7,6.814-3.087-1.336-6.681-1.926-8.869,1.245-2.215,3.209.245,7.318,2.6,10.249-4.336,8.316-3.551,22.5,4.417,26.986,12.791,7.207,23.839-8.01,28.469-17.964,1.8-3.876,3.346-7.9,5.472-11.615,1.539-2.684,5.029-5.552,5.822-8.545C446.283,3260.68,444.355,3257.347,441.626,3255.39Z"/><path class="f" d="M573.78,3265.772c-1.883-.762-6.767,1.119-6.767,1.119s-.431-4.208-1.373-5.282a5.276,5.276,0,0,0-7.051-1.077c-.755-6.215-7.721-9.878-11-4.465-1.736-3.475-4.936-6.525-9.04-4.384-3.273,1.706-3.3,5.144-2.6,8.391-5.311,3.892-7.44,14.056-3.657,19.21,3.458,4.712,10.153,2.863,15.027,2.846a88.543,88.543,0,0,1,14.929,1.245c1.832.3,4.9,1.537,6.866.775C575.156,3281.809,582.526,3269.31,573.78,3265.772Z"/><path class="f" d="M516.841,3305.349c-10.038-6.881-24.876-12.661-36.455-6.188-7.183,4.016-11.292,12.658-9.321,20.482a.542.542,0,0,0-.25.106c-10.917,11.058,4.531,25.857,15.472,17.454.476,4.575,1.867,9.485,6.591,10.817a6.779,6.779,0,0,0,6.994-1.807c2.11,4.081,5.066,8.069,9.932,7.972a7.186,7.186,0,0,0,7-5.024c8.8,3.325,17.267-2.718,18.872-12.488C537.811,3323.677,526.421,3311.917,516.841,3305.349Z"/><path class="g" d="M594.005,3296.985c-1.545-4.458-9.585-4.061-14.654-3.806,2.974-4.859,5.5-11.6.3-15.729-3.545-2.814-9.346-1.669-14.776.448.385-3.736-.9-8.12-3.545-9.347-2.118-.98-4.56,1.108-5.835,2.682a8.827,8.827,0,0,0-1.913,4.5,21.182,21.182,0,0,0-13.419-.773c1.4-4.927,2.253-10.958-1.248-14.9-5.46-6.145-16.741-10.056-25.273-5.522-2.512-6.577-9-10.38-11.8-11.28-4.411-1.418-8.536.462-11.352,3.8-4.953-8.113-15.15-16.3-24.336-15.17a11.742,11.742,0,0,0-9.774,7.753c-7.8-2.3-14.8-3.318-21.148,2.578-4.137,3.84-4.762,13.844-1.545,19.017a21.829,21.829,0,0,0-8.117,3.609c-3.95,2.981-3.348,9.2-1.025,13.244a8.527,8.527,0,0,0-5.493,2.348,4.715,4.715,0,0,0-1.391,4.364c-1.645.285-3.273.625-4.892,1.052-.034-5.871-2.557-12.007-8.829-13.294a9.733,9.733,0,0,0-10.837,5.57c-2.717-3.938-6.456-7.445-11.363-5.838a7.829,7.829,0,0,0-4.52,3.686c.253,2.887,1.145,7.992,4.383,10.956a70.629,70.629,0,0,0-7.8,9.118c-4.81,7.744,2.228,21.362,14.556,19.241-.421,8.137,4.594,12.343,10.807,12.181,4.522,1.081,11.248-3.819,11.895-8.026,3.771,3.982,12.62,3.982,14.874-3.915,7.937,3.393,16.024-.77,17.664-9.993,5.928,4.024,16.2,3.5,19.974-3.771,9.139,3.771,13.3-2.49,14.942-8.6,4.872,3.171,15.712,2.044,19.409-1.929,0,7.5,8.593,13.446,18.038,9.863-1.417,4.674,7.232,11.343,14.416,7.21,1.374,8.14,12.135,8.14,14.72,5.209,3.046,4.741,12.006,5.23,15.231,0,.871,2.931,5.762,3.172,7.249.879,12.744,16.089,28.074,5.874,31.438-8.993-1.163-1.268-3.1-2.306-6.25-2.817C593.588,3300.887,594.693,3298.972,594.005,3296.985Z"/><path class="h" d="M598.682,3315.238c.821-1.3,3.46-6.415.328-9.828-3.364,14.867-18.694,25.082-31.438,8.993-1.487,2.293-6.378,2.052-7.249-.879-3.225,5.23-12.185,4.741-15.231,0-2.585,2.931-13.346,2.931-14.72-5.209-7.184,4.133-15.833-2.536-14.416-7.21-9.445,3.583-18.038-2.363-18.038-9.863-3.7,3.973-14.537,5.1-19.409,1.929-1.645,6.11-5.8,12.371-14.942,8.6-3.771,7.271-14.046,7.795-19.974,3.771-1.64,9.223-9.727,13.386-17.664,9.993-2.254,7.9-11.1,7.9-14.874,3.915-.647,4.207-7.373,9.107-11.895,8.026-6.213.162-11.228-4.044-10.807-12.181-12.328,2.121-19.366-11.5-14.556-19.241a70.629,70.629,0,0,1,7.8-9.118c-3.238-2.964-4.13-8.069-4.383-10.956a6.741,6.741,0,0,0-.678,1.844,9.288,9.288,0,0,0-11.032,3.966c-3.26,5.037-2.234,10.714-.052,16.045-2.767-.01-6.451.243-7.915,3.208-1.831,3.708,6.293,5.533,9.655,7.134-6.946,2.93-4.435,13.6,2.594,13.677-2.975,3.838-5.1,8.638-2.19,13.206,2.621,4.109,6.386,3.734,9.837,1.974a9.693,9.693,0,0,0,15.1,9.784c6.7,8.082,15.381-.068,19.764-7.4,5.553,9.045,17.393,9.845,24.117,1.083,4.45,2.476,11.251,5.039,14.059-.479,2.77-5.441,1.173-10.14-1.821-13.2,4.16.8,5.092-2.193,6.442-6.822a9.438,9.438,0,0,0,.35-2.412,13.58,13.58,0,0,0,5.061,1.619c4.989.555,10.036-.693,11.367-5.323,3.593.272,8.79.481,11.729-3.926a10.807,10.807,0,0,0,.853-10.052,15.676,15.676,0,0,0,10.843-3.56c-3.186,6.675.9,14.044,7.579,16.278-2.59,3.845-1.336,10.687,2.278,14.252,3.131,3.089,14.564,10.126,18.471,5.353.851,2.157,2.541,3.834,4.887,3.637a6.293,6.293,0,0,0,3.969-2.249c1.8,2.39,8.646,3.124,12.7,1.5a15.341,15.341,0,0,0,3.869,12.272c2.13,2.451,5.636,3.473,8.118,3.813-3,6.4-3.2,11.986-1.255,15.672a10.612,10.612,0,0,0,10.154,5.268c6.438-.564,16.387-9.02,14.712-16.377,9.584-.129,20.7-4.232,22.733-14.936.753-3.967-.84-8.592-3.1-11.963C606.061,3327.484,609.859,3317.962,598.682,3315.238Z"/><path class="g" d="M545.989,3375.024c-2.35-4.564-7.492-4.181-12.307-4.71.96-1.182,1.44-4.99.065-6.457-3.06-3.268-8.782-.817-11.633,1.182.3-3.641-4.8-6.065-8.838-3.277-2.1-6.153-12.135-3.05-9.832,4.774-4.732.284-5.844,5.778-3.132,8.008-3.808,2.324-4.706,6.81-.911,10.558-2.315,1.516-4.242,5.039-2.941,8.42,2.145,5.573,7.547,5.778,12.729,5.51.039,4,4.6,9.843,10.586,9.767,7.4-.094,13.055-4.663,11.667-10.024,5.108,1.6,11.066.46,14.079-4.664a7.8,7.8,0,0,0-1.83-10.315C546.3,3382.558,548.012,3378.954,545.989,3375.024Z"/><path class="i" d="M450.387,3246.939a.225.225,0,0,0-.152-.274c-3.072-.5-4.036,5.536-1.441,6.729.36.165.912-.019.873-.513-.088-1.072-.547-2.021-.371-3.115C449.463,3248.732,450.155,3247.934,450.387,3246.939Z"/><path class="i" d="M385.657,3292.28a.406.406,0,0,0-.586.461,18.813,18.813,0,0,1,.8,3.025,4.752,4.752,0,0,0,.433,2.186.6.6,0,0,0,.94.125C388.748,3296.407,387.4,3293.263,385.657,3292.28Z"/><path class="i" d="M470.028,3248.01a.406.406,0,0,0-.586.461,18.678,18.678,0,0,1,.8,3.025,4.745,4.745,0,0,0,.433,2.187.6.6,0,0,0,.94.124C473.119,3252.138,471.77,3248.994,470.028,3248.01Z"/><path class="i" d="M381.13,3300.93c-2.458.028-2.863,3.242-1.065,4.535.311.225.69-.082.708-.417a17.91,17.91,0,0,1,.812-3.507A.486.486,0,0,0,381.13,3300.93Z"/><path class="i" d="M500.1,3285.335c-2.459.029-2.864,3.243-1.066,4.536.312.224.691-.082.71-.417a17.986,17.986,0,0,1,.81-3.508A.485.485,0,0,0,500.1,3285.335Z"/><path class="i" d="M402.974,3312.631a4.8,4.8,0,0,0-.157,4.068.777.777,0,0,0,.86.359l.357-.089a1.258,1.258,0,0,0,.876-.9c.226-1.026.2-2.689-.824-3.349C403.835,3312.562,403.2,3312.246,402.974,3312.631Z"/><path class="i" d="M378.869,3323.172c-1.416.693-2.458,2.179-1.809,3.769a.6.6,0,0,0,1,.271,7.976,7.976,0,0,0,1.368-3.6A.388.388,0,0,0,378.869,3323.172Z"/><path class="i" d="M513.969,3370.078c-1.417.693-2.46,2.18-1.81,3.77a.6.6,0,0,0,1,.27,7.99,7.99,0,0,0,1.369-3.6A.389.389,0,0,0,513.969,3370.078Z"/><path class="i" d="M405.385,3296.321a.7.7,0,0,0-.4,1.008,2.393,2.393,0,0,0,3.067,1.5.675.675,0,0,0,.456-.821A2.482,2.482,0,0,0,405.385,3296.321Z"/><path class="i" d="M429.8,3299.892c-1.2.95-1.763,2.3-.919,3.647a.528.528,0,0,0,.909,0,6.5,6.5,0,0,0,.919-3.106A.55.55,0,0,0,429.8,3299.892Z"/><path class="i" d="M524.436,3394c-1.2.95-1.762,2.3-.918,3.648a.528.528,0,0,0,.908,0,6.5,6.5,0,0,0,.92-3.106A.552.552,0,0,0,524.436,3394Z"/><path class="i" d="M551.835,3288.068c-1.2.95-1.763,2.3-.918,3.647a.527.527,0,0,0,.908,0,6.5,6.5,0,0,0,.919-3.106A.551.551,0,0,0,551.835,3288.068Z"/><path class="i" d="M526.068,3372.222a.406.406,0,0,0-.586.46,18.849,18.849,0,0,1,.8,3.025,4.757,4.757,0,0,0,.432,2.187.6.6,0,0,0,.94.124C529.16,3376.349,527.811,3373.205,526.068,3372.222Z"/><path class="i" d="M557.917,3304.43c-2.457.028-2.863,3.242-1.066,4.535.312.225.692-.082.71-.416a18,18,0,0,1,.811-3.509A.486.486,0,0,0,557.917,3304.43Z"/><path class="i" d="M579.761,3316.131a4.8,4.8,0,0,0-.157,4.069.78.78,0,0,0,.861.358l.356-.09a1.25,1.25,0,0,0,.876-.9c.226-1.026.2-2.689-.823-3.349C580.623,3316.063,579.985,3315.746,579.761,3316.131Z"/><path class="i" d="M582.171,3299.82a.7.7,0,0,0-.4,1.009,2.4,2.4,0,0,0,3.067,1.5.677.677,0,0,0,.457-.823A2.484,2.484,0,0,0,582.171,3299.82Z"/><path class="i" d="M512.655,3381.956a.3.3,0,0,0-.173.437c.6,1.374,1.828,3.059,3.411,3.033a.753.753,0,0,0,.725-.742C516.816,3382.662,514.334,3381.558,512.655,3381.956Z"/><path class="i" d="M389.051,3331.185a2.642,2.642,0,0,0-1.062,2.933.6.6,0,0,0,.878.366,2.618,2.618,0,0,0,1.113-2.9A.552.552,0,0,0,389.051,3331.185Z"/><path class="i" d="M440.46,3266.434c-.2.154-.292.542,0,.673a16.085,16.085,0,0,0,4.085,1.244.841.841,0,0,0,.794-1.4A3.594,3.594,0,0,0,440.46,3266.434Z"/><path class="i" d="M526.964,3386.153c-.2.154-.291.543,0,.673a16.146,16.146,0,0,0,4.086,1.245.841.841,0,0,0,.794-1.4A3.6,3.6,0,0,0,526.964,3386.153Z"/><path class="i" d="M458.471,3278.679c-2.29.559-4.294,3.844-2.372,5.842a.778.778,0,0,0,1.225-.161c.855-1.489.871-3.346,1.7-4.945A.5.5,0,0,0,458.471,3278.679Z"/><path class="i" d="M531.638,3297.9c-2.29.559-4.3,3.845-2.373,5.842a.777.777,0,0,0,1.225-.161c.856-1.49.871-3.347,1.7-4.944A.5.5,0,0,0,531.638,3297.9Z"/><path class="i" d="M497.3,3270.159c-2.29.559-4.295,3.844-2.371,5.842a.777.777,0,0,0,1.224-.161c.856-1.49.871-3.347,1.7-4.945A.5.5,0,0,0,497.3,3270.159Z"/><path class="i" d="M524.849,3286.376a.74.74,0,0,0-.169,1.322,8.473,8.473,0,0,0,4.158,1.475c.516.039.7-.553.533-.949A3.384,3.384,0,0,0,524.849,3286.376Z"/><path class="i" d="M453.834,3299.865c-1.024,1.165-1.536,2.727-.308,3.9a.693.693,0,0,0,1.083-.143c.757-1.078.469-2.247.194-3.493A.579.579,0,0,0,453.834,3299.865Z"/><path class="i" d="M516.981,3263.745c-1.022,1.165-1.536,2.726-.307,3.9a.691.691,0,0,0,1.082-.143c.757-1.078.469-2.247.2-3.493A.579.579,0,0,0,516.981,3263.745Z"/><path class="i" d="M473.29,3268.182c-1.024,1.165-1.536,2.725-.308,3.9a.692.692,0,0,0,1.082-.143c.758-1.078.469-2.247.2-3.493A.579.579,0,0,0,473.29,3268.182Z"/><path class="j" d="M539.667,3509.551c15.517-5.116,37.173-15.571,43.464-31.747,4.914-12.636.454-24.11-6.077-34.665-16.632-9.628-35.167-13.568-48.75-10.727-14.138,2.958-31.431,15.94-53.024,30.981-8.957,6.238-14.491,14.137-16.431,22.126C467.09,3515.789,514.7,3517.785,539.667,3509.551Z"/><path class="k" d="M473.194,3515.485c21.545,12.377,74.019,14.044,103.913-6.477s30.092-43.208,11.143-58.255a92.646,92.646,0,0,0-11.2-7.614c6.531,10.555,10.991,22.029,6.077,34.665-6.291,16.176-27.947,26.631-43.464,31.747-24.97,8.234-72.577,6.238-80.818-24.032C456.113,3496.789,460.587,3508.242,473.194,3515.485Z"/><path class="l" d="M554.977,3450.6c-4.27-5.5-29.085-10.22-34.916-7.835-11.858,4.853-24.162,13.83-34.3,21.554-6.288,4.791-12.022,11.647-11.1,20.088,1.151,10.532,13.128,15.062,22.1,16.862,21.3,4.279,42.945-5.621,55.236-23.2C557.564,3470.107,561.634,3459.17,554.977,3450.6Z"/><path class="l" d="M552.167,3457.609c-3.723-2.072-6.9-1.342-10.042,1.42a27.022,27.022,0,0,0-3.824,4.607c-3.366,2.676-6.545,5.7-10.325,7.779-9.525,5.237-18.814,5.522-29.338,4.953-4.54-.245-13.274-.706-15.684,4.543-1.667,3.631,1.008,7.064,4.054,8.722,5.815,3.165,14.628,3.961,21.178,4.409a41.379,41.379,0,0,0,19.321-3.184,44.178,44.178,0,0,0,25.646-30.824A2.2,2.2,0,0,0,552.167,3457.609Z"/><path class="j" d="M420.953,3538.095c6.167,6.4,16.057,8.793,24.393,11.126,9.632,2.7,19.88,4.293,29.424.407,3.376-1.375,6.168-3.988,9.284-5.7-4.089-10.043-30.994-31.282-34.834-33.392-13.323-7.322-23.838-4.163-33.344,4.242C414.281,3522.992,414.77,3531.677,420.953,3538.095Z"/><path class="k" d="M407.2,3532.935c-1.025,11.359,6.566,15.4,13.773,20.93,9.38,7.2,16.477,8.565,28.6,10.054,11.756,1.443,37.684-1.846,34.979-18.416a7.687,7.687,0,0,0-.5-1.578c-3.116,1.715-5.908,4.328-9.284,5.7-9.544,3.886-19.792,2.289-29.424-.407-8.336-2.333-18.226-4.727-24.393-11.126-6.183-6.418-6.672-15.1-5.077-23.32C411.516,3518.629,407.8,3526.38,407.2,3532.935Z"/><path class="l" d="M457.751,3530.843c-4.926-5.575-16.458-17.935-24.3-17.935-6.982,0-13.52,5.548-12.339,13.4,2.134,14.2,20.273,15.705,31.6,17.093,2.881.354,9.287,1.86,10.5-2.288C464.257,3537.565,459.808,3533.171,457.751,3530.843Z"/><path class="l" d="M443.116,3529.646c-2.672-2.9-2.721-7.426-6-9.8-2.314-1.675-6.657-3.076-9.219-1.2a6.81,6.81,0,0,0-2.475,6.578,14.674,14.674,0,0,0,3.556,7.9c2.839,2.839,14.934,9.682,17.581,3.467C447.841,3533.581,444.855,3531.534,443.116,3529.646Z"/><path class="j" d="M560.656,3537.917a37.68,37.68,0,0,0,18.562-3.808c8.576-4.535,16.181-11.885,17.855-21.231-2.455-1.275-5.637-2.251-8.94-3.565-12.914-5.138-28.853,4.084-37.766,11.5a24.932,24.932,0,0,0-3.367,3.377C548.187,3532.313,551.833,3537.081,560.656,3537.917Z"/><path class="k" d="M554.043,3543.689c14.033,3.932,27.695-1.055,34.5-6.451,6.162-4.884,11.165-10.149,12.554-14.687,1.61-5.265-.414-7.8-4.028-9.673-1.674,9.346-9.279,16.7-17.855,21.231a37.68,37.68,0,0,1-18.562,3.808c-8.823-.836-12.469-5.6-13.656-13.723C539.545,3533.276,546.055,3541.451,554.043,3543.689Z"/><path class="l" d="M561.334,3519c-4.954,3.534-10.827,11.073-1.775,13.986,8.6,2.768,20.856-2.024,27.454-7.423,2.548-2.086,4.882-5.291,3.306-8.581C588.547,3513.28,569.662,3513.053,561.334,3519Z"/><path class="l" d="M582.746,3521.048c-1.721-1.569-7.844,1.336-9.562,1.893a86.679,86.679,0,0,0-9.032,3.048c-1.943.882-3.235,3.024-.817,4.365,1.6.887,4.1.339,5.813.123a31.953,31.953,0,0,0,8.03-2.1C580.4,3527.064,585.77,3523.8,582.746,3521.048Z"/></g><g transform="translate(0 -1)"><path class="m" d="M178.915,3654.5a16.559,16.559,0,0,0,15,0c4.138-2.39,4.138-6.269,0-8.652a16.559,16.559,0,0,0-15,0C174.774,3648.234,174.774,3652.113,178.915,3654.5Z"/><path class="m" d="M129.008,3661.877c10.413,6.009,27.271,6.009,37.677,0s10.4-15.729,0-21.752c-10.406-6.006-27.264-6.006-37.677,0C118.605,3646.148,118.605,3655.871,129.008,3661.877Z"/><path class="n" d="M161.2,3522.475l59.018-34.555,108.538,62.724v67.239Z"/><path class="o" d="M220.112,3435.992l.149,51.966L75.581,3572.517l-.149-50.781Z"/><path class="o" d="M117.773,3423.956v75.814l103.365-60.911v-70.841Z"/><path class="p" d="M285.965,3694.781,75.574,3572.6l-.142-50.867,8.469,4.88,201.9,116.548Z"/><path class="q" d="M287.944,3644.5,73.305,3520.455l42.416-25.14,215.185,123.749Z"/><path class="r" d="M116.754,3349.976l103.7-60.044,69.469,40.112L186.41,3390.2Z"/><path class="s" d="M325.345,3315.262l-1.7,1h-.017l-1.55.9-8.907,5.17h-.01l-1.541.9-9.881,5.74-1.554.895h-.021l-9.539,5.55-1.554.905-9.487,5.522-1.558.895-9.916,5.782-1.554.891-9.3,5.405-1.544.9-9.056,5.27-1.554.905-9.646,5.595-1.554.922-9.228,5.35-1.541.895-1.319.767-35.364,1.24,1.993-1.154,1.551-.9,9.194-5.343,1.554-.915,9.667-5.605,1.564-.908,9.039-5.253,1.554-.894,9.311-5.429,1.554-.895,9.94-5.775,1.537-.905,9.495-5.509,1.565-.912,9.522-5.547h.014l1.554-.9,9.906-5.74,1.534-.895h.021l8.9-5.184,1.554-.891h.01l1-.6Z"/><path class="t" d="M361.06,3355.671l-103.517,60.148-35.729-40.392,103.531-60.165Z"/><path class="o" d="M257.551,3415.829l103.51-60.158-.045,15.418L257.5,3431.243Z"/><path class="p" d="M221.825,3375.42l35.726,40.409-.052,15.414,71.262,41.145v78.256l-212.007-122.36v-78.308L186.41,3390.2l.041-13.532Z"/><path class="r" d="M257.5,3431.243l103.517-60.155,71.262,41.135-103.517,60.165Z"/><path class="o" d="M432.278,3412.224l-103.517,60.165v145.335l-42.955,25.437.152,51.62,146.32-86.31Z"/><path class="u" d="M285.965,3652.866l42.806-24.905,2.134-5.222-42.962,25.6-2.127-1.2Z"/><path class="p" d="M328.761,3550.644l-3.578-2.072v67.114l3.578,2.037Z"/><g class="v"><path class="r" d="M297.207,3545.5l-.031,12.617-211.962-122.4v-12.592Z"/><path class="o" d="M297.207,3545.5l31.553-32.093v12.872l-31.585,31.837Z"/><path class="w" d="M328.771,3513.409,297.21,3545.5l-.224-.131-.774-.452L86.091,3423.593l-.774-.442-.117-.073,31.554-32.1.587.342,210.111,121.318.774.449Z"/></g><path class="o" d="M299.262,3556.018l3.982-4.021,25.516,15.449v6.044Z"/><path class="x" d="M121.4,3455.565l-3.585-2.065v43.114l3.585,2.041Z"/><path class="y" d="M328.226,3513.084l-31.239,32.286-.774-.452,31.239-32.282Z"/><path class="y" d="M317.311,3506.781l-31.263,32.272-.781-.442,31.26-32.279Z"/><path class="y" d="M306.08,3500.3l-31.267,32.279-.777-.452,31.257-32.272Z"/><path class="y" d="M295.145,3493.985l-31.267,32.269-.753-.428,31.236-32.279h.021Z"/><path class="y" d="M283.806,3487.443l-31.257,32.272-.763-.439,31.243-32.282Z"/><path class="y" d="M272.893,3481.137l-31.254,32.279-.777-.453,31.243-32.269Z"/><path class="y" d="M261.654,3474.647l-31.263,32.269-.774-.446,31.257-32.279Z"/><path class="y" d="M250.712,3468.334l-31.243,32.276-.753-.442,31.243-32.283Z"/><path class="y" d="M239.228,3461.7,208,3493.992h-.014l-.763-.446,31.239-32.3Z"/><path class="y" d="M228.321,3455.392l-31.26,32.286-.773-.452,31.253-32.286Z"/><path class="y" d="M217.069,3448.913,185.826,3481.2l-.77-.459,31.243-32.269Z"/><path class="y" d="M206.148,3442.606l-31.257,32.279-.757-.456,31.26-32.272Z"/><path class="y" d="M194.813,3436.062l-31.257,32.272-.767-.449,31.267-32.272Z"/><path class="y" d="M183.878,3429.751l-31.243,32.279-.756-.449,31.246-32.279Z"/><path class="y" d="M172.674,3423.248,141.4,3455.534l-.781-.436,31.267-32.279Z"/><path class="y" d="M161.725,3416.952l-31.239,32.265-.781-.442,31.247-32.276Z"/><path class="y" d="M150.445,3410.431l-31.267,32.279-.764-.446,31.257-32.282Z"/><path class="y" d="M139.5,3404.1l-31.236,32.279h-.017l-.76-.425,31.236-32.289Z"/><path class="y" d="M128.283,3397.631,97.008,3429.9l-.756-.449,31.247-32.269h.014Z"/><path class="z" d="M117.341,3391.318l-31.25,32.276-.774-.442,12.807-13.218,18.63-18.958Z"/><path class="aa" d="M260.162,3414.3l-.756.432-35.688-40.416.773-.449Z"/><path class="aa" d="M270.658,3408.2l-.749.435L234.231,3368.2l.76-.428Z"/><path class="aa" d="M281.731,3401.755l-.757.452-35.681-40.416.75-.449Z"/><path class="aa" d="M292.358,3395.594l-.753.442L255.917,3355.6l.757-.432Z"/><path class="aa" d="M303.21,3389.287l-.746.422L266.783,3349.3l.76-.446Z"/><path class="aa" d="M314.669,3382.628l-.767.452-35.678-40.444.767-.435Z"/><path class="aa" d="M325.687,3376.218l-.763.449-35.681-40.434.763-.431Z"/><path class="aa" d="M336.8,3369.78l-.764.421L300.343,3329.8l.777-.449Z"/><path class="aa" d="M348.181,3363.156l-.767.449-35.684-40.427.753-.449Z"/><path class="aa" d="M359.154,3356.78l-.753.432L322.7,3316.8l.777-.445Z"/><path class="ab" d="M224.674,3373.765l-1.541.895-34.69.853,1.551-.9Z"/><path class="ab" d="M235.457,3367.493l-1.554.922-34.714.857,1.554-.915Z"/><path class="ab" d="M246.657,3360.993l-1.554.905-34.693.853,1.564-.908Z"/><path class="ab" d="M257.257,3354.825l-1.544.9-34.7.867,1.554-.894Z"/><path class="ab" d="M268.112,3348.529l-1.554.891-34.679.846,1.554-.895Z"/><path class="ab" d="M279.586,3341.853l-1.558.895-34.655.85,1.537-.905Z"/><path class="ab" d="M290.628,3335.425l-1.554.905-34.669.853,1.565-.912Z"/><path class="ab" d="M301.742,3328.98l-1.554.895h-.021l-34.662.849,1.554-.9Z"/><path class="ab" d="M313.164,3322.339l-1.541.9-34.659.846,1.534-.895h.021Z"/><path class="ab" d="M323.632,3316.264l-1.55.9-34.666.839,1.554-.891h.01Z"/><path class="o" d="M83.9,3526.613v50.822l-.864-.5v-50.822Z"/><path class="o" d="M96.96,3534.156v50.864l-.867-.5v-50.867Z"/><path class="o" d="M110.644,3542.048v50.919l-.86-.494v-50.908Z"/><path class="o" d="M125.471,3550.62v50.953l-.86-.5v-50.961Z"/><path class="ac" d="M141.1,3559.638v51.009l-.87-.5v-51.009Z"/><path class="ac" d="M155.888,3568.165v51.068l-.863-.494v-51.064Z"/><path class="o" d="M170.919,3576.848v51.113l-.867-.5v-51.113Z"/><path class="ac" d="M187,3586.128v51.178l-.863-.5v-51.185Z"/><path class="o" d="M202.5,3595.073v51.24l-.86-.5v-51.23Z"/><path class="o" d="M217.628,3603.8v51.285l-.87-.5V3603.3Z"/><path class="o" d="M232.224,3612.239v51.333l-.857-.5v-51.333Z"/><path class="o" d="M246.93,3620.711V3672.1l-.863-.5v-51.385Z"/><path class="o" d="M261.961,3629.394v51.444l-.863-.5v-51.42Z"/><path class="o" d="M277.6,3638.429v51.5l-.87-.5v-51.5Z"/><path class="ad" d="M122.618,3374.529c0-7.536,5.285-10.593,11.809-6.828s11.808,12.924,11.808,20.46-5.284,10.586-11.808,6.814S122.618,3382.051,122.618,3374.529Z"/><path class="ae" d="M124.483,3375.6c0-6.328,4.459-8.9,9.944-5.734s9.933,10.873,9.933,17.2-4.449,8.907-9.933,5.743S124.483,3381.941,124.483,3375.6Z"/><path class="af" d="M126.176,3376.574c0-5.264,3.695-7.385,8.251-4.756s8.251,9.028,8.251,14.284-3.7,7.4-8.251,4.763S126.176,3381.844,126.176,3376.574Z"/><path class="ag" d="M128.244,3377.775c0-3.934,2.767-5.54,6.183-3.567a13.673,13.673,0,0,1,6.172,10.7c0,3.938-2.767,5.54-6.172,3.558A13.611,13.611,0,0,1,128.244,3377.775Z"/><path class="ah" d="M130.607,3379.133c0-2.438,1.713-3.416,3.82-2.207a8.445,8.445,0,0,1,3.82,6.624c0,2.425-1.707,3.423-3.82,2.2A8.446,8.446,0,0,1,130.607,3379.133Z"/><path class="u" d="M75.443,3524.768v6.048l210.522,122.05.035-5.623Z"/><path class="ad" d="M293.712,3473.87c0-7.526,5.291-10.582,11.808-6.818s11.816,12.924,11.816,20.454-5.291,10.586-11.816,6.817S293.712,3481.4,293.712,3473.87Z"/><path class="ae" d="M295.584,3474.948c0-6.335,4.452-8.9,9.936-5.73s9.94,10.872,9.94,17.21-4.445,8.9-9.94,5.733S295.584,3481.3,295.584,3474.948Z"/><path class="af" d="M297.276,3475.925c0-5.256,3.7-7.391,8.244-4.763s8.251,9.028,8.251,14.292-3.692,7.391-8.251,4.759S297.276,3481.185,297.276,3475.925Z"/><path class="ag" d="M299.352,3477.127c0-3.944,2.763-5.533,6.168-3.568a13.645,13.645,0,0,1,6.183,10.7c0,3.937-2.767,5.536-6.183,3.564A13.647,13.647,0,0,1,299.352,3477.127Z"/><path class="ah" d="M301.7,3478.481c0-2.428,1.713-3.42,3.816-2.2a8.418,8.418,0,0,1,3.82,6.61c0,2.439-1.706,3.423-3.82,2.207A8.461,8.461,0,0,1,301.7,3478.481Z"/><path class="ai" d="M140.136,3516.946c3.481,2.01,3.481,5.277,0,7.28l-17.988,10.386a13.9,13.9,0,0,1-12.623,0l-14.04-8.1c-3.481-2.01-3.481-5.274,0-7.287l17.991-10.386a13.962,13.962,0,0,1,12.63,0Z"/><path class="aj" d="M120.743,3533.807a10.853,10.853,0,0,1-9.819,0l-14.037-8.092c-2.7-1.572-2.7-4.11,0-5.671l18-10.389a10.918,10.918,0,0,1,9.829,0l14.023,8.1c2.707,1.564,2.707,4.106,0,5.671Z"/><path class="ai" d="M131.322,3528.509l-1.755,1.022-25.344-14.63,1.751-1.015Z"/><path class="ai" d="M103.83,3530.816l-1.751-1.012,29.716-17.169,1.758,1.022Z"/><path class="ai" d="M283.385,3598.22c3.485,2.007,3.485,5.267,0,7.274L265.4,3615.883a13.962,13.962,0,0,1-12.63,0l-14.03-8.1c-3.481-2.014-3.481-5.274,0-7.291l17.995-10.389a13.974,13.974,0,0,1,12.627,0Z"/><path class="aj" d="M263.992,3615.074a10.849,10.849,0,0,1-9.816,0l-14.026-8.1c-2.707-1.572-2.707-4.1,0-5.665l17.995-10.4a10.858,10.858,0,0,1,9.809,0l14.032,8.11c2.7,1.561,2.7,4.1,0,5.661Z"/><path class="ai" d="M274.578,3609.78l-1.758,1.012-25.34-14.627,1.747-1.019Z"/><path class="ai" d="M247.079,3612.091l-1.751-1.019,29.72-17.162,1.758,1.009Z"/><path class="r" d="M73.305,3520.455v3.063L287.9,3648.342l.045-3.986Z"/><path class="s" d="M287.944,3644.356v3.986l42.962-25.6v-3.675Z"/><path class="ak" d="M118.087,3546.493l1.685.974,43.152-25.03-1.858-1.06Z"/><path class="ai" d="M187.663,3543.509c3.492,2.013,3.492,5.274,0,7.287l-17.987,10.4a14.006,14.006,0,0,1-12.624,0l-14.022-8.112c-3.485-2.011-3.485-5.274,0-7.285l17.987-10.389a13.944,13.944,0,0,1,12.621,0Z"/><path class="aj" d="M168.277,3560.37a10.861,10.861,0,0,1-9.822,0l-14.026-8.092c-2.708-1.568-2.708-4.107,0-5.671l17.984-10.386a10.885,10.885,0,0,1,9.822,0l14.03,8.1c2.7,1.561,2.7,4.106,0,5.675Z"/><path class="ai" d="M178.846,3555.082l-1.755,1.009-25.337-14.63,1.758-1.009Z"/><path class="ai" d="M151.371,3557.383l-1.765-1.012,29.723-17.162,1.755,1.012Z"/><path class="ak" d="M164.806,3573.066l1.682.97,42.723-24.905-1.665-.957Z"/><path class="ai" d="M232.894,3569.571c3.488,2.007,3.488,5.274,0,7.284L214.9,3587.241a13.943,13.943,0,0,1-12.63,0l-14.033-8.1c-3.481-2.017-3.481-5.284,0-7.295l18-10.385a13.953,13.953,0,0,1,12.617,0Z"/><path class="aj" d="M213.5,3586.429a10.837,10.837,0,0,1-9.82,0l-14.029-8.1c-2.708-1.564-2.708-4.1,0-5.66l17.988-10.4a10.877,10.877,0,0,1,9.818,0l14.033,8.106c2.7,1.565,2.7,4.1,0,5.664Z"/><path class="ai" d="M224.077,3581.138l-1.761,1.015-25.334-14.627,1.751-1.019Z"/><path class="ai" d="M196.581,3583.438l-1.751-1.009,29.73-17.148,1.741,1Z"/><path class="ak" d="M210.065,3599.7l1.678.967,43.155-25.216-1.858-1.047Z"/><path class="ak" d="M263.263,3630.382l1.682.97,43.317-25.233-1.855-1.053Z"/><g class="v"><path class="al" d="M157.184,3521.315v4.407l-6.738,3.9,0-4.41Z"/><path class="am" d="M150.445,3529.642l-2.435-1.416,0-4.431,2.435,1.413Z"/><path class="an" d="M150.442,3525.207l-2.435-1.413,6.742-3.892,2.435,1.412Z"/></g><g class="v"><path class="ao" d="M159.083,3518.407a.819.819,0,0,1,.1-.011h.093a.19.19,0,0,1,.08.024l-.967-.614-.418-.263-.017,0-.025-.007a.048.048,0,0,1-.024-.014h-.021a.177.177,0,0,0-.045,0,.085.085,0,0,1-.034,0h0a.1.1,0,0,0-.063.014s-.021,0-.027.007a.123.123,0,0,0-.031,0h-.011c-.027.014-.065.031-.093.048l-.915.477,1.378.877.918-.476a.837.837,0,0,1,.111-.052A.016.016,0,0,0,159.083,3518.407Z"/><path class="ap" d="M159.215,3517.053a.328.328,0,0,1,.165.034h0l-.131-.083L158,3516.22h-.007c0-.014,0-.014-.014-.024a.1.1,0,0,0-.03,0c-.011,0-.015-.011-.025-.011s-.02,0-.034,0h-.066a.173.173,0,0,0-.052.01.1.1,0,0,0-.065.031.507.507,0,0,0-.09.025l-1.364.725a1.177,1.177,0,0,0-.194.134h-.007c-.014.025-.038.039-.051.059a.137.137,0,0,0-.045.059.063.063,0,0,0-.031.031c-.018.021-.018.024-.021.038H155.9a.111.111,0,0,1-.035.045c0,.014-.01.024-.02.038s-.007.017-.018.038-.01.017-.017.031-.01.017-.014.031-.007.014-.007.014v.007c0,.007-.01.01-.01.02s0,.025-.01.028c0,.021-.011.031-.011.048s-.014.031-.014.042a.465.465,0,0,1,0,.066l-.038.88,1.385.871.028-.878a1.275,1.275,0,0,1,.048-.21h.01a1.022,1.022,0,0,1,.1-.2h0c.055-.072.107-.12.162-.183a.9.9,0,0,1,.2-.138l1.357-.718a.545.545,0,0,1,.218-.069Z"/><path class="aq" d="M132.254,3535.644a.264.264,0,0,0,.021-.086l-1.368-.87c-.017.038-.024.083-.038.121a.139.139,0,0,0-.01.034c-.01.031-.028.076-.045.124v.011a1.254,1.254,0,0,1-.072.134v.014a.64.64,0,0,1-.08.131.026.026,0,0,0-.007.021c-.031.042-.066.087-.1.131,0,0-.007,0-.018.014a.638.638,0,0,1-.121.125c-.034.031-.079.062-.107.09a.173.173,0,0,0-.055.041,1.606,1.606,0,0,1-.2.121,1.759,1.759,0,0,1-.183.083c-.007,0-.02.01-.031.01-.052.011-.093.024-.141.035h-.011a.384.384,0,0,1-.127-.014h0a.37.37,0,0,1-.111-.042l.694.443.687.431c.018.011.025.017.039.017s.027.011.034.018a.033.033,0,0,1,.031.013h.048a.061.061,0,0,0,.042.011c.014,0,.031-.011.041-.011h.011c.031,0,.059-.013.086-.013l.059-.018a.105.105,0,0,0,.034-.006c0-.007.007-.007.017-.011a1.453,1.453,0,0,0,.16-.073c.075-.037.138-.075.2-.113.024-.021.031-.035.048-.049a.529.529,0,0,0,.114-.093c.007,0,.007,0,.007,0a1.019,1.019,0,0,1,.093-.083.093.093,0,0,0,.028-.035.046.046,0,0,1,.021-.017c0-.01,0-.01,0-.014.021-.021.028-.035.048-.055s.028-.038.045-.059c0,0,0,0,.007-.007a.007.007,0,0,1,.007-.007.029.029,0,0,1,.017-.031.286.286,0,0,1,.028-.048c.01-.018.021-.042.027-.052s0,0,.008-.01h0c.006-.017.017-.032.024-.049a.524.524,0,0,0,.027-.065c0-.011.007-.018.011-.031a.076.076,0,0,1,0-.018s.014-.006.014-.014a.208.208,0,0,1,.028-.079.078.078,0,0,1,.006-.031c.007,0,.007-.021.007-.031A.2.2,0,0,0,132.254,3535.644Z"/><path class="ar" d="M133.011,3532.284v-.01a1.029,1.029,0,0,1,.152-.159.791.791,0,0,1,.2-.145l23.728-12.52-1.385-.871-23.714,12.52a.78.78,0,0,0-.21.145.007.007,0,0,0-.007.007.615.615,0,0,0-.066.062.18.18,0,0,0-.041.049.226.226,0,0,1-.032.031h0c-.006,0-.006.007-.006.014a.14.14,0,0,1-.024.034.175.175,0,0,0-.018.028c-.01.014-.01.028-.02.038s-.014.014-.014.027-.014.018-.024.031a.167.167,0,0,0-.007.028h0v.007c-.011,0-.011.017-.011.024a.12.12,0,0,0-.01.028.138.138,0,0,0-.014.038c0,.014,0,.017-.014.028,0,.031,0,.041,0,.065l1.378.87a.624.624,0,0,1,.055-.186h0A.747.747,0,0,1,133.011,3532.284Z"/><path class="as" d="M130.158,3536.673l-1.382-.873a.98.98,0,0,0,.336.753l1.377.877A1.011,1.011,0,0,1,130.158,3536.673Z"/><path class="as" d="M128.269,3535.23c0-.01.014-.017.014-.021.068-.072.137-.138.2-.207.014-.014.038-.024.055-.041.076-.056.159-.118.235-.163l4.069-2.145-1.378-.87-4.069,2.148a1.328,1.328,0,0,0-.231.156.386.386,0,0,0-.055.048.166.166,0,0,0-.049.045.761.761,0,0,0-.121.107.187.187,0,0,0-.038.052s-.017,0-.02.01-.025.031-.028.045a.619.619,0,0,0-.076.093c-.021.028-.041.059-.062.087a.158.158,0,0,1-.035.045c0,.006-.01.01-.014.017s-.017.021-.02.028a.622.622,0,0,1-.056.089.211.211,0,0,1-.048.093.3.3,0,0,0-.045.1.573.573,0,0,0-.062.111c-.038.065-.069.145-.114.217-.048.107-.114.225-.169.346s-.114.235-.176.356c-.069.145-.142.269-.218.407-.007.014-.017.017-.027.031a4.381,4.381,0,0,1-.308.46c-.083.093-.162.169-.245.248a.4.4,0,0,0-.038.034c-.086.052-.159.118-.235.156a1.811,1.811,0,0,1-.224.1.227.227,0,0,0-.066.017c-.073.01-.138.028-.2.035h-.252a1.282,1.282,0,0,1-.183-.035.135.135,0,0,1-.062-.01.62.62,0,0,1-.1-.028c-.059-.014-.118-.048-.149-.055s-.069-.035-.086-.048a.024.024,0,0,0-.017-.008l-.024-.01.1.052,1.288.815a.442.442,0,0,0,.125.059v0a.553.553,0,0,0,.141.063c.007,0,.007,0,.011,0,.031.014.072.021.1.031s.031.007.062.017h0a1.172,1.172,0,0,0,.166.024h.052c.031,0,.058,0,.089,0s.052,0,.083,0h.059a.991.991,0,0,0,.142-.024c.024-.01.034-.01.048-.017a.485.485,0,0,1,.052-.01.129.129,0,0,1,.066-.024,1.159,1.159,0,0,0,.165-.07,1.051,1.051,0,0,0,.228-.159.226.226,0,0,1,.055-.034.149.149,0,0,1,.024-.031.927.927,0,0,0,.1-.1l.076-.083a.083.083,0,0,0,.028-.034.791.791,0,0,0,.058-.076,1.036,1.036,0,0,0,.1-.142,1.642,1.642,0,0,0,.1-.148.305.305,0,0,0,.052-.1c.007,0,.014-.01.024-.02a.114.114,0,0,1,.035-.052c.041-.073.079-.149.124-.231.017-.039.042-.083.062-.128.052-.118.114-.228.17-.339s.113-.245.176-.366.114-.228.176-.335a3.4,3.4,0,0,1,.169-.3c.014-.007.014-.007.014-.014A1.487,1.487,0,0,1,128.269,3535.23Z"/><path class="ar" d="M123.541,3537.271c-2.2,1.648-9.633,6.341-10.01,6.587l1.372.877c.393-.253,7.822-4.943,10.015-6.6Z"/><path class="at" d="M158.955,3518.469l-.918.476.017-.407.912-.484a.985.985,0,0,0,.518-.732c.014-.259-.211-.352-.487-.2l-1.357.718a1.02,1.02,0,0,0-.525.732l-.028.878-23.728,12.52a.964.964,0,0,0-.514.683l-4.069,2.145a2.32,2.32,0,0,0-.894,1.012,12.457,12.457,0,0,1-1.081,1.938,1.713,1.713,0,0,1-.515.445,1.416,1.416,0,0,1-1.368-.055c-2.193,1.654-9.622,6.344-10.015,6.6-.011.252-.187,5.084-.229,6.61-.01.214.153.214.443.063,1.916-1.019,9.4-8.753,10.157-9.854a3.009,3.009,0,0,1,1.1-.936,5.032,5.032,0,0,1,1.672-.525c.135-1.174,1.806-3.2,1.9-3.3l.211-.121c.048.557.3,1.109,1.164.653a2.692,2.692,0,0,0,1.4-2l11.09-5.847a2.464,2.464,0,0,0,1.136-1.91.891.891,0,0,0-.262-.739l14.236-7.515a.97.97,0,0,0,.515-.7C159.446,3518.4,159.232,3518.32,158.955,3518.469Zm-27.529,18.2c-.508.27-.722.052-.8-.245l1.651-.87A1.54,1.54,0,0,1,131.426,3536.673Z"/><path class="as" d="M113.531,3543.858c-.01.258-.183,5.094-.238,6.621l1.381.866c.042-1.526.218-6.358.229-6.61Z"/></g><g class="v"><path class="al" d="M204.01,3548.05l0,4.421-6.742,3.892-.01-4.424Z"/><path class="am" d="M197.272,3556.385l-2.442-1.416v-4.435l2.431,1.406Z"/><path class="an" d="M197.261,3551.939l-2.431-1.406,6.742-3.892,2.439,1.409Z"/></g><g class="v"><path class="al" d="M249.914,3573.515v4.41l-6.731,3.9-.011-4.414Z"/><path class="am" d="M243.183,3581.842l-2.439-1.412v-4.435l2.428,1.413Z"/><path class="an" d="M243.172,3577.407l-2.428-1.413,6.735-3.9,2.435,1.416Z"/></g><g class="v"><path class="al" d="M303.134,3604.2l.007,4.421L296.4,3612.5v-4.417Z"/><path class="am" d="M296.4,3612.526l-2.431-1.416v-4.438l2.431,1.416Z"/><path class="an" d="M296.4,3608.087l-2.431-1.416,6.735-3.893,2.431,1.416Z"/></g><path class="au" d="M156.5,3399.355v-1.427l2.321,1.33v1.62a6.745,6.745,0,0,0,.225,2.024,1.831,1.831,0,0,0,.856,1.036c.422.245.7.256.846.041a3.048,3.048,0,0,0,.2-1.347,5.752,5.752,0,0,0-.363-1.975,13.319,13.319,0,0,0-1.16-2.249l-1.192-1.913a14.3,14.3,0,0,1-1.288-2.539,6.76,6.76,0,0,1-.47-2.431c0-1.323.259-2.162.767-2.518s1.4-.162,2.649.56a5.64,5.64,0,0,1,2.525,2.587,9.055,9.055,0,0,1,.666,3.678v1l-2.255-1.3v-1.161a6.1,6.1,0,0,0-.2-1.792,1.66,1.66,0,0,0-.763-.95c-.387-.217-.663-.252-.829-.09a1.386,1.386,0,0,0-.249,1,3.5,3.5,0,0,0,.249,1.371,15.55,15.55,0,0,0,.929,1.706l1.33,2.2a17.688,17.688,0,0,1,1.495,3.053,7.936,7.936,0,0,1,.508,2.7c0,1.506-.242,2.476-.757,2.9s-1.388.276-2.652-.452a6.068,6.068,0,0,1-2.642-2.729A9.346,9.346,0,0,1,156.5,3399.355Z"/><path class="au" d="M165.093,3408.842v-16.081l2.445,1.41v6.5l2.2,1.271v-6.51l2.449,1.422v16.075l-2.449-1.4v-7.477l-2.2-1.268v7.478Z"/><path class="au" d="M180.662,3416.855c-.556.453-1.457.314-2.686-.39a6.742,6.742,0,0,1-2.719-2.732,8.7,8.7,0,0,1-.863-4.017v-7.349q0-4.425,3.613-2.353a6.7,6.7,0,0,1,2.68,2.684,8.083,8.083,0,0,1,.815,3.765v7.363C181.5,3415.4,181.222,3416.406,180.662,3416.855Zm-3.581-3.582a1.852,1.852,0,0,0,.874,1.061c.445.255.742.238.88-.062a5.019,5.019,0,0,0,.215-1.841v-7.495a5.581,5.581,0,0,0-.221-1.786,1.8,1.8,0,0,0-.84-1.019c-.421-.231-.708-.227-.874.025a3.07,3.07,0,0,0-.255,1.512v7.5A7.494,7.494,0,0,0,177.081,3413.273Z"/><path class="au" d="M189.791,3422.122c-.56.452-1.451.321-2.687-.38A6.764,6.764,0,0,1,184.4,3419a8.582,8.582,0,0,1-.867-4.01v-7.353q0-4.425,3.606-2.345a6.544,6.544,0,0,1,2.673,2.676,8.132,8.132,0,0,1,.826,3.769v7.359C190.634,3420.668,190.357,3421.68,189.791,3422.122Zm-3.585-3.582a1.855,1.855,0,0,0,.88,1.068c.45.255.743.238.881-.073a5,5,0,0,0,.2-1.83v-7.5a5.993,5.993,0,0,0-.211-1.793,1.812,1.812,0,0,0-.842-1.018c-.418-.232-.708-.232-.874.02a3.075,3.075,0,0,0-.256,1.523v7.505A7.519,7.519,0,0,0,186.206,3418.54Z"/><path class="au" d="M193.68,3425.355v-13.967L191.8,3410.3v-2.124l6.13,3.547v2.117l-1.806-1.047v13.967Z"/><path class="au" d="M199.378,3428.632v-16.084l2.449,1.427v16.077Z"/><path class="au" d="M204.331,3431.5v-16.078l1.924,1.1,3.4,11.616-.176-4.48v-5.271l2.2,1.268v16.084l-1.734-1-3.492-12,.128,4.3v5.768Z"/><path class="au" d="M217.128,3439.052a5.986,5.986,0,0,1-2.377-2.566,9.218,9.218,0,0,1-.856-4.172v-6.994c0-1.488.29-2.449.874-2.891s1.506-.307,2.773.429a6.114,6.114,0,0,1,3.008,3.5,11.007,11.007,0,0,1,.387,3.125v1.14l-2.286-1.319v-1.682a4.677,4.677,0,0,0-.232-1.69,1.938,1.938,0,0,0-.877-.953c-.432-.245-.735-.242-.912.011a3.625,3.625,0,0,0-.262,1.744v6.973a8.14,8.14,0,0,0,.238,2.338,1.976,1.976,0,0,0,.922,1.154c.463.266.788.238.978-.1a4.741,4.741,0,0,0,.29-2.076v-2.173l-1.237-.708v-1.789l3.378,1.945v8.79l-1.1-.636-.376-1.8a.961.961,0,0,1-.833.8A2.474,2.474,0,0,1,217.128,3439.052Z"/><path class="au" d="M229.616,3446.261a5.92,5.92,0,0,1-2.365-2.567,9.012,9.012,0,0,1-.864-4.165v-6.994c0-1.485.3-2.455.874-2.891s1.509-.3,2.777.428a6.142,6.142,0,0,1,3.005,3.5,11.045,11.045,0,0,1,.387,3.119v1.143l-2.287-1.316v-1.688a4.865,4.865,0,0,0-.235-1.69,1.942,1.942,0,0,0-.877-.949c-.432-.246-.732-.246-.9.014a3.485,3.485,0,0,0-.266,1.733v6.98a8.48,8.48,0,0,0,.235,2.342,1.967,1.967,0,0,0,.926,1.154c.459.266.79.228.977-.1a4.834,4.834,0,0,0,.29-2.082v-2.166l-1.23-.715v-1.772l3.372,1.938v8.786l-1.1-.632-.376-1.8a.977.977,0,0,1-.839.795A2.393,2.393,0,0,1,229.616,3446.261Z"/><path class="au" d="M235,3449.2l2.294-14.758,3.24,1.862,2.441,17.5-2.293-1.323-.38-3.091-2.6-1.5-.346,2.674Zm5.047-1.92-1.082-8.7-.031-.017-.988,7.509Z"/><path class="au" d="M244.651,3454.77V3438.7l2.449,1.412v14l3.094,1.79v2.086Z"/><path class="au" d="M251.6,3458.8V3442.71l2.456,1.413v14l3.1,1.789V3462Z"/><path class="au" d="M258.559,3462.808v-16.092l5.4,3.119v2.117l-2.946-1.695v4.673l2.8,1.619v2.059l-2.8-1.61v5.119l3.057,1.751v2.114Z"/><path class="au" d="M269.255,3461.423l-.78-.484v7.595l-2.456-1.419V3451.03l4.048,2.339a5.937,5.937,0,0,1,1.883,1.591,4.72,4.72,0,0,1,.822,1.89,13.908,13.908,0,0,1,.189,2.5,4.878,4.878,0,0,1-.3,2.045c-.21.4-.6.515-1.149.37a3.231,3.231,0,0,1,1.153,1.792,18.243,18.243,0,0,1,.328,4.266,28.711,28.711,0,0,0,.1,3.374l-2.452-1.416c-.059-.166-.087-2.1-.087-5.823a3.576,3.576,0,0,0-.259-1.565A2.633,2.633,0,0,0,269.255,3461.423Zm-.773-2.387.977.566a.932.932,0,0,0,.691.187c.145-.048.252-.225.308-.546a8.933,8.933,0,0,0,.089-1.5v-.107a5.506,5.506,0,0,0-.218-1.838,2.236,2.236,0,0,0-1.022-.984l-.825-.48Z"/><path class="au" d="M276.712,3473.29v-6.428l-2.7-11.218,2.341,1.354,1.6,6.932.02.024,1.42-5.2,2.335,1.343-2.577,8.186v6.427Z"/><path class="av" d="M161.881,3545.588c-2.5-2.173-7.723,2.428-5.115,7.833s13.01,16.537,18.643,15.055c4.114-1.081,13.187-6.749,19.562-14.088v-4.908s-16.813,10.341-22.162,10.306C170.844,3559.773,168.457,3551.293,161.881,3545.588Z"/><path class="av" d="M172.332,3562.187c-1.319,2.666-2.825,5.422-4.072,7.936-3.388,6.867-7.944,15.3-7.944,15.3h-.48c-1.1-.02-2.158-.069-3.16-.169a30.5,30.5,0,0,1-6.31-1.212c-.446-.131-.888-.287-1.309-.432-9.305-3.291-13.042-9.94-13.042-9.94,2.391-14.723,11.287-25.088,13.805-28.058a5.564,5.564,0,0,1,4.456-1.662,25.3,25.3,0,0,1,7.781,1.662c1.416.473,3.112.911,4.922,1.467a24.12,24.12,0,0,1,6.869,3.237C176.566,3552.23,174.86,3557.03,172.332,3562.187Z"/><path class="aw" d="M135.912,3661.3a4.727,4.727,0,0,1-1.012.687,4.882,4.882,0,0,1-5.567-.687c-1.2-1.095-3.468-2.3-4.508-3.392-1.026-1.077-.252-3.882,0-5.54-.072,2.353,1.738,4.138,4.418,4.4a8.166,8.166,0,0,0,1.685-.039,1.5,1.5,0,0,0,.684-.345c1.233,1.772,3.678,1.959,4.8,2.722C137.715,3660.015,135.912,3661.3,135.912,3661.3Z"/><path class="ax" d="M160.316,3585.42s-1.941,5.115-4.521,11.944c-1.844,4.894-4.027,10.658-6.092,16.067-.622,1.623-1.323,3.547-2.086,5.629-4.963,13.515-12.375,34.407-16.005,37.325a1.5,1.5,0,0,1-.684.345,7.7,7.7,0,0,1-2,0c-2.511-.362-4.175-2.1-4.1-4.362.024-.145.024-.29.049-.452a89.854,89.854,0,0,1,6.952-24.753c5.05-10.9,5.377-19.031,6.58-24.491,1.015-4.594,1.326-7.2-.56-10.513-3.982-7.046-2.456-17.466-1.831-18.492,0,0,3.737,6.649,13.042,9.94.421.145.863.3,1.309.432a31.563,31.563,0,0,0,6.217,1.209c1.039.1,2.124.152,3.253.172C160.137,3585.424,160.316,3585.42,160.316,3585.42Z"/><path class="ay" d="M166.989,3547.076l.262-.877a4.937,4.937,0,0,1-3.4-2.494,2.892,2.892,0,0,1-1.236.5l-.055.038a11.878,11.878,0,0,1-.5,1.357h0C163.473,3546.088,165.169,3546.517,166.989,3547.076Z"/><path class="az" d="M164.2,3542.815h0a1.054,1.054,0,0,1-.346.89,4.937,4.937,0,0,0,3.4,2.494l.187-.6Z"/><path class="ba" d="M170.522,3531.655s-1.5-.09-2.386,2.5-.795,3.878-3.192,3.878c-1.9,0-.694,3.123-.749,4.781a1.054,1.054,0,0,1-.346.89,4.937,4.937,0,0,0,3.4,2.494,3.7,3.7,0,0,0,3.869-1.9C173.116,3541.125,173.116,3533.458,170.522,3531.655Z"/><path class="bb" d="M163.411,3543.5l-.8.7a2.892,2.892,0,0,0,1.236-.5A3.508,3.508,0,0,1,163.411,3543.5Z"/><path class="bb" d="M169.424,3527.877c-4.48-.591-10.451.408-11.943,4.576-1.492,4.183-.1,8.362,1.792,10.261,1.285,1.282,2.383,1.644,3.34,1.489l.8-.7.784-.683c.055-1.658-1.154-4.781.749-4.781,2.4,0,2.294-1.291,3.192-3.878s2.386-2.5,2.386-2.5C171.32,3532.508,173.9,3528.481,169.424,3527.877Z"/><path class="bb" d="M164.2,3542.815l-.784.683a3.508,3.508,0,0,0,.438.207A1.054,1.054,0,0,0,164.2,3542.815Z"/><path class="bc" d="M172.332,3562.187c-1.319,2.666-2.825,5.422-4.072,7.936-3.388,6.867-7.944,15.3-7.944,15.3h-.48c-1.1-.02-2.158-.069-3.16-.169,2.359-5.27,6.186-12.517,8.624-17.293,2.508-4.915,5.544-11.867,5.544-11.867S171.627,3559.085,172.332,3562.187Z"/><path class="bd" d="M164.174,3638.526a6.7,6.7,0,0,1-.577,1.789c-1.329,2.2-3.008,2.562-4.324,2.355a4.026,4.026,0,0,1-.97-.235,2.165,2.165,0,0,1-.895-.9c-1.312-2.1-2.621-7.709-2.483-17.535.228-16.616-1.378-18.8-1.3-21.023.76-2.086.294-.666.929-2.31.332-.857.626-1.662.936-2.439,1.589-4.217,2.871-7.677,4.435-11.8,2.28,3.706,6.2,11.318,6.289,16.668C166.388,3615.137,165.535,3632.554,164.174,3638.526Z"/><path class="be" d="M150.366,3584.039c-.449-.142-.888-.287-1.309-.432C149.478,3583.763,149.92,3583.908,150.366,3584.039Z"/><path class="bf" d="M191.359,3555.221s.2-1.448.9-1.88,1.447-1.308,2.017-1.063c.553.245-.027,1.015-.027,1.015s.839-.68,1.25-.183-.228,1.119-.228,1.119.718-.248,1.074,0c.373.252-.3.992-.3.992s.252-.467.933.082-.539,2.4-.539,2.4A55.164,55.164,0,0,1,191.359,3555.221Z"/><g class="v"><path class="ao" d="M220.471,3535.24a.3.3,0,0,1,.09-.017h.1a.3.3,0,0,1,.083.031l-.974-.608-.411-.266c-.007,0-.013-.01-.013-.01a.034.034,0,0,1-.032-.011.219.219,0,0,0-.024,0h-.02a.053.053,0,0,0-.039-.014c-.017.007-.027.014-.031.007a.006.006,0,0,1-.006.007h-.011a.3.3,0,0,0-.048,0,.063.063,0,0,1-.035.011.046.046,0,0,0-.034.01h-.014a.427.427,0,0,1-.083.045l-.919.48,1.382.874.912-.477a.3.3,0,0,1,.11-.051C220.461,3535.251,220.461,3535.251,220.471,3535.24Z"/><path class="ap" d="M220.6,3533.883a.349.349,0,0,1,.162.034h0l-.134-.075-1.244-.791h0c0-.011-.007-.011-.017-.011a.044.044,0,0,0-.024-.017.037.037,0,0,1-.032-.01h-.1a.074.074,0,0,0-.045.01.217.217,0,0,0-.069.028.122.122,0,0,0-.09.038l-1.36.714a.735.735,0,0,0-.2.139h-.007a.678.678,0,0,0-.052.058.572.572,0,0,1-.045.049.42.42,0,0,1-.038.041c-.01.018-.01.024-.017.035h0c-.011,0-.011,0-.011,0,0,.021-.017.028-.02.042s-.017.024-.031.031a.083.083,0,0,1-.014.041c-.007.007-.007.024-.021.042a.05.05,0,0,1-.014.024l-.01.021v.013c-.014.014-.014.028-.021.038s-.007.035-.007.045a.184.184,0,0,0-.01.052.508.508,0,0,1,0,.062l-.031.87,1.377.871.025-.871a1.181,1.181,0,0,1,.051-.2h.008a.887.887,0,0,1,.11-.207v-.011a1.886,1.886,0,0,1,.155-.179.632.632,0,0,1,.2-.132l1.364-.721a.64.64,0,0,1,.214-.073Z"/><path class="aq" d="M193.642,3552.471a.384.384,0,0,1,.024-.072l-1.378-.874-.031.117c-.011.014-.011.017-.011.028-.013.038-.024.083-.041.131,0,0-.01.007-.01.014-.014.041-.038.083-.062.135v.01c-.021.038-.059.09-.087.135l0,.014a1.751,1.751,0,0,0-.1.141h-.007a.975.975,0,0,1-.134.131.892.892,0,0,1-.111.09l-.052.042a2.168,2.168,0,0,1-.2.124,1.679,1.679,0,0,1-.19.08.1.1,0,0,1-.027.013,1.35,1.35,0,0,1-.145.028h-.007a.374.374,0,0,1-.128-.007h0a.325.325,0,0,1-.114-.045l.694.442.7.435a.111.111,0,0,1,.027.014c.014.007.032.01.035.014s.017.014.035.017h.048a.046.046,0,0,0,.038.014c.017,0,.028-.014.038-.014h.027c.028,0,.045,0,.077,0a.112.112,0,0,1,.055-.028c.017,0,.021-.01.034-.01s.007,0,.021,0c.042-.024.1-.045.159-.072a2.162,2.162,0,0,0,.2-.121.553.553,0,0,0,.045-.049.358.358,0,0,0,.117-.089v-.007a1.252,1.252,0,0,0,.1-.08.064.064,0,0,1,.031-.037l.011-.008c0-.013.007-.013.013-.024a.416.416,0,0,1,.045-.048.466.466,0,0,1,.038-.055.019.019,0,0,1,0-.014s0,0,.01,0a.112.112,0,0,1,.018-.044c.006-.014.027-.028.031-.038a.358.358,0,0,1,.024-.052c0-.011,0-.011.01-.011h0a.132.132,0,0,1,.024-.051c.011-.021.014-.038.028-.062a.044.044,0,0,1,.014-.028l0-.021a.075.075,0,0,0,0-.017.314.314,0,0,0,.028-.073c0-.01.011-.02.011-.034a.052.052,0,0,1,.017-.031Z"/><path class="ar" d="M194.4,3549.114v-.01a.962.962,0,0,1,.148-.152.782.782,0,0,1,.2-.145l23.734-12.527-1.377-.871-23.718,12.524a.738.738,0,0,0-.221.145l0,.007a.515.515,0,0,0-.062.062.553.553,0,0,0-.042.042c0,.02-.02.031-.034.055h0c-.011.007-.011.017-.024.031a.065.065,0,0,0-.025.035c-.014,0-.014.01-.017.027s-.007.017-.017.038-.011.014-.021.028,0,.01-.014.02h0v.007a.045.045,0,0,0-.007.025.049.049,0,0,1-.014.031c0,.01,0,.031,0,.031,0,.024-.01.034-.014.034,0,.028-.014.045-.014.069l1.392.867a.763.763,0,0,1,.042-.186h0A.646.646,0,0,1,194.4,3549.114Z"/><path class="as" d="M191.542,3553.511l-1.381-.874a.993.993,0,0,0,.338.753l1.378.863A.988.988,0,0,1,191.542,3553.511Z"/><path class="as" d="M189.649,3552.064s.017-.014.017-.021a1.885,1.885,0,0,1,.208-.2c.013-.02.041-.024.055-.045a2.169,2.169,0,0,1,.232-.162l4.078-2.145-1.392-.867-4.061,2.149a2.407,2.407,0,0,0-.235.152.236.236,0,0,1-.055.041.162.162,0,0,1-.049.045.948.948,0,0,0-.114.121.083.083,0,0,0-.041.041c-.011,0-.017.014-.024.014,0,.021-.021.024-.028.038-.024.027-.048.062-.072.093s-.042.059-.066.094-.014.034-.034.045a.069.069,0,0,1,0,.017.1.1,0,0,0-.028.027,1.073,1.073,0,0,1-.052.1.741.741,0,0,1-.051.089.487.487,0,0,0-.049.093.756.756,0,0,0-.055.111c-.041.069-.072.142-.117.214-.055.107-.114.235-.176.356a3.561,3.561,0,0,1-.177.356c-.065.134-.134.266-.21.4a.114.114,0,0,1-.031.035,3.762,3.762,0,0,1-.308.463c-.079.086-.159.172-.238.245a.08.08,0,0,0-.038.034,2.58,2.58,0,0,1-.238.156c-.09.038-.163.069-.232.093a.177.177,0,0,1-.062.01,1.017,1.017,0,0,1-.2.049h-.248a1.2,1.2,0,0,1-.183-.031c-.021-.011-.045-.011-.056-.018a.432.432,0,0,1-.1-.031.9.9,0,0,1-.152-.055.315.315,0,0,1-.083-.048.061.061,0,0,0-.024,0c0-.007-.021-.01-.021-.01l.09.052,1.291.815a1.1,1.1,0,0,0,.121.059v.006a.462.462,0,0,0,.145.059c.007,0,.007,0,.021,0a.465.465,0,0,0,.09.031l.062.013h.007c.048.014.1.014.159.025h.055a.816.816,0,0,0,.09,0,.6.6,0,0,0,.079,0h.069c.045-.011.087-.011.132-.025a.1.1,0,0,0,.048-.013.07.07,0,0,0,.055-.021c.025-.01.045-.01.07-.018a.814.814,0,0,0,.162-.068,1.8,1.8,0,0,0,.228-.156l.052-.041a.171.171,0,0,0,.03-.025c.039-.031.063-.065.108-.1a.793.793,0,0,1,.069-.083.164.164,0,0,1,.027-.027.867.867,0,0,1,.059-.084c.045-.048.069-.1.1-.141s.069-.1.1-.149.038-.058.063-.1c0,0,.017-.014.017-.025a.13.13,0,0,1,.028-.048c.041-.079.082-.152.127-.231.021-.042.042-.093.062-.124.059-.121.121-.235.173-.35a3.475,3.475,0,0,1,.18-.362c.055-.111.11-.225.169-.335s.11-.207.169-.3c.01,0,.01-.007.021-.014A1.751,1.751,0,0,1,189.649,3552.064Z"/><path class="ar" d="M184.928,3554.1c-2.2,1.647-9.629,6.337-10.013,6.583l1.371.873c.394-.234,7.827-4.935,10.023-6.589Z"/><path class="at" d="M220.34,3535.3l-.912.477.014-.411.911-.477a1.015,1.015,0,0,0,.519-.735c.01-.259-.208-.349-.484-.2l-1.364.721a1.018,1.018,0,0,0-.525.732l-.025.871-23.734,12.527a.939.939,0,0,0-.5.68l-4.078,2.145a2.34,2.34,0,0,0-.895,1.012,11.922,11.922,0,0,1-1.078,1.945,2.018,2.018,0,0,1-.514.435,1.427,1.427,0,0,1-1.365-.052c-2.2,1.654-9.629,6.355-10.023,6.589,0,.26-.179,5.1-.224,6.629-.017.2.148.2.439.048,1.917-1.016,9.4-8.745,10.161-9.85a3.05,3.05,0,0,1,1.1-.94,5.27,5.27,0,0,1,1.668-.525c.135-1.171,1.813-3.2,1.9-3.3l.211-.117c.052.546.3,1.112,1.167.656a2.783,2.783,0,0,0,1.409-2.01l11.08-5.847a2.441,2.441,0,0,0,1.136-1.91.886.886,0,0,0-.262-.743l14.237-7.512a.986.986,0,0,0,.518-.691C220.837,3535.223,220.612,3535.157,220.34,3535.3Zm-27.527,18.209c-.515.269-.722.048-.8-.246l1.651-.866A1.6,1.6,0,0,1,192.813,3553.511Z"/><path class="as" d="M174.915,3560.688c-.013.259-.183,5.1-.238,6.624l1.385.878c.045-1.53.221-6.369.224-6.629Z"/></g><path class="bg" d="M197.451,3550.534c-.545.338-1.682.739-1.561,1.122s.38.49,1.89-.2,1.409-1.019,1.267-1.326S198.173,3550.092,197.451,3550.534Z"/><path class="bh" d="M196.27,3552.568c.093.418,1.454.2,2.383-.29s.784-1.468-.179-1.171S196.156,3551.97,196.27,3552.568Z"/><path class="av" d="M196.44,3557.714c-2.242,11.408-4.943,17.542-10.8,17.542-5.816,0-13.435-10.793-16.046-16.188a6.578,6.578,0,0,1-.65-2.134c-.611-4.39,3.589-7.589,5.775-5.7,6.562,5.722,9.056,14.9,10.921,14.208,2.062-.763,5.723-10.223,5.723-10.223l3.709,1.813Z"/><path class="bi" d="M196.443,3553.456c.09.473,2.949-.056,2.687-.688S196.315,3552.751,196.443,3553.456Z"/><path class="bj" d="M198.474,3550c-.049.383,1.326.252,1.347-.373C199.859,3548.993,198.536,3549.46,198.474,3550Z"/><path class="bk" d="M160.316,3585.42s-1.941,5.115-4.521,11.944c-1.844,4.894-4.027,10.658-6.092,16.067-.622,1.623-1.323,3.547-2.086,5.629-4.963,13.515-12.375,34.407-16.005,37.325a1.5,1.5,0,0,1-.684.345,7.7,7.7,0,0,1-2,0c1.579-1.792,4.1-5.487,7.087-11.694,3.475-7.246,10.389-28.335,13.688-37.266,2.493-6.718,5.526-17.546,6.88-22.522,1.039.1,2.124.152,3.253.172C160.137,3585.424,160.316,3585.42,160.316,3585.42Z"/><path class="bl" d="M159.273,3642.67a4.026,4.026,0,0,1-.97-.235,2.165,2.165,0,0,1-.895-.9c-1.312-2.1-2.621-7.709-2.483-17.535.228-16.616-1.378-18.8-1.3-21.023.76-2.086.294-.666.929-2.31.332-.857.626-1.662.936-2.439,1.371,7.222,3.3,15.57,2.5,23.521C157.177,3629.567,157.771,3638.947,159.273,3642.67Z"/><path class="bm" d="M135.912,3661.3a4.727,4.727,0,0,1-1.012.687,7.682,7.682,0,0,1-3.157-1.381c-1.537-1.382-2.4-2.321-2.5-3.837a8.166,8.166,0,0,0,1.685-.039,1.5,1.5,0,0,0,.684-.345c1.233,1.772,3.678,1.959,4.8,2.722C137.715,3660.015,135.912,3661.3,135.912,3661.3Z"/><path class="aw" d="M169.545,3639.248c-.228,3.318-3.741,4.545-5.205,5.108s-.826,1.143-2.615,1.961a3.963,3.963,0,0,1-2.428.263c-1.011-.142-1.816-.591-1.889-.978a20.452,20.452,0,0,1,0-4.065,2.165,2.165,0,0,0,.895.9,4.081,4.081,0,0,0,.846.225c1.34.245,3.077-.094,4.448-2.345a6.7,6.7,0,0,0,.577-1.789C167.017,3637.824,169.655,3637.693,169.545,3639.248Z"/><path class="bm" d="M159.3,3646.58c-1.011-.142-1.816-.591-1.889-.978a20.452,20.452,0,0,1,0-4.065,2.165,2.165,0,0,0,.895.9,4.081,4.081,0,0,0,.846.225A34.687,34.687,0,0,0,159.3,3646.58Z"/><path class="bn" d="M196.44,3557.714c-2.242,11.408-4.943,17.542-10.8,17.542-5.816,0-13.435-10.793-16.046-16.188a6.578,6.578,0,0,1-.65-2.134c2.839,4.406,10.621,14.381,14.679,15.583,4.483,1.344,8.234-2.974,9.791-8.406a71.829,71.829,0,0,0,1.658-7.081Z"/><path class="bo" d="M193.352,3600.372c-.505-8.151.148-10.324-2.1-12.113a6.65,6.65,0,0,0-.68-.476c-.549-.353-2.342-1.641-3.1-2.135a41.185,41.185,0,0,0-4.518-2.517,8.6,8.6,0,0,0-3.243-.988,1.884,1.884,0,0,0-.663.093c-1.157.48-1.724,4.673-1.99,9.391-.369,6.61-.151,14.264-.151,14.264s.811,4.79,7.57,8.334c3.592,1.886,5.885,1.8,7.225,1.3a3.345,3.345,0,0,0,1.655-1.192A94.637,94.637,0,0,0,193.352,3600.372Z"/><path class="bp" d="M195.016,3591.427s1.869-.919,1.966-1.441-1.309.138-1.309.138,1.488-2.02,1.309-2.272-1.613,1.537-1.613,1.537,1.26-2.373,1.074-2.58-1.8,2.058-1.8,2.058.725-1.253.49-1.464-1.33,1.568-1.33,1.568.473-1.091.245-1.119c-.217-.011-1.053,1.347-1.053,1.347Z"/><path class="bq" d="M193.352,3614.335a3.345,3.345,0,0,1-1.655,1.192c.218-4.2.284-7.774.242-12.219-.038-4.328.042-10.97-.691-15.049,2.252,1.789,1.6,3.962,2.1,12.113A94.637,94.637,0,0,1,193.352,3614.335Z"/><path class="bo" d="M179.043,3582.236a1.884,1.884,0,0,1,.663-.093v-.011c-1.886-.5-3.112.252-3.661,3.154-.532,2.9,1.008,6.351,1.008,6.351v-.01C177.319,3586.909,177.886,3582.716,179.043,3582.236Z"/><path class="br" d="M176.894,3648.711a2.593,2.593,0,0,0,.432,2.11c.681.712,2.38,1.157,5.094-.829,2.719-2.006,3.941-3.778,3.223-4.662-.366-.463-2.031-.363-3.834.131a12.084,12.084,0,0,1-.756,3.509C179.858,3650.51,176.926,3648.728,176.894,3648.711Z"/><path class="br" d="M192.122,3648.258a17.2,17.2,0,0,1-.663,3.81c-.428,1.14-3.547,1.52-4.486-.473a2.377,2.377,0,0,1-.087-.266c-.39.933.087,1.951,1.769,2.556,1.643.59,7.011-2.625,6.8-4.95C195.369,3648,193.877,3647.865,192.122,3648.258Z"/><path class="bs" d="M193.117,3628.662c-.328,5.2-.46,14.222-.984,19.614a17.893,17.893,0,0,1-.674,3.8,1.527,1.527,0,0,1-.995.771,3.166,3.166,0,0,1-2.856-.45,2.173,2.173,0,0,1-.635-.814c-.038-.073-.049-.16-.087-.26-.791-2.455.021-11.957-.224-15.925-.263-4.1-1.1-16-2.19-16-.494,0-1.578,18.18-2.663,26.058a12.381,12.381,0,0,1-.749,3.52,1.729,1.729,0,0,1-1.441.618,6.406,6.406,0,0,1-2.735-.874v-.017c-.919-4.77.052-15.77.018-16.627s-.073-4.324-.073-13.03.073-13.156.073-13.156.811,4.79,7.57,8.334c3.63,1.91,5.923,1.8,7.267,1.295a3.323,3.323,0,0,0,1.613-1.185S193.569,3621.758,193.117,3628.662Z"/><path class="bt" d="M184.614,3582.208a1.779,1.779,0,0,1-.439-.172,3.858,3.858,0,0,1-.687-.55c-.021.056-.287.8-.539,1.627a41.932,41.932,0,0,1,4.507,2.535,12.412,12.412,0,0,1-.269-2.638V3583a6.153,6.153,0,0,1-2.611-.726A.262.262,0,0,1,184.614,3582.208Z"/><path class="bu" d="M185.729,3582.146a2.176,2.176,0,0,1-1.115.062.262.262,0,0,0-.038.062,6.153,6.153,0,0,0,2.611.726C187.287,3582.771,186.565,3582.443,185.729,3582.146Z"/><path class="bv" d="M192.713,3572.686a4.617,4.617,0,0,1-.491.95,14.471,14.471,0,0,1-.469,1.551c-1.081,2.821-3.814,6.324-6.024,6.959a2.176,2.176,0,0,1-1.115.062.262.262,0,0,0-.038.062,6.153,6.153,0,0,0,2.611.726,5.2,5.2,0,0,0,4.034-1.592C193.445,3579.183,193.293,3575.522,192.713,3572.686Z"/><path class="bb" d="M193.089,3569.851c-.432-2.518-5.588-2.446-5.588-2.446-3.485-.459-6.745,1.434-6.7,5.226.038,3.354.933,7.149,2.691,8.855a3.858,3.858,0,0,0,.687.55,1.779,1.779,0,0,0,.439.172,2.176,2.176,0,0,0,1.115-.062c2.21-.635,4.943-4.138,6.024-6.959a14.471,14.471,0,0,0,.469-1.551,4.617,4.617,0,0,0,.491-.95A5.36,5.36,0,0,0,193.089,3569.851Z"/><path class="bw" d="M205.505,3594.531s1.368-2.687,1.019-2.894-1.467,1.817-1.467,1.817,1.481-3.005.991-3.309c-.238-.142-1.178,1.495-1.578,2.283.158-.452.742-1.765.587-1.841-.45-.221-2.214,2.867-2.214,2.867s.155-1.669-.339-1.561-.4,2.638-.4,2.638a45.89,45.89,0,0,1-3.249,4.646c-.736.666-1.4-2.29-1.4-2.29a8.018,8.018,0,0,1-3.091,1.806c-2.017.677-2.753.84-2.753.84s2.954,5.684,5.948,6.358,6.268-6.282,7.5-9.715c0,0,1.761-2.622,1.526-2.9C206.245,3592.908,205.505,3594.531,205.505,3594.531Z"/><path class="bo" d="M192.747,3599.339c-.932.287-1.626.46-1.626.46-3.278-5.485-2.819-10.372-1.292-11.343a.286.286,0,0,1,.086-.052c3.654-1.906,6.859,6.4,7.543,8.027C197.928,3597.54,194.778,3598.707,192.747,3599.339Z"/><path class="bx" d="M187.608,3652.4a2.173,2.173,0,0,1-.635-.814c-.038-.073-.049-.16-.087-.26-.791-2.455.021-11.957-.224-15.925-.263-4.1-1.1-16-2.19-16-.494,0-1.578,18.18-2.663,26.058a12.381,12.381,0,0,1-.749,3.52,1.729,1.729,0,0,1-1.441.618,74.328,74.328,0,0,0,1.734-9.332c.446-3.727,1.04-10.71,1.506-15.867.5-5.173.725-7.025,1.637-7s2.58,7.246,2.888,14.153-.038,11.529,0,16.1C187.394,3649.657,187.494,3651.243,187.608,3652.4Z"/><path class="bx" d="M193.117,3628.662c-.328,5.2-.46,14.222-.984,19.614a17.893,17.893,0,0,1-.674,3.8,1.527,1.527,0,0,1-.995.771,51.334,51.334,0,0,0,1.158-7c.207-3.06.511-10.582.562-16.1.062-4.8-.2-10.959-.445-14.23a3.323,3.323,0,0,0,1.613-1.185S193.569,3621.758,193.117,3628.662Z"/><path class="bq" d="M192.747,3599.339c-.932.287-1.626.46-1.626.46-3.278-5.485-2.819-10.372-1.292-11.343A29.616,29.616,0,0,0,192.747,3599.339Z"/><g class="v"><path class="ao" d="M251.61,3570.987a.454.454,0,0,1,.09-.017h.086a.226.226,0,0,1,.087.031l-.974-.612-.408-.266h-.024c-.007-.01-.017-.01-.021-.013s-.01-.011-.024-.011h-.028a.075.075,0,0,0-.038-.006.042.042,0,0,1-.027,0l-.007,0h-.007a.126.126,0,0,0-.059.011s-.02,0-.031.013H250.2c-.014,0-.014,0-.017,0-.025.011-.056.027-.093.048l-.906.477,1.379.877.915-.483a.688.688,0,0,1,.1-.052A.06.06,0,0,0,251.61,3570.987Z"/><path class="ap" d="M251.741,3569.633a.3.3,0,0,1,.156.034h0l-.128-.082-1.25-.795h0l-.018,0a.043.043,0,0,0-.027-.007.066.066,0,0,0-.024-.017c-.011,0-.014-.007-.028-.007h-.079c-.014.007-.028.007-.045.014a.2.2,0,0,1-.073.02l-.093.042-1.347.715a.886.886,0,0,0-.2.141h0a.381.381,0,0,0-.063.063.437.437,0,0,1-.045.041.435.435,0,0,0-.034.048.091.091,0,0,0-.017.032h0l-.01,0-.028.045a.073.073,0,0,1-.024.031c0,.017-.011.021-.018.034s-.01.024-.02.038v.031a.085.085,0,0,0-.021.025h0s-.007,0-.007.014a.138.138,0,0,0,0,.034.078.078,0,0,0-.018.048.135.135,0,0,0-.01.045v.066l-.035.87,1.372.87.041-.873a.647.647,0,0,1,.038-.2h.01a1.082,1.082,0,0,1,.107-.2v-.007a1.327,1.327,0,0,1,.159-.179,1.006,1.006,0,0,1,.2-.142l1.361-.715a.489.489,0,0,1,.211-.069Z"/><path class="aq" d="M224.774,3588.221a.263.263,0,0,0,.021-.075l-1.371-.874a.921.921,0,0,1-.038.117c0,.014-.007.021-.007.031a.937.937,0,0,0-.038.131l-.01.007c-.018.049-.042.086-.059.138,0,0-.007,0-.007.014-.024.038-.055.086-.086.131v.018c-.035.041-.066.086-.111.138,0,0,0,0,0,.007-.042.038-.087.082-.132.124a.68.68,0,0,1-.113.093c-.018.011-.032.028-.049.038a1.533,1.533,0,0,1-.2.121c-.069.031-.121.062-.183.087a.122.122,0,0,1-.031,0,.6.6,0,0,1-.141.035h-.007a.792.792,0,0,1-.132-.007h0a.7.7,0,0,1-.11-.045l.694.442.687.428a.268.268,0,0,1,.035.021.05.05,0,0,0,.034.01c.014.014.025.014.031.021h.052a.071.071,0,0,0,.049.014c.013,0,.024-.014.031-.014h.021c.031,0,.051-.007.079-.007a.309.309,0,0,1,.052-.024.086.086,0,0,0,.038-.014c.01,0,.01,0,.017-.007a1.716,1.716,0,0,0,.169-.066c.066-.048.128-.076.2-.124.017,0,.028-.028.041-.041a.292.292,0,0,0,.118-.09h.007a.461.461,0,0,1,.1-.087.175.175,0,0,1,.021-.037l.017-.011c0-.014.007-.014.014-.024a.094.094,0,0,1,.052-.045c0-.024.02-.041.031-.062l.01-.01v0c.014-.02.014-.024.024-.038a.086.086,0,0,1,.038-.045c0-.024.01-.031.018-.051s.01-.007.01-.011h0c.01-.024.01-.038.024-.052s.017-.038.021-.055.007-.024.014-.038.007-.01.007-.021l0-.01a.439.439,0,0,0,.031-.076c0-.014.007-.017.007-.038a.076.076,0,0,1,.014-.028C224.771,3588.249,224.774,3588.232,224.774,3588.221Z"/><path class="ar" d="M225.531,3584.861v0a1.086,1.086,0,0,1,.152-.165,1,1,0,0,1,.2-.139l23.724-12.527-1.372-.87-23.727,12.524a.81.81,0,0,0-.207.141l0,.011c-.024.024-.045.041-.065.065a.229.229,0,0,0-.042.035.155.155,0,0,1-.038.055h0c-.014.007-.014.024-.031.034a.36.36,0,0,0-.017.032.148.148,0,0,1-.021.034l-.01.031c0,.011-.014.011-.025.031a.048.048,0,0,1-.01.025v.007h0a.045.045,0,0,0,0,.02.076.076,0,0,0-.018.028c0,.013-.006.031-.006.038a.069.069,0,0,1-.014.034v.059l1.374.87a.6.6,0,0,1,.052-.183h0A.6.6,0,0,1,225.531,3584.861Z"/><path class="as" d="M222.678,3589.257l-1.385-.877a.992.992,0,0,0,.338.753l1.375.87A1.033,1.033,0,0,1,222.678,3589.257Z"/><path class="as" d="M220.785,3587.814a.233.233,0,0,0,.021-.028c.066-.066.131-.142.2-.2a.2.2,0,0,0,.058-.045c.077-.059.163-.114.232-.166l4.075-2.145-1.374-.87-4.076,2.152a1.188,1.188,0,0,0-.235.162c-.02.014-.031.024-.055.042s-.038.03-.048.041c-.028.034-.083.073-.114.117a.09.09,0,0,0-.038.042c-.011,0-.017.017-.025.017a.3.3,0,0,0-.027.038c-.028.031-.049.059-.076.093s-.045.063-.066.1a.114.114,0,0,1-.034.038.106.106,0,0,0,0,.017c-.017.011-.017.017-.027.025a.435.435,0,0,1-.052.1.618.618,0,0,1-.055.086c-.014.028-.025.063-.038.1a.341.341,0,0,0-.059.111,1.271,1.271,0,0,0-.11.214c-.063.114-.125.234-.184.355s-.113.235-.176.356c-.066.139-.138.27-.214.4-.01.014-.014.024-.024.038a4.528,4.528,0,0,1-.315.459,2.576,2.576,0,0,1-.241.239.1.1,0,0,1-.041.041,1.871,1.871,0,0,1-.232.159c-.083.034-.159.066-.231.09a.218.218,0,0,0-.063.013c-.065.014-.131.035-.193.045H216.9a.845.845,0,0,1-.186,0h-.035a1.5,1.5,0,0,1-.183-.034.143.143,0,0,1-.059-.021.248.248,0,0,1-.1-.027,1.226,1.226,0,0,1-.156-.049.3.3,0,0,1-.083-.055h-.024l-.014-.01.087.051,1.288.819c.021,0,.062.034.124.055v0a.345.345,0,0,0,.145.062.146.146,0,0,0,.021,0,.7.7,0,0,0,.09.028.578.578,0,0,1,.059.024h.006c.049.007.1.007.159.017h.056c.027,0,.065.011.086.011s.069-.011.083-.011h.062c.052-.01.1-.01.141-.017.021-.01.032-.01.045-.024a.206.206,0,0,0,.059-.017.557.557,0,0,1,.069-.014.786.786,0,0,0,.156-.073,1.526,1.526,0,0,0,.234-.152.1.1,0,0,1,.052-.038.453.453,0,0,1,.028-.038c.038-.027.062-.055.11-.093a.423.423,0,0,1,.07-.083.141.141,0,0,1,.024-.034.61.61,0,0,1,.062-.076c.045-.056.065-.1.1-.152s.065-.1.093-.138a.628.628,0,0,0,.058-.1s.018-.01.018-.017a.146.146,0,0,1,.034-.052c.042-.073.083-.156.124-.235.021-.042.045-.083.066-.128.049-.117.114-.231.169-.338.063-.128.115-.249.177-.366s.114-.225.176-.332a2.025,2.025,0,0,1,.173-.308s0-.006.013-.01A1.684,1.684,0,0,1,220.785,3587.814Z"/><path class="ar" d="M216.067,3589.852c-2.2,1.647-9.639,6.337-10.019,6.586l1.374.87c.391-.242,7.823-4.939,10.02-6.586Z"/><path class="at" d="M251.479,3571.046l-.915.483.01-.411.915-.487a.957.957,0,0,0,.511-.729c.018-.259-.2-.345-.48-.2l-1.361.715a1,1,0,0,0-.514.736l-.041.873-23.724,12.527a.973.973,0,0,0-.512.677l-4.075,2.145a2.419,2.419,0,0,0-.891,1.019,12.657,12.657,0,0,1-1.081,1.938,1.914,1.914,0,0,1-.518.438,1.421,1.421,0,0,1-1.361-.048c-2.2,1.647-9.629,6.344-10.02,6.586-.006.263-.176,5.1-.231,6.625-.01.2.159.2.446.055,1.913-1.019,9.4-8.745,10.154-9.854a2.978,2.978,0,0,1,1.1-.932,5.062,5.062,0,0,1,1.679-.532c.127-1.171,1.809-3.195,1.889-3.295l.214-.118c.048.553.3,1.109,1.16.653a2.769,2.769,0,0,0,1.413-2.006l11.08-5.851a2.417,2.417,0,0,0,1.136-1.907.845.845,0,0,0-.266-.735l14.24-7.516a1,1,0,0,0,.522-.7C251.966,3570.97,251.752,3570.894,251.479,3571.046Zm-27.527,18.211c-.514.27-.729.052-.8-.248l1.644-.863A1.58,1.58,0,0,1,223.952,3589.257Z"/><path class="as" d="M206.048,3596.438c-.007.259-.183,5.1-.238,6.624l1.381.871c.055-1.527.225-6.362.231-6.625Z"/></g><g class="v"><path class="ao" d="M305.137,3601.705a.31.31,0,0,1,.09-.017h.1a.224.224,0,0,1,.076.027l-.97-.615-.414-.259-.014-.007c-.018,0-.018-.006-.031-.013s-.011-.011-.025-.011h-.024a.154.154,0,0,0-.041,0s-.018,0-.025,0h-.013a.067.067,0,0,0-.049.011.081.081,0,0,1-.041.013.03.03,0,0,0-.021.007.032.032,0,0,0-.017,0,.266.266,0,0,0-.093.048l-.9.477,1.374.87.916-.487a.377.377,0,0,1,.1-.038C305.109,3601.705,305.13,3601.705,305.137,3601.705Z"/><path class="ap" d="M305.268,3600.344a.31.31,0,0,1,.162.042h0l-.138-.094-1.243-.78h0a.035.035,0,0,0-.024-.014c0-.007-.01-.007-.024-.01a.019.019,0,0,1-.018-.018c-.017,0-.024,0-.038,0h-.079a.1.1,0,0,0-.048.021.234.234,0,0,0-.066.024.169.169,0,0,0-.079.031l-1.365.718a.84.84,0,0,0-.2.138h0c-.02.024-.038.038-.058.059s-.031.035-.049.052a.165.165,0,0,1-.034.041.064.064,0,0,1-.024.035h0c-.007.017-.02.031-.024.041a.182.182,0,0,0-.021.035.217.217,0,0,1-.024.041.087.087,0,0,1-.014.035c0,.007-.014.031-.014.035s-.01.017-.013.017v0l0,.014a.09.09,0,0,1-.007.038c-.01.01-.01.028-.017.048s-.011.025-.011.038v.063l-.037.88,1.378.871.034-.881a.776.776,0,0,1,.049-.2h0a1.749,1.749,0,0,1,.106-.2c.008,0,.008,0,.008,0a1.967,1.967,0,0,1,.158-.183,1.206,1.206,0,0,1,.2-.142l1.368-.718a.548.548,0,0,1,.2-.066Z"/><path class="aq" d="M278.311,3618.939c0-.027.014-.058.014-.083l-1.378-.877c-.007.045-.021.09-.028.121a.056.056,0,0,0-.013.034.29.29,0,0,1-.042.125.082.082,0,0,0,0,.021c-.021.041-.045.083-.066.131,0,0-.007,0-.007.014-.017.038-.048.083-.076.135l-.01.01c-.031.041-.066.09-.1.138,0,0-.017,0-.017.007a.555.555,0,0,1-.128.127.827.827,0,0,1-.114.1.1.1,0,0,0-.045.031,1.319,1.319,0,0,1-.207.128.662.662,0,0,1-.18.076.056.056,0,0,1-.034.01.947.947,0,0,1-.142.039h-.01a.328.328,0,0,1-.128-.018h0a.506.506,0,0,1-.107-.034l.694.442.695.432c.01,0,.024.006.024.017a.22.22,0,0,1,.065.02h.014a.073.073,0,0,0,.038.007.12.12,0,0,0,.045.007c.017,0,.024-.007.038-.007h.021c.031,0,.045-.01.079-.01.018-.007.031-.01.052-.017s.021-.011.038-.014a.023.023,0,0,1,.014,0c.055-.025.1-.042.169-.076s.138-.077.2-.118a.115.115,0,0,1,.045-.048.329.329,0,0,0,.118-.093h.01a.594.594,0,0,1,.083-.087.1.1,0,0,0,.027-.034c.011,0,.014,0,.014-.011s.011-.014.017-.017a.152.152,0,0,1,.049-.055.092.092,0,0,1,.038-.052l0-.017.011-.007a.067.067,0,0,1,.02-.031c.011-.011.021-.031.035-.049a.238.238,0,0,0,.014-.052c0-.006.007-.006.007-.006h0a.268.268,0,0,0,.031-.052.606.606,0,0,1,.024-.059.04.04,0,0,1,.017-.034s0-.011.007-.011a.167.167,0,0,0,0-.024c.013-.024.013-.052.027-.076,0,0,0-.021,0-.028a.054.054,0,0,0,.01-.038C278.294,3618.957,278.3,3618.95,278.311,3618.939Z"/><path class="ar" d="M279.061,3615.572v-.007c.038-.045.09-.1.145-.159a2.345,2.345,0,0,1,.207-.142l23.721-12.519-1.378-.871-23.724,12.516a.918.918,0,0,0-.2.156l-.007,0a.108.108,0,0,0-.062.062.3.3,0,0,0-.051.044.213.213,0,0,0-.025.039h-.007v0c-.017.007-.017.024-.02.034-.021.014-.028.028-.028.039s-.014.013-.014.034c-.014,0-.014.007-.021.028s-.017.01-.017.024a.086.086,0,0,0-.01.028h-.007v.007c0,.006-.011.017-.011.027s-.006.021-.006.035a.249.249,0,0,0-.011.034c0,.007-.007.024-.007.031a.123.123,0,0,0-.01.055l1.374.881a1.174,1.174,0,0,1,.052-.186h0A.7.7,0,0,1,279.061,3615.572Z"/><path class="as" d="M276.208,3619.969l-1.382-.871a.994.994,0,0,0,.332.746l1.375.874A1,1,0,0,1,276.208,3619.969Z"/><path class="as" d="M274.312,3618.521c.01,0,.014-.013.021-.013a1.662,1.662,0,0,1,.207-.2c.01-.021.038-.024.045-.052a2.343,2.343,0,0,1,.241-.155l4.065-2.142-1.374-.881-4.072,2.156a1.847,1.847,0,0,0-.231.152.2.2,0,0,0-.052.044c-.018.021-.042.028-.052.049a1.474,1.474,0,0,0-.121.111.127.127,0,0,0-.038.048l-.017.007a.078.078,0,0,1-.035.041c-.017.021-.041.066-.069.1s-.045.062-.069.089c0,.021-.017.028-.024.045s-.007.018-.01.021a.244.244,0,0,1-.028.028c-.007.027-.038.055-.055.1-.011.024-.031.051-.052.089a.535.535,0,0,0-.038.09.477.477,0,0,0-.062.114c-.038.073-.076.149-.114.218-.056.107-.114.235-.173.345a2.926,2.926,0,0,1-.183.356,3.691,3.691,0,0,1-.218.4c0,.014-.014.024-.017.035a3.758,3.758,0,0,1-.318.462,2.017,2.017,0,0,1-.241.246c-.014.02-.028.024-.038.041-.08.052-.159.11-.235.149a.929.929,0,0,1-.228.1.509.509,0,0,0-.059.014,2.041,2.041,0,0,1-.2.045h-.031a1.681,1.681,0,0,1-.179,0H270.2c-.055-.007-.117-.021-.169-.031-.024-.011-.041-.011-.065-.021a.307.307,0,0,1-.1-.028,1,1,0,0,1-.152-.055c-.028-.02-.069-.031-.079-.048a.03.03,0,0,1-.025-.007c-.01,0-.017,0-.017-.01l.093.058,1.285.812a1.267,1.267,0,0,0,.121.055v.011a.509.509,0,0,0,.152.062h.01l.1.034a.258.258,0,0,1,.048.011h.007a1.087,1.087,0,0,0,.159.027h.231a.1.1,0,0,0,.035,0h.024a.773.773,0,0,0,.142-.024c.017,0,.034,0,.041-.011.024,0,.035-.013.059-.02s.048-.011.066-.021a.661.661,0,0,0,.165-.069,1.636,1.636,0,0,0,.232-.159c.014-.007.024-.028.045-.035.006-.014.027-.014.031-.031a.944.944,0,0,0,.11-.093c.018-.027.045-.059.066-.093a.057.057,0,0,0,.028-.028c.027-.031.045-.052.069-.083a1.251,1.251,0,0,1,.1-.134c.031-.052.069-.108.1-.156a.3.3,0,0,0,.059-.093.128.128,0,0,1,.02-.021c.007-.021.025-.038.031-.055a2.26,2.26,0,0,0,.121-.232c.021-.041.045-.082.069-.124.056-.114.107-.235.163-.349s.117-.248.186-.362.107-.225.169-.335a2.156,2.156,0,0,1,.18-.3s0-.011.007-.014C274.174,3618.7,274.246,3618.611,274.312,3618.521Z"/><path class="ar" d="M269.594,3620.563c-2.2,1.661-9.629,6.341-10.023,6.586l1.375.877c.394-.241,7.829-4.942,10.019-6.593Z"/><path class="at" d="M305.006,3601.753l-.916.487.011-.4.908-.487a1,1,0,0,0,.525-.732c.01-.255-.211-.349-.48-.207l-1.368.718a1.06,1.06,0,0,0-.518.736l-.034.881-23.721,12.519a.988.988,0,0,0-.522.691l-4.065,2.142a2.357,2.357,0,0,0-.9,1.005,12.232,12.232,0,0,1-1.08,1.944,1.779,1.779,0,0,1-.512.439,1.427,1.427,0,0,1-1.371-.052c-2.19,1.651-9.625,6.352-10.019,6.593,0,.252-.177,5.091-.225,6.618-.014.2.152.2.449.052,1.917-1.016,9.391-8.738,10.151-9.847a3.127,3.127,0,0,1,1.1-.94,5.054,5.054,0,0,1,1.682-.525c.117-1.174,1.8-3.194,1.879-3.3l.221-.113c.042.552.3,1.115,1.161.652a2.734,2.734,0,0,0,1.409-2.006l11.079-5.844a2.482,2.482,0,0,0,1.144-1.914.9.9,0,0,0-.266-.739l14.236-7.512a.992.992,0,0,0,.518-.7C305.493,3601.688,305.275,3601.612,305.006,3601.753Zm-27.527,18.216c-.515.272-.725.051-.8-.239l1.644-.874A1.565,1.565,0,0,1,277.479,3619.969Z"/><path class="as" d="M259.571,3627.149c0,.259-.179,5.094-.228,6.628l1.378.867c.048-1.527.221-6.366.225-6.618Z"/></g></g></g></svg>