<svg xmlns="http://www.w3.org/2000/svg" width="424.556" height="578.429" viewBox="0 0 424.556 578.429"><defs><style>.a{opacity:0.26;mix-blend-mode:multiply;}.a,.c{isolation:isolate;}.b{fill:#192626;}.d{fill:#434445;}.e{fill:#7d7f82;}.f{fill:#48494a;}.g{fill:#7b7e7f;}.h{fill:#505153;}.i{fill:#7a7c7d;}.j{fill:#6e7172;}.k{fill:#112253;}.l{fill:#d9d9d9;}.m{fill:#d1282f;}.n{fill:#fff;}.o{fill:#6c3e37;}.p{fill:#4c7d2e;}.q{fill:#7bb63b;}.r{fill:#44732c;}.s{fill:#6da930;}.t{fill:#5a9030;}.u{fill:#e7406c;}.v{fill:#e43266;}.w{fill:#e85987;}.x{fill:#ea71a0;}.y{fill:#ffc730;}</style></defs><g transform="translate(-1325.807 -510.699)"><g transform="translate(367 -2787)"><g class="a" transform="translate(0 -1)"><path class="b" d="M970.968,3693.422c-7.074,4.027-7.117,11.4.7,15.948l191.161,110.78c7.823,4.544,20.551,4.544,28.423,0l33.227-20.245c7.88-4.554,7.92-11.927.1-16.47l-191.163-110.782c-7.82-4.545-20.55-4.545-29.224.52Z"/></g><g transform="translate(0 -1)"><g class="c"><path class="d" d="M1010.017,3716.25l29.921-17.387,12.837-57.4-29.922,17.386Z"/><path class="e" d="M1022.853,3658.846l29.922-17.386-14.464-8.352-29.92,17.389Z"/><path class="f" d="M1008.39,3650.5l29.92-17.389.118-41.524-29.921,17.388Z"/><path class="e" d="M1031.091,3622.011l29.921-17.387-22.583-13.041-29.921,17.388Z"/><path class="d" d="M1031.091,3622.011l29.921-17.387,11.032-49.336-29.921,17.387Z"/><path class="g" d="M1042.124,3572.676l29.921-17.387-35.233-29.463-29.921,17.386Z"/><path class="e" d="M1149.238,3731.814l29.92-17.387-14.456-8.348-29.921,17.388Z"/><path class="e" d="M1126.775,3677.256l29.921-17.389-95.684-55.241-29.921,17.387Z"/><path class="f" d="M1149.238,3731.814l29.92-17.387.118-41.523-29.92,17.387Z"/><path class="e" d="M1149.355,3690.291l29.92-17.387-22.579-13.038-29.921,17.389Z"/><path class="h" d="M1183.659,3812.356l29.921-17.388-32.309-185.74-29.921,17.388Z"/><path class="i" d="M1151.35,3626.617l29.921-17.388-35.3-11.256-29.921,17.389Z"/><path class="j" d="M1006.891,3543.213l35.233,29.463-11.033,49.336,95.684,55.244-10.72-61.894,35.3,11.255,32.309,185.74-36.867-20.4-12.012-68.487-111.927-64.621-12.836,57.4-37.07-21.511Z"/></g></g><g transform="translate(0 -1)"><path class="k" d="M1085.035,3392.589c17.695,10.217,35.367,28.17,48.8,51.423,26.863,46.526,26.721,96.892-.318,112.3-13.522,7.7-31.239,5.217-48.94-5s-35.361-28.165-48.791-51.427c-26.845-46.515-26.7-96.878.32-112.3C1049.62,3379.894,1067.339,3382.374,1085.035,3392.589Zm-38.448,101.142c10.468,18.136,24.248,32.137,38.046,40.1s27.615,9.9,38.152,3.89c21.078-12.013,21.189-51.283.245-87.557-10.469-18.126-24.247-32.124-38.045-40.09s-27.612-9.9-38.151-3.906c-21.06,12.024-21.173,51.3-.247,87.559Z"/><path class="l" d="M1085.114,3365.709c23.691,13.678,47.352,37.71,65.321,68.842,35.962,62.285,35.773,129.722-.422,150.338-18.09,10.314-41.808,7-65.5-6.678s-47.352-37.717-65.334-68.861c-35.945-62.258-35.75-129.7.427-150.334C1037.7,3348.712,1061.426,3352.03,1085.114,3365.709Zm-49.33,134.175c13.43,23.262,31.1,41.217,48.791,51.427s35.418,12.7,48.94,5c27.039-15.406,27.181-65.772.318-112.3-13.431-23.253-31.1-41.206-48.8-51.423s-35.415-12.7-48.931-5c-27.022,15.416-27.165,65.779-.32,112.294Z"/><path class="k" d="M1085.158,3348.211c27.591,15.932,55.149,43.927,76.082,80.183,41.863,72.514,41.642,151.065-.5,175.078-21.068,12.006-48.694,8.142-76.284-7.785s-55.148-43.929-76.08-80.183c-41.863-72.513-41.64-151.064.5-175.079C1029.944,3328.42,1057.568,3332.283,1085.158,3348.211ZM1019.18,3509.35c17.982,31.144,41.645,55.183,65.334,68.861s47.409,16.992,65.5,6.678c36.2-20.616,36.384-88.053.422-150.338-17.969-31.132-41.63-55.164-65.321-68.842s-47.411-17-65.507-6.693c-36.177,20.635-36.372,88.076-.427,150.334Z"/><path class="l" d="M1046.587,3493.731a126.76,126.76,0,0,0,14.176,19.928c53.183,61.089,100.562,14.972,66.791-54.949-19.765-40.951-57.728-65.612-80.72-52.538C1025.456,3418.377,1026.023,3458.09,1046.587,3493.731Zm20.043-11.4c-9.983-17.291-9.929-35.95.122-41.653,5.015-2.874,11.582-1.963,18.145,1.825s13.116,10.457,18.1,19.1c9.967,17.26,9.916,35.918-.118,41.657-5.023,2.855-11.594,1.938-18.153-1.85s-13.115-10.451-18.1-19.081Z"/><path class="l" d="M995.429,3522.906c24.519,42.464,56.725,75.213,88.973,93.835s64.537,23.1,89.223,9.041c49.357-28.142,49.618-119.822.583-204.76-24.529-42.48-56.738-75.236-88.986-93.854s-64.533-23.1-89.211-9.028C946.634,3346.257,946.374,3437.943,995.429,3522.906Zm-17.246-94.7c-2.1-18.438-1.068-35.482,3.106-49.9.122-.414.243-.824.368-1.229,9.465-31.032,33.368-47.5,65.361-42.912,13.291,1.926,26.354,7.246,38.14,14.054,39.78,22.964,72.5,66.322,90.534,109.252.242.57.477,1.144.713,1.713q3.516,8.556,6.268,17.036.274.848.543,1.7c1.958,6.2,3.61,12.342,4.946,18.389.123.551.242,1.1.358,1.648a187.67,187.67,0,0,1,3.089,19.331c.054.524.107,1.047.155,1.57,3.053,31.893-3.157,68.75-31.022,84.627-40,22.793-93.442-13.065-124.014-48.124-30.4-34.848-53.409-82.168-58.545-127.146Z"/><path class="m" d="M1093.957,3449.625v0a57.938,57.938,0,0,1,7.6,9.591c24.607,38.653-4.75,64.218-30.92,29.2C1044.349,3453.233,1066.042,3421.453,1093.957,3449.625Z"/><path class="n" d="M1015.24,3306.964c24.677-14.074,56.964-9.591,89.214,9.025s64.458,51.375,88.982,93.86c49.038,84.935,48.779,176.616-.578,204.761l-19.233,11.172c49.357-28.142,49.618-119.822.583-204.76-24.529-42.48-56.738-75.236-88.986-93.854s-64.533-23.1-89.211-9.028Z"/></g></g><g transform="translate(367 -2788)"><path class="o" d="M1348.005,3699.6c-1.045,10.956-1.552,34.94-2.875,54.72-1.3,19.464-17.093,47.417-32.072,59.631a197.773,197.773,0,0,1-38.393,25c2.035-8.633,3.914-17.3,5.428-26.044,3.476-20.076,5.12-40.632,2.286-60.9a145.855,145.855,0,0,0-7.527-29.981c2.623-13.2,11.672-26.742,17.528-39.28,6.774-14.5.55-8.27-8.076,6.005-3.863,6.394-10.038,15.984-13.27,23.044-1.368-3.7-3.968-11.284-5.324-14.985-7.67-20.925-11.265-28.405-11.934-65.313-6.138,17.96-2.774,38.15,1.713,56.076,5.017,20.041,12.11,39.55,15.013,60.081,5.78,40.875-5.44,81.33-20.481,125.788.663,4.862,9.511,4.306,13.05,1.769,3.15-5.154,8.281-20.28,9.568-26.476,11.4-8.71,37.765-18.866,59.441-47.178,9.641-12.592,17.187-31.348,17.181-46.858C1349.255,3735.083,1350.445,3719.224,1348.005,3699.6Z"/><path class="o" d="M1209.545,3852.4c-7.286-18.592-22.782-40.663-44.458-54.155.3-5.851-1.418-14.364-2.264-19.767a91.654,91.654,0,0,0-9.07-27.764c-9.986-19.4-24.733-35.277-26.191-58.056-.013-.195-.334-.27-.367-.049-.879,5.892-1.479,22.693,4.493,31.54,13.127,19.448,27.237,49.378,25.077,71.442-10.777-5.378-24.261-15.04-31.049-25.215-10.385-15.568-23.887-41.14-27.572-52.3,2.578,17.136,10.984,35.066,17.619,45.921,8.141,13.318,17.832,25.539,30.935,33.8,13.63,8.595,26.075,17.75,36.315,30.341a119.954,119.954,0,0,1,12.782,19.3c3.348,6.29,4.523,13.949,6.008,21.367,1.64,2.586,6.469,3.573,11.442,1.548C1216.689,3868.95,1211.547,3857.512,1209.545,3852.4Z"/><path class="o" d="M1227.7,3786.383c5.205-7.387,10.3-15.2,12.384-24.075,2.28-9.709-.516-18.737-3.106-28.076-6.569-23.69-15.209-47.334-13.073-72.279-7.729,16.192.234,43.454,5.984,65.568,2.342,9,6.713,22.421,4.866,31.577-1.359,6.741-7.709,14.837-11.059,20.127-.553-.8-4.7-7.578-5.282-8.366-10.039-13.5-20.668-25.522-27.781-40.977-5.417-11.768-8.016-23.617-10.319-35.857-.51-5.306-.782-10.658-.763-16.05-8.275,32.463,12.109,66.36,24.018,84.234,4.407,6.616,9.541,14.884,13.713,21.661,5.039,8.186,6.857,14.82,9.29,26.321,4.077,19.275,4.2,43.608,3.981,49.324,2.433,3.76,6.635,3.981,9.925.351C1239.625,3834.079,1238.3,3808.565,1227.7,3786.383Z"/><path class="p" d="M1109.428,3693.795c-.071-2.424,1.571-4.341,7.528-5.993.94-5.907,7.028-9.059,11.281-6.267,1.852,1.216,1.156,6.47.068,10.17s.018,5.594-1.874,6.739-10.579.267-13-.465C1110.411,3697.069,1109.476,3695.461,1109.428,3693.795Z"/><path class="q" d="M1282.112,3659.256c-.07-2.424,1.572-4.341,7.528-5.993.941-5.907,7.029-9.059,11.282-6.267,1.852,1.216,1.155,6.47.067,10.17s.019,5.594-1.873,6.739-10.579.267-13-.465C1283.1,3662.529,1282.161,3660.922,1282.112,3659.256Z"/><path class="r" d="M1209.548,3662.54c.767-2.3,2.968-3.537,9.129-3.042,2.913-5.224,9.713-6.093,12.748-2.01,1.321,1.778-1.137,6.473-3.431,9.574s-1.9,5.26-4.074,5.686-10.027-3.384-12.053-4.9C1209.348,3665.952,1209.022,3664.121,1209.548,3662.54Z"/><path class="p" d="M1122.765,3729.409c1.527,2.787,4.426,7.086,6.335,7.305,1.725-2.039,4.434-4.882,5.495-6.45,4.152-6.134,5.581-12.574,1.166-18.568-1.309-1.778-4.866-6.745-7.516-6.584C1121.261,3710.484,1117.535,3719.859,1122.765,3729.409Z"/><path class="r" d="M1127.982,3710.247c-4.763,5.315-2.928,16.43.327,22.05.482-2.454-1.9-7.358-2.076-11.04C1126.047,3717.461,1127.706,3713.327,1127.982,3710.247Z"/><path class="s" d="M1100.815,3706.13c-1.211,2.937-2.739,7.892-1.711,9.516,2.67.063,6.584.388,8.471.23,7.381-.617,13.291-3.548,15.187-10.747.562-2.134,2.2-8.021.408-9.983C1114.6,3693.081,1104.967,3696.063,1100.815,3706.13Z"/><path class="t" d="M1119.007,3698.164c-7.127-.372-14.628,8.033-16.961,14.094,2.214-1.166,4.538-6.095,7.292-8.546C1112.177,3701.185,1116.436,3699.882,1119.007,3698.164Z"/><path class="s" d="M1130.09,3775.649c-1.212,2.938-2.739,7.893-1.711,9.517,2.67.062,6.584.388,8.47.23,7.382-.618,13.292-3.548,15.187-10.747.563-2.135,2.2-8.022.409-9.983C1143.878,3762.6,1134.242,3765.583,1130.09,3775.649Z"/><path class="t" d="M1148.282,3767.684c-7.128-.372-14.629,8.033-16.961,14.093,2.213-1.165,4.538-6.094,7.292-8.545C1141.452,3770.705,1145.711,3769.4,1148.282,3767.684Z"/><path class="t" d="M1124.648,3694.416c3.9-2.765,10.308-.752,13.638,2.059,4.568,3.856,6.362,9.935,7.734,15.526-6.549,3.085-17.088,3.372-22.461-2.9-2.31-2.7-3.815-8.665-1.69-11.991A20.167,20.167,0,0,1,1124.648,3694.416Z"/><path class="r" d="M1124.984,3696.416s6.8,3.458,10.611,6.81,8.15,7.9,8.15,7.9a15.276,15.276,0,0,1-5.379-3.367,59.653,59.653,0,0,0-9.427-7.485C1125.3,3697.933,1124.984,3696.416,1124.984,3696.416Z"/><path class="t" d="M1153.754,3765.547c3.9-2.766,10.307-.753,13.638,2.058,4.568,3.856,6.361,9.936,7.734,15.526-6.55,3.085-17.089,3.373-22.461-2.894-2.311-2.7-3.815-8.665-1.69-11.991A20.105,20.105,0,0,1,1153.754,3765.547Z"/><path class="r" d="M1154.09,3767.546s6.8,3.459,10.611,6.81,8.15,7.9,8.15,7.9a15.26,15.26,0,0,1-5.38-3.366,59.659,59.659,0,0,0-9.427-7.486C1154.405,3769.063,1154.09,3767.546,1154.09,3767.546Z"/><path class="t" d="M1098.336,3736.774c-4.764.431-8.327,6.122-9.034,10.422-.97,5.9,1.614,11.687,4.2,16.829,6.984-1.907,15.185-8.532,15.2-16.787.006-3.55-2.726-9.067-6.5-10.216A20.207,20.207,0,0,0,1098.336,3736.774Z"/><path class="r" d="M1099.379,3738.513s-2.928,7.048-3.647,12.069-1.069,11.3-1.069,11.3a15.25,15.25,0,0,0,1.905-6.054,59.616,59.616,0,0,1,2.308-11.814C1100.124,3739.872,1099.379,3738.513,1099.379,3738.513Z"/><path class="p" d="M1086.367,3727.247c-3-3.724-9.712-3.533-13.682-1.736-5.447,2.465-8.829,7.825-11.673,12.83,5.46,4.753,15.522,7.9,22.4,3.336,2.958-1.963,6.032-7.3,4.894-11.076A20.168,20.168,0,0,0,1086.367,3727.247Z"/><path class="r" d="M1085.5,3729.079s-7.488,1.474-12.066,3.66-9.994,5.379-9.994,5.379a15.25,15.25,0,0,0,6.093-1.773,59.67,59.67,0,0,1,11.111-4.633C1084.782,3730.453,1085.5,3729.079,1085.5,3729.079Z"/><path class="t" d="M1110.506,3723.891c3-3.725,9.713-3.533,13.683-1.736,5.446,2.465,8.829,7.825,11.672,12.83-5.46,4.753-15.521,7.9-22.4,3.336-2.958-1.963-6.033-7.3-4.9-11.076A20.217,20.217,0,0,1,1110.506,3723.891Z"/><path class="r" d="M1111.375,3725.723s7.488,1.474,12.065,3.66,10,5.379,10,5.379a15.257,15.257,0,0,1-6.094-1.773,59.667,59.667,0,0,0-11.11-4.633C1112.091,3727.1,1111.375,3725.723,1111.375,3725.723Z"/><path class="q" d="M1075.733,3747.878c-.281,3.165-.261,8.351,1.2,9.594,2.567-.736,6.4-1.593,8.153-2.307,6.861-2.791,11.628-7.35,11.29-14.787-.1-2.2-.295-8.312-2.587-9.651C1085,3731.311,1076.693,3737.032,1075.733,3747.878Z"/><path class="r" d="M1090.721,3734.85c-6.915,1.77-11.567,12.03-11.986,18.511,1.765-1.773,2.514-7.171,4.411-10.332C1085.1,3739.771,1088.779,3737.256,1090.721,3734.85Z"/><path class="q" d="M1123.656,3747.112c.281,3.165.261,8.351-1.2,9.594-2.567-.737-6.4-1.594-8.153-2.307-6.861-2.791-11.628-7.351-11.291-14.787.1-2.206.3-8.312,2.588-9.651C1114.387,3730.544,1122.7,3736.265,1123.656,3747.112Z"/><path class="r" d="M1108.668,3734.083c6.914,1.77,11.567,12.031,11.986,18.511-1.765-1.772-2.514-7.17-4.411-10.332C1114.286,3739,1110.61,3736.49,1108.668,3734.083Z"/><path class="p" d="M1084.319,3708.778c.917-2.246,3.2-3.335,9.31-2.434,3.251-5.02,7.367-2.376,9.383-1.459s1.908,6.679-.585,9.622-2.247,5.123-4.441,5.4-9.782-4.038-11.7-5.688C1083.894,3712.169,1083.689,3710.32,1084.319,3708.778Z"/><path class="q" d="M1073.237,3711.08c-3.053.88-7.882,2.771-8.512,4.586,1.613,2.128,3.8,5.393,5.094,6.771,5.079,5.392,11.052,8.192,17.865,5.193,2.021-.889,7.645-3.276,8.067-5.9C1092.033,3713.744,1083.7,3708.061,1073.237,3711.08Z"/><path class="r" d="M1090.8,3720.355c-4.147-5.809-15.4-6.445-21.59-4.5,2.291,1.007,7.595-.243,11.228.386C1084.18,3716.892,1087.852,3719.413,1090.8,3720.355Z"/><path class="t" d="M1119.318,3705.974c3.124.579,8.115,1.99,8.919,3.736-1.4,2.274-3.253,5.737-4.41,7.234-4.53,5.861-10.2,9.23-17.275,6.909-2.1-.688-7.927-2.515-8.6-5.082C1100.872,3710.457,1108.612,3703.989,1119.318,3705.974Z"/><path class="r" d="M1102.746,3716.916c3.561-6.185,14.693-7.914,21.048-6.579-2.181,1.225-7.582.5-11.136,1.478C1108.994,3712.824,1105.585,3715.691,1102.746,3716.916Z"/><path class="s" d="M1089.619,3720.243c-4.3-2.088-10.292.947-13.116,4.266-3.875,4.552-4.648,10.843-5.086,16.583,6.966,1.97,17.41.527,21.683-6.536,1.837-3.037,2.344-9.173-.3-12.106A20.209,20.209,0,0,0,1089.619,3720.243Z"/><path class="t" d="M1089.615,3722.271s-6.145,4.526-9.351,8.456-6.747,9.128-6.747,9.128a15.258,15.258,0,0,0,4.755-4.2,59.844,59.844,0,0,1,8.074-8.929C1089.553,3723.819,1089.615,3722.271,1089.615,3722.271Z"/><path class="s" d="M1104.156,3719.726c3.868-2.814,10.3-.881,13.663,1.888,4.616,3.8,6.485,9.856,7.927,15.428-6.51,3.167-17.045,3.586-22.495-2.614-2.344-2.666-3.923-8.617-1.84-11.969A20.151,20.151,0,0,1,1104.156,3719.726Z"/><path class="t" d="M1104.517,3721.721s6.846,3.373,10.7,6.677,8.248,7.8,8.248,7.8a15.262,15.262,0,0,1-5.422-3.3,59.658,59.658,0,0,0-9.519-7.368C1104.851,3723.234,1104.517,3721.721,1104.517,3721.721Z"/><path class="t" d="M1095.967,3725.036c-2.124-.068-4.37.052-7.078,7.3s-.134,10.889,3.643,14.437a63.289,63.289,0,0,0,7.969,6.354s9.3-6.083,9.29-15.691c-.005-6.529-4.866-13.063-7.3-12.731A31.1,31.1,0,0,1,1095.967,3725.036Z"/><path class="r" d="M1098.779,3727.468c.257.333-.46,3.222-.065,8.849a128.319,128.319,0,0,0,1.868,13.049s.362-7.521-.081-14.156S1098.779,3727.468,1098.779,3727.468Z"/><path class="u" d="M1097.695,3706.016c.763-2.025.286-4.645,4.437-4.641.776,0,3.083.558,3.106,2.676,3.83-1.992,9.677,2.469,7.291,6.989a5.577,5.577,0,0,1-.276,6.354c-1.671,2.191-6.214,3.993-7.9,1.789-2.481.821-4.906,1.055-7.237-.855-2.125-1.741-3.126-5.077-2.855-7.841C1094.489,3708.157,1095.4,3706.626,1097.695,3706.016Z"/><path class="v" d="M1096.214,3710.211a3.233,3.233,0,0,1,3.408-1.854c-.767-1.393-.357-3.809.985-4.484,1.951-.982,3.155,1.012,3.588,2.767a5.05,5.05,0,0,1,3.187.894,3.15,3.15,0,0,1,1.61,3.2c.01.007.021,0,.03.011a4.668,4.668,0,0,1,1.825,3.015,2.324,2.324,0,0,1-1.966,2.634c.062,1.624-3.06,2.748-4.216,1.281-.39.556-1.809.715-2.415.781-1.862.2-3.492-1.32-4.528-2.689C1096.619,3714.307,1095.492,3712.065,1096.214,3710.211Z"/><path class="w" d="M1098.052,3707.082c.9-1.057,2.858-1.764,3.942-1.016a3.194,3.194,0,0,1,2.505-1.087,2.7,2.7,0,0,1,2.138.792,3.2,3.2,0,0,1,1.254-.279,3.066,3.066,0,0,1,2.786,2.013,3.509,3.509,0,0,1-.716,3.544,2.626,2.626,0,0,1-.956.56c1.193,1.468.577,3.67-1.3,4.945-1.161.789-2.423,1.223-3.692.389a3.545,3.545,0,0,1-.584-.527c-1.219.576-3.607-.1-4.554-.973a3.084,3.084,0,0,1-.716-3.148A3.774,3.774,0,0,1,1098.052,3707.082Z"/><path class="u" d="M1098.043,3708.689c.52-1.892,3.173-1.971,4.486-.9,1.391-.8,3.265-1.138,4.571-.04,1.095-.725,2.194.607,2.052,1.753a2.212,2.212,0,0,1-1.286,1.571,1.11,1.11,0,0,1-.348,1.837,2,2,0,0,1-1.57,3.319,3.6,3.6,0,0,1-2.821-1.4,2.952,2.952,0,0,1-2.639.094,2.457,2.457,0,0,1-1.1-3.271A2.829,2.829,0,0,1,1098.043,3708.689Z"/><path class="x" d="M1098.881,3710.882a2.4,2.4,0,0,1,1.569-2.909,2.476,2.476,0,0,1,2.076-2.692c1.091-.267,1.853.44,2.451,1.332a2.389,2.389,0,0,1,3.334,1.915,2.446,2.446,0,0,1-1.41,2.216,2.27,2.27,0,0,1-.9,3.667,2.71,2.71,0,0,1-3.758-1.8A2.377,2.377,0,0,1,1098.881,3710.882Z"/><path class="y" d="M1101.991,3709.684a1.13,1.13,0,0,1,1.246-1.268,1.086,1.086,0,0,1,1.314-.3,1.117,1.117,0,0,1,.534,1.558c.269.938-1.238,1.931-1.885.978A1.072,1.072,0,0,1,1101.991,3709.684Z"/><path class="u" d="M1099.178,3717.506c-.763-2.025-.286-4.645-4.437-4.641-.775,0-3.083.559-3.1,2.676-3.831-1.993-9.677,2.469-7.292,6.989a5.579,5.579,0,0,0,.276,6.354c1.671,2.191,6.214,3.993,7.9,1.789,2.482.821,4.907,1.054,7.237-.855,2.126-1.741,3.126-5.077,2.856-7.841C1102.384,3719.647,1101.47,3718.116,1099.178,3717.506Z"/><path class="v" d="M1100.659,3721.7a3.231,3.231,0,0,0-3.407-1.854c.766-1.393.356-3.809-.986-4.484-1.95-.983-3.155,1.011-3.588,2.767a5.044,5.044,0,0,0-3.186.894,3.152,3.152,0,0,0-1.611,3.2c-.009.007-.021,0-.03.011a4.665,4.665,0,0,0-1.825,3.015,2.324,2.324,0,0,0,1.967,2.634c-.063,1.624,3.06,2.748,4.215,1.28.39.557,1.809.716,2.415.782,1.862.2,3.492-1.32,4.529-2.689C1100.254,3725.8,1101.381,3723.555,1100.659,3721.7Z"/><path class="w" d="M1098.821,3718.573c-.9-1.058-2.857-1.766-3.942-1.017a3.192,3.192,0,0,0-2.5-1.087,2.7,2.7,0,0,0-2.139.791,3.219,3.219,0,0,0-1.254-.278,3.065,3.065,0,0,0-2.786,2.012,3.508,3.508,0,0,0,.717,3.544,2.574,2.574,0,0,0,.955.56c-1.193,1.469-.577,3.671,1.3,4.947,1.161.788,2.423,1.221,3.692.388a3.6,3.6,0,0,0,.585-.527c1.218.576,3.606-.1,4.554-.973a3.085,3.085,0,0,0,.716-3.148A3.773,3.773,0,0,0,1098.821,3718.573Z"/><path class="u" d="M1098.83,3720.178c-.52-1.891-3.172-1.97-4.486-.894-1.391-.8-3.265-1.139-4.571-.04-1.094-.725-2.194.607-2.052,1.753a2.216,2.216,0,0,0,1.286,1.571,1.11,1.11,0,0,0,.349,1.837,2,2,0,0,0,1.57,3.319,3.6,3.6,0,0,0,2.821-1.4,2.949,2.949,0,0,0,2.639.095,2.458,2.458,0,0,0,1.1-3.272A2.826,2.826,0,0,0,1098.83,3720.178Z"/><path class="x" d="M1097.993,3722.371a2.4,2.4,0,0,0-1.57-2.909,2.477,2.477,0,0,0-2.076-2.692c-1.09-.266-1.853.441-2.45,1.333a2.389,2.389,0,0,0-3.335,1.915,2.446,2.446,0,0,0,1.411,2.216,2.269,2.269,0,0,0,.9,3.667,2.71,2.71,0,0,0,3.758-1.8A2.378,2.378,0,0,0,1097.993,3722.371Z"/><path class="y" d="M1094.882,3721.174a1.13,1.13,0,0,0-1.246-1.268,1.085,1.085,0,0,0-1.314-.3,1.118,1.118,0,0,0-.534,1.558c-.269.938,1.238,1.93,1.886.978A1.071,1.071,0,0,0,1094.882,3721.174Z"/><path class="q" d="M1334.012,3785.572c-4.763.434-8.322,6.127-9.025,10.428-.966,5.9,1.623,11.686,4.214,16.826,6.982-1.912,15.178-8.544,15.187-16.8,0-3.55-2.733-9.064-6.51-10.211A20.167,20.167,0,0,0,1334.012,3785.572Z"/><path class="r" d="M1335.056,3787.309s-2.921,7.05-3.637,12.072-1.059,11.3-1.059,11.3a15.269,15.269,0,0,0,1.9-6.055,59.622,59.622,0,0,1,2.3-11.816C1335.8,3788.667,1335.056,3787.309,1335.056,3787.309Z"/><path class="q" d="M1202.43,3718.163c4.654-1.1,9.839,3.16,11.876,7.014,2.793,5.285,2.18,11.594,1.361,17.291-7.228.41-17.109-3.268-19.745-11.09-1.134-3.364-.3-9.463,2.92-11.752A20.182,20.182,0,0,1,1202.43,3718.163Z"/><path class="r" d="M1201.993,3720.143s5.014,5.753,7.291,10.286,4.6,10.376,4.6,10.376a15.254,15.254,0,0,1-3.729-5.135,59.648,59.648,0,0,0-5.941-10.47C1201.717,3721.668,1201.993,3720.143,1201.993,3720.143Z"/><path class="q" d="M1178.451,3744.692c1.526,2.787,4.426,7.087,6.335,7.306,1.724-2.039,4.434-4.882,5.495-6.45,4.152-6.134,5.58-12.574,1.166-18.568-1.309-1.778-4.866-6.745-7.516-6.584C1176.947,3725.769,1173.221,3735.142,1178.451,3744.692Z"/><path class="r" d="M1183.668,3725.531c-4.763,5.315-2.928,16.43.326,22.05.482-2.455-1.9-7.358-2.076-11.04C1181.733,3732.745,1183.392,3728.611,1183.668,3725.531Z"/><path class="t" d="M1166.368,3729.92c.979,3.022,3.026,7.788,4.861,8.359,2.074-1.682,5.266-3.97,6.6-5.312,5.223-5.252,7.828-11.312,4.609-18.024-.955-1.991-3.523-7.535-6.156-7.871C1168.42,3711.047,1163.011,3719.561,1166.368,3729.92Z"/><path class="r" d="M1175.068,3712.068c-5.672,4.333-5.942,15.6-3.793,21.724.931-2.322-.491-7.583.02-11.234C1171.821,3718.794,1174.222,3715.042,1175.068,3712.068Z"/><path class="t" d="M1201.832,3729.515c-.98,3.023-3.026,7.788-4.861,8.359-2.075-1.681-5.267-3.969-6.6-5.311-5.224-5.252-7.828-11.312-4.61-18.025.955-1.99,3.523-7.534,6.156-7.871C1199.779,3710.643,1205.189,3719.157,1201.832,3729.515Z"/><path class="r" d="M1193.131,3711.664c5.672,4.333,5.942,15.595,3.793,21.723-.931-2.321.491-7.582-.02-11.234C1196.378,3718.389,1193.978,3714.638,1193.131,3711.664Z"/><path class="s" d="M1182.141,3698.123c-4.763.431-8.327,6.121-9.034,10.421-.969,5.9,1.614,11.687,4.2,16.829,6.984-1.906,15.185-8.532,15.2-16.786.007-3.551-2.725-9.067-6.5-10.217A20.189,20.189,0,0,0,1182.141,3698.123Z"/><path class="t" d="M1183.184,3699.862s-2.928,7.047-3.647,12.069-1.068,11.3-1.068,11.3a15.269,15.269,0,0,0,1.905-6.053,59.6,59.6,0,0,1,2.308-11.815C1183.93,3701.22,1183.184,3699.862,1183.184,3699.862Z"/><path class="p" d="M1170.173,3688.6c-3-3.725-9.712-3.534-13.683-1.737-5.446,2.465-8.829,7.826-11.672,12.83,5.46,4.754,15.521,7.9,22.4,3.337,2.958-1.964,6.033-7.3,4.9-11.076A20.156,20.156,0,0,0,1170.173,3688.6Z"/><path class="r" d="M1169.3,3690.428s-7.488,1.473-12.065,3.66-9.995,5.379-9.995,5.379a15.28,15.28,0,0,0,6.094-1.773,59.639,59.639,0,0,1,11.11-4.633C1168.588,3691.8,1169.3,3690.428,1169.3,3690.428Z"/><path class="s" d="M1167.148,3705.431c-4.545-1.492-10.071,2.32-12.425,5.987-3.228,5.032-3.149,11.37-2.813,17.116,7.168,1.018,17.324-1.815,20.609-9.388,1.413-3.257,1.091-9.4-1.92-11.956A20.077,20.077,0,0,0,1167.148,3705.431Z"/><path class="t" d="M1167.416,3707.44s-5.481,5.311-8.131,9.636-5.459,9.951-5.459,9.951a15.275,15.275,0,0,0,4.148-4.8,59.57,59.57,0,0,1,6.8-9.932C1167.563,3708.983,1167.416,3707.44,1167.416,3707.44Z"/><path class="s" d="M1202.995,3700.257c4.544-1.492,10.071,2.32,12.424,5.988,3.229,5.031,3.15,11.37,2.813,17.116-7.168,1.017-17.323-1.816-20.608-9.388-1.414-3.257-1.091-9.4,1.92-11.956A20.146,20.146,0,0,1,1202.995,3700.257Z"/><path class="t" d="M1202.726,3702.267s5.481,5.31,8.132,9.635,5.459,9.951,5.459,9.951a15.261,15.261,0,0,1-4.148-4.8,59.676,59.676,0,0,0-6.8-9.932C1202.58,3703.81,1202.726,3702.267,1202.726,3702.267Z"/><path class="s" d="M1227.461,3698.035c4.544-1.492,10.071,2.32,12.424,5.988,3.228,5.031,3.15,11.37,2.813,17.116-7.168,1.017-17.323-1.816-20.609-9.388-1.413-3.257-1.091-9.405,1.92-11.956A20.2,20.2,0,0,1,1227.461,3698.035Z"/><path class="t" d="M1227.192,3700.045s5.481,5.31,8.132,9.635,5.459,9.951,5.459,9.951a15.259,15.259,0,0,1-4.148-4.8,59.686,59.686,0,0,0-6.8-9.932C1227.046,3701.588,1227.192,3700.045,1227.192,3700.045Z"/><path class="p" d="M1341.7,3780.838c4.544-1.492,10.071,2.32,12.424,5.988,3.229,5.031,3.15,11.369,2.813,17.115-7.167,1.018-17.323-1.815-20.608-9.388-1.413-3.256-1.092-9.4,1.92-11.956A20.169,20.169,0,0,1,1341.7,3780.838Z"/><path class="r" d="M1341.437,3782.847s5.481,5.311,8.131,9.636,5.459,9.951,5.459,9.951a15.273,15.273,0,0,1-4.148-4.8,59.644,59.644,0,0,0-6.8-9.932C1341.29,3784.39,1341.437,3782.847,1341.437,3782.847Z"/><path class="s" d="M1300.165,3664.2c4.545-1.491,10.071,2.321,12.425,5.989,3.228,5.031,3.149,11.369,2.812,17.115-7.168,1.017-17.323-1.815-20.608-9.388-1.413-3.257-1.091-9.4,1.92-11.956A20.231,20.231,0,0,1,1300.165,3664.2Z"/><path class="t" d="M1299.9,3666.209s5.481,5.311,8.131,9.636,5.459,9.951,5.459,9.951a15.271,15.271,0,0,1-4.148-4.8,59.614,59.614,0,0,0-6.8-9.933C1299.75,3667.752,1299.9,3666.209,1299.9,3666.209Z"/><path class="s" d="M1297.05,3658.542c-1.506-4.54,2.289-10.079,5.95-12.443,5.021-3.244,11.36-3.184,17.107-2.865,1.039,7.164-1.763,17.328-9.325,20.637-3.253,1.423-9.4,1.12-11.962-1.883A20.151,20.151,0,0,1,1297.05,3658.542Z"/><path class="t" d="M1299.06,3658.8s5.294-5.5,9.611-8.161,9.934-5.489,9.934-5.489a15.254,15.254,0,0,1-4.79,4.162,59.726,59.726,0,0,0-9.911,6.831C1300.6,3658.946,1299.06,3658.8,1299.06,3658.8Z"/><path class="t" d="M1226.108,3690.384c3-3.724,9.712-3.533,13.682-1.736,5.446,2.464,8.829,7.825,11.673,12.83-5.461,4.753-15.522,7.9-22.4,3.336-2.958-1.963-6.033-7.3-4.9-11.076A20.085,20.085,0,0,1,1226.108,3690.384Z"/><path class="r" d="M1226.976,3692.216s7.488,1.473,12.065,3.66,9.995,5.379,9.995,5.379a15.257,15.257,0,0,1-6.094-1.773,59.639,59.639,0,0,0-11.11-4.633C1227.692,3693.59,1226.976,3692.216,1226.976,3692.216Z"/><path class="t" d="M1342.869,3773.738c-3-3.724-9.712-3.533-13.683-1.736-5.446,2.465-8.829,7.825-11.672,12.83,5.46,4.753,15.522,7.9,22.4,3.336,2.958-1.963,6.033-7.3,4.9-11.075A20.21,20.21,0,0,0,1342.869,3773.738Z"/><path class="r" d="M1342,3775.57s-7.489,1.474-12.066,3.66-10,5.379-10,5.379a15.257,15.257,0,0,0,6.094-1.773,59.816,59.816,0,0,1,11.11-4.633C1341.284,3776.945,1342,3775.57,1342,3775.57Z"/><path class="q" d="M1153.518,3793.983c-4.763.435-8.322,6.128-9.025,10.429-.966,5.9,1.623,11.685,4.214,16.825,6.982-1.912,15.178-8.544,15.187-16.8,0-3.55-2.733-9.064-6.51-10.21A20.1,20.1,0,0,0,1153.518,3793.983Z"/><path class="r" d="M1154.562,3795.721s-2.922,7.05-3.637,12.072-1.059,11.3-1.059,11.3a15.27,15.27,0,0,0,1.9-6.056,59.721,59.721,0,0,1,2.3-11.816C1155.309,3797.079,1154.562,3795.721,1154.562,3795.721Z"/><path class="t" d="M1224.425,3662.635c4.461-1.727,10.179,1.792,12.72,5.333,3.486,4.855,3.738,11.189,3.7,16.945-7.1,1.39-17.394-.91-21.07-8.3-1.581-3.179-1.58-9.335,1.294-12.04A20.227,20.227,0,0,1,1224.425,3662.635Z"/><path class="r" d="M1224.262,3664.656s5.75,5.018,8.623,9.2,5.97,9.653,5.97,9.653a15.255,15.255,0,0,1-4.392-4.581,59.7,59.7,0,0,0-7.31-9.564C1224.2,3666.2,1224.262,3664.656,1224.262,3664.656Z"/><path class="q" d="M1159.538,3709.227c-.28,3.164-.26,8.351,1.205,9.594,2.567-.737,6.4-1.594,8.153-2.307,6.862-2.791,11.629-7.351,11.291-14.788-.1-2.2-.3-8.311-2.588-9.65C1168.807,3692.659,1160.5,3698.38,1159.538,3709.227Z"/><path class="r" d="M1174.526,3696.2c-6.914,1.77-11.567,12.031-11.986,18.511,1.766-1.772,2.514-7.17,4.412-10.331C1168.908,3701.119,1172.584,3698.6,1174.526,3696.2Z"/><path class="q" d="M1254.63,3738.628c-.281,3.165-.261,8.351,1.2,9.594,2.567-.737,6.4-1.593,8.153-2.306,6.861-2.792,11.628-7.351,11.291-14.788-.1-2.2-.3-8.312-2.588-9.651C1263.9,3722.061,1255.59,3727.782,1254.63,3738.628Z"/><path class="r" d="M1269.618,3725.6c-6.914,1.77-11.567,12.03-11.986,18.511,1.765-1.773,2.514-7.171,4.411-10.332C1264,3730.521,1267.676,3728.006,1269.618,3725.6Z"/><path class="q" d="M1280.542,3677.244c-.281,3.165-.261,8.351,1.2,9.594,2.567-.737,6.4-1.593,8.152-2.307,6.862-2.791,11.629-7.35,11.292-14.787-.1-2.2-.3-8.312-2.588-9.651C1289.81,3660.677,1281.5,3666.4,1280.542,3677.244Z"/><path class="r" d="M1295.53,3664.216c-6.914,1.77-11.567,12.03-11.986,18.511,1.765-1.773,2.513-7.171,4.411-10.332C1289.912,3669.136,1293.588,3666.622,1295.53,3664.216Z"/><path class="q" d="M1205.358,3680.234c-.28,3.165-.26,8.351,1.206,9.594,2.567-.737,6.4-1.594,8.153-2.307,6.861-2.791,11.628-7.35,11.29-14.787-.1-2.206-.295-8.312-2.587-9.651C1214.627,3663.667,1206.319,3669.387,1205.358,3680.234Z"/><path class="r" d="M1220.346,3667.205c-6.914,1.771-11.567,12.031-11.985,18.511,1.765-1.773,2.513-7.17,4.411-10.331C1214.728,3672.126,1218.405,3669.612,1220.346,3667.205Z"/><path class="q" d="M1207.462,3708.46c.28,3.165.26,8.351-1.205,9.594-2.567-.736-6.4-1.593-8.153-2.306-6.862-2.792-11.629-7.351-11.291-14.788.1-2.205.3-8.312,2.588-9.651C1198.193,3691.893,1206.5,3697.614,1207.462,3708.46Z"/><path class="r" d="M1192.474,3695.432c6.914,1.77,11.567,12.03,11.986,18.511-1.765-1.773-2.514-7.171-4.412-10.332C1198.092,3700.353,1194.416,3697.839,1192.474,3695.432Z"/><path class="t" d="M1295.852,3731.2c1.408,2.848,3.27,7.688,2.354,9.378-2.659.244-6.542.835-8.435.806-7.406-.114-13.5-2.635-15.883-9.689-.706-2.092-2.737-7.854-1.086-9.933C1281.208,3719.115,1291.025,3721.436,1295.852,3731.2Z"/><path class="r" d="M1277.16,3724.486c7.086-.856,15.142,7.02,17.881,12.908-2.288-1.013-4.942-5.772-7.857-8.03C1284.18,3727.036,1279.842,3726.025,1277.16,3724.486Z"/><path class="t" d="M1323.464,3667.343c1.409,2.848,3.27,7.688,2.355,9.378-2.66.244-6.542.835-8.435.8-7.407-.113-13.5-2.635-15.883-9.688-.707-2.092-2.738-7.854-1.087-9.933C1308.82,3655.262,1318.637,3657.582,1323.464,3667.343Z"/><path class="r" d="M1304.772,3660.634c7.086-.857,15.142,7.019,17.881,12.907-2.287-1.012-4.941-5.772-7.856-8.03C1311.792,3663.183,1307.455,3662.173,1304.772,3660.634Z"/><path class="p" d="M1168.125,3670.126c.917-2.245,3.194-3.334,9.309-2.433,3.251-5.021,7.368-2.376,9.384-1.459s1.907,6.678-.586,9.621-2.247,5.123-4.44,5.405-9.782-4.038-11.7-5.689C1167.7,3673.517,1167.495,3671.669,1168.125,3670.126Z"/><path class="t" d="M1157.043,3672.428c-3.053.881-7.882,2.771-8.513,4.587,1.614,2.128,3.8,5.393,5.094,6.77,5.08,5.392,11.052,8.192,17.866,5.193,2.02-.889,7.645-3.275,8.066-5.9C1175.839,3675.093,1167.505,3669.409,1157.043,3672.428Z"/><path class="p" d="M1174.6,3681.7c-4.146-5.809-15.394-6.446-21.589-4.5,2.29,1.006,7.6-.244,11.228.385C1167.985,3678.24,1171.657,3680.761,1174.6,3681.7Z"/><path class="t" d="M1203.124,3667.322c3.124.58,8.115,1.99,8.919,3.736-1.4,2.275-3.253,5.737-4.41,7.235-4.53,5.861-10.2,9.229-17.275,6.908-2.1-.688-7.928-2.515-8.6-5.082C1184.677,3671.806,1192.418,3665.337,1203.124,3667.322Z"/><path class="r" d="M1186.552,3678.265c3.56-6.186,14.693-7.915,21.048-6.579-2.182,1.225-7.582.5-11.137,1.477C1192.8,3674.173,1189.391,3677.04,1186.552,3678.265Z"/><path class="s" d="M1140.083,3677.255c3.168-.237,8.354-.146,9.577,1.336-.772,2.557-1.682,6.378-2.419,8.121-2.885,6.822-7.509,11.526-14.941,11.087-2.2-.131-8.307-.41-9.614-2.72C1123.39,3686.295,1129.225,3678.066,1140.083,3677.255Z"/><path class="t" d="M1126.85,3692.062c1.865-6.889,12.188-11.4,18.674-11.73-1.8,1.741-7.205,2.415-10.392,4.269C1131.848,3686.512,1129.283,3690.154,1126.85,3692.062Z"/><path class="s" d="M1173.425,3681.592c-4.3-2.089-10.292.946-13.117,4.265-3.874,4.552-4.647,10.844-5.085,16.583,6.966,1.971,17.41.527,21.682-6.536,1.838-3.037,2.345-9.172-.3-12.1A20.15,20.15,0,0,0,1173.425,3681.592Z"/><path class="t" d="M1173.421,3683.619s-6.145,4.527-9.352,8.457-6.746,9.127-6.746,9.127a15.254,15.254,0,0,0,4.755-4.2,59.682,59.682,0,0,1,8.073-8.929C1173.359,3685.168,1173.421,3683.619,1173.421,3683.619Z"/><path class="s" d="M1187.962,3681.074c3.868-2.814,10.3-.88,13.663,1.889,4.615,3.8,6.484,9.855,7.927,15.428-6.511,3.166-17.045,3.585-22.495-2.615-2.344-2.666-3.923-8.616-1.84-11.968A20.154,20.154,0,0,1,1187.962,3681.074Z"/><path class="t" d="M1188.323,3683.069s6.846,3.374,10.695,6.677,8.248,7.8,8.248,7.8a15.254,15.254,0,0,1-5.421-3.3,59.633,59.633,0,0,0-9.52-7.367C1188.657,3684.583,1188.323,3683.069,1188.323,3683.069Z"/><path class="t" d="M1179.773,3686.384c-2.124-.068-4.37.052-7.078,7.3s-.135,10.89,3.643,14.438a63.357,63.357,0,0,0,7.969,6.353s9.3-6.082,9.29-15.69c-.005-6.529-4.866-13.063-7.3-12.732A31.1,31.1,0,0,1,1179.773,3686.384Z"/><path class="r" d="M1182.584,3688.817c.257.332-.46,3.221-.064,8.848a127.994,127.994,0,0,0,1.868,13.049s.362-7.52-.081-14.156S1182.584,3688.817,1182.584,3688.817Z"/><path class="u" d="M1181.5,3667.364c.762-2.025.286-4.645,4.437-4.641.775,0,3.083.559,3.106,2.677,3.83-1.993,9.676,2.469,7.291,6.988a5.579,5.579,0,0,1-.277,6.355c-1.67,2.19-6.213,3.993-7.9,1.789-2.482.821-4.907,1.054-7.237-.855-2.126-1.741-3.126-5.077-2.856-7.841C1178.294,3669.506,1179.209,3667.974,1181.5,3667.364Z"/><path class="v" d="M1180.02,3671.56a3.229,3.229,0,0,1,3.407-1.854c-.766-1.393-.356-3.809.986-4.485,1.95-.982,3.155,1.012,3.588,2.767a5.054,5.054,0,0,1,3.186.894,3.153,3.153,0,0,1,1.611,3.2c.009.007.021,0,.03.012a4.662,4.662,0,0,1,1.824,3.015,2.323,2.323,0,0,1-1.966,2.634c.063,1.623-3.06,2.747-4.215,1.28-.39.557-1.809.716-2.415.781-1.862.2-3.492-1.319-4.529-2.689C1180.425,3675.655,1179.3,3673.413,1180.02,3671.56Z"/><path class="w" d="M1181.858,3668.431c.9-1.058,2.857-1.765,3.941-1.017a3.2,3.2,0,0,1,2.505-1.087,2.706,2.706,0,0,1,2.139.792,3.206,3.206,0,0,1,1.254-.278,3.065,3.065,0,0,1,2.786,2.012,3.51,3.51,0,0,1-.717,3.544,2.6,2.6,0,0,1-.955.56c1.193,1.469.577,3.671-1.3,4.946-1.161.789-2.423,1.222-3.693.389a3.59,3.59,0,0,1-.583-.528c-1.219.577-3.607-.1-4.555-.972a3.086,3.086,0,0,1-.716-3.148A3.774,3.774,0,0,1,1181.858,3668.431Z"/><path class="u" d="M1181.849,3670.037c.52-1.892,3.172-1.971,4.485-.9,1.392-.805,3.266-1.138,4.572-.039,1.094-.726,2.193.607,2.052,1.752a2.213,2.213,0,0,1-1.286,1.571,1.111,1.111,0,0,1-.349,1.838,1.994,1.994,0,0,1-1.569,3.318,3.6,3.6,0,0,1-2.822-1.4,2.949,2.949,0,0,1-2.639.095,2.459,2.459,0,0,1-1.1-3.272A2.826,2.826,0,0,1,1181.849,3670.037Z"/><path class="x" d="M1182.686,3672.23a2.4,2.4,0,0,1,1.57-2.909,2.477,2.477,0,0,1,2.076-2.692c1.091-.266,1.853.441,2.45,1.333a2.389,2.389,0,0,1,3.335,1.915,2.449,2.449,0,0,1-1.411,2.216,2.269,2.269,0,0,1-.9,3.667,2.709,2.709,0,0,1-3.757-1.8A2.379,2.379,0,0,1,1182.686,3672.23Z"/><path class="y" d="M1185.8,3671.033a1.131,1.131,0,0,1,1.246-1.269,1.086,1.086,0,0,1,1.314-.3,1.118,1.118,0,0,1,.534,1.558c.269.937-1.238,1.93-1.886.978A1.072,1.072,0,0,1,1185.8,3671.033Z"/><path class="u" d="M1182.984,3678.854c-.763-2.025-.286-4.645-4.437-4.641-.775,0-3.083.559-3.106,2.676-3.83-1.992-9.677,2.47-7.291,6.989a5.579,5.579,0,0,0,.276,6.355c1.671,2.19,6.214,3.992,7.9,1.789,2.482.821,4.906,1.054,7.236-.855,2.126-1.742,3.127-5.077,2.856-7.841C1186.19,3681,1185.276,3679.464,1182.984,3678.854Z"/><path class="v" d="M1184.465,3683.05a3.231,3.231,0,0,0-3.407-1.854c.766-1.394.356-3.809-.986-4.485-1.951-.982-3.156,1.012-3.588,2.767a5.059,5.059,0,0,0-3.187.894,3.153,3.153,0,0,0-1.611,3.2c-.009.007-.02,0-.029.011a4.668,4.668,0,0,0-1.825,3.016,2.324,2.324,0,0,0,1.966,2.634c-.062,1.623,3.06,2.747,4.216,1.28.389.557,1.809.716,2.415.781,1.862.2,3.492-1.319,4.528-2.689C1184.06,3687.145,1185.186,3684.9,1184.465,3683.05Z"/><path class="w" d="M1182.627,3679.921c-.9-1.058-2.858-1.765-3.942-1.017a3.2,3.2,0,0,0-2.505-1.087,2.7,2.7,0,0,0-2.138.792,3.229,3.229,0,0,0-1.254-.279,3.067,3.067,0,0,0-2.786,2.013,3.508,3.508,0,0,0,.716,3.544,2.6,2.6,0,0,0,.956.56c-1.194,1.468-.577,3.671,1.3,4.946,1.16.789,2.423,1.222,3.692.389a3.555,3.555,0,0,0,.584-.528c1.219.577,3.606-.1,4.554-.972a3.085,3.085,0,0,0,.716-3.149A3.773,3.773,0,0,0,1182.627,3679.921Z"/><path class="u" d="M1182.636,3681.527c-.52-1.892-3.172-1.97-4.486-.9-1.391-.805-3.265-1.138-4.572-.04-1.094-.725-2.193.607-2.051,1.753a2.208,2.208,0,0,0,1.286,1.571,1.111,1.111,0,0,0,.348,1.838,2,2,0,0,0,1.57,3.318,3.6,3.6,0,0,0,2.822-1.4,2.951,2.951,0,0,0,2.638.1,2.459,2.459,0,0,0,1.1-3.272A2.828,2.828,0,0,0,1182.636,3681.527Z"/><path class="x" d="M1181.8,3683.72a2.394,2.394,0,0,0-1.569-2.909,2.478,2.478,0,0,0-2.076-2.692c-1.091-.266-1.853.441-2.451,1.333a2.388,2.388,0,0,0-3.334,1.914,2.446,2.446,0,0,0,1.411,2.217,2.269,2.269,0,0,0,.9,3.667,2.711,2.711,0,0,0,3.758-1.8A2.377,2.377,0,0,0,1181.8,3683.72Z"/><path class="y" d="M1178.687,3682.523a1.129,1.129,0,0,0-1.245-1.269,1.086,1.086,0,0,0-1.314-.3,1.116,1.116,0,0,0-.534,1.557c-.269.938,1.238,1.931,1.885.978A1.07,1.07,0,0,0,1178.687,3682.523Z"/><path class="s" d="M1346.039,3727.21c4.764.431,8.327,6.121,9.034,10.421.97,5.9-1.614,11.687-4.2,16.829-6.984-1.906-15.185-8.532-15.2-16.787-.007-3.55,2.726-9.066,6.5-10.216A20.118,20.118,0,0,1,1346.039,3727.21Z"/><path class="t" d="M1345,3728.948s2.927,7.048,3.646,12.07,1.069,11.3,1.069,11.3a15.248,15.248,0,0,1-1.905-6.053,59.665,59.665,0,0,0-2.308-11.814C1344.251,3730.307,1345,3728.948,1345,3728.948Z"/><path class="p" d="M1358.008,3717.682c3-3.724,9.712-3.533,13.683-1.736,5.446,2.465,8.828,7.826,11.672,12.83-5.46,4.754-15.522,7.9-22.4,3.337-2.957-1.964-6.032-7.3-4.894-11.076A20.2,20.2,0,0,1,1358.008,3717.682Z"/><path class="r" d="M1358.876,3719.515s7.488,1.473,12.065,3.66,9.995,5.379,9.995,5.379a15.25,15.25,0,0,1-6.093-1.773,59.67,59.67,0,0,0-11.11-4.633C1359.593,3720.889,1358.876,3719.515,1358.876,3719.515Z"/><path class="p" d="M1333.869,3714.326c-3-3.724-9.712-3.533-13.683-1.736-5.446,2.465-8.829,7.826-11.672,12.83,5.46,4.753,15.521,7.9,22.4,3.337,2.958-1.964,6.033-7.3,4.9-11.076A20.21,20.21,0,0,0,1333.869,3714.326Z"/><path class="r" d="M1333,3716.159s-7.488,1.473-12.065,3.66-10,5.379-10,5.379a15.281,15.281,0,0,0,6.094-1.773,59.7,59.7,0,0,1,11.11-4.634C1332.284,3717.533,1333,3716.159,1333,3716.159Z"/><path class="q" d="M1368.642,3738.314c.281,3.165.261,8.35-1.2,9.594-2.567-.737-6.4-1.594-8.154-2.307-6.861-2.791-11.628-7.351-11.29-14.788.1-2.205.3-8.311,2.587-9.65C1359.373,3721.747,1367.682,3727.467,1368.642,3738.314Z"/><path class="r" d="M1353.654,3725.285c6.915,1.771,11.567,12.031,11.986,18.512-1.765-1.774-2.513-7.171-4.411-10.332C1359.272,3730.206,1355.6,3727.692,1353.654,3725.285Z"/><path class="q" d="M1320.719,3737.547c-.281,3.165-.261,8.351,1.2,9.594,2.567-.736,6.4-1.593,8.153-2.307,6.861-2.791,11.628-7.35,11.291-14.787-.1-2.205-.3-8.312-2.588-9.651C1329.988,3720.98,1321.679,3726.7,1320.719,3737.547Z"/><path class="r" d="M1335.707,3724.519c-6.914,1.77-11.567,12.03-11.986,18.511,1.765-1.773,2.514-7.171,4.411-10.332C1330.089,3729.439,1333.765,3726.926,1335.707,3724.519Z"/><path class="q" d="M1360.056,3699.213c-.917-2.245-3.2-3.334-9.309-2.433-3.252-5.021-7.368-2.376-9.385-1.459s-1.907,6.678.586,9.621,2.247,5.123,4.441,5.405,9.782-4.038,11.7-5.689C1360.481,3702.6,1360.686,3700.756,1360.056,3699.213Z"/><path class="t" d="M1371.138,3701.515c3.053.881,7.882,2.771,8.513,4.587-1.614,2.128-3.8,5.393-5.095,6.77-5.079,5.392-11.051,8.193-17.865,5.193-2.021-.889-7.645-3.275-8.067-5.9C1352.342,3704.18,1360.676,3698.5,1371.138,3701.515Z"/><path class="r" d="M1353.578,3710.791c4.146-5.809,15.4-6.446,21.59-4.5-2.291,1.006-7.595-.244-11.228.385C1360.195,3707.327,1356.524,3709.848,1353.578,3710.791Z"/><path class="t" d="M1325.057,3696.41c-3.124.579-8.115,1.989-8.919,3.735,1.4,2.275,3.252,5.737,4.41,7.235,4.53,5.86,10.2,9.23,17.275,6.909,2.1-.689,7.927-2.516,8.6-5.083C1343.5,3700.893,1335.763,3694.424,1325.057,3696.41Z"/><path class="r" d="M1341.629,3707.352c-3.561-6.185-14.693-7.915-21.048-6.579,2.181,1.225,7.582.5,11.136,1.477C1335.381,3703.26,1338.79,3706.127,1341.629,3707.352Z"/><path class="s" d="M1354.756,3710.679c4.3-2.089,10.292.946,13.116,4.265,3.875,4.552,4.648,10.844,5.086,16.583-6.966,1.97-17.41.527-21.683-6.535-1.838-3.038-2.344-9.173.3-12.106A20.209,20.209,0,0,1,1354.756,3710.679Z"/><path class="t" d="M1354.76,3712.707s6.145,4.525,9.352,8.456,6.746,9.127,6.746,9.127a15.246,15.246,0,0,1-4.755-4.2,59.7,59.7,0,0,0-8.074-8.929C1354.822,3714.255,1354.76,3712.707,1354.76,3712.707Z"/><path class="s" d="M1340.219,3710.161c-3.868-2.814-10.3-.88-13.663,1.889-4.616,3.8-6.485,9.855-7.927,15.428,6.51,3.166,17.045,3.585,22.495-2.615,2.344-2.666,3.923-8.616,1.84-11.968A20.21,20.21,0,0,0,1340.219,3710.161Z"/><path class="t" d="M1339.858,3712.156s-6.846,3.374-10.7,6.677-8.249,7.8-8.249,7.8a15.263,15.263,0,0,0,5.422-3.3,59.656,59.656,0,0,1,9.519-7.367C1339.524,3713.67,1339.858,3712.156,1339.858,3712.156Z"/><path class="t" d="M1348.408,3715.471c2.124-.068,4.37.052,7.078,7.3s.134,10.89-3.643,14.438a63.222,63.222,0,0,1-7.969,6.353s-9.3-6.082-9.29-15.691c.005-6.528,4.866-13.062,7.3-12.731A31.017,31.017,0,0,0,1348.408,3715.471Z"/><path class="q" d="M1345.6,3717.9c-.257.332.46,3.221.065,8.848a128.282,128.282,0,0,1-1.868,13.049s-.362-7.52.081-14.155S1345.6,3717.9,1345.6,3717.9Z"/><path class="u" d="M1346.68,3696.451c-.763-2.025-.286-4.645-4.437-4.64-.775,0-3.083.558-3.106,2.676-3.83-1.993-9.676,2.469-7.291,6.988a5.581,5.581,0,0,0,.276,6.355c1.671,2.191,6.214,3.993,7.9,1.789,2.482.821,4.906,1.054,7.236-.855,2.126-1.741,3.127-5.077,2.856-7.841C1349.886,3698.593,1348.972,3697.061,1346.68,3696.451Z"/><path class="v" d="M1348.161,3700.647a3.229,3.229,0,0,0-3.407-1.854c.766-1.393.356-3.809-.986-4.485-1.951-.982-3.156,1.012-3.588,2.767a5.06,5.06,0,0,0-3.187.894,3.151,3.151,0,0,0-1.61,3.2c-.01.006-.021,0-.03.01a4.67,4.67,0,0,0-1.825,3.016,2.323,2.323,0,0,0,1.966,2.633c-.062,1.624,3.06,2.749,4.216,1.281.389.557,1.809.716,2.415.781,1.862.2,3.492-1.319,4.528-2.689C1347.756,3704.743,1348.882,3702.5,1348.161,3700.647Z"/><path class="w" d="M1346.323,3697.518c-.9-1.057-2.858-1.765-3.942-1.017a3.2,3.2,0,0,0-2.505-1.087,2.7,2.7,0,0,0-2.138.792,3.224,3.224,0,0,0-1.254-.278,3.065,3.065,0,0,0-2.786,2.012,3.505,3.505,0,0,0,.717,3.544,2.583,2.583,0,0,0,.955.56c-1.193,1.469-.577,3.671,1.3,4.946,1.16.789,2.423,1.222,3.692.388a3.5,3.5,0,0,0,.584-.527c1.219.577,3.606-.1,4.554-.972a3.083,3.083,0,0,0,.716-3.148A3.774,3.774,0,0,0,1346.323,3697.518Z"/><path class="u" d="M1346.332,3699.124c-.52-1.892-3.172-1.97-4.486-.9-1.391-.8-3.265-1.138-4.572-.04-1.094-.725-2.193.608-2.051,1.754a2.211,2.211,0,0,0,1.286,1.57,1.111,1.111,0,0,0,.348,1.838,1.994,1.994,0,0,0,1.57,3.318,3.6,3.6,0,0,0,2.822-1.4,2.95,2.95,0,0,0,2.638.095,2.459,2.459,0,0,0,1.1-3.272A2.829,2.829,0,0,0,1346.332,3699.124Z"/><path class="x" d="M1345.494,3701.317a2.4,2.4,0,0,0-1.569-2.909,2.478,2.478,0,0,0-2.076-2.692c-1.091-.267-1.853.441-2.451,1.333a2.388,2.388,0,0,0-3.334,1.914,2.448,2.448,0,0,0,1.411,2.217,2.269,2.269,0,0,0,.9,3.667,2.71,2.71,0,0,0,3.758-1.8A2.378,2.378,0,0,0,1345.494,3701.317Z"/><path class="y" d="M1342.383,3700.12a1.129,1.129,0,0,0-1.245-1.269,1.085,1.085,0,0,0-1.314-.3,1.117,1.117,0,0,0-.534,1.558c-.269.938,1.238,1.93,1.885.977A1.069,1.069,0,0,0,1342.383,3700.12Z"/><path class="u" d="M1345.2,3707.941c.762-2.025.286-4.645,4.437-4.64.775,0,3.083.558,3.106,2.675,3.83-1.992,9.676,2.47,7.291,6.989a5.581,5.581,0,0,1-.276,6.355c-1.671,2.19-6.214,3.993-7.9,1.789-2.482.82-4.907,1.054-7.237-.855-2.126-1.742-3.126-5.077-2.856-7.841C1341.99,3710.083,1342.905,3708.551,1345.2,3707.941Z"/><path class="v" d="M1343.716,3712.137a3.23,3.23,0,0,1,3.407-1.854c-.766-1.393-.356-3.81.986-4.485,1.95-.982,3.155,1.012,3.588,2.767a5.056,5.056,0,0,1,3.186.894,3.153,3.153,0,0,1,1.611,3.2c.009.007.021,0,.03.011a4.669,4.669,0,0,1,1.824,3.016,2.324,2.324,0,0,1-1.966,2.634c.063,1.623-3.06,2.748-4.215,1.28-.39.557-1.809.716-2.415.781-1.862.2-3.492-1.319-4.529-2.689C1344.121,3716.232,1342.994,3713.99,1343.716,3712.137Z"/><path class="w" d="M1345.554,3709.008c.9-1.057,2.857-1.765,3.941-1.017A3.2,3.2,0,0,1,1352,3706.9a2.706,2.706,0,0,1,2.139.792,3.2,3.2,0,0,1,1.254-.278,3.065,3.065,0,0,1,2.786,2.012,3.511,3.511,0,0,1-.717,3.544,2.6,2.6,0,0,1-.955.56c1.193,1.468.577,3.671-1.3,4.946-1.161.789-2.423,1.222-3.692.389a3.6,3.6,0,0,1-.584-.527c-1.219.576-3.607-.1-4.555-.973a3.084,3.084,0,0,1-.715-3.149A3.772,3.772,0,0,1,1345.554,3709.008Z"/><path class="u" d="M1345.545,3710.614c.52-1.892,3.172-1.971,4.486-.9,1.391-.8,3.265-1.138,4.571-.04,1.094-.725,2.193.607,2.052,1.753a2.211,2.211,0,0,1-1.286,1.571,1.11,1.11,0,0,1-.349,1.837,2,2,0,0,1-1.569,3.319,3.6,3.6,0,0,1-2.822-1.4,2.953,2.953,0,0,1-2.639.095,2.459,2.459,0,0,1-1.1-3.272A2.827,2.827,0,0,1,1345.545,3710.614Z"/><path class="x" d="M1346.382,3712.807a2.4,2.4,0,0,1,1.57-2.909,2.477,2.477,0,0,1,2.076-2.692c1.091-.266,1.853.441,2.45,1.333a2.389,2.389,0,0,1,3.335,1.914,2.447,2.447,0,0,1-1.411,2.216,2.27,2.27,0,0,1-.9,3.668,2.709,2.709,0,0,1-3.757-1.8A2.378,2.378,0,0,1,1346.382,3712.807Z"/><path class="y" d="M1349.493,3711.609a1.13,1.13,0,0,1,1.246-1.268,1.085,1.085,0,0,1,1.314-.3,1.118,1.118,0,0,1,.534,1.558c.269.938-1.238,1.93-1.886.977A1.071,1.071,0,0,1,1349.493,3711.609Z"/><path class="p" d="M1223.249,3777.814c-4.763.431-8.327,6.121-9.034,10.422-.969,5.9,1.615,11.686,4.2,16.828,6.984-1.906,15.185-8.531,15.2-16.786.006-3.55-2.726-9.067-6.5-10.216A20.054,20.054,0,0,0,1223.249,3777.814Z"/><path class="r" d="M1224.292,3779.552s-2.927,7.048-3.647,12.07-1.068,11.3-1.068,11.3a15.269,15.269,0,0,0,1.905-6.053,59.586,59.586,0,0,1,2.308-11.814C1225.038,3780.911,1224.292,3779.552,1224.292,3779.552Z"/><path class="p" d="M1211.281,3768.287c-3-3.725-9.712-3.534-13.683-1.737-5.446,2.465-8.829,7.826-11.672,12.83,5.46,4.754,15.522,7.9,22.4,3.337,2.957-1.964,6.032-7.3,4.894-11.076A20.136,20.136,0,0,0,1211.281,3768.287Z"/><path class="r" d="M1210.412,3770.119s-7.488,1.473-12.065,3.66-9.995,5.379-9.995,5.379a15.281,15.281,0,0,0,6.094-1.773,59.667,59.667,0,0,1,11.11-4.633C1209.7,3771.493,1210.412,3770.119,1210.412,3770.119Z"/><path class="t" d="M1235.42,3764.931c3-3.725,9.712-3.534,13.683-1.737,5.446,2.465,8.828,7.826,11.672,12.83-5.46,4.754-15.522,7.9-22.4,3.337-2.957-1.964-6.032-7.3-4.894-11.076A20.148,20.148,0,0,1,1235.42,3764.931Z"/><path class="p" d="M1236.288,3766.763s7.488,1.473,12.066,3.66,9.994,5.378,9.994,5.378a15.267,15.267,0,0,1-6.093-1.772,59.667,59.667,0,0,0-11.11-4.633C1237.005,3768.137,1236.288,3766.763,1236.288,3766.763Z"/><path class="q" d="M1200.646,3788.918c-.28,3.165-.26,8.351,1.2,9.594,2.567-.737,6.4-1.594,8.153-2.307,6.862-2.791,11.629-7.35,11.291-14.787-.1-2.206-.3-8.312-2.587-9.651C1209.915,3772.351,1201.607,3778.071,1200.646,3788.918Z"/><path class="r" d="M1215.634,3775.889c-6.914,1.771-11.567,12.031-11.985,18.511,1.765-1.773,2.513-7.17,4.411-10.331C1210.016,3780.81,1213.692,3778.3,1215.634,3775.889Z"/><path class="q" d="M1248.57,3788.151c.28,3.165.261,8.351-1.2,9.594-2.567-.736-6.4-1.593-8.153-2.307-6.862-2.79-11.629-7.35-11.291-14.787.1-2.2.3-8.312,2.588-9.651C1239.3,3771.584,1247.61,3777.3,1248.57,3788.151Z"/><path class="r" d="M1233.582,3775.123c6.914,1.77,11.567,12.03,11.986,18.511-1.765-1.773-2.514-7.17-4.411-10.332C1239.2,3780.044,1235.524,3777.529,1233.582,3775.123Z"/><path class="p" d="M1209.233,3749.817c.917-2.245,3.195-3.334,9.309-2.433,3.252-5.021,7.368-2.376,9.384-1.459s1.907,6.678-.586,9.621-2.247,5.123-4.44,5.405-9.782-4.038-11.7-5.689C1208.808,3753.209,1208.6,3751.36,1209.233,3749.817Z"/><path class="t" d="M1198.151,3752.119c-3.053.881-7.882,2.771-8.513,4.587,1.614,2.128,3.8,5.393,5.094,6.771,5.08,5.391,11.052,8.191,17.866,5.193,2.021-.89,7.645-3.276,8.066-5.9C1216.947,3754.784,1208.613,3749.1,1198.151,3752.119Z"/><path class="r" d="M1215.711,3761.4c-4.147-5.809-15.4-6.445-21.59-4.5,2.29,1.006,7.595-.244,11.228.385C1209.094,3757.931,1212.765,3760.453,1215.711,3761.4Z"/><path class="t" d="M1244.232,3747.013c3.124.58,8.115,1.991,8.919,3.736-1.4,2.275-3.253,5.738-4.41,7.235-4.53,5.861-10.2,9.229-17.275,6.908-2.1-.687-7.927-2.515-8.6-5.082C1225.785,3751.5,1233.526,3745.028,1244.232,3747.013Z"/><path class="r" d="M1227.659,3757.956c3.561-6.186,14.694-7.915,21.049-6.579-2.182,1.225-7.582.5-11.137,1.477C1233.908,3753.864,1230.5,3756.731,1227.659,3757.956Z"/><path class="s" d="M1214.533,3761.283c-4.3-2.089-10.292.947-13.116,4.265-3.875,4.553-4.648,10.844-5.086,16.583,6.966,1.971,17.41.527,21.683-6.535,1.837-3.038,2.344-9.173-.3-12.106A20.161,20.161,0,0,0,1214.533,3761.283Z"/><path class="t" d="M1214.529,3763.31s-6.145,4.527-9.352,8.457-6.746,9.128-6.746,9.128a15.257,15.257,0,0,0,4.755-4.2,59.639,59.639,0,0,1,8.074-8.929C1214.467,3764.859,1214.529,3763.31,1214.529,3763.31Z"/><path class="s" d="M1229.07,3760.765c3.868-2.814,10.3-.881,13.663,1.889,4.615,3.8,6.484,9.856,7.927,15.428-6.511,3.167-17.045,3.586-22.495-2.614-2.344-2.667-3.923-8.617-1.84-11.969A20.217,20.217,0,0,1,1229.07,3760.765Z"/><path class="t" d="M1229.431,3762.761s6.846,3.373,10.695,6.677,8.248,7.8,8.248,7.8a15.278,15.278,0,0,1-5.421-3.3,59.624,59.624,0,0,0-9.52-7.367C1229.765,3764.274,1229.431,3762.761,1229.431,3762.761Z"/><path class="t" d="M1220.881,3766.075c-2.124-.068-4.37.052-7.078,7.3s-.135,10.89,3.643,14.438a63.222,63.222,0,0,0,7.969,6.353s9.3-6.082,9.29-15.691c-.005-6.528-4.866-13.062-7.3-12.731A31.018,31.018,0,0,1,1220.881,3766.075Z"/><path class="r" d="M1223.692,3768.508c.257.332-.46,3.221-.064,8.848a127.956,127.956,0,0,0,1.868,13.049s.362-7.52-.081-14.155S1223.692,3768.508,1223.692,3768.508Z"/><path class="p" d="M1257.193,3649.5c4.764.431,8.327,6.121,9.034,10.422.97,5.9-1.614,11.686-4.2,16.828-6.984-1.906-15.186-8.532-15.2-16.786-.007-3.55,2.725-9.067,6.5-10.216A20.187,20.187,0,0,1,1257.193,3649.5Z"/><path class="r" d="M1256.15,3651.237s2.928,7.047,3.647,12.069,1.069,11.3,1.069,11.3a15.276,15.276,0,0,1-1.9-6.054,59.676,59.676,0,0,0-2.308-11.814C1255.4,3652.595,1256.15,3651.237,1256.15,3651.237Z"/><path class="t" d="M1269.162,3639.971c3-3.724,9.712-3.533,13.682-1.736,5.446,2.464,8.829,7.825,11.673,12.83-5.46,4.753-15.522,7.9-22.4,3.336-2.958-1.964-6.032-7.3-4.894-11.076A20.088,20.088,0,0,1,1269.162,3639.971Z"/><path class="r" d="M1270.03,3641.8s7.488,1.473,12.065,3.66,9.995,5.379,9.995,5.379a15.266,15.266,0,0,1-6.094-1.773,59.611,59.611,0,0,0-11.11-4.633C1270.747,3643.177,1270.03,3641.8,1270.03,3641.8Z"/><path class="p" d="M1245.022,3636.615c-3-3.725-9.712-3.533-13.682-1.737-5.446,2.465-8.829,7.826-11.673,12.83,5.461,4.754,15.522,7.9,22.4,3.337,2.958-1.964,6.033-7.3,4.9-11.076A20.085,20.085,0,0,0,1245.022,3636.615Z"/><path class="r" d="M1244.154,3638.447s-7.488,1.473-12.065,3.66-9.995,5.379-9.995,5.379a15.278,15.278,0,0,0,6.094-1.773,59.687,59.687,0,0,1,11.11-4.633C1243.438,3639.821,1244.154,3638.447,1244.154,3638.447Z"/><path class="q" d="M1279.8,3660.6c.28,3.165.26,8.351-1.206,9.594-2.567-.737-6.4-1.594-8.153-2.307-6.861-2.791-11.628-7.35-11.291-14.787.1-2.206.3-8.312,2.588-9.651C1270.528,3644.035,1278.836,3649.755,1279.8,3660.6Z"/><path class="r" d="M1264.808,3647.574c6.915,1.77,11.568,12.03,11.986,18.511-1.765-1.773-2.513-7.171-4.411-10.332C1270.427,3652.494,1266.75,3649.98,1264.808,3647.574Z"/><path class="q" d="M1231.873,3659.835c-.281,3.165-.261,8.351,1.2,9.595,2.567-.737,6.4-1.594,8.153-2.307,6.861-2.791,11.628-7.351,11.291-14.788-.1-2.205-.3-8.311-2.588-9.65C1241.141,3643.268,1232.834,3648.989,1231.873,3659.835Z"/><path class="r" d="M1246.861,3646.807c-6.914,1.77-11.567,12.031-11.986,18.511,1.765-1.773,2.513-7.17,4.411-10.332C1241.242,3651.728,1244.919,3649.214,1246.861,3646.807Z"/><path class="q" d="M1271.21,3621.5c-.917-2.245-3.195-3.334-9.31-2.433-3.251-5.02-7.367-2.376-9.384-1.459s-1.907,6.678.586,9.621,2.248,5.123,4.441,5.405,9.782-4.038,11.7-5.689C1271.635,3624.893,1271.839,3623.044,1271.21,3621.5Z"/><path class="t" d="M1282.292,3623.8c3.053.881,7.882,2.771,8.512,4.587-1.613,2.128-3.8,5.393-5.093,6.771-5.08,5.391-11.053,8.192-17.866,5.192-2.021-.889-7.645-3.275-8.067-5.9C1263.5,3626.468,1271.83,3620.785,1282.292,3623.8Z"/><path class="r" d="M1264.732,3633.079c4.146-5.809,15.394-6.446,21.589-4.5-2.29,1.007-7.594-.244-11.227.385C1271.349,3629.616,1267.678,3632.137,1264.732,3633.079Z"/><path class="t" d="M1236.211,3618.7c-3.124.579-8.115,1.99-8.919,3.735,1.4,2.275,3.252,5.737,4.41,7.235,4.53,5.861,10.2,9.23,17.275,6.909,2.1-.688,7.927-2.515,8.6-5.083C1254.657,3623.181,1246.917,3616.713,1236.211,3618.7Z"/><path class="r" d="M1252.783,3629.64c-3.561-6.185-14.693-7.915-21.049-6.579,2.182,1.225,7.583.5,11.137,1.477C1246.535,3625.548,1249.944,3628.415,1252.783,3629.64Z"/><path class="s" d="M1265.91,3632.967c4.3-2.088,10.291.947,13.116,4.265,3.875,4.553,4.648,10.844,5.086,16.583-6.966,1.971-17.41.528-21.683-6.535-1.837-3.038-2.344-9.173.3-12.106A20.1,20.1,0,0,1,1265.91,3632.967Z"/><path class="t" d="M1265.914,3635s6.145,4.526,9.352,8.456,6.746,9.128,6.746,9.128a15.266,15.266,0,0,1-4.756-4.2,59.676,59.676,0,0,0-8.073-8.929C1265.976,3636.543,1265.914,3635,1265.914,3635Z"/><path class="s" d="M1251.372,3632.45c-3.867-2.814-10.3-.881-13.662,1.888-4.616,3.8-6.485,9.855-7.927,15.428,6.51,3.167,17.045,3.586,22.495-2.614,2.344-2.667,3.923-8.617,1.84-11.969A20.086,20.086,0,0,0,1251.372,3632.45Z"/><path class="t" d="M1251.011,3634.445s-6.845,3.373-10.694,6.677-8.249,7.8-8.249,7.8a15.281,15.281,0,0,0,5.422-3.3,59.6,59.6,0,0,1,9.519-7.368C1250.678,3635.958,1251.011,3634.445,1251.011,3634.445Z"/><path class="t" d="M1259.562,3637.759c2.123-.067,4.37.052,7.077,7.3s.135,10.89-3.642,14.438a63.281,63.281,0,0,1-7.97,6.354s-9.3-6.083-9.289-15.691c0-6.529,4.866-13.063,7.3-12.731A31.105,31.105,0,0,0,1259.562,3637.759Z"/><path class="r" d="M1256.75,3640.192c-.257.332.46,3.222.065,8.849a128.347,128.347,0,0,1-1.868,13.049s-.362-7.52.08-14.156S1256.75,3640.192,1256.75,3640.192Z"/><path class="u" d="M1243.872,3629.291a6.47,6.47,0,0,1-3.522-2.349,3.827,3.827,0,0,1,2.939-5.942c-1.269-3.622,3.73-5.778,6.008-4.251a3.455,3.455,0,0,1,3.6-1.743c2.13.485,2.715,3.115,2.14,5.215a4.79,4.79,0,0,1,1.43-.155,3.73,3.73,0,0,1,3.553,2.124c1.287,3.034-1.277,6.264-4.333,6.569a4.039,4.039,0,0,1-.659,4.071,9.351,9.351,0,0,1-5.643,3.148C1246.718,3636.2,1242.831,3632.025,1243.872,3629.291Z"/><path class="v" d="M1245.707,3630.448a4.71,4.71,0,0,1,.1-2.421,3.071,3.071,0,0,1-2.443-.527,3.287,3.287,0,0,1-.844-3.967,3.1,3.1,0,0,1,2.93-2.318,2.265,2.265,0,0,1,1.6-2.436,3.226,3.226,0,0,1,2.441.226,1.954,1.954,0,0,1,.651.689,2.046,2.046,0,0,1,3.457.108,3.314,3.314,0,0,1,.245,2.411c1.757-.067,3.531.73,3.117,2.812-.285,1.432-1.979,2.515-3.609,2.689a3.747,3.747,0,0,1,.016,2.265,3.7,3.7,0,0,1-3.67,2.829C1248.146,3632.826,1246.156,3632.095,1245.707,3630.448Z"/><path class="w" d="M1243.855,3624.987a3.754,3.754,0,0,1,3.614-4.3,2.243,2.243,0,0,1,2.126-2.571c1.738-.014,2.555,1.4,2,2.555a2.346,2.346,0,0,1,2.979,1.944,3.085,3.085,0,0,1-1.373,2.554,3.312,3.312,0,0,1-1.278,3.616c-1.685.893-4.448.267-5.037-1.548a3.006,3.006,0,0,1-.429.121C1245.08,3627.541,1244.077,3626.219,1243.855,3624.987Z"/><path class="x" d="M1245.486,3624.631a2.265,2.265,0,0,1,1.018-2.431,1.8,1.8,0,0,1,.366-2.045,1.613,1.613,0,0,1,2.7.729,1.713,1.713,0,0,1,2.491-.092,1.636,1.636,0,0,1-.218,2.368,2.015,2.015,0,0,1,.048,2.985,2.466,2.466,0,0,1-3.365-.37A2.286,2.286,0,0,1,1245.486,3624.631Z"/><path class="y" d="M1248.338,3621.836a1.457,1.457,0,0,1,1.792,2.3A1.457,1.457,0,0,1,1248.338,3621.836Z"/><path class="u" d="M1256.351,3630.23c.763-2.025.286-4.646,4.437-4.641.775,0,3.082.558,3.106,2.676,3.829-1.993,9.676,2.469,7.291,6.988a5.581,5.581,0,0,1-.276,6.355c-1.671,2.191-6.214,3.993-7.9,1.789-2.482.821-4.907,1.054-7.237-.855-2.126-1.741-3.126-5.077-2.856-7.841C1253.144,3632.371,1254.059,3630.84,1256.351,3630.23Z"/><path class="v" d="M1254.869,3634.425a3.233,3.233,0,0,1,3.408-1.854c-.766-1.393-.356-3.809.985-4.485,1.951-.982,3.156,1.013,3.589,2.767a5.054,5.054,0,0,1,3.186.894,3.15,3.15,0,0,1,1.611,3.2c.009.006.021,0,.03.011a4.668,4.668,0,0,1,1.825,3.015,2.325,2.325,0,0,1-1.967,2.634c.063,1.624-3.06,2.748-4.215,1.28-.39.557-1.809.716-2.415.781-1.862.2-3.492-1.319-4.529-2.689C1255.275,3638.521,1254.148,3636.278,1254.869,3634.425Z"/><path class="w" d="M1256.708,3631.3c.9-1.057,2.857-1.765,3.941-1.017a3.2,3.2,0,0,1,2.505-1.087,2.706,2.706,0,0,1,2.139.792,3.206,3.206,0,0,1,1.254-.278,3.065,3.065,0,0,1,2.786,2.012,3.507,3.507,0,0,1-.717,3.544,2.59,2.59,0,0,1-.955.56c1.193,1.469.577,3.671-1.3,4.946-1.161.789-2.423,1.222-3.693.389a3.622,3.622,0,0,1-.583-.527c-1.219.576-3.607-.1-4.555-.973a3.083,3.083,0,0,1-.716-3.148A3.773,3.773,0,0,1,1256.708,3631.3Z"/><path class="u" d="M1256.7,3632.9c.519-1.891,3.172-1.97,4.486-.894,1.391-.806,3.264-1.139,4.571-.04,1.094-.726,2.193.607,2.052,1.753a2.211,2.211,0,0,1-1.286,1.57,1.11,1.11,0,0,1-.349,1.838,2,2,0,0,1-1.57,3.319,3.6,3.6,0,0,1-2.821-1.4,2.95,2.95,0,0,1-2.639.1,2.459,2.459,0,0,1-1.1-3.272A2.827,2.827,0,0,1,1256.7,3632.9Z"/><path class="x" d="M1257.536,3635.095a2.4,2.4,0,0,1,1.57-2.909,2.477,2.477,0,0,1,2.076-2.692c1.091-.266,1.853.441,2.45,1.333a2.389,2.389,0,0,1,3.334,1.915,2.446,2.446,0,0,1-1.41,2.216,2.269,2.269,0,0,1-.9,3.667,2.711,2.711,0,0,1-3.758-1.8A2.377,2.377,0,0,1,1257.536,3635.095Z"/><path class="y" d="M1260.647,3633.9a1.129,1.129,0,0,1,1.246-1.268,1.083,1.083,0,0,1,1.313-.3,1.117,1.117,0,0,1,.535,1.558c.269.938-1.239,1.93-1.886.977A1.071,1.071,0,0,1,1260.647,3633.9Z"/><path class="u" d="M1275.3,3620.4a5.76,5.76,0,0,0,1.185-3.575,3.4,3.4,0,0,0-5.313-2.558c-1.093-3.235-5.778-2.011-6.541.307a3.075,3.075,0,0,0-3.48.749c-1.228,1.506-.2,3.67,1.355,4.828a4.251,4.251,0,0,0-1.088.674,3.319,3.319,0,0,0-1.33,3.434c.759,2.833,4.325,3.694,6.635,2.236a3.594,3.594,0,0,0,2.69,2.494,8.321,8.321,0,0,0,5.68-.882C1277.08,3626.8,1277.521,3621.75,1275.3,3620.4Z"/><path class="v" d="M1274.642,3622.219a4.194,4.194,0,0,0-1.4-1.642,2.729,2.729,0,0,0,1.425-1.706,2.924,2.924,0,0,0-1.579-3.244,2.76,2.76,0,0,0-3.323-.022,2.015,2.015,0,0,0-2.456-.831,2.865,2.865,0,0,0-1.589,1.494,1.725,1.725,0,0,0-.08.839,1.822,1.822,0,0,0-2.365,1.968,2.952,2.952,0,0,0,1.148,1.825c-1.269.914-2.076,2.445-.646,3.678.983.848,2.764.68,4-.09a3.334,3.334,0,0,0,1.228,1.6,3.287,3.287,0,0,0,4.122-.024C1274.233,3625.221,1275.228,3623.619,1274.642,3622.219Z"/><path class="w" d="M1272.952,3617.375a3.338,3.338,0,0,0-4.885-1.034,2,2,0,0,0-2.9-.639c-1.226.941-1.024,2.382-.005,2.886a2.086,2.086,0,0,0-1.025,2.994,2.738,2.738,0,0,0,2.36,1.04,2.944,2.944,0,0,0,2.875,1.836c1.671-.3,3.266-2.247,2.685-3.842a2.605,2.605,0,0,0,.367-.15A2.326,2.326,0,0,0,1272.952,3617.375Z"/><path class="x" d="M1271.613,3618.018a2.016,2.016,0,0,0-2.044-1.148,1.6,1.6,0,0,0-1.376-1.233,1.434,1.434,0,0,0-1.5,1.991,1.524,1.524,0,0,0-1.8,1.3c-.083.943.634,1.415,1.449,1.541-.338.851.551,2.027,1.6,2.119a2.193,2.193,0,0,0,2.157-2.1A2.034,2.034,0,0,0,1271.613,3618.018Z"/><path class="y" d="M1268.083,3617.619a1.3,1.3,0,0,0,0,2.592A1.3,1.3,0,0,0,1268.083,3617.619Z"/><path class="u" d="M1306.809,3659.788a5.752,5.752,0,0,0,1.185-3.574,3.4,3.4,0,0,0-5.313-2.558c-1.093-3.235-5.778-2.011-6.541.306a3.073,3.073,0,0,0-3.479.75c-1.229,1.505-.2,3.67,1.354,4.828a4.218,4.218,0,0,0-1.088.674,3.319,3.319,0,0,0-1.33,3.433c.759,2.833,4.325,3.7,6.634,2.236a3.594,3.594,0,0,0,2.691,2.494,8.315,8.315,0,0,0,5.68-.881C1308.594,3666.19,1309.036,3661.136,1306.809,3659.788Z"/><path class="v" d="M1306.156,3661.6a4.192,4.192,0,0,0-1.4-1.641,2.731,2.731,0,0,0,1.425-1.707,2.925,2.925,0,0,0-1.579-3.244,2.76,2.76,0,0,0-3.323-.021,2.015,2.015,0,0,0-2.456-.832,2.869,2.869,0,0,0-1.589,1.494,1.731,1.731,0,0,0-.08.84,1.82,1.82,0,0,0-2.364,1.968,2.947,2.947,0,0,0,1.148,1.825c-1.27.914-2.077,2.444-.647,3.678.983.848,2.765.68,4-.09a3.338,3.338,0,0,0,1.228,1.6,3.287,3.287,0,0,0,4.122-.025C1305.748,3664.606,1306.742,3663,1306.156,3661.6Z"/><path class="w" d="M1304.466,3656.76a3.34,3.34,0,0,0-4.885-1.034,2,2,0,0,0-2.9-.638c-1.226.941-1.024,2.381-.005,2.886a2.086,2.086,0,0,0-1.025,2.994,2.74,2.74,0,0,0,2.36,1.039,2.944,2.944,0,0,0,2.875,1.836c1.671-.3,3.266-2.246,2.686-3.841a2.972,2.972,0,0,0,.367-.15A2.327,2.327,0,0,0,1304.466,3656.76Z"/><path class="x" d="M1303.127,3657.4a2.015,2.015,0,0,0-2.045-1.147,1.6,1.6,0,0,0-1.375-1.234,1.435,1.435,0,0,0-1.5,1.991,1.525,1.525,0,0,0-1.8,1.3c-.083.944.634,1.416,1.449,1.542-.338.851.552,2.026,1.6,2.119a2.193,2.193,0,0,0,2.157-2.1A2.033,2.033,0,0,0,1303.127,3657.4Z"/><path class="y" d="M1299.6,3657a1.3,1.3,0,0,0,0,2.592A1.3,1.3,0,0,0,1299.6,3657Z"/><path class="u" d="M1222.333,3768.923a6.224,6.224,0,0,0,2.08,3.5,3.679,3.679,0,0,0,5.85-2.527c3.414,1.4,5.732-3.293,4.379-5.557a3.321,3.321,0,0,0,1.852-3.371c-.36-2.068-2.855-2.76-4.9-2.312a4.6,4.6,0,0,0,.22-1.366,3.585,3.585,0,0,0-1.862-3.516c-2.85-1.386-6.078.915-6.522,3.833a3.883,3.883,0,0,0-3.94.431,8.99,8.99,0,0,0-3.3,5.261C1215.844,3765.848,1219.658,3769.786,1222.333,3768.923Z"/><path class="v" d="M1221.313,3767.1a4.526,4.526,0,0,0,2.33.022,2.948,2.948,0,0,0,.385,2.371,3.158,3.158,0,0,0,3.765,1.008,2.983,2.983,0,0,0,2.371-2.7,2.179,2.179,0,0,0,2.418-1.417,3.1,3.1,0,0,0-.1-2.354,1.868,1.868,0,0,0-.629-.66,1.967,1.967,0,0,0,.068-3.324,3.191,3.191,0,0,0-2.3-.354c.153-1.684-.525-3.426-2.545-3.132-1.388.2-2.512,1.776-2.76,3.331a3.6,3.6,0,0,0-2.172-.128,3.551,3.551,0,0,0-2.9,3.382C1219.152,3764.645,1219.755,3766.591,1221.313,3767.1Z"/><path class="w" d="M1226.464,3769.153a3.608,3.608,0,0,0,4.3-3.256,2.157,2.157,0,0,0,2.573-1.914c.1-1.667-1.219-2.522-2.352-2.048a2.255,2.255,0,0,0-1.719-2.956,2.96,2.96,0,0,0-2.519,1.191,3.182,3.182,0,0,0-3.535,1.048c-.941,1.573-.478,4.256,1.236,4.911a2.837,2.837,0,0,0-.138.406C1224.073,3767.85,1225.292,3768.878,1226.464,3769.153Z"/><path class="x" d="M1226.887,3767.6a2.177,2.177,0,0,0,2.384-.857,1.729,1.729,0,0,0,1.981-.249,1.551,1.551,0,0,0-.566-2.632,1.646,1.646,0,0,0,.212-2.387,1.574,1.574,0,0,0-2.284.092,1.937,1.937,0,0,0-2.863-.194,2.371,2.371,0,0,0,.189,3.249A2.2,2.2,0,0,0,1226.887,3767.6Z"/><path class="y" d="M1229.712,3765.006a1.4,1.4,0,0,0-2.117-1.835A1.4,1.4,0,0,0,1229.712,3765.006Z"/><path class="u" d="M1216.889,3747.3a6.221,6.221,0,0,0-3.229-2.476,3.678,3.678,0,0,0-4.494,4.517c-3.689-.03-4.1,5.186-2,6.786a3.324,3.324,0,0,0-.468,3.818c1.1,1.786,3.676,1.5,5.409.328a4.59,4.59,0,0,0,.3,1.349,3.587,3.587,0,0,0,3.034,2.574c3.161.229,5.3-3.106,4.633-5.98a3.884,3.884,0,0,0,3.5-1.864,8.991,8.991,0,0,0,1.113-6.11C1224.056,3747.747,1219.053,3745.506,1216.889,3747.3Z"/><path class="v" d="M1218.512,3748.611a4.532,4.532,0,0,0-2.172.845,2.949,2.949,0,0,0-1.237-2.059,3.162,3.162,0,0,0-3.871.462,2.984,2.984,0,0,0-1.2,3.386,2.175,2.175,0,0,0-1.719,2.212,3.1,3.1,0,0,0,.962,2.151,1.864,1.864,0,0,0,.829.379,1.967,1.967,0,0,0,1.171,3.112,3.188,3.188,0,0,0,2.27-.526c.483,1.62,1.759,2.986,3.526,1.964,1.214-.7,1.673-2.582,1.326-4.119a3.59,3.59,0,0,0,2.065-.687,3.552,3.552,0,0,0,1.436-4.216C1221.432,3750.092,1220.149,3748.509,1218.512,3748.611Z"/><path class="w" d="M1212.968,3748.62a3.608,3.608,0,0,0-2.786,4.621,2.157,2.157,0,0,0-1.68,2.732c.527,1.586,2.069,1.89,2.945,1.028a2.254,2.254,0,0,0,2.693,2.107,2.957,2.957,0,0,0,1.9-2.04,3.183,3.183,0,0,0,2.893-2.286c.289-1.81-1.136-4.129-2.971-4.1a2.767,2.767,0,0,0-.023-.427C1215.672,3748.943,1214.158,3748.441,1212.968,3748.62Z"/><path class="x" d="M1213.15,3750.215a2.177,2.177,0,0,0-1.9,1.68,1.73,1.73,0,0,0-1.746.967,1.55,1.55,0,0,0,1.5,2.233,1.647,1.647,0,0,0,.689,2.295,1.572,1.572,0,0,0,2.087-.932,1.938,1.938,0,0,0,2.731-.883,2.37,2.37,0,0,0-1.382-2.946A2.2,2.2,0,0,0,1213.15,3750.215Z"/><path class="y" d="M1211.492,3753.677a1.4,1.4,0,0,0,2.646.918A1.4,1.4,0,0,0,1211.492,3753.677Z"/></g></g></svg>