<svg xmlns="http://www.w3.org/2000/svg" xmlns:xlink="http://www.w3.org/1999/xlink" width="53.609" height="77.785" viewBox="0 0 53.609 77.785"><defs><style>.a{fill:none;}.b{fill:#b1c91f;}.c{fill:#5eb366;}.d{fill:#386338;}.e{isolation:isolate;}.f{clip-path:url(#a);}.g{fill:#fffffd;}.h{clip-path:url(#b);}</style><clipPath id="a"><path class="a" d="M463.836,501.739l-.026-9.281,36.163-20.879.026,9.281Z"/></clipPath><clipPath id="b"><path class="a" d="M477.4,479.393l-.039-13.668,4.9-2.831.039,13.668Z"/></clipPath></defs><g transform="translate(-448.635 -437.019)"><path class="b" d="M469.674,509.093l9.663,5.615a.758.758,0,0,1-.273-.28l-9.663-5.615A.765.765,0,0,0,469.674,509.093Z"/><path class="c" d="M474.488,506.664l-9.663-5.615,4.576,7.765,9.663,5.615Z"/><path class="c" d="M454.039,456.813l32.995-19.05a3.823,3.823,0,0,1,3.857-.378L500.553,443a3.824,3.824,0,0,0-3.856.378L463.7,462.428a11.911,11.911,0,0,0-5.4,9.367l.107,37.914a3.8,3.8,0,0,0,1.582,3.477l-9.663-5.615a3.8,3.8,0,0,1-1.582-3.478l-.107-37.914A11.911,11.911,0,0,1,454.039,456.813Z"/><path class="d" d="M463.7,462.428a11.911,11.911,0,0,0-5.4,9.367l.107,37.914c.01,3.437,2.443,4.83,5.44,3.1l10.643-6.144,4.576,7.764c.272.462.792.472,1.31.173a3.173,3.173,0,0,0,1.306-1.683l4.512-13.012,10.648-6.147a11.911,11.911,0,0,0,5.4-9.361l-.107-37.914c-.01-3.444-2.443-4.836-5.44-3.106Z"/><g class="e"><g class="f"><path class="g" d="M465.865,495.732l-.007-2.37.728-.42a.6.6,0,0,1,.653-.046.767.767,0,0,1,.289.693,2.058,2.058,0,0,1-.285,1.009,1.752,1.752,0,0,1-.65.714l-.728.42m1.042-4.643-2.075,1.2a2.029,2.029,0,0,0-.727.765,1.877,1.877,0,0,0-.291.962l.019,6.588a.614.614,0,0,0,.295.615.669.669,0,0,0,.723-.064l.013-.007a2.031,2.031,0,0,0,.72-.754,1.908,1.908,0,0,0,.285-.966l0-1.9,1.258-.741a4.552,4.552,0,0,0,1.886-2.272,5.159,5.159,0,0,0,.474-2,1.774,1.774,0,0,0-.625-1.528,1.5,1.5,0,0,0-1.541-.087l-.051.007c-.134.063-.249.122-.358.185"/><path class="g" d="M473.265,494.517a1.4,1.4,0,0,1-.17.083.552.552,0,0,1-.7-.031,1.309,1.309,0,0,1-.31-.975v-.073a2.8,2.8,0,0,1,.138-.881,1.821,1.821,0,0,1,.363-.687,2.214,2.214,0,0,1,.539-.461,1.154,1.154,0,0,1,.418-.15c.281-.03.461.035.525.211l0,1.555a1.592,1.592,0,0,1-.482,1.161,1.827,1.827,0,0,1-.328.248m-.337-4.663a5.343,5.343,0,0,0-1.951,2.1,5.643,5.643,0,0,0-.8,2.8,2.011,2.011,0,0,0,.817,1.864,1.822,1.822,0,0,0,1.957-.159,4.144,4.144,0,0,0,.982-1.03.534.534,0,0,1,.153-.145l.044-.021a.183.183,0,0,1,.2,0,.521.521,0,0,0,.556.075l.722-.417a.961.961,0,0,0,.35-.364.886.886,0,0,0,.133-.444l-.014-5.018a.491.491,0,0,0-.231-.476.546.546,0,0,0-.557.064l-.447.258a1.468,1.468,0,0,0-.541.57,1.433,1.433,0,0,0-.229.734l0-.734c-.077-.168-.454-.053-1.137.341"/><path class="g" d="M480.174,485.59a4.31,4.31,0,0,0-1.359,1.181,2.2,2.2,0,0,0-.273.452c-.193-.22-.474-.226-.844-.012l-.026.014a1.97,1.97,0,0,0-.708.747,1.836,1.836,0,0,0-.272.921l.012,4.292a.624.624,0,0,0,.277.6.666.666,0,0,0,.7-.068l.019-.011a1.915,1.915,0,0,0,.7-.743,1.807,1.807,0,0,0,.272-.914l-.282-2.387.281-.162-.275.019c.185-.151.281-.25.287-.291a2.336,2.336,0,0,1,.426-.87,2.275,2.275,0,0,1,.671-.667,1.171,1.171,0,0,1,.152-.073.786.786,0,0,0,.1-.046,1.178,1.178,0,0,0,.476-.939l.119-.715a.369.369,0,0,0-.084-.349c-.09-.08-.211-.069-.371.024"/><path class="g" d="M484.025,488.3a1.207,1.207,0,0,1-.166.081.561.561,0,0,1-.7-.027,1.309,1.309,0,0,1-.31-.975v-.073a2.827,2.827,0,0,1,.144-.885,1.86,1.86,0,0,1,.357-.683,2.229,2.229,0,0,1,.543-.464,1.158,1.158,0,0,1,.421-.151c.281-.03.454.039.525.211l0,1.555a1.6,1.6,0,0,1-.483,1.161,1.814,1.814,0,0,1-.332.25m-.333-4.665a5.375,5.375,0,0,0-1.957,2.1,5.69,5.69,0,0,0-.8,2.8,2.035,2.035,0,0,0,.811,1.868,1.834,1.834,0,0,0,1.963-.163,4.045,4.045,0,0,0,.976-1.026.6.6,0,0,1,.16-.149.446.446,0,0,1,.044-.021.19.19,0,0,1,.2,0,.513.513,0,0,0,.55.079l.722-.417a.962.962,0,0,0,.351-.364.919.919,0,0,0,.139-.448l-.014-5.018a.489.489,0,0,0-.232-.476.545.545,0,0,0-.556.064l-.447.258a1.519,1.519,0,0,0-.548.574,1.444,1.444,0,0,0-.222.73l0-.733c-.077-.169-.461-.051-1.138.34"/><path class="g" d="M490.64,484.485a1.341,1.341,0,0,1-.166.082.554.554,0,0,1-.7-.032,1.308,1.308,0,0,1-.31-.974v-.074a2.8,2.8,0,0,1,.138-.881,1.829,1.829,0,0,1,.363-.687,2.214,2.214,0,0,1,.539-.461,1.154,1.154,0,0,1,.418-.15c.281-.03.461.035.531.207l.005,1.556a1.579,1.579,0,0,1-.483,1.153,1.727,1.727,0,0,1-.338.261m1.811-8.563-.019.011a1.918,1.918,0,0,0-.7.736,1.888,1.888,0,0,0-.286.943l.006,1.827a2.163,2.163,0,0,0-1.144.381,5.347,5.347,0,0,0-1.951,2.1,5.639,5.639,0,0,0-.8,2.8,2.013,2.013,0,0,0,.817,1.865,1.822,1.822,0,0,0,1.957-.16,3.956,3.956,0,0,0,1.142-.946v-.235a.289.289,0,0,0,.142.286.342.342,0,0,0,.345-.045l1.028-.593a1.024,1.024,0,0,0,.35-.357.934.934,0,0,0,.133-.452l-.021-7.622a.642.642,0,0,0-.29-.612.687.687,0,0,0-.7.075"/><path class="g" d="M497.171,480.714a1.338,1.338,0,0,1-.166.082.562.562,0,0,1-.7-.028,1.319,1.319,0,0,1-.3-.978v-.074a2.777,2.777,0,0,1,.139-.881,1.844,1.844,0,0,1,.356-.683,2.29,2.29,0,0,1,.545-.465,1.159,1.159,0,0,1,.419-.15c.281-.03.454.039.525.211l0,1.555a1.587,1.587,0,0,1-.483,1.161,1.77,1.77,0,0,1-.332.25m-.333-4.665a5.329,5.329,0,0,0-1.95,2.1,5.651,5.651,0,0,0-.8,2.8,2.014,2.014,0,0,0,.818,1.865,1.815,1.815,0,0,0,1.956-.16,4.045,4.045,0,0,0,.976-1.026.6.6,0,0,1,.16-.149.286.286,0,0,1,.044-.02.183.183,0,0,1,.2,0,.519.519,0,0,0,.557.075l.721-.416a.955.955,0,0,0,.345-.361.87.87,0,0,0,.139-.448l-.014-5.018a.489.489,0,0,0-.232-.476.545.545,0,0,0-.556.064l-.447.258a1.519,1.519,0,0,0-.548.574,1.447,1.447,0,0,0-.222.73l0-.733c-.077-.169-.461-.05-1.138.34"/></g></g><g class="e"><g class="h"><path class="g" d="M481.449,463.366l-1.309.756a11.4,11.4,0,0,0-1,.688l-.049.778v.037a10.033,10.033,0,0,1-1.217,1.445,2.123,2.123,0,0,0-.5.849,1.191,1.191,0,0,0,.009.847l.013.015a.435.435,0,0,0,.467.266.726.726,0,0,0,.312-.1,1.314,1.314,0,0,0,.295-.241,19.571,19.571,0,0,0,1.294-1.5l.026,9.332a.911.911,0,0,0,.374.85.873.873,0,0,0,.876-.1l.025-.014a2.375,2.375,0,0,0,.848-.9,2.545,2.545,0,0,0,.393-1.293l-.032-11.217a.6.6,0,0,0-.264-.568.569.569,0,0,0-.556.064"/></g></g></g></svg>