<svg xmlns="http://www.w3.org/2000/svg" xmlns:xlink="http://www.w3.org/1999/xlink" width="53.609" height="77.785" viewBox="0 0 53.609 77.785"><defs><style>.a{fill:none;}.b{fill:#5eb366;}.c{fill:#386338;}.d{isolation:isolate;}.e{clip-path:url(#a);}.f{fill:#fffffd;}.g{clip-path:url(#b);}</style><clipPath id="a"><path class="a" d="M438.985,109.589l-.026-9.281,36.156-20.875.026,9.281Z"/></clipPath><clipPath id="b"><path class="a" d="M446.091,90.456l-.049-17.285,13.58-7.841.049,17.285Z"/></clipPath></defs><g transform="translate(-423.78 -44.872)"><path class="b" d="M449.633,114.516,439.97,108.9l4.576,7.765,9.663,5.615Z"/><path class="b" d="M429.184,64.665l32.995-19.05a3.823,3.823,0,0,1,3.856-.377l9.663,5.615a3.821,3.821,0,0,0-3.856.378l-33,19.05a11.915,11.915,0,0,0-5.4,9.366l.108,37.914a3.8,3.8,0,0,0,1.582,3.478l-9.663-5.616a3.794,3.794,0,0,1-1.582-3.477l-.107-37.914A11.912,11.912,0,0,1,429.184,64.665Z"/><path class="c" d="M438.847,70.281a11.915,11.915,0,0,0-5.4,9.366l.108,37.914c.01,3.438,2.443,4.83,5.44,3.1l10.643-6.145,4.576,7.765c.272.462.791.472,1.31.172a3.161,3.161,0,0,0,1.3-1.682l4.512-13.012,10.649-6.148a11.912,11.912,0,0,0,5.4-9.36l-.108-37.914c-.009-3.444-2.442-4.836-5.439-3.106Z"/><g class="d"><g class="e"><path class="f" d="M441.009,103.586l-.007-2.37.728-.42a.6.6,0,0,1,.652-.046.766.766,0,0,1,.29.693,2.068,2.068,0,0,1-.285,1.009,1.754,1.754,0,0,1-.651.714l-.727.42m1.042-4.643-2.069,1.194a2.048,2.048,0,0,0-.733.769,1.9,1.9,0,0,0-.285.958l.018,6.588a.632.632,0,0,0,.29.619.669.669,0,0,0,.722-.064l.019-.011a2,2,0,0,0,.715-.751,1.925,1.925,0,0,0,.285-.965l-.006-1.9,1.258-.741a4.6,4.6,0,0,0,1.893-2.276,5.235,5.235,0,0,0,.467-2A1.774,1.774,0,0,0,444,98.838a1.5,1.5,0,0,0-1.535-.091l-.058.011c-.128.059-.249.122-.357.185"/><path class="f" d="M448.411,102.369a1.332,1.332,0,0,1-.166.081.548.548,0,0,1-.7-.027,1.314,1.314,0,0,1-.31-.975v-.073a2.8,2.8,0,0,1,.138-.881,1.876,1.876,0,0,1,.363-.687,2.2,2.2,0,0,1,.534-.457,1.139,1.139,0,0,1,.43-.151c.281-.037.454.032.525.2l0,1.555a1.6,1.6,0,0,1-.483,1.161,1.847,1.847,0,0,1-.331.25m-.333-4.665a5.355,5.355,0,0,0-1.958,2.1,5.642,5.642,0,0,0-.8,2.8,2.014,2.014,0,0,0,.817,1.865,1.826,1.826,0,0,0,1.963-.163,4.112,4.112,0,0,0,.976-1.026.569.569,0,0,1,.158-.147.276.276,0,0,1,.046-.022.179.179,0,0,1,.192.006.52.52,0,0,0,.556.076l.722-.417a.962.962,0,0,0,.351-.364.873.873,0,0,0,.133-.444l-.015-5.018a.494.494,0,0,0-.231-.476.532.532,0,0,0-.55.06l-.447.258a1.5,1.5,0,0,0-.548.574,1.4,1.4,0,0,0-.222.73l0-.733c-.084-.165-.461-.051-1.137.34"/><path class="f" d="M455.324,93.44a4.306,4.306,0,0,0-1.365,1.185,2.336,2.336,0,0,0-.274.452c-.192-.22-.474-.226-.838-.016l-.032.018a1.927,1.927,0,0,0-.7.743,1.853,1.853,0,0,0-.279.925l.012,4.292a.625.625,0,0,0,.277.6.666.666,0,0,0,.7-.068l.019-.011a1.915,1.915,0,0,0,.7-.743,1.807,1.807,0,0,0,.272-.914l-.282-2.387.281-.162-.275.019c.186-.151.288-.254.294-.3a2.182,2.182,0,0,1,.426-.87,2.211,2.211,0,0,1,.665-.663,1.16,1.16,0,0,1,.151-.073.667.667,0,0,0,.1-.047,1.173,1.173,0,0,0,.476-.938l.126-.719a.36.36,0,0,0-.091-.345c-.089-.073-.211-.069-.364.02"/><path class="f" d="M459.173,96.156a1.4,1.4,0,0,1-.17.083.538.538,0,0,1-.7-.031,1.306,1.306,0,0,1-.31-.975V95.16a2.8,2.8,0,0,1,.138-.881,1.851,1.851,0,0,1,.356-.683,2.242,2.242,0,0,1,.539-.46,1.11,1.11,0,0,1,.425-.148c.281-.038.46.028.525.2l0,1.555a1.592,1.592,0,0,1-.482,1.161,1.825,1.825,0,0,1-.328.248m-.337-4.663a5.344,5.344,0,0,0-1.951,2.1,5.642,5.642,0,0,0-.8,2.8,2.011,2.011,0,0,0,.817,1.864,1.82,1.82,0,0,0,1.956-.159,4.109,4.109,0,0,0,.982-1.03.551.551,0,0,1,.154-.145l.044-.021a.183.183,0,0,1,.2,0,.521.521,0,0,0,.557.076l.722-.417a.961.961,0,0,0,.35-.364.864.864,0,0,0,.133-.444l-.014-5.018a.5.5,0,0,0-.232-.476.545.545,0,0,0-.556.064l-.447.258a1.478,1.478,0,0,0-.542.57,1.441,1.441,0,0,0-.228.734l0-.734c-.077-.168-.454-.053-1.137.341"/><path class="f" d="M465.785,92.338a1.4,1.4,0,0,1-.161.079.548.548,0,0,1-.7-.028,1.314,1.314,0,0,1-.31-.975v-.073a3,3,0,0,1,.138-.881,1.876,1.876,0,0,1,.363-.687,2.195,2.195,0,0,1,.534-.456,1.141,1.141,0,0,1,.43-.152c.281-.037.454.032.525.2l0,1.556a1.556,1.556,0,0,1-.476,1.149,1.764,1.764,0,0,1-.343.264m1.809-8.562-.019.011a1.956,1.956,0,0,0-.7.736,1.893,1.893,0,0,0-.285.943l.005,1.827a2.131,2.131,0,0,0-1.137.377,5.351,5.351,0,0,0-1.958,2.1,5.7,5.7,0,0,0-.8,2.8,2.028,2.028,0,0,0,.818,1.864,1.824,1.824,0,0,0,1.962-.163,3.9,3.9,0,0,0,1.136-.942V93.1a.29.29,0,0,0,.142.286.342.342,0,0,0,.345-.045l1.028-.594a1.006,1.006,0,0,0,.351-.356.924.924,0,0,0,.133-.452l-.022-7.622a.649.649,0,0,0-.289-.612.68.68,0,0,0-.7.075"/><path class="f" d="M472.319,88.566a1.4,1.4,0,0,1-.17.083.542.542,0,0,1-.7-.031,1.306,1.306,0,0,1-.31-.975V87.57a2.8,2.8,0,0,1,.138-.881,1.828,1.828,0,0,1,.362-.687,2.23,2.23,0,0,1,.533-.456,1.127,1.127,0,0,1,.425-.148c.281-.037.46.028.531.2l0,1.556a1.625,1.625,0,0,1-.489,1.164,1.826,1.826,0,0,1-.328.248m-.337-4.663a5.347,5.347,0,0,0-1.951,2.1,5.636,5.636,0,0,0-.8,2.8,2.014,2.014,0,0,0,.817,1.865,1.821,1.821,0,0,0,1.956-.16,4.108,4.108,0,0,0,.982-1.03.551.551,0,0,1,.154-.145l.044-.021a.183.183,0,0,1,.2,0,.521.521,0,0,0,.557.075l.721-.416a.951.951,0,0,0,.351-.365.864.864,0,0,0,.133-.444l-.014-5.018a.5.5,0,0,0-.232-.476.539.539,0,0,0-.549.06l-.454.262a1.5,1.5,0,0,0-.542.57,1.408,1.408,0,0,0-.221.73l0-.733c-.084-.165-.461-.05-1.144.344"/></g></g><g class="d"><g class="g"><path class="f" d="M450.569,80.294l2.637-6.417.014,4.886-2.651,1.531m4.7-12.453-1.73,1a3.978,3.978,0,0,0-1.587,1.842l-5.549,12.11a3.439,3.439,0,0,0-.335,1.406v.029a1.216,1.216,0,0,0,.541,1.158,1.322,1.322,0,0,0,1.374-.14l5.242-3.026,0,1.878a1.322,1.322,0,0,0,.579,1.245,1.4,1.4,0,0,0,1.42-.165l.032-.018a3.911,3.911,0,0,0,1.409-1.468,3.789,3.789,0,0,0,.576-1.9l.008-1.9.945-.546a3.135,3.135,0,0,0,1.287-1.507,2.105,2.105,0,0,0,.162-1.622l-.007-.019q-.366-.935-1.465-.3l-.932.538-.034-7.549a1.243,1.243,0,0,0-.56-1.191,1.343,1.343,0,0,0-1.381.144"/></g></g></g></svg>