<svg xmlns="http://www.w3.org/2000/svg" xmlns:xlink="http://www.w3.org/1999/xlink" width="53.61" height="77.785" viewBox="0 0 53.61 77.785"><defs><style>.a{fill:none;}.b{fill:#5eb366;}.c{fill:#386338;}.d{isolation:isolate;}.e{clip-path:url(#a);}.f{fill:#fffffd;}.g{clip-path:url(#b);}</style><clipPath id="a"><path class="a" d="M744.805,268l-.026-9.273,36.156-20.875.026,9.273Z"/></clipPath><clipPath id="b"><path class="a" d="M755.143,248.57l-.05-17.754,11.122-6.421.05,17.754Z"/></clipPath></defs><g transform="translate(-729.598 -203.289)"><path class="b" d="M755.451,272.933l-9.663-5.615,4.576,7.765,9.663,5.615Z"/><path class="b" d="M735,223.082,768,204.032a3.821,3.821,0,0,1,3.856-.377l9.663,5.615a3.821,3.821,0,0,0-3.856.378L744.666,228.7a11.915,11.915,0,0,0-5.405,9.366l.108,37.914a3.8,3.8,0,0,0,1.582,3.478l-9.663-5.616a3.8,3.8,0,0,1-1.582-3.477l-.108-37.914A11.915,11.915,0,0,1,735,223.082Z"/><path class="c" d="M744.666,228.7a11.915,11.915,0,0,0-5.405,9.366l.108,37.914c.009,3.438,2.443,4.83,5.439,3.1l10.643-6.145,4.577,7.765c.272.462.791.472,1.31.172a3.16,3.16,0,0,0,1.3-1.682l4.512-13.012,10.649-6.148a11.912,11.912,0,0,0,5.4-9.36l-.108-37.914c-.009-3.444-2.443-4.836-5.439-3.106Z"/><g class="d"><g class="e"><path class="f" d="M746.829,262l-.007-2.37.728-.42a.6.6,0,0,1,.652-.046.767.767,0,0,1,.29.693,2.057,2.057,0,0,1-.285,1.009,1.754,1.754,0,0,1-.651.714l-.727.42m1.042-4.643-2.069,1.194a2,2,0,0,0-.733.769,1.9,1.9,0,0,0-.285.958l.018,6.588a.632.632,0,0,0,.29.619.67.67,0,0,0,.722-.071l.019-.011a2.016,2.016,0,0,0,.715-.743,1.928,1.928,0,0,0,.285-.966l-.006-1.9,1.258-.741a4.552,4.552,0,0,0,1.886-2.272,5.159,5.159,0,0,0,.474-2,1.776,1.776,0,0,0-.624-1.528,1.5,1.5,0,0,0-1.535-.091l-.058.011c-.134.063-.249.122-.357.185"/><path class="f" d="M754.228,260.788a1.332,1.332,0,0,1-.17.083.553.553,0,0,1-.7-.031,1.313,1.313,0,0,1-.31-.975v-.073a2.8,2.8,0,0,1,.138-.881,1.821,1.821,0,0,1,.363-.687,2.233,2.233,0,0,1,.539-.461,1.161,1.161,0,0,1,.418-.15c.282-.03.461.035.532.207l0,1.548a1.605,1.605,0,0,1-.489,1.172,1.759,1.759,0,0,1-.328.248m-.33-4.667a5.354,5.354,0,0,0-1.958,2.1,5.642,5.642,0,0,0-.8,2.8,2.021,2.021,0,0,0,.817,1.864,1.826,1.826,0,0,0,1.963-.163,4.111,4.111,0,0,0,.976-1.026.481.481,0,0,1,.15-.144.382.382,0,0,1,.054-.025.179.179,0,0,1,.192.007.523.523,0,0,0,.557.075l.721-.417a1.016,1.016,0,0,0,.351-.364.9.9,0,0,0,.133-.444l-.015-5.018a.508.508,0,0,0-.231-.484.564.564,0,0,0-.55.068l-.453.262a1.528,1.528,0,0,0-.542.562,1.448,1.448,0,0,0-.222.738l0-.733c-.084-.165-.461-.05-1.137.34"/><path class="f" d="M761.138,251.861a4.287,4.287,0,0,0-1.359,1.181,2.339,2.339,0,0,0-.274.452c-.192-.22-.474-.226-.844-.012l-.026.014a1.956,1.956,0,0,0-.7.736,1.827,1.827,0,0,0-.279.932l.012,4.292a.625.625,0,0,0,.277.6.666.666,0,0,0,.7-.068l.019-.011a1.915,1.915,0,0,0,.7-.743,1.807,1.807,0,0,0,.272-.914l-.282-2.387.281-.162-.275.019a1.089,1.089,0,0,0,.294-.294,2.205,2.205,0,0,1,.419-.867,2.3,2.3,0,0,1,.687-.679,1.077,1.077,0,0,1,.136-.068.641.641,0,0,0,.106-.05,1.164,1.164,0,0,0,.467-.928l.126-.719a.376.376,0,0,0-.091-.344c-.089-.081-.211-.07-.37.023"/><path class="f" d="M764.989,254.575a1.335,1.335,0,0,1-.166.081.547.547,0,0,1-.7-.031,1.306,1.306,0,0,1-.31-.975v-.073a2.8,2.8,0,0,1,.138-.881,1.86,1.86,0,0,1,.356-.683,2.31,2.31,0,0,1,.545-.465,1.166,1.166,0,0,1,.419-.15c.281-.03.454.039.525.211l0,1.548a1.594,1.594,0,0,1-.482,1.168,1.885,1.885,0,0,1-.332.25m-.333-4.665a5.347,5.347,0,0,0-1.951,2.1,5.636,5.636,0,0,0-.8,2.8,2.02,2.02,0,0,0,.817,1.865,1.821,1.821,0,0,0,1.956-.16,4.045,4.045,0,0,0,.976-1.026.492.492,0,0,1,.153-.145.4.4,0,0,1,.051-.025.183.183,0,0,1,.2,0,.521.521,0,0,0,.557.075l.721-.416a.984.984,0,0,0,.345-.361.861.861,0,0,0,.139-.448l-.014-5.018a.511.511,0,0,0-.232-.484.569.569,0,0,0-.556.072l-.447.258a1.554,1.554,0,0,0-.548.566,1.514,1.514,0,0,0-.222.738l0-.733c-.077-.169-.46-.051-1.137.34"/><path class="f" d="M771.6,250.755a1.4,1.4,0,0,1-.161.079.558.558,0,0,1-.7-.028,1.313,1.313,0,0,1-.31-.974v-.074a2.8,2.8,0,0,1,.138-.881,1.885,1.885,0,0,1,.363-.687,2.229,2.229,0,0,1,.541-.462,1.21,1.21,0,0,1,.423-.153c.275-.026.454.039.525.211l0,1.548a1.58,1.58,0,0,1-.483,1.161,1.731,1.731,0,0,1-.336.26m1.809-8.562-.019.011a1.933,1.933,0,0,0-.7.736,1.876,1.876,0,0,0-.285.943l.005,1.827a2.083,2.083,0,0,0-1.137.378,5.349,5.349,0,0,0-1.958,2.1,5.639,5.639,0,0,0-.8,2.8,2.021,2.021,0,0,0,.818,1.865,1.825,1.825,0,0,0,1.962-.164,3.922,3.922,0,0,0,1.136-.942v-.235a.3.3,0,0,0,.142.286.342.342,0,0,0,.345-.045l1.028-.593a1,1,0,0,0,.351-.364.9.9,0,0,0,.133-.445l-.022-7.622a.642.642,0,0,0-.289-.612.68.68,0,0,0-.7.075"/><path class="f" d="M778.139,246.983a1.572,1.572,0,0,1-.17.084.555.555,0,0,1-.7-.031,1.309,1.309,0,0,1-.31-.975v-.074a2.8,2.8,0,0,1,.138-.881,1.817,1.817,0,0,1,.362-.686,2.221,2.221,0,0,1,.54-.462,1.154,1.154,0,0,1,.418-.15c.281-.03.46.035.525.211l0,1.548a1.594,1.594,0,0,1-.482,1.168,1.78,1.78,0,0,1-.328.248m-.337-4.663a5.347,5.347,0,0,0-1.951,2.1,5.639,5.639,0,0,0-.8,2.8,2.019,2.019,0,0,0,.817,1.865,1.821,1.821,0,0,0,1.956-.16,4.109,4.109,0,0,0,.982-1.03.463.463,0,0,1,.147-.141.294.294,0,0,1,.051-.024.183.183,0,0,1,.2,0,.519.519,0,0,0,.557.075l.722-.416a1.031,1.031,0,0,0,.35-.364.89.89,0,0,0,.133-.445l-.014-5.018a.508.508,0,0,0-.232-.483.566.566,0,0,0-.556.071l-.447.258a1.507,1.507,0,0,0-.542.563,1.487,1.487,0,0,0-.228.741l0-.733c-.077-.169-.454-.054-1.137.34"/></g></g><g class="d"><g class="g"><path class="f" d="M764.331,225.482l-7.9,4.563-.591,7.874a7.315,7.315,0,0,0-.011.8c.1.506.411.673.942.485a3.967,3.967,0,0,0,.58-.3q.371-.215.952-.57.21-.131.4-.24a5.7,5.7,0,0,1,1.285-.594,1.223,1.223,0,0,1,1.126.18,1.458,1.458,0,0,1,.406,1.125v.14a4.446,4.446,0,0,1-.9,2.467,6.862,6.862,0,0,1-2.232,2.1c-.167.115-.333.22-.5.316a6.268,6.268,0,0,1-1.1.507,1.8,1.8,0,0,0-.31.142,2.6,2.6,0,0,0-.857.863,2.575,2.575,0,0,0-.476,1.428v.029a.926.926,0,0,0,.316.773.762.762,0,0,0,.755.094,12.476,12.476,0,0,0,2.382-1.082A17.781,17.781,0,0,0,764,241.737a9.443,9.443,0,0,0,2.249-5.443q-.017-5.822-6.8-1.918l.146-2.341,4.731-2.731a3.376,3.376,0,0,0,1.612-2.253l.013-.044a1.586,1.586,0,0,0-.229-1.537c-.346-.329-.806-.327-1.394.012"/></g></g></g></svg>