<svg xmlns="http://www.w3.org/2000/svg" xmlns:xlink="http://www.w3.org/1999/xlink" width="53.609" height="77.785" viewBox="0 0 53.609 77.785"><defs><style>.a{fill:none;}.b{fill:#5eb366;}.c{fill:#386338;}.d{isolation:isolate;}.e{clip-path:url(#a);}.f{fill:#fffffd;}.g{clip-path:url(#b);}</style><clipPath id="a"><path class="a" d="M244.19,142.865l-.026-9.273,36.156-20.875.026,9.273Z"/></clipPath><clipPath id="b"><path class="a" d="M255.155,123.1,255.1,104.89l9.7-5.6.052,18.209Z"/></clipPath></defs><g transform="translate(-228.985 -78.149)"><path class="b" d="M254.838,147.793l-9.663-5.615,4.576,7.765,9.663,5.615Z"/><path class="b" d="M234.389,97.942l32.995-19.05a3.825,3.825,0,0,1,3.857-.377L280.9,84.13a3.821,3.821,0,0,0-3.856.378l-32.995,19.05a11.911,11.911,0,0,0-5.4,9.366l.107,37.914a3.8,3.8,0,0,0,1.582,3.478l-9.663-5.615a3.8,3.8,0,0,1-1.582-3.478l-.107-37.914A11.911,11.911,0,0,1,234.389,97.942Z"/><path class="c" d="M244.052,103.558a11.911,11.911,0,0,0-5.4,9.366l.107,37.914c.01,3.438,2.443,4.83,5.44,3.1l10.643-6.145,4.576,7.765c.272.462.792.472,1.31.172a3.166,3.166,0,0,0,1.306-1.682l4.512-13.012,10.648-6.148a11.91,11.91,0,0,0,5.4-9.36l-.107-37.914c-.01-3.444-2.443-4.836-5.44-3.106Z"/><g class="d"><g class="e"><path class="f" d="M246.213,136.862l-.006-2.37.728-.42a.593.593,0,0,1,.652-.046.766.766,0,0,1,.29.693,2.093,2.093,0,0,1-.285,1.016,1.777,1.777,0,0,1-.651.707l-.728.42m1.043-4.643-2.069,1.194a2.047,2.047,0,0,0-.733.769,1.9,1.9,0,0,0-.285.958l.018,6.6a.64.64,0,0,0,.29.619.687.687,0,0,0,.722-.071l.019-.011a1.959,1.959,0,0,0,.715-.751,1.921,1.921,0,0,0,.285-.958l-.006-1.907,1.258-.741a4.553,4.553,0,0,0,1.893-2.276,5.233,5.233,0,0,0,.467-1.99,1.757,1.757,0,0,0-.624-1.528,1.5,1.5,0,0,0-1.535-.1l-.058.018a2.83,2.83,0,0,0-.357.178"/><path class="f" d="M253.616,135.652a1.5,1.5,0,0,1-.166.082.549.549,0,0,1-.7-.035,1.3,1.3,0,0,1-.31-.968v-.08a2.752,2.752,0,0,1,.138-.874,1.768,1.768,0,0,1,.363-.687,2.176,2.176,0,0,1,.538-.466,1.139,1.139,0,0,1,.426-.149c.281-.037.454.032.525.2l0,1.555a1.634,1.634,0,0,1-.483,1.168,1.8,1.8,0,0,1-.331.25m-.333-4.672a5.355,5.355,0,0,0-1.958,2.1,5.729,5.729,0,0,0-.8,2.809,2.026,2.026,0,0,0,.817,1.857,1.826,1.826,0,0,0,1.963-.163,4.215,4.215,0,0,0,.976-1.019.527.527,0,0,1,.159-.155.314.314,0,0,1,.045-.022.222.222,0,0,1,.2,0,.5.5,0,0,0,.55.08l.722-.417a.962.962,0,0,0,.351-.364.876.876,0,0,0,.133-.444l-.015-5.018a.5.5,0,0,0-.231-.477.53.53,0,0,0-.55.068l-.447.258a1.651,1.651,0,0,0-.77,1.3l0-.726c-.084-.165-.461-.058-1.137.333"/><path class="f" d="M260.529,126.716a4.238,4.238,0,0,0-1.365,1.192,2.318,2.318,0,0,0-.274.445c-.192-.22-.474-.227-.838-.016l-.032.018a1.971,1.971,0,0,0-.7.743,1.852,1.852,0,0,0-.279.925l.012,4.292a.618.618,0,0,0,.277.6.666.666,0,0,0,.7-.068l.019-.011a1.915,1.915,0,0,0,.7-.743,1.79,1.79,0,0,0,.272-.914l-.282-2.387.281-.163-.275.027c.185-.158.288-.254.294-.3a2.963,2.963,0,0,1,1.091-1.533,1.1,1.1,0,0,1,.151-.073.666.666,0,0,0,.1-.047,1.168,1.168,0,0,0,.476-.931l.126-.726a.36.36,0,0,0-.091-.345c-.089-.073-.211-.069-.364.02"/><path class="f" d="M264.378,129.439a1.4,1.4,0,0,1-.17.083.544.544,0,0,1-.7-.038,1.287,1.287,0,0,1-.31-.968v-.08a2.752,2.752,0,0,1,.138-.874,1.719,1.719,0,0,1,.362-.687,2.185,2.185,0,0,1,.537-.465,1.088,1.088,0,0,1,.421-.146c.281-.038.46.028.525.2l0,1.555a1.619,1.619,0,0,1-.482,1.168,1.826,1.826,0,0,1-.328.248m-.337-4.67a5.344,5.344,0,0,0-1.951,2.1,5.667,5.667,0,0,0-.8,2.809,2,2,0,0,0,.817,1.857,1.82,1.82,0,0,0,1.956-.159,4.172,4.172,0,0,0,.982-1.023.522.522,0,0,1,.155-.153.276.276,0,0,1,.043-.02.2.2,0,0,1,.2,0,.521.521,0,0,0,.557.076l.721-.417a.962.962,0,0,0,.351-.364.864.864,0,0,0,.133-.444l-.014-5.018a.506.506,0,0,0-.232-.477.549.549,0,0,0-.556.072l-.447.258a1.681,1.681,0,0,0-.77,1.3l0-.727c-.077-.168-.454-.061-1.137.334"/><path class="f" d="M270.977,125.627a1.125,1.125,0,0,1-.148.073.549.549,0,0,1-.7-.035,1.3,1.3,0,0,1-.31-.967v-.081a2.948,2.948,0,0,1,.138-.874,1.827,1.827,0,0,1,.363-.687,2.17,2.17,0,0,1,.538-.465,1.124,1.124,0,0,1,.426-.15c.281-.037.454.032.525.2l0,1.555a1.586,1.586,0,0,1-.476,1.157,2.091,2.091,0,0,1-.356.27m1.822-8.568-.019.011a1.933,1.933,0,0,0-.7.729,1.893,1.893,0,0,0-.285.943l.005,1.834a2.05,2.05,0,0,0-1.137.37,5.355,5.355,0,0,0-1.958,2.1,5.743,5.743,0,0,0-.8,2.809,2.024,2.024,0,0,0,.818,1.857,1.824,1.824,0,0,0,1.962-.163,4,4,0,0,0,1.136-.935v-.242a.311.311,0,0,0,.142.293.365.365,0,0,0,.345-.052l1.028-.594a1.006,1.006,0,0,0,.351-.356.9.9,0,0,0,.133-.452l-.022-7.623a.648.648,0,0,0-.289-.611.684.684,0,0,0-.7.082"/><path class="f" d="M277.524,121.849a1.575,1.575,0,0,1-.17.084.545.545,0,0,1-.7-.039,1.286,1.286,0,0,1-.31-.967v-.081a2.747,2.747,0,0,1,.138-.873,1.705,1.705,0,0,1,.362-.687,2.17,2.17,0,0,1,.537-.466,1.088,1.088,0,0,1,.421-.146c.281-.038.46.028.531.2l.005,1.555a1.637,1.637,0,0,1-.489,1.172,1.78,1.78,0,0,1-.328.248m-.337-4.67a5.344,5.344,0,0,0-1.951,2.1,5.667,5.667,0,0,0-.8,2.809,2.006,2.006,0,0,0,.817,1.857,1.82,1.82,0,0,0,1.956-.159,4.173,4.173,0,0,0,.982-1.023.533.533,0,0,1,.156-.153.4.4,0,0,1,.042-.02.2.2,0,0,1,.2,0,.521.521,0,0,0,.557.076l.721-.417a.941.941,0,0,0,.351-.364.864.864,0,0,0,.133-.444l-.014-5.018a.5.5,0,0,0-.232-.476.542.542,0,0,0-.549.067l-.454.262a1.479,1.479,0,0,0-.542.563,1.427,1.427,0,0,0-.221.73l0-.726c-.084-.165-.461-.057-1.144.337"/></g></g><g class="d"><g class="g"><path class="f" d="M258.456,102.955c-.39.225-.773.468-1.149.737a12.3,12.3,0,0,0-1.257,1.012,2.509,2.509,0,0,0-.941,1.939v.022c0,.477.168.763.5.85a1.01,1.01,0,0,0,.8-.138,2.313,2.313,0,0,0,.386-.287c.179-.147.357-.28.536-.413q.21-.143.44-.276a2.6,2.6,0,0,1,1.643-.448.761.761,0,0,1,.7.731,2.953,2.953,0,0,1-.589,1.8,8.671,8.671,0,0,1-1.441,1.493,2.872,2.872,0,0,0-1.056,2.175v.029a1.042,1.042,0,0,0,.316.84.88.88,0,0,0,.889.059,3.178,3.178,0,0,1,.946-.259.885.885,0,0,1,.839.478,1.886,1.886,0,0,1,.15,1.207l-.025.139a4.329,4.329,0,0,1-1.042,2.167,5.013,5.013,0,0,1-1.361,1.178,4.344,4.344,0,0,1-.72.332,3.52,3.52,0,0,1-.421.177.682.682,0,0,0-.076.039,3.671,3.671,0,0,0-1.375,2.563v.029a1.145,1.145,0,0,0,.322.887.98.98,0,0,0,.909.093,1.476,1.476,0,0,1,.217-.06,11.994,11.994,0,0,0,1.973-.926,14.352,14.352,0,0,0,4.185-3.658,9.813,9.813,0,0,0,2.091-4.456,3.971,3.971,0,0,0-.5-2.878,2.959,2.959,0,0,0-2.006-1.326q2.123-2.811,1.853-5.1a1.912,1.912,0,0,0-1.834-1.873,6.481,6.481,0,0,0-3.9,1.115"/></g></g></g></svg>