<svg xmlns="http://www.w3.org/2000/svg" xmlns:xlink="http://www.w3.org/1999/xlink" width="53.61" height="77.785" viewBox="0 0 53.61 77.785"><defs><style>.a{fill:none;}.b{fill:#5eb366;}.c{fill:#386338;}.d{isolation:isolate;}.e{clip-path:url(#a);}.f{fill:#fffffd;}.g{clip-path:url(#b);}</style><clipPath id="a"><path class="a" d="M728.857,444.417l-.026-9.273,36.156-20.875.026,9.273Z"/></clipPath><clipPath id="b"><path class="a" d="M738.29,427.278l-.053-18.7,13.816-7.977.053,18.7Z"/></clipPath></defs><g transform="translate(-713.651 -379.703)"><path class="b" d="M739.5,449.347l-9.663-5.615,4.576,7.765,9.663,5.615Z"/><path class="b" d="M719.055,399.5l33-19.05a3.823,3.823,0,0,1,3.856-.377l9.663,5.615a3.823,3.823,0,0,0-3.857.378l-32.995,19.05a11.911,11.911,0,0,0-5.4,9.366l.107,37.914A3.8,3.8,0,0,0,725,455.87l-9.662-5.615a3.8,3.8,0,0,1-1.582-3.478l-.108-37.914A11.914,11.914,0,0,1,719.055,399.5Z"/><path class="c" d="M728.718,405.112a11.911,11.911,0,0,0-5.4,9.366l.107,37.914c.01,3.438,2.443,4.83,5.44,3.1l10.643-6.145,4.576,7.765c.272.462.792.472,1.311.172a3.165,3.165,0,0,0,1.3-1.682l4.512-13.012,10.648-6.148a11.913,11.913,0,0,0,5.4-9.36l-.108-37.914c-.01-3.444-2.443-4.836-5.44-3.106Z"/><g class="d"><g class="e"><path class="f" d="M730.88,438.414l-.006-2.37.728-.42a.578.578,0,0,1,.652-.039.761.761,0,0,1,.29.685,2.093,2.093,0,0,1-.285,1.017,1.777,1.777,0,0,1-.651.707l-.728.42m1.043-4.643-2.069,1.194a2.048,2.048,0,0,0-.733.769,1.9,1.9,0,0,0-.285.958l.018,6.6a.64.64,0,0,0,.29.619.687.687,0,0,0,.722-.071l.019-.011a1.992,1.992,0,0,0,.715-.743,1.972,1.972,0,0,0,.285-.966l-.006-1.907,1.258-.734a4.627,4.627,0,0,0,1.893-2.276,5.293,5.293,0,0,0,.467-2,1.766,1.766,0,0,0-.624-1.528,1.5,1.5,0,0,0-1.535-.1l-.058.018c-.134.063-.249.115-.357.178"/><path class="f" d="M738.282,437.2a1.57,1.57,0,0,1-.165.081.558.558,0,0,1-.7-.028,1.313,1.313,0,0,1-.31-.975v-.073a2.761,2.761,0,0,1,.138-.881,1.768,1.768,0,0,1,.363-.687,2.112,2.112,0,0,1,.534-.46,1.2,1.2,0,0,1,.43-.155c.275-.034.454.032.525.2l0,1.555a1.617,1.617,0,0,1-.489,1.172,1.76,1.76,0,0,1-.326.247m-.332-4.673a5.355,5.355,0,0,0-1.958,2.1,5.687,5.687,0,0,0-.8,2.809,2.029,2.029,0,0,0,.817,1.864,1.843,1.843,0,0,0,1.963-.17,4.063,4.063,0,0,0,.976-1.019.527.527,0,0,1,.159-.155.314.314,0,0,1,.045-.022.2.2,0,0,1,.192.007.52.52,0,0,0,.556.076l.722-.417a.962.962,0,0,0,.351-.364.857.857,0,0,0,.133-.444l-.015-5.018a.5.5,0,0,0-.231-.477.536.536,0,0,0-.55.068l-.447.258a1.486,1.486,0,0,0-.548.566,1.426,1.426,0,0,0-.222.731l0-.726c-.084-.165-.461-.058-1.137.333"/><path class="f" d="M745.19,428.271a4.234,4.234,0,0,0-1.359,1.189,2.551,2.551,0,0,0-.274.445c-.192-.22-.474-.219-.844-.005l-.026.014a1.956,1.956,0,0,0-.7.736,1.857,1.857,0,0,0-.279.932l.012,4.292a.606.606,0,0,0,.277.59.663.663,0,0,0,.7-.061l.019-.011a1.937,1.937,0,0,0,.7-.75,1.765,1.765,0,0,0,.272-.907l-.282-2.387.281-.162-.275.019c.186-.151.288-.254.294-.294a2.163,2.163,0,0,1,.419-.867,2.312,2.312,0,0,1,.678-.677,1.064,1.064,0,0,1,.145-.07.619.619,0,0,0,.1-.049,1.175,1.175,0,0,0,.469-.929l.126-.719a.347.347,0,0,0-.091-.344c-.089-.081-.211-.077-.37.015"/><path class="f" d="M749.042,430.992a1.224,1.224,0,0,1-.167.082.547.547,0,0,1-.7-.031,1.306,1.306,0,0,1-.31-.975v-.073a2.765,2.765,0,0,1,.138-.881,1.79,1.79,0,0,1,.356-.683,2.173,2.173,0,0,1,.539-.463,1.173,1.173,0,0,1,.425-.152c.281-.038.46.028.525.2l0,1.555a1.606,1.606,0,0,1-.482,1.168,1.8,1.8,0,0,1-.331.249m-.334-4.671a5.344,5.344,0,0,0-1.951,2.1,5.687,5.687,0,0,0-.8,2.809,2.027,2.027,0,0,0,.817,1.865,1.84,1.84,0,0,0,1.956-.167,4.044,4.044,0,0,0,.982-1.023.511.511,0,0,1,.155-.153.33.33,0,0,1,.043-.02.2.2,0,0,1,.2,0,.521.521,0,0,0,.557.076l.721-.417a.962.962,0,0,0,.351-.364.845.845,0,0,0,.133-.444l-.014-5.018a.506.506,0,0,0-.232-.477.552.552,0,0,0-.556.072l-.447.258a1.677,1.677,0,0,0-.77,1.3l0-.726c-.077-.169-.46-.058-1.137.333"/><path class="f" d="M755.644,427.179a1.126,1.126,0,0,1-.148.073.558.558,0,0,1-.7-.028,1.313,1.313,0,0,1-.31-.974v-.074a2.959,2.959,0,0,1,.138-.881,1.829,1.829,0,0,1,.363-.687,2.132,2.132,0,0,1,.534-.46,1.221,1.221,0,0,1,.43-.155c.281-.037.454.032.525.2l0,1.555a1.58,1.58,0,0,1-.483,1.161,1.933,1.933,0,0,1-.349.266m1.822-8.568-.019.011a1.986,1.986,0,0,0-.7.729,1.92,1.92,0,0,0-.285.95l.005,1.827a2.067,2.067,0,0,0-1.137.37,5.356,5.356,0,0,0-1.958,2.1,5.752,5.752,0,0,0-.8,2.809,2.048,2.048,0,0,0,.818,1.865,1.844,1.844,0,0,0,1.962-.171,3.9,3.9,0,0,0,1.136-.935v-.242a.311.311,0,0,0,.142.293.346.346,0,0,0,.345-.052l1.028-.594a1.032,1.032,0,0,0,.351-.356.9.9,0,0,0,.133-.452l-.022-7.615a.661.661,0,0,0-.289-.619.7.7,0,0,0-.7.082"/><path class="f" d="M762.191,423.4a1.567,1.567,0,0,1-.17.084.555.555,0,0,1-.7-.031,1.309,1.309,0,0,1-.31-.975V422.4a2.77,2.77,0,0,1,.138-.881,1.764,1.764,0,0,1,.362-.686,2.141,2.141,0,0,1,.533-.46,1.173,1.173,0,0,1,.425-.152c.281-.038.46.028.531.2l.005,1.555a1.643,1.643,0,0,1-.489,1.172,1.781,1.781,0,0,1-.328.248m-.337-4.67a5.344,5.344,0,0,0-1.951,2.1,5.689,5.689,0,0,0-.8,2.809,2.027,2.027,0,0,0,.817,1.865,1.84,1.84,0,0,0,1.956-.167,4.044,4.044,0,0,0,.982-1.023.506.506,0,0,1,.155-.152.288.288,0,0,1,.043-.021.2.2,0,0,1,.2,0,.521.521,0,0,0,.557.076l.721-.417a.941.941,0,0,0,.351-.364.846.846,0,0,0,.133-.444L765,417.974a.5.5,0,0,0-.232-.476.543.543,0,0,0-.549.067l-.454.262a1.457,1.457,0,0,0-.542.563,1.426,1.426,0,0,0-.221.73l0-.726c-.084-.165-.461-.057-1.144.337"/></g></g><g class="d"><g class="g"><path class="f" d="M745.583,419.188c-.97.56-1.731.683-2.275.38a1.864,1.864,0,0,1-.747-1.634,2.024,2.024,0,0,1,.164-.9,5.664,5.664,0,0,1,2.525-2.736c.925-.534,1.629-.676,2.115-.413a1.363,1.363,0,0,1,.618,1.333,4.28,4.28,0,0,1-.684,2.277,4.844,4.844,0,0,1-1.716,1.7m1.593-15.771c-.147.085-.326.2-.543.357a19.044,19.044,0,0,0-5.68,6.278,19.977,19.977,0,0,0-2.689,8.07c-.248,2.5.07,4.281.968,5.335q1.358,1.62,4.159.649a6.745,6.745,0,0,0,1.571-.68l.032-.018.09-.052.166-.1.166-.1.114-.066a11.107,11.107,0,0,0,1.577-1.123l.115-.1c.1-.073.185-.143.242-.191l.236-.21.006-.048a15.268,15.268,0,0,0,2.944-3.94,11.523,11.523,0,0,0,1.439-4.381c.181-1.721-.194-2.923-1.116-3.6-1.045-.749-2.445-.624-4.188.382l-.211.122-.076.059-.083.033-.2.114a10.379,10.379,0,0,0-3.248,2.757,10.88,10.88,0,0,1,1.488-3.056,7.284,7.284,0,0,1,2.4-2.538,2.924,2.924,0,0,1,.492-.233,2.144,2.144,0,0,0,.372-.171,3.194,3.194,0,0,0,.949-.885,3.452,3.452,0,0,0,.7-1.6l.013-.03a1.473,1.473,0,0,0-.285-1.3.907.907,0,0,0-1.094-.132,1.988,1.988,0,0,0-.288.114c-.23.1-.409.192-.536.266"/></g></g></g></svg>