<svg xmlns="http://www.w3.org/2000/svg" width="159.487" height="184.63" viewBox="0 0 159.487 184.63"><defs><style>.a{fill:#71bb79;}</style></defs><g transform="translate(-1136.032 -39.673)"><path class="a" d="M1295.374,188.806c-.4-1.209-1.39-.761-2.16-.688a17.522,17.522,0,0,1-9.526-1.28,18.8,18.8,0,0,0-.307-2.512c-1.955-7.638-3.993-15.256-5.889-22.908a2.546,2.546,0,0,0-2.789-2.277c-1.115-.065-2.23-.139-3.345-.21a68.507,68.507,0,0,0,21.52-58.332c.013-.488.029-.975.029-1.465,0-22.877-16.117-42.247-37.468-52.082a68.707,68.707,0,0,0-63.742.937c-15.516,7.87-27.653,21.085-31.96,37.081a68.83,68.83,0,0,0,76.033,91.4c3.008,2.127,5.971,4.323,9.059,6.324,2.074,1.344,2.541,2.807,2.275,5.165-.912,8.105-1.576,16.237-2.35,24.358-.068.709-.2,1.4.4,1.953a11.45,11.45,0,0,1-.269,1.837c-.757,2.424.386,3.719,2.5,4.632a65.062,65.062,0,0,0,7.511,3.056,9.074,9.074,0,0,0,4.583.347c1.025-.228,2.04-.594,2.209-1.747.162-1.116-.982-1.281-1.674-1.647-2.9-1.538-5.775-3.078-6.889-6.5a12.126,12.126,0,0,1-2.986.909,12.126,12.126,0,0,0,2.986-.909,8.057,8.057,0,0,0,.6-1.481c1.717-8.755,3.4-17.517,5.119-26.272a4.649,4.649,0,0,0-.549-3.117,121.454,121.454,0,0,1-5.385-11.068q7.052-.809,13.986-2.322c1.566-.34,2.312,0,2.87,1.622,1.988,5.784,4.17,11.5,6.259,17.25.293.807.429,1.7,1.578,1.665,1.977,4.6,1.978,4.607,6.943,4.049a28.117,28.117,0,0,0,3.447-.484c2.312-.557,4.781-.765,6.627-2.534A2.5,2.5,0,0,0,1295.374,188.806Zm-70.892-12.285a67.992,67.992,0,0,1-64.94-88.1c11.194-14.911,42.222-42.8,82.832-28.169,0,0-47.6-11.9-77.658,39.856.858.767,1.7,1.541,2.544,2.312,7.2,6.611,14.007,12.856,27.762,12.856a34.865,34.865,0,0,0,11.343-1.745c0,.429.012.859,0,1.288-.121,4.167,1.961,6.99,5.052,9.355,3.248,2.485,6.476,5,9.712,7.5-1.887,7.967-2.448,15.919.374,23.807,1.3,3.633,2.069,4.092,6.021,3.808l.108.609a23.545,23.545,0,0,0-.009,6.51c.349,2.92,1.266,5.453,4,7.225,1.054.683,2.091,1.393,3.122,2.112A68.234,68.234,0,0,1,1224.482,176.521Zm3.908-60.836c.576.63,1.029,1.44,1.913,1.626C1229.419,117.125,1228.966,116.315,1228.39,115.685Zm2.054,2.389c.134-.008.267-.015.4-.02l.045-.713q-.023.355-.044.713c-.134,0-.267.012-.4.02-.085.27-.192.349-.308.343C1230.253,118.423,1230.36,118.344,1230.444,118.074Zm-1.161,3.816q-.207-.985-.486-1.979c-.054,0-.109,0-.164,0,.055,0,.11,0,.164,0Q1229.076,120.9,1229.283,121.89Zm3.03-8.086c.115.163.241.324.365.485a2.83,2.83,0,0,0,.093.81,2.83,2.83,0,0,1-.093-.81C1232.554,114.128,1232.428,113.967,1232.313,113.8Zm12.929,47.569a20.793,20.793,0,0,1-5.618.9,20.786,20.786,0,0,0,5.617-.9,14.837,14.837,0,0,0-1.245-7.934A14.837,14.837,0,0,1,1245.242,161.373Zm.087-45.138-.582.5c.067.391.149.774.245,1.152-.1-.378-.178-.761-.245-1.152l-1.737-.041.075.1-.079.093c-.663.176-.377,1.54-1.471,1.181a8.393,8.393,0,0,0,.95-3.983q-.276-1.643-.551-3.289a4.173,4.173,0,0,0-.44-4.422,31.659,31.659,0,0,0-3.345.684c-3.277,1.031-4.454,2.493-4.5,5.389h0c-.522-.262-.7-1.672-1.657-.489-.708-.346-.246-.737-.024-1.09a9.907,9.907,0,0,1,6.445-4.461c1.7-.381,2.23-1.083,1.473-2.665l-.859-1.479-1.226-1.044a8.488,8.488,0,0,0-7.429-.162l-2.17,1.448-1.171,1.127c-2.908,3.965-2.133,7.747.574,11.433q0,2.233,0,4.468a2.584,2.584,0,0,1-1.93-.416l-1.347-.127-.47-.424.014.021-1.511-.109h0l-.378-.387c0,.015,0,.022,0,.036-2.513-.009-4.744-1.106-7.076-1.822-.788-.242-.725-.916-.927-1.456a35.259,35.259,0,0,1-1.283-4.3,66.943,66.943,0,0,0,10.094-8.124c7.53-6.91,15.316-14.055,30.883-14.055.293,0,.58.016.871.02a11.817,11.817,0,0,0-.322,2.939l.945,1.244a3.983,3.983,0,0,0,1.978.755,3.99,3.99,0,0,1-1.978-.754c-.037.279-.073.559-.11.838a109.666,109.666,0,0,1-.368,15.347,2.684,2.684,0,0,1-1.45,2.173C1250.58,112.671,1247.961,114.463,1245.329,116.235Zm2.327,44.447-.409-.043.409.043a22,22,0,0,0,1.416,4.611A21.922,21.922,0,0,1,1247.656,160.682Zm3.873-3.145h0c-.1-2.834-1.681-5.205-2.443-7.832-.243-.838-.915-1.652-.114-2.537,0-1.064.273-2.234-1.036-2.822h0c-.121-4.749.593-9.442.965-14.158,1.338-1.516,1-3.05.048-4.59.456-.412.9-.846,1.371-1.233,3.666-2.986,7.412-5.888,10.267-9.727a5.617,5.617,0,0,0,1.56-3.539,75.47,75.47,0,0,0-2.877-18.772c.057-1.208.381-2.454.386-3.655,13.036,1.3,24.212,6.651,30.758,12.659q.9.828,1.8,1.64c.15,1.839.247,3.693.247,5.57a67.82,67.82,0,0,1-22.313,50.314C1263.94,158.451,1257.736,157.978,1251.529,157.537Z"/><path class="a" d="M1137,113.366a1.087,1.087,0,0,1,.422.038,1.02,1.02,0,0,1,.364.2,1.09,1.09,0,0,1,.263.321,1.1,1.1,0,0,1,.127.422,1.119,1.119,0,0,0,.2.52,1.162,1.162,0,0,0,.4.343,1.718,1.718,0,0,0,.569.174,2.9,2.9,0,0,0,.693.005l9.444-1.006a2.037,2.037,0,0,0,.243-.039,1.5,1.5,0,0,0,.178-.056,1.5,1.5,0,0,1,.15-.052.98.98,0,0,1,.171-.033.4.4,0,0,1,.328.108.962.962,0,0,1,.184.572,2.907,2.907,0,0,1,.005.61,1.346,1.346,0,0,1-.149.5.967.967,0,0,1-.351.363,1.47,1.47,0,0,1-.614.184l-8.828.931a7.252,7.252,0,0,1-1.791-.017,4.19,4.19,0,0,1-1.458-.47,2.884,2.884,0,0,1-1.023-.956,3.305,3.305,0,0,1-.485-1.476,1.085,1.085,0,0,1,.037-.431,1.049,1.049,0,0,1,.191-.364,1.063,1.063,0,0,1,.316-.263A1.089,1.089,0,0,1,1137,113.366Z"/><path class="a" d="M1144.318,121.568a2.619,2.619,0,0,0-.9.338,2.346,2.346,0,0,0-.672.6,2.225,2.225,0,0,0-.383.794,2.117,2.117,0,0,0-.025.923,2.255,2.255,0,0,0,.367.879,2.64,2.64,0,0,0,.672.678,2.572,2.572,0,0,0,.865.393,2.21,2.21,0,0,0,.947.029l-2.63,1.283a4.939,4.939,0,0,1-1.495-1.343,5.107,5.107,0,0,1-.518-.874,4.044,4.044,0,0,1-.26-2.666,4,4,0,0,1,.71-1.457,4.326,4.326,0,0,1,1.252-1.085,5.141,5.141,0,0,1,1.669-.609l3.373-.622a1.058,1.058,0,0,1,.4,0,1,1,0,0,1,.378.157,1.24,1.24,0,0,1,.294.289,1,1,0,0,1,.168.4,1.1,1.1,0,0,1,0,.432,1.048,1.048,0,0,1-.162.378,1.118,1.118,0,0,1-.3.291,1.017,1.017,0,0,1-.392.161Zm-2.621,7.469a.516.516,0,0,1-.68-.468.826.826,0,0,1,.124-.612,1.517,1.517,0,0,1,.745-.513l1.57-.689.076-.246,5.006-.923a1.008,1.008,0,0,1,.428.009,1.129,1.129,0,0,1,.374.168,1.048,1.048,0,0,1,.287.295,1.069,1.069,0,0,1,.156.393,1.087,1.087,0,0,1,0,.433,1.051,1.051,0,0,1-.162.377,1.071,1.071,0,0,1-.291.286,1.055,1.055,0,0,1-.4.157Z"/><path class="a" d="M1149.861,129.523a.516.516,0,0,1,.73.386.825.825,0,0,1-.05.626,1.547,1.547,0,0,1-.682.592l-1.471.865-.055.255-4.856,1.5a1.029,1.029,0,0,1-.431.042,1.123,1.123,0,0,1-.4-.121,1.046,1.046,0,0,1-.319-.26,1.064,1.064,0,0,1-.2-.372,1.086,1.086,0,0,1-.046-.43,1.029,1.029,0,0,1,.117-.394,1.046,1.046,0,0,1,.26-.319,1.057,1.057,0,0,1,.381-.2Zm-1.725,7.721a2.617,2.617,0,0,0,.844-.437,2.391,2.391,0,0,0,.6-.676,2.256,2.256,0,0,0,.288-.834,2.11,2.11,0,0,0-.083-.919,2.255,2.255,0,0,0-.466-.83,2.711,2.711,0,0,0-.743-.6,2.509,2.509,0,0,0-.9-.29,2.216,2.216,0,0,0-.944.081l2.457-1.569a4.515,4.515,0,0,1,.869.481,4.915,4.915,0,0,1,.77.67,5.078,5.078,0,0,1,.616.808,3.848,3.848,0,0,1,.41.895,3.929,3.929,0,0,1,.158,1.722,3.982,3.982,0,0,1-.535,1.53,4.317,4.317,0,0,1-1.113,1.221,5.045,5.045,0,0,1-1.582.8l-3.278,1.011a1.039,1.039,0,0,1-.406.044,1.062,1.062,0,0,1-.393-.112,1.156,1.156,0,0,1-.332-.256.991.991,0,0,1-.212-.378,1.034,1.034,0,0,1-.042-.431,1.1,1.1,0,0,1,.121-.4,1.123,1.123,0,0,1,.258-.323,1.013,1.013,0,0,1,.372-.205Z"/><path class="a" d="M1145.98,148.2a1.961,1.961,0,0,0,1.419,1.2,3.648,3.648,0,0,0,2.225-.554,1.7,1.7,0,0,1-.666-.118,2.935,2.935,0,0,1-.694-.379,3.574,3.574,0,0,1-.643-.6,3.473,3.473,0,0,1-.494-.787,4.042,4.042,0,0,1-.385-1.7,4.124,4.124,0,0,1,.325-1.618,4.388,4.388,0,0,1,.941-1.387,5.1,5.1,0,0,1,3.183-1.453,4.39,4.39,0,0,1,1.66.2,4.116,4.116,0,0,1,1.435.814,4.025,4.025,0,0,1,1.032,1.4,3.7,3.7,0,0,1,.3,1.015,4.694,4.694,0,0,1,.044,1,4.133,4.133,0,0,1-.154.9,3.828,3.828,0,0,1-.285.727,2.965,2.965,0,0,1,1.2-.225.68.68,0,0,1,.62.379.449.449,0,0,1,.027.324.725.725,0,0,1-.174.289,1.472,1.472,0,0,1-.3.243,2.939,2.939,0,0,1-.35.19l-6.332,2.891a4.943,4.943,0,0,1-1.877.48,4.023,4.023,0,0,1-1.622-.258,3.7,3.7,0,0,1-1.287-.842,4.31,4.31,0,0,1-.88-1.268,5.577,5.577,0,0,1-.316-.868,2.953,2.953,0,0,1-.11-.8,1.5,1.5,0,0,1,.143-.653.882.882,0,0,1,.438-.415.813.813,0,0,1,.366-.077.844.844,0,0,1,.338.082.827.827,0,0,1,.274.216,1.155,1.155,0,0,1,.191.319c.065.217.119.43.16.638A3.012,3.012,0,0,0,1145.98,148.2Zm4.4-4.976a2.748,2.748,0,0,0-.792.538,2.265,2.265,0,0,0-.512.735,2.2,2.2,0,0,0-.18.859,2.108,2.108,0,0,0,.2.9,2.324,2.324,0,0,0,.562.771,2.525,2.525,0,0,0,.8.49,2.5,2.5,0,0,0,.921.161,2.309,2.309,0,0,0,.94-.214,2.176,2.176,0,0,0,.755-.565,2.638,2.638,0,0,0,.48-.806,2.523,2.523,0,0,0,.159-.925,2.264,2.264,0,0,0-.206-.924,2.121,2.121,0,0,0-.549-.742,2.193,2.193,0,0,0-.767-.427,2.313,2.313,0,0,0-.891-.1A2.749,2.749,0,0,0,1150.378,143.22Z"/><path class="a" d="M1159.867,148.448a1.072,1.072,0,0,1,.4-.138,1.089,1.089,0,0,1,.411.026,1.061,1.061,0,0,1,.369.182,1.106,1.106,0,0,1,.421.726,1.046,1.046,0,0,1-.026.41,1.134,1.134,0,0,1-.178.373,1.022,1.022,0,0,1-.316.283l-8.341,4.84a1.056,1.056,0,0,1-.41.138,1.1,1.1,0,0,1-.413-.03,1.04,1.04,0,0,1-.369-.181,1.055,1.055,0,0,1-.279-.318,1.072,1.072,0,0,1-.117-.818,1.041,1.041,0,0,1,.182-.369,1.09,1.09,0,0,1,.325-.284Z"/><path class="a" d="M1161.467,162.025a5.571,5.571,0,0,1-1.573.815,4.289,4.289,0,0,1-1.617.215,3.709,3.709,0,0,1-1.516-.436,3.771,3.771,0,0,1-1.269-1.135,4.329,4.329,0,0,1-.743-1.621,4.656,4.656,0,0,1-.063-1.727,4.537,4.537,0,0,1,.584-1.629,4.48,4.48,0,0,1,2.826-2.063,4.569,4.569,0,0,1,1.726-.057,4.638,4.638,0,0,1,1.626.587,4.335,4.335,0,0,1,1.317,1.2,3.765,3.765,0,0,1,.695,1.555,3.715,3.715,0,0,1-.047,1.576,4.312,4.312,0,0,1-.693,1.472A5.574,5.574,0,0,1,1161.467,162.025Zm-.957-1.312a2.414,2.414,0,0,0,.647-.7,2.445,2.445,0,0,0,.33-.857,2.347,2.347,0,0,0-.016-.9,2.2,2.2,0,0,0-.386-.853,2.22,2.22,0,0,0-.7-.632,2.361,2.361,0,0,0-.858-.294,2.4,2.4,0,0,0-.913.057,2.576,2.576,0,0,0-1.518,1.108,2.4,2.4,0,0,0-.333.853,2.326,2.326,0,0,0,.019.906,2.3,2.3,0,0,0,1.084,1.486,2.363,2.363,0,0,0,.855.29,2.475,2.475,0,0,0,1.787-.463Zm-1.8,4a.71.71,0,0,1-.519.163.654.654,0,0,1-.434-.292.783.783,0,0,1-.167-.562,1.143,1.143,0,0,1,.231-.558l1.029-1.237-.039-.254,1.695-1.237a1,1,0,0,1,.39-.178,1.149,1.149,0,0,1,.409-.011,1.067,1.067,0,0,1,.386.142,1.049,1.049,0,0,1,.311.287,1.084,1.084,0,0,1,.184.391,1.058,1.058,0,0,1,.018.411,1.1,1.1,0,0,1-.138.383,1.044,1.044,0,0,1-.291.314Zm2.851-2.082a1.078,1.078,0,0,1-.391.184,1.057,1.057,0,0,1-.8-.124,1.1,1.1,0,0,1-.316-.295,1.045,1.045,0,0,1-.178-.383,1.057,1.057,0,0,1-.018-.411,1.126,1.126,0,0,1,.139-.39,1.043,1.043,0,0,1,.292-.32l1.931-1.41.237.109,1.2-.393a1.515,1.515,0,0,1,.872-.19.82.82,0,0,1,.542.333.516.516,0,0,1-.127.816Z"/><path class="a" d="M1170.828,176.005a1.059,1.059,0,0,1-.358.269,1.033,1.033,0,0,1-.411.093,1.1,1.1,0,0,1-.419-.077,1.3,1.3,0,0,1-.386-.237l-4.592-4.048a1.163,1.163,0,0,1-.445-.848,1.277,1.277,0,0,1,.361-.893l6.135-6.96a1.878,1.878,0,0,0,.206-.323,1.569,1.569,0,0,1,.213-.317.42.42,0,0,1,.317-.153.865.865,0,0,1,.492.27l5.092,4.488a1.123,1.123,0,0,1,.349.508,1.018,1.018,0,0,1,.023.526,1.034,1.034,0,0,1-.237.455,1.066,1.066,0,0,1-.417.294.985.985,0,0,1-.517.049,1.109,1.109,0,0,1-.552-.285l-3.921-3.457-1.858,2.108,3.045,2.684a1.01,1.01,0,0,1,.274.393,1.079,1.079,0,0,1,.074.461,1.019,1.019,0,0,1-.134.442.9.9,0,0,1-.356.342.972.972,0,0,1-.6.132,1.033,1.033,0,0,1-.57-.265l-3.052-2.691-1.8,2.04,3.881,3.42a1.39,1.39,0,0,1,.29.354,1.1,1.1,0,0,1,.142.4.971.971,0,0,1-.034.42A1.1,1.1,0,0,1,1170.828,176.005Z"/><path class="a" d="M1175.114,180.207a5.543,5.543,0,0,1-.988-.84,5,5,0,0,1-.776-1.071,3.551,3.551,0,0,1-.393-1.163,1.875,1.875,0,0,1,.168-1.113.792.792,0,0,1,.28-.3.867.867,0,0,1,.379-.128.954.954,0,0,1,.4.049.759.759,0,0,1,.335.237.941.941,0,0,1,.2.476,6.433,6.433,0,0,0,.172.7,3.486,3.486,0,0,0,.375.808,2.644,2.644,0,0,0,.823.791,3.644,3.644,0,0,0,.6.377,2.583,2.583,0,0,0,.567.208,1.049,1.049,0,0,0,.474.011.513.513,0,0,0,.321-.225.429.429,0,0,0,0-.415,3.357,3.357,0,0,0-.333-.59q-.228-.334-.534-.732t-.613-.845a10.146,10.146,0,0,1-.564-.921,4.393,4.393,0,0,1-.386-.957,2.721,2.721,0,0,1-.086-.968,2.051,2.051,0,0,1,.345-.941,1.7,1.7,0,0,1,.65-.566,2.354,2.354,0,0,1,.989-.252,3.942,3.942,0,0,1,1.242.161,5.04,5.04,0,0,1,1.4.664,6.355,6.355,0,0,1,.935.745,4.43,4.43,0,0,1,.7.859,2.861,2.861,0,0,1,.377.923,2.064,2.064,0,0,1-.022.941.7.7,0,0,1-.3.365.918.918,0,0,1-.42.123.972.972,0,0,1-.428-.079.9.9,0,0,1-.339-.239,1.851,1.851,0,0,1-.227-.411q-.1-.24-.224-.507a4.574,4.574,0,0,0-.3-.54,2.327,2.327,0,0,0-.455-.512,2.72,2.72,0,0,0-1.073-.611.582.582,0,0,0-.684.211.726.726,0,0,0,.005.707,5.919,5.919,0,0,0,.546.964q.361.531.785,1.132a9.148,9.148,0,0,1,.73,1.216,3.776,3.776,0,0,1,.381,1.215,1.63,1.63,0,0,1-.27,1.127,1.974,1.974,0,0,1-.936.794,2.655,2.655,0,0,1-1.2.159,4.434,4.434,0,0,1-1.321-.339A8.021,8.021,0,0,1,1175.114,180.207Z"/><path class="a" d="M1184.448,176.144a.515.515,0,0,1,.778-.275.813.813,0,0,1,.425.475,1.53,1.53,0,0,1-.025.888l-.164,1.256.151.214-3.619,7.583a1.049,1.049,0,0,1-.26.346,1.126,1.126,0,0,1-.358.208,1.048,1.048,0,0,1-.407.059,1.068,1.068,0,0,1-.41-.1,1.045,1.045,0,0,1-.508-1.435Zm-1.159,3.784a5.071,5.071,0,0,1,1.02-1.449,4.425,4.425,0,0,1,1.368-.93,3.882,3.882,0,0,1,3.262.091,4.145,4.145,0,0,1,1.4,1.062,4.245,4.245,0,0,1,.815,1.46,4.53,4.53,0,0,1,.2,1.677,4.607,4.607,0,0,1-.456,1.719,4.661,4.661,0,0,1-1.05,1.439,4.51,4.51,0,0,1-1.432.9,4.257,4.257,0,0,1-1.648.286,4.145,4.145,0,0,1-1.7-.42,3.586,3.586,0,0,1-1.259-.994,4.294,4.294,0,0,1-.765-1.437,4.754,4.754,0,0,1-.2-1.682A4.57,4.57,0,0,1,1183.289,179.928Zm1.433.683a2.511,2.511,0,0,0-.246.929,2.374,2.374,0,0,0,.113.908,2.328,2.328,0,0,0,.446.79,2.244,2.244,0,0,0,.75.57,2.195,2.195,0,0,0,.91.221,2.355,2.355,0,0,0,.891-.151,2.5,2.5,0,0,0,1.59-2.178,2.462,2.462,0,0,0-.117-.91,2.38,2.38,0,0,0-.443-.787,2.221,2.221,0,0,0-.745-.568,2.249,2.249,0,0,0-.915-.224,2.335,2.335,0,0,0-.894.149,2.4,2.4,0,0,0-.777.484A2.478,2.478,0,0,0,1184.722,180.611Z"/><path class="a" d="M1193.9,180.9a1.087,1.087,0,0,1,.549-.6,1,1,0,0,1,.4-.1,1.084,1.084,0,0,1,.426.07,1.072,1.072,0,0,1,.6.553,1.133,1.133,0,0,1,.1.4,1.022,1.022,0,0,1-.063.419l-2.379,6.445a1.058,1.058,0,0,1-.228.368,1.124,1.124,0,0,1-.337.24,1.063,1.063,0,0,1-.4.1,1.113,1.113,0,0,1-.787-.291,1.008,1.008,0,0,1-.238-.331,1.093,1.093,0,0,1-.021-.825Zm1.076-3.231a1.157,1.157,0,0,1,.236-.389,1.048,1.048,0,0,1,.352-.254,1.134,1.134,0,0,1,.424-.1,1.2,1.2,0,0,1,.458.077,1.157,1.157,0,0,1,.389.236,1.194,1.194,0,0,1,.265.351,1.084,1.084,0,0,1,.11.425,1.146,1.146,0,0,1-.311.842,1.073,1.073,0,0,1-.359.247,1.187,1.187,0,0,1-.428.1,1.161,1.161,0,0,1-.449-.073,1.185,1.185,0,0,1-.4-.24,1.148,1.148,0,0,1-.26-.349,1.089,1.089,0,0,1-.1-.417A1.163,1.163,0,0,1,1194.971,177.674Z"/><path class="a" d="M1197.961,181.889a.516.516,0,0,1,.725-.4.82.82,0,0,1,.494.388,1.545,1.545,0,0,1,.117.895l-.092,1.7.182.187-1.435,4.874a1.045,1.045,0,0,1-.2.383,1.1,1.1,0,0,1-.32.262,1.043,1.043,0,0,1-.393.122,1.06,1.06,0,0,1-.421-.038,1.08,1.08,0,0,1-.384-.2,1.029,1.029,0,0,1-.263-.315,1.043,1.043,0,0,1-.122-.393,1.061,1.061,0,0,1,.041-.43Zm1.091,1.4a4.057,4.057,0,0,1,.534-.328,4.216,4.216,0,0,1,.692-.281,4.422,4.422,0,0,1,.8-.169,3.548,3.548,0,0,1,.873.006,4.062,4.062,0,0,1,.693.213,3.14,3.14,0,0,1,.689.374,1.6,1.6,0,0,1,.477.53.855.855,0,0,1,.058.674.832.832,0,0,1-.257.4.931.931,0,0,1-.4.211,1.015,1.015,0,0,1-.433.02,3.979,3.979,0,0,1-.562-.161c-.19-.062-.384-.131-.581-.2a1.627,1.627,0,0,0-.622-.1,2.013,2.013,0,0,0-.62.122,2.093,2.093,0,0,0-.568.313,2.553,2.553,0,0,0-.482.491,2.744,2.744,0,0,0-.359.636Z"/><path class="a" d="M1205.29,184.417a1.046,1.046,0,0,1,.173-.386,1.087,1.087,0,0,1,.294-.284,1.009,1.009,0,0,1,.38-.147,1.09,1.09,0,0,1,.432.015,1.077,1.077,0,0,1,.669.471,1.117,1.117,0,0,1,.15.386,1.01,1.01,0,0,1-.008.424l-1.534,6.7a1.042,1.042,0,0,1-.179.394,1.114,1.114,0,0,1-.3.282,1.046,1.046,0,0,1-.384.146,1.06,1.06,0,0,1-.423-.013,1.1,1.1,0,0,1-.4-.174,1.009,1.009,0,0,1-.278-.3,1.1,1.1,0,0,1-.142-.384,1.107,1.107,0,0,1,.015-.431Zm.653-3.341a1.173,1.173,0,0,1,.184-.417,1.074,1.074,0,0,1,.316-.3,1.149,1.149,0,0,1,.409-.15,1.179,1.179,0,0,1,.464.018,1.155,1.155,0,0,1,.417.184,1.207,1.207,0,0,1,.307.314,1.081,1.081,0,0,1,.164.407,1.152,1.152,0,0,1-.2.876,1.079,1.079,0,0,1-.324.29,1.181,1.181,0,0,1-.413.149,1.166,1.166,0,0,1-.455-.015,1.194,1.194,0,0,1-.425-.186,1.139,1.139,0,0,1-.3-.313,1.067,1.067,0,0,1-.156-.4A1.154,1.154,0,0,1,1205.943,181.076Z"/><path class="a" d="M1213.69,185.192a1.1,1.1,0,0,1,.391.148,1,1,0,0,1,.29.274,1.051,1.051,0,0,1,.17.794,1,1,0,0,1-.152.385,1.129,1.129,0,0,1-.278.29,1.01,1.01,0,0,1-.367.166,1.035,1.035,0,0,1-.419.01l-3.864-.683a1.058,1.058,0,0,1-.389-.152,1.007,1.007,0,0,1-.288-.283,1.143,1.143,0,0,1-.163-.367,1.01,1.01,0,0,1-.01-.414,1.068,1.068,0,0,1,.154-.4,1.049,1.049,0,0,1,.278-.289,1,1,0,0,1,.366-.158,1.106,1.106,0,0,1,.418-.005Zm-2.681-2.391a1.076,1.076,0,0,1,.153-.395,1.108,1.108,0,0,1,.28-.3,1.012,1.012,0,0,1,.372-.166,1.116,1.116,0,0,1,.827.146,1.062,1.062,0,0,1,.3.285,1.1,1.1,0,0,1,.169.377,1.026,1.026,0,0,1,.014.424l-1.679,9.5a1.042,1.042,0,0,1-.16.4,1.111,1.111,0,0,1-.288.3,1.048,1.048,0,0,1-.377.165,1.074,1.074,0,0,1-.423.009,1.093,1.093,0,0,1-.4-.155,1,1,0,0,1-.293-.283,1.077,1.077,0,0,1-.16-.376,1.061,1.061,0,0,1-.007-.432Z"/><path class="a" d="M1217.626,190.1a2.651,2.651,0,0,0,.072.957,2.4,2.4,0,0,0,.39.815,2.241,2.241,0,0,0,.655.589,2.108,2.108,0,0,0,.879.282,2.24,2.24,0,0,0,.946-.1,2.674,2.674,0,0,0,.84-.456,2.58,2.58,0,0,0,.619-.72,2.229,2.229,0,0,0,.294-.9l.494,2.884a4.976,4.976,0,0,1-1.708,1.059,5.193,5.193,0,0,1-.984.253,3.881,3.881,0,0,1-.984.028,3.938,3.938,0,0,1-1.647-.526,3.99,3.99,0,0,1-1.2-1.09,4.294,4.294,0,0,1-.69-1.505,5.123,5.123,0,0,1-.117-1.773l.347-3.412a1.087,1.087,0,0,1,.118-.388.988.988,0,0,1,.257-.317,1.206,1.206,0,0,1,.359-.2.985.985,0,0,1,.437-.047,1.088,1.088,0,0,1,.413.124,1.053,1.053,0,0,1,.318.262,1.133,1.133,0,0,1,.2.364,1.016,1.016,0,0,1,.044.422Zm6.436,4.609a.517.517,0,0,1-.64.522.827.827,0,0,1-.553-.29,1.539,1.539,0,0,1-.284-.859l-.221-1.7-.214-.141.516-5.065a1,1,0,0,1,.128-.408,1.149,1.149,0,0,1,.266-.313,1.051,1.051,0,0,1,.364-.192,1.081,1.081,0,0,1,.421-.04,1.117,1.117,0,0,1,.414.125,1.052,1.052,0,0,1,.549,1.046Z"/><path class="a" d="M1234.789,191.137a5.568,5.568,0,0,1-.312,1.744,4.286,4.286,0,0,1-.815,1.413,3.707,3.707,0,0,1-1.268.937,3.775,3.775,0,0,1-1.673.315,4.325,4.325,0,0,1-1.738-.4,4.668,4.668,0,0,1-1.409-1,4.561,4.561,0,0,1-.936-1.456,4.48,4.48,0,0,1,.085-3.5,4.553,4.553,0,0,1,1.007-1.4,4.652,4.652,0,0,1,1.455-.932,4.324,4.324,0,0,1,1.755-.313,3.768,3.768,0,0,1,1.656.4,3.7,3.7,0,0,1,1.221,1,4.312,4.312,0,0,1,.746,1.447A5.575,5.575,0,0,1,1234.789,191.137Zm-1.624-.04a2.468,2.468,0,0,0-.638-1.722,2.352,2.352,0,0,0-.726-.538,2.191,2.191,0,0,0-.912-.214,2.242,2.242,0,0,0-.925.169,2.34,2.34,0,0,0-.756.5,2.383,2.383,0,0,0-.512.759,2.567,2.567,0,0,0-.046,1.879,2.413,2.413,0,0,0,.474.782,2.324,2.324,0,0,0,.731.538,2.224,2.224,0,0,0,.916.214,2.2,2.2,0,0,0,.922-.169,2.35,2.35,0,0,0,.751-.5,2.469,2.469,0,0,0,.721-1.7Zm2.078,3.866a.709.709,0,0,1-.186.511.66.66,0,0,1-.5.166.79.79,0,0,1-.547-.21,1.157,1.157,0,0,1-.3-.523l-.354-1.569-.225-.124.051-2.1a1.014,1.014,0,0,1,.1-.418,1.131,1.131,0,0,1,.241-.331,1.066,1.066,0,0,1,.765-.292,1.089,1.089,0,0,1,.421.093,1.03,1.03,0,0,1,.337.236,1.048,1.048,0,0,1,.292.764Zm.086-3.53a1.07,1.07,0,0,1-.092.422,1.057,1.057,0,0,1-.237.336,1.036,1.036,0,0,1-.347.22,1.112,1.112,0,0,1-.839-.02,1.048,1.048,0,0,1-.337-.237,1.087,1.087,0,0,1-.224-.348,1.016,1.016,0,0,1-.076-.425l.058-2.39.231-.122.422-1.2a1.514,1.514,0,0,1,.38-.807.823.823,0,0,1,.594-.228.517.517,0,0,1,.57.6Z"/><path class="a" d="M1237.486,184.857a1.071,1.071,0,0,1,.073-.417,1.057,1.057,0,0,1,.558-.582,1.1,1.1,0,0,1,.423-.091,1.041,1.041,0,0,1,.416.074,1.052,1.052,0,0,1,.347.22,1.138,1.138,0,0,1,.24.338,1.02,1.02,0,0,1,.1.412l.2,9.642a1.044,1.044,0,0,1-.078.426,1.147,1.147,0,0,1-.225.347,1.059,1.059,0,0,1-.338.235,1.072,1.072,0,0,1-.413.091,1.091,1.091,0,0,1-.426-.073,1.064,1.064,0,0,1-.347-.221,1.043,1.043,0,0,1-.235-.337,1.1,1.1,0,0,1-.091-.423Z"/></g></svg>