<svg xmlns="http://www.w3.org/2000/svg" width="551.617" height="321.805" viewBox="0 0 551.617 321.805"><defs><style>.a{fill:#464544;}.b{fill:#fff;}.c{fill:#941519;}.d{fill:#2e2e2d;}.e{fill:#d3d2d1;}.f{fill:#a4a4a4;}.g{fill:#8b8b8a;}.h{fill:#5e5d5d;}.i{fill:#dd1b1e;}.j{fill:#fba11d;}.k{fill:#6f1213;}.l{fill:#747474;}.m{fill:#ef8c0d;}.n{fill:#a55f1c;}.o{fill:#dd7e14;}.p{fill:#ca191b;}.q{fill:#161614;}</style></defs><g transform="translate(-774.176 -4243.637)"><path class="a" d="M1275.94,4535.383c-62.446,36.053-164.056,36.053-226.5,0l-225.4-130.914c-62.449-36.055-62.449-94.719,0-130.774s164.052-36.055,226.5,0l225.409,130.914C1338.385,4440.664,1338.385,4499.33,1275.94,4535.383Zm-162.586-36.9c27.2,15.705,71.465,15.705,98.67,0s27.2-41.259,0-56.968L986.615,4310.6c-27.2-15.707-71.465-15.707-98.666,0s-27.2,41.261,0,56.966Z"/><path class="b" d="M1162.691,4565.442c-43.353,0-84.1-9.75-114.757-27.445L822.511,4407.079c-31.164-17.994-48.335-42.145-48.335-68s17.171-50,48.344-68c30.658-17.7,71.409-27.444,114.762-27.444s84.1,9.747,114.757,27.444L1277.457,4402c31.165,17.994,48.336,42.147,48.336,68s-17.171,50-48.344,68C1246.8,4555.692,1206.04,4565.442,1162.691,4565.442ZM937.282,4249.676c-42.308,0-81.989,9.458-111.74,26.633-29.229,16.876-45.326,39.17-45.326,62.774s16.1,45.894,45.326,62.77l225.418,130.92c29.742,17.171,69.423,26.633,111.731,26.633s81.99-9.462,111.74-26.637c29.226-16.879,45.326-39.165,45.326-62.772s-16.1-45.9-45.326-62.774l-225.418-130.916C1019.271,4259.134,979.586,4249.676,937.282,4249.676Zm225.409,263.6c-19.178,0-37.235-4.324-50.846-12.179L886.427,4370.175c-14.118-8.154-21.9-19.2-21.9-31.092s7.782-22.94,21.909-31.1c13.611-7.859,31.663-12.186,50.846-12.186s37.235,4.327,50.842,12.186L1213.537,4438.9c14.123,8.155,21.905,19.2,21.905,31.092s-7.777,22.94-21.909,31.1C1199.922,4508.952,1181.866,4513.276,1162.691,4513.276ZM937.282,4301.837c-18.134,0-35.12,4.039-47.828,11.376-12.18,7.033-18.886,16.221-18.886,25.87s6.706,18.833,18.886,25.868l225.422,130.918c12.7,7.334,29.677,11.371,47.815,11.371s35.116-4.037,47.82-11.375c12.184-7.034,18.9-16.221,18.9-25.872s-6.711-18.835-18.9-25.869L985.1,4313.208C972.4,4305.876,955.416,4301.837,937.282,4301.837Z"/><rect class="c" width="6.935" height="7.678" transform="translate(986.245 4457.392)"/><rect class="c" width="6.935" height="7.678" transform="translate(1034.968 4483.995)"/><path class="d" d="M997.083,4450.539a13.115,13.115,0,0,0,5.929,10.271c3.276,1.891,5.933.356,5.933-3.423a13.1,13.1,0,0,0-5.933-10.27C999.74,4445.225,997.083,4446.756,997.083,4450.539Z"/><rect class="d" width="4.842" height="16.773" transform="translate(994.628 4449.12) rotate(-29.989)"/><path class="a" d="M992.892,4452.959c0-3.783,2.652-5.314,5.928-3.422a13.093,13.093,0,0,1,5.929,10.271c0,3.779-2.653,5.314-5.929,3.422A13.1,13.1,0,0,1,992.892,4452.959Z"/><path class="e" d="M995.828,4454.653c0-1.909,1.341-2.683,2.992-1.728a6.617,6.617,0,0,1,3,5.189c0,1.909-1.342,2.682-3,1.728A6.616,6.616,0,0,1,995.828,4454.653Z"/><path class="f" d="M996.413,4454.993c0-1.535,1.079-2.159,2.407-1.389a5.326,5.326,0,0,1,2.408,4.17c0,1.535-1.08,2.158-2.408,1.389A5.33,5.33,0,0,1,996.413,4454.993Z"/><path class="g" d="M985.407,4450.943l8.585,12.979,9.691-5.593-.005,0h0a26.326,26.326,0,0,0,.31-7,3,3,0,0,0-1.329-2.033l-6.624-3.827a.969.969,0,0,0-.925-.1l-.013-.017Z"/><path class="h" d="M993.992,4463.918l-8.675-5.013a20.463,20.463,0,0,1-.288-7.408c.133-.631.692-.808,1.319-.442l6.625,3.822a3.018,3.018,0,0,1,1.329,2.038A26.367,26.367,0,0,1,993.992,4463.918Z"/><path class="d" d="M993.033,4456.97l-6.465-3.735a.7.7,0,0,1-.323-.555c0-.2.146-.288.323-.185l6.465,3.731a.713.713,0,0,1,.319.555C993.352,4456.988,993.21,4457.069,993.033,4456.97Z"/><path class="d" d="M993.033,4458.02l-6.465-3.737a.7.7,0,0,1-.323-.554c0-.2.146-.288.323-.185l6.465,3.732a.71.71,0,0,1,.319.554C993.352,4458.037,993.21,4458.118,993.033,4458.02Z"/><path class="d" d="M993.033,4459.069l-6.465-3.737a.7.7,0,0,1-.323-.554c0-.2.146-.288.323-.185l6.465,3.732a.709.709,0,0,1,.319.554C993.352,4459.086,993.21,4459.167,993.033,4459.069Z"/><path class="d" d="M993.033,4460.113l-6.465-3.732a.707.707,0,0,1-.323-.554c0-.206.146-.288.323-.185l6.465,3.732a.71.71,0,0,1,.319.554C993.352,4460.134,993.21,4460.216,993.033,4460.113Z"/><path class="d" d="M978.2,4460.922a13.1,13.1,0,0,0,5.929,10.27c3.276,1.891,5.932.361,5.932-3.422a13.1,13.1,0,0,0-5.932-10.271C980.85,4455.607,978.2,4457.143,978.2,4460.922Z"/><rect class="d" width="4.843" height="16.771" transform="matrix(0.866, -0.5, 0.5, 0.866, 975.741, 4459.505)"/><path class="a" d="M974.006,4463.346c0-3.783,2.652-5.318,5.928-3.426a13.106,13.106,0,0,1,5.928,10.27c0,3.784-2.652,5.314-5.928,3.427A13.109,13.109,0,0,1,974.006,4463.346Z"/><path class="e" d="M976.938,4465.04c0-1.913,1.341-2.687,3-1.728a6.61,6.61,0,0,1,2.992,5.185c0,1.908-1.337,2.682-2.992,1.728A6.616,6.616,0,0,1,976.938,4465.04Z"/><path class="f" d="M977.527,4465.379c0-1.539,1.079-2.158,2.407-1.393a5.332,5.332,0,0,1,2.407,4.171c0,1.534-1.079,2.158-2.407,1.388A5.315,5.315,0,0,1,977.527,4465.379Z"/><path class="c" d="M1007.922,4453.548c-.018.013-.035.013-.048.026l-18.516,10.688,35.541,29.754,18.628-10.752a1.084,1.084,0,0,0,.568-1.088v-6.384a3.641,3.641,0,0,0-1.355-2.635c-12.6-9.759-24.328-17.309-34.019-19.772a.961.961,0,0,0-.52.009l0,0Z"/><path class="i" d="M1023.841,4493.866l-33.288-19.218a3.6,3.6,0,0,1-1.63-2.815v-6.561c0-.834.473-1.311,1.17-1.135,9.694,2.464,21.418,10.017,34.024,19.772a3.658,3.658,0,0,1,1.354,2.635v6.385C1025.471,4493.965,1024.74,4494.386,1023.841,4493.866Z"/><path class="j" d="M996.636,4468.466a44.465,44.465,0,0,0-5.124-1.839c-.486-.143-.826.18-.826.765v4.023a2.453,2.453,0,0,0,1.105,1.918l4.979,2.872c.614.352,1.109.069,1.109-.641v-5.107A2.4,2.4,0,0,0,996.636,4468.466Z"/><path class="j" d="M1004.65,4472.52c-1.643-.945-3.207-1.784-4.716-2.532v8.044l23.774,13.723v-6.1A175.179,175.179,0,0,0,1004.65,4472.52Z"/><path class="b" d="M999.934,4475.276v2.756l23.774,13.723V4489Z"/><path class="b" d="M993.162,4468.935c-.2-.116-.317-.065-.317.262v.49l-.589-.339v-.443c0-.731.317-.963.924-.615a1.854,1.854,0,0,1,.928,1.681c0,1.436-1.238,1.256-1.238,2a.9.9,0,0,0,0,.1l1.174.679v.649l-1.792-1.036v-.559c0-1.346,1.229-.856,1.229-2.171C993.485,4469.231,993.36,4469.047,993.162,4468.935Z"/><path class="b" d="M995.69,4470.913a.715.715,0,0,0-.322-.71c-.2-.111-.322-.06-.322.267v.292l-.589-.339v-.25c0-.726.318-.963.924-.611a1.851,1.851,0,0,1,.929,1.682v.115c0,.491-.138.719-.435.689a1.708,1.708,0,0,1,.435,1.208v.361c0,.731-.319.963-.929.61a1.853,1.853,0,0,1-.924-1.681v-.378l.589.34v.425a.661.661,0,0,0,.322.632c.193.116.318.078.318-.327v-.357a.818.818,0,0,0-.4-.816l-.211-.12v-.654l.245.142c.233.133.374.1.374-.267Z"/><path class="k" d="M1030.668,4474.64l-1.281.739-2.6,1.5a2.542,2.542,0,0,1-2.932-.254,110.345,110.345,0,0,0-12.236-8.374c-1.04-.624-2.089-1.264-3.164-1.9-.455-.279-.928-.554-1.4-.834-.121-.073-.232-.133-.353-.2-.636-.374-1.3-.761-1.951-1.148l1.376-.795,1.689-.967,5.692-3.294,1.668.976a173.273,173.273,0,0,1,15.769,10.258A2.585,2.585,0,0,1,1030.668,4474.64Z"/><path class="d" d="M1029.387,4475.379l-2.6,1.5a2.542,2.542,0,0,1-2.932-.254,110.345,110.345,0,0,0-12.236-8.374c-1.04-.624-2.089-1.264-3.164-1.9-.455-.279-.928-.554-1.4-.834-.121-.073-.232-.133-.353-.2l4.347-2.511q.832.484,1.664.976a173.782,173.782,0,0,1,15.774,10.258A2.421,2.421,0,0,1,1029.387,4475.379Z"/><path class="a" d="M1015.9,4465.783l-4.283,2.473c-1.04-.624-2.089-1.264-3.164-1.9-.455-.279-.928-.554-1.4-.834l-.928-2.145-1.174-2.743c.026-.009.06-.035.086-.047l6.926-3.994a.885.885,0,0,1,.929.06l.906.52a2.873,2.873,0,0,1,1.256,1.956l.12.963Z"/><path class="d" d="M1008.45,4466.351c-.455-.279-.928-.554-1.4-.834-.761-.447-1.535-.89-2.3-1.35l-.121-2.657a1.009,1.009,0,0,1,.323-.881c.026-.009.06-.035.086-.047a.947.947,0,0,1,.855.107l.908.533a2.827,2.827,0,0,1,1.242,1.956Z"/><path class="h" d="M1030.845,4469.038a2.605,2.605,0,0,1-1.239,2.377c-.8.46-1.552.151-1.672-.7a2.591,2.591,0,0,1,1.238-2.378C1029.976,4467.877,1030.724,4468.187,1030.845,4469.038Z"/><path class="h" d="M1029.856,4469.605l-.933.542-.667-4.721.937-.542Z"/><path class="h" d="M1028.858,4469.708l.589.585-3.534,4.591-.589-.584Z"/><path class="h" d="M1029.8,4469.167l-.348,1.126,4.2.129.348-1.127Z"/><path class="h" d="M1028.609,4464.335c-2.893,1.672-4.893,5.507-4.458,8.568s3.121,4.187,6.019,2.515,4.888-5.507,4.458-8.568S1031.5,4462.663,1028.609,4464.335Zm1.324,9.424c-2.025,1.169-3.912.382-4.213-1.763a6.532,6.532,0,0,1,3.126-6c2.024-1.169,3.912-.382,4.213,1.763A6.534,6.534,0,0,1,1029.933,4473.759Z"/><path class="d" d="M1030.845,4469.038a2.605,2.605,0,0,1-1.239,2.377c-.8.46-1.552.151-1.672-.7a2.591,2.591,0,0,1,1.238-2.378C1029.976,4467.877,1030.724,4468.187,1030.845,4469.038Z"/><path class="d" d="M1029.856,4469.605l-.933.542-.667-4.721.937-.542Z"/><path class="d" d="M1028.858,4469.708l.589.585-3.534,4.591-.589-.584Z"/><path class="d" d="M1029.8,4469.167l-.348,1.126,4.2.129.348-1.127Z"/><path class="l" d="M1028.609,4464.335c-2.893,1.672-4.893,5.507-4.458,8.568s3.121,4.187,6.019,2.515,4.888-5.507,4.458-8.568S1031.5,4462.663,1028.609,4464.335Zm1.324,9.424c-2.025,1.169-3.912.382-4.213-1.763a6.532,6.532,0,0,1,3.126-6c2.024-1.169,3.912-.382,4.213,1.763A6.534,6.534,0,0,1,1029.933,4473.759Z"/><path class="d" d="M1045.874,4478.883a13.107,13.107,0,0,0,5.929,10.271c3.276,1.891,5.929.357,5.929-3.427a13.107,13.107,0,0,0-5.929-10.27C1048.527,4473.569,1045.874,4475.1,1045.874,4478.883Z"/><rect class="d" width="4.843" height="16.771" transform="translate(1043.416 4477.465) rotate(-30.001)"/><path class="a" d="M1041.683,4481.3c0-3.782,2.652-5.313,5.928-3.426a13.11,13.11,0,0,1,5.929,10.271c0,3.783-2.653,5.318-5.929,3.426A13.107,13.107,0,0,1,1041.683,4481.3Z"/><path class="d" d="M1045.2,4483.337c0-1.535,1.074-2.158,2.407-1.389a5.317,5.317,0,0,1,2.408,4.171c0,1.534-1.079,2.153-2.408,1.388A5.314,5.314,0,0,1,1045.2,4483.337Z"/><path class="m" d="M1050.66,4488.694A91.391,91.391,0,0,0,1036.051,4475c-2.223-1.672-3.495-5.159-2.511-6.926l.58-1.04c10.327,9.071,11.789,12.145,18.681,21.5Z"/><path class="m" d="M1025.763,4471.863l18.676,21.5,8.362-4.824-18.68-21.5Z"/><path class="i" d="M1042.3,4493.522a91.281,91.281,0,0,0-14.608-13.7c-2.223-1.673-3.491-5.155-2.506-6.922l.58-1.04c10.327,9.071,11.784,12.14,18.676,21.5Z"/><path class="d" d="M1027.3,4489.382a13.1,13.1,0,0,0,5.929,10.27c3.276,1.892,5.928.357,5.928-3.421a13.093,13.093,0,0,0-5.928-10.271C1029.955,4484.068,1027.3,4485.6,1027.3,4489.382Z"/><rect class="d" width="4.842" height="16.773" transform="translate(1024.843 4487.964) rotate(-30.002)"/><path class="a" d="M1023.106,4491.8c0-3.783,2.657-5.313,5.933-3.422a13.113,13.113,0,0,1,5.928,10.271c0,3.779-2.656,5.314-5.928,3.422A13.107,13.107,0,0,1,1023.106,4491.8Z"/><path class="e" d="M1026.043,4493.5c0-1.909,1.341-2.683,3-1.728a6.62,6.62,0,0,1,2.992,5.184c0,1.914-1.341,2.688-2.992,1.733A6.622,6.622,0,0,1,1026.043,4493.5Z"/><path class="f" d="M1026.632,4493.836c0-1.535,1.074-2.158,2.407-1.389a5.324,5.324,0,0,1,2.408,4.17c0,1.535-1.08,2.159-2.408,1.389A5.318,5.318,0,0,1,1026.632,4493.836Z"/><path class="j" d="M1057.732,4487.168l8.022,4.63c1.294.748,2.347.142,2.347-1.354v-.052a5.258,5.258,0,0,0-1.9-3.749l-8.469-6.788C1058.781,4482.959,1058.841,4485.435,1057.732,4487.168Z"/><path class="j" d="M1067.409,4491.965l-9.678-12.111-25.425,14.673,9.673,12.111Z"/><path class="i" d="M1040.329,4506.471l-8.023-4.63c1.1-1.729,1.045-4.2,0-7.313l8.47,6.788a5.255,5.255,0,0,1,1.9,3.754v.047C1042.672,4506.613,1041.623,4507.219,1040.329,4506.471Z"/><path class="b" d="M1034.31,4501.136a9.967,9.967,0,0,0,.056-2.993l5.821,4.665a1.649,1.649,0,0,1,.589,1.165c0,.516-.331.7-.731.473Z"/><path class="i" d="M1056.859,4487.911l-11.775,6.8a2.244,2.244,0,0,1-2.515-.181l-.572-.456a1.058,1.058,0,0,1,.129-1.749l11.951-6.9a2.049,2.049,0,0,1,2.3.168l.619.494A1.105,1.105,0,0,1,1056.859,4487.911Z"/><rect class="n" width="5.795" height="6.417" transform="translate(892.579 4405.217)"/><rect class="n" width="5.795" height="6.419" transform="translate(933.292 4427.448)"/><path class="d" d="M901.633,4399.491a10.954,10.954,0,0,0,4.957,8.583c2.739,1.58,4.957.3,4.957-2.861a10.952,10.952,0,0,0-4.957-8.584C903.852,4395.05,901.633,4396.331,901.633,4399.491Z"/><rect class="d" width="4.046" height="14.014" transform="matrix(0.866, -0.5, 0.5, 0.866, 899.583, 4398.306)"/><path class="a" d="M898.129,4401.513c0-3.16,2.223-4.441,4.958-2.861a10.954,10.954,0,0,1,4.957,8.583c0,3.16-2.219,4.441-4.957,2.861A10.961,10.961,0,0,1,898.129,4401.513Z"/><path class="e" d="M900.584,4402.93c0-1.6,1.122-2.242,2.5-1.444a5.534,5.534,0,0,1,2.5,4.333c0,1.6-1.121,2.242-2.5,1.445A5.536,5.536,0,0,1,900.584,4402.93Z"/><path class="f" d="M901.074,4403.214c0-1.284.9-1.8,2.013-1.163a4.456,4.456,0,0,1,2.011,3.484c0,1.284-.9,1.8-2.011,1.163A4.454,4.454,0,0,1,901.074,4403.214Z"/><path class="g" d="M891.879,4399.826l7.171,10.849,8.1-4.675,0,0v0a21.942,21.942,0,0,0,.258-5.853,2.5,2.5,0,0,0-1.109-1.7l-5.538-3.2a.8.8,0,0,0-.769-.079l-.013-.015Z"/><path class="h" d="M899.054,4410.668l-7.253-4.185a17.08,17.08,0,0,1-.236-6.193c.107-.526.576-.672,1.1-.37l5.533,3.2a2.509,2.509,0,0,1,1.114,1.7A22.09,22.09,0,0,1,899.054,4410.668Z"/><path class="d" d="M898.25,4404.865l-5.4-3.119a.6.6,0,0,1-.267-.465c0-.172.121-.241.267-.155l5.4,3.119a.6.6,0,0,1,.266.465C898.516,4404.88,898.4,4404.948,898.25,4404.865Z"/><path class="d" d="M898.25,4405.739l-5.4-3.119a.592.592,0,0,1-.267-.462c0-.172.121-.241.267-.154l5.4,3.118a.593.593,0,0,1,.266.463C898.516,4405.757,898.4,4405.825,898.25,4405.739Z"/><path class="d" d="M898.25,4406.616l-5.4-3.119a.594.594,0,0,1-.267-.464c0-.17.121-.239.267-.155l5.4,3.119a.6.6,0,0,1,.266.464C898.516,4406.634,898.4,4406.7,898.25,4406.616Z"/><path class="d" d="M898.25,4407.493l-5.4-3.119a.6.6,0,0,1-.267-.464c0-.172.121-.24.267-.155l5.4,3.119a.6.6,0,0,1,.266.465C898.516,4407.511,898.4,4407.58,898.25,4407.493Z"/><path class="d" d="M885.851,4408.168a10.951,10.951,0,0,0,4.957,8.584c2.734,1.577,4.953.3,4.953-2.862a10.96,10.96,0,0,0-4.953-8.583C888.069,4403.728,885.851,4405.009,885.851,4408.168Z"/><rect class="d" width="4.046" height="14.014" transform="translate(883.8 4406.984) rotate(-30.003)"/><path class="a" d="M882.347,4410.191c0-3.16,2.218-4.441,4.957-2.861a10.949,10.949,0,0,1,4.957,8.583c0,3.16-2.218,4.441-4.957,2.859A10.942,10.942,0,0,1,882.347,4410.191Z"/><path class="e" d="M884.8,4411.608c0-1.6,1.118-2.242,2.5-1.445a5.532,5.532,0,0,1,2.5,4.334c0,1.595-1.122,2.242-2.5,1.444A5.522,5.522,0,0,1,884.8,4411.608Z"/><path class="f" d="M885.292,4411.89c0-1.282.9-1.8,2.012-1.161a4.45,4.45,0,0,1,2.012,3.484c0,1.283-.9,1.8-2.012,1.163A4.458,4.458,0,0,1,885.292,4411.89Z"/><path class="o" d="M910.692,4402c-.013.011-.03.011-.043.022l-15.469,8.934,29.7,24.862,15.563-8.985a.911.911,0,0,0,.477-.912v-5.335a3.062,3.062,0,0,0-1.131-2.2c-10.533-8.154-20.33-14.463-28.43-16.52a.786.786,0,0,0-.43.006l0,0Z"/><path class="j" d="M924,4435.7l-27.821-16.062a3,3,0,0,1-1.358-2.351V4411.8c0-.7.391-1.1.976-.948,8.1,2.058,17.9,8.369,28.43,16.52a3.07,3.07,0,0,1,1.131,2.205v5.331C925.356,4435.78,924.746,4436.132,924,4435.7Z"/><path class="b" d="M901.259,4414.471a36.582,36.582,0,0,0-4.277-1.537c-.413-.116-.693.153-.693.641v3.36a2.037,2.037,0,0,0,.925,1.6l4.161,2.4c.507.292.925.056.925-.533v-4.271A2.009,2.009,0,0,0,901.259,4414.471Z"/><path class="i" d="M907.957,4417.861c-1.371-.793-2.678-1.492-3.942-2.118v6.722l19.866,11.471v-5.1A145.9,145.9,0,0,0,907.957,4417.861Z"/><path class="b" d="M904.015,4420.161v2.3l19.866,11.47v-2.3Z"/><path class="n" d="M929.7,4419.632l-1.07.615-2.176,1.259a2.126,2.126,0,0,1-2.45-.21,92.208,92.208,0,0,0-10.224-7c-.868-.525-1.745-1.058-2.644-1.593-.382-.232-.778-.464-1.169-.7-.1-.061-.194-.11-.292-.17-.533-.314-1.088-.637-1.634-.959l1.148-.666,1.414-.806,4.76-2.754,1.388.817a145.077,145.077,0,0,1,13.181,8.572A2.161,2.161,0,0,1,929.7,4419.632Z"/><path class="d" d="M928.628,4420.247l-2.176,1.259a2.126,2.126,0,0,1-2.45-.21,92.208,92.208,0,0,0-10.224-7c-.868-.525-1.745-1.058-2.644-1.593-.382-.232-.778-.464-1.169-.7-.1-.061-.194-.11-.292-.17l3.628-2.1q.7.406,1.393.817a144.622,144.622,0,0,1,13.181,8.572A2.01,2.01,0,0,1,928.628,4420.247Z"/><path class="a" d="M917.355,4412.229l-3.577,2.068c-.868-.525-1.745-1.058-2.644-1.593-.382-.232-.778-.464-1.169-.7l-.778-1.795-.976-2.29c.021-.008.052-.03.069-.038l5.791-3.339a.729.729,0,0,1,.774.05l.757.434a2.411,2.411,0,0,1,1.048,1.634l.1.806Z"/><path class="d" d="M911.134,4412.7c-.382-.232-.778-.464-1.169-.7-.636-.372-1.281-.746-1.926-1.129l-.1-2.218a.846.846,0,0,1,.275-.738c.021-.008.052-.03.069-.038a.79.79,0,0,1,.718.09l.756.443a2.191,2.191,0,0,1,.847.989,2.329,2.329,0,0,1,.19.645Z"/><path class="h" d="M929.844,4414.948a2.163,2.163,0,0,1-1.032,1.987c-.674.388-1.3.126-1.4-.583a2.165,2.165,0,0,1,1.032-1.986C929.122,4413.979,929.745,4414.239,929.844,4414.948Z"/><path class="h" d="M929.019,4415.425l-.778.449-.554-3.942.778-.451Z"/><path class="h" d="M928.189,4415.509l.49.49-2.954,3.834-.49-.49Z"/><path class="h" d="M928.967,4415.058l-.288.941,3.508.105.288-.939Z"/><path class="h" d="M927.979,4411.019a7.8,7.8,0,0,0-3.728,7.16c.361,2.558,2.61,3.495,5.03,2.1a7.8,7.8,0,0,0,3.728-7.16C932.647,4410.565,930.4,4409.624,927.979,4411.019Zm1.109,7.874c-1.694.98-3.272.318-3.526-1.471a5.464,5.464,0,0,1,2.61-5.017c1.7-.978,3.272-.318,3.525,1.475A5.453,5.453,0,0,1,929.088,4418.893Z"/><path class="d" d="M929.844,4414.948a2.163,2.163,0,0,1-1.032,1.987c-.674.388-1.3.126-1.4-.583a2.165,2.165,0,0,1,1.032-1.986C929.122,4413.979,929.745,4414.239,929.844,4414.948Z"/><path class="d" d="M929.019,4415.425l-.778.449-.554-3.942.778-.451Z"/><path class="d" d="M928.189,4415.509l.49.49-2.954,3.834-.49-.49Z"/><path class="d" d="M928.967,4415.058l-.288.941,3.508.105.288-.939Z"/><path class="l" d="M927.979,4411.019a7.8,7.8,0,0,0-3.728,7.16c.361,2.558,2.61,3.495,5.03,2.1a7.8,7.8,0,0,0,3.728-7.16C932.647,4410.565,930.4,4409.624,927.979,4411.019Zm1.109,7.874c-1.694.98-3.272.318-3.526-1.471a5.464,5.464,0,0,1,2.61-5.017c1.7-.978,3.272-.318,3.525,1.475A5.453,5.453,0,0,1,929.088,4418.893Z"/><path class="d" d="M942.406,4423.175a10.951,10.951,0,0,0,4.953,8.581c2.739,1.582,4.957.3,4.957-2.859a10.941,10.941,0,0,0-4.957-8.581C944.625,4418.733,942.406,4420.015,942.406,4423.175Z"/><rect class="d" width="4.047" height="14.014" transform="translate(940.351 4421.992) rotate(-30.003)"/><path class="a" d="M938.9,4425.2c0-3.16,2.218-4.441,4.952-2.864a10.96,10.96,0,0,1,4.957,8.586c0,3.16-2.218,4.441-4.957,2.859A10.957,10.957,0,0,1,938.9,4425.2Z"/><path class="d" d="M941.843,4426.9c0-1.281.9-1.8,2.012-1.161a4.438,4.438,0,0,1,2.013,3.482c0,1.286-.9,1.806-2.013,1.161A4.45,4.45,0,0,1,941.843,4426.9Z"/><path class="p" d="M946.4,4431.377a76.324,76.324,0,0,0-12.2-11.444c-1.862-1.4-2.924-4.312-2.1-5.789l.487-.868c8.628,7.582,9.844,10.148,15.6,17.964Z"/><path class="p" d="M925.6,4417.311l15.606,17.962,6.986-4.032-15.606-17.964Z"/><path class="k" d="M939.414,4435.41a76.447,76.447,0,0,0-12.2-11.444c-1.861-1.4-2.923-4.312-2.1-5.787l.486-.868c8.629,7.579,9.845,10.146,15.606,17.962Z"/><path class="d" d="M926.886,4431.949a10.949,10.949,0,0,0,4.953,8.581c2.739,1.583,4.957.3,4.957-2.859a10.956,10.956,0,0,0-4.957-8.585C929.1,4427.508,926.886,4428.789,926.886,4431.949Z"/><rect class="d" width="4.046" height="14.016" transform="translate(924.832 4430.764) rotate(-29.994)"/><path class="a" d="M923.383,4433.974c0-3.16,2.218-4.441,4.952-2.863a10.949,10.949,0,0,1,4.957,8.581c0,3.16-2.218,4.441-4.957,2.863A10.957,10.957,0,0,1,923.383,4433.974Z"/><path class="e" d="M925.833,4435.388c0-1.6,1.123-2.243,2.5-1.444a5.521,5.521,0,0,1,2.5,4.334c0,1.6-1.118,2.244-2.5,1.444A5.541,5.541,0,0,1,925.833,4435.388Z"/><path class="f" d="M926.323,4435.672c0-1.285.9-1.806,2.012-1.161a4.439,4.439,0,0,1,2.013,3.483c0,1.285-.9,1.8-2.013,1.161A4.451,4.451,0,0,1,926.323,4435.672Z"/><path class="i" d="M952.316,4430.1l6.7,3.87c1.083.627,1.96.12,1.96-1.131v-.039a4.4,4.4,0,0,0-1.587-3.138l-7.076-5.671C953.189,4426.584,953.241,4428.652,952.316,4430.1Z"/><path class="i" d="M960.4,4434.107l-8.082-10.12-21.251,12.261,8.087,10.12Z"/><path class="j" d="M937.772,4446.231l-6.707-3.869c.929-1.449.878-3.517,0-6.113l7.081,5.674a4.383,4.383,0,0,1,1.582,3.134v.043C939.728,4446.347,938.851,4446.854,937.772,4446.231Z"/><path class="b" d="M932.742,4441.769a8.252,8.252,0,0,0,.047-2.5l4.863,3.9a1.369,1.369,0,0,1,.49.972c0,.43-.271.589-.606.4Z"/><path class="b" d="M951.585,4430.72l-9.841,5.683a1.878,1.878,0,0,1-2.1-.154l-.477-.379a.891.891,0,0,1,.107-1.466l9.988-5.765a1.715,1.715,0,0,1,1.917.142l.52.412A.927.927,0,0,1,951.585,4430.72Z"/><path class="d" d="M900.141,4415.984c-.163-.092-.266-.047-.262.226v.409l-.486-.278,0-.37c0-.61.258-.81.766-.522a1.534,1.534,0,0,1,.777,1.4c.009,1.2-1.018,1.064-1.01,1.692a.454.454,0,0,0,.005.082l.976.554,0,.546-1.5-.847v-.469c-.013-1.121,1.01-.726,1-1.829C900.413,4416.229,900.309,4416.079,900.141,4415.984Z"/><path class="d" d="M898.456,4415.507c0-.344-.107-.494-.275-.589s-.266-.047-.262.226v.245l-.49-.277v-.207c-.005-.61.258-.81.765-.524a1.541,1.541,0,0,1,.778,1.4v.1c.005.408-.107.6-.356.58a1.421,1.421,0,0,1,.369,1v.3c.009.61-.254.813-.761.525a1.542,1.542,0,0,1-.778-1.4l0-.316.49.278,0,.354a.545.545,0,0,0,.271.527c.163.1.266.06.262-.28v-.3a.68.68,0,0,0-.344-.678l-.176-.1,0-.546.206.116c.189.107.3.077.3-.228Z"/><rect class="n" width="5.795" height="6.417" transform="translate(816.355 4360.753)"/><rect class="n" width="5.791" height="6.417" transform="translate(857.068 4382.984)"/><path class="d" d="M825.409,4355.027a10.953,10.953,0,0,0,4.957,8.583c2.734,1.58,4.957.3,4.957-2.861a10.948,10.948,0,0,0-4.957-8.583C827.628,4350.586,825.409,4351.867,825.409,4355.027Z"/><rect class="d" width="4.046" height="14.014" transform="translate(823.358 4353.842) rotate(-30.003)"/><path class="a" d="M821.905,4357.049c0-3.159,2.219-4.441,4.957-2.861a10.96,10.96,0,0,1,4.953,8.583c0,3.16-2.219,4.441-4.953,2.861A10.952,10.952,0,0,1,821.905,4357.049Z"/><path class="e" d="M824.36,4358.466c0-1.595,1.118-2.242,2.5-1.445a5.538,5.538,0,0,1,2.5,4.334c0,1.6-1.123,2.244-2.5,1.444A5.523,5.523,0,0,1,824.36,4358.466Z"/><path class="f" d="M824.85,4358.75c0-1.284.9-1.8,2.012-1.163a4.453,4.453,0,0,1,2.012,3.484c0,1.283-.9,1.8-2.012,1.163A4.443,4.443,0,0,1,824.85,4358.75Z"/><path class="g" d="M815.654,4355.364l7.171,10.847,8.1-4.675,0,0h0a21.942,21.942,0,0,0,.258-5.853,2.516,2.516,0,0,0-1.11-1.7l-5.537-3.2a.8.8,0,0,0-.77-.079l-.012-.015Z"/><path class="h" d="M822.83,4366.2l-7.253-4.185a17.2,17.2,0,0,1-.241-6.193c.112-.526.576-.673,1.1-.37l5.537,3.2a2.5,2.5,0,0,1,1.109,1.7A22.079,22.079,0,0,1,822.83,4366.2Z"/><path class="d" d="M822.026,4360.4l-5.4-3.119a.6.6,0,0,1-.267-.465c0-.172.121-.241.267-.155l5.4,3.119a.6.6,0,0,1,.266.465C822.292,4360.416,822.172,4360.486,822.026,4360.4Z"/><path class="d" d="M822.026,4361.275l-5.4-3.119a.592.592,0,0,1-.267-.462c0-.172.121-.241.267-.154l5.4,3.118a.593.593,0,0,1,.266.465C822.292,4361.293,822.172,4361.361,822.026,4361.275Z"/><path class="d" d="M822.026,4362.152l-5.4-3.119a.6.6,0,0,1-.267-.464c0-.17.121-.239.267-.155l5.4,3.119a.6.6,0,0,1,.266.464C822.292,4362.17,822.172,4362.238,822.026,4362.152Z"/><path class="d" d="M822.026,4363.029l-5.4-3.119a.6.6,0,0,1-.267-.464c0-.17.121-.241.267-.155l5.4,3.119a.6.6,0,0,1,.266.465C822.292,4363.046,822.172,4363.116,822.026,4363.029Z"/><path class="d" d="M809.627,4363.7a10.951,10.951,0,0,0,4.957,8.584c2.734,1.579,4.953.3,4.953-2.862a10.96,10.96,0,0,0-4.953-8.583C811.845,4359.264,809.627,4360.545,809.627,4363.7Z"/><rect class="d" width="4.046" height="14.014" transform="translate(807.576 4362.52) rotate(-30.003)"/><path class="a" d="M806.123,4365.727c0-3.16,2.219-4.441,4.957-2.861a10.955,10.955,0,0,1,4.953,8.583c0,3.16-2.218,4.441-4.953,2.861A10.952,10.952,0,0,1,806.123,4365.727Z"/><path class="e" d="M808.578,4367.144c0-1.6,1.118-2.242,2.5-1.445a5.536,5.536,0,0,1,2.5,4.334c0,1.594-1.122,2.242-2.5,1.444A5.523,5.523,0,0,1,808.578,4367.144Z"/><path class="f" d="M809.068,4367.427c0-1.283.9-1.8,2.012-1.162a4.452,4.452,0,0,1,2.012,3.484c0,1.283-.9,1.8-2.012,1.163A4.444,4.444,0,0,1,809.068,4367.427Z"/><path class="o" d="M834.463,4357.541c-.009.011-.026.011-.038.024l-15.469,8.932,29.7,24.86,15.563-8.986a.9.9,0,0,0,.477-.907v-5.335a3.067,3.067,0,0,0-1.131-2.2c-10.533-8.151-20.33-14.463-28.43-16.52a.816.816,0,0,0-.434.005l-.005,0Z"/><path class="j" d="M847.769,4391.234l-27.815-16.062a2.994,2.994,0,0,1-1.359-2.353v-5.48c0-.7.391-1.1.976-.948,8.1,2.058,17.9,8.369,28.426,16.52a3.054,3.054,0,0,1,1.13,2.2v5.335C849.127,4391.316,848.521,4391.666,847.769,4391.234Z"/><path class="b" d="M825.035,4370.007a36.878,36.878,0,0,0-4.278-1.537c-.412-.116-.692.152-.692.641v3.36a2.04,2.04,0,0,0,.924,1.6l4.162,2.4c.508.294.924.056.924-.535v-4.269A2.009,2.009,0,0,0,825.035,4370.007Z"/><path class="i" d="M831.733,4373.4c-1.371-.794-2.678-1.49-3.942-2.118V4378l19.867,11.47v-5.1A145.377,145.377,0,0,0,831.733,4373.4Z"/><path class="b" d="M827.791,4375.7v2.3l19.866,11.47v-2.3Z"/><path class="n" d="M853.474,4375.168l-1.07.615-2.176,1.259a2.129,2.129,0,0,1-2.45-.21,92.182,92.182,0,0,0-10.228-7c-.864-.525-1.741-1.058-2.639-1.593-.383-.232-.779-.465-1.17-.7-.1-.06-.193-.109-.292-.169-.538-.314-1.088-.637-1.634-.959l1.148-.666,1.414-.806,4.759-2.754c.465.273.925.546,1.389.817a144.762,144.762,0,0,1,13.181,8.572A2.161,2.161,0,0,1,853.474,4375.168Z"/><path class="d" d="M852.4,4375.783l-2.176,1.259a2.129,2.129,0,0,1-2.45-.21,92.182,92.182,0,0,0-10.228-7c-.864-.525-1.741-1.058-2.639-1.593-.383-.232-.779-.465-1.17-.7-.1-.06-.193-.109-.292-.169l3.628-2.1c.464.273.929.543,1.393.816a145.178,145.178,0,0,1,13.181,8.571A2.018,2.018,0,0,1,852.4,4375.783Z"/><path class="a" d="M841.131,4367.767l-3.581,2.066c-.864-.525-1.741-1.058-2.639-1.593-.383-.232-.779-.465-1.17-.7l-.778-1.794-.976-2.29c.017-.008.047-.03.069-.038l5.786-3.339a.737.737,0,0,1,.778.05l.757.434a2.412,2.412,0,0,1,1.049,1.633l.1.807Z"/><path class="d" d="M834.911,4368.24c-.383-.232-.779-.465-1.17-.7-.636-.372-1.281-.745-1.926-1.128l-.1-2.218a.845.845,0,0,1,.275-.738c.017-.008.047-.03.069-.038a.789.789,0,0,1,.718.09l.756.443a2.2,2.2,0,0,1,.847.989,2.278,2.278,0,0,1,.189.644Z"/><path class="h" d="M853.62,4370.484a2.168,2.168,0,0,1-1.036,1.987c-.67.386-1.294.126-1.393-.583a2.161,2.161,0,0,1,1.032-1.986C852.9,4369.515,853.521,4369.775,853.62,4370.484Z"/><path class="h" d="M852.8,4370.961l-.778.449-.555-3.942.778-.451Z"/><path class="h" d="M851.965,4371.045l.49.491-2.954,3.836-.49-.49Z"/><path class="h" d="M852.743,4370.594l-.288.942,3.508.107.288-.942Z"/><path class="h" d="M851.754,4366.555a7.8,7.8,0,0,0-3.727,7.16c.357,2.556,2.61,3.5,5.03,2.1a7.8,7.8,0,0,0,3.727-7.16C856.423,4366.1,854.171,4365.16,851.754,4366.555Zm1.1,7.874c-1.694.977-3.271.32-3.521-1.473a5.458,5.458,0,0,1,2.61-5.013c1.694-.978,3.271-.32,3.525,1.473A5.467,5.467,0,0,1,852.859,4374.429Z"/><path class="d" d="M853.62,4370.484a2.168,2.168,0,0,1-1.036,1.987c-.67.386-1.294.126-1.393-.583a2.161,2.161,0,0,1,1.032-1.986C852.9,4369.515,853.521,4369.775,853.62,4370.484Z"/><path class="d" d="M852.8,4370.961l-.778.449-.555-3.942.778-.451Z"/><path class="d" d="M851.965,4371.045l.49.491-2.954,3.836-.49-.49Z"/><path class="d" d="M852.743,4370.594l-.288.942,3.508.107.288-.942Z"/><path class="l" d="M851.754,4366.555a7.8,7.8,0,0,0-3.727,7.16c.357,2.556,2.61,3.5,5.03,2.1a7.8,7.8,0,0,0,3.727-7.16C856.423,4366.1,854.171,4365.16,851.754,4366.555Zm1.1,7.874c-1.694.977-3.271.32-3.521-1.473a5.458,5.458,0,0,1,2.61-5.013c1.694-.978,3.271-.32,3.525,1.473A5.467,5.467,0,0,1,852.859,4374.429Z"/><path class="d" d="M866.183,4378.71a10.959,10.959,0,0,0,4.952,8.584c2.738,1.58,4.957.3,4.957-2.861a10.948,10.948,0,0,0-4.957-8.581C868.4,4374.272,866.183,4375.551,866.183,4378.71Z"/><rect class="d" width="4.046" height="14.016" transform="translate(864.128 4377.526) rotate(-29.998)"/><path class="a" d="M862.674,4380.733c0-3.157,2.219-4.439,4.957-2.859a10.945,10.945,0,0,1,4.957,8.581c0,3.16-2.218,4.442-4.957,2.862A10.949,10.949,0,0,1,862.674,4380.733Z"/><path class="d" d="M865.619,4382.433c0-1.283.9-1.8,2.012-1.16a4.438,4.438,0,0,1,2.012,3.484c0,1.282-.9,1.8-2.012,1.161A4.451,4.451,0,0,1,865.619,4382.433Z"/><path class="p" d="M870.176,4386.911a76.5,76.5,0,0,0-12.205-11.444c-1.857-1.4-2.919-4.31-2.094-5.787l.482-.868c8.633,7.579,9.849,10.148,15.61,17.964Z"/><path class="p" d="M849.373,4372.844l15.61,17.966,6.986-4.035-15.61-17.964Z"/><path class="k" d="M863.19,4390.946a76.224,76.224,0,0,0-12.205-11.444c-1.858-1.4-2.919-4.313-2.094-5.787l.482-.871c8.632,7.582,9.849,10.149,15.61,17.967Z"/><path class="d" d="M850.658,4387.485a10.962,10.962,0,0,0,4.957,8.583c2.738,1.58,4.957.3,4.957-2.861a10.952,10.952,0,0,0-4.957-8.583C852.881,4383.044,850.658,4384.325,850.658,4387.485Z"/><rect class="d" width="4.046" height="14.014" transform="translate(848.608 4386.301) rotate(-30.003)"/><path class="a" d="M847.154,4389.508c0-3.16,2.219-4.441,4.957-2.861a10.949,10.949,0,0,1,4.957,8.583c0,3.16-2.218,4.441-4.957,2.861A10.951,10.951,0,0,1,847.154,4389.508Z"/><path class="e" d="M849.609,4390.924c0-1.6,1.122-2.244,2.5-1.444a5.535,5.535,0,0,1,2.5,4.334c0,1.6-1.121,2.242-2.5,1.444A5.534,5.534,0,0,1,849.609,4390.924Z"/><path class="f" d="M850.1,4391.208c0-1.283.9-1.8,2.012-1.163a4.455,4.455,0,0,1,2.012,3.485c0,1.283-.9,1.8-2.012,1.163A4.459,4.459,0,0,1,850.1,4391.208Z"/><path class="i" d="M876.092,4385.634l6.7,3.87c1.079.623,1.956.118,1.956-1.131v-.043a4.392,4.392,0,0,0-1.581-3.134l-7.077-5.673C876.965,4382.12,877.016,4384.188,876.092,4385.634Z"/><path class="i" d="M884.174,4389.643l-8.083-10.12-21.251,12.264,8.087,10.12Z"/><path class="j" d="M861.544,4401.767l-6.7-3.872c.925-1.444.877-3.512,0-6.108l7.077,5.672a4.381,4.381,0,0,1,1.586,3.134v.043C863.5,4401.885,862.627,4402.39,861.544,4401.767Z"/><path class="b" d="M856.518,4397.305a8.248,8.248,0,0,0,.047-2.5l4.863,3.9a1.374,1.374,0,0,1,.49.973c0,.431-.271.587-.607.394Z"/><path class="b" d="M875.361,4386.258l-9.841,5.681a1.879,1.879,0,0,1-2.1-.154l-.477-.379a.888.888,0,0,1,.108-1.464l9.986-5.765a1.71,1.71,0,0,1,1.918.142l.52.41A.929.929,0,0,1,875.361,4386.258Z"/><path class="d" d="M823.917,4371.522c-.163-.094-.266-.049-.262.224v.408l-.486-.277,0-.37c0-.61.254-.81.765-.522a1.549,1.549,0,0,1,.779,1.4c.008,1.2-1.02,1.064-1.015,1.692,0,.026,0,.053.009.084l.975.554.005.544-1.5-.847-.005-.468c-.009-1.122,1.015-.729,1.006-1.83C824.188,4371.765,824.085,4371.615,823.917,4371.522Z"/><path class="d" d="M822.228,4371.043c0-.344-.108-.5-.271-.589s-.267-.047-.262.226v.245l-.49-.277v-.207c-.005-.611.258-.81.76-.524a1.535,1.535,0,0,1,.783,1.4v.1c0,.408-.108.6-.357.58a1.436,1.436,0,0,1,.37,1.006v.3c.008.611-.254.81-.761.523a1.542,1.542,0,0,1-.778-1.4l-.005-.316.49.277.005.355a.544.544,0,0,0,.271.527c.163.094.266.06.262-.278l0-.3a.676.676,0,0,0-.34-.677l-.176-.1,0-.546.2.116c.193.109.309.077.309-.228Z"/><rect class="n" width="5.795" height="6.417" transform="translate(884.944 4277.839)"/><rect class="n" width="5.791" height="6.416" transform="translate(844.235 4300.07)"/><path class="d" d="M881.685,4272.113a10.945,10.945,0,0,1-4.957,8.581c-2.734,1.58-4.957.3-4.957-2.861a10.948,10.948,0,0,1,4.957-8.581C879.467,4267.672,881.685,4268.953,881.685,4272.113Z"/><rect class="d" width="14.015" height="4.046" transform="translate(873.224 4281.042) rotate(-59.998)"/><path class="a" d="M885.189,4274.135c0-3.159-2.219-4.44-4.957-2.861a10.96,10.96,0,0,0-4.952,8.584c0,3.16,2.218,4.441,4.952,2.859A10.949,10.949,0,0,0,885.189,4274.135Z"/><path class="e" d="M882.734,4275.552c0-1.6-1.118-2.242-2.5-1.444a5.531,5.531,0,0,0-2.5,4.333c0,1.6,1.122,2.242,2.5,1.445A5.527,5.527,0,0,0,882.734,4275.552Z"/><path class="f" d="M882.244,4275.834c0-1.281-.9-1.8-2.012-1.161a4.454,4.454,0,0,0-2.012,3.484c0,1.284.9,1.8,2.012,1.161A4.435,4.435,0,0,0,882.244,4275.834Z"/><path class="g" d="M891.44,4272.448l-7.171,10.847-8.1-4.675.005,0h0a21.88,21.88,0,0,1-.258-5.851,2.517,2.517,0,0,1,1.109-1.7l5.537-3.2a.8.8,0,0,1,.77-.082l.013-.015Z"/><path class="h" d="M884.265,4283.291l7.252-4.186a17.181,17.181,0,0,0,.241-6.193c-.112-.528-.58-.672-1.1-.369l-5.537,3.2a2.509,2.509,0,0,0-1.113,1.7A22.268,22.268,0,0,0,884.265,4283.291Z"/><path class="d" d="M885.069,4277.485l5.4-3.119a.591.591,0,0,0,.267-.463c0-.172-.12-.24-.267-.154l-5.4,3.117a.6.6,0,0,0-.267.464C884.8,4277.5,884.922,4277.571,885.069,4277.485Z"/><path class="d" d="M885.069,4278.362l5.4-3.119a.6.6,0,0,0,.267-.465c0-.169-.12-.238-.267-.154l-5.4,3.119a.6.6,0,0,0-.267.464C884.8,4278.379,884.922,4278.448,885.069,4278.362Z"/><path class="d" d="M885.069,4279.239l5.4-3.119a.594.594,0,0,0,.267-.464c0-.173-.12-.241-.267-.155l-5.4,3.119a.591.591,0,0,0-.267.464C884.8,4279.256,884.922,4279.325,885.069,4279.239Z"/><path class="d" d="M885.069,4280.116l5.4-3.119a.6.6,0,0,0,.267-.464c0-.173-.12-.241-.267-.155l-5.4,3.119a.591.591,0,0,0-.267.464C884.8,4280.131,884.922,4280.2,885.069,4280.116Z"/><path class="d" d="M897.467,4280.791a10.947,10.947,0,0,1-4.957,8.581c-2.734,1.58-4.952.3-4.952-2.861a10.951,10.951,0,0,1,4.952-8.581C895.249,4276.35,897.467,4277.631,897.467,4280.791Z"/><rect class="d" width="14.015" height="4.046" transform="translate(889.006 4289.72) rotate(-59.998)"/><path class="a" d="M900.971,4282.813c0-3.159-2.218-4.441-4.957-2.861a10.955,10.955,0,0,0-4.952,8.581c0,3.162,2.218,4.441,4.952,2.864A10.954,10.954,0,0,0,900.971,4282.813Z"/><path class="e" d="M898.516,4284.23c0-1.6-1.117-2.244-2.5-1.447a5.54,5.54,0,0,0-2.5,4.336c0,1.595,1.122,2.242,2.5,1.445A5.523,5.523,0,0,0,898.516,4284.23Z"/><path class="f" d="M898.026,4284.512c0-1.284-.9-1.8-2.012-1.161a4.449,4.449,0,0,0-2.012,3.484c0,1.284.9,1.8,2.012,1.161A4.436,4.436,0,0,0,898.026,4284.512Z"/><path class="o" d="M872.631,4274.628c.009.008.026.011.039.021l15.468,8.932-29.7,24.862-15.563-8.985a.907.907,0,0,1-.478-.909v-5.334a3.066,3.066,0,0,1,1.131-2.2c10.533-8.153,20.331-14.462,28.431-16.522a.811.811,0,0,1,.434.007l0,0Z"/><path class="j" d="M859.325,4308.318l27.816-16.059a3,3,0,0,0,1.358-2.354v-5.48c0-.7-.391-1.1-.976-.947-8.1,2.057-17.9,8.368-28.426,16.519a3.05,3.05,0,0,0-1.13,2.2v5.334C857.967,4308.4,858.573,4308.752,859.325,4308.318Z"/><path class="b" d="M882.059,4287.093a37.012,37.012,0,0,1,4.278-1.537c.412-.118.692.153.692.639v3.362a2.043,2.043,0,0,1-.924,1.6l-4.162,2.4c-.507.3-.924.056-.924-.533v-4.269A2.007,2.007,0,0,1,882.059,4287.093Z"/><path class="i" d="M875.361,4290.483c1.372-.793,2.678-1.491,3.942-2.117v6.719l-19.866,11.471v-5.1A145.708,145.708,0,0,1,875.361,4290.483Z"/><path class="b" d="M879.3,4292.783v2.3l-19.866,11.47v-2.3Z"/><path class="n" d="M853.62,4292.252l1.071.617,2.175,1.26a2.128,2.128,0,0,0,2.451-.213,92.164,92.164,0,0,1,10.227-7c.864-.524,1.741-1.06,2.64-1.593.383-.232.778-.464,1.17-.7.1-.06.193-.112.292-.172.533-.312,1.087-.634,1.634-.957l-1.149-.666-1.414-.806-4.759-2.754c-.464.273-.929.544-1.388.817a145.218,145.218,0,0,0-13.182,8.57A2.161,2.161,0,0,0,853.62,4292.252Z"/><path class="d" d="M854.691,4292.869l2.175,1.26a2.128,2.128,0,0,0,2.451-.213,92.164,92.164,0,0,1,10.227-7c.864-.524,1.741-1.06,2.64-1.593.383-.232.778-.464,1.17-.7.1-.06.193-.112.292-.172l-3.629-2.1-1.392.815a145.214,145.214,0,0,0-13.182,8.572A2.023,2.023,0,0,0,854.691,4292.869Z"/><path class="a" d="M865.963,4284.851l3.581,2.068c.864-.524,1.741-1.06,2.64-1.593.383-.232.778-.464,1.17-.7l.777-1.795.976-2.289c-.017-.009-.051-.03-.068-.041l-5.787-3.336a.73.73,0,0,0-.778.049l-.757.434a2.408,2.408,0,0,0-1.049,1.634l-.1.806Z"/><path class="d" d="M872.184,4285.326c.383-.232.778-.464,1.17-.7.636-.374,1.281-.746,1.926-1.129l.1-2.218a.843.843,0,0,0-.276-.737c-.017-.009-.051-.03-.068-.041a.79.79,0,0,0-.718.092l-.757.443a2.209,2.209,0,0,0-.847.989,2.289,2.289,0,0,0-.189.645Z"/><path class="h" d="M853.474,4287.57a2.169,2.169,0,0,0,1.036,1.987c.671.387,1.294.127,1.393-.585a2.165,2.165,0,0,0-1.032-1.986C854.2,4286.6,853.573,4286.861,853.474,4287.57Z"/><path class="h" d="M854.3,4288.045l.778.451.555-3.944-.778-.45Z"/><path class="h" d="M855.129,4288.129l-.49.49,2.953,3.837.49-.488Z"/><path class="h" d="M854.351,4287.68l.288.939-3.508.107-.288-.939Z"/><path class="h" d="M850.31,4285.744a7.794,7.794,0,0,0,3.727,7.157c2.421,1.4,4.669.456,5.031-2.1a7.8,7.8,0,0,0-3.728-7.158C852.92,4282.246,850.671,4283.185,850.31,4285.744Zm1.311.756c.254-1.791,1.832-2.45,3.525-1.472a5.456,5.456,0,0,1,2.61,5.014c-.249,1.791-1.827,2.451-3.521,1.473A5.469,5.469,0,0,1,851.621,4286.5Z"/><path class="d" d="M853.474,4287.57a2.169,2.169,0,0,0,1.036,1.987c.671.387,1.294.127,1.393-.585a2.165,2.165,0,0,0-1.032-1.986C854.2,4286.6,853.573,4286.861,853.474,4287.57Z"/><path class="d" d="M854.3,4288.045l.778.451.555-3.944-.778-.45Z"/><path class="d" d="M855.129,4288.129l-.49.49,2.953,3.837.49-.488Z"/><path class="d" d="M854.351,4287.68l.288.939-3.508.107-.288-.939Z"/><path class="l" d="M850.31,4285.744a7.794,7.794,0,0,0,3.727,7.157c2.421,1.4,4.669.456,5.031-2.1a7.8,7.8,0,0,0-3.728-7.158C852.92,4282.246,850.671,4283.185,850.31,4285.744Zm1.311.756c.254-1.791,1.832-2.45,3.525-1.472a5.456,5.456,0,0,1,2.61,5.014c-.249,1.791-1.827,2.451-3.521,1.473A5.469,5.469,0,0,1,851.621,4286.5Z"/><path class="d" d="M840.912,4295.8a10.958,10.958,0,0,1-4.953,8.583c-2.738,1.58-4.956.3-4.956-2.861a10.951,10.951,0,0,1,4.956-8.583C838.693,4291.356,840.912,4292.637,840.912,4295.8Z"/><rect class="d" width="14.014" height="4.046" transform="matrix(0.5, -0.866, 0.866, 0.5, 832.455, 4304.726)"/><path class="a" d="M844.416,4297.82c0-3.16-2.219-4.441-4.953-2.861a10.952,10.952,0,0,0-4.957,8.583c0,3.16,2.219,4.441,4.957,2.861A10.957,10.957,0,0,0,844.416,4297.82Z"/><path class="d" d="M841.475,4299.52c0-1.283-.9-1.8-2.012-1.163a4.444,4.444,0,0,0-2.012,3.485c0,1.283.9,1.8,2.012,1.163A4.459,4.459,0,0,0,841.475,4299.52Z"/><path class="p" d="M836.918,4304a76.338,76.338,0,0,1,12.206-11.444c1.856-1.4,2.919-4.31,2.093-5.786l-.481-.869c-8.629,7.58-9.85,10.146-15.611,17.964Z"/><path class="p" d="M857.722,4289.931l-15.61,17.964-6.986-4.033,15.61-17.964Z"/><path class="k" d="M843.9,4308.03a76.456,76.456,0,0,1,12.206-11.444c1.857-1.4,2.919-4.31,2.093-5.787l-.481-.868c-8.633,7.581-9.85,10.148-15.611,17.964Z"/><path class="d" d="M856.436,4304.571a10.96,10.96,0,0,1-4.957,8.582c-2.738,1.58-4.957.3-4.957-2.862a10.95,10.95,0,0,1,4.957-8.581C854.213,4300.13,856.436,4301.41,856.436,4304.571Z"/><rect class="d" width="14.016" height="4.046" transform="translate(847.975 4313.501) rotate(-60.002)"/><path class="a" d="M859.94,4306.594c0-3.16-2.218-4.441-4.957-2.861a10.948,10.948,0,0,0-4.957,8.581c0,3.16,2.219,4.441,4.957,2.861A10.945,10.945,0,0,0,859.94,4306.594Z"/><path class="e" d="M857.485,4308.009c0-1.595-1.122-2.242-2.5-1.445a5.541,5.541,0,0,0-2.5,4.336c0,1.6,1.122,2.242,2.5,1.444A5.535,5.535,0,0,0,857.485,4308.009Z"/><path class="f" d="M856.995,4308.292c0-1.283-.9-1.8-2.012-1.16a4.439,4.439,0,0,0-2.012,3.484c0,1.284.9,1.8,2.012,1.161A4.45,4.45,0,0,0,856.995,4308.292Z"/><path class="i" d="M831,4302.719l-6.7,3.871c-1.079.623-1.956.118-1.956-1.131v-.043a4.386,4.386,0,0,1,1.582-3.134l7.077-5.673C830.13,4299.2,830.078,4301.274,831,4302.719Z"/><path class="i" d="M822.92,4306.729l8.083-10.12,21.251,12.261-8.087,10.12Z"/><path class="j" d="M845.551,4318.851l6.7-3.869c-.924-1.445-.877-3.515,0-6.111l-7.076,5.673a4.38,4.38,0,0,0-1.587,3.136v.04C843.59,4318.969,844.467,4319.477,845.551,4318.851Z"/><path class="b" d="M850.576,4314.391a8.312,8.312,0,0,1-.047-2.5l-4.862,3.9a1.369,1.369,0,0,0-.49.974c0,.43.271.587.606.393Z"/><path class="b" d="M831.733,4303.342l9.841,5.681a1.873,1.873,0,0,0,2.1-.154l.477-.379a.887.887,0,0,0-.108-1.462l-9.987-5.764a1.707,1.707,0,0,0-1.918.139l-.519.411A.928.928,0,0,0,831.733,4303.342Z"/><path class="d" d="M882.906,4289.195c-.009,1.1,1.015.706,1.006,1.83l0,.468-1.5.847,0-.545.976-.553c0-.03,0-.058.009-.086,0-.625-1.023-.49-1.015-1.689a1.542,1.542,0,0,1,.778-1.4c.512-.286.77-.088.765.525v.369l-.49.278v-.409c0-.273-.1-.318-.262-.225S882.906,4288.852,882.906,4289.195Z"/><path class="d" d="M884.862,4288.342c0,.305.116.336.31.226l.2-.114,0,.546-.177.1a.675.675,0,0,0-.339.677l-.005.3c0,.339.1.372.263.279a.547.547,0,0,0,.271-.529l0-.352.49-.278-.005.316a1.536,1.536,0,0,1-.777,1.4c-.508.288-.77.088-.762-.523v-.3a1.451,1.451,0,0,1,.37-1.009c-.249.022-.361-.17-.357-.578v-.1a1.542,1.542,0,0,1,.779-1.4c.507-.288.769-.088.765.524v.207l-.49.277v-.245c0-.273-.1-.318-.263-.225s-.27.244-.27.589Z"/><path class="q" d="M1165.581,4334.014l-15.829,9.14v-18.28l15.829-9.142Z"/><path class="b" d="M1181.414,4324.874l-15.833,9.14v-18.282l15.833-9.14Z"/><path class="q" d="M1197.248,4315.732l-15.834,9.142v-18.282l15.834-9.14Z"/><path class="b" d="M1213.082,4306.592l-15.834,9.14v-18.28l15.834-9.142Z"/><path class="q" d="M1228.911,4297.452l-15.829,9.14V4288.31l15.829-9.14Z"/><path class="b" d="M1244.745,4288.31l-15.834,9.142V4279.17l15.834-9.14Z"/><path class="b" d="M1165.581,4352.3l-15.829,9.14v-18.282l15.829-9.14Z"/><path class="q" d="M1181.414,4343.157l-15.833,9.14v-18.282l15.833-9.14Z"/><path class="b" d="M1197.248,4334.014l-15.834,9.143v-18.283l15.834-9.142Z"/><path class="q" d="M1213.082,4324.874l-15.834,9.14v-18.282l15.834-9.14Z"/><path class="b" d="M1228.911,4315.734l-15.829,9.14v-18.282l15.829-9.14Z"/><path class="q" d="M1244.745,4306.592l-15.834,9.142v-18.282l15.834-9.142Z"/><rect class="d" width="2.61" height="104.984" transform="translate(1148.444 4324.872)"/><rect class="d" width="2.614" height="104.981" transform="translate(1243.438 4270.03)"/></g></svg>