<svg xmlns="http://www.w3.org/2000/svg" width="186.615" height="290.757" viewBox="0 0 186.615 290.757"><defs><style>.a{fill:#ffd194;}.a,.b,.c,.d,.e,.f,.g,.h,.i,.j,.k,.l,.m,.n,.o,.p,.q,.r,.s,.t{fill-rule:evenodd;}.b{fill:#f0b267;}.c{fill:#e71626;}.d{fill:#f37e0d;}.e{fill:#006da2;}.f{fill:#0c171c;}.g{fill:#c6e9fb;}.h{fill:#008ccf;}.i{fill:#0f2631;}.j{fill:#d9f1fd;}.k{fill:#f6a300;}.l{fill:#ffbb1a;}.m{fill:#040505;}.n{fill:#2b2582;}.o{fill:#57c0cd;}.p{fill:#e6f6fe;}.q{fill:#89bb2a;}.r{fill:#da0078;}.s{fill:#00649f;}.t{fill:#4e41440;}</style></defs><g transform="translate(-1638.617 -4356.324)"><path class="a" d="M1757.978,4470.358l-.224.246a52.593,52.593,0,0,1-5.531.912,18.407,18.407,0,0,1-7.016-1.225,3.456,3.456,0,0,0-3.339.184l-3.182,1.326c-2.015.817-1.948,1.2-3.372,2.969-1.134,1.414-2.34,3.009-1.337,3.767.964.728,2.188-.481,3.715-1.592,2.751,1.268,4.9,2.016,7.261,3.92,3.939.295,6.107.831,8.3-.484a9.827,9.827,0,0,0,2.149-2.258l6.945.109Z"/><path class="b" d="M1734.234,4478.685c.923.371,2.064-.725,3.458-1.74.255.125,1.579.184,1.59.392.023.4-2.989,1.156-2.136,2.434a10.307,10.307,0,0,0,2.405,2.117,8.974,8.974,0,0,0,2.492,1.153c1.411.291,1.16-.919,2.036-1.356a10.875,10.875,0,0,1,1.7-.753c3.426.295,5.442.671,7.48-.551a6.024,6.024,0,0,0,1.507-1.473c-3.056-1.534-7.318-5.939-10.317-6.409-1.545-.242-3.061-.092-6.372,1.653C1736.15,4476.079,1734.7,4477.617,1734.234,4478.685Z"/><path class="c" d="M1731.953,4461.164l26.47,57.73c1.6,1.195,4.628-.06,4.758-1.78l-26.471-57.73A8.2,8.2,0,0,0,1731.953,4461.164Z"/><path class="a" d="M1743.1,4471.763c-.745,1.771-3.154,2.925-5.6,3.1a9.691,9.691,0,0,0-2.7.4,1.135,1.135,0,0,0-.629.944c-.028.75,1.615,2.135,4.106,1.631l3.931-.792c4.531,2.1,7.534,1.651,11.782-1.2l-2.007-3.423-5.716-1.11Z"/><path class="a" d="M1741.3,4478.4a9.218,9.218,0,0,1-2.8,2.012c-.4.115-.983-.261-1.33-.568s-.533-.34.142-1.055a11.06,11.06,0,0,1,1.914-1.556C1740.522,4476.423,1742.722,4477.062,1741.3,4478.4Z"/><path class="a" d="M1743.613,4479.5a12,12,0,0,1-3.049,2.649c-.367.175-.994-.121-1.385-.381s-.57-.43-.12-.918,1.782-1.716,2.348-2.228C1742.517,4477.612,1744.753,4477.939,1743.613,4479.5Z"/><path class="a" d="M1744.5,4481.379a9.588,9.588,0,0,1-2.557,1.965c-.3.122-.786-.144-1.084-.37s-.433-.37-.052-.738,1.5-1.281,1.977-1.663c.873-.7,2.471-.424,1.874.585A1.988,1.988,0,0,1,1744.5,4481.379Z"/><path class="d" d="M1786.849,4466.9l-31.534,2.734a.45.45,0,0,0-.211.018l-.115.01-.01.051-.021.014c-.832.58-1.286,3.572-1.014,6.682.26,2.963,1.088,4.963,1.885,4.646,4.361.32,29.346.739,38.735-.887C1805.4,4478.286,1800.5,4464.946,1786.849,4466.9Z"/><path class="e" d="M1781.991,4608.746c-1.191,5.374-2.376,6.821-4.543,9.334-1.621,1.882-10.619,8.461-11.171,10.231a3.909,3.909,0,0,0,1.837,4.716c2.277,1.258,6.473.932,9.347.3,6.03-1.323,10.553-5.193,15.164-9.112.525.467,2.658-.417,4.618-1.744,1.6-1.083,2.389-1.971,2.5-3.558a25.328,25.328,0,0,0-.519-4.573c-.586-3.13-2.082-5.523-3.7-8.632l-6.123-.972Z"/><path class="f" d="M1766.091,4629.323a3.789,3.789,0,0,0,2.023,3.7c2.276,1.258,6.473.932,9.347.3,6.03-1.323,10.553-5.192,15.164-9.112.525.467,2.658-.417,4.618-1.744,1.6-1.083,2.389-1.971,2.5-3.558a13.858,13.858,0,0,0-.168-2.389c-.612,2.379-5.339,5.008-7.679,5.249-4.612,3.919-9.168,7.584-15.2,8.907-2.873.63-7.07.957-9.347-.3A4.019,4.019,0,0,1,1766.091,4629.323Z"/><path class="g" d="M1807.964,4503.023c3.415,15.056-12.174,44.977-17.993,64.224l-16.876-5.39,8.6-50.036c.657-3.645,1.216-7.016,1.609-9.912Z"/><path class="g" d="M1791.786,4563.132c.611,15.62,3.3,27.127,4.71,43.963l-.015.026c.887,5.9-11.541,11.667-16.55,8.756a.77.77,0,0,1-.417-.67l-.008,0L1772.952,4562C1774.64,4545.427,1793.968,4550.37,1791.786,4563.132Z"/><path class="h" d="M1805.181,4621.809c-1.117,5.39-2.282,6.854-4.412,9.4-1.6,1.9-10.5,8.609-11.026,10.385a3.911,3.911,0,0,0,1.9,4.691c2.295,1.228,6.487.841,9.351.171,6.011-1.409,10.478-5.341,15.035-9.324.531.459,2.651-.453,4.593-1.809,1.587-1.1,2.36-2,2.448-3.592a25.429,25.429,0,0,0-.584-4.566c-.63-3.121-2.158-5.492-3.82-8.578l-6.137-.887Z"/><path class="i" d="M1789.57,4642.608a3.793,3.793,0,0,0,2.075,3.674c2.295,1.226,6.487.841,9.351.171,6.011-1.409,10.478-5.34,15.035-9.324.531.459,2.651-.453,4.593-1.809,1.587-1.1,2.361-2,2.448-3.592a13.947,13.947,0,0,0-.2-2.387c-.579,2.387-5.268,5.082-7.6,5.357-4.557,3.984-9.06,7.712-15.072,9.119-2.865.671-7.056,1.056-9.351-.17A4.03,4.03,0,0,1,1789.57,4642.608Z"/><path class="j" d="M1811.473,4572.811c2.363,15.838,4.9,30.169,8.167,47.45,2.976,6.238-10.162,12.094-16,8.7a.856.856,0,0,1-.28-.252l-.055-.008c-4.383-19.918-8.134-36.657-10.6-54.272C1795.287,4561.717,1812.251,4559.889,1811.473,4572.811Z"/><path class="j" d="M1820.206,4517.421c5.5,22.682-4.677,33.3-8.564,55.5.289,5.647-15.636,15.964-18.877,2.324-.418-6.45,4.467-39.22,5.121-57.4Z"/><path class="b" d="M1805.58,4429.215a37.11,37.11,0,0,0,.043,9.237c.082.984-.113,2.426.025,3.613l-8.5,3.525-4.91-.959c-.211-3.284-1.119-6.772-1.447-10.046Z"/><path class="k" d="M1775.187,4447.276c-.25-5.055.888-9.188,5.216-11.922,3.625-2.29,6.913-1.923,10.7-.3.884.379.087,3.339.307,3.229l1.12,6.529,3.593.541,7.162-3.863,2.421-2.743c7.472,4.513,12.51,8.414,16.411,12.872,4.954,5.66,2.775,17.952,1.628,27.492-.875,7.267-2.254,16.541-2.576,25.224-.267,7.213.619,15.9,1.168,25.524.882,8.527-26.034-1.764-29.743-4.529-10.9-8.126-11.046-10.773-11.195-13.889C1778.565,4491.726,1775.44,4452.379,1775.187,4447.276Z"/><path class="l" d="M1809.413,4493.881c-5.376,5.886-14.245.965-13.215-4.347l11.2-31.086c2.186-11.527,21.571-11.537,17.187,6.833C1823.153,4471.3,1814.451,4482.965,1809.413,4493.881Z"/><path class="l" d="M1805.562,4438.114c-2.309,4.908-10.128,5.39-12.848,6.679l.764,6.494c8.673-2.707,13.21-7.947,14.439-10.653Z"/><path class="l" d="M1791.084,4434.547l1.6,10.261-3.463,2.913c-1.432-3.75.063-9,.65-12.931Z"/><path class="a" d="M1786.087,4418.321c-.188,4.686-1.444,6.554.767,14.207a46.03,46.03,0,0,0,1.5,4.69c.572.881,3,2.31,4.107,2.22,2.2-.181,8.034-2.455,9.763-3.2,3.815-1.635,3.643-2.7,4.727-7.017l2.342-6.115-.331-12.555c-7.25-2.806-13.669-4.788-17.263-3.735C1788.09,4407.879,1786.457,4409.126,1786.087,4418.321Z"/><path class="m" d="M1808.005,4405.69c3.941,1.468,5.931,6.6,5.2,11.87-.72,5.189-4.021,10.109-6.7,13.795,0-3.653,1.923-7.351.373-8.485-.86-.628-3.625-.8-5.4,3.963-.693-3.331-.3-4.165-.489-7.292.394-9.688-14.2-1.459-16.2-11.13,2.417-1.123,3.986-4.766,8.106-6.34C1797.3,4400.385,1805.192,4401.594,1808.005,4405.69Z"/><path class="n" d="M1729.376,4372.244c2.261-1.065,4.5-1.057,5.011.018s-.916,2.809-3.177,3.874-4.5,1.058-5.009-.017S1727.117,4373.31,1729.376,4372.244Z"/><path class="o" d="M1726.969,4359.363c2.469.387,4.321,1.652,4.137,2.825s-2.334,1.812-4.8,1.425-4.321-1.65-4.137-2.824S1724.5,4358.977,1726.969,4359.363Z"/><path class="p" d="M1743.071,4362.258c1.488-.7,2.964-.7,3.3.012s-.6,1.848-2.09,2.549-2.963.7-3.3-.011S1741.584,4362.959,1743.071,4362.258Z"/><path class="q" d="M1748.339,4371.889c1.215,1.109,1.773,2.475,1.247,3.054s-1.939.147-3.155-.961-1.773-2.473-1.247-3.051S1747.123,4370.783,1748.339,4371.889Z"/><path class="r" d="M1728.491,4438.881c-.827,2.357-2.4,3.952-3.526,3.559s-1.361-2.623-.534-4.982,2.4-3.952,3.524-3.559S1729.316,4436.522,1728.491,4438.881Z"/><path class="s" d="M1698.454,4401.2c-3.174,1.459-6.31,1.419-7.005-.09s1.318-3.916,4.494-5.375,6.31-1.419,7.005.091S1701.629,4399.743,1698.454,4401.2Z"/><path class="r" d="M1705.091,4377.883c-1.2-1.12-1.749-2.491-1.217-3.064s1.94-.129,3.144.99,1.75,2.491,1.218,3.064S1706.3,4379,1705.091,4377.883Z"/><path class="n" d="M1665.158,4383.56c-2.183-1.217-3.483-3.045-2.9-4.083s2.816-.891,5,.326,3.482,3.046,2.9,4.083S1667.339,4384.777,1665.158,4383.56Z"/><path class="o" d="M1726.942,4453.144c-1.124-2.231-1.175-4.474-.114-5.009s2.832.843,3.956,3.075,1.174,4.474.113,5.009S1728.065,4455.376,1726.942,4453.144Z"/><path class="t" d="M1717.183,4431.627c-2.392.726-4.611.392-4.955-.745s1.314-2.645,3.7-3.372,4.61-.39,4.955.746S1719.573,4430.9,1717.183,4431.627Z"/><path class="q" d="M1670.659,4421.252c.193-1.634.979-2.884,1.755-2.791s1.25,1.489,1.057,3.123-.979,2.883-1.756,2.79S1670.467,4422.885,1670.659,4421.252Z"/><path class="c" d="M1732.536,4406.243c2.17,1.238,3.453,3.078,2.863,4.11s-2.825.865-4.995-.374-3.453-3.079-2.865-4.11S1730.365,4405,1732.536,4406.243Z"/><path class="h" d="M1738.04,4386.649c1.1,2.244,1.13,4.486.064,5.011s-2.824-.87-3.925-3.113-1.132-4.485-.065-5.01S1736.937,4384.408,1738.04,4386.649Z"/><path class="r" d="M1695.632,4363.561c2.4-.7,4.613-.346,4.946.794s-1.339,2.634-3.738,3.336-4.613.346-4.946-.793S1693.234,4364.264,1695.632,4363.561Z"/><path class="s" d="M1706.293,4434.452c1.428.815,2.273,2.026,1.885,2.705s-1.859.569-3.287-.246-2.273-2.026-1.885-2.705S1704.864,4433.638,1706.293,4434.452Z"/><path class="r" d="M1658.333,4414.055c-.208,1.631-1.005,2.873-1.781,2.773s-1.234-1.5-1.027-3.132,1.007-2.874,1.783-2.775S1658.542,4412.423,1658.333,4414.055Z"/><path class="n" d="M1725.2,4390.443c-1.886-1.64-2.784-3.695-2-4.592s2.941-.294,4.826,1.346,2.783,3.7,2,4.591S1727.089,4392.082,1725.2,4390.443Z"/><path class="o" d="M1729.7,4428.466c-.64-2.416-.23-4.62.918-4.926s2.6,1.407,3.241,3.822.229,4.62-.919,4.925S1730.344,4430.881,1729.7,4428.466Z"/><path class="t" d="M1643.316,4391.683c-2.49.219-4.591-.563-4.7-1.747s1.829-2.319,4.318-2.539,4.592.564,4.7,1.748S1645.806,4391.464,1643.316,4391.683Z"/><path class="p" d="M1687.868,4429.464c-1.242-1.08-1.831-2.433-1.319-3.022s1.935-.194,3.176.884,1.831,2.432,1.319,3.022S1689.108,4430.542,1687.868,4429.464Z"/><path class="q" d="M1689.478,4383.72c.524-1.559,1.55-2.622,2.291-2.372s.917,1.715.392,3.273-1.548,2.621-2.29,2.372S1688.955,4385.278,1689.478,4383.72Z"/><path class="c" d="M1674.931,4398.273c1.871,1.658,2.748,3.722,1.96,4.612s-2.942.265-4.813-1.392-2.747-3.722-1.959-4.612S1673.061,4396.615,1674.931,4398.273Z"/><path class="h" d="M1670.8,4360.21c.619,2.421.187,4.621-.964,4.914s-2.586-1.43-3.2-3.851-.187-4.623.964-4.916S1670.179,4357.787,1670.8,4360.21Z"/><path class="r" d="M1700.463,4414.94c2.491-.2,4.586.607,4.679,1.791s-1.852,2.3-4.343,2.5-4.586-.607-4.679-1.791S1697.972,4415.135,1700.463,4414.94Z"/><path class="s" d="M1712.641,4359.614c1.231,1.09,1.807,2.449,1.289,3.035s-1.936.173-3.166-.917-1.809-2.449-1.291-3.035S1711.41,4358.522,1712.641,4359.614Z"/><path class="r" d="M1710.591,4405.34c-.539,1.553-1.576,2.6-2.313,2.349s-.9-1.724-.361-3.278,1.574-2.6,2.313-2.349S1711.13,4403.786,1710.591,4405.34Z"/><path class="b" d="M1769.092,4498.132c-4.434.954-4.956.745-10.08.344a10.864,10.864,0,0,0-5.423.6l-3.032,2.007c-2.237,1.749-1.383,2.315-.209,5.228l1.9,4.289c1.061,2.391.479,2.206,3.067,1.834a19.982,19.982,0,0,0,5.12-1.378c1.973-.788,4.035-2.326,6.011-3.114l5.619-1.354-2.86-7.963-.186.029Z"/><path class="l" d="M1805.039,4496.914l-37.16,11.623c-2.581-2.287-4.135-7.132-3.145-10.22l35.061-14.288C1812.758,4479.961,1814.216,4493.846,1805.039,4496.914Z"/></g></svg>