<svg xmlns="http://www.w3.org/2000/svg" width="197.822" height="323.838" viewBox="0 0 197.822 323.838"><defs><style>.a{fill:#d0001b;}.b{fill:#e7121d;}.c{fill:#e82f37;}.d{fill:#eb494f;}.e{fill:#aa0b1b;}.f{fill:#fab6a4;}.g{fill:#e95515;}.h{fill:#f26511;}.i{fill:#2a2229;}.j{fill:#342932;}.k{fill:#362a2d;}.l{fill:#f69a85;}</style></defs><g transform="translate(-44.761 -4267.367)"><path class="a" d="M153.563,4573.917c0,9.547-14.551,17.288-32.5,17.288s-32.5-7.741-32.5-17.288,14.551-17.288,32.5-17.288S153.563,4564.369,153.563,4573.917Z"/><path class="b" d="M153.526,4572.393c0,9.542-14.543,17.278-32.483,17.278s-32.481-7.736-32.481-17.278,14.542-17.278,32.481-17.278S153.526,4562.851,153.526,4572.393Z"/><rect class="b" width="64.964" height="20.961" transform="translate(88.562 4552.485)"/><path class="c" d="M153.526,4553.2c0,9.543-14.543,17.279-32.483,17.279s-32.481-7.736-32.481-17.279,14.542-17.277,32.481-17.277S153.526,4543.658,153.526,4553.2Z"/><path class="d" d="M150.7,4552.485c0,8.706-13.268,15.763-29.635,15.763s-29.633-7.057-29.633-15.763,13.267-15.763,29.633-15.763S150.7,4543.779,150.7,4552.485Z"/><path class="c" d="M121.044,4543.135c11.178,0,20.344,4.559,21.315,10.37a6.083,6.083,0,0,0,.1-1.02c0-6.29-9.587-11.39-21.412-11.39s-21.413,5.1-21.413,11.39a6.191,6.191,0,0,0,.1,1.02C100.7,4547.694,109.865,4543.135,121.044,4543.135Z"/><path class="e" d="M121.044,4563.875c11.178,0,20.344-4.558,21.315-10.37-.971-5.811-10.137-10.37-21.315-10.37s-20.344,4.559-21.316,10.37C100.7,4559.317,109.865,4563.875,121.044,4563.875Z"/><path class="a" d="M121.062,4583.554c-17.311,0-31.419-7.209-32.387-16.289a9.065,9.065,0,0,0-.094.989c0,9.542,14.543,17.277,32.481,17.277s32.483-7.735,32.483-17.277a9.324,9.324,0,0,0-.094-.989C152.482,4576.345,138.374,4583.554,121.062,4583.554Z"/><path class="a" d="M121.062,4576.4c-17.311,0-31.419-7.21-32.387-16.29a9.074,9.074,0,0,0-.094.989c0,9.542,14.543,17.278,32.481,17.278s32.483-7.736,32.483-17.278a9.333,9.333,0,0,0-.094-.989C152.482,4569.186,138.374,4576.4,121.062,4576.4Z"/><path class="f" d="M153.322,4346.3c-.041-1.546-2.385-3.145-3.027-3.277a25.864,25.864,0,0,1-.762,5.79,75.929,75.929,0,0,1-5.391,14.319l4.694,5.055s4.186-5.772,4.7-8.044C154,4358.043,153.066,4348.7,153.322,4346.3Z"/><path class="g" d="M150.692,4360.813l1.92.186,13.117-92.9-1.906-.332Z"/><path class="g" d="M150.7,4360.858c-.044.3.349.6.878.679s.992-.1,1.036-.4-.35-.6-.879-.679S150.739,4360.561,150.7,4360.858Z"/><path class="h" d="M163.824,4267.763c-.052.3.333.61.859.7s.995-.074,1.046-.371-.333-.61-.859-.7S163.875,4267.467,163.824,4267.763Z"/><path class="i" d="M173.8,4335.639l4.407,14.3a15.98,15.98,0,0,1-10.131,4.714v-20.772Z"/><path class="j" d="M165.73,4282.089c-1.112,6.078-3.17,26.819-4.072,36.194-2.006-3.751-3.836-7.98-3.836-7.98l5.755-40.817,1.915.29a244.6,244.6,0,0,1,9.615,35.984,219.855,219.855,0,0,1,3.1,44.184s-13.4-3.992-13.4-14.275c0-2.01.718-4.558,1.019-6.945l.005-.025C166.795,4322.744,165.73,4282.089,165.73,4282.089Z"/><path class="i" d="M164.775,4323.169a27.084,27.084,0,0,1-3.117-4.886c.9-9.375,2.96-30.116,4.072-36.194,0,0,1.065,40.655.1,46.61l-.005.025C166.1,4326.568,166.03,4324.543,164.775,4323.169Z"/><path class="g" d="M163.577,4269.486c-.051.3.333.611.86.7s.994-.074,1.046-.37-.333-.611-.859-.7S163.629,4269.19,163.577,4269.486Z"/><path class="g" d="M145.668,4357.172c-1.22,1.212-2.775,2.856-4.688,5.083-4.155,4.837-13.806,15.486-13.806,15.486s-6.5-4.665-15.719-11.777a60.116,60.116,0,0,0-17.938-9.632c-4.828,5.183,10.207,30.842,11.413,32.138a85.177,85.177,0,0,0,14.722,9.376c4.883,2.258,7.421.814,9.553-.4,5.684-3.245,10.76-6.3,15.836-14.206,2.692-4.192,6.994-13.585,8.281-19.3C149.231,4363.2,146.849,4361.156,145.668,4357.172Z"/><path class="k" d="M130.117,4531.585s2.851,3.1,6.66,6.813c3.524,3.437,4.616,4.425,7.887,7.617,1.91,1.865.337,3.579-3.3,3.438a65.315,65.315,0,0,1-14.5-3.137,73.671,73.671,0,0,1-10.858-5.66,7.191,7.191,0,0,1-3.222-4.075v-5.733Z"/><path class="k" d="M71.141,4558.529s.66,5.875,1.066,13.256-.637,13.9-2.894,14.711-8.681.71-12.336-9.539a40.739,40.739,0,0,1-1.475-20.188Z"/><path class="h" d="M90.541,4464.533a3.591,3.591,0,0,0,3.13-.434c2.764-2.455,6.218-3.8,8.925-6.371a54.842,54.842,0,0,0,8.766-11.428c-1.205-11.877-2.049-21.141-2.049-21.141s-36.159-6.8-35.236.285c0,0-12.7,11.155-10.246,32.087.685,5.843-1.48,16.186-2.932,27.711-.354,2.809,1.251,4.028,1.031,7.068-.243,3.355-3.636,3.924-2.113,8.187,1.857,5.2-.948,6.831-1.659,8.7-5.15,13.56-5.629,29.475-6.5,37.865-.434,4.194-.188,5.851-1.066,7.309-1.234,2.051-.609,4.112,4.907,6.39,7.8,3.223,17.628.1,17.628.1s3.047-2.535,1.062-5.084c-.715-.92,1.138-2.359,1.223-3.847.631-10.967,1.526-29.909,7.415-42.329C85.975,4502.976,90.541,4464.533,90.541,4464.533Z"/><path class="h" d="M132.023,4523.758c1.866-7.463,5.638-27.206,5.692-44.683.017-5.465-5.121-12.323-13.683-22.633-9.559-11.509-12.954-15.319-12.954-15.319s-24.5,23.344-22.516,23.377c1.586.027,18.073,13.521,24.269,19.513-.705,10.85-2.693,29.187-3.91,36.359-.652,3.842,1.206,3.372,1.3,4.6.265,3.415-2.259,4.416,0,6.547a28.08,28.08,0,0,0,12.467,3.543c8.494.033,9.894-5.651,9.894-5.651S131.11,4527.412,132.023,4523.758Z"/><path class="h" d="M110.381,4436.056c-8.29,14.066-31.164,15.192-45.33,7.831,1.2-7.847,2.194-16.541,1.594-21.155-1.872-14.389-4.672-37.649-4.165-41.455.85-6.368,15.286-13.264,15.286-13.264s10.692-10.489,21.3-6.315c0,0,10.9,11.725,12.248,24.676.67,6.43-1.293,28.094-1.351,42.293C109.957,4430.508,110.125,4433.132,110.381,4436.056Z"/><path class="l" d="M94.567,4363.86l.684,9.977a26.7,26.7,0,0,1-4.683,4.824c-3.6-1.124-11.971-8.888-11.971-8.888l2.788-15.489Z"/><path class="f" d="M79.84,4337.259c3.752-4.782,14.538-8.81,21.565,1.589,7.368,10.9.4,28.733-6.05,27.692-3.615-.583-11.753-3.876-15.319-9.7C76.022,4350.287,76.926,4340.974,79.84,4337.259Z"/><path class="k" d="M104.171,4342.5c-1.5,2.388-3.828,5.188-9.837,5.5a23.9,23.9,0,0,1-8.8-1.21l.422,6.568a5.691,5.691,0,0,1-1.8-.248c-.65-2.494-1.719-3.078-2.937-2.026-1.379,1.19-1.178,5.758-1.178,5.758a16.821,16.821,0,0,1-5.18-12.013c.013-4.685,4.108-14.835,12.692-15.9s14.7,3.423,16.793,8.008A6.045,6.045,0,0,1,104.171,4342.5Z"/><path class="h" d="M242.533,4370.945c.173.876-.113,1.67-.64,1.775s-1.094-.522-1.267-1.4.113-1.671.639-1.775S242.359,4370.069,242.533,4370.945Z"/><path class="g" d="M66.447,4436.858l-.962,4.265s13.28,9.038,27.9,7.24,17.695-7.24,17.695-7.24l-.7-5.067s-10.884,7.245-20.488,7.811S66.447,4436.858,66.447,4436.858Z"/><path class="g" d="M79.95,4362.255s-4.23,0-5.677,3a43.178,43.178,0,0,0-2.1,5.883A35.5,35.5,0,0,0,83.64,4381.7a56.93,56.93,0,0,0,8.3,3.957l.752-8.922a22.184,22.184,0,0,1-10.328-5.6c-2.275-2.359-3.333-3.757-3.055-5.3C79.795,4363.12,79.95,4362.255,79.95,4362.255Z"/><path class="g" d="M100.54,4380.326l-7.851-3.592a37.921,37.921,0,0,0,1.466-10.447,4.367,4.367,0,0,0,2.688.3S102.291,4373.855,100.54,4380.326Z"/><path class="g" d="M98.561,4424.333c-.263,14.741-1.32,24.267-2.843,30.15-.618,2.389-1.51,4.968-2.235,6.921,2.506-1.083,4.68-2.795,5.223-5.62a1.072,1.072,0,0,1,.071-.173,103.837,103.837,0,0,0,2.11-10.884c1.557-11.048,1.832-45.164.007-52.422s-6.6-16.851-6.6-16.851l-3.346,2.131s2.661,2.4,6.491,18.766C99.012,4403.061,98.751,4413.677,98.561,4424.333Z"/><path class="g" d="M78.6,4444.034s-5,9.838-9.882,11.668l-4.884,1.829.093,3.873s6.108.388,10.932-5.7a73.245,73.245,0,0,0,7.573-11.668Z"/><path class="g" d="M93.45,4393.371l-9.842,3s1.874,6.09,6.285,5.024S93.45,4393.371,93.45,4393.371Z"/><path class="g" d="M111.727,4386.4l-8.476,2.58s1.875,6.09,6.285,5.024a3.872,3.872,0,0,0,1.647-.853Q111.559,4389.789,111.727,4386.4Z"/><path class="f" d="M65.051,4443.887a18.244,18.244,0,0,0,.96,6.613,26.763,26.763,0,0,0,2.7,5.2s-7.207-1.219-6.295,1.421c.966,2.794,9.917,4.555,11.625,3.258s3.483-5.9,3.288-9.958c-.128-2.69-6.274-11.321-6.274-11.321Z"/><path class="g" d="M67.192,4375.454c-2.594-1.28-7,2.059-11.572,10.947s-10.05,24.228-10.659,29.405-.066,9.289,5.1,16.293c1.719,2.332,12.358,16.264,12.358,16.264s5.6-1.45,7.513-4.329,4.112-6.3,4.112-6.3L62.42,4415.806s10.4-11.979,9.873-23.5S71.14,4377.4,67.192,4375.454Z"/><path class="f" d="M155.091,4345.921a3.21,3.21,0,0,0-3.438,2.512,27.912,27.912,0,0,0-.673,7.173c.112,2.484,3.806,2.318,5.177,0S158.4,4345.618,155.091,4345.921Z"/></g></svg>