<svg xmlns="http://www.w3.org/2000/svg" width="197.823" height="262.433" viewBox="0 0 197.823 262.433"><defs><style>.a{fill:#fab6a4;}.b{fill:#e95515;}.c{fill:#f26511;}.d{fill:#2a2229;}.e{fill:#342932;}.f{fill:#d0001b;}.g{fill:#e7121d;}.h{fill:#e82f37;}.i{fill:#eb494f;}.j{fill:#aa0b1b;}.k{fill:#362a2d;}.l{fill:#f69a85;}</style></defs><g transform="translate(-1415.902 -4328.772)"><path class="a" d="M1522.285,4414.883c1.4-.648,1.947-3.433,1.814-4.076a25.832,25.832,0,0,1-5.619,1.589,75.862,75.862,0,0,1-15.284.706l-2.789,6.31s6.957,1.564,9.245,1.133C1511.767,4420.146,1519.983,4415.6,1522.285,4414.883Z"/><path class="b" d="M1507.916,4418.2l.588,1.837,90.525-24.666-.448-1.882Z"/><path class="b" d="M1507.875,4418.223c-.291.078-.414.559-.276,1.076s.485.871.776.793.414-.559.276-1.075S1508.165,4418.146,1507.875,4418.223Z"/><path class="c" d="M1598.581,4393.492c-.293.07-.43.548-.306,1.067s.461.885.754.815.429-.547.3-1.067S1598.873,4393.423,1598.581,4393.492Z"/><path class="d" d="M1540.173,4429.483l-11.4,9.7a15.981,15.981,0,0,1-8.333-7.443l19.081-8.209Z"/><path class="e" d="M1586.174,4400.9c-6.023,1.38-25.889,7.687-34.857,10.563,2.653-3.324,5.815-6.677,5.815-6.677l39.768-10.844.49,1.874a244.563,244.563,0,0,1-29.255,23.052,219.875,219.875,0,0,1-39.362,20.311s-1.63-13.891,7.816-17.955c1.847-.794,4.471-1.142,6.782-1.809l.025,0C1549.249,4417.949,1586.174,4400.9,1586.174,4400.9Z"/><path class="d" d="M1548.06,4416.262a27.111,27.111,0,0,1,3.257-4.794c8.968-2.876,28.834-9.183,34.857-10.563,0,0-36.925,17.044-42.778,18.51l-.025,0C1545.46,4418.819,1547.294,4417.958,1548.06,4416.262Z"/><path class="b" d="M1596.9,4393.947c-.292.07-.429.547-.306,1.067s.462.885.754.815.43-.548.306-1.067S1597.192,4393.877,1596.9,4393.947Z"/><path class="a" d="M1523.334,4416.358a3.212,3.212,0,0,0-3.667-2.166,27.868,27.868,0,0,0-6.855,2.217c-2.237,1.085-.625,4.412,2.046,4.755S1524.92,4419.278,1523.334,4416.358Z"/><path class="f" d="M1524.7,4573.917c0,9.547-14.551,17.288-32.5,17.288s-32.5-7.741-32.5-17.288,14.551-17.288,32.5-17.288S1524.7,4564.369,1524.7,4573.917Z"/><path class="g" d="M1524.666,4572.393c0,9.542-14.543,17.278-32.482,17.278s-32.481-7.736-32.481-17.278,14.542-17.278,32.481-17.278S1524.666,4562.851,1524.666,4572.393Z"/><rect class="g" width="64.964" height="20.961" transform="translate(1459.703 4552.485)"/><path class="h" d="M1524.666,4553.2c0,9.543-14.543,17.279-32.482,17.279s-32.481-7.736-32.481-17.279,14.542-17.277,32.481-17.277S1524.666,4543.658,1524.666,4553.2Z"/><path class="i" d="M1521.837,4552.485c0,8.706-13.267,15.763-29.634,15.763s-29.633-7.057-29.633-15.763,13.267-15.763,29.633-15.763S1521.837,4543.779,1521.837,4552.485Z"/><path class="h" d="M1492.185,4543.135c11.178,0,20.344,4.559,21.315,10.37a6.187,6.187,0,0,0,.1-1.02c0-6.29-9.587-11.39-21.412-11.39s-21.413,5.1-21.413,11.39a6.187,6.187,0,0,0,.1,1.02C1471.84,4547.694,1481.006,4543.135,1492.185,4543.135Z"/><path class="j" d="M1492.185,4563.875c11.178,0,20.344-4.558,21.315-10.37-.971-5.811-10.137-10.37-21.315-10.37s-20.345,4.559-21.316,10.37C1471.84,4559.317,1481.006,4563.875,1492.185,4563.875Z"/><path class="f" d="M1492.2,4583.554c-17.311,0-31.419-7.209-32.387-16.289a9.063,9.063,0,0,0-.094.989c0,9.542,14.543,17.277,32.481,17.277s32.482-7.735,32.482-17.277a9.063,9.063,0,0,0-.094-.989C1523.623,4576.345,1509.515,4583.554,1492.2,4583.554Z"/><path class="f" d="M1492.2,4576.4c-17.311,0-31.419-7.21-32.387-16.29a9.072,9.072,0,0,0-.094.989c0,9.542,14.543,17.278,32.481,17.278s32.482-7.736,32.482-17.278a9.072,9.072,0,0,0-.094-.989C1523.623,4569.186,1509.515,4576.4,1492.2,4576.4Z"/><path class="b" d="M1507.672,4411.32c-1.7-.24-3.952-.485-6.882-.665-6.366-.389-20.682-1.645-20.682-1.645s-.207-8-.111-19.642a60.116,60.116,0,0,0-3.162-20.114c-7.047-.715-18.411,26.768-18.715,28.511a85.12,85.12,0,0,0,1.422,17.4c1.151,5.255,3.835,6.406,6.092,7.369,6.02,2.57,11.522,4.769,20.888,4.038,4.966-.387,15.05-2.634,20.382-5.06C1505.023,4417.8,1505.21,4414.668,1507.672,4411.32Z"/><path class="k" d="M1501.258,4531.585s2.851,3.1,6.66,6.813c3.524,3.437,4.616,4.425,7.887,7.617,1.91,1.865.336,3.579-3.3,3.438a65.334,65.334,0,0,1-14.5-3.137,73.711,73.711,0,0,1-10.857-5.66,7.191,7.191,0,0,1-3.222-4.075v-5.733Z"/><path class="k" d="M1442.282,4558.529s.66,5.875,1.066,13.256-.638,13.9-2.894,14.711-8.681.71-12.336-9.539a40.739,40.739,0,0,1-1.475-20.188Z"/><path class="c" d="M1461.682,4464.533a3.589,3.589,0,0,0,3.129-.434c2.764-2.455,6.219-3.8,8.926-6.371a54.835,54.835,0,0,0,8.765-11.428c-1.2-11.877-2.048-21.141-2.048-21.141s-36.159-6.8-35.236.285c0,0-12.7,11.155-10.246,32.087.685,5.843-1.48,16.186-2.932,27.711-.354,2.809,1.251,4.028,1.031,7.068-.243,3.355-3.636,3.924-2.113,8.187,1.857,5.2-.949,6.831-1.659,8.7-5.15,13.56-5.63,29.475-6.5,37.865-.434,4.194-.188,5.851-1.066,7.309-1.234,2.051-.609,4.112,4.907,6.39,7.8,3.223,17.628.1,17.628.1s3.047-2.535,1.062-5.084c-.716-.92,1.138-2.359,1.223-3.847.631-10.967,1.526-29.909,7.415-42.329C1457.116,4502.976,1461.682,4464.533,1461.682,4464.533Z"/><path class="c" d="M1503.164,4523.758c1.866-7.463,5.638-27.206,5.692-44.683.017-5.465-5.121-12.323-13.683-22.633-9.559-11.509-12.954-15.319-12.954-15.319s-24.495,23.344-22.516,23.377c1.585.027,18.073,13.521,24.269,19.513-.705,10.85-2.694,29.187-3.911,36.359-.652,3.842,1.207,3.372,1.3,4.6.265,3.415-2.259,4.416,0,6.547a28.08,28.08,0,0,0,12.467,3.543c8.493.033,9.894-5.651,9.894-5.651S1502.25,4527.412,1503.164,4523.758Z"/><path class="c" d="M1481.522,4436.056c-8.29,14.066-31.164,15.192-45.33,7.831,1.2-7.847,2.194-16.541,1.594-21.155-1.872-14.389-4.672-37.649-4.165-41.455.85-6.368,15.286-13.264,15.286-13.264s10.692-10.489,21.3-6.315c0,0,10.9,11.725,12.248,24.676.67,6.43-1.293,28.094-1.352,42.293C1481.1,4430.508,1481.266,4433.132,1481.522,4436.056Z"/><path class="l" d="M1465.708,4363.86l.684,9.977a26.744,26.744,0,0,1-4.683,4.824c-3.6-1.124-11.971-8.888-11.971-8.888l2.788-15.489Z"/><path class="a" d="M1450.981,4337.259c3.752-4.782,14.538-8.81,21.564,1.589,7.369,10.9.406,28.733-6.05,27.692-3.614-.583-11.752-3.876-15.318-9.7C1447.163,4350.287,1448.067,4340.974,1450.981,4337.259Z"/><path class="k" d="M1475.312,4342.5c-1.5,2.388-3.828,5.188-9.837,5.5a23.9,23.9,0,0,1-8.8-1.21l.422,6.568a5.691,5.691,0,0,1-1.8-.248c-.65-2.494-1.719-3.078-2.937-2.026-1.379,1.19-1.178,5.758-1.178,5.758a16.825,16.825,0,0,1-5.181-12.013c.014-4.685,4.109-14.835,12.693-15.9s14.7,3.423,16.793,8.008A6.049,6.049,0,0,1,1475.312,4342.5Z"/><path class="c" d="M1613.674,4370.945c.173.876-.113,1.67-.64,1.775s-1.094-.522-1.268-1.4.113-1.671.64-1.775S1613.5,4370.069,1613.674,4370.945Z"/><path class="b" d="M1437.587,4436.858l-.962,4.265s13.281,9.038,27.9,7.24,17.695-7.24,17.695-7.24l-.7-5.067s-10.884,7.245-20.489,7.811S1437.587,4436.858,1437.587,4436.858Z"/><path class="b" d="M1451.091,4362.255s-4.23,0-5.677,3a43.032,43.032,0,0,0-2.1,5.883,35.5,35.5,0,0,0,11.471,10.565,56.877,56.877,0,0,0,8.3,3.957l.752-8.922a22.19,22.19,0,0,1-10.329-5.6c-2.274-2.359-3.332-3.757-3.054-5.3C1450.935,4363.12,1451.091,4362.255,1451.091,4362.255Z"/><path class="b" d="M1471.681,4380.326l-7.851-3.592a37.965,37.965,0,0,0,1.466-10.447,4.366,4.366,0,0,0,2.688.3S1473.432,4373.855,1471.681,4380.326Z"/><path class="b" d="M1469.7,4424.333c-.262,14.741-1.319,24.267-2.842,30.15-.618,2.389-1.51,4.968-2.235,6.921,2.506-1.083,4.679-2.795,5.223-5.62a1.067,1.067,0,0,1,.071-.173,104.074,104.074,0,0,0,2.11-10.884c1.557-11.048,1.832-45.164.007-52.422s-6.6-16.851-6.6-16.851l-3.346,2.131s2.661,2.4,6.491,18.766C1470.153,4403.061,1469.892,4413.677,1469.7,4424.333Z"/><path class="b" d="M1449.738,4444.034s-5,9.838-9.882,11.668l-4.884,1.829.093,3.873s6.108.388,10.931-5.7a73.213,73.213,0,0,0,7.574-11.668Z"/><path class="b" d="M1464.591,4393.371l-9.842,3s1.874,6.09,6.284,5.024S1464.591,4393.371,1464.591,4393.371Z"/><path class="b" d="M1482.867,4386.4l-8.476,2.58s1.876,6.09,6.286,5.024a3.872,3.872,0,0,0,1.647-.853Q1482.7,4389.789,1482.867,4386.4Z"/><path class="a" d="M1436.192,4443.887a18.256,18.256,0,0,0,.959,6.613,26.731,26.731,0,0,0,2.7,5.2s-7.207-1.219-6.295,1.421c.965,2.794,9.917,4.555,11.625,3.258s3.483-5.9,3.288-9.958c-.129-2.69-6.274-11.321-6.274-11.321Z"/><path class="b" d="M1438.333,4375.454c-2.594-1.28-7,2.059-11.573,10.947s-10.05,24.228-10.659,29.405-.065,9.289,5.1,16.293c1.72,2.332,12.359,16.264,12.359,16.264s5.595-1.45,7.513-4.329,4.112-6.3,4.112-6.3l-11.625-21.927s10.4-11.979,9.873-23.5S1442.281,4377.4,1438.333,4375.454Z"/></g></svg>