<svg xmlns="http://www.w3.org/2000/svg" width="102.621" height="296.768" viewBox="0 0 102.621 296.768"><defs><style>.a{fill:#fff;}.b{fill:#ffbc1d;}.c{fill:#ffdf11;}.d{fill:#362a2d;}.e{fill:#579632;}.f{fill:#48792e;}.g{fill:#6db22f;}.h{fill:#f69a85;}.i{fill:#fab6a4;}.j{fill:#1c262b;}.k{fill:#f0a40d;}</style></defs><g transform="translate(-644.889 -4044.259)"><path class="a" d="M646.828,4151.047l-.6,3.426a20.23,20.23,0,0,0,6.769,2.328c4.8.643,6.77.186,6.77.186v-3.274A31.578,31.578,0,0,1,646.828,4151.047Z"/><path class="b" d="M681.425,4112.231a15.973,15.973,0,0,0-12.582,7.48,165.09,165.09,0,0,0-13.278,26.017c-1.523,4.406.3,26.581,3.045,32.091s10.577,6.976,18.536,0,11.791-55.158,13.225-56.039S681.425,4112.231,681.425,4112.231Z"/><path class="b" d="M673.263,4138.2a22.84,22.84,0,0,0-9.578-2.894c3.718,1.288,9.164,4.094,12.284,10,2.831,5.358,2.886,15.074,2.388,22.589,1.476-2.018,2.306-3.462,2.306-3.462S686.08,4145.06,673.263,4138.2Z"/><path class="c" d="M675.969,4145.3c-3.12-5.9-8.566-8.71-12.284-10-8.9-.467-14.952,6.107-17.463,13.574a24.536,24.536,0,0,0-1.309,7.737,36.123,36.123,0,0,0,.766,7.3,38.68,38.68,0,0,0,5.734,13.814c11.718,8.028,22.4-3.629,26.944-9.834C678.855,4160.377,678.8,4150.662,675.969,4145.3Z"/><path class="b" d="M644.889,4156s5.472,2.557,14.887,2.557c6.766,0,14.667-4.086,14.667-4.086s2.019,7.306-6.92,10.353-22.505-5.524-22.505-5.524Z"/><path class="d" d="M647.285,4169.554s8.583,5.011,16.071,2.285a17.3,17.3,0,0,0,11.087-13.356,50.623,50.623,0,0,1-14.363,3.883,25.187,25.187,0,0,1-15.062-3.064A47.011,47.011,0,0,0,647.285,4169.554Z"/><path class="d" d="M656.53,4182.518c-2.954-3.9,3.056-8.779,6.826-10.679s9.42,6.624,9.386,8.613C672.681,4184.043,661.755,4189.421,656.53,4182.518Z"/><path class="d" d="M707.724,4306.388c.678,2.308.082,9.568-1.013,14.545s-3.142,12.183.807,16.542,13.109,5.627,15.89-1.546,1.092-10.9,1.092-16.167a89.888,89.888,0,0,1,.635-10.177Z"/><path class="d" d="M668.091,4287.354s-9.4,4.416-13.358,6.547-6.091,7.766-2.893,11.725c2.74,3.392,11.58,2.741,15.688,0s7-4.263,9.618-6.514c1.015.586,7.233-.795,7.233-4.449,0-1.629-.333-6.344-1.78-8.984C678.761,4278.674,668.091,4287.354,668.091,4287.354Z"/><path class="e" d="M719.059,4268.2c-1.577-2.843-4.108-6.091-3.894-9.746s3.034-5.278,0-8.527-4.681-8.933-5.709-19.9c-.679-7.232-4.345-25.588-6.762-37.25L684.379,4195s2.963,15.75,4.48,19.738,8.552,41.724,9.881,46.272,5.052,34.826,5.052,42.637c0,10.158,10.478,13.936,15.352,13.1C719.277,4290.979,720.636,4271.039,719.059,4268.2Z"/><path class="b" d="M727.494,4301.82c-.071-4.526.76-37.164-1.921-39.562s-4.628-2.475-2.057-5.636.474-4.757-2.057-9.691.6-13.645.058-22.172S717.353,4191,717.353,4191l-14.659,1.78c2.417,11.662,6.083,30.018,6.762,37.25,1.028,10.964,2.675,16.649,5.709,19.9s.214,4.873,0,8.527,2.317,6.9,3.894,9.746.218,22.782.085,48.545C727.972,4315.22,727.567,4306.345,727.494,4301.82Z"/><path class="b" d="M667.527,4258.045c-.32-4.06-.491-7.715,3.607-10.963s-1.148-6.819-2.474-8.934,1.624-12.182,2.893-18.216c.843-4.008,3.032-22.983,4.408-35.282l-3.28-.607s-.125.622-.326,1.644c-1,5.087-4.023,21.058-4.606,30.695-.7,11.573-.527,11.167-1.76,15.392s-3.639,5.621,0,9.491-1.4,3.76-1.928,8.384.255,22.484-.84,30.676c-.475,3.547-.1,6.55,1.538,8.918a9.365,9.365,0,0,0,1.49,1.643A233.586,233.586,0,0,0,667.527,4258.045Z"/><path class="e" d="M683.389,4250.635c-.8-4.873-1.938-7.614,0-12.182s6.982-18.521,6.982-18.521l2.121,10.93c3.357-8.914,8.814-25.874,7.945-32.916l-1.106-8.973-23.37-4.323c-1.376,12.3-3.565,31.274-4.408,35.282-1.269,6.034-4.219,16.1-2.893,18.216s6.571,5.685,2.474,8.934-3.927,6.9-3.607,10.963a233.586,233.586,0,0,1-1.278,32.841,15.181,15.181,0,0,0,6.419,3.137c4.017,1.042,7.1.354,9.2-1.153C680.459,4283.028,684.192,4255.507,683.389,4250.635Z"/><path class="f" d="M684.971,4285.679c-.777-4.83,2.267-29.653,1.623-34.805s.652-8.591,3.777-14.836c.429-.858,1.2-2.732,2.121-5.176l-2.121-10.93s-5.043,13.953-6.982,18.521-.8,7.309,0,12.182-2.93,32.393-1.52,42.235A7.484,7.484,0,0,0,684.971,4285.679Z"/><path class="g" d="M682.662,4110.383s-4.68,6.462-5.516,11.4c-1.015,5.994-6.023,15.177-5.665,22.527.654,13.4,1.144,24.312-.1,26.721s-3.756,3.452-1.468,7.716,1.468,5.9,0,7.082c-4.752,3.811-.943,7.88-.943,7.88s24.405,9.886,29.656,9.886,21.382-7.145,21.382-7.145,1.233-4.734-.561-8.68c-2.03-4.467-1.487-5.053.267-8.945,1.039-2.306-2.068-43.965-3.858-50.351-3.012-10.749-22.188-17.557-22.188-17.557Z"/><path class="e" d="M681.768,4149.547c.831-4.873,7.312-21.935,7.312-21.935h-2.4s-8.653,15.844-8.044,26.2.667,15.837-1.494,20.1-2.47,5.482-1.249,9.137.707,4.568-.712,8.831a8.821,8.821,0,0,0-.438,4.21,20.63,20.63,0,0,1,3.205,1.084,9.147,9.147,0,0,1,.688-6.207c2.132-4.264,0-7,0-9.746s3.557-6.479,3.224-11.725C681.42,4162.488,680.937,4154.419,681.768,4149.547Z"/><path class="e" d="M683.278,4116.025c-.358-1.089-4.477,7.123-4.575,15.135-.041,3.428,2.291,14.568,2.291,14.568s8.763-11,15.227-16.225a94.611,94.611,0,0,1,13.234-8.851s-1.125-6-5.858-7.209S683.278,4116.025,683.278,4116.025Z"/><path class="h" d="M687.667,4121.471c0,1.858.563,6.141,0,8.868,2.7-1.848,5.2-2.879,7.336-4.813a73.176,73.176,0,0,0,6.4-6.455l-.869-5.851Z"/><path class="i" d="M698.217,4093.574c-4.748-3.616-15.993-4.776-20.1,6.844-4.3,12.185,6.722,27.4,12.6,24.818,3.291-1.448,10.21-6.592,12.157-13.007C705.068,4105.009,701.905,4096.384,698.217,4093.574Z"/><path class="j" d="M675.966,4104.211c-.6,1.277-1.578,2.333-2.053,3.287a21.755,21.755,0,0,0,11.573-.457c.229,1.963,4.721,5.258,7.614,4.721-.67-2.432-1.073-3.005-1.295-5.1,2.17,2.741,6.271,4.106,7,3.657.1-2.555,1.012-3.349,2.416-2.588,1.588.86,1.654,4.5,1.654,4.5s5.131-5.444,3.512-12.725c-.8-3.6-3.382-8.773-8.878-10.782.6-1.014-.3-2.847-.3-2.847a6.6,6.6,0,0,0-2.678,2.112,5.222,5.222,0,0,0-4.555-2.112c-8.581,0-12.029,4.188-14.542,11.192a23.418,23.418,0,0,1-3.883,6.7A15.456,15.456,0,0,0,675.966,4104.211Z"/><path class="b" d="M729.975,4072.469s-9.428,22.56-11.407,26.111-1.642,7.04-1.25,10.9-2.97,3.115-3.344,4.982-.374,8.418-1.121,10-5.5,2.33-7.046,11.671.9,26.259,10.4,23.844c6.233-1.582,11.705-18.612,15.009-23.844s2.2-17.683,4.432-18.93,5.977-20.951,6.719-23.618c1.783-6.4,0-16.487,0-16.487Z"/><path class="k" d="M719.323,4117.2s-1.118,4.182,1.25,7.259S724.672,4123.308,719.323,4117.2Z"/><path class="k" d="M731.783,4111.494s-6.238.921-6.979,4S730.909,4117.869,731.783,4111.494Z"/><path class="g" d="M735.8,4049.66c-.968,1.745-2.141,6.266-2.678,8.975-.913-1.017-2.377-2.48-2.955-3.23-1.51-1.957-4.014-.66-3.024,1.024,2.429,4.131,4.076,12.31,4.076,12.31a12.349,12.349,0,0,0,5.214,7.328c3.43,2.314,7.72-3.142,7.72-3.142a82.592,82.592,0,0,0,3.355-21.8C747.51,4039.972,738.6,4044.609,735.8,4049.66Z"/><path class="k" d="M731.221,4068.739l-2.506,6.731a13.8,13.8,0,0,0,6.938,4.825,19.809,19.809,0,0,0,6.9,1.007l1.6-8.377S736.435,4072.469,731.221,4068.739Z"/><path class="a" d="M690.371,4148.992v3.654l11.645,1.827v-3.829Z"/></g></svg>