<svg xmlns="http://www.w3.org/2000/svg" width="439.006" height="450.447" viewBox="0 0 439.006 450.447"><defs><style>.a{fill:#443742;}.b{fill:#342932;}.c{fill:#50444e;}.d{fill:#271f27;}.e{fill:#e7121d;}.f{fill:#e82f37;}.g{fill:#eb494f;}.h{fill:#aa0b1b;}.i{fill:#d0001b;}.j{fill:#dfdfde;}.k{fill:#e95515;}.l{fill:#f26511;}.m{fill:#c1c1c0;}.n{fill:#f1f1f2;}</style></defs><g transform="translate(-203.538 -4128.375)"><path class="a" d="M355.752,4343.612c0,6.784-10.34,12.284-23.094,12.284s-23.093-5.5-23.093-12.284,10.339-12.284,23.093-12.284S355.752,4336.827,355.752,4343.612Z"/><path class="b" d="M355.725,4342.529c0,6.781-10.333,12.277-23.08,12.277s-23.08-5.5-23.08-12.277,10.333-12.277,23.08-12.277S355.725,4335.749,355.725,4342.529Z"/><rect class="b" width="46.161" height="14.894" transform="translate(309.565 4328.383)"/><path class="a" d="M355.725,4328.892c0,6.78-10.333,12.277-23.08,12.277s-23.08-5.5-23.08-12.277,10.333-12.277,23.08-12.277S355.725,4322.112,355.725,4328.892Z"/><path class="c" d="M353.715,4328.384c0,6.186-9.427,11.2-21.057,11.2s-21.056-5.014-21.056-11.2,9.427-11.2,21.056-11.2S353.715,4322.2,353.715,4328.384Z"/><path class="a" d="M332.645,4321.74c7.943,0,14.456,3.239,15.146,7.368a4.38,4.38,0,0,0,.069-.724c0-4.47-6.812-8.094-15.215-8.094s-15.215,3.624-15.215,8.094a4.383,4.383,0,0,0,.069.724C318.189,4324.979,324.7,4321.74,332.645,4321.74Z"/><path class="d" d="M332.645,4336.477c7.943,0,14.456-3.239,15.146-7.369-.69-4.129-7.2-7.368-15.146-7.368s-14.456,3.239-15.146,7.368C318.189,4333.238,324.7,4336.477,332.645,4336.477Z"/><path class="a" d="M332.658,4350.46c-12.3,0-22.325-5.123-23.013-11.575a6.626,6.626,0,0,0-.067.7c0,6.781,10.334,12.277,23.08,12.277s23.081-5.5,23.081-12.277a6.627,6.627,0,0,0-.067-.7C354.984,4345.337,344.959,4350.46,332.658,4350.46Z"/><path class="a" d="M332.658,4345.374c-12.3,0-22.325-5.123-23.013-11.575a6.608,6.608,0,0,0-.067.7c0,6.781,10.334,12.277,23.08,12.277s23.081-5.5,23.081-12.277a6.608,6.608,0,0,0-.067-.7C354.984,4340.251,344.959,4345.374,332.658,4345.374Z"/><path class="a" d="M355.752,4325.061c0,6.785-10.34,12.284-23.094,12.284s-23.093-5.5-23.093-12.284,10.339-12.284,23.093-12.284S355.752,4318.277,355.752,4325.061Z"/><path class="e" d="M355.725,4323.978c0,6.781-10.333,12.277-23.08,12.277s-23.08-5.5-23.08-12.277,10.333-12.277,23.08-12.277S355.725,4317.2,355.725,4323.978Z"/><rect class="e" width="46.161" height="14.894" transform="translate(309.565 4309.833)"/><path class="f" d="M355.725,4310.341c0,6.781-10.333,12.277-23.08,12.277s-23.08-5.5-23.08-12.277,10.333-12.277,23.08-12.277S355.725,4303.561,355.725,4310.341Z"/><path class="g" d="M353.715,4309.833c0,6.186-9.427,11.2-21.057,11.2s-21.056-5.014-21.056-11.2,9.427-11.2,21.056-11.2S353.715,4303.647,353.715,4309.833Z"/><path class="f" d="M332.645,4303.189c7.943,0,14.456,3.239,15.146,7.369a4.407,4.407,0,0,0,.069-.725c0-4.47-6.812-8.094-15.215-8.094s-15.215,3.624-15.215,8.094a4.41,4.41,0,0,0,.069.725C318.189,4306.428,324.7,4303.189,332.645,4303.189Z"/><path class="h" d="M332.645,4317.926c7.943,0,14.456-3.239,15.146-7.368-.69-4.13-7.2-7.369-15.146-7.369s-14.456,3.239-15.146,7.369C318.189,4314.687,324.7,4317.926,332.645,4317.926Z"/><path class="i" d="M332.658,4331.909c-12.3,0-22.325-5.123-23.013-11.574a6.56,6.56,0,0,0-.067.7c0,6.781,10.334,12.277,23.08,12.277s23.081-5.5,23.081-12.277a6.56,6.56,0,0,0-.067-.7C354.984,4326.786,344.959,4331.909,332.658,4331.909Z"/><path class="i" d="M332.658,4326.823c-12.3,0-22.325-5.123-23.013-11.575a6.584,6.584,0,0,0-.067.7c0,6.781,10.334,12.278,23.08,12.278s23.081-5.5,23.081-12.278a6.584,6.584,0,0,0-.067-.7C354.984,4321.7,344.959,4326.823,332.658,4326.823Z"/><path class="a" d="M320.467,4363.467c0,6.784-10.34,12.284-23.094,12.284s-23.094-5.5-23.094-12.284,10.34-12.284,23.094-12.284S320.467,4356.682,320.467,4363.467Z"/><path class="b" d="M320.44,4362.384c0,6.781-10.334,12.277-23.081,12.277s-23.08-5.5-23.08-12.277,10.333-12.277,23.08-12.277S320.44,4355.6,320.44,4362.384Z"/><rect class="b" width="46.161" height="14.894" transform="translate(274.279 4348.238)"/><path class="a" d="M320.44,4348.747c0,6.78-10.334,12.277-23.081,12.277s-23.08-5.5-23.08-12.277,10.333-12.277,23.08-12.277S320.44,4341.967,320.44,4348.747Z"/><path class="c" d="M318.43,4348.238c0,6.186-9.428,11.2-21.057,11.2s-21.057-5.015-21.057-11.2,9.428-11.2,21.057-11.2S318.43,4342.053,318.43,4348.238Z"/><path class="a" d="M297.36,4341.6c7.942,0,14.455,3.239,15.145,7.368a4.382,4.382,0,0,0,.069-.725c0-4.469-6.812-8.093-15.214-8.093s-15.216,3.624-15.216,8.093a4.382,4.382,0,0,0,.069.725C282.9,4344.834,289.416,4341.6,297.36,4341.6Z"/><path class="d" d="M297.36,4356.332c7.942,0,14.455-3.239,15.145-7.369-.69-4.129-7.2-7.368-15.145-7.368s-14.456,3.239-15.147,7.368C282.9,4353.093,289.416,4356.332,297.36,4356.332Z"/><path class="a" d="M297.373,4370.315c-12.3,0-22.326-5.123-23.014-11.575a6.605,6.605,0,0,0-.067.7c0,6.78,10.334,12.277,23.081,12.277s23.08-5.5,23.08-12.277a6.6,6.6,0,0,0-.066-.7C319.7,4365.192,309.674,4370.315,297.373,4370.315Z"/><path class="a" d="M297.373,4365.228c-12.3,0-22.326-5.123-23.014-11.574a6.584,6.584,0,0,0-.067.7c0,6.781,10.334,12.277,23.081,12.277s23.08-5.5,23.08-12.277a6.583,6.583,0,0,0-.066-.7C319.7,4360.1,309.674,4365.228,297.373,4365.228Z"/><path class="a" d="M320.467,4344.916c0,6.784-10.34,12.284-23.094,12.284s-23.094-5.5-23.094-12.284,10.34-12.284,23.094-12.284S320.467,4338.132,320.467,4344.916Z"/><path class="e" d="M320.44,4343.833c0,6.781-10.334,12.277-23.081,12.277s-23.08-5.5-23.08-12.277,10.333-12.277,23.08-12.277S320.44,4337.053,320.44,4343.833Z"/><rect class="e" width="46.161" height="14.894" transform="translate(274.279 4329.688)"/><path class="f" d="M320.44,4330.2c0,6.78-10.334,12.277-23.081,12.277s-23.08-5.5-23.08-12.277,10.333-12.277,23.08-12.277S320.44,4323.416,320.44,4330.2Z"/><path class="g" d="M318.43,4329.687c0,6.187-9.428,11.2-21.057,11.2s-21.057-5.014-21.057-11.2,9.428-11.2,21.057-11.2S318.43,4323.5,318.43,4329.687Z"/><path class="f" d="M297.36,4323.044c7.942,0,14.455,3.239,15.145,7.368a4.387,4.387,0,0,0,.069-.725c0-4.469-6.812-8.093-15.214-8.093s-15.216,3.624-15.216,8.093a4.387,4.387,0,0,0,.069.725C282.9,4326.283,289.416,4323.044,297.36,4323.044Z"/><path class="h" d="M297.36,4337.781c7.942,0,14.455-3.239,15.145-7.369-.69-4.129-7.2-7.368-15.145-7.368s-14.456,3.239-15.147,7.368C282.9,4334.542,289.416,4337.781,297.36,4337.781Z"/><path class="i" d="M297.373,4351.764c-12.3,0-22.326-5.123-23.014-11.574a6.56,6.56,0,0,0-.067.7c0,6.78,10.334,12.277,23.081,12.277s23.08-5.5,23.08-12.277a6.559,6.559,0,0,0-.066-.7C319.7,4346.641,309.674,4351.764,297.373,4351.764Z"/><path class="i" d="M297.373,4346.677c-12.3,0-22.326-5.123-23.014-11.574a6.584,6.584,0,0,0-.067.7c0,6.781,10.334,12.277,23.081,12.277s23.08-5.5,23.08-12.277a6.583,6.583,0,0,0-.066-.7C319.7,4341.554,309.674,4346.677,297.373,4346.677Z"/><path class="a" d="M285.011,4383.572c0,6.785-10.34,12.285-23.094,12.285s-23.094-5.5-23.094-12.285,10.34-12.284,23.094-12.284S285.011,4376.788,285.011,4383.572Z"/><path class="b" d="M284.984,4382.49c0,6.78-10.333,12.277-23.08,12.277s-23.081-5.5-23.081-12.277,10.334-12.277,23.081-12.277S284.984,4375.709,284.984,4382.49Z"/><rect class="b" width="46.161" height="14.894" transform="translate(238.823 4368.344)"/><path class="a" d="M284.984,4368.852c0,6.781-10.333,12.277-23.08,12.277s-23.081-5.5-23.081-12.277,10.334-12.277,23.081-12.277S284.984,4362.072,284.984,4368.852Z"/><path class="c" d="M282.974,4368.344c0,6.186-9.428,11.2-21.057,11.2s-21.057-5.015-21.057-11.2,9.428-11.2,21.057-11.2S282.974,4362.158,282.974,4368.344Z"/><path class="a" d="M261.9,4361.7c7.943,0,14.455,3.239,15.146,7.368a4.381,4.381,0,0,0,.069-.725c0-4.47-6.812-8.093-15.215-8.093s-15.215,3.623-15.215,8.093a4.382,4.382,0,0,0,.069.725C247.448,4364.94,253.961,4361.7,261.9,4361.7Z"/><path class="d" d="M261.9,4376.437c7.943,0,14.455-3.239,15.146-7.368-.691-4.129-7.2-7.368-15.146-7.368s-14.456,3.239-15.146,7.368C247.448,4373.2,253.961,4376.437,261.9,4376.437Z"/><path class="a" d="M261.917,4390.421c-12.3,0-22.325-5.123-23.013-11.575a6.335,6.335,0,0,0-.067.7c0,6.781,10.333,12.278,23.08,12.278s23.081-5.5,23.081-12.278a6.587,6.587,0,0,0-.067-.7C284.243,4385.3,274.218,4390.421,261.917,4390.421Z"/><path class="a" d="M261.917,4385.334c-12.3,0-22.325-5.123-23.013-11.575a6.372,6.372,0,0,0-.067.7c0,6.78,10.333,12.277,23.08,12.277s23.081-5.5,23.081-12.277a6.626,6.626,0,0,0-.067-.7C284.243,4380.211,274.218,4385.334,261.917,4385.334Z"/><path class="a" d="M285.011,4365.022c0,6.784-10.34,12.284-23.094,12.284s-23.094-5.5-23.094-12.284,10.34-12.285,23.094-12.285S285.011,4358.237,285.011,4365.022Z"/><path class="e" d="M284.984,4363.939c0,6.78-10.333,12.277-23.08,12.277s-23.081-5.5-23.081-12.277,10.334-12.277,23.081-12.277S284.984,4357.159,284.984,4363.939Z"/><rect class="e" width="46.161" height="14.894" transform="translate(238.823 4349.793)"/><path class="f" d="M284.984,4350.3c0,6.78-10.333,12.277-23.08,12.277s-23.081-5.5-23.081-12.277,10.334-12.278,23.081-12.278S284.984,4343.521,284.984,4350.3Z"/><path class="g" d="M282.974,4349.793c0,6.186-9.428,11.2-21.057,11.2s-21.057-5.015-21.057-11.2,9.428-11.2,21.057-11.2S282.974,4343.607,282.974,4349.793Z"/><path class="f" d="M261.9,4343.15c7.943,0,14.455,3.239,15.146,7.368a4.387,4.387,0,0,0,.069-.725c0-4.469-6.812-8.093-15.215-8.093s-15.215,3.624-15.215,8.093a4.388,4.388,0,0,0,.069.725C247.448,4346.389,253.961,4343.15,261.9,4343.15Z"/><path class="h" d="M261.9,4357.886c7.943,0,14.455-3.238,15.146-7.368-.691-4.129-7.2-7.368-15.146-7.368s-14.456,3.239-15.146,7.368C247.448,4354.648,253.961,4357.886,261.9,4357.886Z"/><path class="i" d="M261.917,4371.87c-12.3,0-22.325-5.123-23.013-11.575a6.328,6.328,0,0,0-.067.7c0,6.78,10.333,12.277,23.08,12.277S285,4367.778,285,4361a6.578,6.578,0,0,0-.067-.7C284.243,4366.747,274.218,4371.87,261.917,4371.87Z"/><path class="i" d="M261.917,4366.783c-12.3,0-22.325-5.123-23.013-11.575a6.35,6.35,0,0,0-.067.7c0,6.78,10.333,12.277,23.08,12.277s23.081-5.5,23.081-12.277a6.6,6.6,0,0,0-.067-.7C284.243,4361.66,274.218,4366.783,261.917,4366.783Z"/><path class="a" d="M249.726,4403.427c0,6.785-10.34,12.284-23.094,12.284s-23.094-5.5-23.094-12.284,10.339-12.284,23.094-12.284S249.726,4396.643,249.726,4403.427Z"/><path class="b" d="M249.7,4402.345c0,6.78-10.334,12.277-23.081,12.277s-23.08-5.5-23.08-12.277,10.333-12.278,23.08-12.278S249.7,4395.564,249.7,4402.345Z"/><rect class="b" width="46.161" height="14.894" transform="translate(203.538 4388.199)"/><path class="a" d="M249.7,4388.707c0,6.781-10.334,12.277-23.081,12.277s-23.08-5.5-23.08-12.277,10.333-12.277,23.08-12.277S249.7,4381.927,249.7,4388.707Z"/><path class="c" d="M247.689,4388.2c0,6.186-9.428,11.2-21.057,11.2s-21.057-5.015-21.057-11.2S215,4377,226.632,4377,247.689,4382.013,247.689,4388.2Z"/><path class="a" d="M226.618,4381.556c7.943,0,14.456,3.238,15.146,7.368a4.382,4.382,0,0,0,.069-.725c0-4.47-6.812-8.093-15.215-8.093s-15.215,3.623-15.215,8.093a4.382,4.382,0,0,0,.069.725C212.162,4384.794,218.675,4381.556,226.618,4381.556Z"/><path class="d" d="M226.618,4396.292c7.943,0,14.456-3.239,15.146-7.368-.69-4.13-7.2-7.368-15.146-7.368s-14.456,3.238-15.146,7.368C212.162,4393.053,218.675,4396.292,226.618,4396.292Z"/><path class="a" d="M226.632,4410.276c-12.3,0-22.326-5.123-23.014-11.575a6.587,6.587,0,0,0-.067.7c0,6.781,10.334,12.278,23.081,12.278s23.08-5.5,23.08-12.278a6.335,6.335,0,0,0-.067-.7C248.957,4405.153,238.933,4410.276,226.632,4410.276Z"/><path class="a" d="M226.632,4405.189c-12.3,0-22.326-5.123-23.014-11.575a6.6,6.6,0,0,0-.067.7c0,6.78,10.334,12.277,23.081,12.277s23.08-5.5,23.08-12.277a6.35,6.35,0,0,0-.067-.7C248.957,4400.066,238.933,4405.189,226.632,4405.189Z"/><path class="a" d="M249.726,4384.877c0,6.784-10.34,12.284-23.094,12.284s-23.094-5.5-23.094-12.284,10.339-12.285,23.094-12.285S249.726,4378.092,249.726,4384.877Z"/><path class="e" d="M249.7,4383.794c0,6.78-10.334,12.277-23.081,12.277s-23.08-5.5-23.08-12.277,10.333-12.277,23.08-12.277S249.7,4377.013,249.7,4383.794Z"/><rect class="e" width="46.161" height="14.894" transform="translate(203.538 4369.648)"/><path class="f" d="M249.7,4370.156c0,6.781-10.334,12.278-23.081,12.278s-23.08-5.5-23.08-12.278,10.333-12.277,23.08-12.277S249.7,4363.376,249.7,4370.156Z"/><path class="g" d="M247.689,4369.648c0,6.186-9.428,11.2-21.057,11.2s-21.057-5.015-21.057-11.2,9.428-11.2,21.057-11.2S247.689,4363.462,247.689,4369.648Z"/><path class="f" d="M226.618,4363c7.943,0,14.456,3.238,15.146,7.368a4.388,4.388,0,0,0,.069-.725c0-4.47-6.812-8.093-15.215-8.093s-15.215,3.623-15.215,8.093a4.388,4.388,0,0,0,.069.725C212.162,4366.243,218.675,4363,226.618,4363Z"/><path class="h" d="M226.618,4377.741c7.943,0,14.456-3.238,15.146-7.368-.69-4.13-7.2-7.368-15.146-7.368s-14.456,3.238-15.146,7.368C212.162,4374.5,218.675,4377.741,226.618,4377.741Z"/><path class="i" d="M226.632,4391.725c-12.3,0-22.326-5.123-23.014-11.575a6.59,6.59,0,0,0-.067.7c0,6.78,10.334,12.277,23.081,12.277s23.08-5.5,23.08-12.277a6.339,6.339,0,0,0-.067-.7C248.957,4386.6,238.933,4391.725,226.632,4391.725Z"/><path class="i" d="M226.632,4386.638c-12.3,0-22.326-5.123-23.014-11.575a6.578,6.578,0,0,0-.067.7c0,6.78,10.334,12.277,23.081,12.277s23.08-5.5,23.08-12.277a6.328,6.328,0,0,0-.067-.7C248.957,4381.515,238.933,4386.638,226.632,4386.638Z"/><path class="a" d="M642.544,4506.722c0,6.785-10.34,12.285-23.094,12.285s-23.094-5.5-23.094-12.285,10.34-12.284,23.094-12.284S642.544,4499.938,642.544,4506.722Z"/><path class="b" d="M642.517,4505.64c0,6.78-10.334,12.277-23.08,12.277s-23.081-5.5-23.081-12.277,10.334-12.277,23.081-12.277S642.517,4498.86,642.517,4505.64Z"/><rect class="b" width="46.161" height="14.894" transform="translate(596.356 4491.494)"/><path class="a" d="M642.517,4492c0,6.781-10.334,12.278-23.08,12.278s-23.081-5.5-23.081-12.278,10.334-12.276,23.081-12.276S642.517,4485.222,642.517,4492Z"/><path class="c" d="M640.507,4491.494c0,6.186-9.427,11.2-21.057,11.2s-21.057-5.015-21.057-11.2,9.428-11.2,21.057-11.2S640.507,4485.308,640.507,4491.494Z"/><path class="a" d="M619.437,4484.851c7.943,0,14.456,3.239,15.146,7.368a4.395,4.395,0,0,0,.069-.725c0-4.47-6.812-8.093-15.215-8.093s-15.215,3.623-15.215,8.093a4.388,4.388,0,0,0,.069.725C604.981,4488.09,611.494,4484.851,619.437,4484.851Z"/><path class="d" d="M619.437,4499.588c7.943,0,14.456-3.24,15.146-7.369-.69-4.129-7.2-7.368-15.146-7.368s-14.456,3.239-15.146,7.368C604.981,4496.348,611.494,4499.588,619.437,4499.588Z"/><path class="a" d="M619.45,4513.571c-12.3,0-22.325-5.123-23.013-11.575a6.35,6.35,0,0,0-.067.7c0,6.78,10.333,12.277,23.08,12.277s23.081-5.5,23.081-12.277a6.594,6.594,0,0,0-.067-.7C641.776,4508.448,631.751,4513.571,619.45,4513.571Z"/><path class="a" d="M619.45,4508.484c-12.3,0-22.325-5.123-23.013-11.574a6.313,6.313,0,0,0-.067.7c0,6.78,10.333,12.277,23.08,12.277s23.081-5.5,23.081-12.277a6.555,6.555,0,0,0-.067-.7C641.776,4503.361,631.751,4508.484,619.45,4508.484Z"/><path class="a" d="M642.544,4488.172c0,6.784-10.34,12.284-23.094,12.284s-23.094-5.5-23.094-12.284,10.34-12.284,23.094-12.284S642.544,4481.387,642.544,4488.172Z"/><path class="e" d="M642.517,4487.089c0,6.781-10.334,12.277-23.08,12.277s-23.081-5.5-23.081-12.277,10.334-12.277,23.081-12.277S642.517,4480.309,642.517,4487.089Z"/><rect class="e" width="46.161" height="14.894" transform="translate(596.356 4472.943)"/><path class="f" d="M642.517,4473.452c0,6.78-10.334,12.277-23.08,12.277s-23.081-5.5-23.081-12.277,10.334-12.277,23.081-12.277S642.517,4466.671,642.517,4473.452Z"/><path class="g" d="M640.507,4472.943c0,6.186-9.427,11.2-21.057,11.2s-21.057-5.015-21.057-11.2,9.428-11.2,21.057-11.2S640.507,4466.758,640.507,4472.943Z"/><path class="f" d="M619.437,4466.3c7.943,0,14.456,3.239,15.146,7.368a4.385,4.385,0,0,0,.069-.725c0-4.469-6.812-8.093-15.215-8.093s-15.215,3.624-15.215,8.093a4.378,4.378,0,0,0,.069.725C604.981,4469.539,611.494,4466.3,619.437,4466.3Z"/><path class="h" d="M619.437,4481.037c7.943,0,14.456-3.239,15.146-7.369-.69-4.129-7.2-7.368-15.146-7.368s-14.456,3.239-15.146,7.368C604.981,4477.8,611.494,4481.037,619.437,4481.037Z"/><path class="i" d="M619.45,4495.02c-12.3,0-22.325-5.123-23.013-11.575a6.373,6.373,0,0,0-.067.7c0,6.78,10.333,12.277,23.08,12.277s23.081-5.5,23.081-12.277a6.619,6.619,0,0,0-.067-.7C641.776,4489.9,631.751,4495.02,619.45,4495.02Z"/><path class="i" d="M619.45,4489.933c-12.3,0-22.325-5.123-23.013-11.574a6.321,6.321,0,0,0-.067.7c0,6.781,10.333,12.277,23.08,12.277s23.081-5.5,23.081-12.277a6.564,6.564,0,0,0-.067-.7C641.776,4484.81,631.751,4489.933,619.45,4489.933Z"/><path class="a" d="M607.259,4526.577c0,6.785-10.34,12.285-23.094,12.285s-23.094-5.5-23.094-12.285,10.339-12.284,23.094-12.284S607.259,4519.793,607.259,4526.577Z"/><path class="b" d="M607.232,4525.5c0,6.78-10.334,12.277-23.081,12.277s-23.08-5.5-23.08-12.277,10.333-12.277,23.08-12.277S607.232,4518.715,607.232,4525.5Z"/><rect class="b" width="46.161" height="14.894" transform="translate(561.071 4511.349)"/><path class="a" d="M607.232,4511.857c0,6.781-10.334,12.277-23.081,12.277s-23.08-5.5-23.08-12.277,10.333-12.277,23.08-12.277S607.232,4505.077,607.232,4511.857Z"/><path class="c" d="M605.222,4511.349c0,6.186-9.428,11.2-21.057,11.2s-21.057-5.015-21.057-11.2,9.428-11.2,21.057-11.2S605.222,4505.163,605.222,4511.349Z"/><path class="a" d="M584.151,4504.706c7.943,0,14.456,3.239,15.146,7.368a4.39,4.39,0,0,0,.069-.725c0-4.47-6.812-8.093-15.215-8.093s-15.215,3.623-15.215,8.093a4.39,4.39,0,0,0,.069.725C569.7,4507.945,576.208,4504.706,584.151,4504.706Z"/><path class="d" d="M584.151,4519.443c7.943,0,14.456-3.24,15.146-7.369-.69-4.129-7.2-7.368-15.146-7.368s-14.456,3.239-15.146,7.368C569.7,4516.2,576.208,4519.443,584.151,4519.443Z"/><path class="a" d="M584.165,4533.426c-12.3,0-22.326-5.123-23.014-11.575a6.576,6.576,0,0,0-.067.7c0,6.781,10.334,12.278,23.081,12.278s23.08-5.5,23.08-12.278a6.591,6.591,0,0,0-.066-.7C606.49,4528.3,596.466,4533.426,584.165,4533.426Z"/><path class="a" d="M584.165,4528.339c-12.3,0-22.326-5.123-23.014-11.575a6.6,6.6,0,0,0-.067.7c0,6.78,10.334,12.277,23.081,12.277s23.08-5.5,23.08-12.277a6.612,6.612,0,0,0-.066-.7C606.49,4523.216,596.466,4528.339,584.165,4528.339Z"/><path class="a" d="M607.259,4508.027c0,6.784-10.34,12.284-23.094,12.284s-23.094-5.5-23.094-12.284,10.339-12.285,23.094-12.285S607.259,4501.242,607.259,4508.027Z"/><path class="e" d="M607.232,4506.944c0,6.78-10.334,12.277-23.081,12.277s-23.08-5.5-23.08-12.277,10.333-12.277,23.08-12.277S607.232,4500.164,607.232,4506.944Z"/><rect class="e" width="46.161" height="14.894" transform="translate(561.071 4492.798)"/><path class="f" d="M607.232,4493.306c0,6.781-10.334,12.278-23.081,12.278s-23.08-5.5-23.08-12.278,10.333-12.276,23.08-12.276S607.232,4486.526,607.232,4493.306Z"/><path class="g" d="M605.222,4492.8c0,6.186-9.428,11.2-21.057,11.2s-21.057-5.015-21.057-11.2,9.428-11.2,21.057-11.2S605.222,4486.612,605.222,4492.8Z"/><path class="f" d="M584.151,4486.155c7.943,0,14.456,3.239,15.146,7.368a4.385,4.385,0,0,0,.069-.725c0-4.47-6.812-8.093-15.215-8.093s-15.215,3.623-15.215,8.093a4.385,4.385,0,0,0,.069.725C569.7,4489.394,576.208,4486.155,584.151,4486.155Z"/><path class="h" d="M584.151,4500.892c7.943,0,14.456-3.239,15.146-7.369-.69-4.129-7.2-7.368-15.146-7.368s-14.456,3.239-15.146,7.368C569.7,4497.653,576.208,4500.892,584.151,4500.892Z"/><path class="i" d="M584.165,4514.875c-12.3,0-22.326-5.123-23.014-11.575a6.594,6.594,0,0,0-.067.7c0,6.78,10.334,12.277,23.081,12.277s23.08-5.5,23.08-12.277a6.609,6.609,0,0,0-.066-.7C606.49,4509.752,596.466,4514.875,584.165,4514.875Z"/><path class="i" d="M584.165,4509.788c-12.3,0-22.326-5.123-23.014-11.575a6.606,6.606,0,0,0-.067.7c0,6.78,10.334,12.277,23.081,12.277s23.08-5.5,23.08-12.277a6.621,6.621,0,0,0-.066-.7C606.49,4504.665,596.466,4509.788,584.165,4509.788Z"/><path class="a" d="M571.8,4546.683c0,6.785-10.34,12.284-23.094,12.284s-23.094-5.5-23.094-12.284,10.34-12.284,23.094-12.284S571.8,4539.9,571.8,4546.683Z"/><path class="b" d="M571.776,4545.6c0,6.78-10.334,12.277-23.081,12.277s-23.08-5.5-23.08-12.277,10.334-12.278,23.08-12.278S571.776,4538.82,571.776,4545.6Z"/><rect class="b" width="46.161" height="14.894" transform="translate(525.615 4531.455)"/><path class="a" d="M571.776,4531.963c0,6.78-10.334,12.277-23.081,12.277s-23.08-5.5-23.08-12.277,10.334-12.277,23.08-12.277S571.776,4525.183,571.776,4531.963Z"/><path class="c" d="M569.766,4531.455c0,6.186-9.428,11.2-21.057,11.2s-21.057-5.014-21.057-11.2,9.428-11.2,21.057-11.2S569.766,4525.269,569.766,4531.455Z"/><path class="a" d="M548.7,4524.811c7.943,0,14.455,3.239,15.146,7.369a4.4,4.4,0,0,0,.069-.725c0-4.47-6.813-8.094-15.215-8.094s-15.215,3.624-15.215,8.094a4.41,4.41,0,0,0,.069.725C534.24,4528.05,540.753,4524.811,548.7,4524.811Z"/><path class="d" d="M548.7,4539.548c7.943,0,14.455-3.239,15.146-7.368-.691-4.13-7.2-7.369-15.146-7.369s-14.456,3.239-15.146,7.369C534.24,4536.309,540.753,4539.548,548.7,4539.548Z"/><path class="a" d="M548.709,4553.531c-12.3,0-22.326-5.123-23.014-11.574a6.575,6.575,0,0,0-.066.7c0,6.781,10.333,12.277,23.08,12.277s23.081-5.5,23.081-12.277a6.592,6.592,0,0,0-.067-.7C571.035,4548.408,561.01,4553.531,548.709,4553.531Z"/><path class="a" d="M548.709,4548.445c-12.3,0-22.326-5.123-23.014-11.575a6.577,6.577,0,0,0-.066.7c0,6.781,10.333,12.278,23.08,12.278s23.081-5.5,23.081-12.278a6.6,6.6,0,0,0-.067-.7C571.035,4543.322,561.01,4548.445,548.709,4548.445Z"/><path class="a" d="M571.8,4528.132c0,6.785-10.34,12.284-23.094,12.284s-23.094-5.5-23.094-12.284,10.34-12.284,23.094-12.284S571.8,4521.348,571.8,4528.132Z"/><path class="e" d="M571.776,4527.05c0,6.78-10.334,12.277-23.081,12.277s-23.08-5.5-23.08-12.277,10.334-12.278,23.08-12.278S571.776,4520.269,571.776,4527.05Z"/><rect class="e" width="46.161" height="14.894" transform="translate(525.615 4512.904)"/><path class="f" d="M571.776,4513.412c0,6.781-10.334,12.277-23.081,12.277s-23.08-5.5-23.08-12.277,10.334-12.277,23.08-12.277S571.776,4506.632,571.776,4513.412Z"/><path class="g" d="M569.766,4512.9c0,6.186-9.428,11.2-21.057,11.2s-21.057-5.015-21.057-11.2,9.428-11.2,21.057-11.2S569.766,4506.718,569.766,4512.9Z"/><path class="f" d="M548.7,4506.26c7.943,0,14.455,3.239,15.146,7.369a4.378,4.378,0,0,0,.069-.725c0-4.47-6.813-8.093-15.215-8.093s-15.215,3.623-15.215,8.093a4.385,4.385,0,0,0,.069.725C534.24,4509.5,540.753,4506.26,548.7,4506.26Z"/><path class="h" d="M548.7,4521c7.943,0,14.455-3.239,15.146-7.368-.691-4.13-7.2-7.369-15.146-7.369s-14.456,3.239-15.146,7.369C534.24,4517.758,540.753,4521,548.7,4521Z"/><path class="i" d="M548.709,4534.98c-12.3,0-22.326-5.123-23.014-11.574a6.6,6.6,0,0,0-.066.7c0,6.781,10.333,12.278,23.08,12.278s23.081-5.5,23.081-12.278a6.616,6.616,0,0,0-.067-.7C571.035,4529.857,561.01,4534.98,548.709,4534.98Z"/><path class="i" d="M548.709,4529.894c-12.3,0-22.326-5.123-23.014-11.575a6.593,6.593,0,0,0-.066.7c0,6.78,10.333,12.277,23.08,12.277s23.081-5.5,23.081-12.277a6.61,6.61,0,0,0-.067-.7C571.035,4524.771,561.01,4529.894,548.709,4529.894Z"/><path class="a" d="M536.518,4566.538c0,6.785-10.34,12.284-23.1,12.284s-23.093-5.5-23.093-12.284,10.339-12.284,23.093-12.284S536.518,4559.754,536.518,4566.538Z"/><path class="b" d="M536.491,4565.455c0,6.781-10.334,12.277-23.081,12.277s-23.08-5.5-23.08-12.277,10.333-12.277,23.08-12.277S536.491,4558.675,536.491,4565.455Z"/><rect class="b" width="46.161" height="14.894" transform="translate(490.33 4551.31)"/><path class="a" d="M536.491,4551.818c0,6.78-10.334,12.277-23.081,12.277s-23.08-5.5-23.08-12.277,10.333-12.277,23.08-12.277S536.491,4545.038,536.491,4551.818Z"/><path class="c" d="M534.48,4551.31c0,6.186-9.427,11.2-21.057,11.2s-21.056-5.014-21.056-11.2,9.427-11.2,21.056-11.2S534.48,4545.124,534.48,4551.31Z"/><path class="a" d="M513.41,4544.666c7.943,0,14.456,3.239,15.146,7.369a4.41,4.41,0,0,0,.069-.725c0-4.47-6.812-8.094-15.215-8.094s-15.215,3.624-15.215,8.094a4.407,4.407,0,0,0,.069.725C498.954,4547.9,505.467,4544.666,513.41,4544.666Z"/><path class="d" d="M513.41,4559.4c7.943,0,14.456-3.239,15.146-7.368-.69-4.13-7.2-7.369-15.146-7.369s-14.456,3.239-15.146,7.369C498.954,4556.164,505.467,4559.4,513.41,4559.4Z"/><path class="a" d="M513.423,4573.386c-12.3,0-22.325-5.123-23.013-11.574a6.56,6.56,0,0,0-.067.7c0,6.78,10.334,12.277,23.08,12.277s23.081-5.5,23.081-12.277a6.568,6.568,0,0,0-.067-.7C535.749,4568.263,525.725,4573.386,513.423,4573.386Z"/><path class="a" d="M513.423,4568.3c-12.3,0-22.325-5.123-23.013-11.575a6.587,6.587,0,0,0-.067.7c0,6.781,10.334,12.277,23.08,12.277s23.081-5.5,23.081-12.277a6.6,6.6,0,0,0-.067-.7C535.749,4563.177,525.725,4568.3,513.423,4568.3Z"/><path class="a" d="M536.518,4547.987c0,6.785-10.34,12.284-23.1,12.284s-23.093-5.5-23.093-12.284,10.339-12.284,23.093-12.284S536.518,4541.2,536.518,4547.987Z"/><path class="e" d="M536.491,4546.9c0,6.78-10.334,12.277-23.081,12.277s-23.08-5.5-23.08-12.277,10.333-12.278,23.08-12.278S536.491,4540.124,536.491,4546.9Z"/><rect class="e" width="46.161" height="14.894" transform="translate(490.33 4532.759)"/><path class="f" d="M536.491,4533.267c0,6.781-10.334,12.277-23.081,12.277s-23.08-5.5-23.08-12.277,10.333-12.277,23.08-12.277S536.491,4526.487,536.491,4533.267Z"/><path class="g" d="M534.48,4532.759c0,6.186-9.427,11.2-21.057,11.2s-21.056-5.014-21.056-11.2,9.427-11.2,21.056-11.2S534.48,4526.573,534.48,4532.759Z"/><path class="f" d="M513.41,4526.115c7.943,0,14.456,3.239,15.146,7.369a4.4,4.4,0,0,0,.069-.725c0-4.47-6.812-8.094-15.215-8.094s-15.215,3.624-15.215,8.094a4.4,4.4,0,0,0,.069.725C498.954,4529.354,505.467,4526.115,513.41,4526.115Z"/><path class="h" d="M513.41,4540.852c7.943,0,14.456-3.239,15.146-7.368-.69-4.13-7.2-7.369-15.146-7.369s-14.456,3.239-15.146,7.369C498.954,4537.613,505.467,4540.852,513.41,4540.852Z"/><path class="i" d="M513.423,4554.835c-12.3,0-22.325-5.123-23.013-11.574a6.587,6.587,0,0,0-.067.7c0,6.781,10.334,12.277,23.08,12.277s23.081-5.5,23.081-12.277a6.6,6.6,0,0,0-.067-.7C535.749,4549.712,525.725,4554.835,513.423,4554.835Z"/><path class="i" d="M513.423,4549.749c-12.3,0-22.325-5.123-23.013-11.575a6.608,6.608,0,0,0-.067.7c0,6.781,10.334,12.278,23.08,12.278s23.081-5.5,23.081-12.278a6.616,6.616,0,0,0-.067-.7C535.749,4544.626,525.725,4549.749,513.423,4549.749Z"/><path class="j" d="M341.222,4481.758l-15.779,9.11,16.046,9.264,15.779-9.11Z"/><path class="j" d="M371.226,4499.081l-15.779,9.11,15.934,9.2,15.779-9.109Z"/><path class="j" d="M311.33,4464.5l-15.778,9.11,15.934,9.2,15.779-9.11Z"/><path class="j" d="M251.552,4429.987l-15.779,9.11,15.934,9.2,15.779-9.109Z"/><path class="j" d="M281.444,4447.245l-15.778,9.11,15.929,9.2,15.779-9.11Z"/><path class="j" d="M444.815,4559.787l15.779,9.11,15.779-9.11-15.779-9.11Z"/><path class="j" d="M401.117,4516.339l-15.778,9.11,15.627,9.022,15.779-9.109Z"/><path class="j" d="M430.7,4533.419l-15.778,9.11,15.933,9.2,15.779-9.11Z"/><path class="b" d="M327.264,4473.7l13.957-8.059-15.934-9.2L311.33,4464.5Z"/><path class="b" d="M297.373,4456.442l13.957-8.059-15.929-9.2-13.958,8.058Z"/><path class="b" d="M387.16,4508.281l13.957-8.059-15.933-9.2-13.958,8.059Z"/><path class="b" d="M357.269,4491.022l13.957-8.059L355.18,4473.7l-13.958,8.059Z"/><path class="b" d="M267.486,4439.187l13.958-8.059-15.934-9.2-13.958,8.059Z"/><path class="b" d="M446.636,4542.619l13.957-8.059-15.934-9.2-13.958,8.058Z"/><path class="b" d="M416.744,4525.361,430.7,4517.3l-15.627-9.022-13.958,8.058Z"/><path class="b" d="M460.593,4550.677l15.779,9.11,13.958-8.058-15.778-9.11Z"/><path class="b" d="M237.658,4421.966l-15.778,9.11,13.894,8.021,15.779-9.11Z"/><path class="j" d="M237.658,4421.966l13.894,8.021,13.958-8.059-13.894-8.021Z"/><path class="b" d="M267.486,4439.187l-15.779,9.109,13.958,8.059,15.778-9.11Z"/><path class="j" d="M281.444,4447.245l13.958-8.058-13.958-8.059-13.958,8.059Z"/><path class="b" d="M297.373,4456.442l-15.779,9.11,13.958,8.058,15.778-9.11Z"/><path class="j" d="M311.33,4464.5l13.958-8.058-13.958-8.059-13.957,8.059Z"/><path class="b" d="M327.264,4473.7l-15.779,9.11,13.958,8.059,15.779-9.11Z"/><path class="j" d="M341.222,4481.758l13.958-8.059-13.958-8.059-13.957,8.059Z"/><path class="b" d="M357.269,4491.022l-15.779,9.11,13.958,8.059,15.779-9.11Z"/><path class="j" d="M371.226,4499.081l13.958-8.059-13.958-8.059-13.957,8.059Z"/><path class="b" d="M387.16,4508.281l-15.779,9.109,13.958,8.059,15.778-9.11Z"/><path class="j" d="M401.117,4516.339l13.958-8.058-13.958-8.059-13.957,8.059Z"/><path class="b" d="M416.744,4525.361l-15.779,9.109,13.958,8.059,15.778-9.11Z"/><path class="j" d="M430.7,4533.419l13.958-8.058L430.7,4517.3l-13.958,8.059Z"/><path class="b" d="M446.636,4542.619l-15.779,9.11,13.958,8.058,15.779-9.11Z"/><path class="j" d="M460.593,4550.677l13.958-8.058-13.958-8.059-13.957,8.059Z"/><rect class="k" width="5.884" height="282.724" transform="translate(230.988 4137.388)"/><path class="l" d="M236.873,4137.388c0,.914-1.318,1.656-2.942,1.656s-2.943-.742-2.943-1.656,1.318-1.656,2.943-1.656S236.873,4136.473,236.873,4137.388Z"/><path class="k" d="M236.873,4420.112c0,.914-1.318,1.656-2.942,1.656s-2.943-.742-2.943-1.656,1.318-1.656,2.943-1.656S236.873,4419.2,236.873,4420.112Z"/><rect class="k" width="5.884" height="282.724" transform="translate(479.026 4279.467)"/><path class="l" d="M484.91,4279.467c0,.914-1.317,1.656-2.942,1.656s-2.942-.742-2.942-1.656,1.317-1.656,2.942-1.656S484.91,4278.552,484.91,4279.467Z"/><path class="k" d="M484.91,4562.191c0,.914-1.317,1.656-2.942,1.656s-2.942-.742-2.942-1.656,1.317-1.656,2.942-1.656S484.91,4561.276,484.91,4562.191Z"/><path class="j" d="M227.521,4196.266l254.447,146.9v-65.45l-254.447-146.9Z"/><path class="m" d="M486.621,4340.484l-4.654,2.687v-65.359l4.654-2.687Z"/><path class="n" d="M227.521,4130.816l254.447,147,4.654-2.687-254.674-146.75Z"/><path class="b" d="M285.667,4178.5l17.617,10.169v7.071l-11.29-6.514v8.611l9.622,5.553v7.073l-9.622-5.555v14.428l-6.327-3.652Z"/><path class="b" d="M310.169,4192.644l6.326,3.652v37.181l-6.326-3.653Z"/><path class="b" d="M325.132,4201.28l6.455,3.729,7.271,22.674,2.779,9.817.169.1c-.3-4.106-.811-9.65-.811-14.042V4210.44l5.984,3.455v37.183l-6.455-3.728-7.269-22.732-2.736-9.676-.169-.1c.3,4.28.811,9.536.811,13.928v13.174l-6.029-3.481Z"/><path class="b" d="M355.663,4218.908l6.327,3.652v37.184l-6.327-3.655Z"/><path class="b" d="M372.465,4255.354c1.968,3.419,4.533,6.5,6.841,7.827,2.607,1.507,3.892.879,3.892-1.344,0-2.339-1.582-4-4.021-6.771l-3.59-4.126c-2.907-3.217-5.644-7.992-5.644-13.409,0-6.158,4.147-8.668,9.919-5.337,3.206,1.851,6.584,5.513,8.978,10.088l-3.162,3.478c-1.84-2.943-3.593-5.039-5.816-6.324-2.136-1.232-3.549-.792-3.549,1.316,0,2.282,1.839,4.143,4.275,6.862l3.55,3.988c3.376,3.773,5.515,8.03,5.515,13.276,0,6.16-3.849,9.3-10.476,5.472-3.635-2.1-7.482-6.143-10.345-11.334Z"/><path class="b" d="M396.453,4242.458l6.327,3.652v14.314l9.621,5.556v-14.314l6.284,3.628v37.184l-6.284-3.631v-15.511l-9.621-5.555v15.512l-6.327-3.654Z"/></g></svg>