<svg xmlns="http://www.w3.org/2000/svg" xmlns:xlink="http://www.w3.org/1999/xlink" width="88" height="88" viewBox="0 0 88 88"><defs><style>.a{fill:#fff;stroke:#386338;stroke-width:5px;}.b{clip-path:url(#a);}.c{fill:#b89778;opacity:0.33;}.aa,.ab,.ac,.ad,.ae,.af,.ag,.ah,.c,.d,.e,.f,.g,.h,.i,.k,.l,.m,.n,.o,.p,.q,.r,.s,.t,.u,.v,.w,.x,.y,.z{stroke:rgba(96,76,76,0);}.ad,.c{mix-blend-mode:multiply;}.ad,.c,.j{isolation:isolate;}.d{fill:#8c0c23;}.e{fill:#ffb02e;}.f{fill:#d18217;}.g{fill:#ef9b09;}.h{fill:#e71920;}.i{fill:#d7001b;}.k{fill:#480315;}.l{fill:#d34f27;}.m{fill:#e7191f;}.n{fill:#5f1f4b;}.o{fill:#cf7f18;}.p{fill:#ffa718;}.q{fill:#8ba6bb;}.r{fill:#092449;}.s{fill:#2e0b1f;}.t{fill:#51153d;}.u{fill:#a43a81;}.v{fill:#657988;}.w{fill:#434f58;}.x{fill:#7d93a0;}.y{fill:#f99969;}.z{fill:#1c262a;}.aa{fill:#2d3e45;}.ab{fill:#141d37;}.ac{fill:#172343;}.ad{fill:#fdac77;}.ae{fill:#44ac6c;}.af{fill:#f2a003;}.ag{fill:#ffc72e;}.ah{fill:#e68412;}.ai,.ak{fill:none;}.ai{stroke:#5eb366;stroke-width:4px;}.aj{stroke:none;}</style><clipPath id="a"><circle class="a" cx="43" cy="43" r="43" transform="translate(566 470)"/></clipPath></defs><g transform="translate(-580 -469)"><g class="b" transform="translate(15)"><g transform="translate(506.781 351.625)"><path class="c" d="M1132.992,2066.71l-129.85,75.1-52.392-30.248,129.849-75.1Z" transform="translate(-906.243 -1887.431)"/><g transform="translate(0 0)"><g transform="translate(57.792 51.884)"><path class="d" d="M969.855,1947.691a1.092,1.092,0,0,1-.55-2.039l70.556-40.735a1.094,1.094,0,0,1,1.093,1.894L970.4,1947.545A1.087,1.087,0,0,1,969.855,1947.691Z" transform="translate(-968.76 -1904.769)"/></g><g transform="translate(80.549 0)"><path class="e" d="M1023.557,1845.82a.972.972,0,0,1,.247-.057c.01,0,.018,0,.026,0a.908.908,0,0,1,.25.013h.008a.817.817,0,0,1,.225.086l-1.536-.888c0-.005,0-.005-.008-.007a.493.493,0,0,0-.079-.041c-.025-.01-.054-.019-.08-.028l-.058-.012s0,0-.012,0-.008,0-.016,0a.5.5,0,0,0-.091-.012.466.466,0,0,0-.1,0c-.013,0-.021,0-.033,0a.093.093,0,0,0-.022,0c-.02,0-.041,0-.061,0-.042.009-.088.018-.134.03a.437.437,0,0,1-.057.019.51.51,0,0,0-.054.018.466.466,0,0,0-.07.03,1.728,1.728,0,0,0-.216.1l-4.415,2.553,1.534.887,4.415-2.546a1.531,1.531,0,0,1,.287-.131A.205.205,0,0,1,1023.557,1845.82Z" transform="translate(-1004.241 -1837.171)"/><path class="f" d="M1001.152,1865.648l-.008-3.548-1.535-.888.008,3.544a1.083,1.083,0,0,0,.453.992l1.531.892A1.092,1.092,0,0,1,1001.152,1865.648Z" transform="translate(-999.609 -1841.459)"/><g transform="translate(1.535 8.585)"><path class="g" d="M1019.129,1846.284c.853-.492,1.546-.094,1.546.882l.014,3.552a3.374,3.374,0,0,1-1.54,2.661l-15.9,9.179c-.853.494-1.54.1-1.547-.882l-.008-3.547a3.362,3.362,0,0,1,1.538-2.661l4.414-2.555a2.945,2.945,0,0,0,3.541.03,9.781,9.781,0,0,0,3.53-4.113Z" transform="translate(-1001.69 -1846.073)"/></g><path class="e" d="M1001.256,1859.5a.06.06,0,0,0,.011-.032c.039-.123.085-.246.134-.367l0,0a3.875,3.875,0,0,1,.184-.362s0-.006,0-.013c.068-.113.143-.221.218-.33a.051.051,0,0,0,.015-.026c.075-.1.15-.187.231-.273.014-.018.032-.033.047-.052a2.557,2.557,0,0,1,.2-.185.855.855,0,0,0,.09-.079,2.217,2.217,0,0,1,.292-.2l4.414-2.554-1.532-.89-4.417,2.55a2.319,2.319,0,0,0-.292.2l-.086.081a1.416,1.416,0,0,0-.138.118.648.648,0,0,1-.065.061c-.01.02-.03.037-.043.058a.5.5,0,0,0-.06.061c-.045.047-.082.1-.124.153-.018.02-.031.04-.047.057s-.011.017-.016.029a.263.263,0,0,0-.041.052c-.033.044-.058.088-.092.135s-.053.084-.08.131a.016.016,0,0,1-.007.016l0,.007c-.021.034-.04.069-.059.105s-.047.086-.068.133a.977.977,0,0,0-.056.124v0l-.006.005c-.019.046-.037.1-.054.143s-.036.1-.054.142c-.009.025-.016.052-.022.077a.194.194,0,0,1-.01.032.239.239,0,0,1-.018.049c-.016.059-.028.118-.039.177a.5.5,0,0,0-.019.108c0,.019-.009.036-.014.06a.274.274,0,0,0-.008.051,2.593,2.593,0,0,0-.019.3l1.535.889a2.136,2.136,0,0,1,.028-.351.342.342,0,0,1,.007-.054C1001.2,1859.727,1001.227,1859.614,1001.256,1859.5Z" transform="translate(-999.609 -1839.605)"/><g transform="translate(6.03 0.892)"><path class="h" d="M1012.739,1836.212c2.755-1.585,4.992.259,5,4.123a13.124,13.124,0,0,1-1.427,5.76,9.78,9.78,0,0,1-3.53,4.113,2.946,2.946,0,0,1-3.541-.029,5.258,5.258,0,0,1-1.457-4.1C1007.772,1842.222,1009.994,1837.8,1012.739,1836.212Z" transform="translate(-1007.784 -1835.644)"/></g><path class="i" d="M1007.285,1844.824c.013-.172.029-.336.047-.5.041-.306.094-.606.156-.911.025-.107.047-.215.07-.316.033-.144.071-.288.1-.428s.07-.254.112-.379c.028-.1.058-.208.092-.312.049-.151.1-.3.152-.441.03-.078.052-.151.08-.224.077-.217.165-.426.257-.639.007-.02.022-.044.029-.065.083-.185.171-.369.257-.552.029-.059.059-.11.088-.168.083-.162.166-.319.254-.474.026-.043.045-.08.072-.119.1-.187.214-.371.33-.552.031-.044.059-.089.089-.13.1-.135.188-.273.284-.406.036-.054.078-.105.12-.163.091-.12.184-.235.279-.349.044-.057.088-.109.133-.163.061-.072.128-.146.2-.219.087-.1.181-.2.274-.293.136-.134.269-.261.406-.382.027-.021.055-.04.081-.064.115-.1.239-.2.363-.291.039-.029.085-.058.128-.091.149-.105.3-.2.448-.292s.271-.142.4-.207c.027-.013.056-.028.085-.04.072-.03.142-.055.208-.079.1-.038.191-.069.287-.1l.222-.058c.056-.009.111-.022.165-.03a1.47,1.47,0,0,1,.272-.037.868.868,0,0,1,.1-.012,2.419,2.419,0,0,1,.354,0,.3.3,0,0,1,.07.01,1.835,1.835,0,0,1,.27.041c.032.009.065.013.1.021a2.449,2.449,0,0,1,.255.08.535.535,0,0,0,.07.025c.109.046.217.1.319.151l-1.534-.888c-.008,0-.021-.009-.028-.013a1.922,1.922,0,0,0-.261-.129c-.01,0-.021-.007-.027-.01a.494.494,0,0,0-.08-.029c-.053-.019-.1-.042-.161-.058-.029-.006-.058-.011-.084-.019a.971.971,0,0,1-.1-.024c-.027,0-.053-.012-.08-.019-.062-.01-.13-.015-.19-.019a.467.467,0,0,0-.07-.011h-.025a1.733,1.733,0,0,0-.3,0,.108.108,0,0,0-.03,0,.754.754,0,0,0-.1.011c-.068,0-.13.006-.2.016a.433.433,0,0,1-.072.014c-.054.008-.108.027-.164.04s-.093.015-.136.027-.056.023-.083.03c-.094.029-.188.064-.289.1-.036.014-.083.024-.125.043-.026.008-.055.028-.082.039s-.059.024-.085.039a3.991,3.991,0,0,0-.4.2,4.963,4.963,0,0,0-.454.3c-.041.027-.083.059-.124.09-.127.093-.246.185-.366.288-.025.023-.049.04-.08.067-.119.105-.24.212-.358.33a.425.425,0,0,1-.045.049c-.092.1-.188.2-.285.3-.048.058-.108.11-.158.172-.013.013-.024.031-.036.042-.042.053-.087.111-.133.166-.067.081-.138.156-.2.243-.025.034-.049.071-.08.105-.041.056-.079.11-.12.165s-.078.1-.12.159c-.051.078-.111.159-.159.242-.03.042-.063.087-.092.13a.451.451,0,0,1-.039.057c-.089.145-.176.3-.267.443a.233.233,0,0,0-.026.049c-.027.042-.046.082-.071.121-.05.093-.108.193-.159.291-.034.06-.061.124-.1.182s-.058.114-.082.174a.622.622,0,0,0-.062.124c-.071.141-.134.28-.2.418-.009.024-.022.048-.034.073a.05.05,0,0,0-.008.02c-.079.18-.154.367-.23.55a.429.429,0,0,1-.019.069c-.029.071-.05.145-.076.216-.041.1-.084.212-.115.32-.017.045-.026.084-.042.125-.033.105-.063.211-.095.314-.023.078-.051.159-.072.244-.011.045-.024.089-.033.135-.037.141-.071.281-.1.421q-.031.118-.057.231c-.005.031-.01.064-.018.094-.057.3-.112.606-.153.909v.014a4.642,4.642,0,0,0-.046.478c-.008.078-.022.158-.027.231-.02.241-.025.483-.025.722a5.252,5.252,0,0,0,1.461,4.1,2.982,2.982,0,0,0,.367.258l1.536.889a2.612,2.612,0,0,1-.371-.258,5.256,5.256,0,0,1-1.457-4.1c0-.235,0-.478.02-.716C1007.267,1844.971,1007.276,1844.894,1007.285,1844.824Z" transform="translate(-1001.208 -1834.435)"/></g><g class="j" transform="translate(0 6.368)"><path class="k" d="M1114.026,1963.649l-98.965-114.888-1.545-.893,98.973,114.887a.585.585,0,0,0,.127.106c.512.3,1.03.594,1.54.893A.529.529,0,0,1,1114.026,1963.649Z" transform="translate(-922.708 -1844.327)"/><g transform="translate(1.542 0.898)"><path class="d" d="M983.241,1844.434c.37-.212.7-.194.885.03L1084.01,1960.4a1.638,1.638,0,0,1-.286,1.817,1.981,1.981,0,0,1-.571.528.665.665,0,0,1-.87-.035L983.318,1847.82l-88.882,223.3a2.232,2.232,0,0,1-.891,1.084.909.909,0,0,1-.532.143c-.492-.06-.653-.694-.361-1.43l89.722-225.408A2.264,2.264,0,0,1,983.241,1844.434Z" transform="translate(-892.507 -1844.285)"/></g><path class="k" d="M981.906,1843.137h0a.257.257,0,0,0-.051-.029c-.016-.005-.033-.012-.054-.018s-.029-.008-.041-.01h-.015c-.02,0-.041-.006-.067-.006a.242.242,0,0,0-.065-.005.072.072,0,0,1-.032.005.031.031,0,0,1-.019,0,.1.1,0,0,0-.023,0,.651.651,0,0,0-.1.02c-.018,0-.039.012-.055.016s-.025.007-.033.01-.024.012-.041.021a1.128,1.128,0,0,0-.159.076,1.755,1.755,0,0,0-.3.236c0,.009-.017.012-.026.022-.04.036-.074.078-.114.118-.014.02-.029.042-.047.065-.009,0-.009.009-.013.012s-.013.014-.021.022c-.02.03-.044.064-.062.093s-.041.058-.064.086a.414.414,0,0,1-.053.085c-.016.028-.028.06-.045.086s-.029.06-.045.09a.5.5,0,0,0-.044.088c-.008.024-.02.05-.027.073l-89.727,225.406a.117.117,0,0,1-.012.026c-.011.034-.021.069-.033.1s-.02.073-.031.1-.021.078-.03.123c-.008.025-.008.054-.017.084v.019a.149.149,0,0,0-.008.047,1.182,1.182,0,0,0,0,.318c0,.021.008.046.013.07a.925.925,0,0,0,.066.215c.012.026.025.047.035.07a.5.5,0,0,0,.179.183c.256.146.51.3.768.453s.517.289.769.438a.483.483,0,0,1-.174-.183.187.187,0,0,1-.031-.062.69.69,0,0,1-.068-.218.383.383,0,0,1-.014-.074,1.267,1.267,0,0,1,.008-.354.247.247,0,0,1,.006-.03,2.048,2.048,0,0,1,.122-.433l89.722-225.408a2.381,2.381,0,0,1,.162-.326v-.007a2.548,2.548,0,0,1,.2-.289.115.115,0,0,1,.016-.017,1.431,1.431,0,0,1,.191-.205,1.744,1.744,0,0,1,.3-.236,1.585,1.585,0,0,1,.195-.089.141.141,0,0,0,.042-.015.8.8,0,0,1,.17-.041h.017a.536.536,0,0,1,.177.007h0a.416.416,0,0,1,.154.057C982.938,1843.733,982.421,1843.438,981.906,1843.137Z" transform="translate(-890.417 -1843.068)"/></g></g><g transform="translate(58.566 120.687)"><path class="l" d="M969.809,2077.4l6.165-3.566-6.165-12.948Z" transform="translate(-969.809 -2014.526)"/><path class="m" d="M1096.46,2012.146l-19.158-11.06-25.818-3.047.008,16.815-73.325,42.438.745,1.557,18.895,10.914,24.845,3.819-.067,22.72,79.679-46.3-.064-22.806Z" transform="translate(-972.001 -1998.039)"/></g><path class="d" d="M1128.351,2044.424l-50.787-29.491-.008-16.813,25.818,3.046,19.157,11.063,5.74,15.046Z" transform="translate(-939.508 -1877.373)"/><path class="n" d="M1077.607,1998.12l50.72,29.156-5.744-15.046-19.16-11.063Z" transform="translate(-939.521 -1877.373)"/><g transform="translate(61.678 121.07)"><g transform="translate(48.254)"><g transform="translate(19.373)"><g class="j"><g transform="translate(1.08 0.625)"><path class="g" d="M1075.9,1999.4l.049,16.512-8.736,5.043-.052-16.506Z" transform="translate(-1067.166 -1999.405)"/></g><g transform="translate(0 5.041)"><path class="o" d="M1066.833,2022.531l-1.081-.632-.051-16.508,1.08.634Z" transform="translate(-1065.702 -2005.391)"/></g><path class="p" d="M1066.782,2004.231l-1.08-.632,8.735-5.042,1.083.625Z" transform="translate(-1065.702 -1998.557)"/></g></g><path class="q" d="M1060.466,2007.325l-5.512,3.181a4.9,4.9,0,0,0-2.364,3.728v11.538c0,1.308,1.055,1.755,2.364,1l5.512-3.182a4.912,4.912,0,0,0,2.361-3.73v-11.538C1062.828,2007.019,1061.767,2006.573,1060.466,2007.325Zm1.933,1.249v.6l-1.722.995v-2.524C1061.644,2007.2,1062.4,2007.578,1062.4,2008.574Zm-2.151,14.712-2.308,1.331v-2.869l2.308-1.328Zm-5.044.044,2.308-1.334v2.871l-2.308,1.33Zm0-12.538,2.308-1.333V2012l-2.308,1.333Zm5.044-.37-2.308,1.333v-2.545l2.308-1.334Zm-2.308,4.95,2.308-1.333v2.758l-2.308,1.332Zm-.429,3.008-2.308,1.331v-2.76l2.308-1.333Zm.429-3.437v-2.76l2.308-1.333v2.762Zm-.429-2.511v2.758l-2.308,1.334v-2.762Zm-2.737,4.341-1.757,1.011v-2.756l1.757-1.018Zm0,.429v2.758l-1.757,1.014v-2.76Zm0,3.186v2.761l-1.757,1.015V2021.4Zm.429-.248,2.308-1.331v2.76l-2.308,1.333Zm2.737,1.181v-2.76l2.308-1.33v2.758Zm2.736-4.337,1.722-1v2.76l-1.722.992Zm0-.431v-2.759l1.722-1v2.763Zm0-3.189v-2.76l1.722-.992v2.757Zm-5.9-2.305v2.527l-1.757,1.015v-.614A4,4,0,0,1,1054.775,2011.058Zm-1.757,14.466v-.934l1.757-1.014v2.853C1053.794,2026.9,1053.019,2026.532,1053.019,2025.524Zm7.658-2.508v-2.849l1.722-.992v.937A3.993,3.993,0,0,1,1060.677,2023.016Z" transform="translate(-1042.89 -2000.762)"/><g transform="translate(0 11.173)"><g class="j"><g transform="translate(1.082 0.627)"><path class="g" d="M1049.642,2014.555l.05,16.511-8.742,5.045-.044-16.509Z" transform="translate(-1040.907 -2014.555)"/></g><g transform="translate(0 5.041)"><path class="o" d="M1040.566,2037.679l-1.079-.632-.046-16.51,1.082.632Z" transform="translate(-1039.44 -2020.538)"/></g><path class="p" d="M1040.522,2019.378l-1.082-.633,8.736-5.041,1.081.627Z" transform="translate(-1039.44 -2013.704)"/></g></g></g><g transform="translate(28.843 17.348)"><path class="q" d="M1034.146,2022.439l-5.507,3.181a4.913,4.913,0,0,0-2.368,3.731v11.538c0,1.306,1.062,1.753,2.368,1l5.507-3.181a4.911,4.911,0,0,0,2.367-3.728V2023.44C1036.513,2022.135,1035.453,2021.686,1034.146,2022.439Zm1.934,1.249v.607l-1.716.995v-2.521C1035.328,2022.319,1036.08,2022.7,1036.08,2023.688Zm-2.144,14.714-2.309,1.33v-2.866l2.309-1.335Zm-5.052.043,2.313-1.334v2.87l-2.313,1.338Zm0-12.541,2.313-1.331v2.545l-2.313,1.33Zm5.052-.369-2.309,1.331v-2.538l2.309-1.335Zm-2.309,4.95,2.309-1.333v2.762l-2.309,1.337Zm-.429,3.01-2.313,1.336v-2.763l2.313-1.33Zm.429-3.437v-2.764l2.309-1.33v2.764Zm-.429-2.514v2.762l-2.313,1.331v-2.756Zm-2.742,4.341-1.75,1.014v-2.759l1.75-1.014Zm0,.428v2.763l-1.75,1.015v-2.763Zm0,3.193v2.757l-1.75,1.015v-2.759Zm.429-.254,2.313-1.328v2.758l-2.313,1.335Zm2.742,1.184v-2.759l2.309-1.334v2.758Zm2.738-4.344,1.716-.992v2.766l-1.716.988Zm0-.43v-2.759l1.716-.988v2.757Zm0-3.186v-2.761l1.716-.992v2.757Zm-5.909-2.306v2.527l-1.75,1.014v-.61A4.006,4.006,0,0,1,1028.455,2026.172Zm-1.75,14.471v-.932l1.75-1.018v2.851C1027.478,2042.017,1026.7,2041.648,1026.7,2040.643Zm7.659-2.513v-2.846l1.716-.994v.935A3.982,3.982,0,0,1,1034.364,2038.13Z" transform="translate(-1016.575 -2022.074)"/><g transform="translate(0 4.975)"><g class="j"><g transform="translate(1.082 0.629)"><path class="g" d="M1023.327,2029.672l.052,16.511-8.741,5.04-.045-16.507Z" transform="translate(-1014.593 -2029.672)"/></g><g transform="translate(0 5.045)"><path class="o" d="M1014.253,2052.793l-1.082-.629-.045-16.507,1.082.629Z" transform="translate(-1013.127 -2035.657)"/></g><path class="p" d="M1014.208,2034.492l-1.082-.629,8.736-5.044,1.08.629Z" transform="translate(-1013.127 -2028.819)"/></g></g></g><g transform="translate(9.677 28.394)"><path class="q" d="M1008.163,2037.414l-5.511,3.182a4.906,4.906,0,0,0-2.364,3.73v11.536c0,1.3,1.063,1.752,2.364,1l5.511-3.182a4.91,4.91,0,0,0,2.368-3.728v-11.537C1010.531,2037.111,1009.468,2036.66,1008.163,2037.414Zm1.931,1.248v.608l-1.712.992v-2.523C1009.347,2037.293,1010.094,2037.667,1010.094,2038.662Zm-2.145,14.713-2.309,1.334v-2.871l2.309-1.33Zm-5.042.045,2.3-1.33v2.867l-2.3,1.33Zm0-12.538,2.3-1.334v2.541l-2.3,1.334Zm5.042-.37-2.309,1.331V2039.3l2.309-1.337Zm-2.309,4.95,2.309-1.329v2.752l-2.309,1.337Zm-.429,3.005-2.3,1.337v-2.761l2.3-1.336Zm.429-3.434v-2.764l2.309-1.328v2.756Zm-.429-2.511v2.756l-2.3,1.338v-2.764Zm-2.739,4.339-1.754,1.013v-2.757l1.754-1.015Zm0,.427v2.761l-1.754,1.015V2048.3Zm0,3.191v2.756l-1.754,1.017v-2.759Zm.435-.249,2.3-1.337v2.762l-2.3,1.334Zm2.733,1.179v-2.762l2.309-1.33v2.762Zm2.741-4.338,1.712-1v2.764l-1.712.992Zm0-.434v-2.757l1.712-1v2.764Zm0-3.191v-2.754l1.712-1v2.759Zm-5.909-2.3v2.526l-1.754,1.01v-.607A4,4,0,0,1,1002.472,2041.15Zm-1.754,14.467v-.93l1.754-1.021v2.851C1001.491,2056.99,1000.718,2056.62,1000.718,2055.617Zm7.663-2.512v-2.847l1.712-.991v.931A3.975,3.975,0,0,1,1008.382,2053.1Z" transform="translate(-990.592 -2037.049)"/><g transform="translate(0 4.976)"><g class="j"><g transform="translate(1.082 0.632)"><path class="g" d="M997.349,2044.65l.044,16.507-8.736,5.042-.047-16.507Z" transform="translate(-988.611 -2044.65)"/></g><g transform="translate(0 5.045)"><path class="o" d="M988.273,2067.769l-1.082-.624-.046-16.513,1.082.63Z" transform="translate(-987.145 -2050.632)"/></g><path class="p" d="M988.226,2049.468l-1.082-.63,8.732-5.044,1.087.632Z" transform="translate(-987.145 -2043.794)"/></g></g></g><path class="q" d="M981.9,2053.109l-5.511,3.181a4.924,4.924,0,0,0-2.364,3.733v11.541c0,1.3,1.061,1.749,2.364,1l5.511-3.186a4.919,4.919,0,0,0,2.364-3.729v-11.537C984.266,2052.8,983.205,2052.358,981.9,2053.109Zm1.936,1.252v.6l-1.719,1v-2.522C983.08,2052.994,983.838,2053.366,983.838,2054.361Zm-2.153,14.711-2.309,1.329v-2.867l2.309-1.334Zm-5.047.042,2.31-1.327v2.864l-2.31,1.33Zm0-12.538,2.31-1.329v2.541l-2.31,1.334Zm5.047-.37-2.309,1.334V2055l2.309-1.334Zm-2.309,4.95,2.309-1.329v2.757l-2.309,1.334Zm-.428,3.009-2.31,1.328v-2.752l2.31-1.334Zm.428-3.438v-2.759l2.309-1.33v2.755Zm-.428-2.505v2.755l-2.31,1.331v-2.757Zm-2.738,4.332-1.756,1.016v-2.76l1.756-1.008Zm0,.435v2.759l-1.756,1.008V2064Zm0,3.186v2.758l-1.756,1.016v-2.759Zm.428-.247,2.31-1.335v2.76l-2.31,1.334Zm2.738,1.179v-2.759l2.309-1.335v2.759Zm2.743-4.338,1.719-.991v2.751l-1.719,1Zm0-.436v-2.753l1.719-1v2.759Zm0-3.186v-2.758l1.719-.991v2.759Zm-5.908-2.306v2.531l-1.756,1.012v-.611A4.006,4.006,0,0,1,976.211,2056.841Zm-1.756,14.472v-.937l1.756-1.008v2.846C975.23,2072.692,974.455,2072.318,974.455,2071.313Zm7.664-2.514v-2.846l1.719-.989v.931A4,4,0,0,1,982.119,2068.8Z" transform="translate(-974.027 -2012.772)"/></g><g transform="translate(131.989 119.74)"><g transform="translate(0 0)"><g transform="translate(15.027 8.736)"><path class="r" d="M1097.7,2008.708c.358-.2.649-.116.649.2l.029,10.139.025,9.2,0,.58-8.67,5-.028-9.777,7.386-4.264-.031-10.138A1.28,1.28,0,0,1,1097.7,2008.708Z" transform="translate(-1089.711 -2008.598)"/></g><g transform="translate(0 15.453)"><path class="s" d="M1084.4,2036.217l-15.027-8.738-.028-9.776,15.026,8.738Z" transform="translate(-1069.341 -2017.703)"/></g><g transform="translate(0 11.193)"><path class="t" d="M1084.367,2024.925l-15.026-8.737,7.383-4.26,15.03,8.733Z" transform="translate(-1069.341 -2011.927)"/></g><g transform="translate(7.354 1.054)"><path class="n" d="M1094.369,2017.055l-15.03-8.733-.029-10.138,15.027,8.732Z" transform="translate(-1079.311 -1998.184)"/></g><path class="u" d="M1094.525,2006.032v-.008a2,2,0,0,1,.194-.226,1.482,1.482,0,0,1,.254-.2.86.86,0,0,1,.292-.106h0a.4.4,0,0,1,.221.032l-5.956-3.459-9.079-5.27c0-.01-.012-.012-.024-.015s-.021-.008-.03-.012a.1.1,0,0,1-.036-.011c-.008,0-.024,0-.037,0h-.047c-.012,0-.025,0-.041,0h-.013l-.066.017a1,1,0,0,0-.094.033l.017.01h0l-.017-.01a.94.94,0,0,0-.118.057,1.244,1.244,0,0,0-.257.2.011.011,0,0,0-.009.005c-.025.024-.049.052-.074.081a.723.723,0,0,0-.055.065.377.377,0,0,0-.042.059.041.041,0,0,0-.01.017s0,0-.006,0a.225.225,0,0,1-.017.029.3.3,0,0,0-.028.044c-.009.021-.019.034-.027.05a.216.216,0,0,0-.018.04.115.115,0,0,0-.017.045.155.155,0,0,0-.022.039l0,.012c-.006,0-.006,0-.006.005a.053.053,0,0,1-.008.025.219.219,0,0,0-.008.047.135.135,0,0,0-.011.045.176.176,0,0,0-.013.056.408.408,0,0,0-.005.078l15.027,8.732a.717.717,0,0,1,.049-.251l0,0A1.009,1.009,0,0,1,1094.525,2006.032Z" transform="translate(-1071.956 -1996.755)"/></g><g transform="translate(15.054 8.75)"><g transform="translate(15.025 8.734)"><path class="r" d="M1118.113,2020.565c.354-.2.645-.115.645.2l.031,10.132.023,9.2,0,.576-8.67,5-.03-9.774,7.387-4.266-.031-10.137A1.277,1.277,0,0,1,1118.113,2020.565Z" transform="translate(-1110.117 -2020.456)"/></g><g transform="translate(0 15.449)"><path class="s" d="M1104.8,2048.073l-15.026-8.731-.03-9.782,15.026,8.739Z" transform="translate(-1089.749 -2029.559)"/></g><g transform="translate(0 11.188)"><path class="t" d="M1104.774,2036.782l-15.026-8.739,7.384-4.26,15.028,8.734Z" transform="translate(-1089.749 -2023.783)"/></g><g transform="translate(7.359 1.052)"><path class="n" d="M1114.778,2028.912l-15.028-8.733-.025-10.136,15.022,8.733Z" transform="translate(-1099.724 -2010.042)"/></g><path class="u" d="M1114.934,2017.891c0-.006,0-.006,0-.008a1.661,1.661,0,0,1,.2-.229,1.217,1.217,0,0,1,.254-.195.756.756,0,0,1,.289-.106h0a.4.4,0,0,1,.223.032l-5.963-3.46-9.069-5.272c-.008-.005-.021-.009-.03-.015s-.019,0-.028-.008-.027-.009-.039-.01l-.036,0h-.047l-.041,0h0l-.01,0c-.02.006-.048.01-.067.015s-.062.02-.1.031l.018.011h0l-.018-.011a.672.672,0,0,0-.118.061,1.4,1.4,0,0,0-.253.194l-.009.007c-.028.03-.054.06-.078.084s-.037.045-.054.067-.029.033-.047.054a.019.019,0,0,1-.008.017v.006c-.007.009-.015.017-.021.027a.43.43,0,0,0-.027.049.456.456,0,0,0-.027.045c-.007.011-.012.025-.02.039a.344.344,0,0,1-.021.046c-.005.013-.012.026-.018.038a.025.025,0,0,1,0,.013v0a.053.053,0,0,0-.008.031.12.12,0,0,0-.018.041c0,.015-.009.029-.013.047a.222.222,0,0,1-.008.059v.073l15.023,8.733a.763.763,0,0,1,.05-.252s0,0,0,0A1.2,1.2,0,0,1,1114.934,2017.891Z" transform="translate(-1092.366 -2008.616)"/></g><g transform="translate(30.08 17.463)"><g transform="translate(15.031 8.733)"><path class="t" d="M1138.486,2032.379c.351-.208.643-.12.643.2l.034,10.134.026,9.2v.576l-8.669,5.007-.026-9.777,7.38-4.263-.025-10.137A1.265,1.265,0,0,1,1138.486,2032.379Z" transform="translate(-1130.493 -2032.266)"/></g><g transform="translate(0 15.449)"><path class="s" d="M1125.174,2059.883l-15.027-8.733-.03-9.779,15.031,8.736Z" transform="translate(-1110.117 -2041.371)"/></g><g transform="translate(0 11.188)"><path class="t" d="M1125.148,2048.593l-15.031-8.737,7.387-4.261,15.025,8.734Z" transform="translate(-1110.117 -2035.594)"/></g><g transform="translate(7.356 1.051)"><path class="n" d="M1135.144,2040.723l-15.025-8.734-.031-10.137,15.03,8.734Z" transform="translate(-1120.089 -2021.852)"/></g><path class="u" d="M1135.3,2029.7a0,0,0,0,1,0,0,1.663,1.663,0,0,1,.192-.225,1.472,1.472,0,0,1,.26-.2.783.783,0,0,1,.29-.11h0a.4.4,0,0,1,.219.036l-5.957-3.459-9.072-5.273a.058.058,0,0,0-.03-.016.045.045,0,0,0-.027-.008.13.13,0,0,0-.033-.011c-.018,0-.031,0-.044,0h-.04a.341.341,0,0,0-.043,0H1121c-.02,0-.041.011-.067.012l-.1.035.017.009h0l-.017-.009c-.032.017-.074.036-.112.058a1.679,1.679,0,0,0-.261.2l-.005,0a.982.982,0,0,0-.078.087.559.559,0,0,0-.054.064c-.013.02-.031.039-.041.054s-.011.012-.011.017l0,.006c0,.012-.013.017-.02.029a.333.333,0,0,1-.031.047.187.187,0,0,1-.024.045c-.009.014-.011.029-.021.046s-.013.025-.018.037-.012.028-.02.04v.011s0,.005,0,.005a.067.067,0,0,0-.009.03.26.26,0,0,1-.016.042.344.344,0,0,1-.008.047.115.115,0,0,0-.01.058c0,.029-.007.05-.007.074l15.03,8.734a.728.728,0,0,1,.049-.25h0A1.1,1.1,0,0,1,1135.3,2029.7Z" transform="translate(-1112.733 -2020.428)"/></g></g><g transform="translate(96.072 9.059)"><path class="q" d="M1055.482,1978.417a.493.493,0,0,1-.176-.033.466.466,0,0,1-.291-.439c-.329-2.45-22.588-86.449-34.351-130.646a.471.471,0,0,1,.334-.566.46.46,0,0,1,.565.327c34.658,130.279,34.421,130.871,34.346,131.065A.459.459,0,0,1,1055.482,1978.417Z" transform="translate(-1020.652 -1846.716)"/><g transform="translate(51.345 29.893)"><path class="q" d="M1125.352,2018.88a.389.389,0,0,1-.171-.03.458.458,0,0,1-.291-.439c-.334-2.453-22.769-86.405-34.619-130.59a.464.464,0,0,1,.9-.239c34.925,130.219,34.69,130.816,34.617,131.011A.472.472,0,0,1,1125.352,2018.88Z" transform="translate(-1090.255 -1887.24)"/></g><g transform="translate(22.686 85.624)"><path class="q" d="M1103.353,1993.44a.432.432,0,0,1-.23-.062l-51.49-29.727a.463.463,0,1,1,.467-.8l51.485,29.726a.46.46,0,0,1,.166.631A.451.451,0,0,1,1103.353,1993.44Z" transform="translate(-1051.405 -1962.788)"/></g><g transform="translate(10.637 40.054)"><path class="q" d="M1087.021,1931.771a.476.476,0,0,1-.23-.058l-51.49-29.836a.464.464,0,0,1,.469-.8l51.483,29.833a.464.464,0,0,1,.171.631A.459.459,0,0,1,1087.021,1931.771Z" transform="translate(-1035.071 -1901.014)"/></g></g><g transform="translate(127.889 130.356)"><path class="v" d="M1064.6,2013.028l-.051,17.529a.334.334,0,0,1-.019.115h0a.131.131,0,0,1-.067.071l1.168-.675a.173.173,0,0,0,.053-.054.045.045,0,0,0,.013-.02c0-.007,0-.011,0-.016a.015.015,0,0,0,.005-.014.022.022,0,0,0,0-.013.028.028,0,0,0,0-.016s0-.009,0-.017v-.041h0l.05-17.529Z" transform="translate(-1063.964 -2011.461)"/><g transform="translate(0 0.678)"><path class="w" d="M1107.05,2036.886a.578.578,0,0,1,.2.216.552.552,0,0,1,.082.289l-.049,17.867c0,.188-.129.267-.291.167a.644.644,0,0,1-.295-.507l.047-17.527-42.323-24.437-.051,17.529c0,.186-.133.263-.293.17a.654.654,0,0,1-.3-.51l.047-17.868a.2.2,0,0,1,.095-.189.188.188,0,0,1,.2.022Z" transform="translate(-1063.784 -2012.065)"/></g><path class="v" d="M1122.776,2046.158l-.05,17.868a.213.213,0,0,1-.026.119v.005a.116.116,0,0,1-.061.064l1.172-.675a.383.383,0,0,0,.05-.051c0-.009,0-.013.011-.019h0v0s0-.011,0-.017.006-.009.009-.014v-.016s0-.01,0-.014a.026.026,0,0,0,0-.014v-.051l.05-17.856Z" transform="translate(-1079.223 -2020.154)"/><path class="x" d="M1108.556,2036.443v-.034c-.005,0-.005,0-.005-.012l0-.014v-.02s0-.01,0-.014a.013.013,0,0,1-.006-.014h0v-.006s0-.008-.006-.008v-.015s0-.011,0-.016-.01-.009-.01-.013a.018.018,0,0,1,0-.01h0c0-.006-.01-.011-.01-.016a.02.02,0,0,0,0-.013.079.079,0,0,1-.008-.017s-.006-.009-.01-.019l-.011-.02h0a.282.282,0,0,0-.026-.039.116.116,0,0,0-.016-.025c0-.005-.008-.01-.012-.015a.023.023,0,0,1-.009-.015c-.009,0-.009-.009-.011-.014s-.011,0-.014-.009,0-.007,0-.007h0s-.007,0-.007-.008a.121.121,0,0,1-.014-.014s-.008,0-.012-.011-.007-.01-.012-.01a.029.029,0,0,0-.012-.008c-.006-.005-.012-.005-.017-.01s-.008-.007-.013-.011-.008-.01-.012-.01a.028.028,0,0,0-.013-.009h0l-42.919-24.775s0-.009-.008-.009-.006-.005-.012-.005-.005,0-.008-.007a.125.125,0,0,1-.017,0s0,0-.008,0a.027.027,0,0,0-.013,0h-.012l-.012,0a.012.012,0,0,0-.012-.006h-.064a.021.021,0,0,1-.016.01.03.03,0,0,0-.021.01l-1.168.68a.14.14,0,0,1,.091-.015h0a.246.246,0,0,1,.109.036l42.919,24.778a.562.562,0,0,1,.108.087s0,0,0,0a.7.7,0,0,1,.092.125.717.717,0,0,1,.063.147v0h0a.463.463,0,0,1,.02.137l1.168-.672v-.035Z" transform="translate(-1063.834 -2011.146)"/></g><g transform="translate(112.439 131.296)"><g transform="translate(15.03 8.732)"><path class="r" d="M1071.206,2024.368c.355-.2.646-.116.646.2l.028,10.141.023,9.193v.577l-8.665,5.008-.025-9.774,7.385-4.266-.029-10.14A1.266,1.266,0,0,1,1071.206,2024.368Z" transform="translate(-1063.214 -2024.258)"/></g><g transform="translate(0 15.45)"><path class="s" d="M1057.895,2051.877l-15.027-8.736-.029-9.777,15.03,8.739Z" transform="translate(-1042.839 -2033.365)"/></g><g transform="translate(0 11.189)"><path class="t" d="M1057.869,2040.587l-15.03-8.739,7.384-4.26,15.03,8.733Z" transform="translate(-1042.839 -2027.588)"/></g><g transform="translate(7.357 1.052)"><path class="n" d="M1067.869,2032.717l-15.03-8.733-.027-10.136,15.029,8.73Z" transform="translate(-1052.812 -2013.848)"/></g><path class="u" d="M1068.025,2021.693v0a1.561,1.561,0,0,1,.453-.426.736.736,0,0,1,.287-.1l.005,0a.353.353,0,0,1,.22.039l-5.958-3.464-9.073-5.269a.078.078,0,0,0-.03-.015c-.014-.006-.02-.008-.03-.013l-.037-.006a.1.1,0,0,0-.037-.006h-.05l-.032,0h-.009s0,0-.008,0a.34.34,0,0,0-.07.013c-.03.008-.058.021-.093.032l.017.009h0l-.017-.009c-.037.016-.074.035-.116.058a1.349,1.349,0,0,0-.257.2.012.012,0,0,1-.009.005c-.026.027-.05.057-.073.083a.354.354,0,0,0-.054.066c-.016.019-.03.039-.043.057l-.012.017v.007c-.008.011-.015.015-.022.024s-.019.035-.028.05-.017.027-.025.045a.342.342,0,0,0-.022.039.413.413,0,0,1-.02.047.124.124,0,0,0-.016.039s0,.008,0,.011v.007c-.006.005-.006.015-.01.022a.2.2,0,0,0-.012.044c-.007.017-.007.031-.017.05a.272.272,0,0,0-.008.056c0,.025,0,.051,0,.077l15.029,8.73a.678.678,0,0,1,.047-.25l0,0A1.127,1.127,0,0,1,1068.025,2021.693Z" transform="translate(-1045.455 -2012.421)"/><g transform="translate(15.056 8.745)"><g transform="translate(15.027 8.735)"><path class="r" d="M1091.616,2036.223c.347-.2.644-.11.644.209l.03,10.131.022,9.2v.577l-8.665,5.006-.029-9.784,7.385-4.256-.031-10.137A1.291,1.291,0,0,1,1091.616,2036.223Z" transform="translate(-1083.619 -2036.117)"/></g><g transform="translate(0 15.452)"><path class="s" d="M1078.3,2063.736,1063.278,2055l-.03-9.779,15.027,8.729Z" transform="translate(-1063.248 -2045.223)"/></g><g transform="translate(0 11.193)"><path class="t" d="M1078.275,2052.438l-15.027-8.729,7.384-4.259,15.028,8.732Z" transform="translate(-1063.248 -2039.45)"/></g><g transform="translate(7.356 1.054)"><path class="n" d="M1088.276,2044.575l-15.029-8.731-.028-10.14,15.026,8.733Z" transform="translate(-1073.219 -2025.705)"/></g><path class="u" d="M1088.432,2033.554s0,0,0-.008a1.4,1.4,0,0,1,.191-.227,1.331,1.331,0,0,1,.26-.2.833.833,0,0,1,.285-.1h.005a.375.375,0,0,1,.219.031l-5.955-3.458-9.075-5.276a.086.086,0,0,1-.025-.013.174.174,0,0,0-.034-.009.17.17,0,0,0-.036-.01l-.037,0a.272.272,0,0,0-.047,0c-.012,0-.028,0-.037,0h0l-.012,0c-.02,0-.044.008-.066.012a.452.452,0,0,0-.1.033l.017.01h0l-.017-.01a1.157,1.157,0,0,0-.113.059,1.036,1.036,0,0,0-.257.2.013.013,0,0,0-.009,0c-.027.031-.055.058-.079.084a.729.729,0,0,1-.054.064c-.013.022-.029.04-.041.059l-.013.015,0,0a.226.226,0,0,1-.017.032c-.008.014-.02.033-.028.046a.257.257,0,0,0-.027.047.777.777,0,0,1-.041.082.26.26,0,0,1-.015.041l0,.012-.006,0a.1.1,0,0,1-.007.028c0,.013-.01.026-.014.042a.331.331,0,0,0-.007.047.284.284,0,0,0-.014.058c0,.026,0,.049,0,.076l15.026,8.734a.817.817,0,0,1,.051-.25v0A1.046,1.046,0,0,1,1088.432,2033.554Z" transform="translate(-1065.864 -2024.276)"/></g><g transform="translate(30.082 17.459)"><g transform="translate(15.029 8.737)"><path class="t" d="M1111.985,2048.042c.353-.2.643-.119.643.2l.031,10.133.029,9.2v.577l-8.67,5.006-.026-9.777,7.381-4.262-.026-10.14A1.248,1.248,0,0,1,1111.985,2048.042Z" transform="translate(-1103.992 -2047.933)"/></g><g transform="translate(0 15.453)"><path class="s" d="M1098.673,2075.548l-15.025-8.733-.029-9.777,15.029,8.734Z" transform="translate(-1083.619 -2057.037)"/></g><g transform="translate(0 11.19)"><path class="t" d="M1098.648,2064.255l-15.029-8.733,7.385-4.263,15.025,8.736Z" transform="translate(-1083.619 -2051.258)"/></g><g transform="translate(7.354 1.055)"><path class="n" d="M1108.644,2056.39l-15.024-8.736-.031-10.135,15.031,8.731Z" transform="translate(-1093.588 -2037.52)"/></g><path class="u" d="M1108.8,2045.364s0,0,0-.005a1.375,1.375,0,0,1,.2-.224,1.035,1.035,0,0,1,.255-.2.764.764,0,0,1,.288-.107h0a.353.353,0,0,1,.223.035l-5.957-3.464-9.077-5.271c-.008,0-.021-.008-.029-.013a.087.087,0,0,0-.029-.009c-.007-.007-.025-.007-.033-.011s-.027-.006-.042-.006h-.045c-.014,0-.027.006-.037.006h-.018c-.021,0-.04.011-.066.016s-.062.018-.1.027l.017.017h0l-.017-.017c-.037.02-.075.042-.117.059a1.318,1.318,0,0,0-.254.2c-.005,0-.008,0-.008,0-.025.031-.053.055-.08.082s-.037.047-.05.065a.216.216,0,0,0-.041.06c-.008,0-.013,0-.013.014s0,0,0,.006a.266.266,0,0,0-.019.03.193.193,0,0,0-.029.045.241.241,0,0,0-.026.042.245.245,0,0,1-.022.046.147.147,0,0,1-.02.037.149.149,0,0,1-.018.046.051.051,0,0,1,0,.014h0c0,.009-.008.021-.008.032a.063.063,0,0,0-.011.037.168.168,0,0,0-.013.049.264.264,0,0,0-.01.061.193.193,0,0,0-.008.073l15.03,8.731a.753.753,0,0,1,.049-.25h0A1.067,1.067,0,0,1,1108.8,2045.364Z" transform="translate(-1086.234 -2036.089)"/></g></g><g transform="translate(108.083 141.89)"><path class="v" d="M1037.755,2028.663l-.051,17.53a.363.363,0,0,1-.021.117h0a.152.152,0,0,1-.066.07l1.173-.68a.1.1,0,0,0,.049-.048c0-.01.009-.01.012-.021s0-.01,0-.013a.041.041,0,0,0,0-.021s.009,0,.009-.01v-.013c0-.012,0-.012,0-.016v-.048l.052-17.525Z" transform="translate(-1037.114 -2027.097)"/><g transform="translate(0 0.679)"><path class="w" d="M1080.195,2052.519a.554.554,0,0,1,.214.216.647.647,0,0,1,.083.3l-.051,17.863c0,.183-.127.264-.3.169a.644.644,0,0,1-.292-.512l.049-17.525-42.325-24.437-.051,17.53c0,.187-.132.261-.293.169a.657.657,0,0,1-.3-.513l.05-17.865a.2.2,0,0,1,.091-.189.208.208,0,0,1,.208.023Z" transform="translate(-1036.935 -2027.703)"/></g><path class="v" d="M1095.931,2061.8l-.051,17.864a.314.314,0,0,1-.023.118h0a.19.19,0,0,1-.064.07l1.165-.676a.084.084,0,0,0,.049-.053.042.042,0,0,0,.018-.017v-.009s0-.01,0-.01,0-.009.009-.016a.042.042,0,0,1,0-.019v-.011a.035.035,0,0,1,0-.018v-.044h0l.056-17.86Z" transform="translate(-1052.375 -2035.788)"/><path class="x" d="M1081.705,2052.076v-.014a.032.032,0,0,1,0-.016v-.013a.029.029,0,0,0,0-.017V2052s0,0,0-.016a.021.021,0,0,0,0-.013h0v0a.017.017,0,0,1,0-.009c0-.007,0-.012,0-.017s-.005-.008-.01-.013,0-.012,0-.016l0-.01h0c-.005-.005-.005-.009-.01-.013s0-.012,0-.016a.025.025,0,0,0-.007-.015c0-.006-.005-.011-.005-.016a.113.113,0,0,0-.016-.025v0a.145.145,0,0,1-.026-.034c0-.009-.009-.013-.016-.023a.139.139,0,0,0-.012-.016c-.005,0-.009-.013-.011-.013s-.007-.012-.01-.017-.008-.009-.013-.009a0,0,0,0,0-.005,0h0s0,0-.007-.009-.008-.012-.012-.012l-.011-.013s-.01,0-.019-.01,0-.01-.006-.01-.01-.01-.013-.01-.014,0-.014-.01-.007-.011-.015-.011,0,0-.012,0v0l-42.916-24.776-.009,0a.019.019,0,0,0-.013-.009s-.006,0-.012,0l-.011,0c-.005,0-.008,0-.013,0a.026.026,0,0,0-.013,0s-.009,0-.013,0-.008-.007-.011-.007h-.071c-.01,0-.011.007-.023.009s-.011,0-.02.009l-1.169.68a.163.163,0,0,1,.093-.019h0a.33.33,0,0,1,.115.042l42.91,24.775a.44.44,0,0,1,.113.09l.005,0a1.143,1.143,0,0,1,.1.122,1.013,1.013,0,0,1,.058.148v0h0a.6.6,0,0,1,.02.144l1.17-.681v-.018C1081.711,2052.085,1081.705,2052.08,1081.705,2052.076Z" transform="translate(-1036.985 -2026.782)"/></g><g transform="translate(93.067 142.184)"><g transform="translate(0 0)"><g transform="translate(15.026 8.737)"><path class="r" d="M1044.939,2039.136c.352-.207.643-.119.643.2l.034,10.138.025,9.2v.576l-8.667,5-.029-9.776,7.384-4.259-.029-10.144A1.255,1.255,0,0,1,1044.939,2039.136Z" transform="translate(-1036.947 -2039.024)"/></g><g transform="translate(0 15.453)"><path class="s" d="M1031.633,2066.639l-15.03-8.736-.024-9.775,15.026,8.734Z" transform="translate(-1016.578 -2048.128)"/></g><g transform="translate(0 11.192)"><path class="t" d="M1031.6,2055.347l-15.026-8.733,7.383-4.262,15.027,8.736Z" transform="translate(-1016.578 -2042.352)"/></g><g transform="translate(7.351 1.057)"><path class="n" d="M1041.6,2047.483l-15.027-8.735-.032-10.135,15.029,8.727Z" transform="translate(-1026.543 -2028.613)"/></g><path class="u" d="M1041.755,2036.456s.005,0,.005-.01a2.213,2.213,0,0,1,.2-.227,1.065,1.065,0,0,1,.254-.19.693.693,0,0,1,.286-.11h.008a.342.342,0,0,1,.218.036l-5.954-3.459-9.077-5.275a.286.286,0,0,0-.025-.016.174.174,0,0,1-.034-.011c-.009,0-.022,0-.033,0a.082.082,0,0,0-.042-.007.259.259,0,0,0-.041,0,.278.278,0,0,1-.043,0c0,.007,0,.007,0,.007h-.011a.453.453,0,0,0-.065.013c-.03.008-.062.019-.093.028l.013.011h0l-.013-.011-.119.059a1.561,1.561,0,0,0-.255.2c0,.005-.008.005-.008.01a.937.937,0,0,0-.079.083.741.741,0,0,1-.054.064c-.013.016-.026.039-.037.055s-.013.014-.013.018l0,0a.148.148,0,0,0-.019.027c-.012.014-.019.032-.032.05a.176.176,0,0,0-.02.041.127.127,0,0,0-.027.044.153.153,0,0,0-.016.044l-.021.039a.016.016,0,0,1,0,.012v0a.078.078,0,0,0-.008.025.436.436,0,0,0-.014.044.277.277,0,0,1-.011.047c0,.018-.008.044-.012.057,0,.03,0,.055,0,.081l15.029,8.726a.7.7,0,0,1,.05-.245v-.005A1.23,1.23,0,0,1,1041.755,2036.456Z" transform="translate(-1019.192 -2027.18)"/></g><g transform="translate(15.055 8.747)"><g transform="translate(15.026 8.734)"><path class="r" d="M1065.348,2050.985c.353-.2.647-.111.647.2l.027,10.14.029,9.2v.577l-8.665,5-.03-9.776,7.385-4.266-.031-10.133A1.285,1.285,0,0,1,1065.348,2050.985Z" transform="translate(-1057.355 -2050.878)"/></g><g transform="translate(0 15.456)"><path class="s" d="M1052.042,2078.5l-15.03-8.738-.025-9.771,15.025,8.731Z" transform="translate(-1036.986 -2059.99)"/></g><g transform="translate(0 11.19)"><path class="t" d="M1052.011,2067.2l-15.025-8.731,7.386-4.266,15.025,8.731Z" transform="translate(-1036.986 -2054.207)"/></g><g transform="translate(7.351 1.052)"><path class="n" d="M1062.011,2059.334l-15.025-8.732-.035-10.137,15.03,8.736Z" transform="translate(-1046.951 -2040.465)"/></g><path class="u" d="M1062.167,2048.314s0,0,0,0a1.347,1.347,0,0,1,.189-.228,1.654,1.654,0,0,1,.258-.2.845.845,0,0,1,.292-.1h0a.38.38,0,0,1,.224.034l-5.962-3.461-9.073-5.269a.191.191,0,0,0-.024-.014.083.083,0,0,0-.034-.012.131.131,0,0,0-.034-.009c-.011,0-.027-.007-.041-.007h-.044c-.01,0-.026.007-.04.007h-.011a.343.343,0,0,0-.07.014c-.028.011-.062.021-.092.03l.017.008h0l-.017-.008a.975.975,0,0,0-.117.06,1.555,1.555,0,0,0-.259.2h-.006a.719.719,0,0,1-.081.087.459.459,0,0,1-.055.065.273.273,0,0,1-.042.055s-.006.009-.006.018v0a.066.066,0,0,0-.021.033.2.2,0,0,0-.035.042.485.485,0,0,0-.02.045.338.338,0,0,0-.021.043c-.006.016-.016.026-.021.039a.3.3,0,0,0-.015.047s0,0-.009.009h0a.058.058,0,0,1-.008.029.449.449,0,0,1-.011.044.223.223,0,0,0-.012.051.183.183,0,0,0-.011.059.488.488,0,0,0-.007.069l15.03,8.735a.714.714,0,0,1,.05-.25v-.011A1.616,1.616,0,0,1,1062.167,2048.314Z" transform="translate(-1039.6 -2039.038)"/></g><g transform="translate(30.08 17.463)"><g transform="translate(15.03 8.732)"><path class="t" d="M1085.722,2062.8c.351-.206.644-.112.644.2l.029,10.138.025,9.2v.575l-8.664,5-.026-9.772,7.38-4.265-.03-10.13A1.278,1.278,0,0,1,1085.722,2062.8Z" transform="translate(-1077.73 -2062.69)"/></g><g transform="translate(0 15.453)"><path class="s" d="M1072.411,2090.305l-15.027-8.727-.03-9.777,15.03,8.731Z" transform="translate(-1057.355 -2071.801)"/></g><g transform="translate(0 11.187)"><path class="t" d="M1072.385,2079.015l-15.03-8.731,7.385-4.266,15.025,8.731Z" transform="translate(-1057.355 -2066.018)"/></g><g transform="translate(7.354 1.047)"><path class="n" d="M1082.38,2071.145l-15.025-8.732-.031-10.14,15.025,8.74Z" transform="translate(-1067.325 -2052.273)"/></g><path class="u" d="M1082.539,2060.124v0a1.532,1.532,0,0,1,.454-.425.767.767,0,0,1,.289-.1h0a.345.345,0,0,1,.22.034l-5.957-3.462-9.073-5.276c-.008-.008-.016-.008-.028-.012a.349.349,0,0,0-.034-.009.061.061,0,0,0-.032-.011.15.15,0,0,0-.037,0h-.047a.173.173,0,0,0-.04,0h-.014l-.066.015a.7.7,0,0,0-.1.034l.017,0h0l-.017,0a.574.574,0,0,0-.115.055,1.261,1.261,0,0,0-.258.2c-.006,0-.006,0-.01,0a.922.922,0,0,0-.073.083.265.265,0,0,0-.055.068.223.223,0,0,0-.039.051c-.005.008-.01.013-.01.018s0,0-.008,0a.075.075,0,0,1-.021.029l-.024.046a.312.312,0,0,0-.025.043.136.136,0,0,0-.02.044c-.008.016-.018.029-.021.038a.232.232,0,0,0-.018.047s0,0,0,.009v0a.074.074,0,0,0-.006.026.2.2,0,0,0-.018.043c-.005.016-.009.035-.013.044a.356.356,0,0,1-.008.065.324.324,0,0,0-.005.068l15.025,8.741a.718.718,0,0,1,.051-.251l0-.006A1.179,1.179,0,0,1,1082.539,2060.124Z" transform="translate(-1059.97 -2050.853)"/></g></g><g transform="translate(73.351 9.059)"><path class="q" d="M990.317,2013.987a.482.482,0,0,1-.465-.439c-.087-1.079,19.782-149.514,22.045-166.433a.467.467,0,0,1,.524-.4.461.461,0,0,1,.4.52c-.223,1.642-21.965,164.059-22.041,166.266a.446.446,0,0,1-.421.482Z" transform="translate(-989.851 -1846.716)"/><g transform="translate(50.99 29.514)"><path class="q" d="M1059.439,2053.491a.477.477,0,0,1-.465-.435c-.089-1.085,19.723-149.059,21.981-165.926a.46.46,0,0,1,.519-.4.465.465,0,0,1,.4.521c-.22,1.633-21.9,163.557-21.975,165.764a.44.44,0,0,1-.421.475Z" transform="translate(-1058.974 -1886.725)"/></g><g transform="translate(10.706 84.894)"><path class="q" d="M1055.674,1992.043a.434.434,0,0,1-.229-.065l-50.85-29.315a.465.465,0,0,1-.171-.63.46.46,0,0,1,.633-.17l50.848,29.315a.465.465,0,0,1-.231.865Z" transform="translate(-1004.365 -1961.799)"/></g><g transform="translate(15.698 49.164)"><path class="q" d="M1061.708,1943.223a.493.493,0,0,1-.231-.06l-50.114-28.934a.464.464,0,0,1,.462-.805l50.114,28.936a.465.465,0,0,1,.171.631A.459.459,0,0,1,1061.708,1943.223Z" transform="translate(-1011.132 -1913.363)"/></g></g><path class="k" d="M1092.734,1888.9c0,.469-.377.628-.85.356l-76.291-44.042a1.766,1.766,0,0,1-.849-1.342h0c0-.47.379-.631.849-.359l76.291,44.046a1.75,1.75,0,0,1,.85,1.342Z" transform="translate(-923.03 -1836.782)"/><path class="h" d="M1038.38,2112.854v-6.113l79.693-45.851v5.655Z" transform="translate(-929.231 -1893.839)"/><g transform="translate(111.333 149.879)"><g transform="translate(48.253)"><g transform="translate(19.374)"><g class="j"><g transform="translate(1.084 0.63)"><path class="g" d="M1143.222,2038.466l.047,16.512-8.738,5.044-.047-16.511Z" transform="translate(-1134.485 -2038.466)"/></g><g transform="translate(0 5.042)"><path class="o" d="M1134.146,2061.592l-1.082-.632-.049-16.512,1.084.632Z" transform="translate(-1133.015 -2044.448)"/></g><path class="p" d="M1134.1,2043.286l-1.084-.631,8.735-5.043,1.086.629Z" transform="translate(-1133.015 -2037.612)"/></g></g><path class="q" d="M1127.778,2046.383l-5.512,3.182a4.915,4.915,0,0,0-2.363,3.73v11.542c0,1.3,1.061,1.747,2.363.993l5.512-3.182a4.907,4.907,0,0,0,2.364-3.728v-11.538C1130.142,2046.078,1129.081,2045.634,1127.778,2046.383Zm1.931,1.25v.608l-1.715.989v-2.522C1128.955,2046.264,1129.708,2046.639,1129.708,2047.632Zm-2.148,14.711-2.307,1.335v-2.872l2.307-1.33Zm-5.045.045,2.309-1.336v2.872l-2.309,1.334Zm0-12.539,2.309-1.334v2.546l-2.309,1.333Zm5.045-.368-2.307,1.328v-2.54l2.307-1.335Zm-2.307,4.945,2.307-1.33v2.759l-2.307,1.335Zm-.429,3.011-2.309,1.334v-2.761l2.309-1.33Zm.429-3.437v-2.761l2.307-1.33v2.761Zm-.429-2.512v2.763l-2.309,1.33v-2.759Zm-2.736,4.343-1.757,1.011v-2.759l1.757-1.009Zm0,.43v2.759l-1.757,1.014v-2.763Zm0,3.186v2.765l-1.757,1.01v-2.754Zm.427-.246,2.309-1.334v2.759l-2.309,1.335Zm2.738,1.176v-2.756l2.307-1.335v2.757Zm2.74-4.339,1.715-.994v2.764l-1.715.995Zm0-.427v-2.759l1.715-.995v2.759Zm0-3.19v-2.757l1.715-1v2.762Zm-5.905-2.3v2.529l-1.757,1.011v-.611A4,4,0,0,1,1122.088,2050.116Zm-1.757,14.468v-.931l1.757-1.019v2.853C1121.106,2065.96,1120.331,2065.59,1120.331,2064.583Zm7.662-2.511v-2.846l1.715-.995v.938A4,4,0,0,1,1127.993,2062.073Z" transform="translate(-1110.201 -2039.817)"/><g transform="translate(0 11.176)"><g class="j"><g transform="translate(1.081 0.627)"><path class="g" d="M1116.958,2053.612l.042,16.51-8.737,5.044-.047-16.505Z" transform="translate(-1108.216 -2053.612)"/></g><g transform="translate(0 5.044)"><path class="o" d="M1107.878,2076.738l-1.08-.627-.046-16.51,1.081.631Z" transform="translate(-1106.751 -2059.6)"/></g><path class="p" d="M1107.832,2058.438l-1.081-.631,8.736-5.045,1.087.627Z" transform="translate(-1106.751 -2052.761)"/></g></g></g><g transform="translate(28.842 17.351)"><path class="q" d="M1101.465,2061.5l-5.513,3.181a4.893,4.893,0,0,0-2.364,3.729v11.536c0,1.305,1.058,1.753,2.364,1l5.513-3.182a4.9,4.9,0,0,0,2.362-3.729v-11.541C1103.827,2061.189,1102.767,2060.747,1101.465,2061.5Zm1.933,1.247v.6l-1.719.995v-2.52C1102.643,2061.379,1103.4,2061.752,1103.4,2062.747Zm-2.151,14.711-2.309,1.335v-2.872l2.309-1.329Zm-5.046.044,2.309-1.334v2.872l-2.309,1.335Zm0-12.533,2.309-1.334v2.54l-2.309,1.335Zm5.046-.37-2.309,1.331v-2.548l2.309-1.33Zm-2.309,4.951,2.309-1.335v2.757l-2.309,1.335Zm-.427,3-2.309,1.33v-2.758l2.309-1.331Zm.427-3.438v-2.758l2.309-1.33v2.758Zm-.427-2.506v2.756l-2.309,1.331v-2.757Zm-2.738,4.34-1.755,1.013V2069.2l1.755-1.014Zm0,.427v2.758l-1.755,1.015v-2.764Zm0,3.185v2.764l-1.755,1.01v-2.758Zm.429-.246,2.309-1.334v2.759l-2.309,1.334Zm2.736,1.179v-2.759l2.309-1.33v2.759Zm2.74-4.339,1.719-1v2.762l-1.719.989Zm0-.431v-2.764l1.719-.99v2.765Zm0-3.186v-2.763l1.719-1v2.763Zm-5.906-2.306v2.522l-1.755,1.016v-.612A3.986,3.986,0,0,1,1095.774,2065.233Zm-1.755,14.467v-.938l1.755-1.008v2.846C1094.791,2081.08,1094.018,2080.7,1094.018,2079.7Zm7.661-2.508v-2.851l1.719-.991v.935A4.008,4.008,0,0,1,1101.679,2077.193Z" transform="translate(-1083.887 -2061.133)"/><g transform="translate(0 4.977)"><g class="j"><g transform="translate(1.083 0.625)"><path class="g" d="M1090.641,2068.728l.045,16.51-8.732,5.043-.048-16.5Z" transform="translate(-1081.906 -2068.728)"/></g><g transform="translate(0 5.04)"><path class="o" d="M1081.569,2091.851l-1.087-.629-.045-16.51,1.083.633Z" transform="translate(-1080.438 -2074.712)"/></g><path class="p" d="M1081.521,2073.555l-1.083-.634,8.738-5.041,1.08.626Z" transform="translate(-1080.438 -2067.88)"/></g></g></g><g transform="translate(9.673 28.395)"><path class="q" d="M1075.477,2076.469l-5.513,3.182a4.911,4.911,0,0,0-2.362,3.729v11.541c0,1.3,1.06,1.753,2.362,1l5.513-3.181a4.91,4.91,0,0,0,2.369-3.733v-11.533C1077.846,2076.164,1076.783,2075.716,1075.477,2076.469Zm1.935,1.248v.611l-1.718,1v-2.528C1076.658,2076.352,1077.412,2076.722,1077.412,2077.717Zm-2.151,14.715-2.31,1.331V2090.9l2.31-1.334Zm-5.046.047,2.309-1.335v2.873l-2.309,1.327Zm0-12.541,2.309-1.334v2.545l-2.309,1.334Zm5.046-.371-2.31,1.336v-2.546l2.31-1.336Zm-2.31,4.951,2.31-1.334v2.762l-2.31,1.328Zm-.427,3.01-2.309,1.33V2086.1l2.309-1.334Zm.427-3.438v-2.765l2.31-1.33v2.76Zm-.427-2.512v2.765l-2.309,1.327v-2.756Zm-2.738,4.34-1.75,1.013v-2.757l1.75-1.015Zm0,.427v2.763l-1.75,1.011v-2.76Zm0,3.193v2.755l-1.75,1.017v-2.758Zm.429-.248,2.309-1.335v2.759l-2.309,1.335Zm2.736,1.179V2087.7l2.31-1.331v2.76Zm2.743-4.345,1.718-.99v2.757l-1.718,1Zm0-.429v-2.757l1.718-.989v2.755Zm0-3.186v-2.758l1.718-1v2.758Zm-5.909-2.3v2.525l-1.75,1.011v-.606A3.994,3.994,0,0,1,1069.786,2080.2Zm-1.75,14.466v-.93l1.75-1.021v2.856C1068.8,2096.049,1068.036,2095.679,1068.036,2094.67Zm7.658-2.5v-2.858l1.718-.985v.93A4.012,4.012,0,0,1,1075.694,2092.168Z" transform="translate(-1057.902 -2076.104)"/><g transform="translate(0 4.976)"><g class="j"><g transform="translate(1.084 0.632)"><path class="g" d="M1064.66,2083.706l.045,16.51-8.735,5.042-.047-16.509Z" transform="translate(-1055.923 -2083.706)"/></g><g transform="translate(0 5.044)"><path class="o" d="M1055.584,2106.827l-1.088-.63-.044-16.509,1.084.63Z" transform="translate(-1054.453 -2089.688)"/></g><path class="p" d="M1055.537,2088.524l-1.084-.63,8.735-5.044,1.087.632Z" transform="translate(-1054.453 -2082.85)"/></g></g></g><path class="q" d="M1049.213,2092.168l-5.51,3.182a4.908,4.908,0,0,0-2.364,3.727v11.546c0,1.3,1.061,1.748,2.364.994l5.51-3.181a4.921,4.921,0,0,0,2.366-3.734v-11.536C1051.579,2091.862,1050.517,2091.414,1049.213,2092.168Zm1.938,1.251v.6l-1.719.991V2092.5C1050.4,2092.051,1051.151,2092.418,1051.151,2093.42ZM1049,2108.13l-2.305,1.331v-2.872l2.305-1.325Zm-5.048.044,2.31-1.33v2.863l-2.31,1.339Zm0-12.538,2.31-1.33v2.541l-2.31,1.33Zm5.048-.37-2.305,1.33v-2.543l2.305-1.33Zm-2.305,4.951,2.305-1.33v2.757l-2.305,1.33Zm-.433,3.008-2.31,1.331V2101.8l2.31-1.331Zm.433-3.438v-2.758l2.305-1.335v2.759Zm-.433-2.513v2.763l-2.31,1.33v-2.757Zm-2.736,4.34-1.757,1.015v-2.759l1.757-1.009Zm0,.433v2.754l-1.757,1.013v-2.756Zm0,3.194v2.752l-1.757,1.015v-2.758Zm.427-.253,2.31-1.334v2.76l-2.31,1.328Zm2.743,1.179v-2.758l2.305-1.335v2.759Zm2.738-4.339,1.719-.991v2.752l-1.719.995Zm0-.435v-2.758l1.719-.99v2.753Zm0-3.186v-2.759l1.719-.99v2.754Zm-5.907-2.3v2.522l-1.757,1.012v-.607A3.988,3.988,0,0,1,1043.524,2095.905Zm-1.757,14.467v-.933l1.757-1.018v2.852C1042.542,2111.751,1041.768,2111.376,1041.768,2110.372Zm7.664-2.513v-2.847l1.719-.993v.934A4,4,0,0,1,1049.432,2107.86Z" transform="translate(-1041.34 -2051.828)"/></g><path class="g" d="M1038.38,2117.14l.066-16.608,1.631.787v14.844Z" transform="translate(-929.231 -1904.238)"/><path class="y" d="M1021.547,2051.725c-2,4.162-5.029,1.869-2.387-.363,0,0-1.252-.551,1.058-1.113Z" transform="translate(-923.918 -1891.048)"/><path class="z" d="M1020.444,2044.71l1.242,1.308.5.525,6.385-5.684,1.333-8.159.607-3.715c-4.143.43-5.38,10.243-5.38,10.243Z" transform="translate(-924.526 -1885.47)"/><path class="aa" d="M1022.128,2047.276l.5.525,6.385-5.685,1.334-8.159-.167-.179c-3,2.669-2.835,8.421-2.835,8.421A19.044,19.044,0,0,1,1022.128,2047.276Z" transform="translate(-924.967 -1886.728)"/><path class="ab" d="M1023.885,2079.158l1.789.059c.725.091.639,1.815.639,1.815l-.3.347s-2.42,2.881-3.467,2.352S1022.2,2081.382,1023.885,2079.158Z" transform="translate(-924.948 -1898.632)"/><path class="ab" d="M1019.929,2077.124l1.789.058c.724.091.639,1.816.639,1.816l-.3.345s-2.421,2.882-3.468,2.353S1018.244,2079.346,1019.929,2077.124Z" transform="translate(-923.91 -1898.097)"/><path class="ab" d="M1019.638,2058.551c.351-1.331,4.8-5.557,9.424-8.218h5.951s.56,3.781-.91,4.551-10.012,5.392-10.363,6.443-1.1,9.231-1.1,9.231a3.82,3.82,0,0,1-3.085,0S1019.288,2059.881,1019.638,2058.551Z" transform="translate(-924.267 -1891.07)"/><path class="ac" d="M1023.228,2059.728c.794-1.59,5.088-5.179,7.414-7.121,1.159-.969-1.428-3.507-1.428-3.507h9.312a10.626,10.626,0,0,1-.49,6.162c-.07.559-9.938,6.424-10.639,6.635-.1,2.571-.584,10.255-.584,10.255a5.749,5.749,0,0,1-3.335-.25C1022.919,2064.621,1022.8,2060.58,1023.228,2059.728Z" transform="translate(-925.189 -1890.747)"/><path class="z" d="M1030.406,2045.491s1.588,1.36,7.144.831c.133-.013.267-.026.4-.041l.232-.026c.649-.075,1.347-.174,2.1-.3q.375-.064.769-.139c.153-1.907.212-3.768.26-6.243.02-1.136.027-2.241.013-3.234a12.767,12.767,0,0,0-.39-4.025c-.88-1.16-2.728-2.6-6.99-3.449C1031.47,2028.371,1029.572,2034.891,1030.406,2045.491Z" transform="translate(-927.087 -1885.431)"/><path class="y" d="M1035.433,2031.016c1.56.946,3.451-1.513,3.451-1.513l-.237-2.789-.181.07-2.608,1.017v1.181s-.1.083-.224.217C1035.247,2029.606,1034.572,2030.494,1035.433,2031.016Z" transform="translate(-928.348 -1884.874)"/><path class="ad" d="M1035.855,2029.224c.587,1.135,2.3.42,2.966-2.25l-.134-.166-2.608,1.017v1.183S1035.983,2029.09,1035.855,2029.224Z" transform="translate(-928.568 -1884.899)"/><path class="y" d="M1032.732,2020.912s-.862,5.982,2.517,6.3c3.678.347,3.433-5.241,3.433-5.241l-3.553-2.082-1.435-.242Z" transform="translate(-927.723 -1883.021)"/><path class="z" d="M1032.734,2020.676a1.362,1.362,0,0,0-.382,1.243s-.946-.163-.74-2.41c.36-3.375,5.516-3.235,6.654-1.111,1.582,1.669.212,4.472.212,4.472l-1.672.4a1.34,1.34,0,0,1-.466-1.22,1.934,1.934,0,0,0-.718-1.128C1035.023,2020.484,1034.164,2021.023,1032.734,2020.676Z" transform="translate(-927.448 -1882.293)"/><path class="y" d="M1038.59,2024.815a.967.967,0,1,0,.923-1.008A.967.967,0,0,0,1038.59,2024.815Z" transform="translate(-929.285 -1884.111)"/><path class="ae" d="M1043.121,2049.491l-2.1,2.182c.648-.075,1.346-.174,2.1-.3C1043.123,2050.621,1043.122,2050,1043.121,2049.491Z" transform="translate(-929.924 -1890.849)"/><path class="aa" d="M1040.163,2048.784c.132-.012.267-.025.4-.041l3.129-6.391-1.79-4.126.663,4.126Z" transform="translate(-929.698 -1887.894)"/><path class="y" d="M1041.216,2055.455c-2,4.162-5.03,1.871-2.388-.363,0,0-1.251-.549,1.058-1.111Z" transform="translate(-929.077 -1892.027)"/><path class="z" d="M1040.09,2029.823l3.067,1.07s3.978,2.829,3.359,9.548h0a2.077,2.077,0,0,1-.276,1.32l-4.41,7.432-1.945-1.415,3.2-7.375-1.259-4.384Z" transform="translate(-929.626 -1885.69)"/><g transform="translate(88.43 153.169)"><path class="v" d="M1011.119,2043.953l-.05,17.532a.266.266,0,0,1-.024.118h0a.134.134,0,0,1-.064.069l1.171-.681a.124.124,0,0,0,.053-.05s.008-.012.013-.019a.024.024,0,0,1,0-.015s0-.013,0-.019a.023.023,0,0,0,0-.016s0,0,0-.013v-.03s0-.011,0-.011a.028.028,0,0,0,0-.014h0l.047-17.532Z" transform="translate(-1010.474 -2042.387)"/><g transform="translate(0 0.682)"><path class="w" d="M1053.563,2067.815a.539.539,0,0,1,.2.218.565.565,0,0,1,.084.29l-.051,17.858c0,.193-.126.271-.291.174a.631.631,0,0,1-.3-.512l.05-17.525-42.326-24.437-.049,17.532c0,.187-.132.26-.3.168a.665.665,0,0,1-.3-.513l.056-17.862a.182.182,0,0,1,.3-.167Z" transform="translate(-1010.293 -2042.998)"/></g><path class="v" d="M1069.292,2077.087l-.052,17.859a.351.351,0,0,1-.021.123h0a.134.134,0,0,1-.062.073l1.173-.679a.145.145,0,0,0,.05-.049.1.1,0,0,1,.007-.026h0s.007-.009.007-.012a.033.033,0,0,0,0-.017.038.038,0,0,0,0-.014.027.027,0,0,0,0-.016.018.018,0,0,1,0-.013v-.043h0l.055-17.866Z" transform="translate(-1025.734 -2051.078)"/><path class="x" d="M1055.077,2067.366s0,0,0-.014a.018.018,0,0,1-.006-.015v-.015s-.006-.009-.006-.017l0-.013v-.016a.037.037,0,0,1,0-.019h0s0,0,0,0,0-.005,0-.008,0-.013,0-.017,0-.009,0-.009a.076.076,0,0,0,0-.02l-.008-.011h0s0-.008-.009-.013l0-.013s0-.008-.006-.017,0-.011-.011-.016a.069.069,0,0,0-.011-.02v-.006a.19.19,0,0,1-.025-.039c-.008,0-.012-.015-.017-.019s-.008-.011-.012-.021a.033.033,0,0,1-.012-.013s0-.011-.01-.011-.01-.009-.01-.014l0,0h0c-.005,0-.008,0-.008-.01s-.008,0-.014-.01a.062.062,0,0,0-.013-.009.093.093,0,0,0-.012-.014c0-.008-.012-.008-.016-.011s-.008-.005-.013-.009a.092.092,0,0,0-.013-.011s-.008,0-.012-.011a.014.014,0,0,1-.011-.01h-.005l-42.911-24.776c-.01,0-.01,0-.012-.006s-.01,0-.013,0a.012.012,0,0,0-.008-.005c-.01,0-.013,0-.018,0s0,0-.008-.007h-.013a.011.011,0,0,0-.011,0,.013.013,0,0,0-.013,0c-.01,0-.01,0-.014,0h-.043c-.007,0-.012,0-.014,0a.047.047,0,0,0-.025,0s-.011,0-.016.012l-1.169.684a.107.107,0,0,1,.09-.02h0a.31.31,0,0,1,.114.039l42.919,24.777a.483.483,0,0,1,.11.089l0,0a.543.543,0,0,1,.091.125.554.554,0,0,1,.062.142v.011h0a.483.483,0,0,1,.021.136l1.173-.679v-.034Z" transform="translate(-1010.346 -2042.072)"/></g><g transform="translate(73.709 153.849)"><g transform="translate(15.031 8.734)"><path class="r" d="M1018.7,2054.943c.354-.208.645-.115.645.2l.033,10.135.021,9.206,0,.571-8.668,5-.025-9.769,7.384-4.262-.033-10.141A1.271,1.271,0,0,1,1018.7,2054.943Z" transform="translate(-1010.713 -2054.832)"/></g><g transform="translate(0 15.453)"><path class="s" d="M1005.392,2082.445l-15.024-8.727-.031-9.777,15.032,8.734Z" transform="translate(-990.336 -2063.941)"/></g><g transform="translate(0 11.192)"><path class="t" d="M1005.368,2071.16l-15.032-8.733,7.385-4.262,15.031,8.734Z" transform="translate(-990.336 -2058.165)"/></g><g transform="translate(7.354 1.055)"><path class="n" d="M1015.367,2063.293l-15.031-8.734-.03-10.137,15.028,8.729Z" transform="translate(-1000.306 -2044.423)"/></g><path class="u" d="M1015.52,2052.269a.017.017,0,0,0,0-.01,2.254,2.254,0,0,1,.191-.227,1.61,1.61,0,0,1,.259-.2.747.747,0,0,1,.287-.1h0a.335.335,0,0,1,.221.035l-5.958-3.461-9.071-5.276-.031-.013a.061.061,0,0,1-.029-.011c-.014,0-.025,0-.037-.009h-.037a.131.131,0,0,0-.046-.006.09.09,0,0,1-.038.006h0a.012.012,0,0,0-.011,0,.141.141,0,0,0-.067.016.263.263,0,0,0-.093.03l.018,0h0l-.018,0c-.036.013-.078.034-.12.052a1.559,1.559,0,0,0-.254.2.019.019,0,0,0-.009,0,.71.71,0,0,0-.078.084.514.514,0,0,0-.055.065.285.285,0,0,1-.042.058s-.008.011-.012.016v0a.1.1,0,0,0-.02.03c-.007.013-.021.031-.031.048a.162.162,0,0,1-.023.039.124.124,0,0,1-.021.046c-.01.014-.012.028-.023.043a.275.275,0,0,1-.015.039v.01l0,0a.063.063,0,0,1-.013.025.411.411,0,0,0-.007.044c-.008.016-.008.035-.014.051s-.007.034-.01.06-.006.049-.006.074l15.028,8.728a.82.82,0,0,1,.05-.25h0A1.268,1.268,0,0,1,1015.52,2052.269Z" transform="translate(-992.951 -2042.993)"/><g transform="translate(15.056 8.75)"><g transform="translate(15.032 8.732)"><path class="r" d="M1039.114,2066.806c.353-.212.646-.119.646.2l.028,10.135.025,9.2,0,.573-8.671,5.009-.022-9.783,7.378-4.263-.025-10.133A1.245,1.245,0,0,1,1039.114,2066.806Z" transform="translate(-1031.123 -2066.692)"/></g><g transform="translate(0 15.45)"><path class="s" d="M1025.8,2094.314l-15.024-8.738-.03-9.778,15.032,8.731Z" transform="translate(-1010.746 -2075.799)"/></g><g transform="translate(0 11.189)"><path class="t" d="M1025.777,2083.016l-15.032-8.732,7.383-4.262,15.027,8.73Z" transform="translate(-1010.746 -2070.023)"/></g><g transform="translate(7.36 1.05)"><path class="n" d="M1035.773,2075.146l-15.027-8.728-.023-10.14,15.026,8.736Z" transform="translate(-1020.723 -2056.278)"/></g><path class="u" d="M1035.932,2064.128a.018.018,0,0,0,0-.009,1.86,1.86,0,0,1,.19-.228,1.162,1.162,0,0,1,.259-.191.705.705,0,0,1,.287-.108s0,0,0-.007a.386.386,0,0,1,.219.042l-5.957-3.464-9.071-5.274a.071.071,0,0,0-.029-.009c-.01,0-.021-.012-.031-.016a.12.12,0,0,0-.035,0,.092.092,0,0,0-.039-.005h-.083l0,.005h-.011a.142.142,0,0,0-.069.016c-.029,0-.062.019-.095.026l.016.013h0l-.016-.013c-.033.016-.074.042-.115.061a1.58,1.58,0,0,0-.258.2s0,0,0,.009c-.029.024-.055.054-.08.078a.641.641,0,0,0-.055.069c-.011.016-.028.036-.041.055a.037.037,0,0,0-.007.02s0,0,0,.005a.042.042,0,0,0-.021.026.223.223,0,0,0-.031.048c-.008.009-.016.03-.024.043a.137.137,0,0,0-.021.046.445.445,0,0,1-.022.039.411.411,0,0,0-.015.04v.013h-.006a.1.1,0,0,1-.006.031.187.187,0,0,1-.017.042l-.013.046a.291.291,0,0,1-.008.06v.073l15.026,8.736a.751.751,0,0,1,.043-.25l.007,0A1.055,1.055,0,0,1,1035.932,2064.128Z" transform="translate(-1013.363 -2054.855)"/></g><g transform="translate(30.087 17.463)"><g transform="translate(15.027 8.73)"><path class="t" d="M1059.482,2078.613c.356-.209.649-.115.649.2l.025,10.137.03,9.206v.572l-8.667,5-.026-9.778,7.382-4.263-.029-10.134A1.279,1.279,0,0,1,1059.482,2078.613Z" transform="translate(-1051.493 -2078.501)"/></g><g transform="translate(0 15.451)"><path class="s" d="M1046.176,2106.119l-15.031-8.731-.023-9.777,15.027,8.732Z" transform="translate(-1031.122 -2087.611)"/></g><g transform="translate(0 11.185)"><path class="t" d="M1046.149,2094.826l-15.027-8.731,7.378-4.266,15.031,8.734Z" transform="translate(-1031.122 -2081.829)"/></g><g transform="translate(7.354 1.054)"><path class="n" d="M1056.146,2086.96l-15.03-8.734-.024-10.13,15.025,8.731Z" transform="translate(-1041.092 -2068.096)"/></g><path class="u" d="M1056.306,2075.941v-.005a1.139,1.139,0,0,1,.194-.228,1.464,1.464,0,0,1,.254-.2.876.876,0,0,1,.292-.11h0a.354.354,0,0,1,.221.038l-5.958-3.46-9.072-5.271a.11.11,0,0,0-.031-.013.04.04,0,0,0-.03-.012.158.158,0,0,0-.032-.009.13.13,0,0,0-.038,0h-.086s0,0,0,0h-.009a.28.28,0,0,0-.07.015.979.979,0,0,1-.094.03l.018.01h0l-.018-.01a.842.842,0,0,0-.115.059,1.7,1.7,0,0,0-.259.2s0,0-.007,0c-.026.029-.055.06-.08.089a.8.8,0,0,1-.053.062c-.015.021-.025.035-.042.055a.136.136,0,0,0-.008.021h0a.188.188,0,0,1-.022.033c-.007.015-.021.028-.028.044l-.026.043a.173.173,0,0,1-.017.043c-.006.016-.016.03-.019.042a.2.2,0,0,0-.018.043s0,0,0,.01h-.007c0,.016-.006.021-.006.029a.432.432,0,0,1-.012.044c-.005.017-.007.031-.012.046a.4.4,0,0,0-.008.056.571.571,0,0,0,0,.081l15.026,8.731a.7.7,0,0,1,.049-.25v0A1.192,1.192,0,0,1,1056.306,2075.941Z" transform="translate(-1033.738 -2066.666)"/></g></g><g transform="translate(68.061 164.85)"><path class="v" d="M983.5,2059.789l-.049,17.528a.334.334,0,0,1-.022.118h0a.176.176,0,0,1-.066.074l1.167-.68a.126.126,0,0,0,.056-.053.046.046,0,0,0,.008-.021.12.12,0,0,0,.007-.014.037.037,0,0,1,.006-.016.022.022,0,0,0,.005-.014.031.031,0,0,1,0-.021v-.009a.036.036,0,0,0,0-.016v-.035l.055-17.523Z" transform="translate(-982.859 -2058.222)"/><g transform="translate(0 0.68)"><path class="w" d="M1025.944,2083.642a.575.575,0,0,1,.2.221.582.582,0,0,1,.087.292l-.054,17.863c0,.188-.13.267-.291.167a.626.626,0,0,1-.3-.508l.045-17.528-42.319-24.434-.05,17.529c0,.182-.135.26-.3.166a.619.619,0,0,1-.294-.512l.048-17.858a.213.213,0,0,1,.091-.2.236.236,0,0,1,.209.025Z" transform="translate(-982.681 -2058.827)"/></g><path class="v" d="M1041.674,2092.918l-.054,17.863a.264.264,0,0,1-.024.12h0a.127.127,0,0,1-.059.073l1.165-.679a.084.084,0,0,0,.049-.05c0-.006.011-.011.012-.021a0,0,0,0,1,0,0h0s0-.009.008-.017v-.014a.015.015,0,0,0,.005-.013.036.036,0,0,0,0-.017s0-.009,0-.014v-.049l.049-17.859Z" transform="translate(-998.12 -2066.912)"/><path class="x" d="M1027.449,2083.2v-.035a.024.024,0,0,1,0-.016s-.005-.008-.005-.012a.026.026,0,0,0,0-.015c0-.012,0-.012,0-.016v-.016h0a.033.033,0,0,1-.005-.013c0-.01,0-.014-.007-.019a.019.019,0,0,0-.006-.016s0,0,0-.013a.021.021,0,0,1,0-.011h0c0-.006-.01-.011-.01-.016a.014.014,0,0,0,0-.008.033.033,0,0,0-.008-.017s-.005-.009-.008-.015-.007-.02-.013-.024l0,0a.119.119,0,0,0-.021-.039c0-.01-.012-.014-.016-.026s-.009-.009-.012-.009-.008-.014-.011-.014-.005-.011-.009-.016a.083.083,0,0,0-.012-.014l0,0h0a.013.013,0,0,1-.01-.012s-.008,0-.012-.009-.01-.005-.012-.013-.009-.007-.012-.011-.012-.005-.019-.005a.025.025,0,0,1-.008-.014c-.008,0-.013,0-.015-.01s-.01,0-.013,0-.008-.005-.012-.01h-.006l-42.915-24.779s0,0-.007,0-.007,0-.015-.009h-.012c0-.007-.007-.007-.007-.012a.014.014,0,0,1-.012,0h-.012a.017.017,0,0,0-.013,0s-.009,0-.012-.005h-.071a.035.035,0,0,1-.022.005.051.051,0,0,1-.021.008l-1.169.68a.3.3,0,0,1,.093-.013h0a.286.286,0,0,1,.115.039l42.916,24.774a.537.537,0,0,1,.106.092.006.006,0,0,1,.006.007.619.619,0,0,1,.091.123.579.579,0,0,1,.063.149l0,0h0a.549.549,0,0,1,.02.139l1.164-.681v-.03Z" transform="translate(-982.73 -2057.906)"/></g><g transform="translate(65.409 181.562)"><path class="af" d="M998.047,2091.471l-.063,22.721-18.9-10.917.068-22.714Z" transform="translate(-979.085 -2080.561)"/></g><path class="u" d="M969.809,2060.89l50.65,29.243-24.844-3.823L976.72,2075.4Z" transform="translate(-911.243 -1893.839)"/><g transform="translate(84.308 192.471)"><path class="ag" d="M1029.613,2099.172l-.067,22.721-24.841-3.822.063-22.722Z" transform="translate(-1004.705 -2095.35)"/></g><g transform="translate(58.5 167.051)"><path class="ah" d="M976.7,2075.4l-.067,22.715-6.909-14.509.066-22.717Z" transform="translate(-969.72 -2060.89)"/></g><g transform="translate(77.356 45.112)"><g transform="translate(57.602 50.87)"><path class="d" d="M1074.472,2008a1.108,1.108,0,0,1-.552-2.066l71.086-41.234a1.106,1.106,0,0,1,1.1,1.919l-71.086,41.231A1.07,1.07,0,0,1,1074.472,2008Z" transform="translate(-1073.366 -1964.549)"/></g><g class="j" transform="translate(0 5.284)"><path class="k" d="M1218.889,2023.329l-98.969-114.888-1.54-.892,98.97,114.885a.46.46,0,0,0,.128.1c.512.3,1.029.6,1.538.9A.476.476,0,0,1,1218.889,2023.329Z" transform="translate(-1027.572 -1904.01)"/><g transform="translate(1.537 0.896)"><path class="d" d="M1088.1,1904.121c.371-.216.7-.2.888.021l99.885,115.94a1.636,1.636,0,0,1-.292,1.818,1.855,1.855,0,0,1-.566.521.658.658,0,0,1-.87-.03L1088.175,1907.5l-88.88,223.3a2.325,2.325,0,0,1-.89,1.093.924.924,0,0,1-.533.133c-.495-.055-.654-.694-.362-1.425l89.729-225.407A2.2,2.2,0,0,1,1088.1,1904.121Z" transform="translate(-997.363 -1903.967)"/></g><path class="k" d="M1086.771,1902.82s-.009,0-.009,0c-.018-.008-.032-.018-.048-.024s-.039-.013-.055-.021a.241.241,0,0,0-.041-.007h-.011l0,0-.062-.008h-.073l-.033,0a.094.094,0,0,1-.015,0,.1.1,0,0,1-.03,0,.739.739,0,0,0-.091.021.222.222,0,0,0-.054.017.121.121,0,0,0-.034.012l-.037.015a1.61,1.61,0,0,0-.162.076,2.342,2.342,0,0,0-.306.237c0,.01-.015.012-.025.02-.037.042-.072.081-.111.123-.015.021-.032.041-.05.062-.009.005-.009.01-.013.017a.085.085,0,0,0-.017.019c-.024.031-.05.065-.07.1s-.038.054-.058.086-.038.054-.055.086-.029.059-.043.086-.03.057-.047.086-.024.059-.04.089a.573.573,0,0,1-.03.073l-89.724,225.414-.013.016c-.012.039-.021.069-.033.1a2.225,2.225,0,0,0-.063.225c-.007.031-.012.059-.018.09a.052.052,0,0,1,0,.017.148.148,0,0,1,0,.042,1.711,1.711,0,0,0,0,.319c0,.025.009.044.011.069a.774.774,0,0,0,.068.216.747.747,0,0,1,.033.073.638.638,0,0,0,.175.184q.388.22.772.443c.258.156.516.307.772.449a.554.554,0,0,1-.176-.181.355.355,0,0,1-.033-.066.741.741,0,0,1-.066-.223.509.509,0,0,1-.016-.073,1.49,1.49,0,0,1,.013-.354c0-.011,0-.017,0-.025a1.946,1.946,0,0,1,.12-.435l89.729-225.408a1.843,1.843,0,0,1,.159-.327v-.006c.062-.1.128-.2.2-.291a.058.058,0,0,1,.017-.016,1.687,1.687,0,0,1,.188-.2,1.705,1.705,0,0,1,.3-.231,1.041,1.041,0,0,1,.2-.095c.011,0,.024-.009.037-.012a.807.807,0,0,1,.17-.044h.018a.682.682,0,0,1,.17.007h.007a.433.433,0,0,1,.155.059C1087.8,1903.416,1087.282,1903.119,1086.771,1902.82Z" transform="translate(-995.28 -1902.752)"/></g><g transform="translate(81.303)"><path class="e" d="M1129.441,1906.971a1.158,1.158,0,0,1,.254-.054.183.183,0,0,1,.02,0,.759.759,0,0,1,.246.012s.008,0,.012,0a.6.6,0,0,1,.223.084l-1.535-.892,0-.007c-.028-.015-.052-.027-.078-.038s-.058-.019-.083-.03a.276.276,0,0,1-.053-.01c-.006,0-.01,0-.014,0s-.012,0-.019,0c-.031,0-.063-.01-.1-.013a.619.619,0,0,0-.1,0c-.014,0-.022,0-.034,0a.03.03,0,0,0-.021.005.45.45,0,0,0-.058,0,1.12,1.12,0,0,0-.138.027c-.022,0-.037.014-.058.019a.413.413,0,0,0-.054.02.378.378,0,0,0-.072.025c-.065.029-.139.064-.216.106l-4.414,2.549,1.536.891,4.413-2.546a1.48,1.48,0,0,1,.287-.132A.215.215,0,0,1,1129.441,1906.971Z" transform="translate(-1110.127 -1898.325)"/><path class="f" d="M1107.037,1926.8l-.007-3.548-1.536-.891.013,3.547a1.068,1.068,0,0,0,.449.989l1.53.889A1.085,1.085,0,0,1,1107.037,1926.8Z" transform="translate(-1105.495 -1902.613)"/><g transform="translate(1.535 8.585)"><path class="g" d="M1125.014,1907.441c.853-.5,1.548-.1,1.548.882l.007,3.545a3.378,3.378,0,0,1-1.531,2.664l-15.9,9.181c-.856.494-1.547.1-1.551-.88l-.007-3.547a3.377,3.377,0,0,1,1.539-2.669l4.413-2.545a2.962,2.962,0,0,0,3.54.03,9.8,9.8,0,0,0,3.532-4.113Z" transform="translate(-1107.576 -1907.227)"/></g><path class="e" d="M1107.147,1920.656c0-.012.008-.022.008-.029a3.851,3.851,0,0,1,.136-.37h0a3.079,3.079,0,0,1,.184-.365.027.027,0,0,0,.007-.011c.064-.111.138-.224.214-.331.008-.007.011-.017.02-.028a2.485,2.485,0,0,1,.229-.273c.012-.014.029-.037.045-.052.062-.066.129-.125.2-.185.034-.022.059-.054.088-.076a2.162,2.162,0,0,1,.3-.2l4.413-2.547-1.531-.893-4.417,2.551a2.433,2.433,0,0,0-.29.2c-.031.022-.054.049-.089.073-.045.045-.091.08-.137.121-.022.022-.042.048-.062.068s-.029.03-.047.049a.39.39,0,0,1-.063.063c-.041.051-.078.1-.125.153a.4.4,0,0,1-.041.061.144.144,0,0,1-.021.028c-.008.015-.025.031-.037.054-.03.041-.058.088-.093.131s-.054.086-.078.13c0,.006-.005.01-.009.015V1919a.965.965,0,0,0-.063.111.906.906,0,0,0-.065.128c-.023.043-.038.08-.06.125l0,0v0c-.018.045-.039.092-.056.142s-.039.095-.054.142c-.008.024-.014.047-.025.079a.067.067,0,0,0-.008.028c-.006.013-.01.033-.016.052-.013.057-.029.119-.043.178-.008.032-.011.069-.021.105a.179.179,0,0,1-.008.056c0,.018,0,.034,0,.052a1.761,1.761,0,0,0-.024.3l1.536.891a2.066,2.066,0,0,1,.028-.355.3.3,0,0,0,.008-.056A2.9,2.9,0,0,1,1107.147,1920.656Z" transform="translate(-1105.495 -1900.758)"/><g transform="translate(6.036 0.89)"><path class="h" d="M1118.628,1897.365c2.755-1.588,4.992.259,5,4.123a13.125,13.125,0,0,1-1.426,5.762,9.786,9.786,0,0,1-3.532,4.114,2.959,2.959,0,0,1-3.54-.03,5.245,5.245,0,0,1-1.451-4.1C1113.659,1903.374,1115.884,1898.954,1118.628,1897.365Z" transform="translate(-1113.677 -1896.796)"/></g><path class="i" d="M1113.171,1905.976c.012-.17.024-.335.049-.506.039-.3.093-.608.155-.911.024-.1.045-.209.074-.312.029-.146.062-.288.1-.431.037-.126.071-.252.108-.38l.1-.31c.047-.151.1-.3.151-.441.024-.074.047-.152.078-.227.078-.214.167-.426.259-.633.008-.022.022-.047.031-.07.08-.184.167-.368.258-.551.026-.056.053-.111.084-.169.079-.161.165-.319.253-.474.025-.041.047-.081.068-.12.108-.188.219-.369.336-.549.029-.042.061-.089.088-.134.092-.135.187-.267.282-.4.043-.057.078-.11.117-.163.1-.12.186-.239.287-.353.04-.05.082-.107.128-.158.062-.076.133-.147.2-.221.09-.1.184-.2.274-.292.138-.137.272-.263.408-.384l.078-.064c.121-.1.243-.2.363-.291.044-.029.086-.064.129-.091.151-.1.3-.2.45-.293s.268-.143.4-.207c.034-.012.058-.025.088-.037a1.249,1.249,0,0,1,.211-.08c.094-.038.188-.069.283-.1.074-.019.145-.04.22-.057.059-.012.114-.025.168-.035.09-.014.177-.027.269-.035.035,0,.066-.009.1-.011a3.007,3.007,0,0,1,.354,0c.026,0,.047.006.072.009a1.781,1.781,0,0,1,.271.045.913.913,0,0,1,.1.022,1.859,1.859,0,0,1,.25.075.617.617,0,0,0,.073.026,2.544,2.544,0,0,1,.322.156l-1.541-.891a.121.121,0,0,0-.025-.015,1.879,1.879,0,0,0-.262-.13c-.009-.007-.017-.007-.025-.013-.024-.01-.047-.014-.078-.025-.056-.019-.11-.042-.165-.056-.028-.008-.052-.013-.082-.022s-.067-.014-.1-.025a.612.612,0,0,1-.082-.018c-.058-.009-.12-.012-.188-.019-.02,0-.045,0-.069-.009s-.017,0-.027,0c-.1,0-.2,0-.3,0h-.028a.853.853,0,0,1-.1.01c-.066,0-.13.01-.2.019a.556.556,0,0,1-.074.015c-.054.01-.109.024-.167.037s-.091.017-.141.029c-.026.011-.055.022-.08.031-.091.026-.191.063-.286.1-.038.017-.083.025-.125.043-.024.011-.055.026-.08.041s-.062.026-.089.039c-.13.058-.265.127-.4.2-.15.092-.3.192-.449.3-.041.029-.083.056-.125.091-.122.086-.248.185-.367.288l-.079.066c-.123.1-.241.213-.359.327-.016.018-.028.037-.045.054-.1.089-.187.192-.284.3-.05.057-.108.111-.158.168a.38.38,0,0,1-.036.047l-.13.166c-.072.079-.142.157-.205.242-.023.034-.054.072-.076.107-.043.052-.081.109-.123.164s-.078.105-.115.162c-.059.076-.11.16-.164.239-.027.047-.058.088-.089.135-.013.02-.026.037-.039.057-.091.141-.183.292-.271.442a.259.259,0,0,0-.024.05c-.025.039-.046.08-.068.116-.052.1-.111.194-.157.293a1.521,1.521,0,0,0-.1.182c-.032.054-.06.113-.092.173-.016.041-.041.081-.057.123-.071.142-.133.28-.2.424-.012.022-.021.047-.033.068s-.008.015-.008.024c-.079.181-.155.363-.225.549-.01.024-.016.047-.026.068-.028.071-.05.144-.078.212-.037.108-.077.219-.113.327a1,1,0,0,0-.041.123c-.029.1-.063.208-.1.313-.023.079-.051.163-.072.244-.013.042-.02.089-.032.136-.038.14-.07.28-.109.418a1.89,1.89,0,0,1-.055.236c0,.031-.007.059-.01.094-.067.3-.121.6-.159.906v.017c-.021.161-.037.319-.048.478-.005.077-.017.155-.022.227-.017.246-.024.487-.024.724a5.247,5.247,0,0,0,1.46,4.1,3.436,3.436,0,0,0,.368.263l1.534.886a2.524,2.524,0,0,1-.371-.255,5.247,5.247,0,0,1-1.452-4.1c0-.239,0-.478.017-.722C1113.152,1906.124,1113.163,1906.049,1113.171,1905.976Z" transform="translate(-1107.094 -1895.59)"/></g></g></g></g><g class="ai" transform="translate(580 469)"><circle class="aj" cx="44" cy="44" r="44"/><circle class="ak" cx="44" cy="44" r="42"/></g></g></svg>