<svg xmlns="http://www.w3.org/2000/svg" xmlns:xlink="http://www.w3.org/1999/xlink" width="1366.566" height="383.771" viewBox="0 0 1366.566 383.771"><defs><style>.a{fill:#010101;}.b{clip-path:url(#a);}.c{fill:#b6214e;}.d{mix-blend-mode:overlay;isolation:isolate;}.e{fill:#fff;}.f{fill:#b32a6a;}.g{fill:#b33d66;}.h{fill:#91204f;}.i{fill:#7e193c;}.j{fill:#4e1831;}</style><clipPath id="a"><path class="a" d="M2717.207,6121.728c68.7,21.875,146.766,35.9,211.457,4.824,33.419-16.062,60.619-43.123,95.74-55.444,55.155-19.354,116.37,1.647,169,26.591s106.3,54.855,165.052,53.714a162.4,162.4,0,0,0,89.995-29.372c23.486-16.655,42.33-39.745,68.9-51.444,57.989-25.529,123.314,12.074,175.7,46.917,35.371,23.506,76.77,46.5,117.825,49.793l.047,9.4.145-382.275-259.743-1.027H2797.155l-352.647-.468,0,287.663c19.813-4.272,42.653-7.484,62.967-8.075C2579.877,6070.424,2648.5,6099.854,2717.207,6121.728Z" transform="translate(-2444.506 -5792.936)"/></clipPath></defs><g class="b" transform="translate(0 -0.001)"><path class="c" d="M2717.207,6121.728c68.7,21.875,146.766,35.9,211.457,4.824,33.419-16.062,60.619-43.123,95.74-55.444,55.155-19.354,116.37,1.647,169,26.591s106.3,54.855,165.052,53.714a162.4,162.4,0,0,0,89.995-29.372c23.486-16.655,42.33-39.745,68.9-51.444,57.989-25.529,123.314,12.074,175.7,46.917,35.371,23.506,76.77,46.5,117.825,49.793l.047,9.4,1.745-379.011s-2.165-90.009-172.728-96.01,25.318-212.608,25.318-212.608l-1220.756,2.857V6080.6c19.813-4.272,42.653-7.484,62.967-8.075C2579.877,6070.424,2648.5,6099.854,2717.207,6121.728Z" transform="translate(-2444.506 -5801.936)"/><g class="d" transform="translate(57 -5219)"><path class="e" d="M210.119,5525.623l-.351-.607a21.3,21.3,0,0,1,7.712-2.611,20.481,20.481,0,0,0,7.486-2.528c2.927-1.69,3.6-2.935,4.319-4.252.731-1.345,1.486-2.736,4.585-4.525l.215-.122.342.612-.205.116c-2.929,1.692-3.6,2.936-4.32,4.253-.731,1.345-1.487,2.736-4.586,4.525a21.308,21.308,0,0,1-7.711,2.61A20.461,20.461,0,0,0,210.119,5525.623Z"/><path class="e" d="M247.782,5507.424l-.3-.635c.526-.246,1.06-.525,1.589-.83,2.929-1.69,3.6-2.935,4.321-4.253.73-1.345,1.486-2.736,4.585-4.525a21.307,21.307,0,0,1,7.715-2.612,20.477,20.477,0,0,0,7.489-2.53l.351.607a21.3,21.3,0,0,1-7.715,2.612,20.494,20.494,0,0,0-7.489,2.53c-2.929,1.69-3.6,2.935-4.321,4.253-.73,1.345-1.486,2.736-4.585,4.525C248.877,5506.882,248.325,5507.17,247.782,5507.424Z"/></g><g class="d" transform="translate(-156 -5383)"><path class="e" d="M168.147,5605.631l-.351-.608a21.327,21.327,0,0,1,7.711-2.609,20.477,20.477,0,0,0,7.487-2.53c2.928-1.69,3.6-2.933,4.32-4.252.731-1.345,1.486-2.735,4.584-4.525a21.379,21.379,0,0,1,7.711-2.611l.176-.032.126.69-.177.032a20.463,20.463,0,0,0-7.485,2.529c-2.927,1.69-3.6,2.935-4.319,4.253-.73,1.344-1.486,2.736-4.585,4.524a21.325,21.325,0,0,1-7.713,2.611A20.453,20.453,0,0,0,168.147,5605.631Z"/><path class="e" d="M210.516,5584.271l-.51-.48a9.021,9.021,0,0,0,1.416-2.077c.73-1.345,1.486-2.735,4.585-4.525a21.333,21.333,0,0,1,7.716-2.613,20.48,20.48,0,0,0,7.488-2.529l.351.608a21.331,21.331,0,0,1-7.714,2.611,20.485,20.485,0,0,0-7.49,2.531c-2.929,1.69-3.6,2.935-4.321,4.252A9.663,9.663,0,0,1,210.516,5584.271Z"/></g><g class="d" transform="translate(125 -5351)"><path class="e" d="M636.647,5612.5l-.35-.608a21.274,21.274,0,0,1,7.713-2.61,20.515,20.515,0,0,0,7.484-2.528c2.928-1.69,3.6-2.935,4.319-4.253.731-1.345,1.487-2.736,4.585-4.524a21.288,21.288,0,0,1,7.716-2.612,20.473,20.473,0,0,0,7.487-2.53c2.929-1.689,3.606-2.934,4.321-4.253a9.844,9.844,0,0,1,4.385-4.407l.356.6a9.162,9.162,0,0,0-4.125,4.14c-.73,1.345-1.486,2.737-4.587,4.527a21.341,21.341,0,0,1-7.713,2.61,20.444,20.444,0,0,0-7.489,2.531c-2.927,1.69-3.6,2.933-4.32,4.25-.73,1.345-1.485,2.737-4.585,4.527a21.32,21.32,0,0,1-7.71,2.608A20.475,20.475,0,0,0,636.647,5612.5Z"/></g><g class="d" transform="translate(-14 -5238)"><path class="e" d="M764.558,5525.623l-.35-.607a21.3,21.3,0,0,1,7.713-2.611,20.477,20.477,0,0,0,7.485-2.528c2.927-1.69,3.6-2.935,4.32-4.252.73-1.345,1.484-2.736,4.583-4.525a21.351,21.351,0,0,1,7.715-2.612,20.463,20.463,0,0,0,7.488-2.529c2.929-1.69,3.6-2.935,4.321-4.253.731-1.345,1.487-2.736,4.586-4.525a21.308,21.308,0,0,1,7.715-2.612,20.477,20.477,0,0,0,7.489-2.53l.351.607a21.292,21.292,0,0,1-7.714,2.612,20.492,20.492,0,0,0-7.49,2.53c-2.93,1.69-3.605,2.935-4.321,4.253-.731,1.345-1.487,2.736-4.586,4.525a21.331,21.331,0,0,1-7.713,2.612,20.459,20.459,0,0,0-7.49,2.529c-2.928,1.691-3.6,2.935-4.319,4.252-.73,1.345-1.486,2.736-4.584,4.525a21.314,21.314,0,0,1-7.711,2.61A20.469,20.469,0,0,0,764.558,5525.623Z"/></g><g class="d" transform="translate(124 -5353)"><path class="e" d="M589.389,5619.472l-.351-.608a21.324,21.324,0,0,1,7.713-2.61,27.051,27.051,0,0,0,4.159-1l.228.663a27.537,27.537,0,0,1-4.262,1.022A20.427,20.427,0,0,0,589.389,5619.472Z"/><path class="e" d="M607.754,5611.919l-.521-.471a9.2,9.2,0,0,0,1.322-1.973c.73-1.345,1.486-2.736,4.585-4.526a21.335,21.335,0,0,1,7.714-2.612,20.467,20.467,0,0,0,7.489-2.529c2.928-1.69,3.6-2.935,4.32-4.253.73-1.345,1.486-2.736,4.585-4.526a21.339,21.339,0,0,1,7.715-2.611,20.483,20.483,0,0,0,7.491-2.531l.35.608a21.331,21.331,0,0,1-7.717,2.613,20.483,20.483,0,0,0-7.488,2.529c-2.928,1.69-3.6,2.935-4.321,4.252-.73,1.345-1.486,2.737-4.585,4.527a21.329,21.329,0,0,1-7.714,2.611,20.453,20.453,0,0,0-7.488,2.53c-2.928,1.69-3.605,2.935-4.32,4.252A9.913,9.913,0,0,1,607.754,5611.919Z"/></g><g class="d" transform="translate(-148 -5208)"><path class="e" d="M378.239,5511.489l-.351-.606a21.3,21.3,0,0,1,7.712-2.611,20.469,20.469,0,0,0,7.486-2.528c2.928-1.69,3.6-2.935,4.32-4.253.73-1.344,1.486-2.735,4.584-4.524a21.343,21.343,0,0,1,7.715-2.612,20.475,20.475,0,0,0,7.488-2.529c2.928-1.691,3.605-2.935,4.321-4.253.731-1.345,1.486-2.736,4.586-4.525a21.3,21.3,0,0,1,7.715-2.612,20.482,20.482,0,0,0,7.489-2.53l.35.607a21.305,21.305,0,0,1-7.715,2.612,20.47,20.47,0,0,0-7.489,2.53c-2.929,1.69-3.6,2.935-4.32,4.252-.731,1.346-1.487,2.737-4.586,4.526a21.339,21.339,0,0,1-7.714,2.612,20.463,20.463,0,0,0-7.489,2.529c-2.927,1.691-3.6,2.935-4.319,4.252-.731,1.345-1.486,2.736-4.585,4.525a21.316,21.316,0,0,1-7.712,2.61A20.481,20.481,0,0,0,378.239,5511.489Z"/></g><g class="d" transform="translate(62 -5329)"><path class="e" d="M606.431,5593.394l-.367-.6a20.553,20.553,0,0,1,7.759-2.8,19.726,19.726,0,0,0,7.524-2.7,9.721,9.721,0,0,0,4.35-4.557,10.412,10.412,0,0,1,4.6-4.836,20.577,20.577,0,0,1,7.763-2.8,19.7,19.7,0,0,0,7.526-2.705,9.712,9.712,0,0,0,4.35-4.559,10.417,10.417,0,0,1,4.607-4.835,20.573,20.573,0,0,1,7.762-2.8,19.75,19.75,0,0,0,7.528-2.706l.367.6a20.573,20.573,0,0,1-7.762,2.8,19.727,19.727,0,0,0-7.528,2.706,9.715,9.715,0,0,0-4.35,4.557,10.42,10.42,0,0,1-4.607,4.837,20.57,20.57,0,0,1-7.761,2.8,19.728,19.728,0,0,0-7.528,2.706,9.715,9.715,0,0,0-4.348,4.558,10.422,10.422,0,0,1-4.607,4.835,20.539,20.539,0,0,1-7.758,2.795A19.74,19.74,0,0,0,606.431,5593.394Z"/></g><g class="d" transform="translate(543 -5519)"><path class="e" d="M544.315,5777.015l-.351-.608a21.3,21.3,0,0,1,7.712-2.61,21.3,21.3,0,0,0,6.37-1.926l.312.627a22.143,22.143,0,0,1-6.557,1.989A20.462,20.462,0,0,0,544.315,5777.015Z"/><path class="e" d="M563.263,5768.739l-.57-.408a11.923,11.923,0,0,0,.788-1.313c.731-1.345,1.486-2.737,4.586-4.526a21.32,21.32,0,0,1,7.715-2.612,20.463,20.463,0,0,0,7.488-2.529c2.928-1.69,3.6-2.935,4.321-4.253.73-1.345,1.486-2.736,4.585-4.526a21.355,21.355,0,0,1,7.714-2.612,20.456,20.456,0,0,0,7.49-2.53l.35.608a21.341,21.341,0,0,1-7.715,2.613,20.5,20.5,0,0,0-7.489,2.529c-2.928,1.69-3.6,2.935-4.32,4.252-.73,1.345-1.486,2.737-4.585,4.527a21.351,21.351,0,0,1-7.715,2.611,20.459,20.459,0,0,0-7.488,2.53c-2.929,1.69-3.605,2.934-4.321,4.252A12.742,12.742,0,0,1,563.263,5768.739Z"/></g><g transform="translate(-2680 2321)"><g class="d" transform="translate(3060 -7830)"><path class="e" d="M469.838,5826.216l-.35-.608A21.331,21.331,0,0,1,477.2,5823a20.43,20.43,0,0,0,7.487-2.528c2.927-1.69,3.6-2.935,4.318-4.252.73-1.345,1.486-2.735,4.585-4.525a21.356,21.356,0,0,1,7.715-2.612,20.419,20.419,0,0,0,7.488-2.529c2.929-1.69,3.6-2.935,4.321-4.252a10,10,0,0,1,4.586-4.526,21.34,21.34,0,0,1,7.714-2.612,20.465,20.465,0,0,0,7.49-2.53l.351.609a21.353,21.353,0,0,1-7.716,2.611,20.442,20.442,0,0,0-7.488,2.53c-2.93,1.69-3.6,2.934-4.321,4.252-.731,1.345-1.487,2.736-4.587,4.526a21.346,21.346,0,0,1-7.714,2.612,20.444,20.444,0,0,0-7.488,2.529c-2.928,1.69-3.605,2.935-4.32,4.252-.729,1.345-1.485,2.735-4.584,4.525a21.316,21.316,0,0,1-7.712,2.61A20.444,20.444,0,0,0,469.838,5826.216Z"/></g><g class="d" transform="translate(3070 -7835)"><path class="e" d="M514.688,5820.047l-.351-.608a21.312,21.312,0,0,1,7.711-2.61,20.434,20.434,0,0,0,7.486-2.528c2.928-1.69,3.6-2.935,4.321-4.253a9,9,0,0,1,2.412-3.051l.446.542a8.277,8.277,0,0,0-2.242,2.845c-.731,1.345-1.487,2.735-4.586,4.525a21.335,21.335,0,0,1-7.712,2.61A20.416,20.416,0,0,0,514.688,5820.047Z"/><path class="e" d="M546.3,5803.6l-.125-.69a20.621,20.621,0,0,0,7.463-2.526c2.93-1.69,3.6-2.934,4.321-4.252.731-1.345,1.487-2.736,4.586-4.526a21.353,21.353,0,0,1,7.715-2.612,20.43,20.43,0,0,0,7.489-2.529l.351.608a21.361,21.361,0,0,1-7.714,2.612,20.441,20.441,0,0,0-7.49,2.529c-2.929,1.69-3.6,2.935-4.321,4.252-.731,1.345-1.487,2.737-4.586,4.527A21.245,21.245,0,0,1,546.3,5803.6Z"/></g><g class="d" transform="translate(3079 -7842)"><path class="e" d="M486.393,5854.861l-.35-.608a21.319,21.319,0,0,1,7.713-2.611,27.6,27.6,0,0,0,4.013-.945l.222.666a28.271,28.271,0,0,1-4.11.969A20.438,20.438,0,0,0,486.393,5854.861Z"/><path class="e" d="M506.2,5845.145l-.617-.334c.684-1.258,1.459-2.684,4.558-4.474a21.291,21.291,0,0,1,7.714-2.611,20.491,20.491,0,0,0,7.489-2.53c2.928-1.69,3.6-2.935,4.32-4.252.73-1.345,1.486-2.736,4.585-4.526a21.343,21.343,0,0,1,7.715-2.612,20.455,20.455,0,0,0,7.489-2.531l.351.608a21.341,21.341,0,0,1-7.714,2.612,20.448,20.448,0,0,0-7.49,2.531c-2.928,1.69-3.6,2.935-4.321,4.252-.73,1.345-1.486,2.736-4.585,4.526a21.327,21.327,0,0,1-7.714,2.612,20.457,20.457,0,0,0-7.488,2.529C507.568,5842.635,506.875,5843.912,506.2,5845.145Z"/></g></g><g transform="translate(-2376 2265)"><g class="d" transform="translate(3060 -7830)"><path class="e" d="M469.838,5826.216l-.35-.608A21.331,21.331,0,0,1,477.2,5823a20.43,20.43,0,0,0,7.487-2.528c2.927-1.69,3.6-2.935,4.318-4.252.73-1.345,1.486-2.735,4.585-4.525a21.356,21.356,0,0,1,7.715-2.612,20.419,20.419,0,0,0,7.488-2.529c2.929-1.69,3.6-2.935,4.321-4.252a10,10,0,0,1,4.586-4.526,21.34,21.34,0,0,1,7.714-2.612,20.465,20.465,0,0,0,7.49-2.53l.351.609a21.353,21.353,0,0,1-7.716,2.611,20.442,20.442,0,0,0-7.488,2.53c-2.93,1.69-3.6,2.934-4.321,4.252-.731,1.345-1.487,2.736-4.587,4.526a21.346,21.346,0,0,1-7.714,2.612,20.444,20.444,0,0,0-7.488,2.529c-2.928,1.69-3.605,2.935-4.32,4.252-.729,1.345-1.485,2.735-4.584,4.525a21.316,21.316,0,0,1-7.712,2.61A20.444,20.444,0,0,0,469.838,5826.216Z"/></g><g class="d" transform="translate(3070 -7835)"><path class="e" d="M514.688,5820.047l-.351-.608a21.312,21.312,0,0,1,7.711-2.61,20.434,20.434,0,0,0,7.486-2.528c2.928-1.69,3.6-2.935,4.321-4.253a9,9,0,0,1,2.412-3.051l.446.542a8.277,8.277,0,0,0-2.242,2.845c-.731,1.345-1.487,2.735-4.586,4.525a21.335,21.335,0,0,1-7.712,2.61A20.416,20.416,0,0,0,514.688,5820.047Z"/><path class="e" d="M546.3,5803.6l-.125-.69a20.621,20.621,0,0,0,7.463-2.526c2.93-1.69,3.6-2.934,4.321-4.252.731-1.345,1.487-2.736,4.586-4.526a21.353,21.353,0,0,1,7.715-2.612,20.43,20.43,0,0,0,7.489-2.529l.351.608a21.361,21.361,0,0,1-7.714,2.612,20.441,20.441,0,0,0-7.49,2.529c-2.929,1.69-3.6,2.935-4.321,4.252-.731,1.345-1.487,2.737-4.586,4.527A21.245,21.245,0,0,1,546.3,5803.6Z"/></g><g class="d" transform="translate(3079 -7842)"><path class="e" d="M486.393,5854.861l-.35-.608a21.319,21.319,0,0,1,7.713-2.611,27.6,27.6,0,0,0,4.013-.945l.222.666a28.271,28.271,0,0,1-4.11.969A20.438,20.438,0,0,0,486.393,5854.861Z"/><path class="e" d="M506.2,5845.145l-.617-.334c.684-1.258,1.459-2.684,4.558-4.474a21.291,21.291,0,0,1,7.714-2.611,20.491,20.491,0,0,0,7.489-2.53c2.928-1.69,3.6-2.935,4.32-4.252.73-1.345,1.486-2.736,4.585-4.526a21.343,21.343,0,0,1,7.715-2.612,20.455,20.455,0,0,0,7.489-2.531l.351.608a21.341,21.341,0,0,1-7.714,2.612,20.448,20.448,0,0,0-7.49,2.531c-2.928,1.69-3.6,2.935-4.321,4.252-.73,1.345-1.486,2.736-4.585,4.526a21.327,21.327,0,0,1-7.714,2.612,20.457,20.457,0,0,0-7.488,2.529C507.568,5842.635,506.875,5843.912,506.2,5845.145Z"/></g></g><g transform="translate(-2680 2321)"><g class="d" transform="translate(2666 -7729)"><path class="e" d="M484.551,5711.022l-.351-.608a21.3,21.3,0,0,1,7.712-2.61,20.46,20.46,0,0,0,7.487-2.528c2.928-1.69,3.6-2.934,4.319-4.251.73-1.346,1.486-2.736,4.584-4.526a21.317,21.317,0,0,1,7.714-2.612,20.462,20.462,0,0,0,7.488-2.529c2.93-1.69,3.6-2.935,4.321-4.253a10.007,10.007,0,0,1,4.586-4.526,19.659,19.659,0,0,1,6.584-2.4l.134.687a19.02,19.02,0,0,0-6.367,2.321c-2.928,1.692-3.6,2.935-4.321,4.253-.731,1.346-1.486,2.736-4.586,4.526a21.33,21.33,0,0,1-7.714,2.611,20.483,20.483,0,0,0-7.489,2.53c-2.926,1.69-3.6,2.935-4.318,4.252-.731,1.345-1.486,2.736-4.585,4.525a21.314,21.314,0,0,1-7.711,2.61A20.424,20.424,0,0,0,484.551,5711.022Z"/></g><g class="d" transform="translate(2666 -7729)"><path class="e" d="M516.258,5672.045l-.35-.608a21.312,21.312,0,0,1,7.711-2.61,20.427,20.427,0,0,0,7.487-2.528c2.928-1.69,3.6-2.934,4.32-4.251.73-1.346,1.486-2.736,4.583-4.526a21.337,21.337,0,0,1,7.715-2.612,20.474,20.474,0,0,0,7.488-2.529c2.929-1.69,3.605-2.935,4.321-4.253a10.007,10.007,0,0,1,4.586-4.526,21.325,21.325,0,0,1,7.714-2.611,20.455,20.455,0,0,0,7.49-2.53l.351.608a21.347,21.347,0,0,1-7.714,2.612,20.459,20.459,0,0,0-7.49,2.529c-2.928,1.692-3.6,2.935-4.321,4.253-.731,1.346-1.486,2.736-4.586,4.526a21.335,21.335,0,0,1-7.715,2.611,20.485,20.485,0,0,0-7.488,2.53c-2.927,1.69-3.6,2.935-4.318,4.252-.731,1.345-1.486,2.736-4.585,4.525a21.338,21.338,0,0,1-7.712,2.61A20.449,20.449,0,0,0,516.258,5672.045Z"/></g><g class="d" transform="translate(2666 -7729)"><path class="e" d="M437.292,5718l-.35-.608a21.321,21.321,0,0,1,7.713-2.611,20.477,20.477,0,0,0,7.485-2.528c2.928-1.69,3.6-2.935,4.319-4.252a9.609,9.609,0,0,1,1.542-2.246l.51.482a8.988,8.988,0,0,0-1.436,2.1c-.73,1.345-1.486,2.736-4.585,4.526a21.311,21.311,0,0,1-7.711,2.609A20.468,20.468,0,0,0,437.292,5718Z"/><path class="e" d="M472.688,5700.68l-.212-.669a18.879,18.879,0,0,0,3.77-1.68c2.928-1.691,3.605-2.935,4.32-4.252.731-1.346,1.487-2.736,4.587-4.526a21.341,21.341,0,0,1,7.714-2.612,20.454,20.454,0,0,0,7.49-2.531l.351.608a21.347,21.347,0,0,1-7.716,2.612,20.464,20.464,0,0,0-7.489,2.531c-2.929,1.69-3.6,2.935-4.321,4.252-.73,1.345-1.486,2.736-4.585,4.526A19.687,19.687,0,0,1,472.688,5700.68Z"/></g><g class="d" transform="translate(2666 -7729)"><path class="e" d="M454.335,5691.916l-.367-.6a20.56,20.56,0,0,1,7.759-2.795,19.709,19.709,0,0,0,7.524-2.7,9.714,9.714,0,0,0,4.349-4.559,10.424,10.424,0,0,1,4.606-4.836,20.58,20.58,0,0,1,7.761-2.8,19.73,19.73,0,0,0,7.528-2.706,9.718,9.718,0,0,0,4.349-4.558,10.668,10.668,0,0,1,1.419-2.249l.534.455a10.041,10.041,0,0,0-1.328,2.113,10.423,10.423,0,0,1-4.607,4.836,20.6,20.6,0,0,1-7.762,2.8,19.716,19.716,0,0,0-7.527,2.7,9.718,9.718,0,0,0-4.348,4.558,10.428,10.428,0,0,1-4.607,4.837,20.545,20.545,0,0,1-7.758,2.795A19.754,19.754,0,0,0,454.335,5691.916Z"/><path class="e" d="M509.148,5659.658l-.142-.687c.4-.084.8-.162,1.2-.239a19.716,19.716,0,0,0,7.53-2.706l.368.6a20.567,20.567,0,0,1-7.765,2.8C509.946,5659.5,509.549,5659.573,509.148,5659.658Z"/></g></g><g class="d" transform="translate(-73 -5372)"><path class="e" d="M235.336,5625.889l-.35-.608a21.294,21.294,0,0,1,7.711-2.608c1.02-.185,2.074-.376,3.17-.685l.19.673a32.909,32.909,0,0,1-3.234.7A20.478,20.478,0,0,0,235.336,5625.889Z"/><path class="e" d="M253.968,5618.027l-.543-.444a10.07,10.07,0,0,0,1.077-1.691c.731-1.345,1.486-2.736,4.586-4.526a21.322,21.322,0,0,1,7.713-2.61,20.473,20.473,0,0,0,7.49-2.531c2.928-1.69,3.6-2.935,4.32-4.252.731-1.345,1.486-2.735,4.586-4.525a21.319,21.319,0,0,1,7.716-2.613,20.481,20.481,0,0,0,7.488-2.529l.351.608a21.341,21.341,0,0,1-7.714,2.611,20.456,20.456,0,0,0-7.49,2.531c-2.929,1.69-3.605,2.935-4.321,4.252-.731,1.345-1.487,2.735-4.586,4.525a21.324,21.324,0,0,1-7.715,2.612,20.464,20.464,0,0,0-7.487,2.529c-2.929,1.691-3.6,2.935-4.32,4.252A10.9,10.9,0,0,1,253.968,5618.027Z"/></g><g class="d" transform="translate(-73 -5372)"><path class="e" d="M267.044,5586.913l-.351-.609a21.337,21.337,0,0,1,7.712-2.61,26.419,26.419,0,0,0,4.285-1.037l.233.661a26.823,26.823,0,0,1-4.393,1.066A20.459,20.459,0,0,0,267.044,5586.913Z"/><path class="e" d="M286.485,5577.866l-.607-.351c.116-.2.224-.4.333-.6.73-1.345,1.486-2.736,4.585-4.526a21.316,21.316,0,0,1,7.713-2.61,20.462,20.462,0,0,0,7.489-2.531c2.928-1.69,3.605-2.935,4.32-4.252.732-1.345,1.487-2.735,4.587-4.525.483-.279.963-.533,1.463-.774l.3.633c-.485.231-.947.477-1.416.748-2.929,1.691-3.605,2.936-4.321,4.253a10.007,10.007,0,0,1-4.586,4.525,21.315,21.315,0,0,1-7.715,2.612,20.468,20.468,0,0,0-7.488,2.529c-2.928,1.691-3.6,2.935-4.319,4.252C286.715,5577.455,286.6,5577.66,286.485,5577.866Z"/></g><g class="d" transform="translate(128 -5252)"><path class="e" d="M185.533,5555.857l-.351-.608a21.311,21.311,0,0,1,7.712-2.611,20.446,20.446,0,0,0,7.486-2.527c2.928-1.691,3.6-2.936,4.32-4.253.73-1.345,1.485-2.736,4.584-4.524a21.284,21.284,0,0,1,7.715-2.612,20.511,20.511,0,0,0,7.488-2.529c2.928-1.691,3.6-2.936,4.32-4.253.731-1.346,1.487-2.736,4.586-4.526a21.345,21.345,0,0,1,7.715-2.612,20.483,20.483,0,0,0,7.49-2.529l.35.606a21.331,21.331,0,0,1-7.715,2.613,20.461,20.461,0,0,0-7.489,2.529c-2.929,1.691-3.6,2.936-4.321,4.253-.731,1.346-1.487,2.736-4.586,4.526a21.308,21.308,0,0,1-7.713,2.611,20.477,20.477,0,0,0-7.489,2.53c-2.928,1.69-3.6,2.934-4.32,4.252-.73,1.345-1.486,2.735-4.584,4.525a21.317,21.317,0,0,1-7.712,2.611A20.4,20.4,0,0,0,185.533,5555.857Z"/></g><g class="d" transform="translate(-73 -5372)"><path class="e" d="M188.078,5632.863l-.35-.608a21.31,21.31,0,0,1,7.711-2.611,20.4,20.4,0,0,0,7.486-2.528c2.928-1.69,3.6-2.934,4.32-4.252.73-1.345,1.485-2.735,4.584-4.525a21.329,21.329,0,0,1,7.714-2.611,20.44,20.44,0,0,0,7.489-2.53c2.929-1.69,3.6-2.934,4.32-4.252.731-1.345,1.487-2.736,4.586-4.526a21.362,21.362,0,0,1,7.715-2.612,20.456,20.456,0,0,0,7.49-2.531l.351.609a21.348,21.348,0,0,1-7.715,2.611,20.473,20.473,0,0,0-7.49,2.531c-2.929,1.69-3.6,2.935-4.321,4.252-.731,1.345-1.487,2.736-4.586,4.526a21.327,21.327,0,0,1-7.714,2.612,20.463,20.463,0,0,0-7.488,2.529c-2.927,1.69-3.6,2.935-4.32,4.253-.73,1.345-1.485,2.735-4.584,4.525a21.335,21.335,0,0,1-7.712,2.61A20.426,20.426,0,0,0,188.078,5632.863Z"/></g><g class="d" transform="translate(-150 -5390)"><path class="e" d="M205.121,5606.785l-.367-.6a20.574,20.574,0,0,1,7.759-2.8,19.711,19.711,0,0,0,7.524-2.7,9.7,9.7,0,0,0,4.348-4.558,10.419,10.419,0,0,1,4.606-4.835,20.577,20.577,0,0,1,7.763-2.8,19.742,19.742,0,0,0,7.527-2.705,9.714,9.714,0,0,0,4.349-4.559,10.422,10.422,0,0,1,4.607-4.837,20.565,20.565,0,0,1,7.762-2.8,19.761,19.761,0,0,0,7.528-2.706l.367.6a20.565,20.565,0,0,1-7.762,2.8,19.758,19.758,0,0,0-7.528,2.706,9.714,9.714,0,0,0-4.349,4.559,10.423,10.423,0,0,1-4.608,4.837,20.572,20.572,0,0,1-7.76,2.8,19.694,19.694,0,0,0-7.528,2.706,9.706,9.706,0,0,0-4.349,4.557,10.41,10.41,0,0,1-4.606,4.836,20.556,20.556,0,0,1-7.758,2.795A19.72,19.72,0,0,0,205.121,5606.785Z"/></g><g transform="translate(-1831 2338)"><g class="d" transform="translate(2666 -7729)"><path class="e" d="M484.551,5711.022l-.351-.608a21.3,21.3,0,0,1,7.712-2.61,20.46,20.46,0,0,0,7.487-2.528c2.928-1.69,3.6-2.934,4.319-4.251.73-1.346,1.486-2.736,4.584-4.526a21.317,21.317,0,0,1,7.714-2.612,20.462,20.462,0,0,0,7.488-2.529c2.93-1.69,3.6-2.935,4.321-4.253a10.007,10.007,0,0,1,4.586-4.526,19.659,19.659,0,0,1,6.584-2.4l.134.687a19.02,19.02,0,0,0-6.367,2.321c-2.928,1.692-3.6,2.935-4.321,4.253-.731,1.346-1.486,2.736-4.586,4.526a21.33,21.33,0,0,1-7.714,2.611,20.483,20.483,0,0,0-7.489,2.53c-2.926,1.69-3.6,2.935-4.318,4.252-.731,1.345-1.486,2.736-4.585,4.525a21.314,21.314,0,0,1-7.711,2.61A20.424,20.424,0,0,0,484.551,5711.022Z"/></g><g class="d" transform="translate(2666 -7729)"><path class="e" d="M516.258,5672.045l-.35-.608a21.312,21.312,0,0,1,7.711-2.61,20.427,20.427,0,0,0,7.487-2.528c2.928-1.69,3.6-2.934,4.32-4.251.73-1.346,1.486-2.736,4.583-4.526a21.337,21.337,0,0,1,7.715-2.612,20.474,20.474,0,0,0,7.488-2.529c2.929-1.69,3.605-2.935,4.321-4.253a10.007,10.007,0,0,1,4.586-4.526,21.325,21.325,0,0,1,7.714-2.611,20.455,20.455,0,0,0,7.49-2.53l.351.608a21.347,21.347,0,0,1-7.714,2.612,20.459,20.459,0,0,0-7.49,2.529c-2.928,1.692-3.6,2.935-4.321,4.253-.731,1.346-1.486,2.736-4.586,4.526a21.335,21.335,0,0,1-7.715,2.611,20.485,20.485,0,0,0-7.488,2.53c-2.927,1.69-3.6,2.935-4.318,4.252-.731,1.345-1.486,2.736-4.585,4.525a21.338,21.338,0,0,1-7.712,2.61A20.449,20.449,0,0,0,516.258,5672.045Z"/></g><g class="d" transform="translate(2666 -7729)"><path class="e" d="M437.292,5718l-.35-.608a21.321,21.321,0,0,1,7.713-2.611,20.477,20.477,0,0,0,7.485-2.528c2.928-1.69,3.6-2.935,4.319-4.252a9.609,9.609,0,0,1,1.542-2.246l.51.482a8.988,8.988,0,0,0-1.436,2.1c-.73,1.345-1.486,2.736-4.585,4.526a21.311,21.311,0,0,1-7.711,2.609A20.468,20.468,0,0,0,437.292,5718Z"/><path class="e" d="M472.688,5700.68l-.212-.669a18.879,18.879,0,0,0,3.77-1.68c2.928-1.691,3.605-2.935,4.32-4.252.731-1.346,1.487-2.736,4.587-4.526a21.341,21.341,0,0,1,7.714-2.612,20.454,20.454,0,0,0,7.49-2.531l.351.608a21.347,21.347,0,0,1-7.716,2.612,20.464,20.464,0,0,0-7.489,2.531c-2.929,1.69-3.6,2.935-4.321,4.252-.73,1.345-1.486,2.736-4.585,4.526A19.687,19.687,0,0,1,472.688,5700.68Z"/></g><g class="d" transform="translate(2666 -7729)"><path class="e" d="M454.335,5691.916l-.367-.6a20.56,20.56,0,0,1,7.759-2.795,19.709,19.709,0,0,0,7.524-2.7,9.714,9.714,0,0,0,4.349-4.559,10.424,10.424,0,0,1,4.606-4.836,20.58,20.58,0,0,1,7.761-2.8,19.73,19.73,0,0,0,7.528-2.706,9.718,9.718,0,0,0,4.349-4.558,10.668,10.668,0,0,1,1.419-2.249l.534.455a10.041,10.041,0,0,0-1.328,2.113,10.423,10.423,0,0,1-4.607,4.836,20.6,20.6,0,0,1-7.762,2.8,19.716,19.716,0,0,0-7.527,2.7,9.718,9.718,0,0,0-4.348,4.558,10.428,10.428,0,0,1-4.607,4.837,20.545,20.545,0,0,1-7.758,2.795A19.754,19.754,0,0,0,454.335,5691.916Z"/><path class="e" d="M509.148,5659.658l-.142-.687c.4-.084.8-.162,1.2-.239a19.716,19.716,0,0,0,7.53-2.706l.368.6a20.567,20.567,0,0,1-7.765,2.8C509.946,5659.5,509.549,5659.573,509.148,5659.658Z"/></g></g><g transform="matrix(1, -0.017, 0.017, 1, -97.925, -5473.223)"><path class="f" d="M207.892,5700.248a8.1,8.1,0,0,0,4.094-5.271c.414-1.449.719-2.817,2.037-3.753,1.441-1.022,3.82-1.057,4.329,1,.349,1.407-.734,2.674-.953,4-.373,2.25.771,3.977-.055,6.278a7.792,7.792,0,0,1-6.39,5.1c-2.882.465-5.256.161-7.85,1.8-1.039.659-1.693,1.253-3,1.121-2.561-.26-4.8-3.216-3.56-5.291C199.972,5699.467,206.473,5701.03,207.892,5700.248Z" transform="translate(-92.755 -31.851)"/><path class="g" d="M162.79,5768.593c14.65-4.818,28.725-2.04,31.438,6.205s-6.966,18.837-21.617,23.655-28.725,2.04-31.437-6.206S148.139,5773.412,162.79,5768.593Z" transform="translate(36.629 -79.421)"/><path class="g" d="M205.472,5628.445c13.258,8.583,4.919,19.363,4.919,19.363a19.941,19.941,0,0,0-9.069-15.238c-6.666-4.419-19.487-5.492-19.487-5.492S192.215,5619.863,205.472,5628.445Z" transform="translate(-88.106 -10.382)"/><path class="g" d="M63.563,5676.684s-.2,7.313,4.922,10.265a31.946,31.946,0,0,0,8.948,3.267s-9.6,6.059-14.758-1.936C57.834,5680.773,63.563,5676.684,63.563,5676.684Z" transform="translate(-48.888 -27.364)"/><path class="g" d="M152.08,5827.634c11.051,1.873,21.086-3.747,21.871-4,0,0-9.62,10.41-21.458,9.667s-16.923-10.811-16.923-10.811S141.029,5825.762,152.08,5827.634Z" transform="translate(38.296 -97.639)"/><path class="g" d="M237.515,5810.924c7.781-8.066,10.23-13.944,10.23-13.944s1.884,11.119-7.2,18.745-23.006,4.958-23.006,4.958C218.32,5820.425,229.733,5818.991,237.515,5810.924Z" transform="translate(11.753 -89.38)"/><path class="g" d="M147.694,5709.651c11.051,1.873,21.086-3.746,21.871-4,0,0-9.62,10.41-21.459,9.666s-16.922-10.811-16.922-10.811S136.643,5707.778,147.694,5709.651Z" transform="translate(-71.703 -36.373)"/><path class="g" d="M117.852,5714.065c8.407,5.228,18.492,4.23,18.492,4.23a19.77,19.77,0,0,1-21.5-.339c-11.414-7.383-7.424-17.1-7.424-17.1A24.167,24.167,0,0,0,117.852,5714.065Z" transform="translate(-63.788 -35.191)"/><path class="g" d="M229.6,5762.174a10.664,10.664,0,0,1-3.2,14.75c1.895-4.246.625-8.975-2.36-12.508-2.615-3.095-4.657-5.909-11.481-8.2C218.9,5754.732,226.013,5756.3,229.6,5762.174Z" transform="translate(13.366 -76.009)"/><path class="g" d="M231.279,5749.632c-.528-3.568-3.37-5.358-6.39-6.7a21.631,21.631,0,0,0-9.074-1.781C228.99,5736.815,235.882,5740.733,231.279,5749.632Z" transform="translate(12.31 -70.726)"/><path class="g" d="M221.992,5623.6c-.528-3.568-3.371-5.359-6.39-6.7a21.63,21.63,0,0,0-9.074-1.78C219.7,5610.787,226.595,5614.705,221.992,5623.6Z" transform="translate(-96.102 -6.854)"/><path class="f" d="M83.842,5633.862c16.694-13.922,22.459-7.746,35.9-4.615,10.048,2.341,22.4,1.417,32.1,5.484,3.442,1.443,7.128,3.732,8.719,7.271a6.279,6.279,0,0,1,.415,4.529c-.67,2.019-2.287,2.237-.753,5.275.453.9,1.444,1.568,2.014,2.4,2.353,3.447.483,6.083-1.507,9.2-1.629,2.554-11.706,5.673-13.656,7.981-4.633,5.481-13.539,6.662-18.258,5.971-12.124-1.776-16.431-7.141-18.6-8.182a22.321,22.321,0,0,0-6.144-1.75c-4.2-.671-8.494-.65-12.659-1.558-3.077-.67-7.229-1.739-8.235-5.121-.489-1.643-.1-3.561-1.331-5.012a7,7,0,0,0-2.616-1.312c-6.195-2.473-4.569-6.057-4.466-7.694C75.048,5642.207,80.853,5636.355,83.842,5633.862Z" transform="translate(-53.345 -10.674)"/><path class="h" d="M100.462,5639.011c3.374-1.917,7.268-2.387,11.088-2.372,8.369.033,15.578,1.694,23.886,2.687,4.355.521,15.767,1.042,16.418,6.531.335,2.817-1.93,3.971.027,6.377.7.858,2.989,1.94,3.945,2.551,3.635,2.319,3.843,4.772-1.273,8.137-3.371,2.217-6.053,2.75-6.918,4.2-1.331,2.232-.673,4.413-1.346,5.547-2.717,4.584-10.067,3.53-14.457,2.37-7.425-1.963-10.423-4.444-17.726-6.632-3.311-.991-6.877-1.7-10.061-3.052-2.906-1.239-2.93-3.26-4.748-5.538-2.54-3.186-9.549-3.27-10.12-9.161C88.713,5645.866,97.885,5640.475,100.462,5639.011Z" transform="translate(-58.094 -14.396)"/><path class="f" d="M143.053,5757.782a6.438,6.438,0,0,1,5.808-.847c2.908-3.495,6.07-2.767,7.5-1.774a5.093,5.093,0,0,1,9.191-2.533,6.063,6.063,0,0,1,10.4,2.989,5.207,5.207,0,0,1,7.4,5.805,4.955,4.955,0,0,1,5.1,3.338c-.319,1.779-1.467,3.246-5.057,4.01.3,5.134-8.519,7.139-10.636,3.065-2.649,3.322-8.9,5.381-11.854-.052a4.086,4.086,0,0,1-7.726-1.516c-4,2.428-7.026-1.256-6.034-4.422-5.112,1.239-6.528-3.063-6.923-4.974A8.237,8.237,0,0,1,143.053,5757.782Z" transform="translate(36.787 -74.336)"/><path class="h" d="M141.166,5773.743a4.814,4.814,0,0,1-2.638-4.167,7.291,7.291,0,0,1,.776-3.749c.395,1.91,1.81,6.213,6.923,4.974-.992,3.166,2.037,6.85,6.034,4.422a4.086,4.086,0,0,0,7.726,1.516c2.952,5.433,9.205,3.374,11.854.052,2.117,4.074,10.941,2.068,10.636-3.065,3.59-.765,4.738-2.231,5.057-4.01a5.073,5.073,0,0,1-.6,4.438,4.936,4.936,0,0,1,1.379,2.782c-1.431,2.643-4.572,3.808-7.766,4.806.122,2.133-3.089,5.146-6.615,3.474-1.878,3.333-7.413,4.327-9.728,1.674-1.41,4.436-8.378,4.069-9.821.154-3,2.328-7.69,1.483-8.549-3.379a9.733,9.733,0,0,1-8.259-1.8,6.213,6.213,0,0,1-.151-.712C137.017,5778.081,138.786,5775.449,141.166,5773.743Z" transform="translate(37.714 -79.291)"/><path class="i" d="M137.68,5787.186a9.733,9.733,0,0,0,8.259,1.8c.859,4.863,5.545,5.707,8.549,3.379,1.442,3.915,8.41,4.282,9.821-.154,2.315,2.653,7.85,1.658,9.728-1.675,3.526,1.673,6.737-1.341,6.615-3.474,3.194-1,6.336-2.163,7.766-4.806a6.025,6.025,0,0,1-.713,3.849c-1.7,3.042-5.407,3.878-8.629,4.326a9.275,9.275,0,0,1-13.571,6.655,7.883,7.883,0,0,1-13.627.306c-3.042,1.617-7.092,2.676-9.643-.347a4.057,4.057,0,0,1-.06-5.223A6.452,6.452,0,0,1,137.68,5787.186Z" transform="translate(37.613 -84.612)"/><g transform="translate(180.088 5679.413)"><path class="j" d="M169.164,5793.354a8.417,8.417,0,0,0-.016-1.363.183.183,0,0,1,.3-.144,2.25,2.25,0,0,1-.183,3.081.321.321,0,0,1-.488-.331C168.857,5794.168,169.1,5793.793,169.164,5793.354Z" transform="translate(-152.544 -5767.114)"/><path class="j" d="M194.611,5788.246a8.419,8.419,0,0,0-.017-1.363.183.183,0,0,1,.3-.145,2.25,2.25,0,0,1-.183,3.081.322.322,0,0,1-.488-.332C194.3,5789.06,194.547,5788.685,194.611,5788.246Z" transform="translate(-160.784 -5765.46)"/><path class="j" d="M188.285,5757.016a3.783,3.783,0,0,0-.664-1.333.252.252,0,0,1,.26-.382c1.347.379,2.037,2.583.957,3.564a.379.379,0,0,1-.647-.327A5.072,5.072,0,0,0,188.285,5757.016Z" transform="translate(-158.635 -5755.292)"/><path class="j" d="M201.294,5770.859c.5.175.9.548,1.412.725.458.159,1.106.1,1.469.438a.263.263,0,0,1,.022.365c-.79.814-2.892-.351-3.113-1.294C201.057,5770.977,201.152,5770.81,201.294,5770.859Z" transform="translate(-163.006 -5760.33)"/><path class="j" d="M164.219,5760.639c.5.175.9.547,1.412.725.457.158,1.1.1,1.469.438a.262.262,0,0,1,.022.365c-.789.814-2.892-.351-3.113-1.294C163.982,5760.755,164.077,5760.588,164.219,5760.639Z" transform="translate(-151 -5757.021)"/><path class="j" d="M175.584,5764.781c.5.175.9.547,1.413.725.458.158,1.1.1,1.469.438a.261.261,0,0,1,.022.364c-.789.814-2.892-.351-3.113-1.294C175.348,5764.9,175.442,5764.73,175.584,5764.781Z" transform="translate(-154.68 -5758.362)"/><path class="j" d="M155.773,5789.962c.5.175.9.548,1.412.725.458.158,1.106.1,1.469.438a.262.262,0,0,1,.022.365c-.789.813-2.892-.352-3.113-1.294C155.536,5790.079,155.631,5789.913,155.773,5789.962Z" transform="translate(-148.265 -5766.516)"/><path class="j" d="M152.7,5774.276c.5.175.9.548,1.413.725.458.158,1.106.1,1.469.438a.261.261,0,0,1,.022.364c-.789.814-2.892-.351-3.113-1.294C152.465,5774.394,152.559,5774.228,152.7,5774.276Z" transform="translate(-147.27 -5761.437)"/><path class="j" d="M144.985,5782.948c.5.174.9.548,1.413.724.458.158,1.1.1,1.469.438a.262.262,0,0,1,.022.365c-.789.813-2.892-.352-3.113-1.295C144.749,5783.064,144.843,5782.9,144.985,5782.948Z" transform="translate(-144.771 -5764.245)"/><path class="j" d="M178.956,5778.532c-.2-.458.52-.673.728-.239a2.7,2.7,0,0,1,.17,2.3.325.325,0,0,1-.61-.13c-.045-.313.022-.625-.009-.941A3.329,3.329,0,0,0,178.956,5778.532Z" transform="translate(-155.83 -5762.664)"/><path class="j" d="M176.764,5756.51c-.2-.458.52-.673.728-.24a2.7,2.7,0,0,1,.17,2.3.326.326,0,0,1-.611-.13c-.045-.313.023-.625-.009-.941A3.349,3.349,0,0,0,176.764,5756.51Z" transform="translate(-155.12 -5755.533)"/><path class="j" d="M154.362,5762.689c-.2-.459.52-.674.728-.24a2.7,2.7,0,0,1,.17,2.3.326.326,0,0,1-.611-.13c-.045-.313.023-.624-.009-.941A3.351,3.351,0,0,0,154.362,5762.689Z" transform="translate(-147.866 -5757.534)"/><path class="j" d="M194.428,5762.813c-.2-.458.52-.673.727-.239a2.7,2.7,0,0,1,.17,2.3.326.326,0,0,1-.611-.129c-.045-.313.023-.625-.009-.941A3.356,3.356,0,0,0,194.428,5762.813Z" transform="translate(-160.841 -5757.574)"/><path class="j" d="M195.925,5776.15a2.9,2.9,0,0,0-.049-1.094c-.031-.132.122-.261.236-.155a1.636,1.636,0,0,1-.02,2.448.305.305,0,0,1-.462-.314C195.693,5776.727,195.867,5776.459,195.925,5776.15Z" transform="translate(-161.239 -5761.629)"/><path class="j" d="M206.772,5782.375a2.911,2.911,0,0,0-.049-1.094c-.031-.132.122-.262.235-.155a1.635,1.635,0,0,1-.02,2.448.305.305,0,0,1-.461-.314C206.54,5782.952,206.714,5782.685,206.772,5782.375Z" transform="translate(-164.752 -5763.645)"/><path class="j" d="M181.842,5792.51a2.912,2.912,0,0,0-.049-1.095c-.031-.132.122-.262.236-.155a1.636,1.636,0,0,1-.02,2.448.305.305,0,0,1-.461-.314C181.61,5793.086,181.784,5792.819,181.842,5792.51Z" transform="translate(-156.678 -5766.927)"/><path class="j" d="M186.114,5770.454a8.412,8.412,0,0,0-.017-1.362.183.183,0,0,1,.3-.144,2.25,2.25,0,0,1-.183,3.081.322.322,0,0,1-.488-.332C185.807,5771.268,186.05,5770.893,186.114,5770.454Z" transform="translate(-158.033 -5759.699)"/><path class="j" d="M166.461,5772.358a8.415,8.415,0,0,0-.016-1.362.183.183,0,0,1,.3-.144,2.251,2.251,0,0,1-.183,3.082.322.322,0,0,1-.488-.332C166.155,5773.174,166.4,5772.8,166.461,5772.358Z" transform="translate(-151.668 -5760.315)"/></g></g><g transform="translate(567 -5477)"><path class="g" d="M614.375,5649.365c-21.3,0-38.573,9.72-38.573,21.709s17.27,21.71,38.573,21.71,38.572-9.721,38.572-21.71S635.678,5649.365,614.375,5649.365Z" transform="translate(-9.531 -8.786)"/><path class="f" d="M709.363,5630.023a11.183,11.183,0,0,1-7.645-5.149c-1.169-1.724-2.161-3.387-4.293-4.046-2.332-.721-5.468.262-5.251,3.174.15,2,2.118,3.192,2.975,4.832,1.46,2.792.7,5.55,2.782,8.214a10.765,10.765,0,0,0,10.583,3.93c3.982-.635,6.966-2.058,11.079-1.021,1.648.415,2.761.913,4.42.175,3.249-1.445,4.9-6.289,2.388-8.478C719.419,5625.58,711.564,5630.438,709.363,5630.023Z" transform="translate(-45.076)"/><path class="g" d="M678.093,5707.281c-3.849,7.106-1.777,16.166,5.464,20.121-2.916-5.723-1.5-12.336,2.367-17.422,3.388-4.455,6-8.48,15.255-12.128C692.32,5696.255,682.619,5698.927,678.093,5707.281Z" transform="translate(-40.196 -23.463)"/><path class="g" d="M548.087,5656.307c-.29-4.974,3.049-8.2,6.755-10.863a29.893,29.893,0,0,1,11.769-4.963C547.573,5638.329,539.356,5645.568,548.087,5656.307Z" transform="translate(0 -5.957)"/><path class="g" d="M721.255,5795.154c-13.691-7.226-19.441-13.881-19.441-13.881s2.326,15.4,17.539,21.488,32.328-3.422,32.328-3.422C750.54,5799.339,734.947,5802.381,721.255,5795.154Z" transform="translate(-48.024 -49.08)"/><path class="g" d="M826.328,5800.867c-13.691,7.226-29.285,4.184-30.426,4.184,0,0,17.115,9.508,32.328,3.422s17.54-21.489,17.54-21.489S840.02,5793.642,826.328,5800.867Z" transform="translate(-76.765 -50.825)"/><path class="g" d="M874.745,5794.314c-8.776,10.487-22.44,13.53-22.44,13.53a27.309,27.309,0,0,0,28.067-9.725c11.79-14.613,2.359-25.646,2.359-25.646A33.385,33.385,0,0,1,874.745,5794.314Z" transform="translate(-93.994 -46.392)"/><path class="h" d="M813.787,5685.435a11.724,11.724,0,0,0-10.451-17.928c1.3-2.022.9-5-.586-7.044-3.181-4.384-9.329-2.719-13.708-1.085a16.114,16.114,0,0,0-2.444-9.316c-.142,3.881-2.311,7.358-4.606,10.48a8.174,8.174,0,0,1,7.013,7.552,9.36,9.36,0,0,1-3.438,7.588c4.043,2.864,4.762,10.207,2.716,14.478-.759,1.584-3.854,4.717-6.887,6.349,2.984,5.092.6,13.174-3.275,16.939-2.6,2.525-7.352,4.675-11.376,4.294-1.87,4.353-7.22,7.708-11.427,8.215a13.4,13.4,0,0,1-9-1.856c-4.676,1.553-8.606-.466-9.938-2.972-1.2,3.765-3.592,4.831-6.336,5.225-4.309.616-8.43-3.311-7.314-7.232a8.739,8.739,0,0,1-5.876-.9,7.643,7.643,0,0,1-2.626-2.689c-.181,3.2.971,6.491,4.023,8.028a6.653,6.653,0,0,0,.4,3.281,25.082,25.082,0,0,0,22.12,2.925c8.351,12.366,28.37,12.694,38.768,1.272,11.926,6.4,16.363-3.485,16.6-7.316,4.957,1.169,11.676-1.57,10.834-11.5,3.5.371,12.251-5.207,5.374-13.394a9.746,9.746,0,0,0,7.5-9.684A7.638,7.638,0,0,0,813.787,5685.435Z" transform="translate(-51.812 -8.999)"/><path class="i" d="M822.418,5729.533c2.949-2.3,3.077-4.367,2.434-8.226a6.342,6.342,0,0,0-4.478-5.164,7.68,7.68,0,0,0,1.434-9.8,9.745,9.745,0,0,1-7.5,9.683c6.877,8.187-1.87,13.765-5.374,13.394.842,9.93-5.877,12.669-10.834,11.5-.241,3.831-4.678,13.72-16.6,7.316-10.4,11.422-30.417,11.094-38.768-1.272a25.079,25.079,0,0,1-22.12-2.925c2.12,5.784,11.31,11.452,21.734,6.007,2.312,7.9,21.035,16.193,39.481,7.636,13.361,5.615,28.144.951,33.849-7.987C828.223,5745.7,829.364,5733.147,822.418,5729.533Z" transform="translate(-53.765 -26.19)"/><path class="f" d="M785.313,5669.5a9.36,9.36,0,0,0,3.438-7.588,8.174,8.174,0,0,0-7.013-7.552c2.295-3.122,4.464-6.6,4.606-10.48a16.1,16.1,0,0,0-19.066-6.6c-1.479-4.837-6.547-8.45-11.715-7.216-5.072,1.211-7.986,6.356-7.391,11.284-8.428-.345-9.95,8.783-6.358,13.992-6.256-.447-11.7,5.654-10.421,11.785a10.591,10.591,0,0,0-11.6,4.053c-2.9,4.318-1.777,10.09,1.87,13.52-10.511.582-10.164,14.733-3.753,17.259-2.26,1.15-3.756,4.224-3.936,7.4a7.648,7.648,0,0,0,2.626,2.69,8.742,8.742,0,0,0,5.876.9c-1.116,3.921,3.005,7.849,7.314,7.232,2.743-.394,5.132-1.46,6.336-5.224,1.332,2.506,5.262,4.524,9.938,2.971a13.394,13.394,0,0,0,9,1.856c4.208-.507,9.557-3.862,11.427-8.215,4.025.381,8.78-1.769,11.376-4.293,3.872-3.766,6.258-11.848,3.275-16.94,3.033-1.632,6.129-4.764,6.887-6.349C790.074,5679.7,789.356,5672.36,785.313,5669.5Z" transform="translate(-51.557 -2.814)"/><g transform="translate(668.037 5631.396)"><path class="j" d="M783.791,5646.888a1.928,1.928,0,0,0-1.581,2.316c.033.235.4.259.5.064a21.36,21.36,0,0,0,1.219-2.2A.143.143,0,0,0,783.791,5646.888Z" transform="translate(-740.613 -5639.426)"/><path class="j" d="M788.145,5662.927c.1.28.542.41.7.091.215-.446.275-.942.532-1.373a5.4,5.4,0,0,1,1.053-1.158.175.175,0,0,0-.122-.294C789.061,5660.168,787.7,5661.688,788.145,5662.927Z" transform="translate(-742.406 -5643.49)"/><path class="j" d="M724.231,5721.335a5.211,5.211,0,0,1,.3-2.036.348.348,0,0,0-.506-.389c-1.6,1.078-1.557,4.269.283,5.088a.521.521,0,0,0,.707-.707A7.044,7.044,0,0,1,724.231,5721.335Z" transform="translate(-722.492 -5661.41)"/><path class="j" d="M749.522,5695.028a5.21,5.21,0,0,1,.3-2.037.349.349,0,0,0-.506-.39c-1.6,1.079-1.558,4.269.283,5.089a.521.521,0,0,0,.707-.707A7.038,7.038,0,0,1,749.522,5695.028Z" transform="translate(-730.218 -5653.374)"/><path class="j" d="M735.7,5729.94c-.581.445-.948,1.108-1.541,1.561-.532.4-1.406.609-1.738,1.209a.36.36,0,0,0,.128.487c1.387.728,3.643-1.708,3.526-3.041C736.066,5729.992,735.87,5729.813,735.7,5729.94Z" transform="translate(-725.398 -5664.782)"/><path class="j" d="M733.795,5693.48c-.58.445-.947,1.108-1.54,1.56-.532.4-1.407.609-1.738,1.209a.362.362,0,0,0,.128.488c1.387.728,3.643-1.708,3.527-3.042C734.156,5693.531,733.96,5693.353,733.795,5693.48Z" transform="translate(-724.815 -5653.645)"/><path class="j" d="M803.935,5706.592c-.58.445-.947,1.108-1.54,1.56-.532.406-1.406.609-1.738,1.209a.36.36,0,0,0,.128.488c1.387.728,3.643-1.709,3.526-3.042C804.3,5706.643,804.1,5706.465,803.935,5706.592Z" transform="translate(-746.24 -5657.65)"/><path class="j" d="M815.771,5740.578c-.581.445-.947,1.107-1.54,1.56-.532.406-1.407.609-1.738,1.209a.362.362,0,0,0,.128.488c1.387.728,3.644-1.708,3.527-3.042C816.132,5740.628,815.936,5740.451,815.771,5740.578Z" transform="translate(-749.856 -5668.032)"/><path class="j" d="M834.827,5673.026c-.58.445-.947,1.108-1.54,1.56-.532.406-1.406.609-1.738,1.209a.361.361,0,0,0,.128.488c1.387.728,3.643-1.709,3.526-3.042C835.188,5673.077,834.992,5672.9,834.827,5673.026Z" transform="translate(-755.677 -5647.397)"/><path class="j" d="M782.249,5763.252c-.58.445-.947,1.109-1.54,1.561-.532.405-1.406.609-1.738,1.209a.361.361,0,0,0,.128.488c1.387.727,3.643-1.709,3.526-3.042C782.61,5763.3,782.415,5763.126,782.249,5763.252Z" transform="translate(-739.616 -5674.958)"/><path class="j" d="M833.85,5718.9c-.58.445-.947,1.108-1.54,1.56-.532.406-1.406.61-1.738,1.21a.361.361,0,0,0,.128.487c1.387.729,3.643-1.708,3.526-3.041C834.211,5718.952,834.015,5718.773,833.85,5718.9Z" transform="translate(-755.379 -5661.41)"/><path class="j" d="M858.675,5704.12c-.58.445-.947,1.107-1.54,1.56-.532.406-1.407.61-1.738,1.21a.362.362,0,0,0,.128.488c1.387.727,3.644-1.709,3.527-3.042C859.036,5704.172,858.84,5703.993,858.675,5704.12Z" transform="translate(-762.962 -5656.895)"/><path class="j" d="M805.578,5681.813c-.58.445-.947,1.107-1.54,1.56-.532.405-1.406.61-1.738,1.209a.361.361,0,0,0,.128.488c1.387.727,3.643-1.709,3.526-3.042C805.939,5681.863,805.743,5681.686,805.578,5681.813Z" transform="translate(-746.742 -5650.081)"/><path class="j" d="M804.461,5653.514c-.581.445-.947,1.108-1.541,1.56-.532.406-1.406.609-1.738,1.209a.362.362,0,0,0,.128.488c1.387.727,3.644-1.709,3.526-3.042C804.822,5653.564,804.626,5653.387,804.461,5653.514Z" transform="translate(-746.401 -5641.437)"/><path class="j" d="M771.243,5747.394c-.581.445-.947,1.107-1.541,1.56-.532.405-1.406.609-1.738,1.209a.362.362,0,0,0,.128.488c1.387.727,3.643-1.709,3.526-3.042C771.6,5747.444,771.408,5747.267,771.243,5747.394Z" transform="translate(-736.254 -5670.114)"/><path class="j" d="M776.916,5720.171c-.58.445-.947,1.108-1.541,1.56-.532.4-1.406.609-1.738,1.209a.362.362,0,0,0,.128.488c1.387.728,3.643-1.708,3.527-3.042C777.277,5720.222,777.081,5720.044,776.916,5720.171Z" transform="translate(-737.987 -5661.798)"/><path class="j" d="M772.56,5683.284c-.58.445-.947,1.107-1.54,1.56-.532.406-1.407.61-1.738,1.21a.362.362,0,0,0,.128.488c1.387.727,3.644-1.709,3.527-3.042C772.921,5683.335,772.725,5683.157,772.56,5683.284Z" transform="translate(-736.656 -5650.531)"/><path class="j" d="M794,5647.632c-.58.445-.947,1.108-1.541,1.56-.532.406-1.406.61-1.738,1.21a.36.36,0,0,0,.128.487c1.387.728,3.643-1.708,3.526-3.042C794.359,5647.683,794.163,5647.5,794,5647.632Z" transform="translate(-743.205 -5639.64)"/><path class="j" d="M762.532,5698.713c-.58.445-.947,1.108-1.541,1.56-.532.405-1.406.609-1.738,1.209a.362.362,0,0,0,.128.488c1.387.728,3.643-1.709,3.527-3.042C762.893,5698.764,762.7,5698.586,762.532,5698.713Z" transform="translate(-733.593 -5655.243)"/><path class="j" d="M731.144,5744.414a4.729,4.729,0,0,1,.037-2.037c.029-.192-.18-.451-.384-.295a2.625,2.625,0,0,0-.845,2.493c.12.865.652,2.056,1.605,2.232a.488.488,0,0,0,.544-.707A11.158,11.158,0,0,1,731.144,5744.414Z" transform="translate(-724.646 -5668.49)"/><path class="j" d="M724.12,5737.2c-.96.378-2.313,1.7-1.586,2.8a.332.332,0,0,0,.513.067,2.812,2.812,0,0,0,.584-1.069,4.271,4.271,0,0,1,.835-1.2C724.695,5737.563,724.468,5737.067,724.12,5737.2Z" transform="translate(-722.327 -5667.007)"/><path class="j" d="M747.787,5743.778c-.96.378-2.313,1.7-1.586,2.8a.332.332,0,0,0,.513.067,2.809,2.809,0,0,0,.584-1.069,4.29,4.29,0,0,1,.836-1.2C748.362,5744.137,748.136,5743.641,747.787,5743.778Z" transform="translate(-729.557 -5669.015)"/><path class="j" d="M822.643,5724.216c-.959.378-2.312,1.7-1.586,2.8a.331.331,0,0,0,.513.066,2.8,2.8,0,0,0,.584-1.069,4.268,4.268,0,0,1,.836-1.2C823.219,5724.575,822.992,5724.079,822.643,5724.216Z" transform="translate(-752.423 -5663.04)"/><path class="j" d="M828.962,5690.721c-.96.378-2.313,1.694-1.586,2.8a.331.331,0,0,0,.513.066,2.806,2.806,0,0,0,.584-1.068,4.282,4.282,0,0,1,.836-1.2C829.537,5691.08,829.311,5690.583,828.962,5690.721Z" transform="translate(-754.353 -5652.808)"/><path class="j" d="M828.962,5667.435c-.96.377-2.313,1.694-1.586,2.8a.332.332,0,0,0,.513.066,2.808,2.808,0,0,0,.584-1.069,4.271,4.271,0,0,1,.836-1.2C829.537,5667.793,829.311,5667.3,828.962,5667.435Z" transform="translate(-754.353 -5645.695)"/><path class="j" d="M770.771,5764.88c-.96.378-2.313,1.694-1.586,2.8a.332.332,0,0,0,.514.066,2.811,2.811,0,0,0,.583-1.068,4.3,4.3,0,0,1,.836-1.2C771.346,5765.238,771.12,5764.742,770.771,5764.88Z" transform="translate(-736.578 -5675.461)"/><path class="j" d="M850.371,5722.946c-.96.377-2.313,1.694-1.586,2.8a.332.332,0,0,0,.514.066,2.807,2.807,0,0,0,.583-1.068,4.289,4.289,0,0,1,.836-1.2C850.946,5723.3,850.72,5722.808,850.371,5722.946Z" transform="translate(-760.893 -5662.652)"/><path class="j" d="M754.683,5731.842c.063-.687-.973-.659-1.058,0a3.733,3.733,0,0,0,.77,3.094.45.45,0,0,0,.745-.434c-.076-.43-.3-.809-.395-1.239A4.6,4.6,0,0,1,754.683,5731.842Z" transform="translate(-731.874 -5665.222)"/><path class="j" d="M765.184,5717.741c.062-.687-.973-.658-1.058,0a3.734,3.734,0,0,0,.77,3.094.449.449,0,0,0,.745-.434c-.076-.43-.3-.81-.394-1.239A4.6,4.6,0,0,1,765.184,5717.741Z" transform="translate(-735.082 -5660.915)"/><path class="j" d="M787.437,5673.278c.063-.687-.973-.659-1.058,0a3.732,3.732,0,0,0,.77,3.093.45.45,0,0,0,.745-.434c-.076-.43-.3-.81-.395-1.238A4.628,4.628,0,0,1,787.437,5673.278Z" transform="translate(-741.88 -5647.333)"/><path class="j" d="M793.314,5697.858c.062-.687-.973-.659-1.058,0a3.733,3.733,0,0,0,.77,3.094.45.45,0,0,0,.745-.434c-.076-.43-.3-.809-.395-1.239A4.621,4.621,0,0,1,793.314,5697.858Z" transform="translate(-743.675 -5654.841)"/><path class="j" d="M755.812,5681.065c.063-.687-.973-.66-1.058,0a3.732,3.732,0,0,0,.77,3.093.449.449,0,0,0,.745-.434c-.076-.43-.3-.809-.394-1.239A4.6,4.6,0,0,1,755.812,5681.065Z" transform="translate(-732.219 -5649.711)"/><path class="j" d="M802.122,5667.915c.063-.686-.972-.659-1.058,0a3.732,3.732,0,0,0,.77,3.093.45.45,0,0,0,.745-.433c-.076-.43-.3-.81-.394-1.239A4.63,4.63,0,0,1,802.122,5667.915Z" transform="translate(-746.365 -5645.695)"/><path class="j" d="M738.816,5704.163c.063-.687-.973-.659-1.058,0a3.732,3.732,0,0,0,.77,3.093.45.45,0,0,0,.745-.434c-.076-.43-.3-.809-.394-1.239A4.6,4.6,0,0,1,738.816,5704.163Z" transform="translate(-727.027 -5656.767)"/><path class="j" d="M760.31,5660.368c.063-.687-.972-.659-1.058,0a3.732,3.732,0,0,0,.77,3.093.45.45,0,0,0,.745-.434c-.076-.43-.3-.81-.394-1.239A4.618,4.618,0,0,1,760.31,5660.368Z" transform="translate(-733.593 -5643.389)"/><path class="j" d="M745.148,5720.884a.324.324,0,0,0-.537-.142c-.742.787-.392,2.895.777,3.125a.374.374,0,0,0,.453-.454,13.217,13.217,0,0,0-.551-1.216A12.181,12.181,0,0,1,745.148,5720.884Z" transform="translate(-729.015 -5661.958)"/><path class="j" d="M757.559,5747.483a4.006,4.006,0,0,1-.408-1.457.2.2,0,0,0-.376-.1c-.571,1.042-.243,2.885,1.082,3.2a.421.421,0,0,0,.47-.611C758.112,5748.141,757.768,5747.864,757.559,5747.483Z" transform="translate(-732.768 -5669.647)"/><path class="j" d="M783.371,5690.323a4,4,0,0,1-.408-1.458.2.2,0,0,0-.376-.1c-.571,1.042-.244,2.884,1.082,3.2a.421.421,0,0,0,.47-.611C783.924,5690.98,783.58,5690.7,783.371,5690.323Z" transform="translate(-740.652 -5652.187)"/><path class="j" d="M770.287,5644.476a4,4,0,0,1-.407-1.458.2.2,0,0,0-.377-.1c-.571,1.042-.243,2.884,1.083,3.2a.421.421,0,0,0,.47-.611C770.84,5645.132,770.5,5644.856,770.287,5644.476Z" transform="translate(-736.656 -5638.182)"/><path class="j" d="M775.961,5657.687a4,4,0,0,1-.408-1.457.2.2,0,0,0-.376-.1c-.571,1.042-.244,2.885,1.082,3.2a.421.421,0,0,0,.47-.611C776.514,5658.344,776.17,5658.068,775.961,5657.687Z" transform="translate(-738.389 -5642.218)"/><path class="j" d="M770.287,5669.954a4,4,0,0,1-.407-1.457.2.2,0,0,0-.377-.1c-.571,1.042-.243,2.884,1.083,3.2a.421.421,0,0,0,.47-.611C770.84,5670.611,770.5,5670.335,770.287,5669.954Z" transform="translate(-736.656 -5645.965)"/><path class="j" d="M749.447,5674.728a4,4,0,0,1-.408-1.458.2.2,0,0,0-.376-.1c-.572,1.042-.244,2.885,1.082,3.2a.421.421,0,0,0,.469-.611C750,5675.384,749.656,5675.108,749.447,5674.728Z" transform="translate(-730.29 -5647.423)"/><path class="j" d="M783.414,5739.842a9.95,9.95,0,0,1-.532,1.291,3.73,3.73,0,0,0-.5.984.386.386,0,0,0,.559.43,3.573,3.573,0,0,0,1.236-2.6C784.213,5739.479,783.559,5739.467,783.414,5739.842Z" transform="translate(-740.668 -5667.739)"/><path class="j" d="M774.129,5734.773a11.618,11.618,0,0,1-.567-1.795.252.252,0,0,0-.456-.06c-.634,1.28.115,3.538,1.57,3.964a.445.445,0,0,0,.5-.646C774.883,5735.711,774.4,5735.322,774.129,5734.773Z" transform="translate(-737.769 -5665.668)"/><path class="j" d="M801.814,5757.1a11.548,11.548,0,0,1-.566-1.794.253.253,0,0,0-.456-.06c-.633,1.281.115,3.539,1.57,3.964a.444.444,0,0,0,.5-.646C802.568,5758.035,802.087,5757.647,801.814,5757.1Z" transform="translate(-746.226 -5672.488)"/><path class="j" d="M839.642,5733.863a11.624,11.624,0,0,1-.567-1.8.252.252,0,0,0-.456-.059c-.634,1.28.115,3.539,1.57,3.963a.445.445,0,0,0,.5-.646C840.4,5734.8,839.915,5734.412,839.642,5733.863Z" transform="translate(-757.781 -5665.39)"/><path class="j" d="M844.613,5707.56a11.571,11.571,0,0,1-.566-1.794.253.253,0,0,0-.456-.061c-.633,1.281.115,3.539,1.57,3.964a.444.444,0,0,0,.5-.646C845.367,5708.5,844.886,5708.109,844.613,5707.56Z" transform="translate(-759.3 -5657.355)"/><path class="j" d="M831.063,5704.692a11.549,11.549,0,0,1-.566-1.8.253.253,0,0,0-.456-.06c-.634,1.281.115,3.539,1.57,3.964a.445.445,0,0,0,.5-.646C831.817,5705.629,831.336,5705.241,831.063,5704.692Z" transform="translate(-755.161 -5656.479)"/><path class="j" d="M839.642,5684.735a11.607,11.607,0,0,1-.567-1.8.252.252,0,0,0-.456-.059c-.634,1.28.115,3.538,1.57,3.963a.445.445,0,0,0,.5-.646C840.4,5685.672,839.915,5685.284,839.642,5684.735Z" transform="translate(-757.781 -5650.383)"/><path class="j" d="M825.039,5747.232a11.609,11.609,0,0,1-.566-1.795.253.253,0,0,0-.456-.06c-.633,1.281.115,3.539,1.57,3.964a.445.445,0,0,0,.5-.646C825.793,5748.169,825.313,5747.781,825.039,5747.232Z" transform="translate(-753.321 -5669.474)"/><path class="j" d="M752.58,5710.514a11.606,11.606,0,0,1-.567-1.794.252.252,0,0,0-.456-.06c-.634,1.281.115,3.539,1.57,3.964a.444.444,0,0,0,.5-.646C753.334,5711.451,752.853,5711.063,752.58,5710.514Z" transform="translate(-731.187 -5658.258)"/><path class="j" d="M778.485,5704.692a11.543,11.543,0,0,1-.566-1.8.253.253,0,0,0-.456-.06c-.633,1.281.115,3.539,1.57,3.964a.445.445,0,0,0,.5-.646C779.239,5705.629,778.758,5705.241,778.485,5704.692Z" transform="translate(-739.1 -5656.479)"/><path class="j" d="M798.978,5731.336c-.535.168-.883.716-1.3,1.066-.5.421-1.087.744-1.566,1.2a.312.312,0,0,0,.219.527c1.166.029,3.155-1.3,2.935-2.629A.233.233,0,0,0,798.978,5731.336Z" transform="translate(-744.838 -5665.219)"/><path class="j" d="M819.633,5760.009c-.535.168-.883.715-1.3,1.065-.5.421-1.087.744-1.565,1.2a.312.312,0,0,0,.219.528c1.166.029,3.155-1.3,2.935-2.628A.233.233,0,0,0,819.633,5760.009Z" transform="translate(-751.147 -5673.978)"/><path class="j" d="M840.694,5743.471c-.534.167-.883.715-1.3,1.065-.5.421-1.087.744-1.566,1.2a.313.313,0,0,0,.219.528c1.166.028,3.155-1.3,2.936-2.63A.233.233,0,0,0,840.694,5743.471Z" transform="translate(-757.581 -5668.926)"/><path class="j" d="M788.558,5724.458c-.142-.374-.133-.75-.4-1.056a.242.242,0,0,0-.336,0c-.936.776.158,2.519,1.068,2.781a.312.312,0,0,0,.349-.454A12.6,12.6,0,0,1,788.558,5724.458Z" transform="translate(-742.224 -5662.778)"/><path class="j" d="M813.6,5693.97c-.141-.374-.133-.749-.4-1.056a.241.241,0,0,0-.335,0c-.936.776.157,2.519,1.068,2.781a.313.313,0,0,0,.349-.454A12.442,12.442,0,0,1,813.6,5693.97Z" transform="translate(-749.874 -5653.464)"/><path class="j" d="M793.131,5765.156c-.141-.374-.133-.75-.4-1.056a.242.242,0,0,0-.335,0c-.936.776.157,2.52,1.068,2.781a.312.312,0,0,0,.349-.453A12.464,12.464,0,0,1,793.131,5765.156Z" transform="translate(-743.622 -5675.209)"/><path class="j" d="M851.582,5689.308c-.142-.373-.133-.749-.4-1.055a.242.242,0,0,0-.336,0c-.936.776.158,2.52,1.068,2.781a.313.313,0,0,0,.349-.454A12.386,12.386,0,0,1,851.582,5689.308Z" transform="translate(-761.476 -5652.041)"/><path class="j" d="M749.535,5760.094c-.142-.374-.133-.75-.4-1.056a.242.242,0,0,0-.336,0c-.936.776.158,2.519,1.068,2.781a.312.312,0,0,0,.349-.454A12.568,12.568,0,0,1,749.535,5760.094Z" transform="translate(-730.304 -5673.663)"/><path class="j" d="M777.126,5636.146c-1.171.13-2.62,1.275-2.387,2.57.054.295.417.314.606.16a8.835,8.835,0,0,0,.91-1.163,9.254,9.254,0,0,1,1.115-.978A.348.348,0,0,0,777.126,5636.146Z" transform="translate(-738.33 -5636.144)"/><path class="j" d="M764.636,5656.988a.353.353,0,0,0,.515-.209c.088-.386-.01-.769.065-1.158a3,3,0,0,1,.693-1.236.175.175,0,0,0-.122-.294C764.511,5654.09,763.545,5656.156,764.636,5656.988Z" transform="translate(-735.107 -5641.626)"/></g><path class="f" d="M636.947,5625.66a8.89,8.89,0,0,0-7.987,1.395c-5.325-3.331-9.159-1.012-10.61.91a7.035,7.035,0,0,0-13.153.643,8.375,8.375,0,0,0-12.356,8.411,7.191,7.191,0,0,0-7.207,10.81,6.846,6.846,0,0,0-5.256,6.584c1.186,2.2,3.325,3.625,8.366,3.079,1.815,6.868,14.259,5.692,15.278-.567,4.91,3.214,14,3.219,15.533-5.185a5.644,5.644,0,0,0,9.482-5.323c6.292,1.46,8.678-4.68,6.009-8.407,7.244-.581,7.244-6.836,6.937-9.514A11.364,11.364,0,0,0,636.947,5625.66Z" transform="translate(-10.929 -0.954)"/><path class="h" d="M642.956,5641.786a6.653,6.653,0,0,0,1.663-6.607,10.068,10.068,0,0,0-2.636-4.584c.307,2.678.307,8.934-6.937,9.514,2.669,3.727.283,9.867-6.009,8.407a5.644,5.644,0,0,1-9.482,5.323c-1.53,8.4-10.624,8.4-15.533,5.185-1.02,6.259-13.464,7.435-15.278.567-5.041.546-7.18-.883-8.366-3.079a7.01,7.01,0,0,0,2.7,5.567,6.819,6.819,0,0,0-.609,4.245c3.018,2.851,7.643,3.023,12.265,2.954.76,2.853,6.275,5.42,10.179,1.7,3.9,3.563,11.594,2.48,13.487-2,3.765,5.211,12.749,1.724,12.953-4.036,4.946,1.759,10.73-1.371,9.758-8.123a13.442,13.442,0,0,0,10.06-5.926,8.81,8.81,0,0,0-.11-1C650.272,5645.686,646.816,5643,642.956,5641.786Z" transform="translate(-10.928 -3.052)"/><path class="i" d="M652.086,5659.823a13.442,13.442,0,0,1-10.06,5.926c.972,6.752-4.812,9.882-9.758,8.123-.2,5.76-9.188,9.247-12.953,4.036-1.893,4.481-9.585,5.565-13.487,2-3.9,3.716-9.419,1.149-10.179-1.7-4.621.069-9.246-.1-12.265-2.955a8.322,8.322,0,0,0,2.6,4.743c3.548,3.256,8.768,2.754,13.189,1.951a12.811,12.811,0,0,0,20.678,2.877,10.89,10.89,0,0,0,18.013-5.481c4.689.809,10.46.451,12.5-4.616a5.6,5.6,0,0,0-2.175-6.88A8.91,8.91,0,0,0,652.086,5659.823Z" transform="translate(-11.847 -11.981)"/><g transform="translate(574.932 5628.583)"><path class="j" d="M643.206,5678.075a11.612,11.612,0,0,1-.567-1.794.252.252,0,0,0-.456-.06c-.633,1.28.116,3.539,1.57,3.963a.444.444,0,0,0,.5-.646C643.961,5679.012,643.48,5678.624,643.206,5678.075Z" transform="translate(-604.671 -5645.536)"/><path class="j" d="M608.553,5682.241a11.6,11.6,0,0,1-.567-1.794.253.253,0,0,0-.456-.06c-.633,1.281.116,3.539,1.57,3.964a.445.445,0,0,0,.5-.646C609.308,5683.178,608.827,5682.79,608.553,5682.241Z" transform="translate(-594.086 -5646.809)"/><path class="j" d="M603.308,5639.635a5.207,5.207,0,0,1,.3-2.036.348.348,0,0,0-.506-.389c-1.6,1.078-1.557,4.27.283,5.09a.522.522,0,0,0,.707-.708A7.036,7.036,0,0,1,603.308,5639.635Z" transform="translate(-592.449 -5633.641)"/><path class="j" d="M591.6,5662.708c-.581.445-.947,1.108-1.541,1.561-.532.4-1.406.609-1.738,1.209a.361.361,0,0,0,.128.488c1.387.728,3.644-1.709,3.526-3.042C591.958,5662.759,591.762,5662.582,591.6,5662.708Z" transform="translate(-588.273 -5641.433)"/><path class="j" d="M634.664,5634.075c-.581.445-.947,1.108-1.54,1.56-.532.406-1.407.61-1.738,1.21a.362.362,0,0,0,.128.488c1.387.727,3.644-1.708,3.527-3.042C635.025,5634.126,634.829,5633.949,634.664,5634.075Z" transform="translate(-601.428 -5632.686)"/><path class="j" d="M621.885,5644.141c-.58.445-.947,1.108-1.54,1.561-.532.4-1.406.609-1.738,1.209a.36.36,0,0,0,.128.487c1.387.728,3.643-1.708,3.526-3.041C622.246,5644.192,622.05,5644.015,621.885,5644.141Z" transform="translate(-597.525 -5635.761)"/><path class="j" d="M657.773,5667.986c-.58.445-.947,1.108-1.54,1.56-.532.406-1.406.609-1.738,1.209a.361.361,0,0,0,.127.488c1.387.728,3.643-1.709,3.527-3.042C658.134,5668.037,657.938,5667.859,657.773,5667.986Z" transform="translate(-608.487 -5643.045)"/><path class="j" d="M655.106,5646.658c-.58.445-.947,1.107-1.54,1.56-.532.406-1.406.61-1.738,1.209a.361.361,0,0,0,.128.488c1.387.727,3.643-1.709,3.526-3.042C655.468,5646.709,655.272,5646.531,655.106,5646.658Z" transform="translate(-607.673 -5636.53)"/><path class="j" d="M668.606,5654.492c-.58.445-.947,1.107-1.541,1.56-.532.406-1.406.61-1.738,1.209a.361.361,0,0,0,.128.488c1.387.727,3.643-1.709,3.526-3.042C668.967,5654.543,668.771,5654.365,668.606,5654.492Z" transform="translate(-611.797 -5638.923)"/><path class="j" d="M624.537,5663.17c.063-.687-.973-.659-1.058,0a3.733,3.733,0,0,0,.77,3.094.45.45,0,0,0,.745-.434c-.076-.431-.3-.81-.395-1.239A4.6,4.6,0,0,1,624.537,5663.17Z" transform="translate(-599.013 -5641.433)"/><path class="j" d="M618.086,5634.118c.063-.687-.973-.659-1.058,0a3.733,3.733,0,0,0,.77,3.093.449.449,0,0,0,.745-.434c-.076-.43-.3-.809-.394-1.239A4.577,4.577,0,0,1,618.086,5634.118Z" transform="translate(-597.043 -5632.558)"/><path class="j" d="M649.3,5632.6c.063-.687-.973-.659-1.058,0a3.733,3.733,0,0,0,.77,3.094.45.45,0,0,0,.745-.434c-.076-.43-.3-.809-.394-1.238A4.608,4.608,0,0,1,649.3,5632.6Z" transform="translate(-606.578 -5632.094)"/><path class="j" d="M598.169,5649.591c.063-.686-.973-.66-1.058,0a3.732,3.732,0,0,0,.77,3.093.45.45,0,0,0,.745-.434c-.076-.43-.3-.81-.394-1.239A4.622,4.622,0,0,1,598.169,5649.591Z" transform="translate(-590.959 -5637.285)"/><path class="j" d="M601.882,5667.3a4,4,0,0,1-.408-1.457.2.2,0,0,0-.376-.1c-.571,1.042-.244,2.884,1.082,3.2a.421.421,0,0,0,.47-.611C602.435,5667.958,602.091,5667.682,601.882,5667.3Z" transform="translate(-592.108 -5642.342)"/><path class="j" d="M590.641,5679.811a4.015,4.015,0,0,1-.408-1.458.2.2,0,0,0-.376-.1c-.571,1.042-.243,2.885,1.083,3.2a.421.421,0,0,0,.47-.611C591.194,5680.468,590.85,5680.192,590.641,5679.811Z" transform="translate(-588.674 -5646.163)"/><path class="j" d="M626.746,5682.282a4,4,0,0,1-.408-1.457.2.2,0,0,0-.376-.1c-.571,1.042-.244,2.884,1.082,3.2a.421.421,0,0,0,.47-.611C627.3,5682.939,626.955,5682.664,626.746,5682.282Z" transform="translate(-599.703 -5646.918)"/><path class="j" d="M611.933,5655.942a11.52,11.52,0,0,1-.566-1.795.253.253,0,0,0-.456-.059c-.634,1.281.115,3.538,1.57,3.963a.445.445,0,0,0,.5-.646C612.687,5656.88,612.206,5656.492,611.933,5655.942Z" transform="translate(-595.118 -5638.775)"/><path class="j" d="M637.838,5650.12a11.589,11.589,0,0,1-.567-1.794.253.253,0,0,0-.456-.06c-.633,1.281.116,3.539,1.57,3.964a.445.445,0,0,0,.5-.646C638.592,5651.057,638.112,5650.669,637.838,5650.12Z" transform="translate(-603.032 -5636.997)"/></g></g></g></svg>