<svg xmlns="http://www.w3.org/2000/svg" viewBox="0 0 99.281 131.018"><defs><style>.a{fill:#71bb79;}</style></defs><g transform="translate(-1155.613 -39.673)"><path class="a" d="M1254.791,145.5c-.286-.858-.986-.54-1.533-.488a12.434,12.434,0,0,1-6.76-.908,13.344,13.344,0,0,0-.218-1.783c-1.387-5.42-2.834-10.826-4.179-16.256a1.807,1.807,0,0,0-1.979-1.616c-.791-.046-1.582-.1-2.374-.149a48.615,48.615,0,0,0,15.271-41.394c.009-.346.021-.692.021-1.04,0-16.234-11.437-29.979-26.588-36.959a48.756,48.756,0,0,0-45.233.665c-11.01,5.585-19.623,14.962-22.68,26.314a48.843,48.843,0,0,0,53.955,64.859c2.134,1.509,4.237,3.068,6.428,4.488a3.294,3.294,0,0,1,1.614,3.665c-.647,5.752-1.118,11.522-1.668,17.285-.048.5-.142.99.282,1.386a8.127,8.127,0,0,1-.191,1.3c-.537,1.72.274,2.639,1.773,3.287a46.169,46.169,0,0,0,5.33,2.169,6.439,6.439,0,0,0,3.252.246c.727-.162,1.448-.422,1.568-1.24.115-.792-.7-.909-1.188-1.169-2.061-1.091-4.1-2.184-4.889-4.613a8.605,8.605,0,0,1-2.119.645,8.605,8.605,0,0,0,2.119-.645,5.714,5.714,0,0,0,.429-1.051c1.218-6.213,2.413-12.43,3.633-18.643a3.3,3.3,0,0,0-.39-2.212,86.188,86.188,0,0,1-3.821-7.854q5-.574,9.925-1.648c1.111-.241,1.641,0,2.037,1.151,1.411,4.1,2.959,8.161,4.442,12.241.208.573.3,1.2,1.12,1.182,1.4,3.265,1.4,3.269,4.927,2.873a19.951,19.951,0,0,0,2.446-.343c1.641-.4,3.393-.543,4.7-1.8A1.774,1.774,0,0,0,1254.791,145.5Zm-50.307-8.718A48.249,48.249,0,0,1,1158.4,74.269c7.943-10.581,29.962-30.372,58.78-19.989,0,0-33.776-8.445-55.108,28.283.609.544,1.209,1.094,1.805,1.641,5.111,4.691,9.94,9.123,19.7,9.123a24.741,24.741,0,0,0,8.049-1.238c0,.3.009.61,0,.914-.086,2.957,1.392,4.96,3.585,6.639,2.3,1.763,4.6,3.546,6.892,5.321-1.339,5.654-1.737,11.3.265,16.894.922,2.578,1.468,2.9,4.273,2.7l.077.432a16.712,16.712,0,0,0-.006,4.62,6.455,6.455,0,0,0,2.839,5.127c.748.485,1.484.989,2.215,1.5A48.421,48.421,0,0,1,1204.484,136.784Zm2.773-43.171c.409.447.73,1.022,1.357,1.154C1207.987,94.635,1207.666,94.06,1207.257,93.613Zm1.458,1.7c.1-.006.19-.011.284-.014q.016-.253.032-.506-.016.252-.031.506c-.095,0-.189.009-.284.014-.06.192-.136.248-.219.243C1208.579,95.556,1208.655,95.5,1208.715,95.308Zm-.824,2.708q-.147-.7-.345-1.4c-.038,0-.077,0-.116,0,.039,0,.078,0,.116,0Q1207.744,97.316,1207.891,98.016Zm2.15-5.738c.082.116.171.23.259.344a2.009,2.009,0,0,0,.066.575,2.009,2.009,0,0,1-.066-.575C1210.212,92.508,1210.123,92.394,1210.041,92.278Zm9.175,33.756a14.755,14.755,0,0,1-3.987.637,14.751,14.751,0,0,0,3.986-.637,10.528,10.528,0,0,0-.884-5.63A10.529,10.529,0,0,1,1219.216,126.034ZM1219.278,94l-.413.358c.047.277.106.549.174.817-.068-.268-.126-.54-.174-.817l-1.233-.029.053.069-.056.066c-.47.125-.267,1.093-1.044.838a5.955,5.955,0,0,0,.674-2.826q-.2-1.166-.391-2.334a2.961,2.961,0,0,0-.312-3.138,22.462,22.462,0,0,0-2.374.485c-2.326.732-3.161,1.769-3.2,3.824h0c-.37-.186-.5-1.186-1.176-.347-.5-.246-.175-.523-.017-.773a7.03,7.03,0,0,1,4.574-3.166c1.208-.27,1.582-.769,1.045-1.891l-.61-1.05-.87-.741a6.024,6.024,0,0,0-5.272-.115l-1.54,1.028-.831.8c-2.064,2.814-1.514,5.5.407,8.113q0,1.585,0,3.171a1.834,1.834,0,0,1-1.37-.3l-.956-.09-.334-.3.01.015-1.072-.077h0l-.268-.275c0,.011,0,.016,0,.026-1.783-.006-3.366-.785-5.021-1.293-.559-.172-.514-.65-.658-1.033a25.016,25.016,0,0,1-.91-3.053,47.5,47.5,0,0,0,7.163-5.765c5.343-4.9,10.869-9.974,21.915-9.974.208,0,.411.011.618.014a8.387,8.387,0,0,0-.229,2.086l.671.883a2.827,2.827,0,0,0,1.4.536,2.832,2.832,0,0,1-1.4-.535c-.026.2-.052.4-.078.595a77.828,77.828,0,0,1-.261,10.891,1.9,1.9,0,0,1-1.029,1.542C1223,91.474,1221.145,92.746,1219.278,94Zm1.651,31.541-.29-.031.29.031a15.608,15.608,0,0,0,1,3.272A15.552,15.552,0,0,1,1220.929,125.544Zm2.748-2.232h0c-.071-2.011-1.193-3.694-1.734-5.558-.172-.595-.649-1.172-.081-1.8,0-.755.194-1.585-.735-2h0a96.47,96.47,0,0,1,.685-10.047c.949-1.076.712-2.164.034-3.257.324-.292.635-.6.973-.875a40.359,40.359,0,0,0,7.286-6.9,3.986,3.986,0,0,0,1.107-2.511,53.556,53.556,0,0,0-2.042-13.321c.04-.857.27-1.741.274-2.594,9.251.92,17.181,4.72,21.827,8.983q.64.588,1.278,1.164c.106,1.3.175,2.621.175,3.953a48.126,48.126,0,0,1-15.834,35.7C1232.484,123.961,1228.082,123.625,1223.677,123.312Z"/></g></svg>