<svg xmlns="http://www.w3.org/2000/svg" width="31.244" height="19.567" viewBox="0 0 31.244 19.567"><defs><style>.a{fill:#fff;}.b{fill:#5eb366;}</style></defs><g transform="translate(-626.696 -6221.685)"><path class="a" d="M0,0H31.1a0,0,0,0,1,0,0V17.986a1.56,1.56,0,0,1-1.56,1.56H1.448A1.448,1.448,0,0,1,0,18.1V0A0,0,0,0,1,0,0Z" transform="translate(626.766 6221.706)"/><path class="b" d="M626.763,6221.685l14.745,10.912a1.417,1.417,0,0,0,1.615,0l14.75-10.872Z"/><path class="b" d="M637.235,6230.686l-10.261,9.574a1.837,1.837,0,0,1-.278-.939v-16.413Z"/><path class="b" d="M646.439,6231.372l10.332,9.65a2.172,2.172,0,0,1-.967.218H628.831a2.16,2.16,0,0,1-.889-.182l10.318-9.641,4.058,3.006Z"/><path class="b" d="M657.94,6222.907v16.414a1.856,1.856,0,0,1-.256.869l-10.2-9.551Z"/></g></svg>