<svg xmlns="http://www.w3.org/2000/svg" width="52.104" height="52.103" viewBox="0 0 52.104 52.103"><defs><style>.a{fill:#5eb366;}.b{fill:#fff;}</style></defs><g transform="translate(-1112.608 -6238.955)"><path class="a" d="M10.7,0H41.4A10.7,10.7,0,0,1,52.1,10.7V41.4A10.7,10.7,0,0,1,41.4,52.1H10.7A10.7,10.7,0,0,1,0,41.4V10.7A10.7,10.7,0,0,1,10.7,0Z" transform="translate(1112.608 6238.955)"/><path class="b" d="M1152.67,6253.277h4.806v-7.555h-7.2a9.765,9.765,0,0,0-7.416,3.64s-1.966,1.854-2,7.283h0v5.666h-7.119v8.022h7.119v20.724h8.212v-20.724h7.064l.984-8.022h-8.048v-5.666h0A3.3,3.3,0,0,1,1152.67,6253.277Z"/></g></svg>