<svg xmlns="http://www.w3.org/2000/svg" width="175.496" height="175.496" viewBox="0 0 175.496 175.496"><defs><style>.a{fill:#5eb366;}.b{fill:#fff;}.c{fill:#41072d;}.d{fill:#b01221;}.e{fill:#6b1b1e;}.f{fill:#ce271d;}.g{fill:#430d1b;}.h{fill:#b57a85;}.i{fill:#cc4f48;}.j{fill:#c8b197;}.k{fill:#e72b18;}.l{fill:#b11021;}.m{fill:#fbf8f5;}.n{fill:#5d5052;}.o{fill:#48ab98;}.p{fill:#1a8773;}.q{fill:#365e37;}</style></defs><g transform="translate(-11.698 -6129.847)"><circle class="a" cx="62.047" cy="62.047" r="62.047" transform="translate(11.698 6217.595) rotate(-45)"/><path class="b" d="M56.314,6202.2l2.616-3.6,40.338-28.158,37.359,27.722,2.921,3.88,1.753,2.813.089,47.881-.775,1.264-2.424,2.238-1.358.683-77.115.144-1.847-.871-2.238-2.035-.683-1.456-.088-47.1Z"/><path class="c" d="M86.251,6239.693c-2.786-6.052.036-13.9,2.382-19.638a74.381,74.381,0,0,1,12.231-19.431c11.069-13.17,26.312-23.7,43.79-25.433a.8.8,0,0,0-.145-1.592c-17.984,1.784-33.43,12.559-44.885,26.017a75.407,75.407,0,0,0-12.774,20.591c-2.372,5.922-4.941,13.866-2.094,20.048.428.93,1.926.375,1.5-.562Z"/><path class="c" d="M159.008,6153.787s-6.907,4.632-10.768,10.265a44.907,44.907,0,0,0-5.5,11.009,59.68,59.68,0,0,1,7.01-9.606,143.457,143.457,0,0,0,9.253-11.668Z"/><path class="c" d="M153.215,6154.218s-6.908,4.631-10.768,10.265a44.907,44.907,0,0,0-5.5,11.009,59.609,59.609,0,0,1,7.01-9.606,143.431,143.431,0,0,0,9.253-11.668Z"/><path class="c" d="M144.62,6153.67s-5.973,5.787-8.77,12.017A44.922,44.922,0,0,0,132.4,6177.5a59.679,59.679,0,0,1,5.19-10.7,143.561,143.561,0,0,0,7.029-13.129Z"/><path class="c" d="M134.4,6153.792s-4.618,6.917-6.038,13.6a44.873,44.873,0,0,0-.88,12.273,59.667,59.667,0,0,1,2.816-11.554,143.52,143.52,0,0,0,4.1-14.316Z"/><path class="c" d="M126.857,6155.515s-3.816,7.39-4.479,14.186a44.883,44.883,0,0,0,.5,12.295,59.648,59.648,0,0,1,1.506-11.8,143.3,143.3,0,0,0,2.475-14.685Z"/><path class="c" d="M118.712,6158.436s-2.941,7.78-2.819,14.607A44.873,44.873,0,0,0,117.8,6185.2a59.639,59.639,0,0,1,.139-11.891,143.42,143.42,0,0,0,.771-14.872Z"/><path class="c" d="M110.968,6161.759s-2,8.073-1.067,14.839a44.874,44.874,0,0,0,3.337,11.843,59.578,59.578,0,0,1-1.271-11.824,143.592,143.592,0,0,0-1-14.858Z"/><path class="c" d="M106.43,6164.688s-2,8.074-1.067,14.839a44.9,44.9,0,0,0,3.336,11.843,59.667,59.667,0,0,1-1.271-11.823,143.416,143.416,0,0,0-1-14.859Z"/><path class="c" d="M102.029,6168.757s-2,8.073-1.067,14.838a44.889,44.889,0,0,0,3.337,11.844,59.578,59.578,0,0,1-1.271-11.824,143.58,143.58,0,0,0-1-14.858Z"/><path class="c" d="M93.948,6174.025s-.333,8.31,1.939,14.75a44.9,44.9,0,0,0,5.65,10.93,59.647,59.647,0,0,1-3.623-11.326,143.376,143.376,0,0,0-3.966-14.354Z"/><path class="c" d="M88.575,6178.725s.544,8.3,3.483,14.463a44.876,44.876,0,0,0,6.77,10.275,59.658,59.658,0,0,1-4.8-10.882,143.641,143.641,0,0,0-5.457-13.856Z"/><path class="c" d="M82.41,6183.082s1.438,8.192,5.025,14a44.888,44.888,0,0,0,7.841,9.482,59.664,59.664,0,0,1-5.944-10.3,143.611,143.611,0,0,0-6.922-13.186Z"/><path class="c" d="M78.6,6188.369s2.223,8.014,6.354,13.451a44.909,44.909,0,0,0,8.72,8.681,59.647,59.647,0,0,1-6.91-9.677,143.384,143.384,0,0,0-8.164-12.455Z"/><path class="c" d="M75.96,6192.36s2.222,8.014,6.354,13.451a44.91,44.91,0,0,0,8.72,8.681,59.637,59.637,0,0,1-6.911-9.677,143.549,143.549,0,0,0-8.163-12.455Z"/><path class="c" d="M161.317,6192.876s-3.89-7.352-9.092-11.776a44.85,44.85,0,0,0-10.38-6.607,59.628,59.628,0,0,1,8.826,7.969,143.619,143.619,0,0,0,10.646,10.414Z"/><path class="c" d="M155.463,6193.926s-3.89-7.352-9.092-11.776a44.87,44.87,0,0,0-10.38-6.607,59.613,59.613,0,0,1,8.826,7.969,143.682,143.682,0,0,0,10.646,10.414Z"/><path class="c" d="M151.306,6195.517s-3.89-7.351-9.092-11.775a44.886,44.886,0,0,0-10.38-6.607,59.581,59.581,0,0,1,8.826,7.969,143.636,143.636,0,0,0,10.646,10.413Z"/><path class="c" d="M146.469,6197.667s-3.89-7.351-9.092-11.775a44.9,44.9,0,0,0-10.38-6.608,59.691,59.691,0,0,1,8.826,7.969,143.2,143.2,0,0,0,10.646,10.414Z"/><path class="c" d="M142.091,6200.237s-3.89-7.351-9.092-11.775a44.893,44.893,0,0,0-10.38-6.607,59.55,59.55,0,0,1,8.826,7.969,143.586,143.586,0,0,0,10.646,10.413Z"/><path class="c" d="M137.193,6203.007s-3.89-7.352-9.092-11.775a44.879,44.879,0,0,0-10.38-6.608,59.627,59.627,0,0,1,8.826,7.969,143.622,143.622,0,0,0,10.646,10.414Z"/><path class="c" d="M132.074,6206.754s-3.89-7.351-9.092-11.775a44.9,44.9,0,0,0-10.38-6.608,59.627,59.627,0,0,1,8.826,7.969,143.62,143.62,0,0,0,10.646,10.414Z"/><path class="c" d="M127.635,6209.943s-3.89-7.351-9.093-11.775a44.877,44.877,0,0,0-10.379-6.607,59.627,59.627,0,0,1,8.826,7.969,143.321,143.321,0,0,0,10.646,10.413Z"/><path class="c" d="M123.754,6213.813s-3.89-7.351-9.092-11.775a44.876,44.876,0,0,0-10.38-6.608,59.627,59.627,0,0,1,8.826,7.969,143.62,143.62,0,0,0,10.646,10.414Z"/><path class="c" d="M120.393,6217.483s-3.89-7.351-9.093-11.775a44.9,44.9,0,0,0-10.379-6.608,59.627,59.627,0,0,1,8.826,7.969,143.407,143.407,0,0,0,10.646,10.414Z"/><path class="c" d="M117.49,6221.573s-3.89-7.351-9.092-11.775a44.877,44.877,0,0,0-10.379-6.607,59.668,59.668,0,0,1,8.826,7.969,143.49,143.49,0,0,0,10.645,10.413Z"/><path class="c" d="M114.748,6225.3s-3.89-7.35-9.092-11.775a44.877,44.877,0,0,0-10.379-6.607,59.668,59.668,0,0,1,8.826,7.969,143.491,143.491,0,0,0,10.645,10.413Z"/><path class="c" d="M111.907,6228.776s-3.89-7.351-9.092-11.775a44.919,44.919,0,0,0-10.38-6.608,59.627,59.627,0,0,1,8.826,7.969,143.62,143.62,0,0,0,10.646,10.414Z"/><path class="c" d="M109.784,6232.568s-3.89-7.351-9.092-11.775a44.9,44.9,0,0,0-10.38-6.608,59.627,59.627,0,0,1,8.826,7.969,143.62,143.62,0,0,0,10.646,10.414Z"/><path class="c" d="M168.476,6180.466s-7.072-4.377-13.8-5.565a44.907,44.907,0,0,0-12.3-.456,59.642,59.642,0,0,1,11.643,2.416,143.578,143.578,0,0,0,14.449,3.6Z"/><path class="d" d="M116.361,6195.6s.112-4.5.688-5.988,3.31-5.434,4.229-5.75c2.017-.694,5.741,5.271,6.147,6.525a40.884,40.884,0,0,1,.65,5.718l-6.184,2.166Z"/><path class="d" d="M124.942,6194.1a36.165,36.165,0,0,1,5.312-3.411c1.932-.829,5.422-1.878,6.422-1.183s1.184,3.405.345,5.531-4.222,9.231-4.222,9.231Z"/><path class="d" d="M107.694,6199.974a37.769,37.769,0,0,1-.8-5.057c-.058-1.754.663-5.879,1.536-6.141s5.328,1.558,6.784,2.265c3.65,1.771,4.935,7.752,4.935,7.752l-2.737,3.311Z"/><path class="e" d="M117.518,6203.637s1.511-7.538,3.392-9.655,3.415-3.734,4.262-3.886,4.056,4.533,4.139,7.684-2.639,11.917-2.639,11.917l-6.532,2.666Z"/><path class="f" d="M110.564,6202.61a24.2,24.2,0,0,1,.985-4.761c.6-1.6,1.34-4.793,2.136-4.725s4.768,2.958,6,6.143c1.128,2.907,3.664,10.243.452,13.1-1.741,1.547-1.906,2.227-5.277.752S111.326,6203.829,110.564,6202.61Z"/><path class="f" d="M120.9,6207.086c-.344-1.779,4.264-6.9,6.45-8.832s6.5-3.021,7.413-2.462,1.759,6.438.462,9.038-9.212,10.746-12.075,10.084S121.108,6208.179,120.9,6207.086Z"/><path class="g" d="M106.841,6214.848s-.422-4.846-.785-8.293-1.614-9.073-.741-9.335,5.369,1.358,8.468,4.51,6.61,21.119,6.61,21.119a21.551,21.551,0,0,1-7.691-.948C109.281,6220.646,108.467,6216.847,106.841,6214.848Z"/><path class="g" d="M117.721,6213.756s6.42-7.66,9.555-8.675,11.571-2.892,12.291-2.494-3.713,8.537-5.807,11.069a32.823,32.823,0,0,1-4.093,4.157s-6.356,5.785-11.564,4.233C116.042,6221.432,117.721,6213.756,117.721,6213.756Z"/><path class="h" d="M107.319,6200.208c.265.433.471.9.736,1.33a.283.283,0,0,0,.479-.3c-.265-.432-.471-.9-.736-1.33a.282.282,0,0,0-.479.3Z"/><path class="h" d="M110.562,6202.234a11.146,11.146,0,0,1,.816,1.29.29.29,0,0,0,.354.186.283.283,0,0,0,.186-.354,12.054,12.054,0,0,0-.877-1.421.282.282,0,0,0-.479.3Z"/><path class="h" d="M107.325,6204.373a3.053,3.053,0,0,0,.652,2.019c.219.287.7-.01.479-.3a2.577,2.577,0,0,1-.566-1.743c.016-.364-.549-.338-.565.023Z"/><path class="h" d="M109.959,6205.342a2.385,2.385,0,0,1,.364,1.116.282.282,0,0,0,.564-.023,2.965,2.965,0,0,0-.448-1.392.283.283,0,0,0-.48.3Z"/><path class="h" d="M108.687,6209.34c.378.613.7,1.259,1.075,1.872a.282.282,0,0,0,.479-.3c-.377-.613-.7-1.259-1.075-1.872a.282.282,0,0,0-.479.3Z"/><path class="h" d="M111.72,6211a2.334,2.334,0,0,1,.414.9c.045.359.61.339.565-.024a2.935,2.935,0,0,0-.5-1.171.282.282,0,0,0-.479.3Z"/><path class="h" d="M114.044,6212.291a5.5,5.5,0,0,1,.105,1.927c-.022.363.543.337.565-.024a5.908,5.908,0,0,0-.13-2.071.283.283,0,0,0-.54.168Z"/><path class="h" d="M110.089,6215.695c.378.612.7,1.259,1.075,1.872a.282.282,0,0,0,.479-.3c-.378-.613-.7-1.26-1.075-1.873a.283.283,0,0,0-.479.3Z"/><path class="h" d="M113.122,6217.355a2.363,2.363,0,0,1,.414.9c.044.358.61.339.565-.024a2.935,2.935,0,0,0-.5-1.171.282.282,0,0,0-.479.3Z"/><path class="h" d="M115.446,6218.646a5.514,5.514,0,0,1,.105,1.926c-.023.364.542.337.565-.023a5.907,5.907,0,0,0-.131-2.071.282.282,0,0,0-.539.168Z"/><path class="h" d="M115.272,6209.76a3.583,3.583,0,0,1,.317,1.512c0,.364.559.339.565-.024a3.988,3.988,0,0,0-.342-1.656c-.143-.331-.684-.167-.54.168Z"/><path class="h" d="M113.143,6208.63a3.1,3.1,0,0,0,.6.649c.279.234.667-.176.388-.411a2.73,2.73,0,0,1-.513-.537c-.2-.305-.679-.006-.479.3Z"/><path class="h" d="M113.7,6204.976a3.336,3.336,0,0,1,.771,1.234c.146.329.687.166.54-.168a3.986,3.986,0,0,0-.923-1.477c-.275-.238-.663.173-.388.411Z"/><path class="h" d="M120.829,6215.654a3.441,3.441,0,0,1,.617-1.335c.226-.284-.184-.673-.411-.388a4.094,4.094,0,0,0-.756,1.6.282.282,0,0,0,.55.127Z"/><path class="h" d="M123.007,6211.711a3.716,3.716,0,0,1,1.273-1.318c.285-.222-.012-.7-.3-.479a4.321,4.321,0,0,0-1.471,1.528c-.149.331.348.6.5.269Z"/><path class="h" d="M124.008,6215.086a19.972,19.972,0,0,1,1.677-1.236.282.282,0,0,0-.3-.479,20.028,20.028,0,0,0-1.678,1.235c-.283.224.014.706.3.48Z"/><path class="h" d="M124.254,6217.276a11.113,11.113,0,0,0,1.686-.77c.328-.148.164-.69-.168-.54a11.292,11.292,0,0,1-1.685.771c-.353.093-.184.632.167.539Z"/><path class="h" d="M129.145,6217.143a20.57,20.57,0,0,1,1.864-1.541c.27-.247-.144-.632-.411-.388a20.63,20.63,0,0,0-1.864,1.541c-.239.275.172.663.411.388Z"/><path class="h" d="M129.129,6214.7c.32-.375.73-.658,1.051-1.033.236-.276-.175-.665-.411-.387-.321.375-.731.657-1.051,1.033-.237.276.174.664.411.387Z"/><path class="h" d="M128.08,6211.213a8.073,8.073,0,0,1,1.918-1.47.282.282,0,0,0-.3-.479,8.546,8.546,0,0,0-2.03,1.561c-.238.276.173.664.411.388Z"/><path class="h" d="M127.183,6208.57a3.137,3.137,0,0,1,1.285-.991c.328-.148.164-.689-.168-.54a3.691,3.691,0,0,0-1.528,1.143c-.211.291.2.682.411.388Z"/><path class="h" d="M131.558,6206.508a9.924,9.924,0,0,1,1.847-.965c.33-.155.027-.633-.3-.479a9.834,9.834,0,0,0-1.847.965c-.287.219.009.7.3.479Z"/><path class="h" d="M132.477,6208.75a3.248,3.248,0,0,1,1.1-.962c.33-.154.027-.631-.3-.479a3.6,3.6,0,0,0-1.217,1.053c-.232.28.179.669.411.388Z"/><path class="h" d="M132.725,6212a6.446,6.446,0,0,0,1.548-1.858.283.283,0,0,0-.5-.269,5.7,5.7,0,0,1-1.35,1.647c-.28.227.016.709.3.48Z"/><path class="h" d="M135.943,6206.3a10.825,10.825,0,0,1,1.322-1.2c.279-.234-.136-.619-.412-.388a10.792,10.792,0,0,0-1.322,1.2c-.236.276.175.665.412.387Z"/><path class="i" d="M114.16,6195.456a3.362,3.362,0,0,1,.635,1.318c.089.354.628.185.539-.168a3.955,3.955,0,0,0-.787-1.561c-.23-.282-.615.133-.387.411Z"/><path class="i" d="M113.459,6197.363a3.078,3.078,0,0,0,.153,2.213c.181.317.66.016.48-.3a2.512,2.512,0,0,1-.082-1.786.283.283,0,0,0-.551-.127Z"/><path class="i" d="M115.293,6200.137a9.224,9.224,0,0,0,.465,1.5c.143.331.684.167.54-.168a9.224,9.224,0,0,1-.465-1.5c-.086-.354-.625-.185-.54.168Z"/><path class="i" d="M116.857,6198.586a11.488,11.488,0,0,1,.681,1.374c.145.329.687.166.539-.168a12.571,12.571,0,0,0-.741-1.506.283.283,0,0,0-.479.3Z"/><path class="i" d="M118.816,6202.46l.355,1.474c.085.354.625.185.54-.168q-.178-.738-.356-1.474c-.085-.355-.624-.185-.539.168Z"/><path class="i" d="M117.38,6204.03c.085.774.312,1.523.4,2.3.039.36.6.339.564-.024-.084-.773-.312-1.522-.4-2.295-.039-.36-.6-.34-.564.023Z"/><path class="i" d="M118.962,6208.224a10.931,10.931,0,0,0,.033,1.863c.05.357.615.338.565-.023a10.944,10.944,0,0,1-.033-1.864c.011-.364-.554-.339-.565.024Z"/><path class="i" d="M122.153,6206.874a14.816,14.816,0,0,1,1.161-1.635c.23-.28-.181-.669-.412-.387a16.013,16.013,0,0,0-1.246,1.753c-.192.311.307.577.5.269Z"/><path class="i" d="M125.384,6204.617c.547-.439,1.046-.933,1.593-1.372.281-.225-.015-.707-.3-.479-.547.439-1.046.933-1.593,1.372-.281.225.015.707.3.479Z"/><path class="i" d="M126.754,6201.4a8.111,8.111,0,0,1,1.4-1.241.283.283,0,0,0-.3-.479,8.764,8.764,0,0,0-1.513,1.332c-.254.263.158.65.411.388Z"/><path class="i" d="M129.252,6203.133l1.526-2.083c.213-.291-.2-.681-.411-.388l-1.526,2.083c-.213.291.2.681.411.388Z"/><path class="i" d="M131.152,6199.559a7.179,7.179,0,0,1,1.194-1.279c.277-.237-.137-.621-.411-.387a7.682,7.682,0,0,0-1.28,1.4c-.212.3.289.561.5.269Z"/><path class="i" d="M133.466,6198.625a18.049,18.049,0,0,1-.425,2.338.283.283,0,0,0,.551.127,18.185,18.185,0,0,0,.424-2.338c.035-.357-.515-.489-.55-.127Z"/><path class="i" d="M132.346,6201.962l-.2.881a.282.282,0,0,0,.55.127l.2-.881a.283.283,0,0,0-.551-.127Z"/><path class="i" d="M134.32,6201.954l-.051.22a.283.283,0,0,0,.551.128l.05-.221a.282.282,0,1,0-.55-.127Z"/><path class="j" d="M125.1,6192.167a12.863,12.863,0,0,1-.542,1.886c-.134.334.362.606.5.269a13.852,13.852,0,0,0,.6-2.028.282.282,0,0,0-.55-.127Z"/><path class="j" d="M123.457,6193.8c-.447.818-.849,1.659-1.272,2.49-.165.325.332.594.5.269.423-.831.825-1.672,1.272-2.49a.283.283,0,0,0-.5-.269Z"/><path class="j" d="M120.744,6196.96a5.762,5.762,0,0,0-.11,2.023c.049.357.615.338.565-.023a5.293,5.293,0,0,1,.1-1.873.282.282,0,0,0-.55-.127Z"/><path class="j" d="M122.115,6200.06a8.858,8.858,0,0,0-.254,1.643c-.014.363.55.338.565-.024a8.086,8.086,0,0,1,.239-1.491.282.282,0,0,0-.55-.128Z"/><path class="j" d="M124.039,6197.257c-.154.7-.219,1.417-.374,2.118a.283.283,0,0,0,.551.127c.154-.7.22-1.417.373-2.117a.282.282,0,0,0-.55-.128Z"/><path class="j" d="M125.819,6196.122c.047.44.147.87.161,1.313a.282.282,0,0,0,.564-.023c-.014-.443-.113-.874-.16-1.313-.038-.36-.6-.34-.565.023Z"/><path class="j" d="M126.448,6193.728a3.4,3.4,0,0,1,.727,1.548c.061.353.627.335.565-.024a3.944,3.944,0,0,0-.813-1.824c-.227-.278-.709.017-.479.3Z"/><path class="j" d="M108.893,6190.44a1.6,1.6,0,0,1,.868,1.39c.039.36.6.339.565-.024a2.173,2.173,0,0,0-1.164-1.863c-.331-.148-.6.349-.269.5Z"/><path class="j" d="M108.812,6192.422a8.811,8.811,0,0,0,.5,2.5c.124.341.664.175.539-.168a8.3,8.3,0,0,1-.469-2.359.283.283,0,0,0-.565.023Z"/><path class="j" d="M110.48,6194.56a4.613,4.613,0,0,1,.461,1.323c.085.355.625.186.54-.168a5.107,5.107,0,0,0-.521-1.455c-.188-.313-.667-.013-.48.3Z"/><path class="j" d="M109.065,6196.668a4.323,4.323,0,0,0,1.223,1.285c.307.2.572-.3.269-.5a3.694,3.694,0,0,1-1.013-1.087.282.282,0,0,0-.479.3Z"/><path class="j" d="M111.078,6191.525a12.875,12.875,0,0,0,1.892.679.283.283,0,0,0,.127-.55,11.919,11.919,0,0,1-1.75-.626c-.334-.139-.605.357-.269.5Z"/><path class="j" d="M114.991,6192.661a7.83,7.83,0,0,1,1.38.754c.285.225.674-.185.388-.411a8.494,8.494,0,0,0-1.5-.84c-.325-.163-.594.334-.269.5Z"/><path class="j" d="M117.511,6194.433a5.442,5.442,0,0,0,.308,1.3c.125.34.666.175.54-.168a4.861,4.861,0,0,1-.284-1.156c-.038-.36-.6-.34-.564.023Z"/><path class="j" d="M119.2,6193.588c.244-1.028.578-2.031.822-3.058a.282.282,0,0,0-.55-.127c-.245,1.027-.579,2.03-.823,3.057a.283.283,0,0,0,.551.128Z"/><path class="j" d="M121.72,6191.734c.187-.771.458-1.517.645-2.287a.283.283,0,0,0-.551-.127c-.186.77-.458,1.516-.645,2.286a.283.283,0,0,0,.551.128Z"/><path class="j" d="M118.3,6190.479a2.625,2.625,0,0,1,.889-1.5c.281-.232-.135-.616-.412-.387a3.127,3.127,0,0,0-1.027,1.764.282.282,0,0,0,.55.128Z"/><path class="j" d="M121.052,6188.1a8.535,8.535,0,0,1,.923-2.03.283.283,0,0,0-.5-.269,9.05,9.05,0,0,0-.976,2.171.283.283,0,0,0,.55.128Z"/><path class="j" d="M122.371,6186.579a6.693,6.693,0,0,1,.538,1.563c.06.354.625.335.564-.024a7.1,7.1,0,0,0-.562-1.707c-.145-.329-.687-.166-.54.168Z"/><path class="j" d="M124.391,6189.076l.038.063.014.023c.023.043-.028-.068-.014-.027s0,.011-.007-.047c0,.023-.008.066.005-.04,0,.02-.008.041-.012.061a.282.282,0,1,0,.55.127.565.565,0,0,0,.008-.252.661.661,0,0,0-.1-.207.282.282,0,0,0-.479.3Z"/><path class="j" d="M129.46,6193.205a5.983,5.983,0,0,1,1.621-1.19c.327-.161.025-.639-.3-.479a6.427,6.427,0,0,0-1.734,1.282c-.255.261.157.647.412.387Z"/><path class="j" d="M130.493,6194.883a6.2,6.2,0,0,1,1.519-1.377c.285-.222-.012-.7-.3-.479a6.988,6.988,0,0,0-1.717,1.587c-.2.306.3.572.5.269Z"/><path class="j" d="M134.017,6192.055a5.158,5.158,0,0,1,1.512-1.215.283.283,0,0,0-.3-.48,5.616,5.616,0,0,0-1.623,1.307c-.213.291.2.681.411.388Z"/><path class="j" d="M134,6194.139c.339-.4.738-.743,1.077-1.143.235-.278-.176-.666-.412-.388-.338.4-.737.743-1.076,1.143-.235.278.176.666.411.388Z"/><path class="k" d="M79.316,6204.029a70.623,70.623,0,0,1,.091-9.529,31.686,31.686,0,0,1,.876-4.334c.305-1.131,1.174-2.372,1.109-3.543a8.254,8.254,0,0,0-3.988,3.48,19.378,19.378,0,0,0-1.653,2.933c.566-2.541.381-5.767.522-8.333.143-2.619.793-5.492.142-7.978a27.135,27.135,0,0,0-2.812,6.268c-1.18-2.644-2.139-5.358-3.577-7.984-.915-1.671-1.908-3.286-2.764-5a8.426,8.426,0,0,0-2.05-3.16c.675,3.12-.809,7.319-.949,10.525-.073,1.651-.133,3.349-.058,5,.059,1.294.6,2.891.368,4.159-2.295-.719-5.081-1.843-7.536-1.54,2.905,4.237,8.985,7.634,10.1,12.93-2.718-.849-5.844-2.06-8.652-2.195,2.137,1.488,3.772,4.408,5.478,6.371A33.3,33.3,0,0,1,67.9,6208.1c-2.546.193-6.224-1.56-8.518-.506,3.964,3.055,7.566,5.821,10.741,9.853,2.868,3.642,6.852,13.226,8.375,17.516l5.839-4.9c0,.015-.159-2.426-.223-3.271-.129-1.7-.269-3.338-.309-5.022-.079-3.3-.022-6.627.1-9.9.16-4.39.522-9.819,2.149-13.875C83.238,6199.443,81.73,6202.413,79.316,6204.029Z"/><path class="l" d="M65.212,6166.846a34.157,34.157,0,0,1,2.225,10.208c.248,5.424,3.179,15.982,3.179,15.982s.557-2.175,1.634-5.42,1.708-5.753,1.708-5.753a46.661,46.661,0,0,0-4.41-8.938C67.12,6169.452,65.212,6166.846,65.212,6166.846Z"/><path class="l" d="M73.3,6195.661l2.737-3.5a26.978,26.978,0,0,0,.6-5.792c.044-3.616-.228-9.645-.228-9.645s-.909,6.322-1.47,9.752S73.3,6195.661,73.3,6195.661Z"/><path class="l" d="M75.594,6213.118s-.588-1.108.931-4.462,1.956-.329,2.741-5.382,2.126-16.651,2.126-16.651a29.909,29.909,0,0,0-4.025,7.091C76.068,6197.327,75.594,6213.118,75.594,6213.118Z"/><path class="l" d="M80.427,6231.982s-3.31-5.135-2.932-9.931a36.9,36.9,0,0,1,3.2-11.764c1.372-3.318,5.365-12.282,5.365-12.282s-.55,3.252-.967,8.527-.246,12.914-1.287,16.934A48.446,48.446,0,0,1,80.427,6231.982Z"/><path class="m" d="M62.757,6198.317a22.473,22.473,0,0,0,2.578,2.391c.362.327.911-.2.545-.53a22.561,22.561,0,0,1-2.578-2.391c-.308-.382-.851.151-.545.53Z"/><path class="m" d="M68,6199.814a8.89,8.89,0,0,1,1.728,2.743.381.381,0,0,0,.664-.373,9.534,9.534,0,0,0-2-3.021c-.386-.3-.775.353-.393.651Z"/><path class="m" d="M67.656,6203.9a19.47,19.47,0,0,0,1.848,3.5c.307.382.85-.151.545-.531a18.823,18.823,0,0,1-1.73-3.343c-.225-.436-.888-.063-.663.372Z"/><path class="m" d="M71.718,6207.705a14.354,14.354,0,0,0,.82,2.409c.2.446.866.071.664-.373a13.038,13.038,0,0,1-.745-2.219.381.381,0,0,0-.739.183Z"/><path class="m" d="M74.156,6204.477a30.769,30.769,0,0,1,1.139-3.835c.157-.466-.574-.677-.73-.214a30.717,30.717,0,0,0-1.139,3.835c-.094.478.635.695.73.214Z"/><path class="m" d="M72.8,6200.5c.571-.841.8-1.852,1.31-2.728a.381.381,0,0,0-.652-.392c-.507.875-.739,1.888-1.309,2.727-.276.407.377.8.651.393Z"/><path class="m" d="M61.329,6187.674c.8.476,1.664.848,2.433,1.383.4.28.793-.373.392-.652-.768-.534-1.629-.907-2.432-1.382a.38.38,0,0,0-.393.651Z"/><path class="m" d="M66.067,6191.018a26.667,26.667,0,0,1,1.658,2.63c.249.422.913.051.663-.373a28.513,28.513,0,0,0-1.775-2.788c-.3-.389-.839.145-.546.531Z"/><path class="m" d="M67.33,6187.9c.169.656.417,1.288.586,1.945a.38.38,0,0,0,.738-.183c-.169-.657-.417-1.289-.586-1.945a.38.38,0,0,0-.738.183Z"/><path class="m" d="M66.429,6182.789c-.246-1.153.009-2.336-.239-3.493-.1-.48-.84-.3-.738.183.247,1.153-.008,2.336.239,3.493.1.48.841.3.738-.183Z"/><path class="m" d="M66.4,6177.676a8.9,8.9,0,0,1,.334-2.288.381.381,0,0,0-.73-.215,9.707,9.707,0,0,0-.365,2.483.381.381,0,0,0,.761.02Z"/><path class="m" d="M72.481,6193.085c.293-1.039.722-2.033,1.015-3.073a.381.381,0,0,0-.73-.214c-.292,1.039-.722,2.033-1.015,3.073a.381.381,0,0,0,.73.214Z"/><path class="m" d="M63.4,6209.522c.767.538,1.7.787,2.506,1.259a.38.38,0,0,0,.393-.651c-.807-.473-1.739-.722-2.507-1.26-.4-.282-.792.371-.392.652Z"/><path class="m" d="M69.664,6213.114a32.817,32.817,0,0,1,2.59,3.862c.267.408.933.039.663-.373a34.021,34.021,0,0,0-2.708-4.019c-.324-.369-.868.162-.545.53Z"/><path class="m" d="M69.783,6210.379a7.881,7.881,0,0,0,1.211,1.779c.318.374.862-.158.546-.531a7.093,7.093,0,0,1-1.094-1.621c-.2-.446-.865-.071-.663.373Z"/><path class="m" d="M74.116,6214.007c.372,1.547.586,3.127,1.049,4.651.142.468.881.287.738-.183-.463-1.524-.676-3.1-1.048-4.651a.381.381,0,0,0-.739.183Z"/><path class="m" d="M78.077,6211.864c.566-1.34,1.448-2.515,2.133-3.793.231-.431-.419-.825-.651-.392-.718,1.337-1.619,2.567-2.212,3.971-.191.452.542.661.73.214Z"/><path class="b" d="M56.52,6208.125l30.535,20.436,11.013,7.167,10.646-6.818,30.749-20.647,1.839-3.4.089,47.881-.775,1.264-2.424,2.238-1.358.683-77.115.144-1.847-.871-2.238-2.035-.683-1.456-.088-47.1Z"/><path class="n" d="M95.924,6219.138a4.058,4.058,0,0,0-1.279,3.166,3.2,3.2,0,0,0,1.8,2.818c.45.223.925.391,1.356.65a1.635,1.635,0,0,1,.781,1.19c.21,1.131-.857,2.3-1.686,2.932a.5.5,0,0,0-.173.662.484.484,0,0,0,.661.173,5.35,5.35,0,0,0,2.147-3.006,2.729,2.729,0,0,0-1.546-2.954c-.475-.244-.981-.42-1.442-.694a2.038,2.038,0,0,1-.855-1.277,3.086,3.086,0,0,1,.924-2.976c.468-.413-.218-1.094-.684-.684Z"/><path class="n" d="M84.644,6219.9c.185-.555.892-.815,1.4-.959a3.431,3.431,0,0,1,1.908,0c1.14.337,1.65,1.541,2.089,2.533a6.273,6.273,0,0,0,2.286,3.175,5.462,5.462,0,0,0,4.017.5c3.21-.738,4.935-3.971,7.026-6.2a28.528,28.528,0,0,1,2.99-2.694,10.632,10.632,0,0,1,3.611-2.091,2.689,2.689,0,0,1,1.509-.008.67.67,0,0,1,.318.181c.085.087-.052-.083.012.016.015.022.061.128.013.009a.731.731,0,0,1,.03.1c.02.078,0-.091,0,.05a1.085,1.085,0,0,1,0,.114c-.009.131.019-.1-.006.03a1.7,1.7,0,0,1-.069.252,3.054,3.054,0,0,1-.25.521,9.943,9.943,0,0,1-.813,1.179,18.857,18.857,0,0,0-1.681,2.217,2.318,2.318,0,0,0,.29,2.344c.49.838,1.145,1.569,1.625,2.414a2.782,2.782,0,0,1,.221.468.816.816,0,0,1,.075.448c-.005.129.022-.1,0,.024a1.024,1.024,0,0,1-.031.11c.033-.1-.054.088-.081.127.069-.1-.148.128-.082.077a1.91,1.91,0,0,1-.326.193,4.211,4.211,0,0,1-1.788.347,2.281,2.281,0,0,1-.674-.1,1.557,1.557,0,0,1-.451-.237,4.024,4.024,0,0,1-.94-2.191,6.121,6.121,0,0,0-.77-1.984,2.845,2.845,0,0,0-3.1-1.08c-.608.142-.35,1.074.257.932a1.892,1.892,0,0,1,1.92.526,3.163,3.163,0,0,1,.534,1.061,18.935,18.935,0,0,0,.817,2.637,2.6,2.6,0,0,0,2.4,1.4c1.006.017,2.585-.236,3.115-1.232.436-.819-.075-1.749-.524-2.44a21.776,21.776,0,0,1-1.591-2.414,2.217,2.217,0,0,1-.15-.466c-.029-.141.007.1-.006-.042,0-.042,0-.083,0-.125,0-.02.013-.154,0-.033a.973.973,0,0,1,.029-.13c.031-.1-.037.062.036-.086.034-.068.074-.133.113-.2.106-.172.227-.336.348-.5.563-.749,1.278-1.552,1.828-2.377.45-.677.96-1.6.538-2.409-.5-.948-2.013-.894-2.878-.682a10.542,10.542,0,0,0-3.731,2.062,34.127,34.127,0,0,0-3.03,2.645c-1.187,1.161-2.139,2.538-3.244,3.774a7.558,7.558,0,0,1-3.613,2.5,4.4,4.4,0,0,1-3.675-.594,3.891,3.891,0,0,1-1.111-1.507c-.283-.562-.513-1.149-.783-1.717a3.925,3.925,0,0,0-2.943-2.486c-1.386-.2-3.444.253-3.945,1.755-.2.593.736.845.933.257Z"/><path class="n" d="M90,6226.142a7.22,7.22,0,0,0-.242-4.192,8.756,8.756,0,0,0-2.23-3.038c-1.011-.952-2.133-1.779-3.2-2.667a15.6,15.6,0,0,1-1.795-1.683,2.625,2.625,0,0,1-.781-1.757,2.955,2.955,0,0,1,.913-1.71c.482-.542,1.042-1,1.562-1.508a9.718,9.718,0,0,0,2.3-3.1,2.9,2.9,0,0,0,.2-1.652,2.394,2.394,0,0,0-.992-1.419,5.094,5.094,0,0,0-3.548-.851,2.168,2.168,0,0,0-2.09,1.874,3.836,3.836,0,0,0,.5,1.968,4.072,4.072,0,0,0,1.2,1.459,6.779,6.779,0,0,0,3.251,1,6.878,6.878,0,0,1,3.566,1.245c1.066.9.986,2.257.643,3.481-.362,1.295-1,2.493-1.369,3.786a11.031,11.031,0,0,0-.227,3.1,6.038,6.038,0,0,1-.465,2.992,2.526,2.526,0,0,1-2.916.868,11.982,11.982,0,0,1-3.418-2.1,6.7,6.7,0,0,0-1.791-.9,4.8,4.8,0,0,0-2.2-.089,9.587,9.587,0,0,0-4.338,2.262,21.519,21.519,0,0,0-3.323,3.518,20.369,20.369,0,0,1-3.295,3.654,7.651,7.651,0,0,1-2.074,1.154c-.541.2-1.326.488-1.845.086-.545-.423-.344-1.224-.163-1.784a2.57,2.57,0,0,1,1.071-1.461c1.13-.694,2.722-.106,3.8.408a10.915,10.915,0,0,1,1.744,1.05c.55.4,1.02.9,1.528,1.353a10.578,10.578,0,0,0,3.855,2.355,8.16,8.16,0,0,0,4.806-.159c3.135-.978,5.628-3.246,8.456-4.819a9.553,9.553,0,0,1,5.074-1.431,11.83,11.83,0,0,1,2.546.444c.863.229,1.71.577,2.588.741a4.012,4.012,0,0,0,3.715-1.306c.835-.893,1.822-2.448,1.248-3.707-.484-1.061-1.852-1.288-2.886-1.356-1.642-.109-3.267.359-4.906.181a2.911,2.911,0,0,1-2.787-2.283,3.8,3.8,0,0,1,1.22-3.06c.3-.287-.155-.742-.456-.456a4.464,4.464,0,0,0-1.409,3.516,3.372,3.372,0,0,0,2.834,2.83c1.656.391,3.367-.113,5.037-.1.9.007,2.494.083,2.822,1.141a2.526,2.526,0,0,1-.478,1.9,4.954,4.954,0,0,1-1.442,1.6,3.18,3.18,0,0,1-1.9.534,10.377,10.377,0,0,1-2.507-.642,11.3,11.3,0,0,0-5.063-.494,13.582,13.582,0,0,0-4.745,2.094c-2.753,1.717-5.361,3.9-8.662,4.42a6.873,6.873,0,0,1-4.576-.937,12.581,12.581,0,0,1-1.857-1.389c-.523-.458-1-.963-1.558-1.387a9.978,9.978,0,0,0-3.682-1.826,3.262,3.262,0,0,0-3.414.862c-.724.919-1.339,2.723-.308,3.633a2.011,2.011,0,0,0,1.847.281,7.611,7.611,0,0,0,2.023-.853,13.183,13.183,0,0,0,3.524-3.377,33.253,33.253,0,0,1,3.146-3.655,11.226,11.226,0,0,1,4.223-2.724,4.576,4.576,0,0,1,2.283-.17,5.3,5.3,0,0,1,1.815.829,17.724,17.724,0,0,0,3.406,2.16,3.524,3.524,0,0,0,3.448-.45,3.847,3.847,0,0,0,1.025-2.744c.072-1.076-.035-2.158.059-3.234a12.988,12.988,0,0,1,1.11-3.416,6.548,6.548,0,0,0,.588-3.835,3.939,3.939,0,0,0-2.807-2.53c-1.145-.38-2.366-.4-3.535-.673a4.263,4.263,0,0,1-1.518-.641,3.554,3.554,0,0,1-1.138-1.513,2.4,2.4,0,0,1-.207-1.777,1.452,1.452,0,0,1,1-.771,4.434,4.434,0,0,1,3.432.587,1.729,1.729,0,0,1,.861,1.355,3.043,3.043,0,0,1-.489,1.6,11.851,11.851,0,0,1-2.479,2.855c-.977.88-2.25,2.077-2.038,3.533a3.677,3.677,0,0,0,.946,1.792,14.542,14.542,0,0,0,1.795,1.683c1.065.891,2.183,1.719,3.2,2.667a8.14,8.14,0,0,1,2.064,2.754,6.51,6.51,0,0,1,.242,3.849c-.085.4.537.578.622.171Z"/><path class="o" d="M84.035,6199.657c.076.774-.14,1.447-.067,2.231.083.888.2,1.583,1.077,1.968.513.227,1.678.063,1.479.982-.432,1.988-3.724-2.71-3.68.056.031,1.985,2.345,2.179,3.709,2.359a5.128,5.128,0,0,1,2,.727c-.429,1.709-4.024-1-4.953-.925-1.193.094-.713,1.207-.169,1.849a5.249,5.249,0,0,0,2.47,1.5c1.34.376,2.859-.041,4.141.616,1.07.549.749,1.136-.311,1.23a7.723,7.723,0,0,1-2.664-.623c-.824-.226-4.014-1.663-3.51.091.358,1.248,2.26,1.931,3.33,2.238,2.085.6,5.409,1.91,7.264.064l.041.131c3.152.534,5.349-3.521,4.211-6.286-.341-.83-1.013-3.714-2.184-2.249-.562.705.069,1.692-.467,2.372-.806,1.021-1.221-.125-1.125-.934.171-1.448,1.416-2.976,1.024-4.483-.578-2.221-2.134-.674-2.58.754-.2.63.042,2.219-.872,2.282-1.294.09-.841-1.763-.632-2.375.251-.735,1.994-5.714-.661-4.865-1.378.44-.64,2.332-.9,3.273-.156.561-.684,1.214-1.3.61-.5-.494.012-1.438.029-1.935a1.686,1.686,0,0,0-.365-1.248c-.435-.544-.805-.347-1.316-.407a6.049,6.049,0,0,1-3.125-1.031C83.579,6198.243,83.97,6199,84.035,6199.657Z"/><path class="o" d="M72.4,6215.174c.536.567,6.934,1.614,5.224,3.283-.765.748-2.049-.487-2.61-.832a5.386,5.386,0,0,0-2.918-.84,5.9,5.9,0,0,0-3.429.935c-1.039.83-1.3,1.814.081,2.023,1.078.162,2.216-.3,3.286-.055,1.509.352,1.666,1.274.037,1.2-2.128-.1-3.863-.21-5.722,1.367-.735.623-1.194,1.394-.031,1.725.9.257,1.935-.658,2.871-.515.581.088,1.018.054,1.009.791-.011.85-.351.436-.932.648-1.161.422-1.723.54-2.419,1.7a3.364,3.364,0,0,0-.448,2.953,12.155,12.155,0,0,1,.912,4.11c1.708-.888,2.564.555,4.163.939,2.863.687,2.194-2.43,2.592-4.034.423-1.708.932-.962,1.077.305a26.741,26.741,0,0,0,.307,2.976c.575,2.489,2.6.384,2.81-1.208.132-.975-1.375-5.789.67-5.474,1.6.247.39,4.674.919,5.869.437.988,1.411.783,2.141-.114.662-.813.376-1.844.238-2.817-.15-1.063-1.515-5.458.7-4.963,2,.446,1.152,4.3,1.049,5.6,1.067.037,2.274.3,2.938-.74.485-.762.161-2.479.2-3.4.051-1.083.338-2.4.307-3.393-.038-1.231-1.049-1.928-1.473-2.584l-.615-.209c-.2-.112-1.539-.351-1.857-.713-.5-.567-.194-1.455-.379-2.187a5.047,5.047,0,0,0-2.924-3.347,16.571,16.571,0,0,0-4.769-.955C74.479,6213.137,70.719,6213.4,72.4,6215.174Z"/><path class="o" d="M123,6208.114c.992.078,3.239.382,3.045-1.394-.124-1.138-1.916-1.849-1.311-3.245a7.111,7.111,0,0,1-1.625.5,7.508,7.508,0,0,1-1.746-.233c-1.118-.185-2.635-.366-3.082.912-.214.614.171,3.091-1.305,2.375-1.443-.7.549-2.215.413-3.019-1.5-.58-2.539,1.216-2.647,2.458-.066.766.287,1.461-.54,1.754-1.052.373-1.07-.579-.975-1.337.074-.581.622-1.687-.254-2.006-.775-.283-1.447.9-1.713,1.461-.7,1.473-.175,2.829-.216,4.348-1.662.486-.983-2.545-1.112-3.155-.427-2.021-2.033.972-2.2,1.689a6.874,6.874,0,0,0,.31,4.252c.335.624,2.564,2.177,2.908,1.486l-.373.685c-.162,1.65,2.733,1.811,3.811,1.854a7.579,7.579,0,0,0,4.34-.859c2.622-1.457-1.894-.762-2.336-1.407-1.173-1.714,3.085-.4,3.451-.353,2.007.244,2.907-2.055.729-2.438-.574-.1-2.1.168-1.663-.814.315-.712,2.088-.65,2.7-.542.788.14,1.629.825,2.45.25a1.059,1.059,0,0,0-.162-1.889c-.55-.3-1.705-.114-2.145-.608C121,6207.988,122.367,6208.064,123,6208.114Z"/><path class="p" d="M85.026,6199.922c-1.069.3-1.973,1.26-2.959,1.558-.138-1.067,1.66-1.326,1.924-2.308.358-1.327-1.09-1.794-2.043-1.187-.551.351-1.389,2.295-2.117,2.255-.827-.046.278-2.138.173-2.794-1.307-.332-.759,1.874-2,1.808-.065-1.328-.215-2.471-1.851-2.382-1.075.059-2.584,1.268-3.482.656l.29.387a9.618,9.618,0,0,1,.291,1.74c0,.6-.06,1.769.7,2.012.607.194,1.585-1.205,1.99-.638.6.834-1.317,1.174-1.625,1.313-.689.311-1.128.993-.075,1.356.873.3,1.458-.508,2.133-.827s1.673-.234,1.136.754c-.357.657-1.47.589-2.033.842-1.68.755-.585,2.173.87,2.054,1.233-.1,1.494-1.812,2.79-1.919a4.114,4.114,0,0,1,.1.735c-.476.472-.6,1.115-1.165,1.547-.579.446-1.435.523-1.525,1.376-.159,1.505,2.458,1.57,3.263.658,1.1-1.243,1-2.921,1.474-4.331.418-1.232,3.046-1.15,4.084-2.4C86.117,6201.281,86.63,6199.467,85.026,6199.922Z"/><path class="p" d="M58.428,6226.963c.449,1.017,1.523,1.779,1.955,2.715-1.038.284-1.544-1.46-2.554-1.586-1.363-.17-1.625,1.329-.892,2.188.425.5,2.466,1.057,2.527,1.785.069.825-2.156.021-2.791.215-.147,1.341,1.961.492,2.068,1.732-1.306.249-2.417.556-2.1,2.164.207,1.056,1.614,2.383,1.132,3.357l.343-.341a9.687,9.687,0,0,1,1.683-.529c.592-.08,1.76-.186,1.9-.971.108-.627-1.413-1.4-.907-1.882.743-.705,1.345,1.141,1.525,1.427.4.64,1.14.98,1.353-.114.177-.906-.7-1.373-1.114-2s-.464-1.624.589-1.23c.7.262.787,1.374,1.116,1.9.981,1.559,2.233.278,1.914-1.147-.271-1.207-2-1.228-2.288-2.5a4.257,4.257,0,0,1,.714-.2c.534.406,1.188.444,1.694.94s.717,1.348,1.574,1.319c1.513-.051,1.214-2.651.2-3.323-1.383-.914-3.03-.582-4.493-.859-1.278-.243-1.562-2.857-2.942-3.712C59.623,6225.695,57.756,6225.439,58.428,6226.963Z"/><path class="p" d="M106.381,6215.813c-1.141-.086-2.3.882-3.5.257-.91-.475-.733-1.2.179-1.62,1.612-.749,3.665,1.275,4.509-.982,1.1-2.947-2.82-.265-3.43-2.107.713-.976,2.747-.015,3.836-.6,1.046-.56,2.1-3.009.878-3.8-.456.735-1.526,1.282-2.269.654s.111-1.432-.261-2.406c-.592-1.549-2.16-2.535-1.774-4.377-.593,1.282-4.329.293-5.374.778-2.276,1.053.369,2.355.718,3.518-1.44.8-2.476-1.964-3.658-1.745-1.241.231-.368,2.859.325,3.616.716.782,3.034,2.519.684,2.509-1.5-.007-2.28-1.391-2.652-2.638-1.076,1.011-1.467.913-1.214,2.58a28.158,28.158,0,0,0,1,2.763c.165.652-.015,2.249-1.039,2.089-1.072-.167-.674-1.97-.431-2.625-2.388-1.733-2.93,1.574-2.736,3.4a5.2,5.2,0,0,0,1.668,3.169c.723.721,2.226.828,2.717,1.536l1.575.044c2.343,3.2,6.861,1.659,9.533-.248C106.654,6218.884,108.753,6215.993,106.381,6215.813Z"/><path class="p" d="M104.627,6200.539c-.031.1-.056.2-.076.3A.865.865,0,0,0,104.627,6200.539Z"/><path class="o" d="M96.33,6218.513a6.741,6.741,0,0,1,1.61-3.3,21.069,21.069,0,0,0,2.285-3.1,15.783,15.783,0,0,0,1.657-3.963,25.26,25.26,0,0,1,.535-3.812c.07-.2-.241-.28-.311-.086a22.683,22.683,0,0,0-.535,3.812,8.737,8.737,0,0,1-.764,2.189c-.309.654-.628,1.325-1,1.946-1.232,2.067-3.557,3.768-3.8,6.312-.02.207.3.2.322,0Z"/><path class="o" d="M92.09,6215.339a6.638,6.638,0,0,0,4.176,2.465c.207.018.205-.305,0-.322a6.342,6.342,0,0,1-3.948-2.371c-.135-.158-.362.071-.228.228Z"/><path class="o" d="M96.417,6217.821a2.581,2.581,0,0,0,1.631.814,12.668,12.668,0,0,0,2.749.257,11.286,11.286,0,0,0,2.578-.255c.421-.1,1.113-.282,1.175-.8.025-.206-.3-.2-.322,0-.042.35-.889.482-1.137.534a11.542,11.542,0,0,1-2.362.2,12.652,12.652,0,0,1-2.481-.222c-.492-.1-1.248-.237-1.553-.69-.115-.171-.395-.01-.278.163Z"/><path class="o" d="M99.887,6212.866a12,12,0,0,1,4.943-.193c.2.048.288-.263.086-.311a12.4,12.4,0,0,0-5.115.193c-.2.038-.117.349.086.311Z"/><path class="o" d="M95.217,6210.149a6.73,6.73,0,0,0,2.214,1.242c.791.363,1.638.853,1.607,1.836-.006.207.316.207.323,0,.066-2.11-2.793-2.119-3.916-3.306-.143-.151-.371.077-.228.228Z"/><path class="o" d="M101.434,6209.7c.411-.828,1.6-.851,2.393-.851.867,0,1.727.152,2.593.158a.161.161,0,0,0,0-.323c-.967-.006-1.924-.177-2.894-.154-.843.021-1.95.161-2.371,1.008-.092.185.186.349.279.162Z"/><path class="o" d="M97.673,6205.5a13.138,13.138,0,0,0,3.074,2.774,1.5,1.5,0,0,0,.836.3c.205-.02.207-.342,0-.322a1.341,1.341,0,0,1-.725-.292,9.568,9.568,0,0,1-1.113-.822,9.412,9.412,0,0,1-1.794-1.8c-.116-.171-.4-.01-.278.162Z"/><path class="i" d="M58.9,6237.468a8.132,8.132,0,0,1,1.236-3.928,11.407,11.407,0,0,1,2.488-3.018c.159-.134-.07-.361-.228-.228a11.919,11.919,0,0,0-2.589,3.172,8.309,8.309,0,0,0-1.23,4,.162.162,0,0,0,.323,0Z"/><path class="o" d="M74.453,6198.844c1.085-.2,2.087.939,2.712,1.663a26.465,26.465,0,0,1,1.941,2.711c.115.172.394.011.279-.163a27.228,27.228,0,0,0-2.1-2.9c-.7-.8-1.747-1.846-2.921-1.625-.2.038-.117.349.086.311Z"/><path class="p" d="M70.5,6229.29c.706-4.619,6.014-5.99,9.4-8.123.175-.111.014-.39-.163-.279-3.466,2.182-8.829,3.591-9.551,8.317-.031.2.279.291.311.085Z"/><path class="p" d="M111.6,6214.494c1.622-4.216,6.461-5.191,9.63-7.859.159-.134-.07-.36-.228-.227a43.607,43.607,0,0,1-5.526,3.41,9.544,9.544,0,0,0-4.187,4.591c-.074.194.238.277.311.085Z"/><path class="p" d="M121.56,6224.955a23.805,23.805,0,0,1,4.462,1.243,13.961,13.961,0,0,1,4.074,2.293c.157.134.386-.092.228-.228a14.363,14.363,0,0,0-4.025-2.3,23.2,23.2,0,0,0-4.653-1.319c-.2-.036-.29.275-.086.311Z"/><path class="q" d="M84.68,6226.972l-28.16-18.847-1.656-2.522.088,47.1.683,1.456Z"/><path class="q" d="M87.054,6228.561l11.013,7.167,10.646-6.818,29.479,27.333-1.358.683-77.115.144-1.847-.871Z"/><path class="p" d="M95.643,6243.429c.714-.906.736-3.636.28-4.622-.74-1.6-2.322-2.2-3.241-3.543-.4-.593-.889-1.511.141-1.84.8-.255,1.981.847,2.5,1.322a6.221,6.221,0,0,1,1.575,2.169c.271.633.39,1.918,1.342,1.833,2.575-.229.6-6.252-.021-7.305a10.349,10.349,0,0,0-6.047-4.4l-1.032-1.172c-2.7-2.436-6.159-5.022-9.865-2.474-.831.572-3.4,2.219-3.047,3.271.691,2.041,3.1.1,4.247.019,2.09-.155,3.683,2.16,1.131,3-1.906.628-3.87.185-5.747,1.081-.838.4-1.974.7-1.9,1.874.07,1.084.945,1.446,1.858,1.469.888.022,5.449-1.915,4.558.307-.853,2.128-4.527,1.115-5.228,3.361-1.024,3.281,3.455.586,4.344,1.826-.552.743-1.556.974-2,1.82a3.48,3.48,0,0,0,.068,3.09c1,1.745,3.38,2.292,4.042,4.352.956-.9,2.421-1.448,3.329-2.444,1.086-1.19.76-2.244.8-3.653,1.716.1.607,3.711,2.878,2.444,1.314-.734.9-3.4.48-4.545-.2-.538-1.212-1.685-.239-1.8.788-.093,1.514,1.263,1.855,1.838C93.226,6241.589,94.115,6245.37,95.643,6243.429Z"/><path class="q" d="M111.668,6226.925l27.795-18.663,1.839-3.4.089,47.881-.775,1.264Z"/><path class="p" d="M122.159,6228.569c-.335-1.025-2.451-2.458-3.457-2.614-1.634-.255-2.92.666-4.449.682-.672.006-1.64-.093-1.36-1.064.215-.751,1.691-1.1,2.332-1.26a5.864,5.864,0,0,1,2.51-.1c.635.118,1.7.691,2.127-.092,1.161-2.12-4.559-3.711-5.705-3.771a9.711,9.711,0,0,0-6.576,2.417l-1.451.194c-3.3.834-7.119,2.182-7.06,6.382.014.943-.04,3.8.965,4.064,1.951.522,1.694-2.355,2.224-3.29.966-1.7,3.6-1.742,2.928.677-.5,1.806-1.869,3.1-2.147,5.026-.124.859-.483,1.9.474,2.447a1.533,1.533,0,0,0,2.111-.682c.479-.679,1.342-5.227,2.611-3.383,1.214,1.766-1.486,4.1-.1,5.8,2.025,2.5,2.253-2.381,3.682-2.428.292.814-.05,1.714.377,2.5a3.261,3.261,0,0,0,2.444,1.549c1.881.127,3.545-1.438,5.5-.884-.205-1.211.131-2.632-.173-3.854-.363-1.461-1.354-1.754-2.432-2.514.973-1.28,3.208,1.452,3.4-.97.112-1.4-2.183-2.466-3.293-2.729-.523-.124-1.944.068-1.528-.747.338-.661,1.773-.522,2.4-.489C119.467,6229.492,122.877,6230.762,122.159,6228.569Z"/><path class="o" d="M106.861,6224.4a28.252,28.252,0,0,0,2.358,3.847,27.432,27.432,0,0,0,2.938,3.181c1.005.98,2.007,1.967,2.911,3.043A8.519,8.519,0,0,1,117,6237.8c.049.2.36.116.311-.086a8.42,8.42,0,0,0-1.765-3.172,34.471,34.471,0,0,0-2.9-3.088,32.72,32.72,0,0,1-2.98-3.148,26.418,26.418,0,0,1-2.529-4.073c-.1-.184-.375-.021-.279.163Z"/><path class="o" d="M101.692,6228.555a5.225,5.225,0,0,1,5.91-2.537c.2.061.284-.25.086-.311a5.55,5.55,0,0,0-6.275,2.686c-.088.187.19.35.279.162Z"/><path class="o" d="M107.929,6226a4.363,4.363,0,0,1,3.091-2.566c1.267-.351,2.6-.408,3.857-.8.2-.063.113-.374-.086-.311-1.328.417-2.739.469-4.073.865a4.6,4.6,0,0,0-3.1,2.729c-.078.193.234.276.31.086Z"/><path class="o" d="M105.109,6234.455c.617-1.191,1.017-2.482,1.6-3.688.519-1.07,1.266-2.343,2.556-2.524.206-.029.118-.34-.085-.311-1.295.182-2.089,1.386-2.641,2.457-.653,1.264-1.056,2.641-1.711,3.9-.1.184.183.347.279.163Z"/><path class="o" d="M109.676,6237.758a12.7,12.7,0,0,1,.362-3.66c.258-1.012.744-2.314,1.841-2.664.2-.063.112-.374-.086-.311a3.6,3.6,0,0,0-2,2.656,12.4,12.4,0,0,0-.437,3.979c.008.207.331.208.322,0Z"/><path class="o" d="M112.884,6231.837a3.912,3.912,0,0,1,2.634-.323,6.359,6.359,0,0,1,1.572.472c.209.092.4.215.615.295.1.036.194.063.292.091.055.015.212.091.182.029v-.163l0-.019c-.193.073-.11.384.085.311a.363.363,0,0,0,.2-.129.161.161,0,0,0,0-.163c-.051-.1-.193-.127-.294-.155a4.681,4.681,0,0,1-.813-.33,6.611,6.611,0,0,0-1.747-.55,4.21,4.21,0,0,0-2.882.355c-.175.111-.013.39.163.279Z"/><path class="o" d="M110.241,6229.161a14.969,14.969,0,0,1,6.881-1.428.161.161,0,0,0,0-.323,15.349,15.349,0,0,0-7.044,1.473c-.185.1-.022.373.163.278Z"/><path class="o" d="M84.893,6242.386a26.886,26.886,0,0,1-.011-3.983A12.157,12.157,0,0,1,86,6234.381a15.233,15.233,0,0,1,2.138-3.249c.316-.379.636-.754.936-1.147a2.6,2.6,0,0,0,.583-1c.027-.155-.211-.213-.238-.058a2.772,2.772,0,0,1-.646,1.052c-.319.41-.661.8-.989,1.2a14.9,14.9,0,0,0-2.1,3.315,12.475,12.475,0,0,0-1.03,3.833,25.33,25.33,0,0,0,0,4.067.123.123,0,0,0,.245-.007Z"/><path class="o" d="M84.552,6226.938a3.367,3.367,0,0,1,3.374,3.938.123.123,0,0,0,.238.058,3.614,3.614,0,0,0-3.619-4.241c-.157.014-.151.259.007.245Z"/><path class="o" d="M88.257,6231a4.384,4.384,0,0,1,1.887-.716,5.727,5.727,0,0,1,2.658.617c.275.155.617.416.512.772-.045.152.194.21.238.059.273-.93-1.258-1.359-1.88-1.514a5.479,5.479,0,0,0-1.5-.181,4.487,4.487,0,0,0-2.048.755.123.123,0,0,0,.13.208Z"/><path class="o" d="M86.6,6233.343a3.137,3.137,0,0,1,2.776.857,6.92,6.92,0,0,1,1.022,1.148c.146.2.282.407.414.616a2.164,2.164,0,0,0,.326.535.126.126,0,0,0,.149.015l0,0a.126.126,0,0,0,.053-.14.633.633,0,0,0-.332-.377.122.122,0,0,0-.058.238c.047.013.14.164.156.211l.052-.14,0,0,.148.015a1.283,1.283,0,0,1-.184-.318q-.1-.171-.21-.337-.221-.344-.47-.667a6.713,6.713,0,0,0-1.1-1.15,3.28,3.28,0,0,0-2.811-.74c-.154.034-.082.268.072.234Z"/><path class="o" d="M85.329,6236.176a4.1,4.1,0,0,1,2.229.994,3.353,3.353,0,0,1,1.262,2.018c.021.155.266.149.244-.007a4.248,4.248,0,0,0-3.742-3.25c-.157-.012-.149.233.007.245Z"/><path class="o" d="M81.476,6236.5c.609-.243,1.214-.5,1.843-.687a4.6,4.6,0,0,1,1.012-.207c.232-.016.538-.008.662.223.074.139.282.009.208-.13-.3-.557-1.207-.318-1.678-.2a17.422,17.422,0,0,0-2.119.765c-.146.057-.076.292.072.234Z"/><path class="o" d="M80.912,6232.182a9.4,9.4,0,0,1,3.125-.806c1.02-.077,2.307.117,2.467,1.337.021.155.266.15.245-.007a1.652,1.652,0,0,0-.793-1.26,3.128,3.128,0,0,0-1.675-.328,9.126,9.126,0,0,0-3.441.83c-.142.063-.072.3.072.234Z"/></g></svg>