<svg xmlns="http://www.w3.org/2000/svg" width="52.101" height="52.102" viewBox="0 0 52.101 52.102"><defs><style>.a{fill:#5eb366;}.b{fill:#fff;}</style></defs><g transform="translate(-1214.167 -6239.906)"><path class="a" d="M10.7,0H41.4A10.7,10.7,0,0,1,52.1,10.7V41.4A10.7,10.7,0,0,1,41.4,52.1H10.7A10.7,10.7,0,0,1,0,41.4V10.7A10.7,10.7,0,0,1,10.7,0Z" transform="translate(1214.167 6239.906)"/><path class="b" d="M1247.757,6246.311h-15.08a12.107,12.107,0,0,0-12.107,12.108v15.08a12.106,12.106,0,0,0,12.107,12.1h15.08a12.106,12.106,0,0,0,12.107-12.1v-15.08A12.107,12.107,0,0,0,1247.757,6246.311Zm8.335,25.74a9.782,9.782,0,0,1-9.781,9.782h-12.187a9.782,9.782,0,0,1-9.783-9.782v-12.187a9.784,9.784,0,0,1,9.783-9.782h12.187a9.784,9.784,0,0,1,9.781,9.782Z"/><path class="b" d="M1240.744,6255.677a10.35,10.35,0,1,0,10.349,10.349A10.349,10.349,0,0,0,1240.744,6255.677Zm0,16.576a6.227,6.227,0,1,1,6.226-6.227A6.227,6.227,0,0,1,1240.744,6272.253Z"/><path class="b" d="M1253.009,6255.515a2.632,2.632,0,1,1-2.633-2.633A2.633,2.633,0,0,1,1253.009,6255.515Z"/></g></svg>