<svg xmlns="http://www.w3.org/2000/svg" width="25.774" height="30.225" viewBox="0 0 25.774 30.225"><defs><style>.a{fill:#5eb366;}</style></defs><path class="a" d="M636.766,6270.9a2.254,2.254,0,0,1,1.348,1.81c.361,1.578.7,3.161,1.042,4.745a3.679,3.679,0,0,1,.069.735,1.47,1.47,0,0,1-1.059,1.529c-.5.179-1,.351-1.51.505a1.236,1.236,0,0,0-.881.963,3.292,3.292,0,0,0,.078,1.892,20.341,20.341,0,0,0,6.17,8.968,13.4,13.4,0,0,0,1.89,1.306,2.3,2.3,0,0,0,1.415.25,1.118,1.118,0,0,0,.849-.5c.278-.408.568-.809.849-1.215a1.574,1.574,0,0,1,2.165-.642c.5.215.979.494,1.461.756q1.362.741,2.716,1.5c.231.129.459.267.679.414a2.206,2.206,0,0,1,1.158,1.671l-.087.6c-.2.457-.365.933-.6,1.367a6.378,6.378,0,0,1-4.88,3.419c-.439.063-.889.044-1.334.063l-1.035-.15c-.41-.127-.825-.239-1.228-.384a16.548,16.548,0,0,1-5.326-3.373,44.573,44.573,0,0,1-9.907-13.6,15.624,15.624,0,0,1-1.333-4.991c-.039-.508-.027-1.02-.039-1.531l.15-1.035c.029-.076.065-.15.086-.228a6.311,6.311,0,0,1,4.827-4.707,13.191,13.191,0,0,1,1.673-.226Z" transform="translate(-629.431 -6270.81)"/></svg>