<svg xmlns="http://www.w3.org/2000/svg" width="52.102" height="52.102" viewBox="0 0 52.102 52.102"><defs><style>.a{fill:#5eb366;}.b{fill:#fff;}.c{fill:#e3d9d9;}</style></defs><g transform="translate(-1011.392 -6238.955)"><path class="a" d="M10.7,0H41.4A10.7,10.7,0,0,1,52.1,10.7V41.4A10.7,10.7,0,0,1,41.4,52.1H10.7A10.7,10.7,0,0,1,0,41.4V10.7A10.7,10.7,0,0,1,10.7,0Z" transform="translate(1011.392 6238.955)"/><path class="b" d="M1057.021,6269.731c0,4.935-1.688,8.935-6.62,8.935h-25.389c-4.935,0-7.149-4-7.149-8.935v-9.45c0-4.935,2-8.934,6.939-8.934h25.806c4.936,0,6.413,4,6.413,8.934Z"/><path class="a" d="M1033.518,6259.667l10.666,5.567-10.666,5.565Z"/><path class="c" d="M1033.518,6259.752l9.276,6.206,1.39-.723-9.842-5.136-.824-.357Z"/></g></svg>