<?xml version="1.0" encoding="iso-8859-1"?>
<!-- Generator: Adobe Illustrator 18.1.1, SVG Export Plug-In . SVG Version: 6.00 Build 0)  -->
<svg version="1.1" id="Capa_1" xmlns="http://www.w3.org/2000/svg" xmlns:xlink="http://www.w3.org/1999/xlink" x="0px" y="0px"
	 viewBox="0 0 58 58" style="enable-background:new 0 0 58 58;" xml:space="preserve">
<g>
	<g>
		<path style="fill:#010002;" d="M53.139,13.291c-0.436-0.679-1.264-1.523-1.927-1.966c-4.002-2.672-7.721-2.203-9.586-1.688
			c-0.966,0.268-1.957,1.084-2.471,1.731l-1.976,2.501c-0.097,0.115-0.437,0.281-0.586,0.285H21.408
			c-0.15-0.004-0.49-0.17-0.584-0.281l-1.98-2.508c-0.512-0.645-1.503-1.461-2.47-1.729c-1.861-0.517-5.583-0.983-9.584,1.686
			c-0.663,0.443-1.492,1.289-1.929,1.969c-1.4,2.183-4.676,8.32-4.842,18.153c-0.184,10.868,0.853,16.223,7.233,17.254
			c0.273,0.044,0.541,0.065,0.806,0.065c4.596-0.001,7.961-6.387,9.814-9.905l0.196-0.372c0.218-0.41,0.656-0.896,0.829-0.996
			c1.177-0.687,4.043-1.83,10.103-1.872c6.06,0.042,8.926,1.186,10.103,1.873c0.172,0.1,0.61,0.585,0.827,0.994l0.197,0.373
			c1.96,3.722,5.615,10.64,10.62,9.84c6.381-1.031,7.417-6.386,7.233-17.254C57.816,21.612,54.541,15.474,53.139,13.291z
			 M50.27,45.738c-2.89,0.432-6.229-5.887-7.488-8.277l-0.199-0.378c-0.382-0.723-1.162-1.715-1.968-2.184
			c-1.723-1.004-5.061-2.193-11.267-2.276v-0.005c-0.234,0-0.461,0-0.695,0v0.005c-6.205,0.083-9.544,1.272-11.266,2.275
			c-0.807,0.47-1.587,1.462-1.97,2.186l-0.198,0.377c-1.26,2.391-4.604,8.719-7.488,8.277c-3.073-0.497-4.924-1.703-4.712-14.242
			c0.152-9.063,3.104-14.617,4.366-16.584c0.216-0.335,0.745-0.877,1.07-1.093c1.84-1.229,3.581-1.578,4.97-1.578
			c0.879,0,1.616,0.141,2.147,0.287c0.181,0.052,0.677,0.395,0.92,0.7l1.98,2.508c0.663,0.836,1.87,1.419,2.934,1.419h15.187
			c1.065,0,2.272-0.583,2.937-1.422l1.976-2.502c0.245-0.309,0.741-0.651,0.921-0.703c1.367-0.378,4.112-0.715,7.118,1.292
			c0.324,0.216,0.854,0.757,1.068,1.091c1.263,1.968,4.215,7.521,4.367,16.585C55.194,44.035,53.343,45.241,50.27,45.738z"/>
		<path style="fill:#010002;" d="M45.006,24.414c1.523,0,2.763-1.239,2.763-2.763c0-1.523-1.239-2.763-2.763-2.763
			c-1.522,0-2.762,1.239-2.762,2.763C42.244,23.174,43.483,24.414,45.006,24.414z M45.006,19.888c0.972,0,1.763,0.791,1.763,1.763
			s-0.791,1.763-1.763,1.763s-1.762-0.791-1.762-1.763C43.244,20.679,44.034,19.888,45.006,19.888z"/>
		<path style="fill:#010002;" d="M45.006,27.305c-1.522,0-2.762,1.239-2.762,2.762s1.239,2.763,2.762,2.763
			c1.523,0,2.763-1.239,2.763-2.763C47.768,28.545,46.529,27.305,45.006,27.305z M45.006,31.83c-0.972,0-1.762-0.791-1.762-1.763
			s0.79-1.762,1.762-1.762s1.763,0.79,1.763,1.762S45.977,31.83,45.006,31.83z"/>
		<path style="fill:#010002;" d="M43.244,25.903c0-1.523-1.239-2.763-2.762-2.763c-1.523,0-2.763,1.239-2.763,2.763
			s1.239,2.763,2.763,2.763C42.005,28.666,43.244,27.426,43.244,25.903z M40.482,27.666c-0.972,0-1.763-0.791-1.763-1.763
			s0.791-1.763,1.763-1.763s1.762,0.791,1.762,1.763C42.244,26.875,41.454,27.666,40.482,27.666z"/>
		<path style="fill:#010002;" d="M49.53,23.14c-1.523,0-2.762,1.239-2.762,2.763s1.239,2.763,2.762,2.763
			c1.523,0,2.763-1.239,2.763-2.763C52.293,24.379,51.053,23.14,49.53,23.14z M49.53,27.666c-0.972,0-1.762-0.791-1.762-1.763
			s0.79-1.763,1.762-1.763s1.763,0.791,1.763,1.763C51.293,26.875,50.502,27.666,49.53,27.666z"/>
		<path style="fill:#010002;" d="M17.096,23.893h-2.825v-2.825c0-0.276-0.224-0.5-0.5-0.5h-2.783c-0.276,0-0.5,0.224-0.5,0.5v2.825
			H7.662c-0.276,0-0.5,0.224-0.5,0.5v2.783c0,0.276,0.224,0.5,0.5,0.5h2.826v2.826c0,0.276,0.224,0.5,0.5,0.5h2.783
			c0.276,0,0.5-0.224,0.5-0.5v-2.826h2.825c0.276,0,0.5-0.224,0.5-0.5v-2.783C17.596,24.117,17.373,23.893,17.096,23.893z
			 M16.596,26.676h-2.825c-0.276,0-0.5,0.224-0.5,0.5v2.826h-1.783v-2.826c0-0.276-0.224-0.5-0.5-0.5H8.162v-1.783h2.826
			c0.276,0,0.5-0.224,0.5-0.5v-2.825h1.783v2.825c0,0.276,0.224,0.5,0.5,0.5h2.825C16.596,24.893,16.596,26.676,16.596,26.676z"/>
		<path style="fill:#010002;" d="M25.729,19.477h-3.576c-0.276,0-0.5,0.224-0.5,0.5v2.262c0,0.276,0.224,0.5,0.5,0.5h3.576
			c0.276,0,0.5-0.224,0.5-0.5v-2.262C26.229,19.701,26.006,19.477,25.729,19.477z M25.229,21.739h-2.576v-1.262h2.576V21.739z"/>
		<path style="fill:#010002;" d="M34.801,19.477h-3.575c-0.276,0-0.5,0.224-0.5,0.5v2.262c0,0.276,0.224,0.5,0.5,0.5h3.575
			c0.276,0,0.5-0.224,0.5-0.5v-2.262C35.301,19.701,35.078,19.477,34.801,19.477z M34.301,21.739h-2.575v-1.262h2.575V21.739z"/>
	</g>
</g>
<g>
</g>
<g>
</g>
<g>
</g>
<g>
</g>
<g>
</g>
<g>
</g>
<g>
</g>
<g>
</g>
<g>
</g>
<g>
</g>
<g>
</g>
<g>
</g>
<g>
</g>
<g>
</g>
<g>
</g>
</svg>
