<svg xmlns="http://www.w3.org/2000/svg" width="57.815" height="57.815" viewBox="0 0 57.815 57.815"><defs><style>.a{fill:#71bb79;}.b{fill:#fff;}</style></defs><g transform="translate(-1076.76 -1399.912)"><circle class="a" cx="28.907" cy="28.907" r="28.907" transform="translate(1076.76 1399.912)"/><g transform="translate(1035 1358)"><path class="b" d="M90.3,64.3H86.729a16.6,16.6,0,0,0-4.051-6.561A16.781,16.781,0,0,0,76,53.645V51.3A1.3,1.3,0,0,0,74.7,50H66.9a1.3,1.3,0,0,0-1.3,1.3v2.345A16.766,16.766,0,0,0,54.871,64.3H51.3A1.3,1.3,0,0,0,50,65.6v2.6a5.2,5.2,0,0,0,4.417,5.135,16.619,16.619,0,0,0,4.5,8.147,17.011,17.011,0,0,0,2.206,1.856L58.3,89H56.5v2.6h2.6a1.3,1.3,0,0,0,1.163-.719l3.106-6.211a16.7,16.7,0,0,0,2.256.913,5.2,5.2,0,0,0,10.351,0,16.7,16.7,0,0,0,2.256-.913l3.106,6.212A1.3,1.3,0,0,0,82.5,91.6h2.6V89H83.3l-2.831-5.662a17.052,17.052,0,0,0,2.206-1.856,16.624,16.624,0,0,0,4.5-8.147A5.2,5.2,0,0,0,91.6,68.2V65.6a1.3,1.3,0,0,0-1.3-1.3ZM68.2,52.6h5.2v1.3a2.6,2.6,0,0,1-5.2,0ZM52.6,68.2V66.9h5.2v1.3a2.6,2.6,0,0,1-5.2,0ZM73.4,85.1a2.6,2.6,0,0,1-5.2,0V83.8h5.2ZM76,82.813V82.5a1.3,1.3,0,0,0-1.3-1.3H66.9a1.3,1.3,0,0,0-1.3,1.3v.313c-.362-.142-.719-.3-1.069-.468l5.15-10.3a3.88,3.88,0,0,0,2.238,0l5.15,10.3c-.35.172-.707.326-1.069.468Zm4.84-3.17a14.541,14.541,0,0,1-1.547,1.335l-5.251-10.5a3.9,3.9,0,1,0-6.484,0l-5.251,10.5a14.5,14.5,0,0,1-1.546-1.335,14.048,14.048,0,0,1-3.735-6.58A5.2,5.2,0,0,0,60.4,68.2V65.6a1.3,1.3,0,0,0-1.3-1.3H57.64a13.99,13.99,0,0,1,3.12-4.723,14.161,14.161,0,0,1,5.387-3.368,5.189,5.189,0,0,0,9.3,0,14.164,14.164,0,0,1,5.391,3.372A13.974,13.974,0,0,1,83.96,64.3H82.5a1.3,1.3,0,0,0-1.3,1.3v2.6a5.2,5.2,0,0,0,3.375,4.863A14.05,14.05,0,0,1,80.84,79.643ZM89,68.2a2.6,2.6,0,1,1-5.2,0V66.9H89Z"/></g></g></svg>