<svg xmlns="http://www.w3.org/2000/svg" width="80.711" height="101.139" viewBox="0 0 80.711 101.139"><defs><style>.a{fill:#5eb366;}.b,.d{fill:#fff;}.b{opacity:0.3;}.c{fill:#030504;opacity:0.1;}</style></defs><path class="a" d="M303.23,5547.656l52.963-30.649a12.736,12.736,0,0,1,11.529,0l4.692,2.709a12.738,12.738,0,0,1,5.763,9.983v42.878a12.735,12.735,0,0,1-5.763,9.982l-52.964,30.65a12.743,12.743,0,0,1-11.528,0l-4.693-2.709a12.74,12.74,0,0,1-5.763-9.984v-42.878A12.734,12.734,0,0,1,303.23,5547.656Z" transform="translate(-297.467 -5515.628)"/><path class="b" d="M303.23,5547.656l52.963-30.649a12.736,12.736,0,0,1,11.529,0l4.692,2.709a12.738,12.738,0,0,1,5.763,9.983v42.878a12.735,12.735,0,0,1-5.763,9.982l-52.964,30.65a12.743,12.743,0,0,1-11.528,0l-4.693-2.709a12.74,12.74,0,0,1-5.763-9.984v-42.878A12.734,12.734,0,0,1,303.23,5547.656Z" transform="translate(-297.467 -5515.628)"/><g transform="translate(29.579 57.047)"><path class="a" d="M350.211,5621.245l-7.807-14.681,6.282-18.132v-11.1l-19.224,11.1v11.1l8.265,14.316a1.2,1.2,0,0,0,.561.5l0,.007Z" transform="translate(-329.461 -5577.333)"/><path class="c" d="M350.211,5621.245l-7.807-14.681,6.282-18.132v-11.1l-19.224,11.1v11.1l8.265,14.316a1.2,1.2,0,0,0,.561.5l0,.007Z" transform="translate(-329.461 -5577.333)"/></g><path class="a" d="M320.775,5614.023c-3.183,1.837-5.763.348-5.763-3.328v-42.878a12.744,12.744,0,0,1,5.763-9.983l52.964-30.649c3.184-1.838,5.763-.348,5.763,3.328v42.878a12.735,12.735,0,0,1-5.763,9.982" transform="translate(-298.791 -5516.441)"/><path class="a" d="M297.467,5603.484a12.74,12.74,0,0,0,5.763,9.984l4.693,2.709a12.881,12.881,0,0,0,10.542.465c-2.712,1.025-4.778-.506-4.778-3.792v-42.878a11.8,11.8,0,0,1,1.688-5.681l-16.22-9.365a11.774,11.774,0,0,0-1.688,5.681Z" transform="translate(-297.467 -5518.595)"/><path class="c" d="M297.467,5603.484a12.74,12.74,0,0,0,5.763,9.984l4.693,2.709a12.881,12.881,0,0,0,10.542.465c-2.712,1.025-4.778-.506-4.778-3.792v-42.878a11.8,11.8,0,0,1,1.688-5.681l-16.22-9.365a11.774,11.774,0,0,0-1.688,5.681Z" transform="translate(-297.467 -5518.595)"/><path class="a" d="M342.5,5607.063l8.264,14.315a1.231,1.231,0,0,0,2.23-.213l8.73-25.2v-11.1l-19.224,11.1Z" transform="translate(-300.867 -5520.855)"/><path class="d" d="M327.824,5581.1a11.987,11.987,0,0,0-5.42,9.392c0,3.458,2.427,4.859,5.422,3.13a11.985,11.985,0,0,0,5.421-9.391C333.248,5580.774,330.82,5579.373,327.824,5581.1Z" transform="translate(-299.35 -5520.515)"/><path class="d" d="M349.447,5568.593a11.979,11.979,0,0,0-5.421,9.392c0,3.457,2.428,4.858,5.421,3.129a11.987,11.987,0,0,0,5.421-9.391C354.87,5568.265,352.443,5566.863,349.447,5568.593Z" transform="translate(-300.982 -5519.571)"/><path class="d" d="M371.07,5556.084a11.984,11.984,0,0,0-5.423,9.392c0,3.457,2.428,4.858,5.423,3.129a11.984,11.984,0,0,0,5.421-9.392C376.491,5555.757,374.064,5554.356,371.07,5556.084Z" transform="translate(-302.614 -5518.626)"/></svg>