<svg xmlns="http://www.w3.org/2000/svg" width="57.982" height="72.656" viewBox="0 0 57.982 72.656"><defs><style>.a{fill:#5eb366;}.b{fill:#030504;opacity:0.1;}.c,.d{fill:#fff;}.c{opacity:0.3;}</style></defs><g transform="translate(-904.917 -5520.732)"><path class="a" d="M941.072,5593.258l-5.608-10.546,4.512-13.026v-7.974l-13.81,7.974v7.973l5.938,10.284a.856.856,0,0,0,.4.359l0,.005Z"/><path class="b" d="M941.072,5593.258l-5.608-10.546,4.512-13.026v-7.974l-13.81,7.974v7.973l5.938,10.284a.856.856,0,0,0,.4.359l0,.005Z"/><path class="a" d="M909.058,5543.74l38.049-22.018a9.149,9.149,0,0,1,8.28,0l3.372,1.946a9.153,9.153,0,0,1,4.14,7.172v30.8a9.149,9.149,0,0,1-4.14,7.171l-38.048,22.017a9.151,9.151,0,0,1-8.282,0l-3.371-1.947a9.15,9.15,0,0,1-4.141-7.171v-30.8A9.152,9.152,0,0,1,909.058,5543.74Z"/><path class="c" d="M909.058,5543.74l38.049-22.018a9.149,9.149,0,0,1,8.28,0l3.372,1.946a9.153,9.153,0,0,1,4.14,7.172v30.8a9.149,9.149,0,0,1-4.14,7.171l-38.048,22.017a9.151,9.151,0,0,1-8.282,0l-3.371-1.947a9.15,9.15,0,0,1-4.141-7.171v-30.8A9.152,9.152,0,0,1,909.058,5543.74Z"/><path class="a" d="M920.711,5590.832c-2.287,1.321-4.14.251-4.14-2.391l0-30.8a9.157,9.157,0,0,1,4.141-7.172l38.049-22.018c2.287-1.319,4.14-.249,4.14,2.391v30.8a9.149,9.149,0,0,1-4.14,7.171"/><path class="a" d="M904.917,5581.714a9.15,9.15,0,0,0,4.141,7.171l3.371,1.947a9.258,9.258,0,0,0,7.573.334c-1.949.737-3.431-.362-3.431-2.725l0-30.8a8.463,8.463,0,0,1,1.214-4.081l-11.652-6.727a8.452,8.452,0,0,0-1.214,4.08Z"/><path class="b" d="M904.917,5581.714a9.15,9.15,0,0,0,4.141,7.171l3.371,1.947a9.258,9.258,0,0,0,7.573.334c-1.949.737-3.431-.362-3.431-2.725l0-30.8a8.463,8.463,0,0,1,1.214-4.081l-11.652-6.727a8.452,8.452,0,0,0-1.214,4.08Z"/><path class="a" d="M934.827,5582.662l5.936,10.283a.884.884,0,0,0,1.6-.153l6.272-18.1v-7.973l-13.81,7.973Z"/><path class="d" d="M939.749,5572.144l-4.243-1.123c-4.051-1.072-8.88-3.439-8.88-8.631,0-3.635,2.947-8.284,6.582-10.382,3.345-1.932,6.108.133,6.526,3.122.42-3.473,3.182-8.728,6.527-10.659,3.636-2.1,6.583-.853,6.583,2.781,0,5.2-4.816,13.13-8.855,18.869Z"/></g></svg>