<svg xmlns="http://www.w3.org/2000/svg" width="53.331" height="74.466" viewBox="0 0 53.331 74.466"><defs><style>.a{fill:#f8fafa;}.b{fill:#96999c;}.c{fill:#e0e1e3;}.d{fill:#f2f3f3;}</style></defs><g transform="translate(-1219.017 -5518.178)"><path class="a" d="M1265.24,5536.4a4.7,4.7,0,0,0-.209-1.478l5.385-6.166-6.9-3.878c-.653-.45-1.587-.5-2.846.229l-11.992,6.951-1.611.928a32.544,32.544,0,0,0,.578-4.2c.041-.588.052-1.157.049-1.717l.22.115,4.043-4.723-6.843-3.85c-2.307-1.5-6.311,1.35-6.311,2.489,0,1.366.6,8.491.018,10.54-.6,2.031-6.758,16.124-6.758,16.124v.946l.018,28.432s19.555-11.31,22.5-13.008c2.959-1.716,5.007-5.358,5.007-7.826a7.761,7.761,0,0,0-.6-3.221c1.909-1.1,3.817-5.1,3.817-6.793,0-2.557-.875-3.222-.875-3.222A9.687,9.687,0,0,0,1265.24,5536.4Z"/><path class="b" d="M1239.2,5581.137l-7.117-4.109-.025-29.371,7.118,4.109Z"/><path class="c" d="M1269.932,5550.28c0,1.7-1.908,5.691-3.817,6.793a8.013,8.013,0,0,1,.578,3.239c.018,2.451-2.048,6.11-4.99,7.809s-22.5,13.008-22.5,13.008l-.035-28.117v-1.243s6.18-14.094,6.758-16.143c.6-2.03,0-9.156,0-10.522s5.585-5.094,7.353-1.19c1.768,3.887,1.926,7.878.893,13.061l13.6-7.861c2.871-1.663,4.045.718,4.045,2.573a10,10,0,0,1-2.189,5.865s2.714-.8,2.714,2.837a9.556,9.556,0,0,1-3.309,6.67S1269.932,5547.742,1269.932,5550.28Z"/><path class="c" d="M1226.135,5592.645l9.831-5.674-.025-34.181-9.806,5.671Z"/><path class="b" d="M1226.135,5592.645l-7.118-4.109v-34.184l7.118,4.109Z"/><path class="d" d="M1228.823,5548.68l7.117,4.109-9.806,5.671-7.118-4.109Z"/><path class="b" d="M1245.929,5535.626c-.578,2.049-6.758,16.143-6.758,16.143l-7.108-4.01s6.163-14.093,6.758-16.124c.578-2.049-.018-9.174-.018-10.54l7.126,4.009C1245.929,5526.47,1246.524,5533.6,1245.929,5535.626Z"/></g></svg>