<svg xmlns="http://www.w3.org/2000/svg" xmlns:xlink="http://www.w3.org/1999/xlink" width="143.945" height="359.296" viewBox="0 0 143.945 359.296"><defs><style>.a{fill:url(#a);}.b{fill:url(#b);}.c{fill:#ee797c;}.d{fill:#d9d9d8;}.e{fill:#5eb366;}.f{fill:#1c262a;}.g{fill:#f39397;}.h{fill:#29383e;}.i{fill:#e6e6e6;}.j{fill:#4fb7a2;}</style><linearGradient id="a" y1="0.5" x2="1" y2="0.5" gradientUnits="objectBoundingBox"><stop offset="0" stop-color="#a26a1e"/><stop offset="0.52" stop-color="#d09835"/><stop offset="1" stop-color="#9a651d"/></linearGradient><linearGradient id="b" x1="0.5" y1="0.972" x2="0.5" y2="0.083" gradientUnits="objectBoundingBox"><stop offset="0" stop-color="#f0d897"/><stop offset="0.765" stop-color="#c79b52"/></linearGradient></defs><g transform="translate(-1158.208 -52.682)"><g transform="translate(-2 -5526)"><path class="a" d="M1298.866,5897.593v-25.578H1160.208v26.924c0,6.731,4.038,13.461,13.462,18.846l21.539,10.771a71.087,71.087,0,0,0,35,9.422c13.462,0,24.233-4.039,33.657-9.422l21.539-10.771C1294.827,5911.055,1298.866,5904.323,1298.866,5897.593Z"/><path class="b" d="M1230.209,5834.322a71.061,71.061,0,0,0-35,9.423l-21.539,12.116c-9.424,5.383-13.462,12.115-13.462,18.846,0,9.423,4.038,14.809,13.462,20.194l22.884,12.116c8.077,5.383,20.2,8.077,33.655,8.077s24.233-2.694,33.657-8.077l21.539-12.116c9.422-5.385,13.461-10.771,13.461-20.194,0-6.731-4.039-13.463-13.461-18.846l-21.539-12.116C1254.442,5838.36,1243.671,5834.322,1230.209,5834.322Z"/></g><g transform="translate(-2 -5526)"><path class="c" d="M1281.728,5671.688l8.2,15.031-12.753,10.931-11.682-18.522Z"/><path class="d" d="M1250.965,5638.187c8.13.084,17.084,3.04,20.165,9.416s12.711,26.232,12.711,26.232-7.187,10.522-18.585,9.781Z"/><path class="e" d="M1281.092,5689.05c2.383-4.435,2.974-4.629,4.388-5.6s10.108-2.27,13.714-2.574c4.244-.357,5.751.422,4.571,4.071-2.525,7.81-10.182,24.392-11.9,26.68-1.126,1.5-1.357,2.894-6.126,3.359-4.458.434-10.046.678-11.69.777s-3.921.508-2.448-4.333a160.3,160.3,0,0,1,6.514-16.084C1279.955,5691.363,1281.092,5689.05,1281.092,5689.05Z"/><path class="f" d="M1186.129,5838.159c-2.023-1.042-3.31,1.529-5.148,3.593-1.286,1.445-3.295,3.736-3.591,5.384-.441,2.44,1.758,6.28,4.194,8.4s5.261,3.635,6.146,8.276,2.69,7.4,7.5,9.478c5.274,2.275,12.337,1.546,14.731,0,2.839-1.834.247-3.844-3.729-9.535-5.189-7.427-9.231-12.731-9.231-19.659Z"/><path class="g" d="M1190.278,5832.076l-4.26,6.247a5.994,5.994,0,0,0,1.438,8.32c.044.028.089.059.132.088a6.442,6.442,0,0,0,8.159-1.268l6.65-7.257Z"/><path class="h" d="M1268.561,5710.173c.27,7.958-1.978,40.135-7.477,54.371s-8.684,23.082-10.415,26.044-51.592,51.5-51.592,51.5-8.461-.62-9.807-8.826c0,0,20.432-34.73,24.853-41.852s20.095-18.045,20.095-18.045l-1.427-62.3Z"/><path class="g" d="M1194.7,5702.414c.1-1.382,4.249-17.108,6.375-24.388l15.441,5.316-3.625,11.458-13.588,14.054C1194.722,5707.947,1194.6,5703.8,1194.7,5702.414Z"/><rect class="g" width="10.81" height="15.743" transform="translate(1268.1 5877.395) rotate(167.186)"/><path class="h" d="M1268.561,5710.173H1218c-.435,5.608-1.659,8.74-1.9,22.283-.391,21.926,19.994,61.746,19.994,61.746-.254,2.971-1.509,15.458,1.323,26.525,4.47,17.464,16.653,47.017,16.653,47.017s7.632,1.088,11.423-3.329c0,0-6.746-60-8.564-75.37-1.966-16.635-7.016-47.012-7.016-47.012a77.041,77.041,0,0,0,9.043-10.841c8.058-11.133,9.606-21.019,9.606-21.019"/><path class="i" d="M1234.271,5638.677c-9.692,2.333-22.906,5.369-26.736,15.875-3.788,10.391-9.312,29.1-9.312,29.1,2.126,3.688,13.817,6.749,17.87,4.607l1.906-6.3v28.215c7.58,8.246,34.008,12.089,50.562,0v-52.7c0-8.421-4.678-18.537-17.6-19.288Z"/><path class="d" d="M1218,5681.958l4.864-15.3L1218,5688.806Z"/><path class="f" d="M1230.632,5595.581a5.759,5.759,0,0,0-4.765,1.676c-2.048,2.093-1.624,5.969,0,14.874l6.327.726Z"/><path class="f" d="M1267.524,5593.006a9.9,9.9,0,0,0,3.958-.8c1.943-1.116,2.449,1.091,1.385,3.009a9.04,9.04,0,0,1-7.342,4.889c-.055-.275-1.815-4.941-1.815-4.941Z"/><path class="g" d="M1233.6,5612.861c-.94.561-2.281-1.244-3.439-2.455s-4.94-2.868-6.825,1.106c-1.923,4.052,2.441,9.438,5,11.219,3.044,2.114,5.261.454,5.261.454l.669,15.492s3.361,8.219,12.459,9.453,7.222-6.267,4.235-9.943l-.014-5.632s4.7.945,6.916.355c1.187-.316,4.017-3.738,5.843-7.567,2.052-4.3,5.462-11.93,2.427-24.837-3.265-13.865-18.158-14.288-27.042-8.7S1233.6,5612.861,1233.6,5612.861Z"/><path class="f" d="M1233.6,5614.442c-.473.008-2.27-2.972-3.439-4.036-1.62-1.475.469-14.825.469-14.825s-1.638-5.064,1.564-8.422,9.406-2.791,13.945-2.954c4.721-.17,9.776-.455,16.221-3.254s6.926-3.131,7.724-.3,1.1,9.312-2.743,13.655l-2.087,3.419s-1.96,1.646-7.97,2.377-16.254-2.5-17.534-2.671c-1.743-.238-2.114,1.451-3.054,6.065C1235.872,5607.545,1235.189,5614.411,1233.6,5614.442Z"/><path class="f" d="M1230.642,5596.619l-5.68-3.048a3.131,3.131,0,0,1,4.3-1.423A3.387,3.387,0,0,1,1230.642,5596.619Z"/><path class="c" d="M1250.951,5632.555s-8.422-1.7-11.368-3.263a9.7,9.7,0,0,1-4.071-4.027,13.268,13.268,0,0,0,2.314,4.751c2.153,2.753,13.125,4.78,13.125,4.78Z"/><path class="f" d="M1251.219,5612.555a1.689,1.689,0,1,1-1.688-1.759A1.717,1.717,0,0,1,1251.219,5612.555Z"/><path class="f" d="M1249.428,5606.182l-3.61,1.993a2.161,2.161,0,0,1,.842-2.874A2.011,2.011,0,0,1,1249.428,5606.182Z"/><path class="c" d="M1250.187,5623.84l3.853,1.446a2.021,2.021,0,0,1-2.616,1.277A2.157,2.157,0,0,1,1250.187,5623.84Z"/><path class="f" d="M1266.27,5607.587l-3.293-2.536a2,2,0,0,1,2.863-.439A2.183,2.183,0,0,1,1266.27,5607.587Z"/><path class="f" d="M1265.256,5612.074a1.689,1.689,0,1,1-1.688-1.759A1.717,1.717,0,0,1,1265.256,5612.074Z"/><path class="c" d="M1257.3,5611.87l-1.589,10.041,5.561-.653Z"/><path class="f" d="M1266.917,5872.191l-.342-1.506c1.107.21,5.839,8.068,10.534,11.482,5.141,3.738,9.6,5.949,11.9,7.635,3.071,2.253-1.375,6.87-8.939,7.282-3.754.205-10.59-.937-12.7-2.938s-3.631-5.306-5.3-6.742-5.049-2.7-6.193-4.539c-.628-1.01-.725-3.517-.655-5.67.066-1.974.13-4.145.8-4.115.053.227.261,1.149.261,1.149a13.1,13.1,0,0,0,6.412,1.414C1264.486,5875.561,1267.8,5875.147,1266.917,5872.191Z"/><path class="f" d="M1255.6,5778.862s-4.489-31.887-5.686-36.829c0,0,7.23-4.017,9.984-7.145a81.873,81.873,0,0,1-6.827,8.533Z"/><path class="f" d="M1228.524,5777.8s5.393,13.43,7.569,16.4c0,0-.544,10.232-.468,12.3l-2.834,2.469s-.134-8.592,1.27-13.8A83.237,83.237,0,0,1,1228.524,5777.8Z"/><path class="j" d="M1221.839,5772.41"/><path class="g" d="M1212.888,5694.8s42.525,4.553,47.514,3.006,11.7-6.537,15.31-8.6,6.193-2.236,6.193-1.376-3.083,5.571-3.786,7.516,3.323,1.957,8.6.741,7.4-4.289,8.772-2.488-2.925,10.573-11.7,13.841-15.28,1.113-22.519,1.416-51.91,3.166-61.977,0c0,0-1.167-4.708,3.478-8.566A32.21,32.21,0,0,1,1212.888,5694.8Z"/></g></g></svg>