<svg xmlns="http://www.w3.org/2000/svg" xmlns:xlink="http://www.w3.org/1999/xlink" width="128.19" height="394.275" viewBox="0 0 128.19 394.275"><defs><style>.a{fill:url(#a);}.b{fill:url(#b);}.c{fill:#ee797c;}.d{fill:#29383e;}.e{fill:#f39397;}.f{fill:#344952;}.g{fill:#1c262a;}.h{fill:#5eb366;}</style><linearGradient id="a" y1="0.5" x2="1" y2="0.5" gradientUnits="objectBoundingBox"><stop offset="0" stop-color="#a26a1e"/><stop offset="0.52" stop-color="#d09835"/><stop offset="1" stop-color="#9a651d"/></linearGradient><linearGradient id="b" x1="0.5" y1="0.972" x2="0.5" y2="0.083" gradientUnits="objectBoundingBox"><stop offset="0" stop-color="#f0d897"/><stop offset="0.765" stop-color="#c79b52"/></linearGradient></defs><g transform="translate(-462.552 -49.421)"><g transform="translate(462.552 347.865)"><g transform="translate(0 34.848)"><path class="a" d="M591.242,5918.5v-23.647H463.052v24.893c0,6.222,3.734,12.444,12.447,17.423l19.913,9.957a65.711,65.711,0,0,0,32.358,8.71c12.446,0,22.4-3.733,31.115-8.71l19.914-9.957C587.509,5930.941,591.242,5924.717,591.242,5918.5Z" transform="translate(-463.052 -5894.848)"/></g><path class="b" d="M527.769,5857.155a65.7,65.7,0,0,0-32.358,8.713l-19.913,11.2c-8.713,4.978-12.447,11.2-12.447,17.423,0,8.712,3.734,13.691,12.447,18.669l21.156,11.2c7.467,4.977,18.67,7.467,31.114,7.467s22.4-2.49,31.115-7.467l19.914-11.2c8.711-4.978,12.444-9.957,12.444-18.669,0-6.222-3.733-12.445-12.444-17.423l-19.914-11.2C550.173,5860.889,540.215,5857.155,527.769,5857.155Z" transform="translate(-463.052 -5857.155)"/></g><g transform="translate(464.3 49.421)"><path class="c" d="M489,5642.8l-7.193,15.5,13.358,11.449,11.548-19.5Z" transform="translate(-466.216 -5542.528)"/><path class="d" d="M522.389,5604.468c-8.516.087-17.895,3.185-21.12,9.862s-13.315,27.475-13.315,27.475,7.527,11.02,19.466,10.245Z" transform="translate(-466.681 -5539.634)"/><g transform="translate(80.871 310.709)"><rect class="e" width="11.779" height="17.151"/></g><g transform="translate(39.45 289.479)"><rect class="e" width="11.779" height="17.153" transform="translate(0 0.405) rotate(-1.972)"/></g><g transform="translate(28.397 143.263)"><path class="d" d="M559.138,5689.3c0,11.248,1.455,84.008,1.455,84.008.274,3.236,3.308,9.2,2.651,21.632-.892,16.886-2.35,63.794-2.35,63.794s-5.525,5.475-13.322,0c0,0-10.664-63.736-12.775-80.468-1.843-14.606-4.967-54.281-4.967-54.281l-10.913,46.7s1.92,10.977,2.342,18.724-2,52.5-2,52.5a12.866,12.866,0,0,1-12.815.49s-9.462-65.389-10.677-72.387,8.282-80.718,8.282-80.718Z" transform="translate(-495.66 -5689.302)"/></g><g transform="translate(36.787 64.833)"><path class="f" d="M542.093,5605l.16.039a23.349,23.349,0,0,1,17.57,22.717V5682.9c-8.26,8.985-37.053,13.171-55.09,0v-57.417c0-9.174,5.1-20.195,19.172-21.013Z" transform="translate(-504.734 -5604.468)"/></g><path class="g" d="M549.293,5554.251a6.275,6.275,0,0,1,5.194,1.827c2.231,2.28,1.768,6.5,0,16.2l-6.893.792Z" transform="translate(-471.183 -5535.84)"/><path class="g" d="M505.433,5551.122a10.793,10.793,0,0,1-4.314-.876c-2.115-1.215-2.667,1.189-1.508,3.278a9.846,9.846,0,0,0,8,5.327c.063-.3,1.979-5.384,1.979-5.384Z" transform="translate(-467.516 -5535.517)"/><path class="e" d="M542.933,5572.449c1.023.611,2.483-1.355,3.745-2.677s5.382-3.125,7.438,1.207c2.094,4.414-2.66,10.282-5.452,12.222-3.318,2.3-5.731.5-5.731.5l-.731,16.877s-3.66,8.956-13.571,10.3-7.871-6.828-4.616-10.832l.016-6.137s-5.12,1.03-7.536.387c-1.293-.345-4.377-4.074-6.366-8.244-2.235-4.684-5.952-13-2.643-27.062,3.555-15.107,19.784-15.567,29.461-9.477S542.933,5572.449,542.933,5572.449Z" transform="translate(-468.056 -5535.209)"/><path class="g" d="M542.644,5573.3c.515.009,2.471-3.238,3.745-4.4,1.766-1.606-.512-16.152-.512-16.152s1.786-5.517-1.7-9.175-10.249-3.042-15.193-3.22c-5.144-.186-10.651-.5-17.673-3.546s-7.545-3.41-8.417-.328-1.2,10.146,2.991,14.878l3.486,1.281s1.881,1.67,8.43,2.467,16.748-.153,18.143-.344c1.9-.26,2.3,1.581,3.329,6.608C540.169,5565.787,540.915,5573.268,542.644,5573.3Z" transform="translate(-467.767 -5534.34)"/><path class="g" d="M549.391,5555.048l6.189-3.321a3.409,3.409,0,0,0-4.685-1.549A3.69,3.69,0,0,0,549.391,5555.048Z" transform="translate(-471.29 -5535.505)"/><path class="c" d="M525.489,5597.181s9.177-1.848,12.386-3.554a10.567,10.567,0,0,0,4.434-4.389,14.453,14.453,0,0,1-2.518,5.175c-2.347,3-14.3,5.209-14.3,5.209Z" transform="translate(-469.514 -5538.485)"/><path class="g" d="M527.874,5571.983a1.841,1.841,0,1,0,1.839-1.917A1.87,1.87,0,0,0,527.874,5571.983Z" transform="translate(-469.694 -5537.038)"/><path class="g" d="M529.984,5564.527l3.935,2.172a2.359,2.359,0,0,0-.917-3.132A2.193,2.193,0,0,0,529.984,5564.527Z" transform="translate(-469.854 -5536.526)"/><path class="c" d="M527.68,5585.626l-4.2,1.575a2.2,2.2,0,0,0,2.852,1.391A2.347,2.347,0,0,0,527.68,5585.626Z" transform="translate(-469.363 -5538.212)"/><path class="g" d="M510.1,5565.983l3.587-2.765a2.173,2.173,0,0,0-3.118-.477A2.379,2.379,0,0,0,510.1,5565.983Z" transform="translate(-468.32 -5536.45)"/><path class="g" d="M511.33,5571.415a1.841,1.841,0,1,0,1.84-1.915A1.87,1.87,0,0,0,511.33,5571.415Z" transform="translate(-468.445 -5536.995)"/><path class="c" d="M520.944,5569.686l-.6,11.059-5.775-1.968Z" transform="translate(-468.69 -5537.009)"/><g transform="translate(62.237 320.351)"><path class="g" d="M550.9,5882.546v-1.685c-1.126.492-3.745,10.482-8.418,14.744-3.716,3.388-8.784,7.3-10.072,11.08-1.342,3.93,7.058,6.1,10.528,5.484,4.034-.716,11.023-3.555,12.779-6.187s2.576-6.515,4-8.444,4.712-4.085,5.484-6.316c.423-1.227-.08-3.913-.675-6.185-.546-2.082-1.138-4.372-1.849-4.176,0,.255,0,1.285,0,1.285-.855.946-3.22,1.886-5.889,1.989C555.064,5884.2,550.883,5883.861,550.9,5882.546Z" transform="translate(-532.263 -5880.85)"/></g><g transform="translate(11.91 302.72)"><path class="g" d="M505.832,5862.455c-.611.022-1.11.884-2.458,2.344a25.765,25.765,0,0,1-6.929,4.986c-4.411,2.208-12.985,5.6-16.866,7.352-2.425,1.092-2.31,4.02.2,5.687s8.556,2.867,15.822,1.244c3.958-.886,9.108-4.541,12.371-4.344s9.362.151,11.769-1.509,1.444-5.2.764-8.248c-.742-3.321-1.8-8.407-2.906-8.179l.037,1.043c-1.416,2.145-8.626,3.021-11.736,1.442Z" transform="translate(-477.826 -5861.779)"/></g><path class="h" d="M489.1,5661.384c-2.5-4.645-3.114-4.848-4.6-5.867s-10.587-2.377-14.363-2.7c-4.445-.375-6.022.442-4.787,4.264,2.645,8.18,10.664,25.548,12.46,27.944,1.178,1.57,1.42,3.03,6.415,3.518,4.669.456,10.521.71,12.245.814s4.107.532,2.563-4.539a167.865,167.865,0,0,0-6.823-16.845C490.287,5663.807,489.1,5661.384,489.1,5661.384Z" transform="translate(-464.944 -5543.278)"/><path class="e" d="M587.08,5675.144c-.1-1.447-4.45-17.918-6.676-25.543l-16.173,5.568,3.8,12,14.235,14.72C587.055,5680.939,587.184,5676.593,587.08,5675.144Z" transform="translate(-472.439 -5543.042)"/><path class="e" d="M561.251,5667.966s-44.541,4.77-49.765,3.148-12.251-6.846-16.035-9.008-6.486-2.343-6.486-1.441,3.23,5.834,3.964,7.873-3.479,2.049-9.008.775-7.747-4.492-9.189-2.606,3.063,11.074,12.252,14.5,16.005,1.166,23.586,1.483,54.372,3.316,64.916,0c0,0,1.219-4.932-3.644-8.973A33.757,33.757,0,0,0,561.251,5667.966Z" transform="translate(-465.663 -5543.838)"/><path class="f" d="M549.183,5606.4c7,2.306,20.875,3.493,25.346,18.634S581.262,5650,581.262,5650c-2.631,3.518-13.141,7.595-18.082,6.092Z" transform="translate(-471.303 -5539.78)"/><path class="d" d="M563.931,5658.764l-4.792-17.015,4.792,23.93Z" transform="translate(-472.055 -5542.449)"/></g></g></svg>