<svg xmlns="http://www.w3.org/2000/svg" xmlns:xlink="http://www.w3.org/1999/xlink" width="130.718" height="387.484" viewBox="0 0 130.718 387.484"><defs><style>.a{fill:url(#a);}.b{fill:url(#b);}.c{fill:#5eb366;}.d{fill:#4fb7a2;}.e{fill:#030504;opacity:0.1;}.f{fill:#f8fafa;}.g{fill:#f39397;}.h{fill:#ee797c;}.i{fill:#1c262a;}.j{fill:#344952;}.k{fill:#29383e;}.l{fill:#d9d9d8;}</style><linearGradient id="a" y1="0.5" x2="1" y2="0.5" gradientUnits="objectBoundingBox"><stop offset="0" stop-color="#a26a1e"/><stop offset="0.52" stop-color="#d09835"/><stop offset="1" stop-color="#9a651d"/></linearGradient><linearGradient id="b" x1="0.5" y1="0.972" x2="0.5" y2="0.083" gradientUnits="objectBoundingBox"><stop offset="0" stop-color="#f0d897"/><stop offset="0.765" stop-color="#c79b52"/></linearGradient></defs><g transform="translate(-325.934 -140.531)"><g transform="translate(325.934 435.814)"><g transform="translate(0 5.621)"><g transform="translate(0 31.485)"><path class="a" d="M431.094,6013.784v-21.363H315.279v22.487c0,5.623,3.374,11.245,11.245,15.742l17.99,8.995a59.359,59.359,0,0,0,29.236,7.872c11.244,0,20.238-3.374,28.11-7.872l17.991-8.995C427.721,6025.027,431.094,6019.406,431.094,6013.784Z" transform="translate(-315.279 -5992.421)"/></g><path class="b" d="M373.749,5958.365a59.375,59.375,0,0,0-29.236,7.871l-17.99,10.12c-7.871,4.5-11.245,10.121-11.245,15.743,0,7.871,3.374,12.369,11.245,16.866l19.115,10.12c6.746,4.5,16.866,6.747,28.111,6.747s20.238-2.249,28.11-6.747l17.991-10.12c7.871-4.5,11.244-8.995,11.244-16.866,0-5.622-3.373-11.245-11.244-15.743l-17.991-10.12C393.988,5961.74,384.993,5958.365,373.749,5958.365Z" transform="translate(-315.279 -5958.365)"/></g><g transform="translate(12.37)"><g transform="translate(0 15.741)"><path class="a" d="M386.565,5979.994v-10.683H328.659v11.245c0,2.812,1.686,5.621,5.621,7.87l9,4.5a29.677,29.677,0,0,0,14.616,3.935,27.525,27.525,0,0,0,14.056-3.935l8.995-4.5C384.878,5985.614,386.565,5982.8,386.565,5979.994Z" transform="translate(-328.659 -5969.311)"/></g><path class="b" d="M357.892,5952.285a29.677,29.677,0,0,0-14.616,3.935l-9,5.06c-3.935,2.248-5.621,5.06-5.621,7.871,0,3.935,1.686,6.184,5.621,8.432l9.558,5.06c3.374,2.249,8.433,3.374,14.054,3.374a27.391,27.391,0,0,0,14.056-3.374l8.995-5.06c3.936-2.249,5.623-4.5,5.623-8.432,0-2.812-1.687-5.623-5.623-7.871l-8.995-5.06A27.525,27.525,0,0,0,357.892,5952.285Z" transform="translate(-328.659 -5952.285)"/></g></g><g transform="translate(348.664 140.531)"><g transform="translate(67.3 48.125)"><path class="c" d="M452.367,5697.721c-.2.308-2.095,3.411-2.095,3.411l-8.622,12.352-8.412,12.616a2.11,2.11,0,0,1-2.445.856c-.184-.062-.367-.122-.57-.2-2.915-1.08-7.284-2.9-13.093-5.586-4.668-2.162-4.455-2.85-4.455-3.644a9.086,9.086,0,0,1,.082-1.9v-.041h.019c.958-1.812,3.884-6.329,7.831-12.051,7.031-10.193,10.4-14.725,12.506-17.674a2.207,2.207,0,0,1,2.751-.734c3.771,1.263,11.434,4.546,15.369,6.177a2.015,2.015,0,0,1,.178.112C453.594,5692.536,452.408,5697.64,452.367,5697.721Z" transform="translate(-412.661 -5684.945)"/><g transform="translate(0 6.359)"><path class="d" d="M452.59,5697.856c-.019.082-2.319,3.794-2.319,3.794l-8.316,12.678-8.718,12.29a2.11,2.11,0,0,1-2.445.856c-.184-.062-.367-.122-.57-.2-2.915-1.081-7.284-2.9-13.093-5.586-4.668-2.162-4.455-2.85-4.455-3.644a9.091,9.091,0,0,1,.082-1.9v-.041h.019c4.464,1.938,18.377,8.578,18.846,8.335,1.12-.531,10.573-15.725,15.609-23.471,2.509-3.861,3.654-5.5,4.489-6.823a1.467,1.467,0,0,0-.311-2.211c-.065-.033-.109-.084-.178-.112a3.6,3.6,0,0,1,1.873,2.638A3.392,3.392,0,0,1,452.59,5697.856Z" transform="translate(-412.661 -5691.823)"/><path class="e" d="M452.59,5697.856c-.019.082-2.319,3.794-2.319,3.794l-8.316,12.678-8.718,12.29a2.11,2.11,0,0,1-2.445.856c-.184-.062-.367-.122-.57-.2-2.915-1.081-7.284-2.9-13.093-5.586-4.668-2.162-4.455-2.85-4.455-3.644a9.091,9.091,0,0,1,.082-1.9v-.041h.019c4.464,1.938,18.377,8.578,18.846,8.335,1.12-.531,10.573-15.725,15.609-23.471,2.509-3.861,3.654-5.5,4.489-6.823a1.467,1.467,0,0,0-.311-2.211c-.065-.033-.109-.084-.178-.112a3.6,3.6,0,0,1,1.873,2.638A3.392,3.392,0,0,1,452.59,5697.856Z" transform="translate(-412.661 -5691.823)"/></g><path class="f" d="M433.474,5689.126l15.506,6.5-16.521,24.54-15.4-7.093Z" transform="translate(-412.993 -5685.261)"/></g><path class="g" d="M429.578,5775.495c4.241-1.208,10.641-16.969,15.518-34.837s7.345-21.849,7.512-27.482-.249-13.016-.249-13.016l-8.377,12.257a22.534,22.534,0,0,0-2.113-6.789c-1.076-2.209-3.1-3.94-4.755-2.619-.888.709,1.443,3.736.946,10.492a35.072,35.072,0,0,0,.5,8.1l-15.581,37.739Z" transform="translate(-346.139 -5637.968)"/><path class="h" d="M360.587,5696.891c-4.914-1.386-9.081,1.233-11.4,9.076-3.184,10.749-6.86,28.51-8.851,44.974-.661,5.458-1.409,12.074,3.8,12.594,3.974.4,15.387-1.814,17.444-3.8,2.7-2.607,2.159-13.108,2.159-13.108h-5.881s1.276-8.3,1.665-10.792c1.321-8.468,3.285-19.12,3.285-19.12Z" transform="translate(-339.865 -5637.695)"/><path class="g" d="M391.951,5688.306l-2.01,17.685L372.511,5708l2.514-23.463Z" transform="translate(-342.329 -5636.789)"/><path class="i" d="M353.168,5658.587c1.439-16.329,10.288-23.052,17.134-24.665,13.809-3.255,27.453,1.392,33.034,11.065,1.472,2.549,3.529,11.047,0,19.122-2.995,6.85-50.167-5.521-50.167-5.521" transform="translate(-340.869 -5632.89)"/><path class="g" d="M408.322,5670.187s2.487,6.745,1.838,7.243-3.256.579-3.256.579Z" transform="translate(-344.926 -5635.706)"/><path class="g" d="M397.976,5646.854c3.3,2.821,8.938,7.93,7.355,22.144-1.626,14.592-5.169,18.554-7.541,19.959-1.6.947-8.639-.7-11.9-2.616-4.077-2.4-13.079-8.606-15.824-16.98-3.227-9.852-1.611-21.591,5.513-24.666C385.608,5640.365,395.185,5644.467,397.976,5646.854Z" transform="translate(-342.025 -5633.638)"/><path class="i" d="M400.894,5646.9a26.008,26.008,0,0,1-9.33,20.495s-2.054-5.316-6.594-4.086c-4.57,1.239-4.5,7.241-1.151,10.5a6.687,6.687,0,0,0,6.866,1.875s-.824,6.786-5.585,11.1a25.877,25.877,0,0,1-26.031-9.047c-10.1-12.126-7.117-31.354,8.642-37.03C388.112,5633.358,400.894,5646.9,400.894,5646.9Z" transform="translate(-340.872 -5633.315)"/><path class="i" d="M369.214,5976.282l7.527,10.46s-3.486,2.044-10.934,2.326c-6.735.258-8.586-1.953-8.836-2.485-1.135-2.438.638-6.838,1.125-10.622Z" transform="translate(-341.128 -5658.79)"/><path class="i" d="M376.678,5982.069s9.12-.582,15.427-1.375,11.3,2.283,9.814,4.88-4.952,4.754-10.356,6.57c-4.632,1.559-10.182,2.693-15.016,4.139-4.954,1.484-8.127,3.18-10.934,2.217-3.129-1.081-4.472-2.331-4.206-4.609a98.545,98.545,0,0,1,2.534-9.615Z" transform="translate(-341.489 -5659.137)"/><path class="h" d="M357,5964.851s1.141,9.5,1.229,11.54,9.271,2.693,11.014-1.031l.284-11.616Z" transform="translate(-341.159 -5657.868)"/><path class="g" d="M366.752,5971.266l-3.287,14.411s-.311,1.758,7.2,2.877,19.28-3.928,21.284-4.954,2.244-3.064-5.128-2.658-9.985.426-9.985.426l2.392-6.391Z" transform="translate(-341.647 -5658.436)"/><path class="j" d="M355.858,5762.525c-6.287,9.78-12.261,18.4-13.535,29.389-2.692,23.215,6.141,49.755,8.013,66.921,0,0-5.932,7.711-5.925,16.771,0,7.095,11.444,74.053,11.444,74.053s8.322,2.535,12.526-1.107l7.865-123.179-4.142-15Z" transform="translate(-340.012 -5642.677)"/><path class="k" d="M376.887,5828.554l-4.142-15a100.3,100.3,0,0,1-22.446-8.9s4.249,7.715,16.419,11.95l6.339,19.277L373.6,5880Z" transform="translate(-340.653 -5645.857)"/><path class="j" d="M356.194,5762.525c-3.364,5.489-11.4,14.874-9.693,23.9,2.072,10.929,7.952,18.61,25.94,23.958l16.871,61.1s-8.786,8.223-11.471,16.044-12.387,67.988-12.387,67.988,3,4.9,12.475,3.711c0,0,33.04-75.466,35.375-80.323s3.846-8.492,2.8-16.407-12.307-94.475-12.307-94.475Z" transform="translate(-340.348 -5642.677)"/><path class="f" d="M353.555,5702.455c1.316-3.474,5.48-6.361,9.215-5.343,11.762,3.2,30.058,7.413,33.533,8.438h0s-1.56,22.668,11.989,30.662c-.637,5.046-4.074,26.848-4.074,26.848s-16.286,7.892-29.693,4-17.907-9.492-17.907-9.492l6.707-10.932c-1.438-3.555-6.968-15.614-10.55-26.826C351.088,5714.515,352.239,5705.93,353.555,5702.455Z" transform="translate(-340.776 -5637.723)"/><path class="l" d="M362.279,5746.049c.172.4,13.5,7.536,17.457,8.629a32.761,32.761,0,0,1-15.626-4.329Z" transform="translate(-341.557 -5641.433)"/><path class="l" d="M411.556,5736.669s-7.642-3.189-11.275-10.6a23.374,23.374,0,0,0,11.275,17.481Z" transform="translate(-344.426 -5639.924)"/><path class="g" d="M399.87,5706.256c7.4,2.219,11.989,2.91,15.988,6.489,5.26,4.708,10.674,31.44,11.781,36.943,1.924,9.57,4.043,19.5,1.968,23.954-1.5,3.224-9.655,5.639-13.237-4.8-.765-2.228-.906-3.208-1.58-5.205-3.365-9.975-8.443-29.048-8.443-29.048S396.355,5729.071,399.87,5706.256Z" transform="translate(-344.338 -5638.429)"/><path class="i" d="M359.934,5640.8c-2.644,1.527-7.393,2.995-10.332,16.787s-4.359,30.784-4.252,35.079,8.984,16.2,27.709,15.057,25.515-12.095,25.515-12.095-9.193-3.747-8.482-19.776c0,0-3.227,6.388-12.13,3.191S359.934,5640.8,359.934,5640.8Z" transform="translate(-340.279 -5633.488)"/></g></g></svg>