<svg xmlns="http://www.w3.org/2000/svg" xmlns:xlink="http://www.w3.org/1999/xlink" width="138.658" height="381.214" viewBox="0 0 138.658 381.214"><defs><style>.a{fill:url(#a);}.b{fill:url(#b);}.c{fill:#f39397;}.d{fill:#1c262a;}.e{fill:#ee797c;}.f{fill:#344952;}.g{fill:#29383e;}.h{fill:#5eb366;}</style><linearGradient id="a" y1="0.5" x2="1" y2="0.5" gradientUnits="objectBoundingBox"><stop offset="0" stop-color="#a26a1e"/><stop offset="0.52" stop-color="#d09835"/><stop offset="1" stop-color="#9a651d"/></linearGradient><linearGradient id="b" x1="0.5" y1="0.972" x2="0.5" y2="0.083" gradientUnits="objectBoundingBox"><stop offset="0" stop-color="#f0d897"/><stop offset="0.765" stop-color="#c79b52"/></linearGradient></defs><g transform="translate(-876.137 -124.944)"><g transform="translate(-2 -5493)"><path class="a" d="M1016.795,5958.773v-25.578H878.137v26.925c0,6.73,4.039,13.46,13.462,18.845l21.54,10.771a71.068,71.068,0,0,0,35,9.422c13.462,0,24.232-4.038,33.656-9.422l21.539-10.771C1012.757,5972.235,1016.795,5965.5,1016.795,5958.773Z"/><path class="b" d="M948.139,5895.5a71.063,71.063,0,0,0-35,9.423l-21.54,12.116c-9.423,5.384-13.462,12.116-13.462,18.846,0,9.424,4.039,14.809,13.462,20.194l22.885,12.116c8.077,5.383,20.194,8.077,33.655,8.077s24.232-2.694,33.656-8.077l21.539-12.116c9.423-5.385,13.461-10.77,13.461-20.194,0-6.73-4.038-13.462-13.461-18.846l-21.539-12.116C972.371,5899.54,961.6,5895.5,948.139,5895.5Z"/></g><g transform="translate(-2 -5493)"><path class="c" d="M903.856,5739.334c.1-1.341,2.611-15.67,4.342-23.684l16.845,5.161-2.7,11.227-14.017,13.551C903.88,5744.707,903.76,5740.677,903.856,5739.334Z"/><path class="d" d="M11.131,0h31.5A11.131,11.131,0,0,1,53.764,11.131v69.7a0,0,0,0,1,0,0H0a0,0,0,0,1,0,0v-69.7A11.131,11.131,0,0,1,11.131,0Z" transform="translate(917.991 5617.944)"/><path class="e" d="M985.328,5709.125l7.962,14.6L980.9,5734.34l-11.344-17.989Z"/><path class="f" d="M955.452,5676.59c7.9.082,16.593,2.953,19.584,9.146s12.345,25.476,12.345,25.476-6.978,10.219-18.049,9.5Z"/><path class="d" d="M961.834,5929.112a71.123,71.123,0,0,0,9.132,10.071,4.364,4.364,0,0,1,1.241,1.631c.362,1.056.814,3.618-3.93,4.666a17.061,17.061,0,0,1-13.893-3.019c-3.462-2.786-3.05-7.678-6.248-10.874-2.371-2.371-5.574-3.286-7.369-6.227-1.247-2.047-.567-4.494.566-7.488,1.239-3.266,1.927-5.769,3.012-5.377l-.367,1.527c1.125,2.385,8.253,3.9,11.644,2.747C955.622,5916.769,960.075,5926.657,961.834,5929.112Z"/><path class="c" d="M964.619,5932.638s0-.02,0-.024c-.965-1.121-1.9-2.271-2.789-3.5a88.616,88.616,0,0,1-4.849-9.369,8.538,8.538,0,0,1-.456-6.061l2.341-7.88-12.236-2.82-2.658,11.04v0c-.578,2.507,1.251,5.009,4.587,8.651s7.166,11.674,10.307,13.953,5.553,2.5,7.1,1.705C967.567,5937.514,967.8,5936.772,964.619,5932.638Z"/><path class="d" d="M928.81,5936.056v-1.727c.681,2.027,3.843,10.755,8.639,15.129,3.812,3.476,9.011,7.492,10.335,11.37,1.375,4.032-7.237,5.385-10.8,4.755-4.138-.733-9.493-3.082-12.407-6.662-2.049-2.517-3.353-5.5-4.816-7.48s-4.835-4.19-5.627-6.481c-.436-1.259.082-4.016.692-6.345.559-2.137,1.167-4.487,1.9-4.286,0,.26,0,1.318,0,1.318.877.971,3.3,1.937,6.043,2.041C924.536,5937.756,928.823,5937.406,928.81,5936.056Z"/><path class="c" d="M940.9,5952.516c-1.183-1.055-2.373-2.087-3.452-3.07-3.35-3.057-5.9-8.24-7.37-11.776a16.564,16.564,0,0,1-1.267-6.359v-6.889H916.724v11.213h0v.3l.06.032c.581,2.51,6.128,9.191,9.279,13.547,2.113,2.92,6.127,6.634,10.922,7.276C941.529,5957.4,943.852,5955.962,940.9,5952.516Z"/><path class="g" d="M919.128,5748.231c-9.369,20.466.338,92.553.338,92.553-.282,3.32-4.078,9.854-5.493,24.471-1.671,17.269,2.623,60.633,2.623,60.633a13.083,13.083,0,0,0,12.214.486s11.517-65.309,13.684-82.48c1.889-14.984,6.923-55.112,6.923-55.112l10.173,53.767s-4.8,7.322-6.765,13.441c-2.431,7.582-7.362,50.87-7.362,50.87a14.807,14.807,0,0,0,12.491,3.654s23.638-59.326,24.7-71.479c.633-7.263-9.973-93.8-9.973-93.8Z"/><path class="d" d="M949.417,5788.782l1.637-11.829s12.869-2.665,18.706-8.152c0,0-6.125,7.616-15.218,10.11l-1.717,11.421,2.155,26.472Z"/><path class="f" d="M935.656,5677.138h0a23.709,23.709,0,0,0-15.86,12.971,20.563,20.563,0,0,0-.57,15.482l8.372,24.216s-3.92,9.475-8.47,18.424c21.008,11.726,47.238,5.561,53.555-2.994.266-1.815-.1-9.995.412-19.3.543-9.925,1.907-21.131.346-27.266-2.9-11.388-8.322-22.079-19.123-22.079Z"/><path class="f" d="M932.531,5677.138c-7.168,1.013-17.694,2.459-21.325,19.5-3.678,17.269-4.739,23.272-4.739,23.272s5.883,6.846,17.777,6.79l3.7-13.093Z"/><path class="d" d="M936.595,5691.507h0a9.408,9.408,0,0,1-9.407-9.408v-27.422h9.407Z"/><path class="c" d="M962.924,5628.817c2.84,1.678,6.351,8.82,6,23.792-.292,12.689-4.406,15.824-6.471,16.727s-6.049.354-9.921-.292v7.616s5.351,6.217,5.016,9.709-7.728,4.316-12.736.906a32.425,32.425,0,0,1-8.22-8.6v-18.408s-2.614,3.49-6.89.651-4.438-9.868-1.951-12.391,7.844-1.725,8.841,1.762c0,0,6.177.225,14.4-4.293A23.11,23.11,0,0,0,962.924,5628.817Z"/><path class="d" d="M954.76,5649.421a1.6,1.6,0,1,1-1.677-1.58A1.621,1.621,0,0,1,954.76,5649.421Z"/><path class="e" d="M955.186,5660.179l3.706,1.181a1.911,1.911,0,0,1-2.411,1.329A2.035,2.035,0,0,1,955.186,5660.179Z"/><path class="d" d="M967.843,5644.522l-3.228-2.238a1.886,1.886,0,0,1,2.681-.551A2.065,2.065,0,0,1,967.843,5644.522Z"/><path class="d" d="M967.1,5648.268a1.6,1.6,0,1,1-1.677-1.58A1.623,1.623,0,0,1,967.1,5648.268Z"/><path class="e" d="M959.572,5647.354l.254,9.606,5.055-1.567Z"/><path class="e" d="M952.535,5669.044c-4.082-.533-12.475-2.946-13.785-6.265a8.6,8.6,0,0,0,2.945,4.236c2.507,2.149,10.84,4.57,10.84,4.57Z"/><path class="h" d="M984.711,5725.989c2.314-4.308,2.888-4.5,4.263-5.441s9.817-2.205,13.32-2.5c4.119-.346,5.583.41,4.437,3.954-2.452,7.586-9.889,23.69-11.554,25.913-1.091,1.455-1.317,2.81-5.949,3.262-4.33.422-9.757.657-11.354.753s-3.808.494-2.377-4.207a156.328,156.328,0,0,1,6.327-15.62C983.607,5728.236,984.711,5725.989,984.711,5725.989Z"/><path class="c" d="M922.341,5732.038s37.432,3.958,42.276,2.454,11.36-6.348,14.868-8.353,6.015-2.173,6.015-1.338-2.994,5.412-3.676,7.3,3.226,1.9,8.354.719,7.184-4.166,8.519-2.416-2.838,10.268-11.36,13.443-14.84,1.079-21.87,1.375-47.366,3.442-57.143.366c0,0-1.131-4.572,3.378-8.32A30.022,30.022,0,0,1,922.341,5732.038Z"/><path class="g" d="M925.043,5722.417a126.287,126.287,0,0,0,4.12-13.291s-.671,9.888-3.458,15.2Z"/></g></g></svg>