<svg xmlns="http://www.w3.org/2000/svg" width="183.562" height="381.961" viewBox="0 0 183.562 381.961"><defs><style>.a{fill:#f39397;}.b{fill:#1c262b;}.c{fill:#354952;}.d{fill:#f8fbfb;}.e{fill:#ededec;}.f{fill:#e6e6e6;}.g{fill:#2a383f;}.h{fill:#ee7a7c;}.i{fill:#a05156;}.j{fill:#92c67d;}</style></defs><g transform="translate(-1129.216 -4865.342)"><path class="a" d="M1219,5189.53c-.212-5.146-3.177-57.45-3.177-57.45l26.068,18.774c-4.062,29.681-5.773,38.755-6.064,43.7h0a4.228,4.228,0,0,1,.089,1.264c-.257,5.874-7.35,8.805-12.944,12.53a103.768,103.768,0,0,1-15.082,8.615c-4.027,1.745-12.06,1.645-12.955-.8,6.813-4.576,14.678-9.566,20.138-14.869C1217.684,5198.76,1219.228,5195.717,1219,5189.53Z"/><path class="b" d="M1186.973,5222.154c-.313,0-.928,3.524.727,5.1,1.925,1.812,7.653,4.889,15.406,4.151s12.016-3.021,15.2-5.538,7.653-6.064,11.188-6.713c3.267-.615,6.847-1.98,7.921-2.965s1.119-5.516,1.119-5.516Z"/><path class="c" d="M1235.9,5193.11a1.12,1.12,0,0,1,1.007,1.052c.19,1.253.4,4.912.839,6.981.6,2.876,1.119,8.772.559,11.076s-5.851,3.737-9.274,4.923a42.666,42.666,0,0,0-11.188,6.634c-3.737,2.909-11.479,5.684-16.514,5.594-7.675-.156-12.564-2.461-14-5.314-1.768-3.546-1.119-5.985,7.888-9.834a105.713,105.713,0,0,0,10.013-5.516,29.39,29.39,0,0,0,11.613-13.425,3.471,3.471,0,0,1,1.342-1.824,2.741,2.741,0,0,1,1.723-.1c1.455.257,5.684.95,7,1.655s2.819,1.343,2.73,2.876a5.3,5.3,0,0,1-.392,1.555c-.123.313-.212.727,0,.928s.593,0,.839-.2a24.9,24.9,0,0,0,2.484-2.819,8.193,8.193,0,0,1,1.454-1.4,14.13,14.13,0,0,0,1.544-.94A16.946,16.946,0,0,0,1235.9,5193.11Z"/><path class="d" d="M1194.95,5214.211c11.076,1.175,15.719,8.469,14.309,13.739a25.925,25.925,0,0,1-7.954,1.409c-7.675-.156-12.877-2.461-14.309-5.325C1185.329,5220.689,1186.951,5216.974,1194.95,5214.211Z"/><path class="e" d="M1210.054,5215.811a.45.45,0,0,0,.347-.112.55.55,0,0,0,.116-.767l0-.005a12.944,12.944,0,0,0-9.891-4.386.548.548,0,0,0-.5.589v0a.527.527,0,0,0,.546.505h.025a11.981,11.981,0,0,1,8.95,3.96A.527.527,0,0,0,1210.054,5215.811Z"/><path class="e" d="M1214.529,5213.114a.552.552,0,0,0,.347-.112.569.569,0,0,0,.1-.783,12.885,12.885,0,0,0-9.89-4.385.56.56,0,1,0,.079,1.118,11.964,11.964,0,0,1,8.95,3.95A.569.569,0,0,0,1214.529,5213.114Z"/><path class="e" d="M1219,5209.646a.539.539,0,0,0,.347-.112.56.56,0,0,0,.1-.772,12.921,12.921,0,0,0-9.89-4.385.56.56,0,1,0,.078,1.118,12,12,0,0,1,8.95,3.961A.5.5,0,0,0,1219,5209.646Z"/><path class="e" d="M1223.311,5206.167a.493.493,0,0,0,.347-.1.548.548,0,0,0,.116-.767l0,0c-2.014-2.808-6.713-4.788-10.807-4.475a.537.537,0,0,0-.505.568v.014a.548.548,0,0,0,.571.514c3.647-.268,8.077,1.544,9.868,4.028A.5.5,0,0,0,1223.311,5206.167Z"/><path class="a" d="M1266.184,5148.191l27.455-4.587c.358,16.278-.806,38.039-1.343,53-.1,2.875,1.119,22.32.19,28.272-1.421,8.95-13.425,8.111-14.309,2.808s-1.3-27.858-1.443-30.207c-.358-9.79-5.594-26.348-9.163-43.835C1267.4,5152.8,1266.351,5149.03,1266.184,5148.191Z"/><path class="b" d="M1273.825,5231.518c0,5.225.682,8.738,2.573,11.916s5.784,4.352,9.845,3.692,9.354-2.764,10.8-7.183,1.421-7.518.828-12.4Z"/><path class="c" d="M1292.363,5194.945c1.645.213,1.578,7.015,2.07,14.075.515,7.563,2.853,10.807,3.356,17.016.571,7.082-.056,10.2-3.132,14.287s-13.235,7.7-17.711,1.32c-3.636-5.191-3.434-10.695-2.606-17.7a160.091,160.091,0,0,0,1.555-17.845c0-5.28-.783-10.214.693-10.718,0,.784.1,1.768.157,2.54.056.582,0,3.446.951,3.524a9.811,9.811,0,0,0,.157-1.98,2.143,2.143,0,0,1,.559-1.678,6.421,6.421,0,0,1,2.618-.806c1.645-.19,3.289-.346,4.945-.38h2.484a7.2,7.2,0,0,1,2.07.392,1.409,1.409,0,0,1,.85.76,1.954,1.954,0,0,1,0,.806,5.726,5.726,0,0,0,.112,1.454c0,.213.19.481.436.437s.28-.235.291-.4c.067-.85,0-1.477,0-2.461v-1.354C1292.218,5195.773,1292.363,5195.393,1292.363,5194.945Z"/><path class="d" d="M1297.968,5230.154c0,4.385-.481,7.35-2.886,10.561-3.077,4.084-14.041,7.652-18.505,1.287-2.237-3.167-2.64-6.792-2.73-10.461C1277.081,5227,1293.627,5225.88,1297.968,5230.154Z"/><path class="e" d="M1278.591,5224.123h.2a27.148,27.148,0,0,1,14.31-.47.649.649,0,0,0,.772-.369.549.549,0,0,0-.4-.665l-.027-.006a28.153,28.153,0,0,0-15.114.5.514.514,0,0,0-.362.632.527.527,0,0,0,.619.375Z"/><path class="e" d="M1293.057,5218.35a.6.6,0,0,0,.537-.335.513.513,0,0,0-.336-.705c-7.249-2.64-14.768.257-15.092.38a.514.514,0,0,0-.329.649.389.389,0,0,0,.027.067.658.658,0,0,0,.8.269c.079,0,7.384-2.831,14.131-.369A.668.668,0,0,0,1293.057,5218.35Z"/><path class="e" d="M1292.956,5213.372a.615.615,0,0,0,.537-.325.526.526,0,0,0-.262-.7l-.051-.02a21.324,21.324,0,0,0-15.4.325.515.515,0,0,0-.292.666.581.581,0,0,0,.035.072.661.661,0,0,0,.828.224,20.136,20.136,0,0,1,14.332-.291A.772.772,0,0,0,1292.956,5213.372Z"/><path class="f" d="M1292.844,5207.778a.6.6,0,0,0,.537-.314.514.514,0,0,0-.239-.687.672.672,0,0,0-.074-.029c-7.451-2.953-15.182.325-15.506.47a.516.516,0,0,0-.3.665.578.578,0,0,0,.029.063.65.65,0,0,0,.817.246c.078,0,7.541-3.211,14.466-.459A.761.761,0,0,0,1292.844,5207.778Z"/><path class="c" d="M1284.017,5021.835c1.712,31.326,5.594,88.876,5.594,88.876.369,3.648,3.7,19.747,4.039,32.893.548,21.1-.291,35.734-.291,35.734s-11.624,4.33-20.015,1c0,0-10.729-42.514-13.538-56.2-3.356-16.379-11.277-48.488-11.277-48.488l-5.594,43.252s1.757,15.406,0,28.126c-1.2,8.671-4.475,31.394-4.475,31.394s-11.188,3.569-20.306.66c0,0-3.659-56.454-4.207-64.443s-2.349-49-.391-99.426Z"/><path class="g" d="M1248.518,5075.649l-4.677-27.97a25.117,25.117,0,0,1-15.663-6.713s.727,6.455,13.224,10.6l4.285,23.26-2.752,44.136Z"/><path class="a" d="M1223.088,4930.195c-9.051,1.051-12.766,7.607-17.789,17.833-4.005,8.145-11.848,26.538-11.848,26.538s-24.513-6.165-28.876-8.95c-3-1.891-2.439-3.1-7.384-6.3-3.479-2.238-7.183-3.357-9.353-5.594-1.734-1.757-4.475,1.051-1.712,4.822a21.517,21.517,0,0,0,2.909,2.92,16.371,16.371,0,0,1-5.135-1.969c-3.927-2.808-5.661-6.389-10.506-6.959-2.047-.246-2.45,1.175-1.689,2.752a2.444,2.444,0,0,0-1.119,3.468c-1.186.336-1.275,2.7-.828,3.357-.6.872-1.611,3.423,2.853,8.368a43.413,43.413,0,0,0,7.619,6.355,95.124,95.124,0,0,0,10.841,2.64,46.016,46.016,0,0,1,11.792,3.648c5.4,2.237,19.076,9.319,31.2,13.828,10.069,3.748,12.922-2.014,17.7-10.975,3.166-5.919,10.539-25.52,10.539-25.52C1226.086,4948.744,1226.59,4937.433,1223.088,4930.195Z"/><path class="h" d="M1145.735,4969.151c5.985-2.238,12.552.4,14.544,5.247a7.228,7.228,0,0,0-4.386-6.59C1153.432,4966.611,1148.867,4966.936,1145.735,4969.151Z"/><path class="c" d="M1222.361,4930.195c-8.5,1.767-10.439,3.68-16.626,16.177-6.075,12.307-12.687,27.545-12.687,27.545l-15.875-3.793s.917,3-.918,9.409-5.594,8.369-5.594,8.369,12.24,6.209,21.906,9.733,11.781,1.824,14.869-2.64,16.782-36.182,16.782-36.182S1229.588,4939.637,1222.361,4930.195Z"/><path class="g" d="M1178.012,4970.337l-6.467-1.98a19.169,19.169,0,0,1-.358,8.771c-1.891,6.556-5.225,8.6-5.225,8.6l6.467,3.2S1179.578,4980.786,1178.012,4970.337Z"/><path class="e" d="M1217.292,4952.089c1.444-10.46,6.176-24.87,22.376-25.508l17.565,1.342c5.147,1.343,24.367,7.306,24.367,7.306l1.175,41.787s1.287,26.784.9,44.293c-14.98,9.5-49.439,12.922-69.913-2.607C1213.164,5004.247,1215.872,4962.449,1217.292,4952.089Z"/><path class="b" d="M1224.374,4890.612c-2.685-6.053-.134-14.119,3-17.9,4.542-5.493,11.646-7.831,22.375-7.294,8.156.458,16.2,3.8,17.778,12.161,6.567,1.913,5.885,12.687,4.274,17.442-3.245,9.655-9.7,18.08-9.79,23Z"/><path class="a" d="M1224.509,4913.279c1.32,4.642,4.027,8.032,8.335,8.681a36.184,36.184,0,0,0,6.791,0v6.243c-7.2,10.271,15.17,11.065,22.834-.123l-.19-19.131s2.651,2.976,6.97.123a9.454,9.454,0,0,0,2.875-11.6c-2.17-4.475-6.466-2.629-7.831-1.242s-2.775,3.994-3.894,3.636a3.981,3.981,0,0,1-2.685-2.707,24.408,24.408,0,0,1-1.465-8.794,9.852,9.852,0,0,1-3.055-2.361c-1.868-2.047-2.036-4.475-2.125-6.712-9.309-2.853-21.157-1.6-25.005,1.409-2.238,3.927-2.238,13.034-2.562,18.281A43.213,43.213,0,0,0,1224.509,4913.279Z"/><path class="h" d="M1239.635,4921.949c4.755-.291,14.32-2.573,16.849-5.236s3.58-8.111,3.58-8.111-.336,6.858-2.294,9.9-6.914,4.386-9.935,5.158a75.2,75.2,0,0,1-8.156,1.32Z"/><path class="b" d="M1242.5,4896.877a1.982,1.982,0,1,0,0-.046Z"/><path class="b" d="M1226.836,4892.2l4.777-.805a2.328,2.328,0,0,0-2.589-2.031c-.04.005-.079.01-.119.017A2.55,2.55,0,0,0,1226.836,4892.2Z"/><path class="b" d="M1243.3,4891.4l4.61,1.466a2.327,2.327,0,0,0-1.367-2.994c-.036-.014-.073-.027-.11-.038A2.55,2.55,0,0,0,1243.3,4891.4Z"/><path class="b" d="M1227.529,4896.586a1.969,1.969,0,1,0,1.958-2.058A2.024,2.024,0,0,0,1227.529,4896.586Z"/><path class="h" d="M1237.531,4892.436l-1.343,14.119-7.585-2.238Z"/><path class="i" d="M1243.461,4908.054a3.524,3.524,0,0,1-6.5,2.707Z"/><path class="h" d="M1242.9,4909.944a3.358,3.358,0,0,0-3.356,2.921,3.574,3.574,0,0,0,2.036-.213,1.78,1.78,0,1,0,1.32-2.708Z"/><path class="j" d="M1213.343,4966.533c1.9-17.52,4.128-30.062,8.95-36.338,0,0,4.229-1.3,17.353-4.722v1.119a19.2,19.2,0,0,0-4.285,4.688c-2.137,3.222-4.688,8.7-7.172,18.158-3.356,12.877-5.09,41.563-5.258,57.058s-.861,33.944-.861,33.944-7.832-1.6-10.752-5.594C1211.352,5034.857,1211.9,4979.723,1213.343,4966.533Z"/><path class="j" d="M1255.924,4947.782c1.667-7.06,4.766-18.214,6.31-21.805l19.657,7.059c5.393,2.484,9.611,6.489,8.257,15.563l-5.65,39.9,1.387,45.546c-8.357,12.989-34.951,11.859-34.951,11.859s-.447-13.336.358-49.059C1251.74,4976.826,1253.843,4956.788,1255.924,4947.782Z"/><path class="c" d="M1254.515,4955.7a159.374,159.374,0,0,1,7.909-32.322v-2.942s9.107,4.71,12.978,6.947a11.918,11.918,0,0,1,5.046,5.113l-7.417-2.662s-3.581,1.331-7.966,6.366S1254.515,4955.7,1254.515,4955.7Z"/><path class="c" d="M1239.679,4923.381v4.822a37.658,37.658,0,0,0-7.674,11.457,115.019,115.019,0,0,0-5.069,16.043,41.152,41.152,0,0,1,.392-18.393c1.645-6.209,3.435-8.335,4.688-9.7a26.831,26.831,0,0,1,7.663-5.661Z"/><path class="a" d="M1305.084,5030.774c1.51-7.138,3.826-13.649,4.945-19.892,2.741-15.35,2.573-16.57,1.242-23.036-3.849-18.717-6.411-28.339-9.633-37.737-4.352-12.732-5.795-12.933-19.21-16.5-5.9,5.5-5.594,21.928-1.812,30.856,4.3,13.28,9.98,33.038,9.98,33.038-.235,3.1-.381,22.958-2.507,31.9-.727,3.076-2.83,4.341-4.609,5.381-3.356,1.958-4.721,6.6-7.183,9.174-1.935,2-3.434,2.663-3.188,3.3.324.816,1.913,1.353,4.3.727a11.321,11.321,0,0,0,4.419-2.305,14.2,14.2,0,0,1,1.88-1.689c1.063-.593,1.119.459,1.018,1.219a15.692,15.692,0,0,1-1.208,3.894,49.533,49.533,0,0,1-2.92,6.243c-1.03,1.846-2.137,2.7-3.927,4.945-1.041,1.3-2.484,2.539-2.943,4.139-.313,1.119-.369,2.875.962,3.357.616.2,1.421-.538,1.925-.851s1.365-1.186,2.148-1.32a6.953,6.953,0,0,1,2.17.313,6.829,6.829,0,0,0,3.357-.335,4.078,4.078,0,0,0,1.353-.828,2.718,2.718,0,0,1,.549-.526c.7-.291,1.79,0,2.55-.235,1.8-.492,2.786-2.238,4.476-2.931a9.628,9.628,0,0,0,2.629-1.6,12.91,12.91,0,0,0,2.9-3.569c2.406-5.046,4.934-11.635,5.371-17.218A78.992,78.992,0,0,1,1305.084,5030.774Z"/><path class="c" d="M1281.724,4933.036c8.133,2.137,12.463,2.551,15.954,7s7.831,21.257,9.845,28.652,4.62,20.027,5.034,22.376.314,5.1-.906,12.463c-1.4,8.4-4.274,22.376-4.274,22.376s-2.058.638-8.95-.761a84.622,84.622,0,0,1-9.711-2.383l1.365-25.318-11.568-35.667S1272.706,4940.857,1281.724,4933.036Z"/><path class="g" d="M1288.873,5018.1l-.358,6.836s2.237,2.886,9.017,4.162c5.93,1.119,9.532-1.32,9.532-1.32l1.365-6.713a18.51,18.51,0,0,1-10.136.906C1291.334,5020.873,1288.873,5018.1,1288.873,5018.1Z"/></g></svg>