<svg xmlns="http://www.w3.org/2000/svg" xmlns:xlink="http://www.w3.org/1999/xlink" width="907.114" height="568.557" viewBox="0 0 907.114 568.557"><defs><style>.a{fill:rgba(14,14,14,0.1);}.a,.h{mix-blend-mode:multiply;isolation:isolate;}.b{fill:#8d8c7f;}.c{fill:#d4d3cb;}.d{fill:#f7f9e6;}.e{fill:#a1a1a2;}.f{fill:url(#a);}.g{fill:#99573e;}.h{fill:#e9e3dd;}.i{fill:#d17451;}.j{fill:#afb0a8;}.k{fill:url(#b);}.l{fill:url(#c);}.m{fill:url(#d);}.n{fill:url(#e);}.o{fill:url(#f);}.p{fill:url(#g);}.q{fill:url(#h);}.r{fill:url(#i);}.s{fill:url(#j);}.t{fill:url(#k);}.u{fill:url(#l);}.v{fill:url(#m);}.w{fill:url(#n);}.x{fill:url(#o);}.y{fill:url(#p);}.z{fill:url(#q);}.aa{fill:url(#r);}.ab{fill:url(#s);}.ac{fill:url(#t);}.ad{fill:url(#u);}.ae{fill:url(#v);}.af{fill:url(#w);}.ag{fill:url(#x);}.ah{fill:url(#y);}.ai{fill:url(#z);}.aj{fill:url(#aa);}.ak{fill:url(#ab);}.al{fill:url(#ac);}.am{fill:url(#ad);}.an{fill:url(#ae);}.ao{fill:url(#af);}.ap{fill:#1b1515;}.aq{fill:#2d2221;}.ar{fill:#e61e41;}.as{fill:#ed595d;}.at{fill:#e8232a;}.au{fill:#a0131a;}.av{fill:url(#ag);}.aw{fill:#e82f36;}.ax{fill:#3b3613;}.ay{fill:#f1d22d;}.az{fill:#514c1c;}.ba{fill:url(#ah);}.bb{fill:#6f6220;}.bc{fill:#367c80;}.bd{fill:#9dd1b4;}.be{fill:#004378;}.bf{fill:url(#ai);}.bg{fill:#1b6781;}.bh{fill:url(#aj);}.bi{fill:url(#ak);}.bj{fill:url(#al);}</style><linearGradient id="a" x1="12.924" y1="0.704" x2="13.125" y2="0.465" gradientUnits="objectBoundingBox"><stop offset="0" stop-color="#8d8c7f"/><stop offset="0.063" stop-color="#914408b"/><stop offset="0.338" stop-color="#cbccbc"/><stop offset="0.545" stop-color="#ebecda"/><stop offset="0.659" stop-color="#f7f9e6"/></linearGradient><linearGradient id="b" x1="98.123" y1="-3.393" x2="97.675" y2="1.88" gradientUnits="objectBoundingBox"><stop offset="0" stop-color="#d17451"/><stop offset="0.025" stop-color="#c86d4b"/><stop offset="0.113" stop-color="#af5c3c"/><stop offset="0.205" stop-color="#9d4f32"/><stop offset="0.303" stop-color="#93482c"/><stop offset="0.417" stop-color="#90462a"/><stop offset="0.703" stop-color="#91472b"/><stop offset="0.806" stop-color="#984c2f"/><stop offset="0.879" stop-color="#a45436"/><stop offset="0.939" stop-color="#b56040"/><stop offset="0.989" stop-color="#cb6f4d"/><stop offset="1" stop-color="#d17451"/></linearGradient><linearGradient id="c" x1="103.596" y1="-2.485" x2="103.122" y2="2.415" xlink:href="#b"/><linearGradient id="d" x1="96.13" y1="-4.753" x2="95.693" y2="1.529" xlink:href="#b"/><linearGradient id="e" x1="12.849" y1="0.777" x2="13.046" y2="0.543" xlink:href="#a"/><linearGradient id="f" x1="103.629" y1="-1.499" x2="103.154" y2="3.08" xlink:href="#b"/><linearGradient id="g" x1="94.491" y1="-0.711" x2="94.059" y2="4.054" xlink:href="#b"/><linearGradient id="h" x1="94.472" y1="0.326" x2="94.042" y2="5.258" xlink:href="#b"/><linearGradient id="i" x1="87.861" y1="1.373" x2="87.465" y2="6.343" xlink:href="#b"/><linearGradient id="j" x1="101.966" y1="0.493" x2="102.743" y2="-5.92" xlink:href="#b"/><linearGradient id="k" x1="98.059" y1="-0.407" x2="98.812" y2="-6.997" xlink:href="#b"/><linearGradient id="l" x1="20.59" y1="0.393" x2="20.212" y2="1.24" gradientUnits="objectBoundingBox"><stop offset="0" stop-color="#f7f9e6"/><stop offset="0.004" stop-color="#eceedb"/><stop offset="0.021" stop-color="#c3c3b3"/><stop offset="0.037" stop-color="#a5a596"/><stop offset="0.05" stop-color="#939285"/><stop offset="0.06" stop-color="#8d8c7f"/><stop offset="0.104" stop-color="#8d8c7f"/><stop offset="0.37" stop-color="#8d8c7f"/><stop offset="0.397" stop-color="#914408b"/><stop offset="0.518" stop-color="#cbccbc"/><stop offset="0.609" stop-color="#ebecda"/><stop offset="0.659" stop-color="#f7f9e6"/></linearGradient><linearGradient id="m" x1="14.714" y1="0.035" x2="14.221" y2="0.792" xlink:href="#l"/><linearGradient id="n" x1="21.442" y1="1.142" x2="21.633" y2="0.386" gradientUnits="objectBoundingBox"><stop offset="0.37" stop-color="#8d8c7f"/><stop offset="0.397" stop-color="#914408b"/><stop offset="0.518" stop-color="#cbccbc"/><stop offset="0.609" stop-color="#ebecda"/><stop offset="0.659" stop-color="#f7f9e6"/></linearGradient><linearGradient id="o" x1="105.748" y1="4.339" x2="106.548" y2="-0.978" xlink:href="#b"/><linearGradient id="p" x1="117.803" y1="3.773" x2="118.692" y2="-1.979" xlink:href="#b"/><linearGradient id="q" x1="114.346" y1="3.029" x2="115.209" y2="-2.891" xlink:href="#b"/><linearGradient id="r" x1="108.324" y1="2.277" x2="109.143" y2="-3.771" xlink:href="#b"/><linearGradient id="s" x1="105.637" y1="1.35" x2="106.438" y2="-4.799" xlink:href="#b"/><linearGradient id="t" x1="111.086" y1="-1.598" x2="107.257" y2="10.512" xlink:href="#b"/><linearGradient id="u" x1="105.462" y1="-11.62" x2="101.702" y2="0.425" xlink:href="#b"/><linearGradient id="v" x1="107.854" y1="-10.438" x2="104.026" y2="1.43" xlink:href="#b"/><linearGradient id="w" x1="110.175" y1="-9.46" x2="106.276" y2="2.368" xlink:href="#b"/><linearGradient id="x" x1="110.749" y1="-8.309" x2="106.837" y2="3.354" xlink:href="#b"/><linearGradient id="y" x1="110.702" y1="-7.288" x2="106.8" y2="4.4" xlink:href="#b"/><linearGradient id="z" x1="110.71" y1="-6.325" x2="106.818" y2="5.384" xlink:href="#b"/><linearGradient id="aa" x1="109.246" y1="-5.477" x2="105.417" y2="6.387" xlink:href="#b"/><linearGradient id="ab" x1="109.578" y1="-4.513" x2="105.749" y2="7.351" xlink:href="#b"/><linearGradient id="ac" x1="110.016" y1="-3.486" x2="106.187" y2="8.378" xlink:href="#b"/><linearGradient id="ad" x1="110.537" y1="-2.543" x2="106.708" y2="9.492" xlink:href="#b"/><linearGradient id="ae" x1="109.711" y1="-0.705" x2="105.951" y2="11.62" xlink:href="#b"/><linearGradient id="af" x1="108.71" y1="0.337" x2="105.013" y2="12.918" xlink:href="#b"/><linearGradient id="ag" x1="82.97" y1="0.107" x2="82.568" y2="0.835" gradientUnits="objectBoundingBox"><stop offset="0.571" stop-color="#ed595d"/><stop offset="0.68" stop-color="#a0131a"/><stop offset="1" stop-color="#a0131a"/></linearGradient><linearGradient id="ah" x1="79.827" y1="0.293" x2="79.426" y2="1.021" gradientUnits="objectBoundingBox"><stop offset="0.268" stop-color="#f1d22d"/><stop offset="0.383" stop-color="#645a1f"/><stop offset="0.44" stop-color="#554e1c"/><stop offset="0.487" stop-color="#454319"/><stop offset="1" stop-color="#424119"/></linearGradient><linearGradient id="ai" x1="82.514" y1="-7.522" x2="81.574" y2="-6.867" gradientUnits="objectBoundingBox"><stop offset="0.315" stop-color="#9dd1b4"/><stop offset="0.348" stop-color="#6faaa5"/><stop offset="0.382" stop-color="#4781440"/><stop offset="0.416" stop-color="#286f8e"/><stop offset="0.449" stop-color="#115d87"/><stop offset="0.48" stop-color="#045183"/><stop offset="0.508" stop-color="#004e82"/><stop offset="1" stop-color="#003a6f"/></linearGradient><linearGradient id="aj" x1="14.377" y1="0.667" x2="14.764" y2="0.049" gradientUnits="objectBoundingBox"><stop offset="0.133" stop-color="#f7f9e6"/><stop offset="0.37" stop-color="#8d8c7f"/><stop offset="0.397" stop-color="#914408b"/><stop offset="0.518" stop-color="#cbccbc"/><stop offset="0.609" stop-color="#ebecda"/><stop offset="0.659" stop-color="#f7f9e6"/></linearGradient><linearGradient id="ak" x1="20.472" y1="1.139" x2="20.651" y2="0.351" xlink:href="#n"/><linearGradient id="al" x1="14.721" y1="0.159" x2="14.46" y2="0.614" xlink:href="#n"/></defs><g transform="translate(-48.359 -4815.434)"><path class="a" d="M788.069,5378.965c-70.162-19.339-173.268-85.85-181.31-91.086-8.868-5.284-180.918-107.82-314.989-183.447-41.562-23.444-78.258-43.416-110.632-61.035-73.486-40-106.473-58.262-118.311-72.011-11.434-13.288-16.129-27.238-13.949-41.461,4.306-28.1,34.17-46.665,65.787-66.315,7.383-4.589,15.019-9.332,22.305-14.18,51.531-34.285,84.423-19.5,102.1-11.554,1.7.766,3.292,1.489,4.81,2.1,16.513,6.654,397.4,234.015,513.746,303.539l-9.284,17.979c48.551,27.114,95.455,52.983,123.614,67.684,42.87,22.381,81.505,45.069,83.44,76.414.642,10.409-2.659,25.624-22.027,39-38.151,26.352-73.965,39.4-108.538,39.4A137.625,137.625,0,0,1,788.069,5378.965Zm64.949-113.506C774.4,5224.41,552.037,5097.721,549.8,5096.442l11.32-22.486c-160.28-95.437-319-189.435-332.89-196.161-1.878-.767-3.852-1.649-5.935-2.587-14.722-6.611-29.937-13.457-62.655,8.3-7.814,5.2-15.718,10.113-23.368,14.866-19.2,11.928-45.481,28.268-46.937,37.749-.269,1.763,1.417,4.962,4.517,8.56,7.449,8.661,55.732,34.937,106.852,62.761,32.5,17.69,69.342,37.738,111.177,61.337,137.4,77.51,314.423,183.1,316.2,184.16l.7.436c1.04.68,104.759,68.1,170.173,86.133,33.528,9.236,69.907-.1,111.163-28.6a21.358,21.358,0,0,0,4.143-3.52C912.084,5302.207,900.726,5290.37,853.018,5265.459Z"/><path class="b" d="M338.63,4889.93l2.4-1.4V4872.7l-2.4,1.4Z"/><path class="b" d="M392.344,4921.3l2.4-1.4v-15.828l-2.4,1.4Z"/><path class="c" d="M392.344,4921.3l-2.31-1.342V4904.13l2.31,1.342Z"/><path class="c" d="M338.63,4889.93l-2.31-1.342v-15.829l2.31,1.342Z"/><rect class="d" width="3.128" height="188.467" transform="matrix(0.501, -0.866, 0.866, 0.501, 332.479, 4871.432)"/><rect class="e" width="3.128" height="188.467" transform="matrix(0.501, -0.866, 0.866, 0.501, 332.479, 4873.847)"/><path class="f" d="M713.269,5082.327c7.4,0,16.458-1.083,22.39-4.672,13.6-8.231,18.835-25.678,18.835-47.857h-3.121c0,21.041-2.2,38.28-14.822,45.92-12.313,7.454-33.675,4.974-51.5-4.355l-187.821-108.35-1.565,2.708L683.544,5074.1C694,5079.575,704.088,5082.327,713.269,5082.327Z"/><path class="b" d="M753.519,5038.935s1.038,28.938-16.968,37.657c4.855-6.7,10.8-19.878,10.8-19.878l3.384-18.765,2.788.986Z"/><path class="e" d="M713.269,5084.742a38.372,38.372,0,0,0,20.14-5.376c13.6-8.231,18.482-24.974,18.482-47.152H748.77c0,21.04-4.353,36.838-16.981,44.479-12.312,7.453-28.913,6.415-46.739-2.915L497.229,4965.429l-1.565,2.707,187.88,108.38C694,5081.99,704.088,5084.742,713.269,5084.742Z"/><path class="b" d="M135.5,4882.089l-2.4-1.4v-14.2l2.4,1.4Z"/><path class="c" d="M135.5,4882.089l2.309-1.341v-14.2l-2.309,1.342Z"/><path class="d" d="M135.5,4867.892l2.309-1.342-2.4-1.4-2.31,1.341Z"/><path class="b" d="M109.06,4866.728l-2.4-1.4v-14.2l2.4,1.4Z"/><path class="c" d="M109.06,4866.728l2.31-1.342v-14.2l-2.31,1.342Z"/><path class="d" d="M109.06,4852.529l2.31-1.342-2.4-1.4-2.309,1.341Z"/><path class="b" d="M140.215,4849.346l-2.4-1.4v-14.2l2.4,1.4Z"/><path class="c" d="M140.215,4849.346l2.31-1.342v-14.2l-2.31,1.342Z"/><path class="b" d="M738.47,5142.6l2.4-1.4v-69.955l-2.4,1.4Z"/><path class="c" d="M738.47,5142.6l-2.31-1.342v-67.483l2.31-1.129Z"/><path class="b" d="M207.125,5046.761l2.4-1.4v-17.409l-2.4,1.4Z"/><path class="c" d="M207.125,5046.761l-2.309-1.342v-17.408l2.309,1.341Z"/><path class="d" d="M207.125,5029.353l-2.309-1.341,2.4-1.4,2.309,1.341Z"/><path class="b" d="M239.446,5027.983l2.4-1.4v-15.829l-2.4,1.4Z"/><path class="c" d="M239.446,5027.983l-2.31-1.342v-15.828l2.31,1.341Z"/><path class="d" d="M239.446,5012.155l-2.31-1.341,2.4-1.4,2.31,1.341Z"/><path class="b" d="M125.409,5000.818l2.4-1.4v-17.408l-2.4,1.4Z"/><path class="c" d="M125.409,5000.818l-2.31-1.342v-17.408l2.31,1.342Z"/><path class="d" d="M125.409,4983.41l-2.31-1.342,2.4-1.4,2.309,1.342Z"/><path class="b" d="M157.73,4982.041l2.4-1.4v-15.829l-2.4,1.4Z"/><path class="c" d="M157.73,4982.041l-2.309-1.342V4964.87l2.309,1.342Z"/><path class="d" d="M157.73,4966.212l-2.309-1.342,2.4-1.4,2.309,1.342Z"/><path class="b" d="M251.229,4877.259l2.4-1.4v-17.408l-2.4,1.4Z"/><path class="c" d="M251.229,4877.259l-2.31-1.342v-17.408l2.31,1.341Z"/><path class="d" d="M251.229,4859.85l-2.31-1.341,2.4-1.4,2.309,1.342Z"/><path class="b" d="M283.55,4858.481l2.4-1.4v-15.829l-2.4,1.4Z"/><path class="c" d="M283.55,4858.481l-2.309-1.342V4841.31l2.309,1.343Z"/><path class="d" d="M283.55,4842.653l-2.309-1.343,2.4-1.4,2.309,1.342Z"/><path class="b" d="M306.309,4908.708l2.4-1.4V4889.9l-2.4,1.4Z"/><path class="c" d="M306.309,4908.708l-2.31-1.342v-17.409l2.31,1.342Z"/><path class="d" d="M306.309,4891.3l-2.31-1.342,2.4-1.4,2.31,1.342Z"/><path class="b" d="M360.023,4940.078l2.4-1.4v-17.408l-2.4,1.4Z"/><path class="c" d="M360.023,4940.078l-2.31-1.341v-17.409l2.31,1.342Z"/><path class="d" d="M360.023,4922.67l-2.31-1.342,2.4-1.4,2.309,1.342Z"/><path class="b" d="M913.242,5348.348l2.4-1.4v-19.6l-2.4,1.4Z"/><path class="c" d="M913.242,5348.348l-2.31-1.341v-19.6l2.31,1.342Z"/><path class="d" d="M913.242,5328.752l-2.31-1.342,2.4-1.4,2.31,1.341Z"/><path class="b" d="M886.8,5332.986l2.4-1.4v-19.6l-2.4,1.4Z"/><path class="c" d="M886.8,5332.986l-2.309-1.342v-19.6l2.309,1.341Z"/><path class="d" d="M886.8,5313.39l-2.309-1.341,2.4-1.4,2.309,1.342Z"/><path class="g" d="M437.849,4966.558l-7.181-4.146,36.174-14.338v1.745Z"/><path class="g" d="M416.3,4954.12l-7.182-4.146,36.174-14.337v1.745Z"/><path class="g" d="M394.76,4941.681l-7.181-4.146,36.173-14.338v1.746Z"/><path class="g" d="M373.216,4929.243l-7.181-4.146,36.173-14.338v1.746Z"/><path class="g" d="M351.673,4916.8l-7.182-4.146,36.174-14.338v1.745Z"/><path class="g" d="M330.128,4904.366l-7.181-4.146,36.174-14.338v1.746Z"/><path class="g" d="M251.837,4858.337l6.551,3.783,27.379-15.807-6.551-3.783Z"/><path class="g" d="M101.69,4914.525c-.054-.762-.049-1.531-.056-2.3l.037-1.156c.009-.384.054-.772.077-1.157l-35.988,2.28c-.034.519-.087,1.039-.1,1.557l-.049,1.554c0,1.032,0,2.066.073,3.092Z"/><path class="g" d="M101.69,4914.525c-.054-.762-.049-1.531-.056-2.3l.037-1.156c.009-.384.054-.772.077-1.157l-35.988,2.28c-.034.519-.087,1.039-.1,1.557l-.049,1.554c0,1.032,0,2.066.073,3.092Z"/><path class="g" d="M238.676,5039.823l-7.042-.51,28.992-16.739,7.042.51Z"/><path class="g" d="M882.1,5315.514c1.322-.917,2.447-1.92,3.7-2.865a25.634,25.634,0,0,0,3.337-3l32.6,11.194a45.265,45.265,0,0,1-4.945,4.441c-1.822,1.41-3.549,2.87-5.493,4.22Z"/><path class="g" d="M802.248,5330.7l3.017.441c1.007.143,2.051.18,3.073.279,2.06.134,4.09.434,6.169.462l-2.918,21.764c-3.054-.075-6.064-.444-9.094-.67-1.509-.145-3.035-.232-4.525-.432l-4.463-.627Z"/><path class="g" d="M775.437,5323.7a52.007,52.007,0,0,0,5.237,1.934,52.92,52.92,0,0,0,5.458,1.712l-16.459,19.6c-2.825-.7-5.45-1.621-8.088-2.529s-5.328-1.768-7.742-2.867Z"/><path class="g" d="M775.437,5323.7a52.007,52.007,0,0,0,5.237,1.934,52.92,52.92,0,0,0,5.458,1.712l-16.459,19.6c-2.825-.7-5.45-1.621-8.088-2.529s-5.328-1.768-7.742-2.867Z"/><path class="g" d="M750.927,5310.612l10.914,6.3-26.664,15.4-10.915-6.3Z"/><path class="g" d="M724.939,5295.608l10.915,6.3-26.665,15.4-10.915-6.3Z"/><path class="g" d="M696.432,5278.708l10.915,6.3-27.17,15.691-10.915-6.3Z"/><path class="g" d="M667.909,5262.244l10.915,6.3-27.264,15.746-10.915-6.3Z"/><path class="h" d="M647.823,5070.843l-61.842-.294v3.258l61.842.294Z"/><path class="b" d="M717.991,5343.7l2.4-1.4v-19.6l-2.4,1.4Z"/><path class="c" d="M717.991,5343.7l-2.309-1.342v-19.6l2.309,1.341Z"/><path class="d" d="M717.991,5324.105l-2.309-1.341,2.4-1.4,2.31,1.341Z"/><path class="b" d="M744.433,5328.34l2.4-1.4v-19.6l-2.4,1.4Z"/><path class="c" d="M744.433,5328.34l-2.31-1.342v-19.6l2.31,1.342Z"/><path class="d" d="M744.433,5308.743l-2.31-1.342,2.4-1.4,2.309,1.342Z"/><path class="b" d="M166.659,4864.708l-2.4-1.4v-14.2l2.4,1.4Z"/><path class="c" d="M166.659,4864.708l2.309-1.342v-14.2l-2.309,1.342Z"/><path class="d" d="M166.659,4850.51l2.309-1.342-2.4-1.4-2.31,1.342Z"/><path class="d" d="M140.215,4835.147l2.31-1.342-2.4-1.4-2.309,1.342Z"/><path class="b" d="M604.369,5277.16l2.4-1.4v-19.6l-2.4,1.4Z"/><path class="c" d="M604.369,5277.16l-2.309-1.341v-19.6l2.309,1.342Z"/><path class="d" d="M604.369,5257.563l-2.309-1.342,2.4-1.4,2.309,1.342Z"/><path class="b" d="M630.812,5261.8l2.4-1.4v-19.6l-2.4,1.4Z"/><path class="c" d="M630.812,5261.8l-2.309-1.341v-19.6l2.309,1.342Z"/><path class="d" d="M630.812,5242.2l-2.309-1.342,2.4-1.4,2.31,1.342Z"/><path class="b" d="M842.047,5255.407l2.4-1.4v-19.6l-2.4,1.4Z"/><path class="c" d="M842.047,5255.407l-2.31-1.342v-19.6l2.31,1.342Z"/><path class="d" d="M842.047,5235.811l-2.31-1.342,2.4-1.4,2.31,1.342Z"/><path class="b" d="M868.489,5240.044l2.4-1.4v-19.6l-2.4,1.4Z"/><path class="c" d="M868.489,5240.044l-2.309-1.342v-19.6l2.309,1.341Z"/><path class="d" d="M868.489,5220.448l-2.309-1.341,2.4-1.4,2.309,1.341Z"/><path class="b" d="M728.426,5188.865l2.4-1.4v-19.6l-2.4,1.4Z"/><path class="c" d="M728.426,5188.865l-2.31-1.342v-19.6l2.31,1.342Z"/><path class="d" d="M728.426,5169.269l-2.31-1.342,2.4-1.4,2.31,1.342Z"/><path class="b" d="M754.868,5173.5l2.4-1.4v-19.6l-2.4.29Z"/><path class="c" d="M754.868,5173.5l-2.309-1.342v-20.7l2.309,1.342Z"/><path class="d" d="M754.868,5152.8l-2.309-1.342,2.4-.29,2.309,1.342Z"/><path class="e" d="M361.928,4946.957l-2.309-1.342,2.4-1.4,2.309,1.342Z"/><path class="e" d="M410.43,4958.473l-2.309-1.342,2.4-1.4,2.31,1.342Z"/><path class="e" d="M460.527,4999.126l-2.31-1.342,2.4-1.4,2.31,1.342Z"/><path class="e" d="M489.373,4982.367l-2.309-1.342,2.4-1.4,2.31,1.342Z"/><path class="e" d="M509.223,5073.8l-2.309-1.342,2.4-1.4,2.31,1.342Z"/><path class="e" d="M538.069,5057.036l-2.309-1.342,2.4-1.4,2.31,1.341Z"/><path class="e" d="M583.577,4990.52l-2.309-1.342,2.4-1.4,2.31,1.342Z"/><path class="e" d="M557.135,5005.882l-2.31-1.342,2.4-1.4,2.31,1.342Z"/><path class="e" d="M725.022,5061.275l-2.31-1.342,2.4-1.4,2.309,1.342Z"/><path class="e" d="M748.862,5045.913l-2.309-1.342,2.4-1.4,2.31,1.342Z"/><path class="e" d="M110.542,4853.855l17.807-10.27,9.119-5.266,1.14-.658.3-.17.366-.2.733-.407,1.468-.811.737-.4c.249-.132.507-.26.76-.39,1.02-.516,2.031-1.039,3.069-1.543l3.173-1.473a139.188,139.188,0,0,1,28.081-8.926l-.812-2.178a145.7,145.7,0,0,0-29.406,9.346q-1.666.767-3.321,1.542c-1.087.528-2.146,1.074-3.213,1.616-.265.136-.534.27-.795.408l-.771.423-1.537.849-.766.426-.383.214-.3.171-1.14.658-9.12,5.265-17.806,10.27Z"/><path class="g" d="M172.208,4845.7c.536-.222,1.106-.406,1.663-.6s1.11-.405,1.689-.576l1.712-.547,1.747-.5-11.293-18.5-3.018.866-2.966.941c-1,.306-4.832-.042-5.8.3v1.745Z"/><path class="i" d="M172.208,4843.958c.536-.221,1.106-.4,1.663-.6s1.11-.4,1.689-.576l1.712-.547,1.747-.5-11.293-18.5-3.018.866-2.966.941c-1,.306-1.954.656-2.924.994s-1.941.674-2.878,1.047Z"/><path class="e" d="M136.578,4868.886l17.8-10.27,9.12-5.265,1.14-.658.273-.157.2-.109.4-.218.791-.438.393-.22c.135-.072.275-.138.412-.208.552-.273,1.088-.558,1.642-.829s1.133-.521,1.694-.786a74.445,74.445,0,0,1,14.922-4.741l-.812-2.179a80.991,80.991,0,0,0-16.247,5.162q-.917.431-1.842.855c-.6.295-1.186.6-1.787.9-.147.075-.3.148-.445.225l-.429.239-.859.477-.432.236-.216.118-.275.158-1.141.658-9.119,5.265-17.806,10.271Z"/><path class="e" d="M95.1,4864.878a143.31,143.31,0,0,1,17.718-12.315l1.214-.716.6-.349.535-.31,2.143-1.237,4.285-2.473,4.609-2.623,19.571-11.328-7.569,1.353-14.621,8.463-4.609,2.622-4.286,2.475-2.142,1.236-.536.31-.61.357-1.248.737a147.5,147.5,0,0,0-18.227,12.668Z"/><path class="g" d="M141.091,4862.6l7.2-4.156-23.416-13.519-7.2,2.411v1.746Z"/><path class="g" d="M126.591,4871.877q2.64-1.977,5.494-3.866l-25.419-12.284c-2.438,1.612-5.129,1.769-7.4,3.458-.112.083.111,1.662,0,1.745Z"/><path class="i" d="M141.091,4860.85l7.2-4.157-23.416-13.519-7.2,4.156Z"/><path class="i" d="M126.591,4870.131q2.64-1.975,5.494-3.865l-25.419-12.285q-3.837,2.538-7.4,5.2Z"/><path class="g" d="M156.4,4853.757l3.83-2.211,1.915-1.106,1.479-.817-22.466-14.051-1.234.682-.615.342-.307.171-.152.085-.12.069-5.745,1.572v1.746Z"/><path class="i" d="M156.4,4852.012l3.83-2.211,1.915-1.105,1.479-.817-22.466-14.051-1.234.682-.615.342-.307.171-.152.085-.12.069-1.915,1.106-3.83,2.211Z"/><path class="e" d="M126.675,4876.106a102.565,102.565,0,0,1,12.662-8.8l.871-.514.451-.266.536-.309,2.143-1.237.323-.149,8.57-4.948,19.572-11.328-5.336.267-16.855,9.549-8.57,4.948-.324.148-2.142,1.238-.536.309-.466.274-.906.535a106.711,106.711,0,0,0-13.17,9.15Z"/><path class="e" d="M66.043,4922.779c-1.353-9.689.482-19.8,5.435-29.672a75.513,75.513,0,0,1,9.673-14.548A105.205,105.205,0,0,1,95.1,4864.878l-3.177-1.13a108.18,108.18,0,0,0-14.35,14.079,77.634,77.634,0,0,0-9.953,14.968c-5.1,10.159-6.983,20.557-5.592,30.523Z"/><path class="g" d="M102.849,4903.485a40.955,40.955,0,0,1,1.54-4.66l-35.077-1.545c-.762,1.939-1.544,2.579-2.07,4.524-.04.146.038,1.6,0,1.745Z"/><path class="i" d="M102.849,4901.74a40.931,40.931,0,0,1,1.54-4.66l-35.077-1.545a55.064,55.064,0,0,0-2.07,6.269Z"/><path class="g" d="M107.5,4892.444q1.346-2.29,2.962-4.544L77.5,4882.559c-1.331,1.851-2.872,2.5-3.995,4.382-.106.176.1,1.569,0,1.745Z"/><path class="i" d="M107.5,4890.7q1.346-2.291,2.962-4.544L77.5,4880.814q-2.184,3.037-3.995,6.127Z"/><path class="g" d="M115.508,4881.79c.659-.727,1.375-1.44,2.076-2.156l1.1-1.063c.359-.356.754-.7,1.127-1.054l-29.694-8.976c-.507.475-1.033.944-1.521,1.423l-1.478,1.436c-.871.883-1.979.272-2.807,1.166-.077.084.078,1.661,0,1.745Z"/><path class="i" d="M115.508,4880.044c.659-.726,1.375-1.44,2.076-2.156l1.1-1.062c.359-.357.754-.7,1.127-1.054L90.112,4866.8c-.507.474-1.033.944-1.521,1.423l-1.478,1.436c-.952.966-1.911,1.93-2.807,2.911Z"/><path class="e" d="M105.976,4917.414a35.919,35.919,0,0,1,3.882-21.2c3.527-7.049,9.254-13.9,16.817-20.1l-3.177-1.13c-7.871,6.462-13.833,13.589-17.5,20.922a37.357,37.357,0,0,0-4.038,22.056Z"/><path class="c" d="M108.06,4970.473l-7.33-4.231-.917-.53-.458-.264-.492-.288-2.065-1.232-2-1.265c-.658-.427-1.3-.864-1.947-1.3a77.524,77.524,0,0,1-13.367-11.429c-7.543-8.194-12.088-17.471-13.436-27.158l-4.018.539c1.387,9.966,6.064,19.512,13.826,27.944a79.754,79.754,0,0,0,13.753,11.76c.666.445,1.326.894,2,1.334l2.062,1.3,2.124,1.266.5.293.458.264.916.529,7.33,4.232Z"/><path class="e" d="M138.5,4952.9l-7.33-4.232-.916-.529-.458-.265-.223-.128-.185-.111-1.484-.883-1.437-.908-1.393-.929a55.3,55.3,0,0,1-9.531-8.148,35.851,35.851,0,0,1-9.568-19.351l-4.017.54a37.29,37.29,0,0,0,9.957,20.136,57.576,57.576,0,0,0,9.916,8.479c.485.321.96.647,1.449.965l1.5.944,1.542.918.192.115.224.13.458.264.916.529,7.33,4.232Z"/><path class="g" d="M104.06,4925.177c-.047-.118.045-1.627,0-1.745-.512-1.333-1.086-1.291-1.43-2.656l-35.681,6.034a47.784,47.784,0,0,0,1.925,5.931Z"/><path class="i" d="M104.06,4923.432a35.78,35.78,0,0,1-1.43-4.4l-35.681,6.034A47.784,47.784,0,0,0,68.874,4931Z"/><path class="d" d="M197.14,4984.338,138.5,4950.482l-3.063,1.769,58.639,33.854Z"/><path class="e" d="M197.14,4986.753l-61.7-34.5v2.415l58.639,33.855Z"/><path class="g" d="M175.693,4977.237v-1.746l-33.536,14,6.157,3.555Z"/><path class="g" d="M190.352,4985.7v-1.746l-33.536,14,6.157,3.555Z"/><path class="i" d="M175.693,4975.491l-6.157-3.555-27.379,15.807,6.157,3.555Z"/><path class="i" d="M190.352,4983.955,184.2,4980.4l-27.379,15.807,6.157,3.555Z"/><path class="g" d="M161.033,4968.772v-1.745l-6.156-1.809L127.5,4981.025l6.157,3.555,10.841-6.259Z"/><path class="i" d="M161.033,4967.027l-6.156-3.554L127.5,4979.28l6.157,3.554,10.841-6.258Z"/><path class="g" d="M109.9,4935.069c-.077-.1.077-1.648,0-1.745-.965-1.223-2.062-1.022-2.862-2.3l-34.147,9.608a56.814,56.814,0,0,0,3.867,5.455Z"/><path class="g" d="M119.026,4943.868c-.114-.083.11-1.66,0-1.745-.262-.2-1.794-.394-2.048-.6-.359-.292.21.9-.129.6l-1.043-.892-1-.909-31.425,12.862,1.349,1.227,1.4,1.2c.462.4.962.79,1.446,1.184s.974.785,1.487,1.164Z"/><path class="g" d="M131.713,4951.846V4950.1l-3.078-.032-1.539-.889-.385-.222-.351-.207-.648-.385-27.661,15.642.868.516.412.242.385.222,1.539.889,3.078,1.777Z"/><path class="g" d="M146.373,4960.31v-1.746l-6.157-1.81-27.379,15.807,6.157,3.555Z"/><path class="i" d="M109.9,4933.324a42.551,42.551,0,0,1-2.862-4.04l-34.147,9.607a56.893,56.893,0,0,0,3.867,5.456Z"/><path class="i" d="M119.026,4942.123c-.384-.281-.743-.573-1.1-.865s-.734-.577-1.073-.878l-1.043-.891-1-.91-31.425,12.863,1.349,1.227,1.4,1.2c.462.4.962.791,1.446,1.184s.974.785,1.487,1.165Z"/><path class="i" d="M131.713,4950.1l-3.078-1.777-1.539-.889-.385-.223-.351-.206-.648-.386-27.661,15.642.868.516.412.242.385.223,1.539.888,3.078,1.777Z"/><path class="i" d="M146.373,4958.564l-6.157-3.555-27.379,15.808,6.157,3.555Z"/><path class="e" d="M439.276,4941.35l-2.309-1.342,2.4-1.4,2.309,1.342Z"/><path class="e" d="M390.775,4930.2l-2.31-1.342,2.4-1.4,2.309,1.342Z"/><path class="e" d="M342.273,4950l-2.309-1.342,2.4-1.4,2.31,1.342Z"/><path class="b" d="M390.775,5121.933l2.4-1.4v-194.15l-2.4,1.4Z"/><path class="d" d="M390.775,4927.782l-2.31-1.342,2.4-1.4,2.309,1.342Z"/><path class="b" d="M439.276,5149.911l2.4-1.4V4937.538l-2.4,1.4Z"/><path class="d" d="M439.276,4938.935l-2.309-1.341,2.4-1.4,2.309,1.341Z"/><path class="b" d="M342.273,5093.917l2.4-1.4V4946.19l-2.4,1.4Z"/><path class="j" d="M342.273,5093.917l-2.309-1.342v-146.33l2.309,1.341Z"/><path class="d" d="M342.273,4947.587l-2.309-1.341,2.4-1.4,2.31,1.341Z"/><path class="b" d="M344.583,5095.258l2.4-1.4,46.192-68.293-2.4,1.4Z"/><path class="b" d="M344.583,5005.158l2.4-1.4,46.192-68.293-2.4,1.4Z"/><path class="b" d="M390.775,5026.966l1.88-1.088-48.492-77.836-1.88,1.088Z"/><path class="b" d="M390.775,5119.155l1.88-1.088-46.24-114-1.88,1.088Z"/><path class="j" d="M390.775,5119.155l-2.31,1.436-46.239-114,2.309-1.436Z"/><path class="j" d="M344.583,5095.258l-2.31-1.341,46.192-68.293,2.31,1.342Z"/><path class="j" d="M344.583,5005.158l-2.357,1.436.047-2.778,46.192-68.293,2.31,1.342Z"/><path class="j" d="M390.775,5026.966l-2.31,1.436-46.239-74.221.057-5.051Z"/><path class="b" d="M393.084,5123.274l2.4-1.4,46.192-68.293-2.4,1.4Z"/><path class="b" d="M439.276,5147.171l1.88-1.087-46.239-114-1.88,1.088Z"/><path class="j" d="M439.276,5147.171l-2.309,1.436-47.162-116.271,3.232.839Z"/><path class="j" d="M393.084,5123.274l-2.309-1.342,46.192-68.293,2.309,1.341Z"/><path class="b" d="M393.084,5033.174l1.969-.754,46.627-68.936-2.4,1.4Z"/><path class="b" d="M439.276,5057.071l1.88-1.088-48.6-119.828-1.88,1.087Z"/><path class="j" d="M439.276,5057.071l-2.309,1.436-46.24-114-.056-7.267Z"/><path class="j" d="M393.084,5033.174l-4.28,1.57,48.163-71.206,2.309,1.342Z"/><path class="b" d="M441.586,5151.252l2.4-1.4,46.192-68.293-2.4,1.4Z"/><path class="b" d="M487.778,5175.149l1.88-1.088-46.239-114-1.88,1.087Z"/><path class="j" d="M487.778,5175.149l-2.31,1.436-47.161-116.271,3.231.838Z"/><path class="j" d="M441.586,5151.252l-2.31-1.342,46.192-68.293,2.31,1.342Z"/><path class="b" d="M441.586,5061.151l1.969-.753,46.628-68.937-2.4,1.4Z"/><path class="b" d="M487.778,5085.048l1.88-1.088-48.6-119.828-1.88,1.087Z"/><path class="j" d="M487.778,5085.048l-2.31,1.436-46.239-114-.056-7.267Z"/><path class="j" d="M441.586,5061.151l-4.28,1.571,48.162-71.206,2.31,1.342Z"/><path class="b" d="M487.778,5177.926l2.4-1.4V4977.472l-2.4,1.4Z"/><path class="j" d="M487.778,5177.926l-2.31-1.341V4977.526l2.31,1.342Z"/><path class="j" d="M390.775,5121.933l-2.31-1.341V4928.855l2.31-.027Z"/><path class="j" d="M439.276,5149.911l-2.309-1.342V4937.593l2.309,1.341Z"/><path class="b" d="M490.088,5179.268l2.4-1.4,46.192-68.293-2.4,1.4Z"/><path class="b" d="M536.28,5203.165l1.88-1.088-46.24-114-1.88,1.088Z"/><path class="j" d="M536.28,5203.165l-2.309,1.436L486.809,5088.33l3.231.838Z"/><path class="j" d="M490.088,5179.268l-2.309-1.342,46.192-68.293,2.309,1.342Z"/><path class="b" d="M490.088,5089.167l1.969-.754,38.056-56.215-2.4,1.4Z"/><path class="b" d="M536.28,5113.064l1.88-1.088-48.6-119.828-1.88,1.088Z"/><path class="j" d="M536.28,5113.064l-2.309,1.436-46.24-114-.056-7.267Z"/><path class="j" d="M490.088,5089.167l-4.28,1.57,39.591-58.485,2.309,1.342Z"/><path class="b" d="M536.28,5205.942l2.4-1.4V5051l-2.4-.671Z"/><path class="j" d="M536.28,5205.942l-2.309-1.342V5046.538l2.309,3.792Z"/><path class="d" d="M536.28,5050.33l-2.309-3.792,2.4,3.122,2.309,1.342Z"/><path class="g" d="M502.481,5003.874l-7.182-4.147,36.174-14.337v1.745Z"/><path class="i" d="M502.481,5002.128l-7.182-4.146,28.992-16.739,7.182,4.146Z"/><path class="e" d="M313.427,4966.762l-2.31-1.342,2.4-1.4,2.31,1.342Z"/><path class="e" d="M909.782,5243.184l-3.663-2.343-1.842-1.166-.921-.578-.812-.469-6.5-3.751-12.993-7.5-25.988-15-51.975-30.007,2.982-1.722,51.975,30.008,25.988,15,12.993,7.5,6.5,3.751.812.468.954.6,1.909,1.206,3.794,2.427Z"/><path class="g" d="M790.032,5204.336l-10.915-6.3,38.025-11.092v1.745Z"/><path class="g" d="M821.055,5222.005l-10.915-6.3,38-11.075v1.745Z"/><path class="g" d="M849.786,5238.287l-10.915-6.3,37.579-10.838v1.746Z"/><path class="g" d="M875.773,5253.291l-10.915-6.3,37.686-10.778-.106,1.685Z"/><path class="e" d="M903.9,5334.9c10.2-5.932,18.543-12.983,24.324-20.685,5.8-7.7,9.055-16.021,9.586-24.406a42.5,42.5,0,0,0-6.412-24.8c-4.764-7.96-12.165-15.412-21.613-21.828l3.214-1.578c9.787,6.646,17.459,14.37,22.4,22.619a44.033,44.033,0,0,1,6.644,25.69c-.551,8.686-3.922,17.309-9.934,25.286-5.99,7.981-14.643,15.289-25.2,21.431Z"/><path class="g" d="M892.867,5267.351a54.2,54.2,0,0,0-5.931-6.3l31.5-11.982c3.112,2.982,6.443,4.367,8.829,7.571.043.058-.042,1.688,0,1.746Z"/><path class="g" d="M899.931,5283.847l-.139-1.8c-.111-.595-.308-1.185-.451-1.778l-.448-1.778-.213-.89-.376-.872,36.975-4.477.526,1.291.347,1.308.675,2.621c.208.874.714,2.643.871,3.52v1.745Z"/><path class="e" d="M874.063,5317.675c13.207-7.661,21.082-18.1,21.714-28.922.752-10.812-5.757-21.662-17.938-29.888l3.213-1.577c12.87,8.688,19.751,20.16,18.953,31.571-.662,11.421-9,22.468-22.941,30.548Z"/><path class="c" d="M745.041,5338.3a155.64,155.64,0,0,0,37.809,12.479,198.691,198.691,0,0,0,42.947,3.7,191.692,191.692,0,0,0,42.272-5.534A166.707,166.707,0,0,0,906.9,5333.5v3.129a146.89,146.89,0,0,1-37.12,14.552,198.63,198.63,0,0,1-43.8,5.735,205.82,205.82,0,0,1-44.495-3.836,161.253,161.253,0,0,1-39.177-12.931Z"/><path class="e" d="M772.2,5319.855c14.248,7.032,33.041,10.791,51.767,10.356,18.743-.365,36.826-4.911,50.094-12.536l3,1.732c-14,8.052-33.129,12.863-52.911,13.245-19.765.461-39.635-3.512-54.683-10.942Z"/><path class="g" d="M831.641,5331.617c.041,0-.04-1.742,0-1.745,4.1-.234,8.167.859,12.149.309l10.958,20.943c-5.91.879-11.833,1.769-17.917,2.145Z"/><path class="i" d="M831.641,5329.872c4.139-.228,8.128-.881,12.149-1.436l10.958,20.943c-5.91.878-11.833,1.769-17.917,2.145Z"/><path class="c" d="M639.7,5277.854l51.975,30.007,25.987,15,12.994,7.5,6.5,3.751.812.469,1,.531,2.019,1.064,4.059,2.114-2.732,1.856-4.205-2.19-2.089-1.1-1.036-.551-.812-.469-6.5-3.751-12.994-7.5-25.987-15-51.975-30.008Z"/><path class="e" d="M669.344,5260.737l51.975,30.007,25.987,15,12.994,7.5,6.5,3.751.812.469.666.34,1.318.676,2.61,1.369-2.732,1.855-2.756-1.443-1.388-.716-.7-.359-.812-.469-6.5-3.75-12.994-7.5-25.987-15-51.975-30.009Z"/><path class="d" d="M460.527,4996.347l-2.31-1.342,2.4-1.4,2.31,1.342Z"/><path class="g" d="M480.937,4991.435l-7.181-4.146,36.173-14.338v1.746Z"/><path class="i" d="M480.937,4989.69l-7.181-4.146,28.992-16.738,7.181,4.146Z"/><path class="g" d="M567.113,5041.189l-7.182-4.146,36.174-14.338v1.746Z"/><path class="g" d="M545.569,5028.75l-7.181-4.146,28.992-16.738,7.181,4.146Z"/><path class="g" d="M524.025,5016.312l-7.182-4.146,36.174-14.337v1.745Z"/><path class="i" d="M567.113,5039.444l-7.182-4.146,28.992-16.739,7.182,4.146Z"/><path class="i" d="M545.569,5027.005l-7.181-4.146,28.992-16.739,7.181,4.146Z"/><path class="i" d="M524.025,5014.566l-7.182-4.146,28.992-16.739,7.182,4.146Z"/><path class="g" d="M588.657,5053.627l-7.181-4.146,36.173-14.338v1.746Z"/><path class="g" d="M653.289,5090.943l-7.181-4.146,36.174-14.338v1.746Z"/><path class="g" d="M631.745,5078.5l-7.182-4.146,36.174-14.337v1.745Z"/><path class="g" d="M610.2,5066.066l-7.182-4.146,28.992-16.739,7.182,4.146Z"/><path class="i" d="M653.289,5089.2l-7.181-4.147,28.992-16.738,7.181,4.146Z"/><path class="i" d="M631.745,5076.759l-7.182-4.146,28.992-16.738,7.181,4.146Z"/><path class="i" d="M610.2,5064.321l-7.182-4.146,28.992-16.739,7.182,4.146Z"/><path class="g" d="M675.845,5100.262l-9.915-2.568,38.907-15.916v1.746Z"/><path class="i" d="M675.845,5098.517l-9.915-2.568,28.992-16.739,9.915,2.568Z"/><path class="i" d="M588.657,5051.882l-7.181-4.146L610.468,5031l7.181,4.146Z"/><path class="e" d="M733.409,5079.366c-.138.083-.289.137-.428.218-3.082.778-9.968,3.807-9.288,2.352.162-.349,11.549-7.488,11.55-7.814,9.933-8.314,13.527-22.953,13.527-41.908H751.6C751.6,5054.392,747.006,5071.135,733.409,5079.366Z"/><path class="g" d="M715.4,5078.428l3.408-7.592,28.3-16.611,1.432,1.11Z"/><path class="k" d="M716.835,5079.539l3.409-7.591,28.3-16.612-3.409,7.591Z"/><path class="g" d="M719.5,5062.3l1.293-9.479,28.655-16.57,1.432,1.111Z"/><path class="l" d="M720.933,5063.414l1.294-9.479,28.655-16.57-1.293,9.479Z"/><path class="m" d="M708.819,5091.087l3.892-3.808,28.655-16.508-3.555,3.577Z"/><path class="i" d="M707.424,5090.46l3.893-3.808,28.992-16.739,1.057.858Z"/><path class="n" d="M684.066,5099.517a38.389,38.389,0,0,0,20.145-5.376c13.6-8.23,21.085-24.974,21.085-47.152h-3.122c-3.711,25.652.674,37.8-11.954,45.44-12.327,7.467-36.557,5.459-54.372-3.875L462.719,4978.309l-1.546,2.718L654.351,5091.3C664.8,5096.77,674.889,5099.517,684.066,5099.517Z"/><path class="b" d="M724.823,5056.322s1.038,28.938-16.967,37.657c4.855-6.7,10.8-19.878,10.8-19.878l3.383-18.766,2.787.987Z"/><path class="b" d="M712.027,5157.958l2.4-1.4v-69.955l-2.4,1.4Z"/><path class="e" d="M712.027,5157.958l-2.31-1.342v-67.752l2.31-.861Z"/><path class="e" d="M684.066,5101.933a38.389,38.389,0,0,0,20.145-5.376c13.6-8.231,18.482-24.974,18.482-47.152h-3.121c0,21.041-4.353,36.839-16.981,44.474-12.327,7.468-28.928,6.425-46.743-2.91L462.719,4980.724l-1.546,2.718,193.178,110.27C664.8,5099.186,674.889,5101.933,684.066,5101.933Z"/><path class="d" d="M489.373,4979.587l-2.309-1.341,2.4-1.4,2.31,1.341Z"/><path class="b" d="M583.577,5075.344l2.4-1.4v-87.24l-2.4,1.4Z"/><path class="j" d="M583.577,5075.344,581.268,5074v-87.24l2.309,1.342Z"/><path class="d" d="M583.577,4988.1l-2.309-1.342,2.4-1.4,2.31,1.342Z"/><path class="b" d="M557.135,5090.706l2.4-1.4v-87.24l-2.4,1.4Z"/><path class="e" d="M557.135,5090.706l-2.31-1.342v-87.239l2.31,1.341Z"/><path class="d" d="M557.135,5003.466l-2.31-1.341,2.4-1.4,2.31,1.341Z"/><path class="i" d="M437.849,4964.813l-7.181-4.146,28.992-16.738,7.181,4.146Z"/><path class="i" d="M416.3,4952.374l-7.182-4.146,28.992-16.739,7.182,4.147Z"/><path class="i" d="M394.76,4939.936l-7.181-4.146,28.992-16.739,7.182,4.146Z"/><path class="i" d="M373.216,4927.5l-7.181-4.146,28.992-16.738,7.181,4.146Z"/><path class="i" d="M351.673,4915.059l-7.182-4.146,28.992-16.739,7.182,4.146Z"/><path class="i" d="M330.128,4902.62l-7.181-4.146,28.992-16.738,7.181,4.146Z"/><path class="d" d="M275.253,4838.5l62.4,36.024,3.063-1.769-62.4-36.024Z"/><path class="e" d="M275.253,4840.912l62.4,36.024,3.063-1.769-62.4-36.023Z"/><path class="g" d="M303.754,4888.506l6.552,3.782,28.03-16.157v-1.746Z"/><path class="i" d="M303.754,4886.761l6.552,3.782,28.03-16.157-6.551-3.783Z"/><path class="d" d="M177.291,4820.917a149.566,149.566,0,0,1,15.06-2.337c5.055-.526,10.118-.8,15.117-.819a139.706,139.706,0,0,1,14.731.709c1.192.136,2.391.261,3.572.416l3.513.509,3.441.612c1.136.218,2.247.467,3.368.705a85.845,85.845,0,0,1,23.481,8.742l15.679,9.043,3.062-1.768-15.7-9.052a89.9,89.9,0,0,0-24.584-9.153c-1.173-.249-2.337-.509-3.526-.738s-2.4-.43-3.6-.64q-1.835-.273-3.678-.534c-1.236-.163-2.492-.293-3.74-.435a146.119,146.119,0,0,0-15.421-.742c-5.232.019-10.532.306-15.823.857a156.843,156.843,0,0,0-15.765,2.446Z"/><path class="e" d="M177.291,4823.332a149.564,149.564,0,0,1,15.06-2.336c5.055-.526,10.118-.8,15.117-.819a139.836,139.836,0,0,1,14.731.709c1.192.135,2.391.26,3.572.415l3.513.51,3.441.611c1.136.219,2.247.468,3.368.705a85.877,85.877,0,0,1,23.481,8.742l15.679,9.043,3.062-1.768-15.7-9.052a89.866,89.866,0,0,0-24.584-9.152c-1.173-.25-2.337-.51-3.526-.738s-2.4-.431-3.6-.64q-1.835-.273-3.678-.534c-1.236-.163-2.492-.294-3.74-.436a146.381,146.381,0,0,0-15.421-.742c-5.232.02-10.532.307-15.823.857a157.126,157.126,0,0,0-15.765,2.447Z"/><path class="g" d="M188.976,4841.334c2.458-.366,4.932-.641,7.4-.824l1.375-20.066c-.082.006-.043-2.332-.125-2.327-4.119.239-8.628.8-12.723,1.42-.049.008.174,2.32.125,2.327Z"/><path class="i" d="M188.976,4839.589c2.458-.366,4.932-.641,7.4-.824l1.25-20.648c-4.245.307-8.5.781-12.723,1.42Z"/><path class="i" d="M188.976,4839.589c2.458-.366,4.932-.641,7.4-.824l1.25-20.648c-4.245.307-8.5.781-12.723,1.42Z"/><path class="g" d="M206.471,4840.4l.9.047c.3.016.6.026.894.056l1.773.146c.589.053,1.163.132,1.746.194.289.034.587.058.871.1l.853.126,13.607-20.244.076-1.8c-.493-.07-2.552,1.47-3.05,1.41-1-.111-2-.235-3.012-.328l-3.053-.253c-.506-.046-1.023-.07-1.538-.1l-1.546-.082Z"/><path class="i" d="M206.471,4838.659l.9.047c.3.015.6.026.894.056l1.773.146c.589.053,1.163.132,1.746.193.289.035.587.058.871.1l.853.126,13.607-20.245-1.477-.211c-.493-.07-1-.119-1.5-.179-1-.111-2-.235-3.012-.328l-3.053-.253c-.506-.046-1.023-.07-1.538-.1l-1.546-.082Z"/><path class="g" d="M283.035,4876.35l6.551,3.782,27.379-15.807v-1.745Z"/><path class="g" d="M267.437,4867.344l6.551,3.782,27.379-15.807v-1.746Z"/><path class="g" d="M251.837,4858.337l6.551,3.783,27.379-15.807v-1.745Z"/><path class="g" d="M236.239,4849.332l6.552,3.782,27.378-15.807v-1.746Z"/><path class="g" d="M222.526,4843a47.523,47.523,0,0,1,5.793,2.093l24.37-17.316c-.064-.028.065-1.717,0-1.745-3.055-1.34-6.558-.842-10.007-1.868Z"/><path class="i" d="M283.035,4874.6l6.551,3.783,27.379-15.807-6.551-3.783Z"/><path class="i" d="M267.437,4865.6l6.551,3.782,27.379-15.807-6.551-3.782Z"/><path class="i" d="M251.837,4856.592l6.551,3.782,27.379-15.807-6.551-3.783Z"/><path class="i" d="M236.239,4847.586l6.552,3.783,27.378-15.807-6.551-3.783Z"/><path class="i" d="M222.526,4841.258a47.6,47.6,0,0,1,5.793,2.092l24.37-17.315a84.2,84.2,0,0,0-10.007-3.613Z"/><path class="d" d="M244.812,4856.072l62.4,36.024,3.062-1.769-62.4-36.024Z"/><path class="i" d="M251.837,4856.592l6.551,3.782,27.379-15.807-6.551-3.783Z"/><path class="d" d="M185.368,4842.571a76.631,76.631,0,0,1,31.408-.115,52.042,52.042,0,0,1,6.684,1.972c.515.2,1.061.379,1.544.607l.75.321c.251.107.511.207.74.328.474.235.956.463,1.435.693q.675.378,1.364.744l15.519,8.951,3.062-1.768-15.535-8.96q-.747-.4-1.48-.808l-1.56-.753c-.251-.132-.533-.242-.8-.358l-.815-.35c-.528-.245-1.12-.441-1.681-.659a56.806,56.806,0,0,0-7.278-2.148c-10.251-2.324-22.658-2.271-34.164.125Z"/><path class="d" d="M110.542,4851.439l17.807-10.27,9.119-5.265,1.14-.658.3-.171.366-.2.733-.407,1.468-.812.737-.4c.249-.133.507-.26.76-.391,1.02-.516,2.031-1.039,3.069-1.543l3.173-1.473a139.125,139.125,0,0,1,28.081-8.925l-.812-2.179a145.7,145.7,0,0,0-29.406,9.347q-1.666.765-3.321,1.541c-1.087.528-2.146,1.075-3.213,1.616-.265.136-.534.27-.795.408l-.771.423-1.537.85-.766.426-.383.213-.3.172-1.14.658-9.12,5.265-17.806,10.27Z"/><path class="d" d="M136.578,4866.471l17.8-10.271,9.12-5.265,1.14-.658.273-.157.2-.108.4-.218.791-.439.393-.22c.135-.071.275-.138.412-.208.552-.272,1.088-.558,1.642-.828s1.133-.522,1.694-.787a74.508,74.508,0,0,1,14.922-4.741l-.812-2.178a80.929,80.929,0,0,0-16.247,5.162q-.917.43-1.842.855c-.6.295-1.186.6-1.787.9-.147.075-.3.148-.445.225l-.429.24-.859.476-.432.236-.216.119-.275.158-1.141.657-9.119,5.266-17.806,10.27Z"/><path class="d" d="M95.1,4862.462a143.412,143.412,0,0,1,17.718-12.314l1.214-.716.6-.35.535-.309,2.143-1.237,4.285-2.474,4.609-2.623,19.571-11.328-7.569,1.353-14.621,8.463-4.609,2.623-4.286,2.474-2.142,1.237-.536.309-.61.358-1.248.736a147.5,147.5,0,0,0-18.227,12.669Z"/><path class="d" d="M126.675,4873.691a102.354,102.354,0,0,1,12.662-8.8l.871-.514.451-.266.536-.309,2.143-1.238.323-.149,8.57-4.947,19.572-11.328-5.336.267-16.855,9.548-8.57,4.948-.324.149-2.142,1.237-.536.309-.466.275-.906.535a106.5,106.5,0,0,0-13.17,9.15Z"/><path class="d" d="M66.043,4920.363c-1.353-9.689.482-19.8,5.435-29.672a75.478,75.478,0,0,1,9.673-14.547A105.18,105.18,0,0,1,95.1,4862.462l-3.177-1.129a108.06,108.06,0,0,0-14.35,14.079,77.643,77.643,0,0,0-9.953,14.967c-5.1,10.159-6.983,20.557-5.592,30.524Z"/><path class="d" d="M105.976,4915a35.919,35.919,0,0,1,3.882-21.2c3.527-7.049,9.254-13.9,16.817-20.1l-3.177-1.13c-7.871,6.462-13.833,13.588-17.5,20.921a37.357,37.357,0,0,0-4.038,22.056Z"/><path class="i" d="M101.69,4912.78c-.054-.762-.049-1.531-.056-2.3l.037-1.155c.009-.385.054-.773.077-1.159l-35.988,2.28c-.034.519-.087,1.04-.1,1.558l-.049,1.554c0,1.032,0,2.065.073,3.091Z"/><path class="i" d="M101.69,4912.78c-.054-.762-.049-1.531-.056-2.3l.037-1.155c.009-.385.054-.773.077-1.159l-35.988,2.28c-.034.519-.087,1.04-.1,1.558l-.049,1.554c0,1.032,0,2.065.073,3.091Z"/><path class="d" d="M108.06,4968.057l-7.33-4.231-.917-.529-.458-.265-.492-.288-2.065-1.231-2-1.265c-.658-.428-1.3-.864-1.947-1.3a77.439,77.439,0,0,1-13.367-11.429c-7.543-8.194-12.088-17.47-13.436-27.158l-4.018.54c1.387,9.966,6.064,19.511,13.826,27.943a79.668,79.668,0,0,0,13.753,11.76c.666.445,1.326.9,2,1.334l2.062,1.3,2.124,1.265.5.293.458.265.916.529,7.33,4.232Z"/><path class="d" d="M138.5,4950.482l-7.33-4.232-.916-.528-.458-.265-.223-.129-.185-.111-1.484-.883-1.437-.907-1.393-.93a55.256,55.256,0,0,1-9.531-8.148,35.852,35.852,0,0,1-9.568-19.35l-4.017.539a37.287,37.287,0,0,0,9.957,20.136,57.533,57.533,0,0,0,9.916,8.479c.485.321.96.647,1.449.966l1.5.944,1.542.917.192.116.224.129.458.265.916.529,7.33,4.232Z"/><path class="d" d="M166.7,5001.913l-58.639-33.855L105,4969.826l58.638,33.854Z"/><path class="e" d="M809.154,5184.806l1.565-2.707L673.8,5103.051c-54.644-34.88-90.115-70.743-90.115-141.526,0-21.735,11.053-38.432,28.288-48.382,20.529-11.854,49.121-10.927,71.122,1.784,38.921,22.474,65.674,72.178,65.674,117.1l-.005,1.441,2.5-.054.625-1.387c0-46.7-26.767-96.438-67.229-119.8-22.946-13.242-52.785-14.179-74.253-1.784-18.24,10.536-29.844,28.188-29.844,51.09,0,72.21,36.017,108.709,91.612,144.2Z"/><path class="g" d="M720.458,5040.916l-.923-11.132,28.992-16.739,1.432,1.11Z"/><path class="o" d="M721.89,5042.026l-.923-11.132,28.992-16.739.923,11.132Z"/><path class="g" d="M716.241,5018.405l-2.311-10.331,28.471-16.451h2.639Z"/><path class="g" d="M708.213,4991.863l-4.087-9.305,33.789-8.5-.71,1.063Z"/><path class="p" d="M718.88,5018.405l-3.9-9.413,30.06-17.369,2.832,10.044Z"/><path class="q" d="M708.923,4990.8l-4.087-9.305,28.694-16.567,4.385,9.134Z"/><path class="g" d="M692.936,4967.544,686,4958.605l36.923-10.08-1,2.281Z"/><path class="g" d="M670.987,4943.284l-9.4-7.513,38.393-10.97v1.745Z"/><path class="g" d="M646.1,4926.743l-11.021-4.126,40.013-14.357V4910Z"/><path class="r" d="M693.935,4965.264,687,4956.325,716,4939.586l6.931,8.939Z"/><path class="i" d="M670.987,4941.539l-9.4-7.514,28.992-16.738,9.4,7.514Z"/><path class="i" d="M646.1,4925l-11.021-4.127,28.992-16.738,11.021,4.126Z"/><path class="g" d="M581.331,5069.383l-4.155-5.893,33.147-12.59-.655,2.124Z"/><path class="s" d="M581.331,5067.638l-4.155-5.893,28.992-16.739,4.155,5.894Z"/><path class="g" d="M597.138,5086.819l-5.205-5.288,34.2-13.2-.564,2.07Z"/><path class="g" d="M631.094,5113.679l-7.182-4.146,36.173-14.337v1.745Z"/><path class="g" d="M651.553,5126.724l-7.181-4.146,36.173-14.337v1.745Z"/><path class="g" d="M673.112,5139.127l-7.181-4.147,36.173-14.337v1.746Z"/><path class="g" d="M694.692,5151.6l-7.182-4.146,36.174-14.338v1.745Z"/><path class="g" d="M715.986,5163.983l-7.181-4.146,36.174-14.338v1.746Z"/><path class="g" d="M737.744,5176.537l-7.181-4.146,36.174-14.338v1.745Z"/><path class="i" d="M737.744,5174.791l-7.181-4.146,28.992-16.738,7.181,4.146Z"/><path class="g" d="M614.25,5101.671l-5.955-4.855,34.946-13.629-.359,1.953Z"/><path class="i" d="M715.986,5162.237l-7.181-4.146,28.992-16.738,7.181,4.146Z"/><path class="i" d="M694.692,5149.855l-7.182-4.146,28.992-16.739,7.182,4.146Z"/><path class="i" d="M673.112,5137.381l-7.181-4.146,28.992-16.739,7.181,4.146Z"/><path class="i" d="M651.553,5124.979l-7.181-4.146,28.992-16.739,7.181,4.146Z"/><path class="i" d="M631.094,5111.934l-7.182-4.147,28.992-16.738,7.181,4.146Z"/><path class="i" d="M614.25,5099.925l-5.955-4.855,28.992-16.738,5.954,4.854Z"/><path class="t" d="M597.138,5085.074l-5.205-5.287,28.992-16.738,5.205,5.287Z"/><path class="g" d="M759.324,5188.917l-7.182-4.146,36.173-14.337v1.745Z"/><path class="i" d="M759.324,5187.171l-7.182-4.146,28.992-16.739,7.181,4.146Z"/><path class="u" d="M751.373,5029.606c0-44.917-28.387-95.17-67.308-117.643-22-12.711-51.562-13.844-72.091-1.989a52.756,52.756,0,0,0-12.752,10.346,31.735,31.735,0,0,1-4.262.167,55.586,55.586,0,0,1,15.448-13.221c21.469-12.4,51.307-11.821,74.254,1.422,40.462,23.365,69.832,74.219,69.832,120.918v4.285l-2.632,1.233Z"/><path class="v" d="M591.614,4925.126a29.094,29.094,0,0,0,3.524.3c-6.425,9.25-9.891,20.676-9.891,33.684,0,70.782,33.91,106.646,88.554,141.525l136.918,79.048-1.565,2.708-136.977-79.083c-55.6-35.489-90.051-71.988-90.051-144.2C582.126,4946.1,585.471,4934.615,591.614,4925.126Z"/><path class="w" d="M751.373,5029.606c0-44.917-28.387-95.17-67.308-117.643-22-12.711-51.562-13.844-72.091-1.989a54.316,54.316,0,0,0-7.221,5.072,2.339,2.339,0,0,0-.381-1.109q-.561-.867-1.12-1.735a58.011,58.011,0,0,1,7.156-4.936c21.469-12.4,51.307-11.821,74.254,1.422,40.462,23.365,69.832,74.219,69.832,120.918v4.285l-2.632,1.233Z"/><path class="e" d="M642.9,4904.838a65.446,65.446,0,0,0-30.923,8.305c-17.235,9.949-28.288,26.647-28.288,48.382,0,27.621,5.068,49.714,14.9,68.717.579,1.268,2.527,6.154,3.773,8.671.273.55-6.4-8.529-7.017-8.553-9.532-19.054-14.78-41.346-14.78-68.835,0-22.9,11.6-40.554,29.843-51.09a67.886,67.886,0,0,1,30.1-8.591Q641.755,4903.311,642.9,4904.838Z"/><path class="g" d="M564.379,4940.806l6.264-7.6,28.992-16.739,1.7,1.133Z"/><path class="i" d="M566.078,4941.938l6.264-7.6,28.992-16.738-6.264,7.6Z"/><path class="g" d="M615.513,4921.133l-12.377.256,41.368-18.74v1.745Z"/><path class="i" d="M615.513,4919.387l-12.377.256,28.992-16.739,12.377-.255Z"/><path class="g" d="M588.606,4926.462l-9.229,3.7,38.22-22.181v1.746Z"/><path class="i" d="M588.606,4924.717l-9.229,3.7,28.992-16.738,9.228-3.7Z"/><path class="g" d="M557.329,4962.224l1.324-9.471,26.893-15.462,1.7,1.133Z"/><path class="x" d="M555.037,4965.721l3.571-10.768,28.638-16.529-3.216,10.558Z"/><path class="g" d="M551.733,4987.06l-.188-8.6,28.992-16.739,1.521,1.235Z"/><path class="y" d="M553.433,4988.192l-.366-8.495,28.992-16.739v8.706Z"/><path class="g" d="M554.538,5007.575l-1.609-7.777,28.992-16.739,1.7,1.132Z"/><path class="z" d="M556.238,5008.708l-1.61-7.777,28.992-16.739.876,8.2Z"/><path class="g" d="M558.816,5026.586l-2.5-7.263,28.992-16.738,1.7,1.133Z"/><path class="aa" d="M560.516,5027.719l-2.5-7.263,28.992-16.738,2.5,7.262Z"/><path class="g" d="M567.514,5048.2l-3.185-6.868,28.992-16.739,1.7,1.133Z"/><path class="ab" d="M569.214,5049.332l-3.185-6.867,28.992-16.739,3.185,6.868Z"/><path class="g" d="M459.393,4979l-7.182-4.146,36.174-14.338v1.745Z"/><path class="i" d="M459.393,4977.251l-7.182-4.146,28.992-16.739,7.182,4.146Z"/><rect class="d" width="3.128" height="179.506" transform="matrix(0.5, -0.866, 0.866, 0.5, 305.732, 4891.226)"/><rect class="e" width="3.128" height="179.505" transform="matrix(0.5, -0.866, 0.866, 0.5, 305.732, 4893.641)"/><path class="d" d="M672.428,5263.536l1.566-2.708-31.626-18.259c-19.78-11.416-38.606-40.59-53.015-82.149-38.758-111.8-89.721-190.465-143.51-221.52-54.339-31.383-105.814-11.371-144.946,56.344-7.474,12.928-12.727,21.463-22.31,24.154-12.417,3.488-24.533-1.592-38.026-9.882L195.338,4983.3l-1.145,1.808L238.96,5012.2c14.213,8.738,27.065,12.785,37.9,10.028,10.516-2.658,18.828-11.722,26.744-25.418,38.124-65.967,88.087-85.575,140.674-55.2,53.139,30.675,103.614,108.749,142.121,219.836,14.656,42.268,33.973,72.042,54.4,83.833Z"/><path class="e" d="M672.428,5265.951l1.566-2.707-31.626-18.259c-19.78-11.417-40.721-40.59-55.13-82.15-38.759-111.8-87.606-190.1-141.395-221.155-54.339-31.384-104.137-11.068-143.27,56.647-7.473,12.929-15.8,20.4-25.447,22.843-9.984,2.526-21.4-.28-34.889-8.57L194.4,4985.273l-1.49,2.577,47.724,27.432c14.212,8.739,26.416,11.673,37.252,8.916,10.515-2.658,19.475-10.609,27.392-24.305,38.123-65.968,86.41-85.88,139-55.5,53.139,30.675,101.5,108.384,140.006,219.471,14.656,42.269,36.088,72.043,56.519,83.834Z"/><path class="g" d="M200.484,5025.207l-7.181-4.146,36.173-14.338v1.745Z"/><path class="i" d="M200.484,5023.462l-7.181-4.146,28.992-16.739,7.181,4.146Z"/><path class="g" d="M222.029,5037.645l-7.181-4.146,37.624-15.175v1.745Z"/><path class="i" d="M222.029,5035.9l-7.181-4.146,28.992-16.738,8.632,3.308Z"/><path class="g" d="M178.941,5012.769l-7.182-4.146,36.174-14.338v1.745Z"/><path class="i" d="M178.941,5011.023l-7.182-4.146,28.992-16.738,7.182,4.146Z"/><path class="g" d="M624.772,5271.046l-7.182-4.146,28.992-16.739,7.181,4.146Z"/><path class="g" d="M603.88,5258.312l-5.127-5.333,28.992-16.738,5.127,5.332Z"/><path class="g" d="M586.814,5240.343l-4.12-5.914,34.1-12.991-.991,2.166Z"/><path class="g" d="M573.363,5218.646l-4.12-5.914,34.1-12.991-.991,2.166Z"/><path class="g" d="M562.3,5196.7l-3.539-5.512,34.1-12.992-1.573,1.765Z"/><path class="g" d="M553.078,5172.719l-2.635-6.287,33.5-12.645-1.877,2.193Z"/><path class="g" d="M543.981,5147.623l-2.919-6.238,33.5-12.645-1.593,2.145Z"/><path class="g" d="M534.7,5124.107l-3.059-5.935,33.5-12.646-1.453,1.841Z"/><path class="g" d="M524.528,5102.871l-2.83-6.267,33.5-12.646-1.682,2.173Z"/><path class="g" d="M514.767,5080.832l-3.52-6.26,33.5-12.645-.991,2.166Z"/><path class="g" d="M502.26,5058.005l-3.52-6.26,33.5-12.646-.991,2.167Z"/><path class="g" d="M488.555,5036.655l-3.521-6.26,33.5-12.646-.992,2.167Z"/><path class="g" d="M460.028,41440.4l-4.117-5.915,34.1-12.99-.991,2.167Z"/><path class="g" d="M441.084,4978.968l-4.117-5.915,34.1-12.99-.992,2.167Z"/><path class="g" d="M418.77,4962.824l-5.731-4.983,35.715-13.922-.991,2.167Z"/><path class="g" d="M389.071,4949.415l-8.406-2.71,38.39-16.195-.991,2.167Z"/><path class="g" d="M359.473,4946.849l-11.349,1.295,39.921-19.689.419,1.656Z"/><path class="g" d="M328.776,4956.835l-9.3,3.292L337.634,4949l19.242-10.867.892,1.966Z"/><path class="g" d="M474.658,5016.67l-3.521-6.26,33.5-12.645-.991,2.166Z"/><path class="ac" d="M475.649,5014.5l-3.52-6.26,28.185-16.272,4.328,5.794Z"/><path class="i" d="M625.764,5268.88l-7.182-4.146L647.574,5248l7.182,4.146Z"/><path class="i" d="M604.872,5256.145l-5.127-5.333,28.992-16.739,5.127,5.333Z"/><path class="ad" d="M587.8,5238.176l-4.12-5.914,28.992-16.738,4.12,5.914Z"/><path class="ae" d="M574.355,5216.479l-3.53-6.254,28.992-16.739,3.529,6.255Z"/><path class="af" d="M563.87,5194.931l-2.937-6.33,28.992-16.739,2.937,6.331Z"/><path class="ag" d="M554.954,5170.525l-2.833-6.656,28.992-16.738,2.833,6.657Z"/><path class="ah" d="M545.573,5145.479l-2.917-6.607,28.992-16.739,2.917,6.608Z"/><path class="ai" d="M536.155,5122.266l-2.993-6.564,28.992-16.739,2.992,6.564Z"/><path class="aj" d="M526.209,5100.7l-3.52-6.26,28.992-16.739,3.52,6.26Z"/><path class="ak" d="M515.758,5078.665l-3.52-6.26,28.992-16.738,3.52,6.26Z"/><path class="al" d="M503.251,5055.839l-3.52-6.26,28.992-16.739,3.52,6.26Z"/><path class="am" d="M489.546,5034.488l-3.52-6.261,28.429-16.413,4.084,5.935Z"/><path class="an" d="M461.019,4996.229l-4.117-5.916,28.1-16.225,5.007,5.4Z"/><path class="ao" d="M442.076,4976.8l-4.681-5.59,27.884-16.1,5.789,4.949Z"/><path class="i" d="M419.762,4960.658l-5.732-4.983,27.65-15.963,7.074,4.208Z"/><path class="i" d="M390.062,4947.249l-8.406-2.711,27.857-16.083,9.542,2.055Z"/><path class="i" d="M359.053,4945.194l-9.937.784,26.991-15.583,11.939-1.939Z"/><path class="i" d="M327.883,4954.869l-7.415,3.092,28.992-16.739,7.415-3.092Z"/><path class="i" d="M309.856,4968.835a2.443,2.443,0,0,0,.578-2.078l22.048-12.729-3,3.937-20.889,12.059A16.994,16.994,0,0,0,309.856,4968.835Z"/><path class="i" d="M300.333,4979.589a2.2,2.2,0,0,0,.657-2.089l22.749-13.134,1.929.454-27.153,16.721C299.123,4980.892,299.682,4980.224,300.333,4979.589Z"/><path class="i" d="M290.826,4991.174a2.118,2.118,0,0,0,.236-2.062L316.02,4974.7l1.929.454-28.055,17.276C290.208,4992.016,290.537,4991.614,290.826,4991.174Z"/><path class="i" d="M282.892,5000.723l24.7-14.262,1.929.455-29.292,18.037A36.262,36.262,0,0,1,282.892,5000.723Z"/><path class="i" d="M279.1,5009.968l20.794-12,1.929.454L279.6,5012.1A2.449,2.449,0,0,0,279.1,5009.968Z"/><path class="g" d="M302.416,4975.157l3-3.936,28.992-16.739-3,3.937Z"/><path class="g" d="M292.454,4986.916l4.222-5.357,28.992-16.739-4.222,5.357Z"/><path class="g" d="M284.735,4997.253l4.221-5.357,28.992-16.739-4.221,5.357Z"/><path class="g" d="M281.182,5003.28l28.343-16.364-3.139,4.731-27.475,15.863C279.618,5006.07,280.368,5004.644,281.182,5003.28Z"/><path class="g" d="M279.43,5012.735a2.425,2.425,0,0,0,.208-1.509l22.186-12.809-4.222,5.357-20.047,11.574A11.774,11.774,0,0,0,279.43,5012.735Z"/><path class="g" d="M262.577,5031.927l5.949-5.424,28.992-16.739-5.949,5.424Z"/><path class="i" d="M259.656,5031.894l5.949-5.424,28.992-16.739,2.921.033Z"/><path class="i" d="M238.676,5038.078l-7.042-.51,28.992-16.739,7.042.51Z"/><path class="d" d="M909.782,5240.768l-3.663-2.343-1.842-1.166-.921-.578-.812-.469-6.5-3.751-12.993-7.5-25.988-15-51.975-30.007,2.982-1.722,51.975,30.007,25.988,15,12.993,7.5,6.5,3.75.812.469.954.6,1.909,1.207,3.794,2.428Z"/><path class="i" d="M790.032,5202.591l-10.915-6.3,27.11-15.648,10.915,6.3Z"/><path class="i" d="M821.055,5220.26l-10.915-6.3,27.086-15.631,10.915,6.3Z"/><path class="i" d="M849.786,5236.542l-10.915-6.3,26.665-15.395,10.914,6.3Z"/><path class="i" d="M875.773,5251.546l-10.915-6.3,26.665-15.395,10.915,6.3Z"/><path class="i" d="M875.773,5251.546l-10.915-6.3,26.665-15.395,10.915,6.3Z"/><path class="g" d="M882.1,5315.514v-1.746c1.319-.924,6-3.1,7.04-4.123l32.6,11.194a45.265,45.265,0,0,1-4.945,4.441c-1.822,1.41-3.549,2.87-5.493,4.22Z"/><path class="g" d="M896.176,5300.679c.086-.121-.077-1.623,0-1.745.629-1,1.242-.665,1.671-1.7a15.13,15.13,0,0,0,1.231-3.509l37.357,3.572a26.493,26.493,0,0,1-1.81,5.179,29.066,29.066,0,0,1-2.476,5.087Z"/><path class="d" d="M903.9,5332.483c10.2-5.932,18.543-12.983,24.324-20.685,5.8-7.7,9.055-16.02,9.586-24.4a42.5,42.5,0,0,0-6.412-24.8c-4.764-7.961-12.165-15.413-21.613-21.829l3.214-1.577c9.787,6.646,17.459,14.37,22.4,22.619a44.03,44.03,0,0,1,6.644,25.689c-.551,8.686-3.922,17.309-9.934,25.286-5.99,7.981-14.643,15.29-25.2,21.431Z"/><path class="d" d="M874.063,5315.259c13.207-7.66,21.082-18.1,21.714-28.921.752-10.812-5.757-21.662-17.938-29.888l3.213-1.578c12.87,8.688,19.751,20.16,18.953,31.571-.662,11.421-9,22.469-22.941,30.549Z"/><path class="i" d="M892.867,5265.6a54.119,54.119,0,0,0-5.931-6.3l31.5-11.983a76.406,76.406,0,0,1,8.829,9.317Z"/><path class="i" d="M899.931,5282.1l-.139-1.795c-.111-.6-.308-1.185-.451-1.779l-.448-1.777-.213-.891-.376-.872,36.975-4.476.526,1.29.347,1.309.675,2.621c.208.874.462,1.746.62,2.623L937.7,5281Z"/><path class="i" d="M896.176,5298.934a16.6,16.6,0,0,0,1.671-3.444,15.127,15.127,0,0,0,1.231-3.508l37.357,3.572a26.5,26.5,0,0,1-1.81,5.179,29.083,29.083,0,0,1-2.476,5.087Z"/><path class="i" d="M882.1,5313.768c1.322-.916,2.447-1.92,3.7-2.865a25.493,25.493,0,0,0,3.337-3l32.6,11.2a45.315,45.315,0,0,1-4.945,4.441c-1.822,1.41-3.549,2.87-5.493,4.22Z"/><path class="i" d="M882.1,5313.768c1.322-.916,2.447-1.92,3.7-2.865a25.493,25.493,0,0,0,3.337-3l32.6,11.2a45.315,45.315,0,0,1-4.945,4.441c-1.822,1.41-3.549,2.87-5.493,4.22Z"/><path class="g" d="M859.5,5326.331v-1.745l10.311-2.194,23.441,17.226-7.382,3.119c-2.58.938-5.235,1.814-7.863,2.709Z"/><path class="d" d="M745.041,5335.881a155.6,155.6,0,0,0,37.809,12.479,198.63,198.63,0,0,0,42.947,3.7,191.692,191.692,0,0,0,42.272-5.534,141.845,141.845,0,0,0,35.828-14.045l3,1.733a146.817,146.817,0,0,1-37.12,14.552,198.572,198.572,0,0,1-43.8,5.735,205.882,205.882,0,0,1-44.495-3.835,161.3,161.3,0,0,1-39.177-12.931Z"/><path class="d" d="M772.2,5317.439c14.248,7.033,33.041,10.791,51.767,10.357,18.743-.365,36.826-4.912,50.094-12.537l3,1.733c-14,8.051-33.129,12.862-52.911,13.245-19.765.46-39.635-3.512-54.683-10.942Z"/><path class="i" d="M859.5,5324.586l5.324-1.818,4.987-2.121,23.441,17.225-7.382,3.12c-2.58.938-5.235,1.813-7.863,2.709Z"/><path class="i" d="M802.248,5328.955l3.017.44c1.007.144,2.051.18,3.073.28,2.06.134,4.09.434,6.169.462l-2.918,21.764c-3.054-.076-6.064-.445-9.094-.67-1.509-.145-3.035-.232-4.525-.432l-4.463-.627Z"/><path class="i" d="M775.437,5321.952a52.126,52.126,0,0,0,5.237,1.934,53.4,53.4,0,0,0,5.458,1.712l-16.459,19.6c-2.825-.7-5.45-1.621-8.088-2.53s-5.328-1.768-7.742-2.866Z"/><path class="i" d="M775.437,5321.952a52.126,52.126,0,0,0,5.237,1.934,53.4,53.4,0,0,0,5.458,1.712l-16.459,19.6c-2.825-.7-5.45-1.621-8.088-2.53s-5.328-1.768-7.742-2.866Z"/><path class="d" d="M639.7,5275.438l51.975,30.008,25.987,15,12.994,7.5,6.5,3.75.812.469,1,.532,2.019,1.063,4.059,2.115-2.732,1.856-4.205-2.191-2.089-1.1-1.036-.551-.812-.469-6.5-3.751-12.994-7.5-25.987-15-51.975-30.008Z"/><path class="d" d="M669.344,5258.321l51.975,30.007,25.987,15,12.994,7.5,6.5,3.751.812.469.666.339,1.318.676,2.61,1.369-2.732,1.855-2.756-1.443-1.388-.716-.7-.359-.812-.469-6.5-3.75-12.994-7.5-25.987-15-51.975-30.008Z"/><path class="i" d="M750.927,5308.867l10.914,6.3-26.664,15.4-10.915-6.3Z"/><path class="i" d="M724.939,5293.863l10.915,6.3-26.665,15.4-10.915-6.3Z"/><path class="i" d="M696.432,5276.962l10.915,6.3-27.17,15.691-10.915-6.3Z"/><path class="i" d="M667.909,5260.5l10.915,6.3-27.264,15.746-10.915-6.3Z"/><path class="ap" d="M653.764,5284.352,605.517,5256.5a4.707,4.707,0,0,1,0-8.153l15.716-9.073a8.046,8.046,0,0,1,8.045,0l51.923,29.978a2.8,2.8,0,0,1,0,4.854l-17.751,10.249A9.687,9.687,0,0,1,653.764,5284.352Z"/><path class="ap" d="M682.6,5271.8v-7.279l-79.431-19.46v7.358l10.321,5.527,46.881,24.3Z"/><path class="aq" d="M653.764,5277.311l-48.247-27.855a4.707,4.707,0,0,1,0-8.153l15.716-9.073a8.046,8.046,0,0,1,8.045,0l51.923,29.978a2.8,2.8,0,0,1,0,4.854l-17.751,10.249A9.687,9.687,0,0,1,653.764,5277.311Z"/><path class="ar" d="M629.58,5236.255a6.709,6.709,0,0,0,.607.4l6.483,3.744,7.234,4.175,3.678,2.131,13.409,7.743,17.263,9.962a1.34,1.34,0,0,0,1.093.188c.508-.177.762-.806.585-1.7l-1.325-6.759a14.014,14.014,0,0,0-5.136-8.185l-12.48-9.056-1.4,2.982c-.619,1.314-2.043,1.568-3.623.652l-.607-.354-7.4-4.263a6.827,6.827,0,0,1-2.96-4.363l-1.094-5.621-11.542-5.876a4.32,4.32,0,0,0-3.666-.387l-.618.364a3.661,3.661,0,0,0-1.3,2.177l-.873,3.755C625.283,5230.556,627.05,5234.4,629.58,5236.255Z"/><path class="ar" d="M608,5233.693l4.86,4.628,18.069,17.208,28.164,20.852,20.311-11.729-.055-.055-15.838-17.352-10.746-3.557-5.479-1.822L641,5231.848l-1.579-1.314-10.725-8.869-.618.364Z"/><path class="as" d="M608,5233.693l4.86,4.628c5.268.861,10.79,1.391,10.79,1.391l5.932-3.457,9.841-5.721,4.483-2.606-11.542-5.876a4.32,4.32,0,0,0-3.666-.387l-.618.364Z"/><path class="at" d="M623.648,5239.712l1.092,5.64a6.987,6.987,0,0,0,2.956,4.365l8,4.593c1.592.91,3,.682,3.638-.636l1.41-3,6.821-3.956,7.776-4.548-7.412-4.229a7.168,7.168,0,0,1-2.955-4.366l-1.092-5.639-14.326,8.322Z"/><path class="au" d="M624.649,5240.167l1,5a6.877,6.877,0,0,0,1.546,2.957,3.58,3.58,0,0,0,.91.772.045.045,0,0,0,.046.046l.636.364.91.546.364.181.455.273.954.546,4.912,2.82.455.227,1.319.773.091.045a2.891,2.891,0,0,0,1.319.41,1.044,1.044,0,0,0,1.046-.637l.772-1.728.728-1.546.955-.546,7.185-4.184.092-.045,5.275-3.047-8.141-4.684a7.706,7.706,0,0,1-2.728-3.138c-.046-.045-.091-.136-.137-.182a11.682,11.682,0,0,1-.546-1.637l-.227-1.228-.364-1.956-.227-1.227-9.1,5.275-8.231,4.82Z"/><path class="ap" d="M630.516,5250.308l.954.546,4.912,2.82.455.227,1.319.773,3.228-1.91,8.277-4.775a1.3,1.3,0,0,0,.683-1.137.488.488,0,0,0-.092-.364.774.774,0,0,0-.454-.591.316.316,0,0,0-.137-.182l-.954-.546-3.457-2.046c-.091-.046-.137-.046-.227-.091a2.491,2.491,0,0,0-1.137-.182,3.015,3.015,0,0,0-.91.273l-3.684,2.137-6.73,3.866Z"/><path class="aq" d="M628.787,5249.308l.91.546.364.181.455.273.954.546,4.912,2.82,13.279-7.641c.046-.045.091-.045.137-.136a1.219,1.219,0,0,0,.546-1.046c0-.045,0-.045-.046-.091a1.263,1.263,0,0,0-.637-1.046l-3.911-2.228-.227-.182-.273-.137a2.259,2.259,0,0,0-2.274,0Z"/><path class="ap" d="M625.74,5238.3l.182,1.137,1.273,8.687a3.58,3.58,0,0,0,.91.772.045.045,0,0,0,.046.046l.636.364.91.546.364.181,1.046-.545,8.185-4.23,3.411-1.774,1.183-.636,1.728-.909-.091-.637-.91-5.912-.045-.455-.682-4.548-.41.182-.909.364-.865.409-7.549,3.275Z"/><path class="aq" d="M629.65,5239.488l13.589-7.845a1.325,1.325,0,0,0,0-2.3l-.214-.124a2.264,2.264,0,0,0-2.266,0l-14.624,8.443a.79.79,0,0,0,0,1.368l.787.454A2.723,2.723,0,0,0,629.65,5239.488Z"/><path class="av" d="M640.745,5250.68l8.593,12.513,9.753,13.187,20.311-11.729-.055-.055c.508-.177.762-.806.585-1.7l-1.325-6.759a14.014,14.014,0,0,0-5.136-8.185l-12.48-9.056-5.633,3.28-2.595,1.513-5.181,3.015Z"/><path class="aw" d="M612.111,5233.832l11.543,5.876,1.092,5.617a6.854,6.854,0,0,0,2.967,4.368l8.006,4.622c1.578.911,3,.652,3.62-.657l1.409-2.983,12.474,9.06a14.024,14.024,0,0,1,5.136,8.187l1.331,6.758c.279,1.418-.549,2.163-1.68,1.51l-17.261-9.966-17.094-9.869-7.232-4.176-6.488-3.745c-2.843-1.642-4.941-5.9-4.285-8.693l.878-3.75C607.148,5233.338,609.418,5232.461,612.111,5233.832Z"/><path class="ap" d="M713.422,5318.609l-48.246-27.855a4.707,4.707,0,0,1,0-8.153l15.714-9.073a8.047,8.047,0,0,1,8.046,0l51.923,29.978a2.8,2.8,0,0,1,0,4.854l-17.751,10.249A9.687,9.687,0,0,1,713.422,5318.609Z"/><path class="ap" d="M742.254,5306.058v-7.279l-79.432-19.46v7.359l10.322,5.527,46.881,24.3Z"/><path class="aq" d="M713.422,5311.568l-48.246-27.855a4.708,4.708,0,0,1,0-8.154l15.714-9.072a8.042,8.042,0,0,1,8.046,0l51.923,29.977a2.8,2.8,0,0,1,0,4.855l-17.751,10.249A9.687,9.687,0,0,1,713.422,5311.568Z"/><path class="ax" d="M689.238,5270.512c.2.144.4.276.607.4l6.483,3.744,7.235,4.175,3.677,2.131,13.408,7.743,17.264,9.962a1.337,1.337,0,0,0,1.093.188c.508-.177.762-.806.585-1.7l-1.325-6.76a14.012,14.012,0,0,0-5.136-8.184l-12.481-9.056-1.4,2.982c-.618,1.314-2.043,1.568-3.623.651l-.607-.353-7.4-4.263a6.829,6.829,0,0,1-2.96-4.363l-1.093-5.621-11.542-5.876a4.322,4.322,0,0,0-3.667-.387l-.619.364a3.665,3.665,0,0,0-1.3,2.176l-.872,3.755C684.941,5264.813,686.709,5268.657,689.238,5270.512Z"/><path class="ax" d="M667.656,5267.95l4.86,4.627,18.069,17.208,28.164,20.852,20.311-11.729-.055-.055L723.167,5281.5l-10.746-3.556-5.479-1.822-6.284-10.018-1.58-1.314-10.724-8.869-.619.365Z"/><path class="ay" d="M667.656,5267.95l4.86,4.627c5.268.862,10.79,1.392,10.79,1.392l5.932-3.457,9.84-5.721,4.485-2.606-11.542-5.876a4.322,4.322,0,0,0-3.667-.387l-.619.364Z"/><path class="ax" d="M683.309,5273.955l1.091,5.639a6.993,6.993,0,0,0,2.956,4.365l8,4.594c1.592.909,3,.682,3.639-.637l1.41-3,6.821-3.957,7.777-4.547-7.413-4.23a7.162,7.162,0,0,1-2.956-4.365l-1.091-5.64-14.326,8.323Z"/><path class="az" d="M684.309,5274.409l1,5a6.882,6.882,0,0,0,1.546,2.956,3.588,3.588,0,0,0,.91.773.044.044,0,0,0,.045.046l.637.363.91.546.363.182.455.273.955.545,4.912,2.82.454.228,1.319.773.091.045a2.9,2.9,0,0,0,1.319.41,1.042,1.042,0,0,0,1.046-.637l.773-1.728.728-1.546.955-.546,7.185-4.184.091-.045,5.275-3.047-8.14-4.685a7.7,7.7,0,0,1-2.728-3.138c-.046-.045-.091-.136-.137-.181a11.55,11.55,0,0,1-.546-1.637l-.227-1.228-.364-1.956-.227-1.228-9.1,5.276-8.231,4.82Z"/><path class="ap" d="M690.176,5284.551l.955.545,4.912,2.82.454.228,1.319.773,3.229-1.91,8.277-4.775A1.3,1.3,0,0,0,710,5281.1a.49.49,0,0,0-.091-.364.772.772,0,0,0-.454-.591.316.316,0,0,0-.137-.183l-.955-.545-3.456-2.046c-.092-.046-.137-.046-.228-.091a2.48,2.48,0,0,0-1.136-.182,2.993,2.993,0,0,0-.91.273l-3.684,2.137-6.731,3.865Z"/><path class="ap" d="M690.767,5283.732l-1.409.364.363.182.455.273.955.545,4.912,2.82.454.228,6.231-3.229,4.366-2.274L710,5281.1v-2c0-.045,0-.045-.045-.091l-1.592.409-12.825,3.138-3.32.818Z"/><path class="aq" d="M688.448,5283.55l.91.546.363.182.455.273.955.545,4.912,2.82,13.279-7.64c.045-.045.091-.045.137-.136a1.22,1.22,0,0,0,.545-1.046c0-.045,0-.045-.045-.091a1.261,1.261,0,0,0-.637-1.046l-3.911-2.228-.227-.182-.273-.137a2.259,2.259,0,0,0-2.274,0Z"/><path class="ap" d="M687.811,5283.187l.637.363.91.546.363.182.455.273.955.545,4.411-2.546,9.141-5.275.592-.319c.181-.091.227-.545.136-1.227a35.672,35.672,0,0,0-1-5.913,3.331,3.331,0,0,0-.183-.636c-.227-.91-.5-1.774-.727-2.41a2.893,2.893,0,0,0-.591-1.183l-.682-.409-.637-.364c-.136-.091-.227.228-.227.773-.182,2.183.272,8.368-.319,8.686l-13.279,8.868A.044.044,0,0,0,687.811,5283.187Z"/><path class="ap" d="M685.4,5272.546l.182,1.136,1.273,8.686a3.588,3.588,0,0,0,.91.773.044.044,0,0,0,.045.046l.637.363.91.546.363.182,1.046-.546,8.186-4.229,3.411-1.773,1.183-.637,1.728-.91-.091-.636-.91-5.912-.046-.455-.681-4.548-.41.182-.909.364-.864.409-7.55,3.275Z"/><path class="aq" d="M689.311,5273.731l13.589-7.845a1.327,1.327,0,0,0,0-2.3l-.214-.123a2.266,2.266,0,0,0-2.266,0l-14.624,8.443a.788.788,0,0,0,0,1.367l.787.455A2.73,2.73,0,0,0,689.311,5273.731Z"/><path class="ba" d="M700.4,5284.937,709,5297.45l9.752,13.187,20.311-11.729-.055-.055c.508-.177.762-.806.585-1.7l-1.325-6.76a14.012,14.012,0,0,0-5.136-8.184l-12.481-9.056-5.632,3.28-2.595,1.513-5.181,3.015Z"/><path class="bb" d="M671.769,5268.088l11.543,5.877,1.093,5.617a6.85,6.85,0,0,0,2.966,4.368l8.006,4.622c1.578.911,3,.652,3.62-.657l1.409-2.983,12.475,9.059a14.024,14.024,0,0,1,5.135,8.187l1.331,6.759c.279,1.418-.548,2.163-1.68,1.51l-17.261-9.967-17.094-9.868-7.232-4.176-6.488-3.745c-2.843-1.642-4.941-5.9-4.286-8.693l.879-3.75C666.807,5267.6,669.076,5266.718,671.769,5268.088Z"/><path class="ap" d="M792.252,5351.318l-60.029-18.878c-3.254-1.062-3.254-5.592,0-8.153l21.327-11.45a9.227,9.227,0,0,1,8.344-1.921l48.783,15.538c1.938.633,1.622,2.574.316,5.329l-8.7,17.223C799.19,5351.452,795.36,5352.333,792.252,5351.318Z"/><path class="ap" d="M812.124,5328.672v-7.278l-82.342.173v7.359l15.733,4.437,53.585,14.272Z"/><path class="aq" d="M792.252,5344.278,732.223,5325.4c-3.254-1.063-3.254-5.593,0-8.154l21.327-11.45c2.581-2.032-4.269-5.974-1.688-5.131l58.815,18.748c1.938.633,1.868,3.714.049,5.708l-8.428,16.843C799.19,5344.41,795.36,5345.292,792.252,5344.278Z"/><path class="bc" d="M762.207,5307.828a5.872,5.872,0,0,0,.63.253l6.724,2.2-2.528-.763,3.814,1.254,18.869,5.708,17.9,5.841a1.4,1.4,0,0,0,1.134-.073,1.619,1.619,0,0,0,.607-1.841l-1.374-6.443A10.259,10.259,0,0,0,802.66,5307l-16.182-6.576-1.455,3.317a2.871,2.871,0,0,1-3.758,1.517l-.63-.209-9.4-3.165a5,5,0,0,1-3.07-3.655l.589-4.693-13.694-3.788a4.7,4.7,0,0,0-3.8.489l-.642.512a4.87,4.87,0,0,0-1.351,2.487l-.9,3.963C747.719,5299.944,759.583,5306.577,762.207,5307.828Z"/><path class="ax" d="M734.8,5309.044l5.04,3.468,23.768,14.267,34.172,15.3,11.035-19.79-.057-.042-21.388-14.737-11.146-.99-5.681-.515-6.518-8.517-1.638-.937-11.123-6.309-.642.512Z"/><path class="bd" d="M734.8,5309.044l5.04,3.468c5.464-.4,16.219.19,16.219.19l12.7-19.164-13.694-3.788a4.7,4.7,0,0,0-3.8.489l-.642.512Z"/><path class="bc" d="M756.058,5312.687l1.131,5.378a5.116,5.116,0,0,0,3.067,3.66l8.3,2.683a2.889,2.889,0,0,0,3.774-1.506l1.462-3.338-2.956-8.8,9.788-5.736-9.411-3.127a5.239,5.239,0,0,1-3.065-3.661l.591-4.71-6.55,14.285Z"/><path class="be" d="M757.1,5312.9l1.038,4.764a5.058,5.058,0,0,0,1.6,2.587,2.682,2.682,0,0,0,.943.556c0,.045.047.035.047.035l.661.211.943.329.377.1.472.164.991.318,5.094,1.647.471.119,1.369.458.094.024a2.751,2.751,0,0,0,1.367.094,1.451,1.451,0,0,0,1.085-.886l.8-1.913.755-1.72.99-.773,2.7-6.309,4.722-6.052-2.715-.455-10.167-3.409a5.582,5.582,0,0,1-2.829-2.486c-.048-.035-.1-.115-.142-.15a8.9,8.9,0,0,1-.566-1.507l-.236-1.173-.378-1.869-8.175,16.27Z"/><path class="ap" d="M763.18,5321.643l.991.318,5.094,1.647.471.119,1.369.458,3.348-2.681-1.447-9.962a1.7,1.7,0,0,0,.708-1.3c0-.136,0-.273-.095-.341a.574.574,0,0,0-.471-.483c-.047-.126-.094-.115-.142-.15l-.99-.318-3.585-1.221c-.094-.023-.141-.013-.235-.036a2.6,2.6,0,0,0-1.18.089,4.061,4.061,0,0,0-.943.491l6.211,6.227-6.981,5.472Z"/><path class="ap" d="M763.793,5320.684l-1.462.7.377.1.472.164.991.318,5.094,1.647.471.119,7.873-9.073V5309.8l-3.9.441v-2c0-.046,0-.046-.047-.081l-1.651.789-3.27,9.411-3.443,1.611Z"/><path class="aq" d="M761.388,5321.055l.943.329.377.1.472.164.991.318,5.094,1.647,7.636-12.462c.047-.056.094-.067.141-.169a1.557,1.557,0,0,0,.567-1.176c0-.046,0-.046-.047-.08a.945.945,0,0,0-.661-.894l-4.057-1.295-.235-.128-.283-.071a2.6,2.6,0,0,0-2.359.543Z"/><path class="ap" d="M759.9,5305.11l2.542-4.351a2.262,2.262,0,0,0,.882-.333,20.279,20.279,0,0,0,3.8-2.977,2.2,2.2,0,0,0,.189-.289l-.28,2,2.174-2.616,2.748,10.527-3.146-.609-.457,3.272-1.552,1.126-2.3,1.462-2.07,5.563-.854,1.82-.376-.1.188,1.447-.661-.211s-.047.01-.047-.035a2.682,2.682,0,0,1-.943-.556l-1.617-1.865-2.034-9.055Z"/><path class="aq" d="M760,5310.6l8.616-12.32c.905-1.167.826-1.867.034-2.416l-.192-.133a2.6,2.6,0,0,0-2.407-.155l-9.687,12.39a1.6,1.6,0,0,0,.033,1.957l.706.49A3.131,3.131,0,0,0,760,5310.6Z"/><path class="ap" d="M762.686,5320.924,771.3,5308.6c.9-1.167.827-1.867.034-2.416l-.192-.133a2.6,2.6,0,0,0-2.406-.156l-9.688,12.391a1.6,1.6,0,0,0,.033,1.957l.706.489A3.127,3.127,0,0,0,762.686,5320.924Z"/><path class="bf" d="M773.788,5319.587l13.874,11.629,10.114,10.859,11.035-19.789-.057-.042a1.619,1.619,0,0,0,.607-1.841l-1.374-6.443A10.259,10.259,0,0,0,802.66,5307l-16.182-6.576Z"/><path class="bg" d="M739.062,5308.2l17,4.495,1.133,5.356a5.014,5.014,0,0,0,3.077,3.659l8.3,2.711a2.88,2.88,0,0,0,3.755-1.521l1.461-3.319,17.9,7.248a10.265,10.265,0,0,1,5.326,6.961l1.381,6.44c.29,1.352-.569,2.295-1.742,1.912l-22.865-7.012-17.729-5.788-7.5-2.449-11.756-3.571a7.107,7.107,0,0,1-4.445-7.67l.911-3.959A4.465,4.465,0,0,1,739.062,5308.2Z"/><path class="b" d="M361.928,5138.691l2.4-1.4V4943.144l-2.4,1.4Z"/><path class="d" d="M361.928,4944.541l-2.309-1.341,2.4-1.4,2.309,1.341Z"/><path class="b" d="M410.43,5166.669l2.4-1.4V4954.3l-2.4,1.4Z"/><path class="d" d="M410.43,4955.694l-2.309-1.342,2.4-1.4,2.31,1.342Z"/><path class="b" d="M313.427,5110.676l2.4-1.4v-146.33l-2.4,1.4Z"/><path class="c" d="M313.427,5110.676l-2.31-1.342V4968.483l2.31-4.137Z"/><path class="d" d="M313.427,4964.346l-2.31,4.137,2.4-1.4,2.31-4.137Z"/><path class="b" d="M315.736,5112.017l2.4-1.4,46.192-68.293-2.4,1.4Z"/><path class="b" d="M315.736,5021.917l2.4-1.4,46.192-68.293-2.4,1.4Z"/><path class="b" d="M361.928,5043.724l1.88-1.087L315.317,4964.8l-1.88,1.088Z"/><path class="b" d="M361.928,5135.914l1.88-1.087-46.24-114-1.88,1.088Z"/><path class="c" d="M361.928,5135.914l-2.309,1.436-46.24-114,2.31-1.435Z"/><path class="c" d="M315.736,5112.017l-2.309-1.341,46.192-68.293,2.309,1.342Z"/><path class="c" d="M315.736,5021.917l-2.357,1.435.047-2.777,46.192-68.293,2.309,1.343Z"/><path class="c" d="M361.928,5043.724l-2.309,1.436-46.24-74.221.057-5.051Z"/><path class="b" d="M364.238,5140.033l2.4-1.4,46.192-68.293-2.4,1.4Z"/><path class="b" d="M410.43,5163.93l1.88-1.088-46.239-114-1.88,1.087Z"/><path class="c" d="M410.43,5163.93l-2.309,1.436-47.162-116.271,3.232.838Z"/><path class="c" d="M364.238,5140.033l-2.309-1.342L408.12,5070.4l2.309,1.342Z"/><path class="b" d="M364.238,5049.933l1.969-.753,46.628-68.937-2.4,1.4Z"/><path class="b" d="M410.43,5073.83l1.88-1.088-48.6-119.828-1.88,1.087Z"/><path class="c" d="M410.43,5073.83l-2.309,1.436-46.239-114-.056-7.267Z"/><path class="c" d="M364.238,5049.933l-4.28,1.571L408.12,4980.3l2.309,1.342Z"/><path class="b" d="M412.74,5168.011l2.4-1.4,46.192-68.293-2.4,1.4Z"/><path class="b" d="M458.932,5191.908l1.88-1.088-46.239-114-1.88,1.088Z"/><path class="c" d="M458.932,5191.908l-2.31,1.436-47.161-116.271,3.231.837Z"/><path class="c" d="M412.74,5168.011l-2.31-1.342,46.192-68.293,2.31,1.342Z"/><path class="b" d="M412.74,5077.91l1.969-.753,46.627-68.936-2.4,1.4Z"/><path class="b" d="M458.932,5101.807l1.88-1.087-48.6-119.829-1.88,1.088Z"/><path class="c" d="M458.932,5101.807l-2.31,1.436-46.239-114-.056-7.266Z"/><path class="c" d="M412.74,5077.91l-4.28,1.571,48.162-71.206,2.31,1.342Z"/><path class="b" d="M458.932,5194.685l2.4-1.4V4994.23l-2.4,1.4Z"/><path class="c" d="M458.932,5194.685l-2.31-1.342V4994.286l2.31,1.341Z"/><path class="c" d="M361.928,5138.691l-2.309-1.342V4945.615l2.309-.028Z"/><path class="c" d="M410.43,5166.669l-2.309-1.342V4954.352l2.309,1.342Z"/><path class="b" d="M461.242,5196.027l2.4-1.4,46.192-68.292-2.4,1.4Z"/><path class="b" d="M507.434,5219.923l1.88-1.088-46.239-114-1.88,1.088Z"/><path class="c" d="M507.434,5219.923l-2.31,1.436-47.162-116.271,3.232.838Z"/><path class="c" d="M461.242,5196.027l-2.31-1.342,46.192-68.293,2.31,1.342Z"/><path class="b" d="M461.242,5105.926l1.969-.753,37.377-55.2-1.586.188Z"/><path class="b" d="M507.434,5129.823l1.88-1.088-48.6-119.828-1.88,1.088Z"/><path class="c" d="M507.434,5129.823l-2.31,1.436-46.24-114-.055-7.267Z"/><path class="c" d="M461.242,5105.926l-4.28,1.571,39.73-58.673,2.31,1.342Z"/><path class="b" d="M507.434,5222.7l2.4-1.4V5067.76l-2.4,1.4Z"/><path class="c" d="M507.434,5222.7l-2.31-1.342V5065.483l2.31,3.673Z"/><path class="d" d="M507.434,5069.156l-2.31-3.673,2.4.934,2.309,1.342Z"/><path class="d" d="M642.807,5280.638l1.565-2.707-31.625-18.26c-19.785-11.421-38.611-40.6-53.016-82.154-38.748-111.786-89.716-190.455-143.5-221.519-54.345-31.379-102.448-10.925-141.581,56.77-14.02,24.266-35.7,31.095-54.944,19.979l-56.269-32.482-1.566,2.708,56.269,32.482c20.682,11.943,45.643,4.932,60.451-20.7,38.124-65.957,83.482-86.411,136.074-56.046,53.144,30.685,103.614,108.758,142.117,219.835,14.651,42.268,33.973,72.043,54.4,83.838Z"/><path class="e" d="M781.851,5203.287l1.565-2.708L639.06,5117.234c-49.8-32.113-84.572-67.947-84.572-138.326,0-21.735,11.052-38.433,28.288-48.382,20.533-11.855,49.106-10.927,71.117,1.784,38.926,22.473,65.679,72.178,65.679,117.095h3.121c0-46.7-26.767-96.438-67.235-119.8-22.95-13.243-52.789-14.18-74.243-1.783-18.245,10.53-29.848,28.187-29.848,51.089,0,71.792,35.343,108.286,86.064,140.994Z"/><path class="c" d="M642.807,5283.054l1.565-2.707-31.625-18.26c-19.785-11.422-40.726-40.6-55.131-82.155-38.748-111.786-87.6-190.09-141.389-221.154-54.345-31.379-104.143-11.049-143.276,56.647-14.021,24.265-35.477,29.6-51.573,20.406l-57.945-33.15-1.566,2.708,57.946,33.15c16.311,8.685,41.038,4.086,55.846-21.548,38.123-65.958,86.41-85.87,139-55.506,53.144,30.685,101.5,108.394,140,219.472,14.651,42.268,36.089,72.042,56.519,83.838Z"/><path class="c" d="M164.4,5003.237l-75.363-43.019L105,4972.241l57.571,33.548Z"/><path class="bh" d="M781.851,5200.871l1.565-2.707L639.06,5114.818c-49.8-32.113-83.011-67.947-83.011-138.326,0-21.735,9.491-39.186,26.727-49.135,20.533-11.855,49.106-11.289,71.117,1.422,38.926,22.473,68.281,73.294,68.281,118.21H725.3c0-46.7-29.37-97.553-69.838-120.918-22.95-13.242-52.789-13.819-74.243-1.422-18.245,10.53-28.287,28.942-28.287,51.843,0,71.792,33.782,108.286,84.5,140.995Z"/><path class="bi" d="M653.893,4928.779c-22.011-12.711-50.584-13.277-71.117-1.422a51.968,51.968,0,0,0-16.669,15.189c-1.017-.344-2.031-.7-3.045-1.049a54.979,54.979,0,0,1,18.153-16.848c21.454-12.4,51.292-11.82,74.243,1.422,40.468,23.365,69.838,74.219,69.838,120.918h-3.122C722.174,5002.073,692.819,4951.252,653.893,4928.779Z"/><path class="bj" d="M563.361,4946.858a59.768,59.768,0,0,0-7.312,29.634c0,70.38,33.21,106.213,83.011,138.327l144.356,83.345-1.565,2.708L637.43,5117.487c-50.721-32.709-84.5-69.2-84.5-140.995,0-11.515,2.549-21.889,7.394-30.7C561.333,4946.148,562.345,4946.508,563.361,4946.858Z"/><path class="d" d="M877.839,5256.45l-2.37-1.507-1.172-.76-.589-.385-.812-.469-6.5-3.75-12.994-7.5-25.987-15-51.975-30.008,2.983-1.722L830.4,5225.35l25.987,15,12.994,7.5,6.5,3.751.813.469.622.4,1.239.8,2.5,1.591Z"/><path class="e" d="M781.851,5203.287l1.565-2.708L639.06,5117.234c-49.8-32.113-84.572-67.947-84.572-138.326,0-21.735,11.052-38.433,28.288-48.382,20.533-11.855,49.106-10.927,71.117,1.784,38.926,22.473,65.679,72.178,65.679,117.095h3.121c0-46.7-26.767-96.438-67.235-119.8-22.95-13.243-52.256-14.861-73.71-2.465-18.244,10.53-30.381,28.869-30.381,51.771,0,71.792,35.343,108.286,86.064,140.994Z"/><path class="e" d="M244.812,4858.487l62.4,36.024,3.062-1.768-62.4-36.023Z"/><path class="e" d="M185.368,4844.987a76.649,76.649,0,0,1,31.408-.116,51.887,51.887,0,0,1,6.684,1.973c.515.2,1.061.379,1.544.606l.75.321c.251.107.511.207.74.329.474.234.956.463,1.435.693q.675.378,1.364.744l15.519,8.95,3.062-1.767-15.535-8.96q-.747-.4-1.48-.808l-1.56-.753c-.251-.132-.533-.242-.8-.358l-.815-.35c-.528-.245-1.12-.441-1.681-.66a56.963,56.963,0,0,0-7.278-2.148c-10.251-2.323-22.658-2.271-34.164.125Z"/><path class="e" d="M877.839,5258.865l-2.37-1.506-1.172-.761-.589-.385-.812-.469-6.5-3.751-12.994-7.5-25.987-15-51.975-30.007,2.983-1.723,51.975,30.008,25.987,15,12.994,7.5,6.5,3.75.813.469.622.4,7.177,6.823Z"/></g></svg>