<svg xmlns="http://www.w3.org/2000/svg" xmlns:xlink="http://www.w3.org/1999/xlink" width="76.768" height="111.386" viewBox="0 0 76.768 111.386"><defs><style>.a{fill:none;}.b{fill:#5eb366;}.c{fill:#386338;}.d{isolation:isolate;}.e{clip-path:url(#a);}.f{fill:#fff;}</style><clipPath id="a"><path class="a" d="M946.052,4834.289l-.087-30.793,51.065-29.482.087,30.793Z"/></clipPath></defs><g transform="translate(-925.551 -4746.236)"><path class="b" d="M962.572,4845.965l-13.837-8.041,6.553,11.119,13.837,8.041Z"/><path class="b" d="M933.29,4774.58l47.249-27.279c2.157-1.246,4.111-1.361,5.522-.541L999.9,4754.8c-1.411-.82-3.365-.7-5.522.541l-47.249,27.279a17.059,17.059,0,0,0-7.739,13.413l.154,54.292c.007,2.446.871,4.169,2.265,4.98l-13.837-8.041c-1.394-.811-2.258-2.534-2.265-4.98l-.154-54.293A17.058,17.058,0,0,1,933.29,4774.58Z"/><path class="c" d="M947.127,4782.621a17.059,17.059,0,0,0-7.739,13.413l.154,54.292c.014,4.922,3.5,6.916,7.789,4.439l15.241-8.8,6.553,11.119c.39.661,1.134.675,1.877.246a4.536,4.536,0,0,0,1.869-2.409l6.461-18.633,15.248-8.8a17.059,17.059,0,0,0,7.739-13.4l-.154-54.293c-.014-4.931-3.5-6.925-7.789-4.447Z"/><g class="d"><g class="e"><path class="f" d="M953.178,4805.556c.3-1.32.523-2.416.686-3.3q.307,1.263.777,2.647l-.084-.143-1.379.8m.608-6.576-.019.011a3.882,3.882,0,0,0-1.205,1.137,4.656,4.656,0,0,0-.725,1.543l-2.277,9.009a1.2,1.2,0,0,0,.164,1.191c.256.271.608.274,1.061.012l.121-.07a2.518,2.518,0,0,0,.772-.74,2.774,2.774,0,0,0,.458-1.006l.379-1.674,2.752-1.588.425,1.231a.658.658,0,0,0,.455.464,1.04,1.04,0,0,0,.774-.16l.032-.018a2.654,2.654,0,0,0,1.064-1.247,1.767,1.767,0,0,0,.143-1.375l-2.441-6.3a1,1,0,0,0-.744-.681,1.636,1.636,0,0,0-1.189.26"/><path class="f" d="M962.729,4802.765a1.677,1.677,0,0,1-.177.09.689.689,0,0,1-.889-.045,1.625,1.625,0,0,1-.393-1.228v-.1a3.5,3.5,0,0,1,.176-1.116,2.4,2.4,0,0,1,.458-.874,2.8,2.8,0,0,1,.675-.574,1.546,1.546,0,0,1,.544-.2c.352-.049.576.035.666.255l.006,1.966a1.991,1.991,0,0,1-.61,1.469,2.345,2.345,0,0,1-.455.348m-.392-5.936a6.8,6.8,0,0,0-2.487,2.692,7.118,7.118,0,0,0-1.006,3.521,2.579,2.579,0,0,0,1.036,2.37,2.316,2.316,0,0,0,2.481-.205,4.937,4.937,0,0,0,1.429-1.185,1.987,1.987,0,0,1-1.133,1.867c-.99.571-1.552.9-1.686.965l-.021.012a1.961,1.961,0,0,0-.928,1.271l-.006.019a.947.947,0,0,0,.117.9c.193.212.461.211.812.008.594-.335,1.1-.63,1.533-.877.064-.037.127-.074.185-.114s.121-.063.191-.1a7.19,7.19,0,0,0,2.411-2.274,5.922,5.922,0,0,0,1.066-3.231l.006,0-.019-6.61a.692.692,0,0,0-.321-.667.742.742,0,0,0-.78.076l-.894.516a1.052,1.052,0,0,0-.389.4.95.95,0,0,0-.152.484v-.308a2.669,2.669,0,0,0-1.444.474"/><path class="f" d="M971,4798.022a1.683,1.683,0,0,1-.22.107.7.7,0,0,1-.889-.037,1.631,1.631,0,0,1-.394-1.228v-.1a3.47,3.47,0,0,1,.176-1.115,2.34,2.34,0,0,1,.458-.875,2.729,2.729,0,0,1,.672-.577,1.483,1.483,0,0,1,.547-.193c.352-.048.576.043.666.263l.005,1.966a2.037,2.037,0,0,1-.616,1.48,2.277,2.277,0,0,1-.405.305m-.436-5.9a6.743,6.743,0,0,0-2.473,2.655,7.214,7.214,0,0,0-1.02,3.55,2.571,2.571,0,0,0,1.036,2.364,2.316,2.316,0,0,0,2.481-.206,5.1,5.1,0,0,0,1.237-1.294.692.692,0,0,1,.207-.2l.055-.027a.25.25,0,0,1,.249.01.649.649,0,0,0,.7.1l.913-.528a1.216,1.216,0,0,0,.447-.463,1.112,1.112,0,0,0,.171-.562l-.018-6.36a.619.619,0,0,0-.3-.6.671.671,0,0,0-.7.079l-.568.328a1.924,1.924,0,0,0-.7.725,1.845,1.845,0,0,0-.279.924l0-.924q-.153-.318-1.444.43"/><path class="f" d="M979.741,4786.714a5.426,5.426,0,0,0-1.722,1.5,2.994,2.994,0,0,0-.35.57c-.244-.279-.6-.285-1.068-.016l-.032.018a2.455,2.455,0,0,0-.893.942,2.33,2.33,0,0,0-.348,1.171l.015,5.437a.79.79,0,0,0,.348.754.852.852,0,0,0,.9-.083l.019-.011a2.466,2.466,0,0,0,.892-.949,2.267,2.267,0,0,0,.342-1.153l-.353-3.021.351-.2-.346.023c.237-.195.358-.317.37-.375a2.74,2.74,0,0,1,.534-1.095,2.893,2.893,0,0,1,.853-.856,1.421,1.421,0,0,1,.187-.09.787.787,0,0,0,.13-.061,1.483,1.483,0,0,0,.6-1.181l.157-.906a.472.472,0,0,0-.11-.444c-.115-.1-.269-.087-.467.027"/><path class="f" d="M985.136,4783.6a5.437,5.437,0,0,0-1.722,1.5,2.728,2.728,0,0,0-.344.566c-.25-.275-.6-.285-1.068-.016l-.038.022a2.469,2.469,0,0,0-.893.942,2.329,2.329,0,0,0-.348,1.172l.015,5.436a.79.79,0,0,0,.348.754.85.85,0,0,0,.9-.083l.019-.011a2.464,2.464,0,0,0,.892-.949,2.251,2.251,0,0,0,.349-1.156l-.36-3.018.357-.207-.351.027c.236-.2.363-.32.369-.375a2.78,2.78,0,0,1,.541-1.1,2.84,2.84,0,0,1,.846-.851,1.416,1.416,0,0,1,.187-.09,1.02,1.02,0,0,0,.132-.063,1.464,1.464,0,0,0,.594-1.18l.157-.906a.456.456,0,0,0-.11-.444c-.109-.1-.269-.087-.467.027"/><path class="f" d="M990.025,4787.035a1.743,1.743,0,0,1-.223.11.7.7,0,0,1-.889-.038,1.664,1.664,0,0,1-.387-1.232v-.1a3.5,3.5,0,0,1,.176-1.116,2.368,2.368,0,0,1,.452-.87,2.782,2.782,0,0,1,.677-.58,1.406,1.406,0,0,1,.542-.19c.358-.053.582.038.672.258l.006,1.966a2.077,2.077,0,0,1-.616,1.48,2.284,2.284,0,0,1-.409.307m-.432-5.906a6.767,6.767,0,0,0-2.48,2.659,7.181,7.181,0,0,0-1.013,3.547,2.573,2.573,0,0,0,1.03,2.367,2.328,2.328,0,0,0,2.487-.209,5.186,5.186,0,0,0,1.237-1.295.635.635,0,0,1,.2-.2.436.436,0,0,1,.053-.026.235.235,0,0,1,.249.01.666.666,0,0,0,.7.094l.913-.527a1.208,1.208,0,0,0,.446-.463,1.108,1.108,0,0,0,.172-.562l-.019-6.361a.619.619,0,0,0-.295-.6.68.68,0,0,0-.7.079l-.568.328a1.921,1.921,0,0,0-.7.725,1.809,1.809,0,0,0-.278.925l0-.924c-.1-.213-.588-.065-1.444.429"/><path class="f" d="M952.763,4819.207l-5.823,3.361a1.968,1.968,0,0,0-.759.857,1.459,1.459,0,0,0-.157.973l.007.011a.5.5,0,0,0,.321.373.761.761,0,0,0,.594-.116l1.571-.906.021,7.564a.843.843,0,0,0,.386.813.935.935,0,0,0,.946-.1l.019-.011a2.691,2.691,0,0,0,.957-1,2.524,2.524,0,0,0,.367-1.248l-.021-7.564,1.57-.907a1.806,1.806,0,0,0,.594-.57,2.071,2.071,0,0,0,.323-.775v-.015a.721.721,0,0,0-.162-.758c-.186-.172-.441-.164-.754.017"/><path class="f" d="M960.847,4817.287l-.025.015a2.413,2.413,0,0,0-.88.912,2.341,2.341,0,0,0-.355,1.182l.009,3.353c-.012.1-.018.165-.031.224a2.816,2.816,0,0,1-.655,1.267,2.672,2.672,0,0,1-.731.687,1.05,1.05,0,0,1-.494.153c-.378,0-.571-.413-.573-1.249l-.009-3a.823.823,0,0,0-.36-.769.864.864,0,0,0-.882.1l-.019.011a2.414,2.414,0,0,0-.874.909,2.339,2.339,0,0,0-.355,1.182l.008,2.832a3.325,3.325,0,0,0,.852,2.624,1.589,1.589,0,0,0,1.984-.02,5.526,5.526,0,0,0,.72-.5,13.293,13.293,0,0,0,1.4-1.6c0,.051.083.12.25.215a.612.612,0,0,0,.62-.071l.8-.461a1.683,1.683,0,0,0,.612-.633,1.65,1.65,0,0,0,.253-.829l-.016-5.87a.806.806,0,0,0-.361-.769.864.864,0,0,0-.882.1"/><path class="f" d="M969.339,4814.7l-.009-3,.926-.535a.76.76,0,0,1,.825-.057.97.97,0,0,1,.367.875,2.612,2.612,0,0,1-.361,1.282,2.3,2.3,0,0,1-.822.9l-.926.534m1.326-5.887-2.624,1.515a2.563,2.563,0,0,0-.931.978,2.376,2.376,0,0,0-.361,1.208l.024,8.356a.8.8,0,0,0,.367.78.862.862,0,0,0,.914-.087l.025-.014a2.481,2.481,0,0,0,.906-.949,2.422,2.422,0,0,0,.361-1.215l-.007-2.414,1.6-.936a5.8,5.8,0,0,0,2.39-2.879,6.609,6.609,0,0,0,.6-2.537,2.231,2.231,0,0,0-.792-1.93,1.872,1.872,0,0,0-1.95-.116l-.071.011a4.652,4.652,0,0,0-.447.229"/><path class="f" d="M978.707,4813.166a1.59,1.59,0,0,1-.2.1.7.7,0,0,1-.89-.038,1.64,1.64,0,0,1-.393-1.235v-.1a3.614,3.614,0,0,1,.176-1.109,2.335,2.335,0,0,1,.457-.874,2.768,2.768,0,0,1,.682-.583,1.475,1.475,0,0,1,.538-.194c.358-.046.575.042.666.262l.005,1.966a2.014,2.014,0,0,1-.61,1.476,2.382,2.382,0,0,1-.43.325m-.417-5.92a6.8,6.8,0,0,0-2.474,2.655,7.272,7.272,0,0,0-1.019,3.558,2.576,2.576,0,0,0,1.036,2.363,2.316,2.316,0,0,0,2.481-.2,5.342,5.342,0,0,0,1.243-1.3.624.624,0,0,1,.2-.194l.054-.028a.253.253,0,0,1,.25,0,.647.647,0,0,0,.7.1l.913-.527a1.261,1.261,0,0,0,.44-.459,1.136,1.136,0,0,0,.171-.562l-.018-6.361a.658.658,0,0,0-.29-.612.7.7,0,0,0-.7.09l-.568.328a2.106,2.106,0,0,0-.974,1.65l0-.924c-.1-.213-.582-.076-1.444.422"/><path class="f" d="M986,4802.646a6.3,6.3,0,0,0-2.143,2.016,4.429,4.429,0,0,0-.8,2.424q-.023,1.722,2.07,1.318a1.768,1.768,0,0,1,.735-.042c.1.036.154.139.155.3,0,.323-.242.624-.733.908a3.453,3.453,0,0,1-1.023.385,1.114,1.114,0,0,0-.292.119,1.714,1.714,0,0,0-.454.4,2.153,2.153,0,0,0-.452.929v.015a.864.864,0,0,0,.1.686.476.476,0,0,0,.538.167,6.043,6.043,0,0,0,1.59-.661,6.855,6.855,0,0,0,2.329-2.116,4.3,4.3,0,0,0,.779-2.4c-.016-1.2-.663-1.681-1.948-1.447a2.467,2.467,0,0,1-.825.058.231.231,0,0,1-.179-.257c0-.308.215-.594.637-.838a2.665,2.665,0,0,1,.715-.281,1.115,1.115,0,0,0,.258-.11,1.635,1.635,0,0,0,.457-.412,1.906,1.906,0,0,0,.413-.856l.007-.011a.925.925,0,0,0-.092-.712.506.506,0,0,0-.57-.134,5.417,5.417,0,0,0-1.271.55"/><path class="f" d="M991.6,4802.788a3.62,3.62,0,0,1,.559-1.014,3.208,3.208,0,0,1,.957-.883,1.426,1.426,0,0,1,.965-.226.719.719,0,0,1,.558.369l-3.039,1.754m1.721-4.219c-.077.044-.141.088-.211.128s-.134.071-.2.111a7.5,7.5,0,0,0-2.678,2.788,7.025,7.025,0,0,0-1.084,3.58,2.415,2.415,0,0,0,1.1,2.319,2.7,2.7,0,0,0,2.685-.316c.071-.04.141-.088.205-.125s.134-.07.21-.114c.709-.41,1.4-.819,2.088-1.213a2.016,2.016,0,0,0,.612-.611,1.94,1.94,0,0,0,.324-.767l.007-.019a.8.8,0,0,0-.182-.814.6.6,0,0,0-.751.008l-.022.013-2.293,1.323a1.436,1.436,0,0,1-.984.223.736.736,0,0,1-.564-.394l4.68-2.7a1.692,1.692,0,0,0,.606-.622,1.508,1.508,0,0,0,.241-.778v-.008a2.378,2.378,0,0,0-1.107-2.315,2.652,2.652,0,0,0-2.678.3"/></g></g></g></svg>