<svg xmlns="http://www.w3.org/2000/svg" width="590.376" height="21.659" viewBox="0 0 590.376 21.659"><defs><style>.a{fill:#309b84;}.b,.c,.e{fill:none;}.b{stroke:#fff;}.b,.c{stroke-width:3px;}.c{stroke:#309b84;}.d{stroke:none;}</style></defs><g transform="translate(-8223.596 11672.545) rotate(180)"><ellipse class="a" cx="11.3" cy="10.83" rx="11.3" ry="10.83" transform="translate(-8246.197 11650.886)"/><ellipse class="a" cx="10.359" cy="10.83" rx="10.359" ry="10.83" transform="translate(-8327.184 11650.886)"/><g class="b" transform="translate(-8570.013 11650.886)"><circle class="d" cx="10.83" cy="10.83" r="10.83"/><circle class="e" cx="10.83" cy="10.83" r="9.33"/></g><g class="b" transform="translate(-8407.632 11650.886)"><ellipse class="d" cx="10.359" cy="10.83" rx="10.359" ry="10.83"/><ellipse class="e" cx="10.359" cy="10.83" rx="8.859" ry="9.33"/></g><g class="b" transform="translate(-8650.733 11650.886)"><circle class="d" cx="10.83" cy="10.83" r="10.83"/><circle class="e" cx="10.83" cy="10.83" r="9.33"/></g><g class="b" transform="translate(-8488.353 11650.886)"><ellipse class="d" cx="10.359" cy="10.83" rx="10.359" ry="10.83"/><ellipse class="e" cx="10.359" cy="10.83" rx="8.859" ry="9.33"/></g><g class="b" transform="translate(-8732.249 11650.886)"><circle class="d" cx="10.83" cy="10.83" r="10.83"/><circle class="e" cx="10.83" cy="10.83" r="9.33"/></g><g class="b" transform="translate(-8813.973 11650.886)"><circle class="d" cx="10.83" cy="10.83" r="10.83"/><circle class="e" cx="10.83" cy="10.83" r="9.33"/></g><line class="c" x1="52.612" transform="translate(-8302.029 11661.728)"/><line class="b" x1="52.612" transform="translate(-8544.97 11661.728)"/><line class="b" x1="52.612" transform="translate(-8382.951 11661.728)"/><line class="b" x1="52.612" transform="translate(-8625.98 11661.728)"/><line class="b" x1="52.612" transform="translate(-8787.952 11661.728)"/><line class="b" x1="52.612" transform="translate(-8463.96 11661.728)"/><line class="b" x1="52.612" transform="translate(-8706.992 11661.728)"/></g></svg>