<svg xmlns="http://www.w3.org/2000/svg" width="592.376" height="21.659" viewBox="0 0 592.376 21.659"><defs><style>.a{fill:#309b84;}.b,.c,.e{fill:none;}.b{stroke:#fff;}.b,.c{stroke-width:3px;}.c{stroke:#309b84;}.d{stroke:none;}</style></defs><g transform="translate(-8221.596 11672.545) rotate(180)"><ellipse class="a" cx="11.3" cy="10.83" rx="11.3" ry="10.83" transform="translate(-8244.197 11650.886)"/><ellipse class="a" cx="10.359" cy="10.83" rx="10.359" ry="10.83" transform="translate(-8325.184 11650.886)"/><g class="b" transform="translate(-8569.155 11650.886)"><circle class="d" cx="10.83" cy="10.83" r="10.83"/><circle class="e" cx="10.83" cy="10.83" r="9.33"/></g><ellipse class="a" cx="10.359" cy="10.83" rx="10.359" ry="10.83" transform="translate(-8406.206 11650.886)"/><g class="b" transform="translate(-8650.159 11650.886)"><circle class="d" cx="10.83" cy="10.83" r="10.83"/><circle class="e" cx="10.83" cy="10.83" r="9.33"/></g><ellipse class="a" cx="10.359" cy="10.83" rx="10.359" ry="10.83" transform="translate(-8487.21 11650.886)"/><g class="b" transform="translate(-8732.249 11650.886)"><circle class="d" cx="10.83" cy="10.83" r="10.83"/><circle class="e" cx="10.83" cy="10.83" r="9.33"/></g><g class="b" transform="translate(-8813.973 11650.886)"><circle class="d" cx="10.83" cy="10.83" r="10.83"/><circle class="e" cx="10.83" cy="10.83" r="9.33"/></g><line class="c" x1="52.612" transform="translate(-8300.029 11661.728)"/><line class="b" x1="52.612" transform="translate(-8543.97 11661.728)"/><line class="c" x1="52.612" transform="translate(-8381.348 11661.728)"/><line class="b" x1="52.612" transform="translate(-8625.281 11661.728)"/><line class="b" x1="52.612" transform="translate(-8787.952 11661.728)"/><line class="c" x1="52.612" transform="translate(-8462.659 11661.728)"/><line class="b" x1="52.612" transform="translate(-8706.594 11661.728)"/></g></svg>