<svg xmlns="http://www.w3.org/2000/svg" width="755.376" height="21.659" viewBox="0 0 755.376 21.659"><defs><style>.a{fill:#309b84;}.b,.c,.e{fill:none;}.b{stroke:#fff;}.b,.c{stroke-width:3px;}.c{stroke:#309b84;}.d{stroke:none;}</style></defs><g transform="translate(-183.501 -3773.5)"><ellipse class="a" cx="11.3" cy="10.83" rx="11.3" ry="10.83" transform="translate(370.102 3795.159) rotate(180)"/><ellipse class="a" cx="11.3" cy="10.83" rx="11.3" ry="10.83" transform="translate(206.102 3795.159) rotate(180)"/><ellipse class="a" cx="11.3" cy="10.83" rx="11.3" ry="10.83" transform="translate(288.102 3795.159) rotate(180)"/><ellipse class="a" cx="10.359" cy="10.83" rx="10.359" ry="10.83" transform="translate(451.088 3795.159) rotate(180)"/><g class="b" transform="translate(694.489 3795.159) rotate(180)"><circle class="d" cx="10.83" cy="10.83" r="10.83"/><circle class="e" cx="10.83" cy="10.83" r="9.33"/></g><g class="b" transform="translate(531.824 3795.159) rotate(180)"><ellipse class="d" cx="10.359" cy="10.83" rx="10.359" ry="10.83"/><ellipse class="e" cx="10.359" cy="10.83" rx="8.859" ry="9.33"/></g><g class="b" transform="translate(775.351 3795.159) rotate(180)"><circle class="d" cx="10.83" cy="10.83" r="10.83"/><circle class="e" cx="10.83" cy="10.83" r="9.33"/></g><g class="b" transform="translate(612.686 3795.159) rotate(180)"><ellipse class="d" cx="10.359" cy="10.83" rx="10.359" ry="10.83"/><ellipse class="e" cx="10.359" cy="10.83" rx="8.859" ry="9.33"/></g><g class="b" transform="translate(857.154 3795.159) rotate(180)"><circle class="d" cx="10.83" cy="10.83" r="10.83"/><circle class="e" cx="10.83" cy="10.83" r="9.33"/></g><g class="b" transform="translate(938.877 3795.159) rotate(180)"><circle class="d" cx="10.83" cy="10.83" r="10.83"/><circle class="e" cx="10.83" cy="10.83" r="9.33"/></g><line class="c" x1="52.612" transform="translate(425.934 3784.317) rotate(180)"/><line class="c" x1="52.612" transform="translate(261.934 3784.317) rotate(180)"/><line class="c" x1="52.612" transform="translate(343.934 3784.317) rotate(180)"/><line class="b" x1="52.612" transform="translate(669.375 3784.317) rotate(180)"/><line class="b" x1="52.612" transform="translate(507.054 3784.317) rotate(180)"/><line class="b" x1="52.612" transform="translate(750.536 3784.317) rotate(180)"/><line class="b" x1="52.612" transform="translate(912.857 3784.317) rotate(180)"/><line class="b" x1="52.612" transform="translate(588.214 3784.317) rotate(180)"/><line class="b" x1="52.612" transform="translate(831.698 3784.317) rotate(180)"/></g></svg>