<svg xmlns="http://www.w3.org/2000/svg" width="756.376" height="21.659" viewBox="0 0 756.376 21.659"><defs><style>.a{fill:#309b84;}.b,.c,.e{fill:none;}.b{stroke:#fff;}.b,.c{stroke-width:3px;}.c{stroke:#309b84;}.d{stroke:none;}</style></defs><g transform="translate(-183.501 -3773.5)"><ellipse class="a" cx="11.3" cy="10.83" rx="11.3" ry="10.83" transform="translate(370.326 3795.159) rotate(180)"/><ellipse class="a" cx="11.3" cy="10.83" rx="11.3" ry="10.83" transform="translate(206.102 3795.159) rotate(180)"/><ellipse class="a" cx="11.3" cy="10.83" rx="11.3" ry="10.83" transform="translate(288.102 3795.159) rotate(180)"/><ellipse class="a" cx="10.359" cy="10.83" rx="10.359" ry="10.83" transform="translate(451.424 3795.159) rotate(180)"/><circle class="a" cx="10.83" cy="10.83" r="10.83" transform="translate(695.156 3795.159) rotate(180)"/><ellipse class="a" cx="10.359" cy="10.83" rx="10.359" ry="10.83" transform="translate(532.27 3795.159) rotate(180)"/><circle class="a" cx="10.83" cy="10.83" r="10.83" transform="translate(776.128 3795.159) rotate(180)"/><ellipse class="a" cx="10.359" cy="10.83" rx="10.359" ry="10.83" transform="translate(613.242 3795.159) rotate(180)"/><g class="b" transform="translate(858.154 3795.159) rotate(180)"><circle class="d" cx="10.83" cy="10.83" r="10.83"/><circle class="e" cx="10.83" cy="10.83" r="9.33"/></g><g class="b" transform="translate(939.877 3795.159) rotate(180)"><circle class="d" cx="10.83" cy="10.83" r="10.83"/><circle class="e" cx="10.83" cy="10.83" r="9.33"/></g><line class="c" x1="52.612" transform="translate(426.204 3784.317) rotate(180)"/><line class="c" x1="52.612" transform="translate(261.934 3784.317) rotate(180)"/><line class="c" x1="52.612" transform="translate(343.934 3784.317) rotate(180)"/><line class="c" x1="52.612" transform="translate(669.991 3784.317) rotate(180)"/><line class="c" x1="52.612" transform="translate(507.44 3784.317) rotate(180)"/><line class="c" x1="52.612" transform="translate(751.268 3784.317) rotate(180)"/><line class="b" x1="52.612" transform="translate(913.857 3784.317) rotate(180)"/><line class="c" x1="52.612" transform="translate(588.715 3784.317) rotate(180)"/><line class="b" x1="52.612" transform="translate(832.698 3784.317) rotate(180)"/></g></svg>